<svg xmlns="http://www.w3.org/2000/svg" width="296.529" height="215.959" viewBox="0 0 296.529 215.959">
  <g id="Grupo_1013460" data-name="Grupo 1013460" transform="translate(-964.825 -1606.47)">
    <g id="Group_27" data-name="Group 27" transform="translate(964.825 1606.47)">
      <path id="Trazado_124704" data-name="Trazado 124704" d="M18.184,214.773s-21.961-27.658-7.832-67.028c11.9-33.159,45.883-11.845,36.577-53.763C38.488,55.956,47.078,23,125.557,5.843,176.212-5.232,255.251-9.042,237.513,74.772c-6.315,29.839,95.005,5.034,52.526,140H18.184Z" transform="translate(-3.947)" fill="#ebf3fa"/>
      <path id="Trazado_124705" data-name="Trazado 124705" d="M671.793,583.336c-1.355-7.377-13.716-6.135-13.716-6.135s-9.316,11.939-11.747,12.039,5.972-11.762,5.972-11.762c-4.622-.839-16.97,3.886-16.97,3.886s-.473,14.792-2.853,14.292,1.087-13.076,1.087-13.076c-4.622.978-9.267,5.889-9.267,5.889-5.973,8.13,4.775,15.379,4.775,15.379a24.068,24.068,0,0,1-3.918,10.722,17.43,17.43,0,0,0-1.679,2.8l1.229.1c.128-.321.265-.63.413-.926,0,0,0,0,0-.005a.064.064,0,0,0,.006-.013c.1-.183.244-.443.422-.76v0c.437-.7.736-1.225.929-1.6a.006.006,0,0,1,0,0c1.317-2.214,3.188-5.087,4.322-5.628a2.355,2.355,0,0,1-.216-.586l.216.586c1.729,4.684,12.189,6.31,18.15,5.6s3.543-2.581.61-5.526-9.606-2.788-11.471-4,1.077-2.029,4.96-1.4,5.512,4.7,11.774,5.821,12.059-10.348,12.059-10.348c-4.471.991-12.087-2.064-12.263-3.592s11.385-.416,13.226-.717,5.3-3.646,3.943-11.023Z" transform="translate(-437.831 -405.92)" fill="#b3ddff"/>
      <path id="Trazado_124706" data-name="Trazado 124706" d="M47.442,568.45c-5.819-8.832,7.981-19.629,7.981-19.629s21.134,3.066,23.706.8-17.557-6.149-17.557-6.149c3.889-5.363,21.071-12.6,21.071-12.6s14.913,14.6,16.848,11.768-13.865-12.254-13.865-12.254c5.659-3.513,15.181-3.046,15.181-3.046,14.013,2.45,10.143,20.319,10.143,20.319a33.922,33.922,0,0,0,14.451,7.095,24.545,24.545,0,0,1,4.444,1.215l-1.151,1.3c-.443-.2-.886-.384-1.325-.54a.009.009,0,0,0-.007,0l-.019-.006c-.28-.089-.681-.214-1.17-.363h-.005c-1.131-.291-1.945-.531-2.511-.728l-.005,0c-3.5-.969-16.144,16.8-22.912,21.892s-6.126.83-6.015-5.031,7.059-12.211,7.775-15.269-3.076-1.016-6.419,3.409-1.031,10.16-6.309,17.416S67.4,579.275,67.4,579.275c5.519-3.354,10.293-13.9,8.98-15.622s-12,10.686-14.166,12.175-8.95,1.457-14.769-7.376Z" transform="translate(-32.361 -370.889)" fill="#b3ddff"/>
      <path id="Trazado_124707" data-name="Trazado 124707" d="M641.414,291.343s11.938-24.34,18.614-22.179S641.414,291.343,641.414,291.343Z" transform="translate(-451.139 -189.221)" fill="#b3ddff"/>
      <path id="Trazado_124708" data-name="Trazado 124708" d="M612.474,325.552s28.6-28.029,39.708-22.918-6.773,10.593-13.6,12.086-26.113,10.831-26.113,10.831Z" transform="translate(-430.784 -212.42)" fill="#b3ddff"/>
      <path id="Trazado_124709" data-name="Trazado 124709" d="M269.794,310.39s-11.937-24.339-18.614-22.179S269.794,310.39,269.794,310.39Z" transform="translate(-175.878 -202.618)" fill="#dfebfd"/>
      <path id="Trazado_124710" data-name="Trazado 124710" d="M242.956,344.6s-28.6-28.029-39.708-22.918,6.773,10.593,13.6,12.086S242.956,344.6,242.956,344.6Z" transform="translate(-140.456 -225.82)" fill="#dfebfd"/>
      <path id="Trazado_124711" data-name="Trazado 124711" d="M238.375,134.735c4.083-9.121,19.694-3.608,19.694-3.608s8.289,18.4,11.4,19.3-4.014-17.113-4.014-17.113C271.7,133.685,286.2,143.7,286.2,143.7s-4.061,19.3-.822,19.4,2.725-17.27,2.725-17.27c5.673,2.726,10.136,10.551,10.136,10.551,5.163,12.411-11.041,18.4-11.041,18.4a32.059,32.059,0,0,0,1.685,15.118,23.218,23.218,0,0,1,1.288,4.159l-1.624-.256c-.064-.456-.143-.9-.242-1.33,0,0,0-.005,0-.007l0-.019c-.071-.269-.176-.651-.306-1.117v0c-.343-1.05-.565-1.819-.7-2.371v-.005c-1.006-3.282-2.52-7.592-3.817-8.65a3.2,3.2,0,0,0,.465-.689l-.465.689c-3.718,5.517-17.771,4.318-25.263,1.508s-3.772-4.46.956-7.347,13.315-.575,16.115-1.557-.753-2.967-5.977-3.384-8.619,4.337-17.082,3.816-12.342-17.206-12.342-17.206c5.475,2.694,16.3,1.146,17.009-.776s-14.607-4.135-16.895-5.107-5.706-6.394-1.622-15.515Z" transform="translate(-166.323 -91.067)" fill="#dfebfd"/>
      <path id="Trazado_124712" data-name="Trazado 124712" d="M408.5,249.669V385.956a2.393,2.393,0,0,1-2.393,2.393H301.083a2.4,2.4,0,0,1-2.395-2.393V249.669a2.394,2.394,0,0,1,2.395-2.393H406.11A2.393,2.393,0,0,1,408.5,249.669Z" transform="translate(-210.083 -173.922)" fill="#cb00b2"/>
      <path id="Trazado_124713" data-name="Trazado 124713" d="M310.014,247.276V388.349h-8.931a2.4,2.4,0,0,1-2.395-2.393V249.669a2.394,2.394,0,0,1,2.395-2.393Z" transform="translate(-210.083 -173.922)" fill="#b3009d"/>
      <path id="Trazado_124714" data-name="Trazado 124714" d="M448.863,367.517v-4.833h1.861v4.784c0,1.377.688,2.091,1.824,2.091s1.824-.688,1.824-2.029v-4.844h1.861v4.773c0,2.562-1.438,3.817-3.709,3.817s-3.66-1.268-3.66-3.757Z" transform="translate(-315.708 -255.094)" fill="#ffeddc"/>
      <path id="Trazado_124715" data-name="Trazado 124715" d="M478.142,369.625l1.1-1.317a3.882,3.882,0,0,0,2.525,1.027c.761,0,1.22-.3,1.22-.821,0-.471-.29-.713-1.7-1.075-1.7-.435-2.8-.907-2.8-2.609,0-1.534,1.232-2.549,2.959-2.549a4.9,4.9,0,0,1,3.142,1.075l-.967,1.4a3.965,3.965,0,0,0-2.2-.834c-.712,0-1.088.326-1.088.761,0,.556.363.737,1.825,1.111,1.715.447,2.682,1.063,2.682,2.562,0,1.679-1.281,2.622-3.105,2.622A5.382,5.382,0,0,1,478.142,369.625Z" transform="translate(-336.302 -254.811)" fill="#ffeddc"/>
      <path id="Trazado_124716" data-name="Trazado 124716" d="M506.159,362.68h6.378v1.655h-4.53v1.715h3.987v1.655h-3.987v1.775H512.6v1.655h-6.439v-8.457Z" transform="translate(-356.008 -255.091)" fill="#ffeddc"/>
      <path id="Trazado_124717" data-name="Trazado 124717" d="M533.443,362.684h3.866a3.375,3.375,0,0,1,2.465.858,2.673,2.673,0,0,1,.724,1.958,2.627,2.627,0,0,1-1.812,2.622l2.065,3.02h-2.175l-1.836-2.706H535.3v2.706h-1.861Zm3.746,4.107c.907,0,1.425-.484,1.425-1.22,0-.8-.555-1.208-1.462-1.208H535.3v2.428Z" transform="translate(-375.198 -255.094)" fill="#ffeddc"/>
      <path id="Trazado_124718" data-name="Trazado 124718" d="M412.412,405.486h2.005l2.222,3.576,2.223-3.576h2.005v8.457h-1.848v-5.521l-2.379,3.613h-.049l-2.356-3.576v5.485h-1.824v-8.457Z" transform="translate(-290.07 -285.199)" fill="#ffeddc"/>
      <path id="Trazado_124719" data-name="Trazado 124719" d="M448.939,405.278h1.715l3.624,8.517h-1.945l-.774-1.9h-3.576l-.773,1.9h-1.9l3.624-8.517Zm1.957,4.977-1.124-2.742-1.124,2.742Z" transform="translate(-313.211 -285.053)" fill="#ffeddc"/>
      <path id="Trazado_124720" data-name="Trazado 124720" d="M479.932,405.486h1.715l3.963,5.207v-5.207h1.837v8.457h-1.582l-4.1-5.377v5.377h-1.836v-8.457Z" transform="translate(-337.561 -285.199)" fill="#ffeddc"/>
      <path id="Trazado_124721" data-name="Trazado 124721" d="M511.657,410.314v-4.833h1.861v4.784c0,1.378.689,2.091,1.824,2.091s1.825-.689,1.825-2.03v-4.845h1.861v4.772c0,2.562-1.438,3.817-3.709,3.817s-3.66-1.268-3.66-3.757Z" transform="translate(-359.875 -285.195)" fill="#ffeddc"/>
      <path id="Trazado_124722" data-name="Trazado 124722" d="M543.051,405.278h1.715l3.624,8.517h-1.945l-.773-1.9H542.1l-.774,1.9h-1.9l3.624-8.517Zm1.958,4.977-1.124-2.742-1.124,2.742Z" transform="translate(-379.405 -285.053)" fill="#ffeddc"/>
      <path id="Trazado_124723" data-name="Trazado 124723" d="M574.044,405.486H575.9v6.765h4.217v1.691h-6.077Z" transform="translate(-403.755 -285.199)" fill="#ffeddc"/>
      <g id="Grupo_1013349" data-name="Grupo 1013349" transform="translate(121.49 144.254)" opacity="0.7">
        <path id="Trazado_124724" data-name="Trazado 124724" d="M412.878,505.029l1.92-1.058a.487.487,0,0,1,.506.028q.286.2.594.377a8.212,8.212,0,0,0,1.165.561.48.48,0,0,1,.311.442l.043,2.291a.47.47,0,0,0,.442.463l2.09.142a.465.465,0,0,0,.489-.381l.371-2.078a.466.466,0,0,1,.407-.387,8.477,8.477,0,0,0,2.558-.771.483.483,0,0,1,.575.125l.824.985a.489.489,0,0,0,.638.093l1.726-1.16a.415.415,0,0,0,.094-.082.469.469,0,0,0,.059-.541l-.79-1.435-.193-.349a8.328,8.328,0,0,0,.664-.981,8.446,8.446,0,0,0,.662-1.436.467.467,0,0,1,.435-.315l1.846-.033a.484.484,0,0,0,.475-.452l.109-1.6.03-.458a.491.491,0,0,0-.4-.517l-1.737-.31a.466.466,0,0,1-.388-.391,8.428,8.428,0,0,0-.472-1.735,1.315,1.315,0,0,0-.054-.142.228.228,0,0,1-.016-.048.478.478,0,0,1,.156-.507l1.6-1.34a.373.373,0,0,0,.05-.049.487.487,0,0,0,.041-.588l-1.154-1.723a.484.484,0,0,0-.635-.154l-2,1.105a.47.47,0,0,1-.527-.048,8.69,8.69,0,0,0-1.074-.734c-.2-.118-.408-.226-.616-.324a.5.5,0,0,1-.281-.436l-.042-2.2a.47.47,0,0,0-.438-.461l-2.068-.138a.491.491,0,0,0-.519.4l-.292,1.644a.482.482,0,0,1-.443.4,8.413,8.413,0,0,0-2.545.554.48.48,0,0,1-.547-.139l-1.208-1.439a.5.5,0,0,0-.654-.093l-1.718,1.149a.474.474,0,0,0-.152.625l.045.084.918,1.667a.487.487,0,0,1-.056.551v0a8.329,8.329,0,0,0-.858,1.218c-.136.233-.256.471-.368.713a.473.473,0,0,1-.425.281l-1.874.033a.492.492,0,0,0-.483.458l-.138,2.059a.53.53,0,0,0,.019.168.49.49,0,0,0,.378.34l1.387.245a.489.489,0,0,1,.368.31.5.5,0,0,1,.029.133,8.432,8.432,0,0,0,.865,3.216.475.475,0,0,1-.062.517.616.616,0,0,1-.058.058l-1.293,1.085a.482.482,0,0,0-.092.635l.026.04,1.122,1.681a.49.49,0,0,0,.643.155ZM423.4,493.985a5.662,5.662,0,0,1,.658.818,4.44,4.44,0,0,1,.623,2.332c-.005.074-.011.148-.018.222a4.575,4.575,0,0,1-9.127.113,2.934,2.934,0,0,1,0-.444,5.225,5.225,0,0,1,.414-1.72,4.542,4.542,0,0,1,7.453-1.318Z" transform="translate(-409.542 -486.277)" fill="#b3009d"/>
      </g>
      <path id="Trazado_124725" data-name="Trazado 124725" d="M482.995,475.159l1.2-.408a.281.281,0,0,1,.286.068c.1.1.2.187.3.275a4.7,4.7,0,0,0,.608.438.277.277,0,0,1,.132.284l-.208,1.31a.272.272,0,0,0,.2.309l1.177.293a.268.268,0,0,0,.316-.167l.422-1.147a.272.272,0,0,1,.271-.18,4.93,4.93,0,0,0,1.536-.179.281.281,0,0,1,.315.129l.369.645a.282.282,0,0,0,.354.117l1.1-.486a.254.254,0,0,0,.062-.036.272.272,0,0,0,.088-.3l-.3-.9-.074-.218a4.811,4.811,0,0,0,.479-.492,5.057,5.057,0,0,0,.524-.751.27.27,0,0,1,.279-.136l1.055.168a.28.28,0,0,0,.316-.21l.225-.9.064-.257a.284.284,0,0,0-.177-.335l-.958-.353a.271.271,0,0,1-.182-.261,4.887,4.887,0,0,0-.093-1.037c0-.03-.01-.058-.016-.087a.194.194,0,0,1-.005-.029.277.277,0,0,1,.141-.273l1.046-.6a.241.241,0,0,0,.034-.023.28.28,0,0,0,.083-.33l-.482-1.1a.279.279,0,0,0-.346-.152l-1.253.427a.272.272,0,0,1-.3-.082,4.971,4.971,0,0,0-.537-.527c-.1-.088-.21-.169-.319-.247a.284.284,0,0,1-.116-.277l.2-1.26a.274.274,0,0,0-.2-.308l-1.164-.289a.285.285,0,0,0-.337.178l-.334.907a.28.28,0,0,1-.292.182,4.89,4.89,0,0,0-1.507.058.278.278,0,0,1-.3-.134l-.543-.943a.287.287,0,0,0-.363-.119l-1.095.48a.274.274,0,0,0-.15.342l.018.052.354,1.044a.282.282,0,0,1-.088.308,4.966,4.966,0,0,0-.612.608c-.1.119-.193.242-.282.369a.272.272,0,0,1-.271.117l-1.071-.172a.283.283,0,0,0-.322.212l-.287,1.159a.333.333,0,0,0-.006.1.284.284,0,0,0,.181.232l.766.28a.283.283,0,0,1,.178.214.322.322,0,0,1,0,.078,4.886,4.886,0,0,0,.167,1.92.275.275,0,0,1-.088.289.214.214,0,0,1-.039.026l-.848.487a.278.278,0,0,0-.117.353l.011.025.47,1.072a.285.285,0,0,0,.352.153Zm7.116-5.225a3.228,3.228,0,0,1,.291.532,2.552,2.552,0,0,1,.118,1.391c-.01.042-.021.083-.033.124a2.648,2.648,0,0,1-5.212-.861,1.588,1.588,0,0,1,.044-.254,3,3,0,0,1,.411-.938A2.629,2.629,0,0,1,490.111,469.934Z" transform="translate(-338.987 -327.252)" fill="#ffeddc"/>
      <path id="Trazado_124726" data-name="Trazado 124726" d="M486.5,538.029l3.115-1.513a.768.768,0,0,1,.8.085q.437.337.907.643a12.815,12.815,0,0,0,1.792.979.76.76,0,0,1,.455.723l-.12,3.618a.744.744,0,0,0,.659.767l3.285.4a.734.734,0,0,0,.8-.561l.753-3.246a.738.738,0,0,1,.672-.578,13.389,13.389,0,0,0,4.1-1.006.762.762,0,0,1,.9.244l1.218,1.621a.772.772,0,0,0,1,.2l2.819-1.688a.668.668,0,0,0,.155-.121.738.738,0,0,0,.137-.849l-1.128-2.328-.276-.566a13.338,13.338,0,0,0,1.128-1.493,13.507,13.507,0,0,0,1.162-2.21.739.739,0,0,1,.71-.462l2.915.1a.764.764,0,0,0,.785-.674l.3-2.511.084-.719a.774.774,0,0,0-.593-.849l-2.712-.632a.737.737,0,0,1-.58-.647,13.227,13.227,0,0,0-.6-2.775c-.02-.08-.047-.152-.073-.227a.351.351,0,0,1-.021-.078.756.756,0,0,1,.286-.787l2.627-1.984a.5.5,0,0,0,.083-.073.768.768,0,0,0,.113-.923l-1.679-2.813a.764.764,0,0,0-.988-.295l-3.248,1.579a.74.74,0,0,1-.829-.119,13.534,13.534,0,0,0-1.632-1.246q-.465-.3-.947-.561a.778.778,0,0,1-.408-.71l.114-3.477a.743.743,0,0,0-.654-.762l-3.251-.387a.776.776,0,0,0-.851.6l-.6,2.569a.763.763,0,0,1-.732.593,13.342,13.342,0,0,0-4.06.665.757.757,0,0,1-.851-.265l-1.787-2.368a.785.785,0,0,0-1.023-.2l-2.8,1.671a.749.749,0,0,0-.29.974l.064.137,1.312,2.7a.767.767,0,0,1-.133.864l0,0a13.21,13.21,0,0,0-1.45,1.851c-.232.358-.442.722-.639,1.095a.753.753,0,0,1-.694.409l-2.958-.1a.777.777,0,0,0-.8.683l-.387,3.237a.854.854,0,0,0,.015.267.774.774,0,0,0,.569.568l2.169.5a.772.772,0,0,1,.555.519.836.836,0,0,1,.034.211,13.3,13.3,0,0,0,1.1,5.142.749.749,0,0,1-.139.811.792.792,0,0,1-.1.085l-2.128,1.6a.76.76,0,0,0-.2.995l.039.065,1.633,2.742a.773.773,0,0,0,1,.3Zm17.5-16.557a8.912,8.912,0,0,1,.97,1.342,7,7,0,0,1,.791,3.727c-.014.118-.03.234-.046.349a7.225,7.225,0,0,1-14.4-.568,4.82,4.82,0,0,1,.031-.7,8.211,8.211,0,0,1,.795-2.678A7.173,7.173,0,0,1,503.993,521.472Z" transform="translate(-338.967 -358.081)" fill="#b3009d"/>
      <path id="Trazado_124727" data-name="Trazado 124727" d="M343.952,238.218a2.778,2.778,0,0,0-2.907,2.687h5.909s.619-2.049,2.431-1.344v-1.344Z" transform="translate(-239.874 -167.551)" fill="#7999e2"/>
      <path id="Trazado_124728" data-name="Trazado 124728" d="M350.841,238.218s5,.477,5.195,4.767,0,12.868,0,12.868l3.812-1.43,3.05,1.43V242.794a5.155,5.155,0,0,0-4.385-4.576h-7.672Z" transform="translate(-246.764 -167.551)" fill="#aec3ff"/>
      <path id="Trazado_124729" data-name="Trazado 124729" d="M569.622,234.687H559.095a14,14,0,0,1-3.409-3.538c-.251-.367-.5-.761-.74-1.187-1.351-2.391,11.144,3.129,14.675,4.725Z" transform="translate(-390.25 -161.328)" fill="#3c0061"/>
      <path id="Trazado_124730" data-name="Trazado 124730" d="M561.346,304.69a1,1,0,0,1,.172,1.08,0,0,0,0,1,0,.005,6.713,6.713,0,0,1-2.136,2.31c-.128.1-.242.195-.341.281-.026.023-.053.045-.077.068l-.059.053c-.938.853-.589,1.051-2.274,2.783-1.922,1.972-3.236,2-3.609,1.814-.315-.157.335-1.206,1.055-2.383.035-.056.069-.114.1-.172l.286-.473c.844-1.419.634-2.088.452-4.21-.148-1.724-2.612-9.643-2.612-9.643l3.661-.6s1.057,6.3,2.264,7.276c.646.521,1.371.533,1.993.921.044.026.087.054.129.083a4.769,4.769,0,0,1,.994.811Z" transform="translate(-388.464 -207.909)" fill="#ffb27d"/>
      <path id="Trazado_124731" data-name="Trazado 124731" d="M562.843,324.128a1,1,0,0,1,.172,1.08,0,0,0,0,1,0,.005,7.765,7.765,0,0,1-2.139,2.3c-.127.1-.239.2-.339.289-.026.023-.053.045-.077.068l-.059.053c-.938.853-.589,1.051-2.274,2.783-1.922,1.972-3.236,2-3.609,1.814-.315-.157.335-1.206,1.055-2.383a8.124,8.124,0,0,0,3.419-2.482c1.159-1.458,1.939-3.336,2.729-4.422.044.026.087.054.129.083a4.778,4.778,0,0,1,.995.811Z" transform="translate(-389.962 -227.347)" fill="#3c0061"/>
      <path id="Trazado_124732" data-name="Trazado 124732" d="M457.43,299.154c-.233,1.128-1.842.928-3.636.476s-1.371.073-3.928-.228-3.325-1.261-3.4-1.641c-.068-.338,1.2-.448,2.554-.6.171-.018.342-.038.514-.058,1.532-.181,2.661-1.161,4.057-1.963,1.322-.759,3.31-3.876,3.31-3.876l3.507.3s-1.861,2.784-2.582,3.994a4.238,4.238,0,0,0-.362,2.388,4.523,4.523,0,0,1-.035,1.2Z" transform="translate(-314.02 -204.864)" fill="#ffb27d"/>
      <path id="Trazado_124733" data-name="Trazado 124733" d="M453.794,313.606c-1.794-.452-1.371.073-3.928-.229s-3.325-1.26-3.4-1.641c-.068-.338,1.2-.448,2.554-.6l.013.026a7.22,7.22,0,0,0,3.656,1.165c1.735.054,3.577-.43,4.776-.4a4.525,4.525,0,0,1-.035,1.2c-.233,1.128-1.842.928-3.636.476Z" transform="translate(-314.02 -218.841)" fill="#3c0061"/>
      <path id="Trazado_124734" data-name="Trazado 124734" d="M541.2,248.434s-.245.158-.609.36a8.157,8.157,0,0,1-1.6.694,6.546,6.546,0,0,1-1.646.215c-.381,0-.63-.023-.63-.023l-4.2-11.556-.76-2.089-.807-2.224-.281-.773-1.369-3.763s3.344-8.573,6.754-4.487a8.274,8.274,0,0,1,1.168,2.112c.249.606.485,1.29.711,2.03.168.557.331,1.144.488,1.756.424,1.664.8,3.5,1.13,5.349,1.1,6.164,1.651,12.4,1.651,12.4Z" transform="translate(-372.28 -157.329)" fill="#3c0061"/>
      <path id="Trazado_124735" data-name="Trazado 124735" d="M525.281,206.059a1.828,1.828,0,0,1-.972,1.017H508.8a40.606,40.606,0,0,1-9.439-3.538c-.177-.089-.343-.172-.5-.247a10.219,10.219,0,0,0-1.44-.653c-1.3-.27-1.963,1.842-3.061,4.44-.225.529-.465,1.076-.733,1.63a8.4,8.4,0,0,1-1.039,1.5c-.091.109-.183.22-.281.334-3.771,4.4-13.477,12.6-13.477,12.6s-.114,0-.3,0a9.777,9.777,0,0,1-2.55-.309,3.893,3.893,0,0,1-.826-.43,1.851,1.851,0,0,1-.393-.353s11.615-22.71,17.63-28.9c.088-.092.173-.177.259-.259a4.9,4.9,0,0,1,1.724-1.218c2.049-.646,15.3.074,15.3.074l.423-.688.708-.05.122-.009.59-.043h0l.815-.058,1.21-.085,3.276-.233.526-.038,6.056-.431s.276.623.649,1.656c.146.4.306.868.471,1.383,1.081,3.382,2.342,8.9.755,12.908Z" transform="translate(-333.926 -133.715)" fill="#2b478b"/>
      <path id="Trazado_124736" data-name="Trazado 124736" d="M605.481,75.422C602.455,72.838,600.3,72.2,600,68.109c-.163-2.22-3.144-9.566-8.187-8.923a7.553,7.553,0,0,1-1.271.074,4.717,4.717,0,0,0-2.563.643c-2.427,1.421-6.9,14.563-3.885,19.181a3.348,3.348,0,0,0,2.4,1.546l.389.219h0c.543.3,1.138.639,1.768,1,3.564,2.009,8.228,4.665,10.618,6.008h0l.408.23.694.386c.28.153.444.239.456.239a10.369,10.369,0,0,0,1.478.416,5.637,5.637,0,0,0,4.056-.377,6.457,6.457,0,0,0,1.284-1.112c2.425-2.712,3.064-7.751-2.167-12.214Z" transform="translate(-410.111 -41.601)" fill="#3c0061"/>
      <path id="Trazado_124737" data-name="Trazado 124737" d="M606.685,106.6a6.253,6.253,0,0,0,3.9.147c1.483-.643,2.621-3.067,2.6-3.07-.673-.036-1.406-.629-1.949-4.491l-.287.1-4.828,1.7s.338,1.548.554,3.021c.181,1.237.275,2.421.011,2.594Z" transform="translate(-426.316 -69.763)" fill="#ffb27d"/>
      <path id="Trazado_124738" data-name="Trazado 124738" d="M606.121,101.226s.206,1.085.491,2.635a5.627,5.627,0,0,0,4.337-4.335l-4.828,1.7Z" transform="translate(-426.316 -70.002)" fill="#ed975d"/>
      <path id="Trazado_124739" data-name="Trazado 124739" d="M595.779,82.964s6.6-.837,6.011-4.937-.128-6.969-4.363-6.607-4.829,2.043-4.966,3.458,1.589,8.2,3.32,8.085Z" transform="translate(-416.702 -50.211)" fill="#ffb27d"/>
      <path id="Trazado_124740" data-name="Trazado 124740" d="M593.338,71.767s4.193,3.665,7.059,3.978,3.961-.6,3.961-.6a11.211,11.211,0,0,1-2.684-3.689,2.015,2.015,0,0,0-1.655-1.2C597.971,70.064,594.089,69.956,593.338,71.767Z" transform="translate(-417.325 -49.343)" fill="#3c0061"/>
      <path id="Trazado_124741" data-name="Trazado 124741" d="M594.125,72.661a10.418,10.418,0,0,0-1.872,2.363,7.973,7.973,0,0,0-.246,4.238s-2.169-4.291-.909-6.359C592.433,70.709,594.125,72.661,594.125,72.661Z" transform="translate(-415.473 -50.543)" fill="#3c0061"/>
      <path id="Trazado_124742" data-name="Trazado 124742" d="M589.084,126.542c.105,13.34-.02,10.551,1.43,11.827a5.6,5.6,0,0,0,2.637.592c4.088.3,11.282-.323,11.561-1.077.962-2.609.3-3.425,1.117-7.425.085-.426.19-.885.313-1.387.676-2.745,1.321-3.676-.976-8.111-2.083-4.017-4.254-7.28-4.451-7.165-5.594,3.267-6.023.485-6.023.485s-5.658,5.753-5.606,12.26Z" transform="translate(-414.333 -80.036)" fill="#aec3ff"/>
      <path id="Trazado_124743" data-name="Trazado 124743" d="M548.825,260.874s-.245.158-.609.36a8.154,8.154,0,0,1-1.6.694,6.546,6.546,0,0,1-1.646.215c-.381,0-.63-.023-.63-.023l-4.2-11.556,1.23-2.089,3.152-5.349,1.034-1.756c.168.557.331,1.144.488,1.756.424,1.664.8,3.5,1.13,5.349,1.1,6.164,1.651,12.4,1.651,12.4Z" transform="translate(-379.908 -169.769)" fill="#2b478b"/>
      <path id="Trazado_124744" data-name="Trazado 124744" d="M581.469,115.437s-5.738.932-6.429,3.394-4.754,16.944-4.754,16.944,2.91.544,4.266-.792,4.771-12.456,4.771-12.456l2.145-7.089Z" transform="translate(-401.111 -81.193)" fill="#aec3ff"/>
      <path id="Trazado_124745" data-name="Trazado 124745" d="M602.794,165.271c4.088.3,11.282-.323,11.561-1.077.962-2.609.3-3.425,1.117-7.425l-1.934-5.569s.282,6.188-1.553,7.8-7.491,3.088-8.388,4.441A4.973,4.973,0,0,0,602.794,165.271Z" transform="translate(-423.976 -106.347)" fill="#95b3ef"/>
      <path id="Trazado_124746" data-name="Trazado 124746" d="M601.688,188.422s-4.028-.926-4.682-.574a9.484,9.484,0,0,0-2.456,2.1c-.2.452,1.452-.334,1.989-.475a4.774,4.774,0,0,1,1.712.388,5.7,5.7,0,0,0,3.069.33Z" transform="translate(-418.165 -132.067)" fill="#ffb27d"/>
      <path id="Trazado_124747" data-name="Trazado 124747" d="M619.952,113.795s5.416.372,7.273,3c2.614,3.7,7.741,19.431,4.725,21.5-3.4,2.333-15.389.508-15.389.508a4.874,4.874,0,0,1,.176-2.77c.563-.9,9.6-2.294,10.025-2.709s-5.153-8.165-5.145-9.416-1.664-10.118-1.664-10.118Z" transform="translate(-433.567 -80.038)" fill="#aec3ff"/>
      <path id="Trazado_124748" data-name="Trazado 124748" d="M598.418,191.822a7.764,7.764,0,0,1-1.131,1.213.826.826,0,0,1-.457.094l.576-1.021,1.011-.286Z" transform="translate(-419.781 -134.918)" fill="#ffb27d"/>
      <path id="Trazado_124749" data-name="Trazado 124749" d="M597.023,188.042l-2.466,1.176a.437.437,0,0,0,.405.161,5.844,5.844,0,0,0,1.069-.285l.992-1.051Z" transform="translate(-418.182 -132.259)" fill="#ffb27d"/>
      <path id="Trazado_124750" data-name="Trazado 124750" d="M540.416,164.883l-19.444-.137-5.747-14.587,19.415.137Z" transform="translate(-362.384 -105.614)" fill="#ffca00"/>
      <path id="Trazado_124751" data-name="Trazado 124751" d="M533.841,197.414l25.677.182,0,.566-25.448-.18Z" transform="translate(-375.478 -138.851)" fill="#ed7d2b"/>
      <path id="Trazado_124752" data-name="Trazado 124752" d="M551.234,172.748a.674.674,0,0,1,.667-.922,1.326,1.326,0,0,1,1.184.934.675.675,0,0,1-.667.922A1.325,1.325,0,0,1,551.234,172.748Z" transform="translate(-387.686 -120.854)" fill="#fff"/>
      <path id="Trazado_124753" data-name="Trazado 124753" d="M227.129,674.934h78.559a9.894,9.894,0,0,0,9.894-9.894v-.413a9.894,9.894,0,0,0-9.894-9.894H227.129a9.893,9.893,0,0,0-9.893,9.894v.413A9.893,9.893,0,0,0,227.129,674.934Z" transform="translate(-152.793 -460.508)" fill="#2b478b"/>
      <path id="Trazado_124754" data-name="Trazado 124754" d="M400.5,663.224l-.07,4.415a7.074,7.074,0,0,0,6.959,7.185l52.211.834.014-.88a9,9,0,0,1-4.851-8.133l.025-1.553a9,9,0,0,1,5.108-7.975V657.1l-52.211-.834A7.073,7.073,0,0,0,400.5,663.224Z" transform="translate(-281.645 -461.584)" fill="#ffeddc"/>
      <path id="Trazado_124755" data-name="Trazado 124755" d="M459.085,674.9H404.079c-3.547,0-6.327-4.44-6.327-10.107s2.779-10.107,6.327-10.107h55.005a.828.828,0,0,1,0,1.655H404.079c-2.533,0-4.672,3.871-4.672,8.453s2.14,8.453,4.672,8.453h55.005a.828.828,0,0,1,0,1.655Z" transform="translate(-279.759 -460.476)" fill="#1b3770"/>
      <path id="Trazado_124756" data-name="Trazado 124756" d="M492.645,672.851H452.927v.119h39.718Z" transform="translate(-318.567 -473.251)" fill="#e8c2a3"/>
      <path id="Trazado_124757" data-name="Trazado 124757" d="M541.97,679.048H524.013v.119H541.97Z" transform="translate(-368.565 -477.609)" fill="#e8c2a3"/>
      <path id="Trazado_124758" data-name="Trazado 124758" d="M510.272,700.195H478.946v.119h31.326Z" transform="translate(-336.867 -492.483)" fill="#e8c2a3"/>
      <path id="Trazado_124759" data-name="Trazado 124759" d="M475.649,673.05a3.525,3.525,0,0,1,1.865,3.051,16.7,16.7,0,0,1,0,3.609l-2.012-.957-2.032.957v-3.68s-.074-2.98-2.847-2.98Z" transform="translate(-331.014 -473.39)" fill="#cb00b2"/>
      <path id="Trazado_124760" data-name="Trazado 124760" d="M282.991,405.473a6.914,6.914,0,0,1,7.238,2.435c3.145,3.785,7.755,8.9,6.558,10.344s-1.435,2.639.281,3.568,2.622,2.161.1,6.023c-1.649,2.522-2-.835-7.005-.669s-8.835-2.359-10.508-.972c-6.316,5.237-5.4-20.874,3.343-20.731Z" transform="translate(-193.817 -285.025)" fill="#3c0061"/>
      <path id="Trazado_124761" data-name="Trazado 124761" d="M223.711,471.153s-11.5,5.441-13.717,5.344-16.492-4.751-16.492-4.751l.348,2.347s10.525,6.054,14.205,6.4c3.622.338,16.011-3.251,17.206-4.009a3.1,3.1,0,0,0-1.551-5.326Z" transform="translate(-136.101 -331.386)" fill="#ffca00"/>
      <path id="Trazado_124762" data-name="Trazado 124762" d="M290.506,458.805a11.69,11.69,0,0,0,4.1,1.744c6.318,1.46,8.741-3.881,9.65-7.546a5.441,5.441,0,0,0-2.141-.658c-.457-.054-.937-.089-1.335-.109-.71-.544-1.767-2.767-2-6.22l-.3.079-4.98,1.364s.229,1.583.34,3.079a5.918,5.918,0,0,1-.122,2.564c-.388.084-.621.139-.621.139s0,0,0,.005a32.044,32.044,0,0,0-2.589,5.56Z" transform="translate(-204.328 -313.705)" fill="#ffb27d"/>
      <path id="Trazado_124763" data-name="Trazado 124763" d="M300.605,447.649s.229,1.582.34,3.079c2.822-.282,4.131-2.968,4.641-4.442l-4.98,1.362Z" transform="translate(-211.431 -313.896)" fill="#ffca00"/>
      <path id="Trazado_124764" data-name="Trazado 124764" d="M291.151,428.63s6.7-.369,6.4-4.537.372-7.021-3.916-6.961-5.006,1.709-5.246,3.123,1.01,8.363,2.76,8.374Z" transform="translate(-202.82 -293.389)" fill="#ffb27d"/>
      <path id="Trazado_124765" data-name="Trazado 124765" d="M286.2,415.888c.945-1.327,1.745-1.109,2.21-.763a4.687,4.687,0,0,1,6.081.531,7.978,7.978,0,0,0,2.941,4.515s-1.165.84-4.028.319a4.8,4.8,0,0,1-2.389-1.408,15.671,15.671,0,0,0,2.921,3.088c-3.468-1.311-5.152-5.884-5.322-6.368a5.26,5.26,0,0,0-1.32,2.049c-.257,1.085-1.367,2.781-2.009,2.753a6.932,6.932,0,0,1,.914-4.715Z" transform="translate(-200.593 -291.353)" fill="#3c0061"/>
      <path id="Trazado_124766" data-name="Trazado 124766" d="M280.292,471.571c-.362,3.227.176,4.651,3.524,12.1a14.172,14.172,0,0,1-.382,11.971s6.88,5.531,11.819,7.672c2.745,1.192,4.892,1.334,4.926-1.1.038-2.755-1.257-6.229-2.342-9.468-.936-2.793-1.719-5.411-1.361-7.24.605-3.092,2.577-15.442.605-19.417-.708-1.429-3.487-1.557-6.536-1.432-.949.612-4.564,2.927-6.05,2.638-.016,0-.044-.01-.083-.019-.7-.176-.7-.593-.38-1.091a14.032,14.032,0,0,0-3.214.515,13.605,13.605,0,0,0-4.086,2.127A10.071,10.071,0,0,0,280.292,471.571Z" transform="translate(-194.64 -326.794)" fill="#ffeddc"/>
      <path id="Trazado_124767" data-name="Trazado 124767" d="M259.6,531.431a3.094,3.094,0,0,1-2.228-1.356l-.257-.388c-1.9-2.869-2.633-11.656-6.9-21.018-1.038-2.279-4.766-2.689-5.782-5.265,0,0-2.5-8.35,4.788-8.6s19.524,23.236,19.718,25.7C269.132,522.89,273.764,533.028,259.6,531.431Z" transform="translate(-171.636 -348.021)" fill="#1b3770"/>
      <path id="Trazado_124768" data-name="Trazado 124768" d="M198.861,604.862h10.377a4.31,4.31,0,0,0-.294-2.781,2,2,0,0,1,.074-2.388,4.027,4.027,0,0,1-1.748.329,3.672,3.672,0,0,1-1.543-.543,37.6,37.6,0,0,1-2.956,3.105C202.093,603.071,199.07,602.9,198.861,604.862Z" transform="translate(-139.869 -421.644)" fill="#3c0061"/>
      <path id="Trazado_124769" data-name="Trazado 124769" d="M226.561,496.44c-.625,4.684-3.065,19.469-7.369,26.681-1.387,2.325,3.5,3.629,3.522,3.623a8.278,8.278,0,0,0,2.249-1.669c3.495-3.149,10.588-12.067,10.588-19.215,0-3.486.061-10.143-2.474-11.836-1.561-1.042-6.268.555-6.517,2.416Z" transform="translate(-153.994 -347.24)" fill="#1b3770"/>
      <path id="Trazado_124770" data-name="Trazado 124770" d="M265.99,502.193c1.017,2.576,3.874,2.261,4.912,4.54.044.1.087.193.13.289.534,1.183,1.036,2.364,1.513,3.535.993,2.441,2.473,7.548,3.582,11.685.755,2.807,1.34,5.169,1.487,5.947a11.519,11.519,0,0,0,.62,2.116c15.894,2.452,13.89-8.5,13.018-11.059-.8-2.338-14.647-26.478-21.938-26.231S265.99,502.193,265.99,502.193Z" transform="translate(-186.327 -346.762)" fill="#2b478b"/>
      <path id="Trazado_124771" data-name="Trazado 124771" d="M224.538,604.862h10.376a4.31,4.31,0,0,0-.294-2.781,2,2,0,0,1,.074-2.388,4.027,4.027,0,0,1-1.748.329,3.67,3.67,0,0,1-1.543-.543,37.646,37.646,0,0,1-2.956,3.105C227.77,603.071,224.746,602.9,224.538,604.862Z" transform="translate(-157.929 -421.644)" fill="#1e3d7c"/>
      <path id="Trazado_124772" data-name="Trazado 124772" d="M285.541,532.222c.534,1.183,1.036,2.364,1.513,3.535.993,2.441,2.473,7.548,3.582,11.685.009.018.019.034.028.051,4.132-6.444-1.822-18.651-1.822-18.651A7.232,7.232,0,0,0,285.541,532.222Z" transform="translate(-200.836 -371.962)" fill="#1e3d7c"/>
      <path id="Trazado_124773" data-name="Trazado 124773" d="M250.68,496.553c-.625,4.683-1.5,19.8-5.809,27.014-1.387,2.325,3.5,3.629,3.522,3.623a8.274,8.274,0,0,0,2.249-1.669c3.495-3.149,10.588-12.067,10.588-19.215,0-3.486-4.091-9.863-6.626-11.556a2.55,2.55,0,0,0-3.925,1.8Z" transform="translate(-172.056 -347.684)" fill="#2b478b"/>
      <path id="Trazado_124774" data-name="Trazado 124774" d="M187.314,445.324l2.151-3.881,1.689,4.713,10.1,9.207-9.883,2.015Z" transform="translate(-131.748 -310.489)" fill="#b3009d"/>
      <path id="Trazado_124775" data-name="Trazado 124775" d="M199.288,457.116l3.943,12.04-11.857-2.576-4.06-12.053Z" transform="translate(-131.748 -319.692)" fill="#cb00b2"/>
      <path id="Trazado_124776" data-name="Trazado 124776" d="M198.832,456.427,187.8,453.951l-.487.171,11.438,2.472Z" transform="translate(-131.748 -319.287)" fill="#fcecdb"/>
      <path id="Trazado_124777" data-name="Trazado 124777" d="M225.951,462.3l.132.214-.212-.047Z" transform="translate(-158.867 -325.158)" fill="#eac5a4"/>
      <path id="Trazado_124778" data-name="Trazado 124778" d="M187.314,445.775l2.327-3.692,1.521,4.274-3.36-.753Z" transform="translate(-131.748 -310.94)" fill="#efdece"/>
      <path id="Trazado_124779" data-name="Trazado 124779" d="M211.088,466.111c.374-.072,1.177-.374,1.989-.6a1.671,1.671,0,0,1-.588-.657c-.144-.458-.241-.605.241-.46s2.174.92,2.174.92l0,0a4.47,4.47,0,0,1,1.845,1.638s11.888,4.179,13.319,4.25c2.212.11,16.94-5.313,16.94-5.313,3.476.767,2.7,5.038,1.5,5.8s-11.793,4.613-18.074,4.686c-3.18.036-14.753-7.4-14.753-7.4a4.925,4.925,0,0,0-2.416-.424c-1.062.193-3.526,0-4.057-.869s1.256-1.449,1.883-1.57Z" transform="translate(-147.076 -326.596)" fill="#ffb27d"/>
      <path id="Trazado_124780" data-name="Trazado 124780" d="M311.276,471.437a8.089,8.089,0,0,0,5.841,5.118s7.47-2.3,3.751-7.391c0,0-3.678-2.732-9.592,2.271Z" transform="translate(-218.936 -329.463)" fill="#ffeddc"/>
      <path id="Trazado_124781" data-name="Trazado 124781" d="M189.762,466.351a1.185,1.185,0,0,1,.039-.338s1.066-1.685,1.415-1.754c1.063-.21,1.063,1.189.837,2.093a5.067,5.067,0,0,1-.71,1.865l.452,1.341a3.378,3.378,0,0,1-2.034-3.206Z" transform="translate(-133.468 -326.522)" fill="#ffb27d"/>
      <path id="Trazado_124782" data-name="Trazado 124782" d="M331.875,566.292c2.745,1.192,4.892,1.334,4.926-1.1.038-2.755-1.257-6.229-2.342-9.468,0,0-1.494,1.031-4.711-1.329C327.21,552.535,330.41,562.147,331.875,566.292Z" transform="translate(-231.262 -389.768)" fill="#2b478b"/>
      <path id="Trazado_124783" data-name="Trazado 124783" d="M135.044,692.752a4.945,4.945,0,0,0,.04.643,5.276,5.276,0,0,0,5.239,4.635h74.241a5.279,5.279,0,0,0,0-10.559H140.322a5.279,5.279,0,0,0-5.279,5.28Z" transform="translate(-94.983 -483.534)" fill="#cb00b2"/>
      <path id="Trazado_124784" data-name="Trazado 124784" d="M152.213,680.414h25.455a.81.81,0,1,0,0-1.62H152.213a.81.81,0,1,0,0,1.62Z" transform="translate(-106.489 -477.431)" fill="#cb00b2"/>
      <path id="Trazado_124785" data-name="Trazado 124785" d="M158.874,685.21h2.759v-.956h-2.759Z" transform="translate(-111.744 -481.271)" fill="#b3009d"/>
      <path id="Trazado_124786" data-name="Trazado 124786" d="M137.206,713.786a5.29,5.29,0,0,0,4.638,2.754H157.57v-2.754Z" transform="translate(-96.504 -502.042)" fill="#b3009d"/>
      <path id="Trazado_124787" data-name="Trazado 124787" d="M252.976,691.208V694.3a3.732,3.732,0,0,1-3.732,3.733H171.91a3.732,3.732,0,0,1-3.732-3.733v-3.093a3.732,3.732,0,0,1,3.732-3.733h77.335A3.732,3.732,0,0,1,252.976,691.208Z" transform="translate(-118.288 -483.536)" fill="#ffca00"/>
      <path id="Trazado_124788" data-name="Trazado 124788" d="M253.155,713.786a3.732,3.732,0,0,1-3.6,2.754H172.219a3.73,3.73,0,0,1-3.6-2.754h84.537Z" transform="translate(-118.598 -502.042)" fill="#ef873a"/>
      <path id="Trazado_124789" data-name="Trazado 124789" d="M428.14,692.77a5.866,5.866,0,0,0,1.536,4.076l.063.064a3.747,3.747,0,0,0,2.649,1.156c1.566,0,5.446-2.362,7.851-3.93,1.2-.782,2.03-1.368,2.03-1.368s-.832-.585-2.03-1.366c-2.4-1.57-6.285-3.931-7.851-3.931a3.521,3.521,0,0,0-1.3.251,4.259,4.259,0,0,0-1.791,1.412,5.819,5.819,0,0,0-1.075,2.584.327.327,0,0,0,0,.034A6.541,6.541,0,0,0,428.14,692.77Z" transform="translate(-301.133 -483.534)" fill="#b3ddff"/>
      <path id="Trazado_124790" data-name="Trazado 124790" d="M428.136,702.922A5.868,5.868,0,0,0,429.672,707l11.9-4.095-13.36-1a6.575,6.575,0,0,0-.079,1.017Z" transform="translate(-301.129 -493.686)" fill="#a6c7ed"/>
      <path id="Trazado_124791" data-name="Trazado 124791" d="M432.039,689.735l11.874,3.242-10.084-4.655a4.258,4.258,0,0,0-1.791,1.413Z" transform="translate(-303.874 -484.132)" fill="#e3f0ff"/>
      <path id="Trazado_124792" data-name="Trazado 124792" d="M466.311,702.094a1.467,1.467,0,0,0,.775,1.368c1.2-.782,2.03-1.368,2.03-1.368s-.832-.585-2.03-1.366A1.461,1.461,0,0,0,466.311,702.094Z" transform="translate(-327.98 -492.858)" fill="#2e3552"/>
      <path id="Trazado_124793" data-name="Trazado 124793" d="M739.591,447.2s-.36-.81-.594-1.194-1.231-1.508-1.4-1.253-.849,1.968-.489,2.447-.024,1.315,1.771,1.821Z" transform="translate(-518.373 -312.789)" fill="#ffb27d"/>
      <path id="Trazado_124794" data-name="Trazado 124794" d="M763.8,435.835s-9.183,7.664-12.763,6.955a70.514,70.514,0,0,1-7.1-2.028l-.859,2.2s3.854,5.227,7.871,5.261a22.883,22.883,0,0,0,10.919-2.719l1.929-9.667Z" transform="translate(-522.647 -306.545)" fill="#95b3ef"/>
      <path id="Trazado_124795" data-name="Trazado 124795" d="M842.156,705.084s-.266,4.3-1.1,4.361c-.11.009-4.219.009-4.219.009l-5.245-.03a1.7,1.7,0,0,1,1.567-1.531c1.533-.268,4.1-1.345,5.028-3.371.977-2.132,3.967.562,3.967.562Z" transform="translate(-584.903 -494.948)" fill="#3651a3"/>
      <path id="Trazado_124796" data-name="Trazado 124796" d="M826.031,583.505a10.935,10.935,0,0,1-2.839.534,10.434,10.434,0,0,1-2.651-.378,72.474,72.474,0,0,0-1.953-9.3c-.866-3.353-2.1-7.663-3.862-13.019-4.865-14.8-6.345-23.463-6.479-24.283-.007-.043-.01-.064-.01-.064l.016-.007,14.956-6.567s-1.848,20.4.51,28.232a33.274,33.274,0,0,1,.856,3.752C826.065,570.911,826.031,583.505,826.031,583.505Z" transform="translate(-568.474 -373.072)" fill="#2b478b"/>
      <path id="Trazado_124797" data-name="Trazado 124797" d="M818.612,574.362c-.866-3.353-2.1-7.663-3.862-13.019-4.865-14.8-6.345-23.463-6.479-24.283a.642.642,0,0,1,.006-.071l14.956-6.567s-1.848,20.4.51,28.232C824.073,559.748,818.612,574.362,818.612,574.362Z" transform="translate(-568.498 -373.072)" fill="#3c0061"/>
      <path id="Trazado_124798" data-name="Trazado 124798" d="M802.779,705.084s-.266,4.3-1.1,4.361c-.11.009-4.219.009-4.219.009l-5.245-.03a1.7,1.7,0,0,1,1.567-1.531c1.533-.268,4.1-1.345,5.028-3.371.977-2.132,3.966.562,3.966.562Z" transform="translate(-557.206 -494.948)" fill="#3651a3"/>
      <path id="Trazado_124799" data-name="Trazado 124799" d="M799.224,532.042a212.859,212.859,0,0,0,2.093,29.453c2.288,16.233,1.512,23.123,1.512,23.123a15.486,15.486,0,0,0,2.206.561,9.989,9.989,0,0,0,3.272-.379s3.273-16.238,2.335-24.363,4.483-27.879,4.483-27.879l-15.9-.515Z" transform="translate(-562.133 -374.212)" fill="#2b478b"/>
      <path id="Trazado_124800" data-name="Trazado 124800" d="M820.286,412.254l-2.919,1.915-2.659-.752a6.345,6.345,0,0,1-.622-3.188,19.716,19.716,0,0,1,.1-2.123l3.939-1.739,1.47-.648c0,.023-.114,1.206-.131,1.38A10.05,10.05,0,0,0,820.286,412.254Z" transform="translate(-572.588 -285.363)" fill="#ffb27d"/>
      <path id="Trazado_124801" data-name="Trazado 124801" d="M798.867,459.736c3.634,3.508,17.387,2.918,18.234-.947s-.924-32.908-7.132-34.731c-1.288-.379-8.174,1.847-8.174,1.847a43.587,43.587,0,0,0-1.789,6.425c-.137.7-.539,8.121-.84,15.065-.141,3.247-.259,6.391-.319,8.691A25.124,25.124,0,0,0,798.867,459.736Z" transform="translate(-561.842 -298.231)" fill="#afcdfb"/>
      <path id="Trazado_124802" data-name="Trazado 124802" d="M819.174,408.684c-.8,1.351-3.6,2.534-5.088,3.075a19.71,19.71,0,0,1,.1-2.123l3.939-1.739c.87-.011,1.4.183,1.045.786Z" transform="translate(-572.588 -286.894)" fill="#fca56b"/>
      <path id="Trazado_124803" data-name="Trazado 124803" d="M807.547,388.186s6.346,1.98,7.519-1.991,2.78-6.39-1.222-7.823-5.241-.15-5.954,1.08-1.963,8.117-.343,8.733Z" transform="translate(-567.431 -265.684)" fill="#ffb27d"/>
      <path id="Trazado_124804" data-name="Trazado 124804" d="M810.006,373.931s.4,4.621,1.36,4.421,2.008-.63,1.869.763.929,3.781,2.308,3.776c2.956-.013,6.168-7.6,5.358-9.035-2.334-4.15-14.268-4.987-10.894.075Z" transform="translate(-569.299 -260.545)" fill="#163560"/>
      <path id="Trazado_124805" data-name="Trazado 124805" d="M810.565,419.875c.082-.034,4.725-2.117,5.268-1.937s1.219,1.837,1.219,1.837l-8.176,1.848a4.056,4.056,0,0,1,1.688-1.748Z" transform="translate(-568.924 -293.949)" fill="#95b3ef"/>
      <path id="Trazado_124806" data-name="Trazado 124806" d="M715.821,494.414l26.026,24.5c.51.481,1.154.633,1.429.34l.879-.933c.276-.294.084-.927-.426-1.406l-26.026-24.5c-.51-.481-1.154-.633-1.429-.341l-.879.933C715.119,493.3,715.312,493.934,715.821,494.414Z" transform="translate(-503.086 -345.996)" fill="#1f4d84"/>
      <path id="Trazado_124807" data-name="Trazado 124807" d="M766.366,541.927l11.42,10.752c.51.481,1.154.633,1.429.34l.879-.933c.276-.294.084-.927-.426-1.406l-11.42-10.752Z" transform="translate(-539.025 -379.759)" fill="#cb00b2"/>
      <path id="Trazado_124808" data-name="Trazado 124808" d="M638.008,386.716a20.4,20.4,0,0,0-28.833-.878q-.164.153-.32.309a20.4,20.4,0,1,0,29.153.569Zm-1.982,27.663a18.79,18.79,0,1,1,.809-26.557,18.768,18.768,0,0,1-.809,26.557Z" transform="translate(-423.947 -267.481)" fill="#1f4d84"/>
      <g id="Grupo_1013350" data-name="Grupo 1013350" transform="translate(180.417 114.426)" opacity="0.5">
        <path id="Trazado_124809" data-name="Trazado 124809" d="M613.286,417.39a18.789,18.789,0,1,0,.81-26.557A18.717,18.717,0,0,0,613.286,417.39Z" transform="translate(-608.182 -385.73)" fill="#b3cff9"/>
      </g>
      <path id="Trazado_124810" data-name="Trazado 124810" d="M798.942,475.571c14.341-10.218,13.148-23.855,13.148-23.855-5.241,2.956-10.442,9.493-12.829,15.162-.141,3.247-.259,6.391-.319,8.691Z" transform="translate(-561.937 -317.715)" fill="#95b3ef"/>
      <path id="Trazado_124811" data-name="Trazado 124811" d="M741.461,513.762a3.928,3.928,0,0,1-1.832-1.131s-.432.029.07.949c.043.077.135.275.206.414a.089.089,0,0,1-.075.128,9.506,9.506,0,0,0-2.294.048c-.156.033-.2.4-.195.562a1.436,1.436,0,0,0,.3.98,5.018,5.018,0,0,0,1.812.949,5.478,5.478,0,0,0,2.8-.353l.918-.424-.285-1.707-.231.048c-.367.077-.82-.37-1.2-.465Z" transform="translate(-518.609 -360.56)" fill="#ffb27d"/>
      <path id="Trazado_124812" data-name="Trazado 124812" d="M776.575,430.384s12.886,2.454-3.791,21.113c-2.667,2.985-17.077,6.87-17.077,6.87s-1.461-1.243-.724-2.25c0,0,9.921-7.205,12.1-8.35.982-.515,3.811-11.5,5.412-14.145a7.218,7.218,0,0,1,4.076-3.238Z" transform="translate(-530.872 -302.71)" fill="#afcdfb"/>
      <path id="Trazado_124813" data-name="Trazado 124813" d="M740.4,446.4a6.5,6.5,0,0,1-.5-1.23,6.84,6.84,0,0,0-.831-1.882c-.088-.088-.377.025-.411.4a2.177,2.177,0,0,0,.207.815,9.141,9.141,0,0,1,.272,1.62C739.337,446.774,740.4,446.4,740.4,446.4Z" transform="translate(-519.535 -311.768)" fill="#ffb27d"/>
      <path id="Trazado_124814" data-name="Trazado 124814" d="M187.214,628.571h62.361a5.517,5.517,0,0,0,0-11.035H187.214a5.517,5.517,0,1,0,0,11.035Z" transform="translate(-127.797 -434.345)" fill="#699dee"/>
      <path id="Trazado_124815" data-name="Trazado 124815" d="M318.472,622.169l-.053,2.409c-.046,2.13,2.279,3.885,5.193,3.919l38.965.455.01-.48c-2.186-.831-3.662-2.514-3.62-4.436l.019-.848c.043-1.923,1.591-3.57,3.812-4.349v-.01l-38.965-.454C320.92,618.34,318.519,620.039,318.472,622.169Z" transform="translate(-223.96 -434.934)" fill="#ffeddc"/>
      <path id="Trazado_124816" data-name="Trazado 124816" d="M362.194,628.538h-41.05c-2.648,0-4.721-2.422-4.721-5.514s2.074-5.513,4.721-5.513h41.05c.341,0,.618.2.618.451s-.276.451-.618.451h-41.05c-1.89,0-3.487,2.112-3.487,4.611s1.6,4.611,3.487,4.611h41.05c.341,0,.618.2.618.451s-.276.451-.618.451Z" transform="translate(-222.557 -434.327)" fill="#4b87dd"/>
      <path id="Trazado_124817" data-name="Trazado 124817" d="M387.237,627.4H357.6v.077h29.641Z" transform="translate(-251.516 -441.282)" fill="#e8c2a3"/>
      <path id="Trazado_124818" data-name="Trazado 124818" d="M424.047,630.781h-13.4v.077h13.4Z" transform="translate(-288.828 -443.661)" fill="#e8c2a3"/>
      <path id="Trazado_124819" data-name="Trazado 124819" d="M400.395,642.32H377.016v.077h23.379Z" transform="translate(-265.175 -451.777)" fill="#e8c2a3"/>
      <path id="Trazado_124820" data-name="Trazado 124820" d="M295.325,722.828H.468A.468.468,0,0,0,0,723.3v.6a.468.468,0,0,0,.468.468H295.325a.468.468,0,0,0,.468-.468v-.6A.468.468,0,0,0,295.325,722.828Z" transform="translate(0 -508.402)" fill="#2e3552"/>
    </g>
  </g>
</svg>
