<svg xmlns="http://www.w3.org/2000/svg" width="49.225" height="64.248" viewBox="0 0 49.225 64.248">
  <g id="Grupo_1013462" data-name="Grupo 1013462" transform="translate(-194.941 -1987.894)">
    <g id="Grupo_1002288" data-name="Grupo 1002288" transform="translate(194.941 1987.894)">
      <g id="Grupo_56591" data-name="Grupo 56591">
        <g id="Grupo_56587" data-name="Grupo 56587">
          <g id="Grupo_56577" data-name="Grupo 56577">
            <g id="Grupo_56576" data-name="Grupo 56576">
              <g id="Grupo_56575" data-name="Grupo 56575">
                <g id="Grupo_56574" data-name="Grupo 56574">
                  <g id="Grupo_56573" data-name="Grupo 56573">
                    <g id="Grupo_56572" data-name="Grupo 56572">
                      <g id="Grupo_56571" data-name="Grupo 56571">
                        <g id="Grupo_56570" data-name="Grupo 56570">
                          <g id="Grupo_56569" data-name="Grupo 56569">
                            <g id="Grupo_56568" data-name="Grupo 56568">
                              <path id="Trazado_103911" data-name="Trazado 103911" d="M280.891,281.625v-48.84a4.387,4.387,0,0,1-3.425-4.28v-6.528a.52.52,0,0,0-.3-.474,3.266,3.266,0,0,0-1.371-.3H244.2a4.317,4.317,0,0,0-4.317,4.318v55.612a4.317,4.317,0,0,0,4.317,4.318h34.45a4.386,4.386,0,0,0,2.237-3.825Z" transform="translate(-239.887 -221.202)" fill="#dfedfa"/>
                              <path id="Trazado_103912" data-name="Trazado 103912" d="M301.067,239.555a4.324,4.324,0,0,1-.946-.105v48.077a4.318,4.318,0,0,1-4.318,4.318h8.587a4.318,4.318,0,0,0,4.318-4.318V240.91a3.264,3.264,0,0,0-.295-1.355Z" transform="translate(-259.483 -227.597)" fill="#e7ecf1"/>
                              <path id="Trazado_103913" data-name="Trazado 103913" d="M308.261,232.361l-10.042-10.042a3.266,3.266,0,0,0-.958-.663V229a4.317,4.317,0,0,0,4.317,4.318h7.346A3.27,3.27,0,0,0,308.261,232.361Z" transform="translate(-259.994 -221.361)" fill="#6595bf"/>
                            </g>
                          </g>
                        </g>
                      </g>
                    </g>
                  </g>
                </g>
              </g>
            </g>
          </g>
        </g>
        <g id="Grupo_56588" data-name="Grupo 56588" transform="translate(6.429 18.213)">
          <path id="Trazado_103924" data-name="Trazado 103924" d="M285.1,251.337h-34.27a1.048,1.048,0,1,1,0-2.1H285.1a1.048,1.048,0,1,1,0,2.1Z" transform="translate(-249.785 -249.241)" fill="#6595bf"/>
        </g>
        <g id="Grupo_56589" data-name="Grupo 56589" transform="translate(6.429 10.91)">
          <path id="Trazado_103925" data-name="Trazado 103925" d="M267.968,240.1H250.833a1.048,1.048,0,1,1,0-2.1h17.135a1.048,1.048,0,0,1,0,2.1Z" transform="translate(-249.785 -237.999)" fill="#6595bf"/>
        </g>
        <g id="Grupo_56590" data-name="Grupo 56590" transform="translate(6.429 24.683)">
          <path id="Trazado_103926" data-name="Trazado 103926" d="M285.1,261.3h-34.27a1.048,1.048,0,1,1,0-2.1H285.1a1.048,1.048,0,1,1,0,2.1Z" transform="translate(-249.785 -259.202)" fill="#6595bf"/>
        </g>
      </g>
    </g>
  </g>
</svg>
