<svg xmlns="http://www.w3.org/2000/svg" width="178.304" height="297.42" viewBox="0 0 178.304 297.42">
  <g id="Grupo_1013387" data-name="Grupo 1013387" transform="translate(-392.34 -3361.009)">
    <g id="Grupo_1013385" data-name="Grupo 1013385" transform="translate(180 3361.009)">
      <g id="Grupo_1013386" data-name="Grupo 1013386">
        <path id="Trazado_114940" data-name="Trazado 114940" d="M340.02,0a89.194,89.194,0,0,1,89.152,89.151v92.4h-178.3v-92.4A89.2,89.2,0,0,1,340.02,0Z" transform="translate(-38.529)" fill="#3b72c4"/>
      </g>
      <path id="Trazado_114941" data-name="Trazado 114941" d="M340.02,287.473a89.152,89.152,0,1,0-89.151-89.151A89.152,89.152,0,0,0,340.02,287.473Z" transform="translate(-38.529 -16.767)" fill="#fff"/>
      <path id="Trazado_114942" data-name="Trazado 114942" d="M343.1,273.591a72.183,72.183,0,1,1,51.045-21.142A71.734,71.734,0,0,1,343.1,273.591Z" transform="translate(-41.607 -19.846)" fill="#f9f9f9"/>
      <path id="Trazado_114943" data-name="Trazado 114943" d="M377.512,320.63l-26.034,26.033L325.445,320.63a94.568,94.568,0,0,0,52.067,0Z" transform="translate(-49.983 -49.243)" fill="#3b72c4"/>
    </g>
    <path id="Trazado_114963" data-name="Trazado 114963" d="M371.491,236.5H331.886a3.815,3.815,0,0,1-3.81-3.806V176.953a3.815,3.815,0,0,1,3.81-3.811h8.806a1.416,1.416,0,1,1,0,2.832h-8.806a.98.98,0,0,0-.978.978v55.738a.98.98,0,0,0,.978.973h39.606a.98.98,0,0,0,.973-.973V176.953a.98.98,0,0,0-.973-.978h-8.806a1.416,1.416,0,0,1,0-2.832h8.806a3.815,3.815,0,0,1,3.805,3.811v55.738a3.815,3.815,0,0,1-3.805,3.806Z" transform="translate(129.613 3334.417)" fill="#3b72c4"/>
    <path id="Trazado_114964" data-name="Trazado 114964" d="M362.866,178.551H344.575a3.274,3.274,0,0,1-3.266-3.267v-2.767a3.274,3.274,0,0,1,3.266-3.266h18.291a3.274,3.274,0,0,1,3.266,3.266v2.767a3.274,3.274,0,0,1-3.266,3.267Zm-18.291-6.468a.433.433,0,0,0-.434.434v2.767a.435.435,0,0,0,.434.435h18.291a.435.435,0,0,0,.434-.435v-2.767a.434.434,0,0,0-.434-.434Z" transform="translate(127.581 3335.015)" fill="#3b72c4"/>
    <path id="Trazado_114965" data-name="Trazado 114965" d="M360.092,170.815H349.4a1.415,1.415,0,0,1-1.352-1.837l1.362-4.374a5.467,5.467,0,0,1,5.31-3.6,5.548,5.548,0,0,1,5.381,3.653l1.347,4.325a1.416,1.416,0,0,1-1.351,1.837Zm-8.768-2.831h6.844l-.775-2.488a2.744,2.744,0,0,0-2.677-1.664,2.667,2.667,0,0,0-2.6,1.614Z" transform="translate(126.555 3336.281)" fill="#3b72c4"/>
    <path id="Trazado_114966" data-name="Trazado 114966" d="M371.744,192.674H350.4a1.416,1.416,0,0,1,0-2.832h21.347a1.416,1.416,0,0,1,0,2.832Z" transform="translate(126.402 3331.853)" fill="#3b72c4"/>
    <path id="Trazado_114967" data-name="Trazado 114967" d="M371.744,206.048H350.4a1.416,1.416,0,0,1,0-2.832h21.347a1.416,1.416,0,0,1,0,2.832Z" transform="translate(126.402 3329.798)" fill="#3b72c4"/>
    <path id="Trazado_114968" data-name="Trazado 114968" d="M371.744,219.422H350.4a1.416,1.416,0,0,1,0-2.832h21.347a1.416,1.416,0,0,1,0,2.832Z" transform="translate(126.402 3327.744)" fill="#3b72c4"/>
    <path id="Trazado_114969" data-name="Trazado 114969" d="M371.744,232.8H350.4a1.416,1.416,0,0,1,0-2.832h21.347a1.416,1.416,0,0,1,0,2.832Z" transform="translate(126.402 3325.69)" fill="#3b72c4"/>
    <path id="Trazado_114970" data-name="Trazado 114970" d="M338.195,194.571a1.419,1.419,0,0,1-1-.414l-2.376-2.378a1.416,1.416,0,0,1,2-2l1.375,1.375,3.629-3.629a1.416,1.416,0,0,1,2,2l-4.632,4.632a1.425,1.425,0,0,1-.46.306A1.4,1.4,0,0,1,338.195,194.571Z" transform="translate(128.639 3332.27)" fill="#3b72c4"/>
    <path id="Trazado_114971" data-name="Trazado 114971" d="M338.192,207.946a1.414,1.414,0,0,1-1-.415l-2.376-2.377a1.416,1.416,0,0,1,2-2l1.375,1.375,3.629-3.629a1.416,1.416,0,0,1,2,2l-4.632,4.632a1.414,1.414,0,0,1-.46.307A1.4,1.4,0,0,1,338.192,207.946Z" transform="translate(128.642 3330.216)" fill="#3b72c4"/>
    <path id="Trazado_114972" data-name="Trazado 114972" d="M338.192,221.32a1.385,1.385,0,0,1-.542-.107,1.405,1.405,0,0,1-.46-.307l-2.376-2.376a1.416,1.416,0,0,1,2-2l1.375,1.375,3.629-3.629a1.416,1.416,0,0,1,2,2l-4.632,4.632a1.413,1.413,0,0,1-.46.307A1.4,1.4,0,0,1,338.192,221.32Z" transform="translate(128.642 3328.162)" fill="#3b72c4"/>
    <path id="Trazado_114973" data-name="Trazado 114973" d="M338.192,234.694a1.415,1.415,0,0,1-1-.415l-2.376-2.376a1.416,1.416,0,0,1,2-2l1.375,1.375,3.629-3.629a1.416,1.416,0,0,1,2,2l-4.632,4.632A1.419,1.419,0,0,1,338.192,234.694Z" transform="translate(128.642 3326.107)" fill="#3b72c4"/>
  </g>
</svg>
