<svg xmlns="http://www.w3.org/2000/svg" width="178.306" height="297.42" viewBox="0 0 178.306 297.42">
  <g id="Grupo_1013390" data-name="Grupo 1013390" transform="translate(-1029.354 -3361.009)">
    <path id="Trazado_114952" data-name="Trazado 114952" d="M1092.623,0a89.192,89.192,0,0,1,89.153,89.151v92.4H1003.47v-92.4A89.2,89.2,0,0,1,1092.623,0Z" transform="translate(25.884 3361.009)" fill="#3b72c4"/>
    <path id="Trazado_114953" data-name="Trazado 114953" d="M1092.623,287.473a89.152,89.152,0,1,0-89.153-89.151A89.153,89.153,0,0,0,1092.623,287.473Z" transform="translate(25.884 3344.242)" fill="#fff"/>
    <path id="Trazado_114954" data-name="Trazado 114954" d="M1095.7,273.591a72.186,72.186,0,1,1,51.047-21.142A71.72,71.72,0,0,1,1095.7,273.591Z" transform="translate(22.804 3341.163)" fill="#f9f9f9"/>
    <path id="Trazado_114955" data-name="Trazado 114955" d="M1130.121,320.63l-26.036,26.033L1078.05,320.63a94.583,94.583,0,0,0,52.071,0Z" transform="translate(14.429 3311.766)" fill="#3b72c4"/>
    <path id="Trazado_114988" data-name="Trazado 114988" d="M1076.454,243.36h53.984a3.616,3.616,0,0,0,3.614-3.621V201.36a1.01,1.01,0,0,0-1.007-1.009h-59.2a1.01,1.01,0,0,0-1.007,1.009v38.379a3.617,3.617,0,0,0,3.614,3.621Zm-1.6-3.621v-37.37h57.184v37.37a1.61,1.61,0,0,1-1.6,1.6h-53.984a1.61,1.61,0,0,1-1.6-1.6Z" transform="translate(15.229 3330.238)" fill="#3b72c4" stroke="#3b72c4" stroke-width="0.327"/>
    <path id="Trazado_114989" data-name="Trazado 114989" d="M1073.847,200.157h59.2a1.01,1.01,0,0,0,1.007-1.009v-9.576a3.616,3.616,0,0,0-3.614-3.621H1122.6a1.009,1.009,0,0,0,0,2.018h7.838a1.611,1.611,0,0,1,1.6,1.6v8.567h-57.184v-8.567a1.611,1.611,0,0,1,1.6-1.6h7.838a1.009,1.009,0,0,0,0-2.018h-7.838a3.617,3.617,0,0,0-3.614,3.621v9.576a1.01,1.01,0,0,0,1.007,1.009Z" transform="translate(15.229 3332.449)" fill="#3b72c4" stroke="#3b72c4" stroke-width="0.327"/>
    <path id="Trazado_114990" data-name="Trazado 114990" d="M1092.357,187.969h27.864a1.006,1.006,0,0,0,.711-.3,1.008,1.008,0,0,0,0-1.427,1.009,1.009,0,0,0-.711-.3h-27.864a1.009,1.009,0,0,0-.711.3,1.007,1.007,0,0,0,0,1.427A1.006,1.006,0,0,0,1092.357,187.969Z" transform="translate(12.387 3332.449)" fill="#3b72c4" stroke="#3b72c4" stroke-width="0.327"/>
    <path id="Trazado_114991" data-name="Trazado 114991" d="M1125.328,191.112a3.618,3.618,0,0,0,6.179-2.56v-6.094a3.618,3.618,0,1,0-7.237,0v6.094A3.626,3.626,0,0,0,1125.328,191.112Zm1.422-9.788a1.616,1.616,0,0,1,1.134-.469,1.609,1.609,0,0,1,1.608,1.6v6.094a1.611,1.611,0,0,1-1.608,1.6,1.6,1.6,0,0,1-1.6-1.6v-6.094A1.618,1.618,0,0,1,1126.75,181.324Z" transform="translate(7.331 3333.543)" fill="#3b72c4" stroke="#3b72c4" stroke-width="0.327"/>
    <path id="Trazado_114992" data-name="Trazado 114992" d="M1086.238,191.112a3.627,3.627,0,0,0,6.187-2.56v-6.094a3.623,3.623,0,1,0-7.245,0v6.094A3.625,3.625,0,0,0,1086.238,191.112Zm1.43-9.788a1.606,1.606,0,0,1,2.269,0,1.619,1.619,0,0,1,.465,1.133v6.094a1.6,1.6,0,0,1-1.6,1.6,1.611,1.611,0,0,1-1.608-1.6v-6.094A1.59,1.59,0,0,1,1087.668,181.324Z" transform="translate(13.334 3333.543)" fill="#3b72c4" stroke="#3b72c4" stroke-width="0.327"/>
    <path id="Trazado_114993" data-name="Trazado 114993" d="M1128.279,216.2H1133a1.878,1.878,0,0,0,1.879-1.88V209.6a1.878,1.878,0,0,0-1.879-1.879h-4.723a1.878,1.878,0,0,0-1.879,1.879v4.726a1.878,1.878,0,0,0,1.879,1.88Zm4.588-2.018h-4.452v-4.45h4.452Z" transform="translate(7.003 3329.107)" fill="#3b72c4" stroke="#3b72c4" stroke-width="0.327"/>
    <path id="Trazado_114994" data-name="Trazado 114994" d="M1113.379,216.2h4.723a1.878,1.878,0,0,0,1.879-1.88V209.6a1.878,1.878,0,0,0-1.879-1.879h-4.723a1.878,1.878,0,0,0-1.879,1.879v4.726a1.878,1.878,0,0,0,1.879,1.88Zm4.587-2.018h-4.452v-4.45h4.452Z" transform="translate(9.292 3329.107)" fill="#3b72c4" stroke="#3b72c4" stroke-width="0.327"/>
    <path id="Trazado_114995" data-name="Trazado 114995" d="M1098.359,216.2h4.723a1.879,1.879,0,0,0,1.879-1.88V209.6a1.879,1.879,0,0,0-1.879-1.879h-4.723a1.879,1.879,0,0,0-1.879,1.879v4.726a1.879,1.879,0,0,0,1.879,1.88Zm.135-2.019v-4.45h4.452v4.45Z" transform="translate(11.599 3329.107)" fill="#3b72c4" stroke="#3b72c4" stroke-width="0.327"/>
    <path id="Trazado_114996" data-name="Trazado 114996" d="M1128.279,229.229H1133a1.878,1.878,0,0,0,1.879-1.88v-4.726a1.88,1.88,0,0,0-1.879-1.88h-4.723a1.88,1.88,0,0,0-1.879,1.88v4.726a1.878,1.878,0,0,0,1.879,1.88Zm4.588-2.018h-4.452v-4.449h4.452Z" transform="translate(7.003 3327.106)" fill="#3b72c4" stroke="#3b72c4" stroke-width="0.327"/>
    <path id="Trazado_114997" data-name="Trazado 114997" d="M1113.379,229.229h4.723a1.878,1.878,0,0,0,1.879-1.88v-4.726a1.88,1.88,0,0,0-1.879-1.88h-4.723a1.88,1.88,0,0,0-1.879,1.88v4.726a1.878,1.878,0,0,0,1.879,1.88Zm4.587-2.018h-4.452v-4.449h4.452Z" transform="translate(9.292 3327.106)" fill="#3b72c4" stroke="#3b72c4" stroke-width="0.327"/>
    <path id="Trazado_114998" data-name="Trazado 114998" d="M1083.459,229.229h4.723a1.878,1.878,0,0,0,1.879-1.88v-4.726a1.88,1.88,0,0,0-1.879-1.88h-4.723a1.88,1.88,0,0,0-1.879,1.88v4.726a1.878,1.878,0,0,0,1.879,1.88Zm.135-2.019v-4.449h4.452v4.449Z" transform="translate(13.887 3327.106)" fill="#3b72c4" stroke="#3b72c4" stroke-width="0.327"/>
    <path id="Trazado_114999" data-name="Trazado 114999" d="M1098.359,229.229h4.723a1.879,1.879,0,0,0,1.879-1.88v-4.726a1.88,1.88,0,0,0-1.879-1.88h-4.723a1.88,1.88,0,0,0-1.879,1.88v4.726a1.879,1.879,0,0,0,1.879,1.88Zm.135-2.019v-4.449h4.452v4.449Z" transform="translate(11.599 3327.106)" fill="#3b72c4" stroke="#3b72c4" stroke-width="0.327"/>
    <path id="Trazado_115000" data-name="Trazado 115000" d="M1113.379,242.258h4.723a1.878,1.878,0,0,0,1.879-1.88v-4.726a1.88,1.88,0,0,0-1.879-1.88h-4.723a1.88,1.88,0,0,0-1.879,1.88v4.726a1.878,1.878,0,0,0,1.879,1.88Zm4.587-2.018h-4.452v-4.449h4.452Z" transform="translate(9.292 3325.105)" fill="#3b72c4" stroke="#3b72c4" stroke-width="0.327"/>
    <path id="Trazado_115001" data-name="Trazado 115001" d="M1083.459,242.258h4.723a1.878,1.878,0,0,0,1.879-1.88v-4.726a1.88,1.88,0,0,0-1.879-1.88h-4.723a1.88,1.88,0,0,0-1.879,1.88v4.726a1.878,1.878,0,0,0,1.879,1.88Zm.135-2.02V235.79h4.452v4.449Z" transform="translate(13.887 3325.105)" fill="#3b72c4" stroke="#3b72c4" stroke-width="0.327"/>
    <path id="Trazado_115002" data-name="Trazado 115002" d="M1098.359,242.258h4.723a1.879,1.879,0,0,0,1.879-1.88v-4.726a1.88,1.88,0,0,0-1.879-1.88h-4.723a1.88,1.88,0,0,0-1.879,1.88v4.726a1.879,1.879,0,0,0,1.879,1.88Zm.135-2.02V235.79h4.452v4.449Z" transform="translate(11.599 3325.105)" fill="#3b72c4" stroke="#3b72c4" stroke-width="0.327"/>
  </g>
</svg>
