<svg xmlns="http://www.w3.org/2000/svg" width="178.306" height="297.42" viewBox="0 0 178.306 297.42">
  <g id="Grupo_1013391" data-name="Grupo 1013391" transform="translate(-1241.694 -3361.009)">
    <path id="Trazado_114956" data-name="Trazado 114956" d="M1343.493,0a89.192,89.192,0,0,1,89.153,89.151v92.4H1254.34v-92.4A89.2,89.2,0,0,1,1343.493,0Z" transform="translate(-12.646 3361.009)" fill="#3651a3"/>
    <path id="Trazado_114957" data-name="Trazado 114957" d="M1343.493,287.473a89.152,89.152,0,1,0-89.153-89.151A89.153,89.153,0,0,0,1343.493,287.473Z" transform="translate(-12.646 3344.242)" fill="#fff"/>
    <path id="Trazado_114958" data-name="Trazado 114958" d="M1346.573,273.591a72.185,72.185,0,1,1,51.047-21.142A71.74,71.74,0,0,1,1346.573,273.591Z" transform="translate(-15.726 3341.163)" fill="#f9f9f9"/>
    <path id="Trazado_114959" data-name="Trazado 114959" d="M1380.983,320.63l-26.027,26.033L1328.92,320.63a94.553,94.553,0,0,0,52.063,0Z" transform="translate(-24.101 3311.766)" fill="#3651a3"/>
    <path id="Trazado_114962" data-name="Trazado 114962" d="M1379.276,229.656l-3.631-.9a29.523,29.523,0,1,0-3.089,3.1l.9,3.629,5.265,5.269v-5.83h5.832l-5.265-5.27Zm-53.189-20.181a27.17,27.17,0,1,1,47.2,18.334l-5.51-5.515a19.517,19.517,0,1,0-1.7,1.694l5.519,5.514a27.154,27.154,0,0,1-45.5-20.031Zm34.889,6.019a9.8,9.8,0,1,0-1.693,1.694l5.1,5.1a16.98,16.98,0,1,1,1.7-1.7l-5.1-5.1Zm-7.068-7.063a1.2,1.2,0,0,0-1.693,1.694l5.349,5.352a7.319,7.319,0,0,1-4.3,1.4,7.405,7.405,0,1,1,6-3.089Z" transform="translate(-23.298 3333.379)" fill="#3651a3"/>
  </g>
</svg>
