<svg xmlns="http://www.w3.org/2000/svg" width="1193" height="596" viewBox="0 0 1193 596">
  <g id="Grupo_1013392" data-name="Grupo 1013392" transform="translate(-204 -4249)">
    <g id="Group_7_2_" data-name="Group 7 (2)" transform="translate(204 4249)">
      <rect id="Rectángulo_34167" data-name="Rectángulo 34167" width="290" height="86" rx="4" transform="translate(451 510)" fill="rgba(102,187,255,0.67)"/>
      <rect id="Rectángulo_34168" data-name="Rectángulo 34168" width="290" height="86" rx="4" transform="translate(177 373)" fill="rgba(102,187,255,0.67)"/>
      <rect id="Rectángulo_34169" data-name="Rectángulo 34169" width="290" height="86" rx="4" transform="translate(0 141)" fill="rgba(102,187,255,0.67)"/>
      <rect id="Rectángulo_34170" data-name="Rectángulo 34170" width="290" height="86" rx="4" transform="translate(903 141)" fill="rgba(102,187,255,0.67)"/>
      <rect id="Rectángulo_34171" data-name="Rectángulo 34171" width="290" height="86" rx="4" transform="translate(726 373)" fill="rgba(102,187,255,0.67)"/>
      <path id="Trazado_115003" data-name="Trazado 115003" d="M131,426.582h-1.5v1.572H131Zm29,0L145,417.5V435.66ZM129.5,240V426.582h3V240ZM131,428.155h15.5V425.01H131Z" transform="translate(0 -9)" fill="#12263f"/>
      <path id="Trazado_115004" data-name="Trazado 115004" d="M326,551h-1.5v1.5H326Zm101,0-15-8.66v17.32ZM324.5,463v88h3V463Zm1.5,89.5h87.5v-3H326Z" fill="#12263f"/>
      <path id="Trazado_115005" data-name="Trazado 115005" d="M853,557.5V559h1.5v-1.5Zm0-101-8.66,15h17.32ZM765,559h88v-3H765Zm89.5-1.5V470h-3v87.5Z" fill="#12263f"/>
      <path id="Trazado_115006" data-name="Trazado 115006" d="M1054,416v1.5h1.5V416Zm0-189-8.66,15h17.32Zm-23,190.5h23v-3h-23Zm24.5-1.5V240.5h-3V416Z" fill="#12263f"/>
      <circle id="Elipse_4769" data-name="Elipse 4769" cx="55" cy="55" r="55" transform="translate(89)" fill="#b3009d"/>
      <circle id="Elipse_4770" data-name="Elipse 4770" cx="55" cy="55" r="55" transform="translate(993)" fill="#b3009d"/>
      <circle id="Elipse_4771" data-name="Elipse 4771" cx="55" cy="55" r="55" transform="translate(266 231)" fill="#b3009d"/>
      <circle id="Elipse_4772" data-name="Elipse 4772" cx="55" cy="55" r="55" transform="translate(809 231)" fill="#b3009d"/>
      <circle id="Elipse_4773" data-name="Elipse 4773" cx="55" cy="55" r="55" transform="translate(540 373)" fill="#b3009d"/>
      <g id="Grupo_81444" data-name="Grupo 81444">
        <path id="Trazado_115007" data-name="Trazado 115007" d="M625.443,432.495v-8.323a1.224,1.224,0,0,0-1.224-1.224h-4.58a24.735,24.735,0,0,0-3.309-7.995l3.237-3.237a1.224,1.224,0,0,0,0-1.731l-5.886-5.885a1.224,1.224,0,0,0-1.731,0l-3.236,3.237a24.731,24.731,0,0,0-7.995-3.309v-4.58a1.224,1.224,0,0,0-1.224-1.224h-8.323a1.224,1.224,0,0,0-1.224,1.224v4.586a24.746,24.746,0,0,0-7.983,3.315l-3.249-3.249a1.224,1.224,0,0,0-1.731,0l-5.885,5.885a1.224,1.224,0,0,0,0,1.731l3.256,3.256a24.737,24.737,0,0,0-3.3,7.976h-4.611a1.224,1.224,0,0,0-1.224,1.224v8.323a1.224,1.224,0,0,0,1.224,1.224h4.618a24.713,24.713,0,0,0,3.3,7.963L571.1,444.95a1.224,1.224,0,0,0,0,1.731l5.885,5.886a1.226,1.226,0,0,0,1.731,0l3.268-3.268a24.749,24.749,0,0,0,7.964,3.3v4.618a1.224,1.224,0,0,0,1.224,1.224h8.323a1.224,1.224,0,0,0,1.224-1.224v-4.611a24.721,24.721,0,0,0,7.975-3.3l3.256,3.256a1.226,1.226,0,0,0,1.731,0l5.886-5.886a1.224,1.224,0,0,0,0-1.731l-3.249-3.248a24.722,24.722,0,0,0,3.314-7.983h4.587A1.224,1.224,0,0,0,625.443,432.495Z" fill="none" stroke="#fff" stroke-linecap="round" stroke-linejoin="round" stroke-miterlimit="10" stroke-width="2.448"/>
        <path id="Trazado_115008" data-name="Trazado 115008" d="M610.23,420.894a16.648,16.648,0,1,1-6.76-7.087" fill="none" stroke="#fff" stroke-linecap="round" stroke-linejoin="round" stroke-miterlimit="10" stroke-width="2.448"/>
        <path id="Trazado_115009" data-name="Trazado 115009" d="M600.411,420.541l-6.8,6.805-3.35-3.351-4.39,4.391,3.35,3.35,4.39,4.39,11.2-11.2Z" fill="none" stroke="#fff" stroke-linecap="round" stroke-linejoin="round" stroke-miterlimit="10" stroke-width="2.448"/>
      </g>
      <path id="Trazado_115010" data-name="Trazado 115010" d="M339.789,260.743H329.333v-.9a.846.846,0,0,0-.848-.848H313.263a.847.847,0,0,0-.848.848v.9H301.959a3.276,3.276,0,0,0-3.271,3.271v49.3a3.278,3.278,0,0,0,3.271,3.271h37.832a3.278,3.278,0,0,0,3.271-3.271v-49.3a3.276,3.276,0,0,0-3.273-3.271Zm-3.726,7v41.852H305.685V267.74ZM314.11,260.7h13.528v5.35H314.11Zm27.254,52.623a1.577,1.577,0,0,1-1.575,1.575H301.957a1.577,1.577,0,0,1-1.575-1.575v-49.3a1.576,1.576,0,0,1,1.575-1.575h10.458v3.606h-7.578a.84.84,0,0,0-.324.064.846.846,0,0,0-.523.783V310.44a.843.843,0,0,0,.248.6.854.854,0,0,0,.6.248h32.074a.855.855,0,0,0,.6-.248.863.863,0,0,0,.184-.275.845.845,0,0,0,.064-.325V266.892a.84.84,0,0,0-.064-.324.851.851,0,0,0-.459-.459.839.839,0,0,0-.324-.064h-7.578v-3.606h10.456a1.576,1.576,0,0,1,1.576,1.575Z" fill="#fff"/>
      <path id="Trazado_115011" data-name="Trazado 115011" d="M316.907,264.218h7.934a.848.848,0,0,0,0-1.7h-7.934a.848.848,0,0,0,0,1.7Z" fill="#fff"/>
      <path id="Trazado_115012" data-name="Trazado 115012" d="M321.216,305.884h5.146a.848.848,0,0,0,0-1.7h-5.146a.848.848,0,1,0,0,1.7Z" fill="#fff"/>
      <path id="Trazado_115013" data-name="Trazado 115013" d="M321.216,301.724h10.292a.848.848,0,0,0,0-1.7H321.216a.848.848,0,0,0,0,1.7Z" fill="#fff"/>
      <path id="Trazado_115014" data-name="Trazado 115014" d="M311.873,305.636a.868.868,0,0,0,.275.184.855.855,0,0,0,.649,0,.868.868,0,0,0,.275-.184l4.16-4.161a.849.849,0,0,0,.183-.275.849.849,0,0,0-.183-.923.851.851,0,0,0-.275-.184.855.855,0,0,0-.649,0,.851.851,0,0,0-.275.184l-3.56,3.561L310.84,302.2a.848.848,0,1,0-1.2,1.2Z" fill="#fff"/>
      <path id="Trazado_115015" data-name="Trazado 115015" d="M321.216,277.3h5.146a.848.848,0,0,0,0-1.7h-5.146a.848.848,0,0,0,0,1.7Z" fill="#fff"/>
      <path id="Trazado_115016" data-name="Trazado 115016" d="M321.216,273.143h10.292a.848.848,0,0,0,0-1.7H321.216a.848.848,0,1,0,0,1.7Z" fill="#fff"/>
      <path id="Trazado_115017" data-name="Trazado 115017" d="M311.873,277.055a.852.852,0,0,0,.275.184.843.843,0,0,0,.649,0,.851.851,0,0,0,.275-.184l4.16-4.161a.848.848,0,0,0-.275-1.382.847.847,0,0,0-.924.184l-3.56,3.561-1.633-1.633a.848.848,0,1,0-1.2,1.2Z" fill="#fff"/>
      <path id="Trazado_115018" data-name="Trazado 115018" d="M321.216,286.83h5.146a.847.847,0,0,0,0-1.695h-5.146a.847.847,0,1,0,0,1.695Z" fill="#fff"/>
      <path id="Trazado_115019" data-name="Trazado 115019" d="M321.216,282.67h10.292a.848.848,0,0,0,0-1.7H321.216a.848.848,0,1,0,0,1.7Z" fill="#fff"/>
      <path id="Trazado_115020" data-name="Trazado 115020" d="M311.873,286.583a.852.852,0,0,0,.275.184.842.842,0,0,0,.649,0,.852.852,0,0,0,.275-.184l4.16-4.16a.849.849,0,0,0,.183-.275.849.849,0,0,0-.183-.923.852.852,0,0,0-.275-.184.855.855,0,0,0-.649,0,.852.852,0,0,0-.275.184l-3.56,3.56-1.633-1.633a.848.848,0,1,0-1.2,1.2Z" fill="#fff"/>
      <path id="Trazado_115021" data-name="Trazado 115021" d="M321.216,296.358h5.146a.841.841,0,0,0,.324-.065.852.852,0,0,0,.275-.184.85.85,0,0,0,.184-.924.862.862,0,0,0-.184-.275.849.849,0,0,0-.275-.183.841.841,0,0,0-.324-.065h-5.146a.854.854,0,0,0-.6.248.851.851,0,0,0-.184.924.841.841,0,0,0,.184.275.852.852,0,0,0,.275.184A.842.842,0,0,0,321.216,296.358Z" fill="#fff"/>
      <path id="Trazado_115022" data-name="Trazado 115022" d="M321.216,292.2h10.292a.847.847,0,0,0,0-1.695H321.216a.847.847,0,1,0,0,1.695Z" fill="#fff"/>
      <path id="Trazado_115023" data-name="Trazado 115023" d="M311.873,296.109a.852.852,0,0,0,.275.184.842.842,0,0,0,.649,0,.852.852,0,0,0,.275-.184l4.16-4.16a.848.848,0,0,0-1.2-1.2l-3.56,3.561-1.633-1.633a.848.848,0,1,0-1.2,1.2Z" fill="#fff"/>
      <path id="Trazado_115024" data-name="Trazado 115024" d="M887.325,272.932h-5.336a2.743,2.743,0,0,0-2.74,2.74v31.253h-3.261V281.957a2.742,2.742,0,0,0-2.739-2.739h-5.336a2.742,2.742,0,0,0-2.739,2.739v24.968h-3.262V288.671a2.742,2.742,0,0,0-2.739-2.739h-5.338a2.742,2.742,0,0,0-2.739,2.739v18.254h-3.258V295.808a2.742,2.742,0,0,0-2.739-2.739h-5.338a2.742,2.742,0,0,0-2.739,2.739v11.9a1.007,1.007,0,0,0-.022.2.99.99,0,0,0,.99.99h51.085a.99.99,0,0,0,.99-.99V275.672a2.743,2.743,0,0,0-2.74-2.74ZM839,306.925V295.808a.761.761,0,0,1,.759-.759H845.1a.763.763,0,0,1,.291.058.773.773,0,0,1,.247.164.749.749,0,0,1,.165.247.761.761,0,0,1,.058.29v11.117Zm14.076,0V288.671a.76.76,0,0,1,.757-.759h5.336a.761.761,0,0,1,.759.759v18.254Zm14.076,0V281.957a.76.76,0,0,1,.759-.759h5.336a.76.76,0,0,1,.759.759v24.968Zm14.075,0V275.672a.761.761,0,0,1,.76-.76h5.336a.764.764,0,0,1,.537.223.756.756,0,0,1,.223.537v31.253Z" fill="#fff"/>
      <path id="Trazado_115025" data-name="Trazado 115025" d="M845.4,278.563a.965.965,0,0,0,.306-.049,72.088,72.088,0,0,0,15.771-7.691,71.008,71.008,0,0,0,9.517-8.2l2.141,2.045L875,257l-7.581,2.218,2.139,2.042a68.862,68.862,0,0,1-9.183,7.915,71.459,71.459,0,0,1-15.284,7.456.99.99,0,0,0,.306,1.931Z" fill="#fff"/>
      <path id="Trazado_115026" data-name="Trazado 115026" d="M1063.83,82.8h-37.44a2.731,2.731,0,0,1-2.74-2.743V27.43a2.788,2.788,0,0,1,2.74-2.78h37.44a2.8,2.8,0,0,1,2.78,2.78v26a.275.275,0,0,1-.55,0v-26a2.273,2.273,0,0,0-2.31-2.273h-37.36a2.205,2.205,0,0,0-2.23,2.273V80.021a2.222,2.222,0,0,0,2.23,2.236h37.44a2.282,2.282,0,0,0,2.27-2.236V71.207a.258.258,0,0,1,.27-.235.251.251,0,0,1,.27.235v8.808A2.851,2.851,0,0,1,1063.83,82.8Z" fill="#fff" stroke="#fff" stroke-width="1.3"/>
      <path id="Trazado_115027" data-name="Trazado 115027" d="M1051.99,38.766h-13.76a.272.272,0,0,1,0-.544h13.76a.26.26,0,0,1,.27.272.286.286,0,0,1-.08.189A.28.28,0,0,1,1051.99,38.766Z" fill="#fff" stroke="#fff" stroke-width="1.3"/>
      <path id="Trazado_115028" data-name="Trazado 115028" d="M1060.4,46.363h-30.58a.258.258,0,0,1-.27-.235.266.266,0,0,1,.27-.272h30.5a.268.268,0,0,1,.28.272.264.264,0,0,1-.07.184A.157.157,0,0,1,1060.4,46.363Z" fill="#fff" stroke="#fff" stroke-width="1.3"/>
      <path id="Trazado_115029" data-name="Trazado 115029" d="M1052.39,54h-22.57a.272.272,0,0,1,0-.544h22.57a.272.272,0,1,1,0,.544Z" fill="#fff" stroke="#fff" stroke-width="1.3"/>
      <path id="Trazado_115030" data-name="Trazado 115030" d="M1048.41,61.558h-18.59a.266.266,0,0,1-.27-.272.313.313,0,0,1,.08-.187.286.286,0,0,1,.19-.084h18.59a.268.268,0,0,1,.19.084.268.268,0,0,1-.19.46Z" fill="#fff" stroke="#fff" stroke-width="1.3"/>
      <path id="Trazado_115031" data-name="Trazado 115031" d="M1050.51,69.155h-20.69a.272.272,0,0,1,0-.544h20.69a.272.272,0,0,1,0,.544Z" fill="#fff" stroke="#fff" stroke-width="1.3"/>
      <path id="Trazado_115032" data-name="Trazado 115032" d="M1060.4,76.753h-30.58a.272.272,0,0,1,0-.544h30.5a.268.268,0,0,1,.28.272.32.32,0,0,1-.07.223A.16.16,0,0,1,1060.4,76.753Z" fill="#fff" stroke="#fff" stroke-width="1.3"/>
      <path id="Trazado_115033" data-name="Trazado 115033" d="M1048.14,62.466h0v-.007a11.144,11.144,0,0,1,3.24-8.052h0V54.4a11.451,11.451,0,0,1,16.16-.209h0a11.182,11.182,0,0,1,3.46,8.089h0v.007a11.385,11.385,0,0,1-11.15,11.548c-.03-.007-.05-.013-.08-.018a.866.866,0,0,0-.18-.017h0a11.425,11.425,0,0,1-8-3.247A11.172,11.172,0,0,1,1048.14,62.466ZM1059.66,73.3h.01a10.766,10.766,0,0,0,7.68-3.256,10.639,10.639,0,0,0,3.1-7.766,10.759,10.759,0,0,0-3.32-7.716,10.458,10.458,0,0,0-7.54-3.178,10.988,10.988,0,0,0-7.84,3.288,10.564,10.564,0,0,0-3.1,7.771A10.974,10.974,0,0,0,1059.66,73.3Z" fill="#fff" stroke="#fff" stroke-width="1.3"/>
      <path id="Trazado_115034" data-name="Trazado 115034" d="M1071.85,74.693h0l-.01-.006-4.46-4.348a.29.29,0,0,1,0-.333.253.253,0,0,1,.38,0h0v.006l4.46,4.348a.271.271,0,0,1,.02.3c-.15.1-.19.1-.23.1a.365.365,0,0,1-.09-.024.2.2,0,0,1-.05-.029C1071.85,74.7,1071.85,74.693,1071.85,74.693Z" fill="#fff" stroke="#fff" stroke-width="1.3"/>
      <path id="Trazado_115035" data-name="Trazado 115035" d="M1078.71,86.2h0l-.01-.005-8.41-8.224-.01-.008v-.008a1.226,1.226,0,0,1-.38-.957,1.477,1.477,0,0,1,.4-1.052h0l.01-.008,3.15-3.267a1.531,1.531,0,0,1,1.1-.444,1.407,1.407,0,0,1,1.01.437h0l.01.006,8.4,8.182c.01,0,.01.009.02.023a.557.557,0,0,1,.03.057.169.169,0,0,1,.02.053v.005a.213.213,0,0,1-.07.158v0l-4.9,4.977a.587.587,0,0,1-.17.121.181.181,0,0,1-.05.018.445.445,0,0,1-.08-.023.2.2,0,0,1-.05-.029C1078.71,86.206,1078.71,86.2,1078.71,86.2Zm-4.98-13.166h0v.005l-3.18,3.245-.04.043-.03.05a1.074,1.074,0,0,0-.19.616V77a.838.838,0,0,0,.23.6h0l.01,0,7.78,7.634.46.456.46-.465,3.61-3.688.46-.466-.47-.455-7.66-7.442a.726.726,0,0,0-.2-.267.834.834,0,0,0-.52-.183A1,1,0,0,0,1073.73,73.034Z" fill="#fff" stroke="#fff" stroke-width="1.3"/>
      <path id="Trazado_115036" data-name="Trazado 115036" d="M1054,68.1l-.01-.008v-.007a7.888,7.888,0,0,1-2.46-5.663h0a8.223,8.223,0,0,1,2.26-5.736,8.1,8.1,0,0,1,11.57,11.338,7.961,7.961,0,0,1-5.7,2.389h-.04A7.765,7.765,0,0,1,1054,68.1Zm.3-.333h0l.01.007a7.859,7.859,0,0,0,5.35,2.169,7.393,7.393,0,0,0,5.34-2.3,7.575,7.575,0,0,0-10.86-10.564,7.547,7.547,0,0,0,.16,10.691Z" fill="#fff" stroke="#fff" stroke-width="1.3"/>
      <g id="Grupo_81445" data-name="Grupo 81445">
        <path id="Trazado_115037" data-name="Trazado 115037" d="M143.524,84.462a26.2,26.2,0,1,1,26.205-26.2A26.234,26.234,0,0,1,143.524,84.462Z" fill="none" stroke="#fff" stroke-linecap="round" stroke-linejoin="round" stroke-miterlimit="10" stroke-width="2.2"/>
        <path id="Trazado_115038" data-name="Trazado 115038" d="M136.8,39.578a19.887,19.887,0,1,1-9.316,7" fill="none" stroke="#fff" stroke-linecap="round" stroke-linejoin="round" stroke-miterlimit="10" stroke-width="2.2"/>
        <path id="Trazado_115039" data-name="Trazado 115039" d="M149.659,70.289a13.49,13.49,0,1,1,6.687-7.781" fill="none" stroke="#fff" stroke-linecap="round" stroke-linejoin="round" stroke-miterlimit="10" stroke-width="2.2"/>
        <path id="Trazado_115040" data-name="Trazado 115040" d="M150.681,58.259a7.157,7.157,0,1,1-7.157-7.157A7.157,7.157,0,0,1,150.681,58.259Z" fill="none" stroke="#fff" stroke-linecap="round" stroke-linejoin="round" stroke-miterlimit="10" stroke-width="2.2"/>
        <path id="Trazado_115041" data-name="Trazado 115041" d="M166.307,35.255,143.668,57.893" fill="none" stroke="#fff" stroke-linecap="round" stroke-linejoin="round" stroke-miterlimit="10" stroke-width="2.2"/>
        <path id="Trazado_115042" data-name="Trazado 115042" d="M168.179,25.2l-5.249,5.248a3.65,3.65,0,0,0-1.066,2.445l.119,6.681,6.764-6.775Z" fill="none" stroke="#fff" stroke-linecap="round" stroke-linejoin="round" stroke-miterlimit="10" stroke-width="2.2"/>
        <path id="Trazado_115043" data-name="Trazado 115043" d="M176.347,33.373l-7.6-.569-6.764,6.775,6.67.108a3.649,3.649,0,0,0,2.446-1.066Z" fill="none" stroke="#fff" stroke-linecap="round" stroke-linejoin="round" stroke-miterlimit="10" stroke-width="2.2"/>
      </g>
    </g>
    <text id="Definir_objetivos_y_prioridades." data-name="Definir objetivos y prioridades." transform="translate(238 4425)" fill="#12263f" font-size="16" font-family="Roboto-Regular, Roboto"><tspan x="0" y="15">Definir objetivos y prioridades.</tspan></text>
    <text id="Hacer_una_lista_de_los_activos_y_tareas." data-name="Hacer una lista de los activos y tareas." transform="translate(416 4646)" fill="#12263f" font-size="16" font-family="Roboto-Regular, Roboto"><tspan x="0" y="15">Hacer una lista de los activos </tspan><tspan x="0" y="39">y tareas.</tspan></text>
    <text id="Gestionar_recursos." data-name="Gestionar recursos." transform="translate(723 4795)" fill="#12263f" font-size="16" font-family="Roboto-Regular, Roboto"><tspan x="0" y="15">Gestionar recursos.</tspan></text>
    <text id="Definir_indicadores_de_rendimiento." data-name="Definir indicadores de rendimiento." transform="translate(956 4654)" fill="#12263f" font-size="16" font-family="Roboto-Regular, Roboto"><tspan x="0" y="15">Definir indicadores de rendimiento.</tspan></text>
    <text id="Revisar_y_mejorar." data-name="Revisar y mejorar." transform="translate(1197 4422)" fill="#12263f" font-size="16" font-family="Roboto-Regular, Roboto"><tspan x="0" y="15">Revisar y mejorar.</tspan></text>
    <text id="Pasos_para_establecer_un_plan_de_mejoramiento" data-name="Pasos para establecer un plan de mejoramiento" transform="translate(650 4389)" fill="#12263f" font-size="25" font-family="Roboto-Bold, Roboto" font-weight="700"><tspan x="-141.821" y="24">Pasos para establecer un </tspan><tspan x="-122.052" y="54">plan de mejoramiento</tspan></text>
  </g>
</svg>
