<svg xmlns="http://www.w3.org/2000/svg" width="1193" height="596" viewBox="0 0 1193 596">
  <g id="Grupo_1013353" data-name="Grupo 1013353" transform="translate(-204 -4249)">
    <g id="Group_7_2_" data-name="Group 7 (2)" transform="translate(204 4249)">
      <rect id="Rectángulo_34167" data-name="Rectángulo 34167" width="290" height="86" rx="4" transform="translate(451 510)" fill="rgba(102,187,255,0.67)"/>
      <rect id="Rectángulo_34168" data-name="Rectángulo 34168" width="290" height="86" rx="4" transform="translate(177 373)" fill="rgba(102,187,255,0.67)"/>
      <rect id="Rectángulo_34169" data-name="Rectángulo 34169" width="290" height="86" rx="4" transform="translate(0 141)" fill="rgba(102,187,255,0.67)"/>
      <rect id="Rectángulo_34170" data-name="Rectángulo 34170" width="290" height="86" rx="4" transform="translate(903 141)" fill="rgba(102,187,255,0.67)"/>
      <rect id="Rectángulo_34171" data-name="Rectángulo 34171" width="290" height="86" rx="4" transform="translate(726 373)" fill="rgba(102,187,255,0.67)"/>
      <path id="Trazado_115003" data-name="Trazado 115003" d="M131,426.582h-1.5v1.572H131Zm29,0L145,417.5V435.66ZM129.5,240V426.582h3V240ZM131,428.155h15.5V425.01H131Z" transform="translate(0 -9)" fill="#12263f"/>
      <path id="Trazado_115004" data-name="Trazado 115004" d="M326,551h-1.5v1.5H326Zm101,0-15-8.66v17.32ZM324.5,463v88h3V463Zm1.5,89.5h87.5v-3H326Z" fill="#12263f"/>
      <path id="Trazado_115005" data-name="Trazado 115005" d="M853,557.5V559h1.5v-1.5Zm0-101-8.66,15h17.32ZM765,559h88v-3H765Zm89.5-1.5V470h-3v87.5Z" fill="#12263f"/>
      <path id="Trazado_115006" data-name="Trazado 115006" d="M1054,416v1.5h1.5V416Zm0-189-8.66,15h17.32Zm-23,190.5h23v-3h-23Zm24.5-1.5V240.5h-3V416Z" fill="#12263f"/>
      <circle id="Elipse_4769" data-name="Elipse 4769" cx="55" cy="55" r="55" transform="translate(89)" fill="#b3009d"/>
      <circle id="Elipse_4770" data-name="Elipse 4770" cx="55" cy="55" r="55" transform="translate(993)" fill="#b3009d"/>
      <circle id="Elipse_4771" data-name="Elipse 4771" cx="55" cy="55" r="55" transform="translate(266 231)" fill="#b3009d"/>
      <circle id="Elipse_4772" data-name="Elipse 4772" cx="55" cy="55" r="55" transform="translate(809 231)" fill="#b3009d"/>
      <circle id="Elipse_4773" data-name="Elipse 4773" cx="55" cy="55" r="55" transform="translate(540 373)" fill="#b3009d"/>
      <g id="Grupo_81444" data-name="Grupo 81444">
        <path id="Trazado_115007" data-name="Trazado 115007" d="M625.443,432.495v-8.323a1.224,1.224,0,0,0-1.224-1.224h-4.58a24.735,24.735,0,0,0-3.309-7.995l3.237-3.237a1.224,1.224,0,0,0,0-1.731l-5.886-5.885a1.224,1.224,0,0,0-1.731,0l-3.236,3.237a24.731,24.731,0,0,0-7.995-3.309v-4.58a1.224,1.224,0,0,0-1.224-1.224h-8.323a1.224,1.224,0,0,0-1.224,1.224v4.586a24.746,24.746,0,0,0-7.983,3.315l-3.249-3.249a1.224,1.224,0,0,0-1.731,0l-5.885,5.885a1.224,1.224,0,0,0,0,1.731l3.256,3.256a24.737,24.737,0,0,0-3.3,7.976h-4.611a1.224,1.224,0,0,0-1.224,1.224v8.323a1.224,1.224,0,0,0,1.224,1.224h4.618a24.713,24.713,0,0,0,3.3,7.963L571.1,444.95a1.224,1.224,0,0,0,0,1.731l5.885,5.886a1.226,1.226,0,0,0,1.731,0l3.268-3.268a24.749,24.749,0,0,0,7.964,3.3v4.618a1.224,1.224,0,0,0,1.224,1.224h8.323a1.224,1.224,0,0,0,1.224-1.224v-4.611a24.721,24.721,0,0,0,7.975-3.3l3.256,3.256a1.226,1.226,0,0,0,1.731,0l5.886-5.886a1.224,1.224,0,0,0,0-1.731l-3.249-3.248a24.722,24.722,0,0,0,3.314-7.983h4.587A1.224,1.224,0,0,0,625.443,432.495Z" fill="none" stroke="#fff" stroke-linecap="round" stroke-linejoin="round" stroke-miterlimit="10" stroke-width="2.448"/>
        <path id="Trazado_115008" data-name="Trazado 115008" d="M610.23,420.894a16.648,16.648,0,1,1-6.76-7.087" fill="none" stroke="#fff" stroke-linecap="round" stroke-linejoin="round" stroke-miterlimit="10" stroke-width="2.448"/>
        <path id="Trazado_115009" data-name="Trazado 115009" d="M600.411,420.541l-6.8,6.805-3.35-3.351-4.39,4.391,3.35,3.35,4.39,4.39,11.2-11.2Z" fill="none" stroke="#fff" stroke-linecap="round" stroke-linejoin="round" stroke-miterlimit="10" stroke-width="2.448"/>
      </g>
      <path id="Trazado_115010" data-name="Trazado 115010" d="M339.789,260.743H329.333v-.9a.846.846,0,0,0-.848-.848H313.263a.847.847,0,0,0-.848.848v.9H301.959a3.276,3.276,0,0,0-3.271,3.271v49.3a3.278,3.278,0,0,0,3.271,3.271h37.832a3.278,3.278,0,0,0,3.271-3.271v-49.3a3.276,3.276,0,0,0-3.273-3.271Zm-3.726,7v41.852H305.685V267.74ZM314.11,260.7h13.528v5.35H314.11Zm27.254,52.623a1.577,1.577,0,0,1-1.575,1.575H301.957a1.577,1.577,0,0,1-1.575-1.575v-49.3a1.576,1.576,0,0,1,1.575-1.575h10.458v3.606h-7.578a.84.84,0,0,0-.324.064.846.846,0,0,0-.523.783V310.44a.843.843,0,0,0,.248.6.854.854,0,0,0,.6.248h32.074a.855.855,0,0,0,.6-.248.863.863,0,0,0,.184-.275.845.845,0,0,0,.064-.325V266.892a.84.84,0,0,0-.064-.324.851.851,0,0,0-.459-.459.839.839,0,0,0-.324-.064h-7.578v-3.606h10.456a1.576,1.576,0,0,1,1.576,1.575Z" fill="#fff"/>
      <path id="Trazado_115011" data-name="Trazado 115011" d="M316.907,264.218h7.934a.848.848,0,0,0,0-1.7h-7.934a.848.848,0,0,0,0,1.7Z" fill="#fff"/>
      <path id="Trazado_115012" data-name="Trazado 115012" d="M321.216,305.884h5.146a.848.848,0,0,0,0-1.7h-5.146a.848.848,0,1,0,0,1.7Z" fill="#fff"/>
      <path id="Trazado_115013" data-name="Trazado 115013" d="M321.216,301.724h10.292a.848.848,0,0,0,0-1.7H321.216a.848.848,0,0,0,0,1.7Z" fill="#fff"/>
      <path id="Trazado_115014" data-name="Trazado 115014" d="M311.873,305.636a.868.868,0,0,0,.275.184.855.855,0,0,0,.649,0,.868.868,0,0,0,.275-.184l4.16-4.161a.849.849,0,0,0,.183-.275.849.849,0,0,0-.183-.923.851.851,0,0,0-.275-.184.855.855,0,0,0-.649,0,.851.851,0,0,0-.275.184l-3.56,3.561L310.84,302.2a.848.848,0,1,0-1.2,1.2Z" fill="#fff"/>
      <path id="Trazado_115015" data-name="Trazado 115015" d="M321.216,277.3h5.146a.848.848,0,0,0,0-1.7h-5.146a.848.848,0,0,0,0,1.7Z" fill="#fff"/>
      <path id="Trazado_115016" data-name="Trazado 115016" d="M321.216,273.143h10.292a.848.848,0,0,0,0-1.7H321.216a.848.848,0,1,0,0,1.7Z" fill="#fff"/>
      <path id="Trazado_115017" data-name="Trazado 115017" d="M311.873,277.055a.852.852,0,0,0,.275.184.843.843,0,0,0,.649,0,.851.851,0,0,0,.275-.184l4.16-4.161a.848.848,0,0,0-.275-1.382.847.847,0,0,0-.924.184l-3.56,3.561-1.633-1.633a.848.848,0,1,0-1.2,1.2Z" fill="#fff"/>
      <path id="Trazado_115018" data-name="Trazado 115018" d="M321.216,286.83h5.146a.847.847,0,0,0,0-1.695h-5.146a.847.847,0,1,0,0,1.695Z" fill="#fff"/>
      <path id="Trazado_115019" data-name="Trazado 115019" d="M321.216,282.67h10.292a.848.848,0,0,0,0-1.7H321.216a.848.848,0,1,0,0,1.7Z" fill="#fff"/>
      <path id="Trazado_115020" data-name="Trazado 115020" d="M311.873,286.583a.852.852,0,0,0,.275.184.842.842,0,0,0,.649,0,.852.852,0,0,0,.275-.184l4.16-4.16a.849.849,0,0,0,.183-.275.849.849,0,0,0-.183-.923.852.852,0,0,0-.275-.184.855.855,0,0,0-.649,0,.852.852,0,0,0-.275.184l-3.56,3.56-1.633-1.633a.848.848,0,1,0-1.2,1.2Z" fill="#fff"/>
      <path id="Trazado_115021" data-name="Trazado 115021" d="M321.216,296.358h5.146a.841.841,0,0,0,.324-.065.852.852,0,0,0,.275-.184.85.85,0,0,0,.184-.924.862.862,0,0,0-.184-.275.849.849,0,0,0-.275-.183.841.841,0,0,0-.324-.065h-5.146a.854.854,0,0,0-.6.248.851.851,0,0,0-.184.924.841.841,0,0,0,.184.275.852.852,0,0,0,.275.184A.842.842,0,0,0,321.216,296.358Z" fill="#fff"/>
      <path id="Trazado_115022" data-name="Trazado 115022" d="M321.216,292.2h10.292a.847.847,0,0,0,0-1.695H321.216a.847.847,0,1,0,0,1.695Z" fill="#fff"/>
      <path id="Trazado_115023" data-name="Trazado 115023" d="M311.873,296.109a.852.852,0,0,0,.275.184.842.842,0,0,0,.649,0,.852.852,0,0,0,.275-.184l4.16-4.16a.848.848,0,0,0-1.2-1.2l-3.56,3.561-1.633-1.633a.848.848,0,1,0-1.2,1.2Z" fill="#fff"/>
      <path id="Trazado_115024" data-name="Trazado 115024" d="M887.325,272.932h-5.336a2.743,2.743,0,0,0-2.74,2.74v31.253h-3.261V281.957a2.742,2.742,0,0,0-2.739-2.739h-5.336a2.742,2.742,0,0,0-2.739,2.739v24.968h-3.262V288.671a2.742,2.742,0,0,0-2.739-2.739h-5.338a2.742,2.742,0,0,0-2.739,2.739v18.254h-3.258V295.808a2.742,2.742,0,0,0-2.739-2.739h-5.338a2.742,2.742,0,0,0-2.739,2.739v11.9a1.007,1.007,0,0,0-.022.2.99.99,0,0,0,.99.99h51.085a.99.99,0,0,0,.99-.99V275.672a2.743,2.743,0,0,0-2.74-2.74ZM839,306.925V295.808a.761.761,0,0,1,.759-.759H845.1a.763.763,0,0,1,.291.058.773.773,0,0,1,.247.164.749.749,0,0,1,.165.247.761.761,0,0,1,.058.29v11.117Zm14.076,0V288.671a.76.76,0,0,1,.757-.759h5.336a.761.761,0,0,1,.759.759v18.254Zm14.076,0V281.957a.76.76,0,0,1,.759-.759h5.336a.76.76,0,0,1,.759.759v24.968Zm14.075,0V275.672a.761.761,0,0,1,.76-.76h5.336a.764.764,0,0,1,.537.223.756.756,0,0,1,.223.537v31.253Z" fill="#fff"/>
      <path id="Trazado_115025" data-name="Trazado 115025" d="M845.4,278.563a.965.965,0,0,0,.306-.049,72.088,72.088,0,0,0,15.771-7.691,71.008,71.008,0,0,0,9.517-8.2l2.141,2.045L875,257l-7.581,2.218,2.139,2.042a68.862,68.862,0,0,1-9.183,7.915,71.459,71.459,0,0,1-15.284,7.456.99.99,0,0,0,.306,1.931Z" fill="#fff"/>
      <path id="Trazado_115026" data-name="Trazado 115026" d="M1063.83,82.8h-37.44a2.731,2.731,0,0,1-2.74-2.743V27.43a2.788,2.788,0,0,1,2.74-2.78h37.44a2.8,2.8,0,0,1,2.78,2.78v26a.275.275,0,0,1-.55,0v-26a2.273,2.273,0,0,0-2.31-2.273h-37.36a2.205,2.205,0,0,0-2.23,2.273V80.021a2.222,2.222,0,0,0,2.23,2.236h37.44a2.282,2.282,0,0,0,2.27-2.236V71.207a.258.258,0,0,1,.27-.235.251.251,0,0,1,.27.235v8.808A2.851,2.851,0,0,1,1063.83,82.8Z" fill="#fff" stroke="#fff" stroke-width="1.3"/>
      <path id="Trazado_115027" data-name="Trazado 115027" d="M1051.99,38.766h-13.76a.272.272,0,0,1,0-.544h13.76a.26.26,0,0,1,.27.272.286.286,0,0,1-.08.189A.28.28,0,0,1,1051.99,38.766Z" fill="#fff" stroke="#fff" stroke-width="1.3"/>
      <path id="Trazado_115028" data-name="Trazado 115028" d="M1060.4,46.363h-30.58a.258.258,0,0,1-.27-.235.266.266,0,0,1,.27-.272h30.5a.268.268,0,0,1,.28.272.264.264,0,0,1-.07.184A.157.157,0,0,1,1060.4,46.363Z" fill="#fff" stroke="#fff" stroke-width="1.3"/>
      <path id="Trazado_115029" data-name="Trazado 115029" d="M1052.39,54h-22.57a.272.272,0,0,1,0-.544h22.57a.272.272,0,1,1,0,.544Z" fill="#fff" stroke="#fff" stroke-width="1.3"/>
      <path id="Trazado_115030" data-name="Trazado 115030" d="M1048.41,61.558h-18.59a.266.266,0,0,1-.27-.272.313.313,0,0,1,.08-.187.286.286,0,0,1,.19-.084h18.59a.268.268,0,0,1,.19.084.268.268,0,0,1-.19.46Z" fill="#fff" stroke="#fff" stroke-width="1.3"/>
      <path id="Trazado_115031" data-name="Trazado 115031" d="M1050.51,69.155h-20.69a.272.272,0,0,1,0-.544h20.69a.272.272,0,0,1,0,.544Z" fill="#fff" stroke="#fff" stroke-width="1.3"/>
      <path id="Trazado_115032" data-name="Trazado 115032" d="M1060.4,76.753h-30.58a.272.272,0,0,1,0-.544h30.5a.268.268,0,0,1,.28.272.32.32,0,0,1-.07.223A.16.16,0,0,1,1060.4,76.753Z" fill="#fff" stroke="#fff" stroke-width="1.3"/>
      <path id="Trazado_115033" data-name="Trazado 115033" d="M1048.14,62.466h0v-.007a11.144,11.144,0,0,1,3.24-8.052h0V54.4a11.451,11.451,0,0,1,16.16-.209h0a11.182,11.182,0,0,1,3.46,8.089h0v.007a11.385,11.385,0,0,1-11.15,11.548c-.03-.007-.05-.013-.08-.018a.866.866,0,0,0-.18-.017h0a11.425,11.425,0,0,1-8-3.247A11.172,11.172,0,0,1,1048.14,62.466ZM1059.66,73.3h.01a10.766,10.766,0,0,0,7.68-3.256,10.639,10.639,0,0,0,3.1-7.766,10.759,10.759,0,0,0-3.32-7.716,10.458,10.458,0,0,0-7.54-3.178,10.988,10.988,0,0,0-7.84,3.288,10.564,10.564,0,0,0-3.1,7.771A10.974,10.974,0,0,0,1059.66,73.3Z" fill="#fff" stroke="#fff" stroke-width="1.3"/>
      <path id="Trazado_115034" data-name="Trazado 115034" d="M1071.85,74.693h0l-.01-.006-4.46-4.348a.29.29,0,0,1,0-.333.253.253,0,0,1,.38,0h0v.006l4.46,4.348a.271.271,0,0,1,.02.3c-.15.1-.19.1-.23.1a.365.365,0,0,1-.09-.024.2.2,0,0,1-.05-.029C1071.85,74.7,1071.85,74.693,1071.85,74.693Z" fill="#fff" stroke="#fff" stroke-width="1.3"/>
      <path id="Trazado_115035" data-name="Trazado 115035" d="M1078.71,86.2h0l-.01-.005-8.41-8.224-.01-.008v-.008a1.226,1.226,0,0,1-.38-.957,1.477,1.477,0,0,1,.4-1.052h0l.01-.008,3.15-3.267a1.531,1.531,0,0,1,1.1-.444,1.407,1.407,0,0,1,1.01.437h0l.01.006,8.4,8.182c.01,0,.01.009.02.023a.557.557,0,0,1,.03.057.169.169,0,0,1,.02.053v.005a.213.213,0,0,1-.07.158v0l-4.9,4.977a.587.587,0,0,1-.17.121.181.181,0,0,1-.05.018.445.445,0,0,1-.08-.023.2.2,0,0,1-.05-.029C1078.71,86.206,1078.71,86.2,1078.71,86.2Zm-4.98-13.166h0v.005l-3.18,3.245-.04.043-.03.05a1.074,1.074,0,0,0-.19.616V77a.838.838,0,0,0,.23.6h0l.01,0,7.78,7.634.46.456.46-.465,3.61-3.688.46-.466-.47-.455-7.66-7.442a.726.726,0,0,0-.2-.267.834.834,0,0,0-.52-.183A1,1,0,0,0,1073.73,73.034Z" fill="#fff" stroke="#fff" stroke-width="1.3"/>
      <path id="Trazado_115036" data-name="Trazado 115036" d="M1054,68.1l-.01-.008v-.007a7.888,7.888,0,0,1-2.46-5.663h0a8.223,8.223,0,0,1,2.26-5.736,8.1,8.1,0,0,1,11.57,11.338,7.961,7.961,0,0,1-5.7,2.389h-.04A7.765,7.765,0,0,1,1054,68.1Zm.3-.333h0l.01.007a7.859,7.859,0,0,0,5.35,2.169,7.393,7.393,0,0,0,5.34-2.3,7.575,7.575,0,0,0-10.86-10.564,7.547,7.547,0,0,0,.16,10.691Z" fill="#fff" stroke="#fff" stroke-width="1.3"/>
      <g id="Grupo_81445" data-name="Grupo 81445">
        <path id="Trazado_115037" data-name="Trazado 115037" d="M143.524,84.462a26.2,26.2,0,1,1,26.205-26.2A26.234,26.234,0,0,1,143.524,84.462Z" fill="none" stroke="#fff" stroke-linecap="round" stroke-linejoin="round" stroke-miterlimit="10" stroke-width="2.2"/>
        <path id="Trazado_115038" data-name="Trazado 115038" d="M136.8,39.578a19.887,19.887,0,1,1-9.316,7" fill="none" stroke="#fff" stroke-linecap="round" stroke-linejoin="round" stroke-miterlimit="10" stroke-width="2.2"/>
        <path id="Trazado_115039" data-name="Trazado 115039" d="M149.659,70.289a13.49,13.49,0,1,1,6.687-7.781" fill="none" stroke="#fff" stroke-linecap="round" stroke-linejoin="round" stroke-miterlimit="10" stroke-width="2.2"/>
        <path id="Trazado_115040" data-name="Trazado 115040" d="M150.681,58.259a7.157,7.157,0,1,1-7.157-7.157A7.157,7.157,0,0,1,150.681,58.259Z" fill="none" stroke="#fff" stroke-linecap="round" stroke-linejoin="round" stroke-miterlimit="10" stroke-width="2.2"/>
        <path id="Trazado_115041" data-name="Trazado 115041" d="M166.307,35.255,143.668,57.893" fill="none" stroke="#fff" stroke-linecap="round" stroke-linejoin="round" stroke-miterlimit="10" stroke-width="2.2"/>
        <path id="Trazado_115042" data-name="Trazado 115042" d="M168.179,25.2l-5.249,5.248a3.65,3.65,0,0,0-1.066,2.445l.119,6.681,6.764-6.775Z" fill="none" stroke="#fff" stroke-linecap="round" stroke-linejoin="round" stroke-miterlimit="10" stroke-width="2.2"/>
        <path id="Trazado_115043" data-name="Trazado 115043" d="M176.347,33.373l-7.6-.569-6.764,6.775,6.67.108a3.649,3.649,0,0,0,2.446-1.066Z" fill="none" stroke="#fff" stroke-linecap="round" stroke-linejoin="round" stroke-miterlimit="10" stroke-width="2.2"/>
      </g>
    </g>
    <path id="Trazado_710603" data-name="Trazado 710603" d="M1.32,15V3.625H4.531a5.169,5.169,0,0,1,2.625.656A4.438,4.438,0,0,1,8.918,6.148,6.078,6.078,0,0,1,9.547,8.93v.727a6.1,6.1,0,0,1-.621,2.82,4.369,4.369,0,0,1-1.773,1.859A5.5,5.5,0,0,1,4.469,15ZM2.82,4.852v8.922H4.4a3.434,3.434,0,0,0,2.7-1.079,4.458,4.458,0,0,0,.965-3.073V8.957a4.529,4.529,0,0,0-.91-3.014A3.239,3.239,0,0,0,4.57,4.852Zm12.273,10.3a3.693,3.693,0,0,1-2.8-1.129,4.19,4.19,0,0,1-1.078-3.02v-.266A5.073,5.073,0,0,1,11.7,8.5a3.748,3.748,0,0,1,1.344-1.547,3.378,3.378,0,0,1,1.871-.559,3.166,3.166,0,0,1,2.563,1.086,4.7,4.7,0,0,1,.914,3.109v.6H12.664a3,3,0,0,0,.73,2.02,2.3,2.3,0,0,0,1.777.77,2.517,2.517,0,0,0,1.3-.312,3.259,3.259,0,0,0,.93-.828l.883.688A3.55,3.55,0,0,1,15.094,15.156Zm-.18-7.578a1.928,1.928,0,0,0-1.469.637A3.1,3.1,0,0,0,12.711,10h4.234V9.891a2.753,2.753,0,0,0-.594-1.707A1.815,1.815,0,0,0,14.914,7.578ZM20.547,15V7.664H19.211V6.547h1.336V5.828a2.937,2.937,0,0,1,.809-2.2,3.136,3.136,0,0,1,2.285-.789,6.881,6.881,0,0,1,2.211.477l-.242,1.219a5.008,5.008,0,0,0-1.859-.391,1.819,1.819,0,0,0-1.34.418A1.723,1.723,0,0,0,22,5.813v.734h1.727V7.664H22V15Zm6.023,0H25.117V6.547H26.57Zm3.719-8.453.047,1.063a3.08,3.08,0,0,1,2.531-1.219q2.68,0,2.7,3.023V15H34.125V9.406a1.946,1.946,0,0,0-.418-1.352,1.675,1.675,0,0,0-1.277-.437,2.086,2.086,0,0,0-1.234.375,2.546,2.546,0,0,0-.828.984V15H28.922V6.547ZM39.32,15H37.875V6.547H39.32ZM37.758,4.3a.863.863,0,0,1,.215-.594.807.807,0,0,1,.637-.242.819.819,0,0,1,.641.242.854.854,0,0,1,.219.594.826.826,0,0,1-.219.586.834.834,0,0,1-.641.234.821.821,0,0,1-.637-.234A.834.834,0,0,1,37.758,4.3Zm7.961,3.539a4.331,4.331,0,0,0-.711-.055A1.9,1.9,0,0,0,43.078,9v6H41.633V6.547h1.406l.023.977a2.251,2.251,0,0,1,2.016-1.133,1.477,1.477,0,0,1,.641.109ZM50.625,10.7a4.993,4.993,0,0,1,.488-2.234A3.643,3.643,0,0,1,52.473,6.93a3.7,3.7,0,0,1,1.988-.539,3.565,3.565,0,0,1,2.793,1.2,4.6,4.6,0,0,1,1.066,3.18v.1a5.036,5.036,0,0,1-.473,2.215A3.589,3.589,0,0,1,56.5,14.609a3.743,3.743,0,0,1-2.02.547,3.556,3.556,0,0,1-2.785-1.2A4.575,4.575,0,0,1,50.625,10.8Zm1.453.172a3.616,3.616,0,0,0,.652,2.258,2.211,2.211,0,0,0,3.5-.012,3.955,3.955,0,0,0,.648-2.418,3.61,3.61,0,0,0-.66-2.254,2.1,2.1,0,0,0-1.754-.863,2.075,2.075,0,0,0-1.727.852A3.925,3.925,0,0,0,52.078,10.867Zm15.211,0A5.026,5.026,0,0,1,66.4,13.98a2.846,2.846,0,0,1-2.391,1.176,2.947,2.947,0,0,1-2.477-1.133l-.07.977H60.133V3h1.445V7.477a2.93,2.93,0,0,1,2.414-1.086A2.863,2.863,0,0,1,66.41,7.555a5.177,5.177,0,0,1,.879,3.188ZM65.844,10.7a3.906,3.906,0,0,0-.57-2.281,1.888,1.888,0,0,0-1.641-.8,2.122,2.122,0,0,0-2.055,1.328V12.6a2.181,2.181,0,0,0,2.07,1.328,1.878,1.878,0,0,0,1.617-.8A4.153,4.153,0,0,0,65.844,10.7ZM70.6,6.547v9.43q0,2.438-2.211,2.438a2.7,2.7,0,0,1-.883-.14V17.125a2.794,2.794,0,0,0,.656.063.982.982,0,0,0,.738-.262,1.3,1.3,0,0,0,.254-.911V6.547ZM69.008,4.3a.867.867,0,0,1,.215-.59.79.79,0,0,1,.629-.246.819.819,0,0,1,.641.242.854.854,0,0,1,.219.594.826.826,0,0,1-.219.586.834.834,0,0,1-.641.234.808.808,0,0,1-.633-.234A.843.843,0,0,1,69.008,4.3Zm7.43,10.852a3.693,3.693,0,0,1-2.8-1.129,4.19,4.19,0,0,1-1.078-3.02v-.266a5.073,5.073,0,0,1,.48-2.246,3.748,3.748,0,0,1,1.344-1.547,3.378,3.378,0,0,1,1.871-.559A3.166,3.166,0,0,1,78.82,7.477a4.7,4.7,0,0,1,.914,3.109v.6H74.008a3,3,0,0,0,.73,2.02,2.3,2.3,0,0,0,1.777.77,2.517,2.517,0,0,0,1.3-.312,3.259,3.259,0,0,0,.93-.828l.883.688A3.55,3.55,0,0,1,76.438,15.156Zm-.18-7.578a1.928,1.928,0,0,0-1.469.637A3.1,3.1,0,0,0,74.055,10h4.234V9.891A2.753,2.753,0,0,0,77.7,8.184,1.815,1.815,0,0,0,76.258,7.578ZM83.367,4.5V6.547h1.578V7.664H83.367v5.249a1.173,1.173,0,0,0,.211.763.888.888,0,0,0,.719.254,3.5,3.5,0,0,0,.688-.094V15a4.215,4.215,0,0,1-1.109.155,1.8,1.8,0,0,1-1.461-.586,2.517,2.517,0,0,1-.492-1.664V7.664H80.383V6.547h1.539V4.5ZM88.2,15H86.758V6.547H88.2ZM86.641,4.3a.863.863,0,0,1,.215-.594.807.807,0,0,1,.637-.242.819.819,0,0,1,.641.242.854.854,0,0,1,.219.594.826.826,0,0,1-.219.586.834.834,0,0,1-.641.234.821.821,0,0,1-.637-.234A.834.834,0,0,1,86.641,4.3ZM93.3,13.039,95.4,6.547h1.477L93.844,15h-1.1L89.68,6.547h1.477ZM97.766,10.7a4.993,4.993,0,0,1,.488-2.234A3.643,3.643,0,0,1,99.613,6.93a3.7,3.7,0,0,1,1.988-.539,3.565,3.565,0,0,1,2.793,1.2,4.6,4.6,0,0,1,1.066,3.18v.1a5.036,5.036,0,0,1-.473,2.215,3.589,3.589,0,0,1-1.352,1.527,3.743,3.743,0,0,1-2.02.547,3.556,3.556,0,0,1-2.785-1.2A4.575,4.575,0,0,1,97.766,10.8Zm1.453.172a3.616,3.616,0,0,0,.652,2.258,2.211,2.211,0,0,0,3.5-.012,3.955,3.955,0,0,0,.648-2.418,3.61,3.61,0,0,0-.66-2.254,2.1,2.1,0,0,0-1.754-.863,2.075,2.075,0,0,0-1.727.852A3.925,3.925,0,0,0,99.219,10.867ZM112.2,12.758a1.064,1.064,0,0,0-.441-.91,4.249,4.249,0,0,0-1.539-.559,7.277,7.277,0,0,1-1.742-.562,2.479,2.479,0,0,1-.953-.781,1.869,1.869,0,0,1-.309-1.078,2.193,2.193,0,0,1,.879-1.758,3.432,3.432,0,0,1,2.246-.719,3.532,3.532,0,0,1,2.332.742,2.357,2.357,0,0,1,.895,1.9h-1.453a1.3,1.3,0,0,0-.5-1.023,1.888,1.888,0,0,0-1.27-.43,1.976,1.976,0,0,0-1.234.344,1.082,1.082,0,0,0-.445.9.877.877,0,0,0,.414.789,5.1,5.1,0,0,0,1.5.508,7.8,7.8,0,0,1,1.754.578,2.558,2.558,0,0,1,1,.809,1.988,1.988,0,0,1,.324,1.152,2.163,2.163,0,0,1-.906,1.816,3.8,3.8,0,0,1-2.352.684,4.257,4.257,0,0,1-1.8-.359,2.922,2.922,0,0,1-1.223-1,2.42,2.42,0,0,1-.441-1.395h1.445a1.5,1.5,0,0,0,.582,1.152,2.258,2.258,0,0,0,1.434.426,2.331,2.331,0,0,0,1.316-.332A1.02,1.02,0,0,0,112.2,12.758Zm10.055.125,1.969-6.336h1.547l-3.4,9.758q-.789,2.109-2.508,2.109l-.273-.023-.539-.1V17.117l.391.031a1.923,1.923,0,0,0,1.145-.3,2.149,2.149,0,0,0,.676-1.086l.32-.859-3.016-8.359h1.578Zm15.906-2.016a5.062,5.062,0,0,1-.883,3.109,2.829,2.829,0,0,1-2.391,1.18,3.1,3.1,0,0,1-2.422-.977v4.07h-1.445V6.547h1.32l.07.938a2.977,2.977,0,0,1,2.453-1.094,2.882,2.882,0,0,1,2.41,1.148,5.117,5.117,0,0,1,.887,3.2Zm-1.445-.164a3.735,3.735,0,0,0-.609-2.258,1.963,1.963,0,0,0-1.672-.828,2.125,2.125,0,0,0-1.969,1.164V12.82a2.129,2.129,0,0,0,1.984,1.156,1.954,1.954,0,0,0,1.652-.824A4.077,4.077,0,0,0,136.711,10.7Zm7.367-2.859a4.331,4.331,0,0,0-.711-.055A1.9,1.9,0,0,0,141.438,9v6h-1.445V6.547H141.4l.023.977a2.251,2.251,0,0,1,2.016-1.133,1.477,1.477,0,0,1,.641.109Zm2.9,7.156h-1.445V6.547h1.445ZM145.414,4.3a.863.863,0,0,1,.215-.594.807.807,0,0,1,.637-.242.819.819,0,0,1,.641.242.854.854,0,0,1,.219.594.826.826,0,0,1-.219.586.834.834,0,0,1-.641.234.821.821,0,0,1-.637-.234A.834.834,0,0,1,145.414,4.3Zm3.492,6.391a4.993,4.993,0,0,1,.488-2.234,3.642,3.642,0,0,1,1.359-1.531,3.7,3.7,0,0,1,1.988-.539,3.565,3.565,0,0,1,2.793,1.2,4.6,4.6,0,0,1,1.066,3.18v.1a5.036,5.036,0,0,1-.473,2.215,3.589,3.589,0,0,1-1.352,1.527,3.743,3.743,0,0,1-2.02.547,3.556,3.556,0,0,1-2.785-1.2,4.575,4.575,0,0,1-1.066-3.164Zm1.453.172a3.616,3.616,0,0,0,.652,2.258,2.211,2.211,0,0,0,3.5-.012,3.954,3.954,0,0,0,.648-2.418,3.61,3.61,0,0,0-.66-2.254,2.1,2.1,0,0,0-1.754-.863,2.075,2.075,0,0,0-1.727.852A3.925,3.925,0,0,0,150.359,10.867ZM162.5,7.844a4.331,4.331,0,0,0-.711-.055A1.9,1.9,0,0,0,159.859,9v6h-1.445V6.547h1.406l.023.977a2.251,2.251,0,0,1,2.016-1.133,1.477,1.477,0,0,1,.641.109ZM165.4,15h-1.445V6.547H165.4ZM163.836,4.3a.863.863,0,0,1,.215-.594.807.807,0,0,1,.637-.242.819.819,0,0,1,.641.242.854.854,0,0,1,.219.594.826.826,0,0,1-.219.586.834.834,0,0,1-.641.234.821.821,0,0,1-.637-.234A.834.834,0,0,1,163.836,4.3Zm3.523,6.4a4.952,4.952,0,0,1,.922-3.129,3.137,3.137,0,0,1,4.766-.168V3h1.445V15h-1.328l-.07-.906a2.943,2.943,0,0,1-2.414,1.063,2.887,2.887,0,0,1-2.395-1.2,5.008,5.008,0,0,1-.926-3.141Zm1.445.164a3.749,3.749,0,0,0,.594,2.25,1.919,1.919,0,0,0,1.641.813,2.108,2.108,0,0,0,2.008-1.234V8.813a2.125,2.125,0,0,0-1.992-1.2,1.929,1.929,0,0,0-1.656.82A4.128,4.128,0,0,0,168.8,10.867ZM181.953,15a3.036,3.036,0,0,1-.2-.891,3.225,3.225,0,0,1-2.406,1.047,2.984,2.984,0,0,1-2.051-.707,2.287,2.287,0,0,1-.8-1.793,2.39,2.39,0,0,1,1-2.051,4.733,4.733,0,0,1,2.824-.73h1.406V9.211A1.623,1.623,0,0,0,181.273,8a1.821,1.821,0,0,0-1.336-.449,2.107,2.107,0,0,0-1.3.391,1.151,1.151,0,0,0-.523.945h-1.453a2,2,0,0,1,.449-1.223,3.066,3.066,0,0,1,1.219-.934,4.1,4.1,0,0,1,1.691-.344,3.342,3.342,0,0,1,2.289.73,2.635,2.635,0,0,1,.859,2.012v3.891a4.757,4.757,0,0,0,.3,1.852V15Zm-2.4-1.1a2.54,2.54,0,0,0,1.289-.352,2.127,2.127,0,0,0,.883-.914V10.9h-1.133q-2.656,0-2.656,1.555a1.316,1.316,0,0,0,.453,1.063A1.742,1.742,0,0,0,179.555,13.9Zm5.531-3.2a4.952,4.952,0,0,1,.922-3.129,3.137,3.137,0,0,1,4.766-.168V3h1.445V15h-1.328l-.07-.906a2.943,2.943,0,0,1-2.414,1.063,2.887,2.887,0,0,1-2.395-1.2,5.008,5.008,0,0,1-.926-3.141Zm1.445.164a3.749,3.749,0,0,0,.594,2.25,1.919,1.919,0,0,0,1.641.813,2.108,2.108,0,0,0,2.008-1.234V8.813a2.125,2.125,0,0,0-1.992-1.2,1.929,1.929,0,0,0-1.656.82A4.128,4.128,0,0,0,186.531,10.867Zm11.438,4.289a3.693,3.693,0,0,1-2.8-1.129,4.19,4.19,0,0,1-1.078-3.02v-.266a5.073,5.073,0,0,1,.48-2.246,3.748,3.748,0,0,1,1.344-1.547,3.378,3.378,0,0,1,1.871-.559,3.166,3.166,0,0,1,2.563,1.086,4.7,4.7,0,0,1,.914,3.109v.6h-5.727a3,3,0,0,0,.73,2.02,2.3,2.3,0,0,0,1.777.77,2.517,2.517,0,0,0,1.3-.312,3.258,3.258,0,0,0,.93-.828l.883.688A3.55,3.55,0,0,1,197.969,15.156Zm-.18-7.578a1.928,1.928,0,0,0-1.469.637A3.1,3.1,0,0,0,195.586,10h4.234V9.891a2.753,2.753,0,0,0-.594-1.707A1.815,1.815,0,0,0,197.789,7.578Zm10.07,5.18a1.064,1.064,0,0,0-.441-.91,4.249,4.249,0,0,0-1.539-.559,7.277,7.277,0,0,1-1.742-.562,2.479,2.479,0,0,1-.953-.781,1.869,1.869,0,0,1-.309-1.078,2.193,2.193,0,0,1,.879-1.758A3.432,3.432,0,0,1,206,6.391a3.532,3.532,0,0,1,2.332.742,2.357,2.357,0,0,1,.895,1.9h-1.453a1.3,1.3,0,0,0-.5-1.023,1.888,1.888,0,0,0-1.27-.43,1.976,1.976,0,0,0-1.234.344,1.082,1.082,0,0,0-.445.9.877.877,0,0,0,.414.789,5.1,5.1,0,0,0,1.5.508,7.8,7.8,0,0,1,1.754.578,2.558,2.558,0,0,1,1,.809,1.988,1.988,0,0,1,.324,1.152,2.163,2.163,0,0,1-.906,1.816,3.8,3.8,0,0,1-2.352.684,4.257,4.257,0,0,1-1.8-.359,2.922,2.922,0,0,1-1.223-1,2.42,2.42,0,0,1-.441-1.395h1.445a1.5,1.5,0,0,0,.582,1.152,2.258,2.258,0,0,0,1.434.426,2.331,2.331,0,0,0,1.316-.332A1.02,1.02,0,0,0,207.859,12.758Zm3.359,1.484a.905.905,0,0,1,.223-.625.848.848,0,0,1,.668-.25.874.874,0,0,1,.676.25.887.887,0,0,1,.23.625.839.839,0,0,1-.23.6.89.89,0,0,1-.676.242.8.8,0,0,1-.891-.844Z" transform="translate(238 4425)" fill="#12263f"/>
    <path id="Trazado_710607" data-name="Trazado 710607" d="M10.063,15H8.555V9.742H2.82V15H1.32V3.625h1.5V8.516H8.555V3.625h1.508Zm7.656,0a3.036,3.036,0,0,1-.2-.891,3.225,3.225,0,0,1-2.406,1.047,2.984,2.984,0,0,1-2.051-.707,2.287,2.287,0,0,1-.8-1.793,2.39,2.39,0,0,1,1-2.051,4.733,4.733,0,0,1,2.824-.73h1.406V9.211A1.623,1.623,0,0,0,17.039,8,1.821,1.821,0,0,0,15.7,7.555a2.107,2.107,0,0,0-1.3.391,1.151,1.151,0,0,0-.523.945H12.43a2,2,0,0,1,.449-1.223A3.066,3.066,0,0,1,14.1,6.734a4.1,4.1,0,0,1,1.691-.344,3.342,3.342,0,0,1,2.289.73,2.635,2.635,0,0,1,.859,2.012v3.891a4.757,4.757,0,0,0,.3,1.852V15Zm-2.4-1.1a2.54,2.54,0,0,0,1.289-.352,2.127,2.127,0,0,0,.883-.914V10.9H16.359q-2.656,0-2.656,1.555a1.316,1.316,0,0,0,.453,1.063A1.742,1.742,0,0,0,15.32,13.9Zm9.273.078a2.082,2.082,0,0,0,1.352-.469,1.649,1.649,0,0,0,.641-1.172h1.367a2.621,2.621,0,0,1-.5,1.383,3.293,3.293,0,0,1-1.23,1.047,3.55,3.55,0,0,1-1.629.391A3.482,3.482,0,0,1,21.848,14a4.59,4.59,0,0,1-1.02-3.152v-.242a5.089,5.089,0,0,1,.453-2.2,3.451,3.451,0,0,1,1.3-1.492,3.7,3.7,0,0,1,2-.531,3.39,3.39,0,0,1,2.363.852,3.043,3.043,0,0,1,1,2.211H26.586a1.992,1.992,0,0,0-.621-1.348,1.932,1.932,0,0,0-1.379-.527,2.023,2.023,0,0,0-1.707.793,3.724,3.724,0,0,0-.605,2.293v.273a3.65,3.65,0,0,0,.6,2.25A2.033,2.033,0,0,0,24.594,13.977Zm8.492,1.18a3.693,3.693,0,0,1-2.8-1.129,4.19,4.19,0,0,1-1.078-3.02v-.266a5.073,5.073,0,0,1,.48-2.246,3.748,3.748,0,0,1,1.344-1.547,3.378,3.378,0,0,1,1.871-.559,3.166,3.166,0,0,1,2.563,1.086,4.7,4.7,0,0,1,.914,3.109v.6H30.656a3,3,0,0,0,.73,2.02,2.3,2.3,0,0,0,1.777.77,2.517,2.517,0,0,0,1.3-.312,3.259,3.259,0,0,0,.93-.828l.883.688A3.55,3.55,0,0,1,33.086,15.156Zm-.18-7.578a1.928,1.928,0,0,0-1.469.637A3.1,3.1,0,0,0,30.7,10h4.234V9.891a2.753,2.753,0,0,0-.594-1.707A1.815,1.815,0,0,0,32.906,7.578Zm9.234.266a4.331,4.331,0,0,0-.711-.055A1.9,1.9,0,0,0,39.5,9v6H38.055V6.547h1.406l.023.977A2.251,2.251,0,0,1,41.5,6.391a1.477,1.477,0,0,1,.641.109Zm10.508,6.32a3.07,3.07,0,0,1-2.477.992,2.628,2.628,0,0,1-2.059-.785,3.4,3.4,0,0,1-.715-2.324v-5.5h1.445v5.461q0,1.922,1.563,1.922a2.163,2.163,0,0,0,2.2-1.234V6.547h1.445V15H52.68Zm4.969-7.617.047,1.063A3.08,3.08,0,0,1,60.2,6.391q2.68,0,2.7,3.023V15H61.453V9.406a1.946,1.946,0,0,0-.418-1.352,1.675,1.675,0,0,0-1.277-.437,2.086,2.086,0,0,0-1.234.375,2.546,2.546,0,0,0-.828.984V15H56.25V6.547ZM70.3,15a3.036,3.036,0,0,1-.2-.891,3.225,3.225,0,0,1-2.406,1.047,2.984,2.984,0,0,1-2.051-.707,2.288,2.288,0,0,1-.8-1.793,2.39,2.39,0,0,1,1-2.051,4.733,4.733,0,0,1,2.824-.73H70.07V9.211A1.623,1.623,0,0,0,69.617,8a1.821,1.821,0,0,0-1.336-.449,2.108,2.108,0,0,0-1.3.391,1.151,1.151,0,0,0-.523.945H65.008a2,2,0,0,1,.449-1.223,3.066,3.066,0,0,1,1.219-.934,4.1,4.1,0,0,1,1.691-.344,3.342,3.342,0,0,1,2.289.73,2.635,2.635,0,0,1,.859,2.012v3.891a4.757,4.757,0,0,0,.3,1.852V15Zm-2.4-1.1a2.54,2.54,0,0,0,1.289-.352,2.127,2.127,0,0,0,.883-.914V10.9H68.938q-2.656,0-2.656,1.555a1.316,1.316,0,0,0,.453,1.063A1.742,1.742,0,0,0,67.9,13.9ZM79.313,15H77.867V3h1.445ZM83.2,15H81.75V6.547H83.2ZM81.633,4.3a.863.863,0,0,1,.215-.594.807.807,0,0,1,.637-.242.819.819,0,0,1,.641.242.854.854,0,0,1,.219.594.826.826,0,0,1-.219.586.834.834,0,0,1-.641.234.821.821,0,0,1-.637-.234A.834.834,0,0,1,81.633,4.3Zm8.8,8.453a1.064,1.064,0,0,0-.441-.91,4.249,4.249,0,0,0-1.539-.559,7.277,7.277,0,0,1-1.742-.562,2.479,2.479,0,0,1-.953-.781,1.869,1.869,0,0,1-.309-1.078,2.193,2.193,0,0,1,.879-1.758,3.432,3.432,0,0,1,2.246-.719,3.532,3.532,0,0,1,2.332.742,2.357,2.357,0,0,1,.895,1.9H90.344a1.3,1.3,0,0,0-.5-1.023,1.888,1.888,0,0,0-1.27-.43,1.976,1.976,0,0,0-1.234.344,1.082,1.082,0,0,0-.445.9.877.877,0,0,0,.414.789,5.1,5.1,0,0,0,1.5.508,7.8,7.8,0,0,1,1.754.578,2.558,2.558,0,0,1,1,.809,1.988,1.988,0,0,1,.324,1.152,2.163,2.163,0,0,1-.906,1.816,3.8,3.8,0,0,1-2.352.684,4.257,4.257,0,0,1-1.8-.359,2.922,2.922,0,0,1-1.223-1,2.42,2.42,0,0,1-.441-1.395H86.6a1.5,1.5,0,0,0,.582,1.152,2.258,2.258,0,0,0,1.434.426,2.331,2.331,0,0,0,1.316-.332A1.02,1.02,0,0,0,90.43,12.758ZM95.719,4.5V6.547H97.3V7.664H95.719v5.249a1.173,1.173,0,0,0,.211.763.888.888,0,0,0,.719.254,3.5,3.5,0,0,0,.688-.094V15a4.215,4.215,0,0,1-1.109.155,1.8,1.8,0,0,1-1.461-.586,2.517,2.517,0,0,1-.492-1.664V7.664H92.734V6.547h1.539V4.5ZM104.2,15a3.036,3.036,0,0,1-.2-.891,3.225,3.225,0,0,1-2.406,1.047,2.984,2.984,0,0,1-2.051-.707,2.288,2.288,0,0,1-.8-1.793,2.39,2.39,0,0,1,1-2.051,4.733,4.733,0,0,1,2.824-.73h1.406V9.211A1.623,1.623,0,0,0,103.523,8a1.821,1.821,0,0,0-1.336-.449,2.108,2.108,0,0,0-1.3.391,1.151,1.151,0,0,0-.523.945H98.914a2,2,0,0,1,.449-1.223,3.066,3.066,0,0,1,1.219-.934,4.1,4.1,0,0,1,1.691-.344,3.342,3.342,0,0,1,2.289.73,2.635,2.635,0,0,1,.859,2.012v3.891a4.757,4.757,0,0,0,.3,1.852V15Zm-2.4-1.1a2.54,2.54,0,0,0,1.289-.352,2.127,2.127,0,0,0,.883-.914V10.9h-1.133q-2.656,0-2.656,1.555a1.316,1.316,0,0,0,.453,1.063A1.742,1.742,0,0,0,101.8,13.9Zm9.492-3.2a4.952,4.952,0,0,1,.922-3.129,3.137,3.137,0,0,1,4.766-.168V3h1.445V15H117.1l-.07-.906a2.943,2.943,0,0,1-2.414,1.063,2.887,2.887,0,0,1-2.395-1.2,5.008,5.008,0,0,1-.926-3.141Zm1.445.164a3.749,3.749,0,0,0,.594,2.25,1.92,1.92,0,0,0,1.641.813,2.108,2.108,0,0,0,2.008-1.234V8.813a2.125,2.125,0,0,0-1.992-1.2,1.929,1.929,0,0,0-1.656.82A4.128,4.128,0,0,0,112.742,10.867Zm11.438,4.289a3.693,3.693,0,0,1-2.8-1.129,4.19,4.19,0,0,1-1.078-3.02v-.266a5.073,5.073,0,0,1,.48-2.246,3.748,3.748,0,0,1,1.344-1.547A3.378,3.378,0,0,1,124,6.391a3.166,3.166,0,0,1,2.563,1.086,4.7,4.7,0,0,1,.914,3.109v.6H121.75a3,3,0,0,0,.73,2.02,2.3,2.3,0,0,0,1.777.77,2.517,2.517,0,0,0,1.3-.312,3.259,3.259,0,0,0,.93-.828l.883.688A3.55,3.55,0,0,1,124.18,15.156ZM124,7.578a1.928,1.928,0,0,0-1.469.637A3.1,3.1,0,0,0,121.8,10h4.234V9.891a2.753,2.753,0,0,0-.594-1.707A1.815,1.815,0,0,0,124,7.578ZM134.68,15h-1.445V3h1.445Zm1.93-4.3a4.993,4.993,0,0,1,.488-2.234,3.642,3.642,0,0,1,1.359-1.531,3.7,3.7,0,0,1,1.988-.539,3.565,3.565,0,0,1,2.793,1.2,4.6,4.6,0,0,1,1.066,3.18v.1a5.036,5.036,0,0,1-.473,2.215,3.589,3.589,0,0,1-1.352,1.527,3.743,3.743,0,0,1-2.02.547,3.556,3.556,0,0,1-2.785-1.2,4.575,4.575,0,0,1-1.066-3.164Zm1.453.172a3.616,3.616,0,0,0,.652,2.258,2.211,2.211,0,0,0,3.5-.012,3.954,3.954,0,0,0,.648-2.418,3.61,3.61,0,0,0-.66-2.254,2.1,2.1,0,0,0-1.754-.863,2.075,2.075,0,0,0-1.727.852A3.925,3.925,0,0,0,138.063,10.867Zm12.977,1.891a1.064,1.064,0,0,0-.441-.91,4.249,4.249,0,0,0-1.539-.559,7.277,7.277,0,0,1-1.742-.562,2.479,2.479,0,0,1-.953-.781,1.869,1.869,0,0,1-.309-1.078,2.193,2.193,0,0,1,.879-1.758,3.432,3.432,0,0,1,2.246-.719,3.532,3.532,0,0,1,2.332.742,2.357,2.357,0,0,1,.895,1.9h-1.453a1.3,1.3,0,0,0-.5-1.023,1.888,1.888,0,0,0-1.27-.43,1.976,1.976,0,0,0-1.234.344,1.082,1.082,0,0,0-.445.9.877.877,0,0,0,.414.789,5.1,5.1,0,0,0,1.5.508,7.8,7.8,0,0,1,1.754.578,2.558,2.558,0,0,1,1,.809,1.988,1.988,0,0,1,.324,1.152,2.163,2.163,0,0,1-.906,1.816,3.8,3.8,0,0,1-2.352.684,4.257,4.257,0,0,1-1.8-.359,2.922,2.922,0,0,1-1.223-1,2.42,2.42,0,0,1-.441-1.395h1.445a1.5,1.5,0,0,0,.582,1.152,2.258,2.258,0,0,0,1.434.426,2.331,2.331,0,0,0,1.316-.332A1.02,1.02,0,0,0,151.039,12.758ZM163.547,15a3.036,3.036,0,0,1-.2-.891,3.225,3.225,0,0,1-2.406,1.047,2.984,2.984,0,0,1-2.051-.707,2.287,2.287,0,0,1-.8-1.793,2.39,2.39,0,0,1,1-2.051,4.733,4.733,0,0,1,2.824-.73h1.406V9.211A1.623,1.623,0,0,0,162.867,8a1.821,1.821,0,0,0-1.336-.449,2.107,2.107,0,0,0-1.3.391,1.151,1.151,0,0,0-.523.945h-1.453a2,2,0,0,1,.449-1.223,3.066,3.066,0,0,1,1.219-.934,4.1,4.1,0,0,1,1.691-.344,3.342,3.342,0,0,1,2.289.73,2.635,2.635,0,0,1,.859,2.012v3.891a4.757,4.757,0,0,0,.3,1.852V15Zm-2.4-1.1a2.54,2.54,0,0,0,1.289-.352,2.127,2.127,0,0,0,.883-.914V10.9h-1.133q-2.656,0-2.656,1.555a1.316,1.316,0,0,0,.453,1.063A1.742,1.742,0,0,0,161.148,13.9Zm9.273.078a2.082,2.082,0,0,0,1.352-.469,1.649,1.649,0,0,0,.641-1.172h1.367a2.621,2.621,0,0,1-.5,1.383,3.293,3.293,0,0,1-1.23,1.047,3.55,3.55,0,0,1-1.629.391A3.482,3.482,0,0,1,167.676,14a4.59,4.59,0,0,1-1.02-3.152v-.242a5.089,5.089,0,0,1,.453-2.2,3.451,3.451,0,0,1,1.3-1.492,3.7,3.7,0,0,1,2-.531,3.39,3.39,0,0,1,2.363.852,3.043,3.043,0,0,1,1,2.211h-1.367a1.992,1.992,0,0,0-.621-1.348,1.932,1.932,0,0,0-1.379-.527,2.023,2.023,0,0,0-1.707.793,3.724,3.724,0,0,0-.605,2.293v.273a3.65,3.65,0,0,0,.6,2.25A2.033,2.033,0,0,0,170.422,13.977ZM177.367,4.5V6.547h1.578V7.664h-1.578v5.249a1.173,1.173,0,0,0,.211.763.888.888,0,0,0,.719.254,3.5,3.5,0,0,0,.688-.094V15a4.215,4.215,0,0,1-1.109.155,1.8,1.8,0,0,1-1.461-.586,2.517,2.517,0,0,1-.492-1.664V7.664h-1.539V6.547h1.539V4.5ZM182.2,15h-1.445V6.547H182.2ZM180.641,4.3a.863.863,0,0,1,.215-.594.807.807,0,0,1,.637-.242.819.819,0,0,1,.641.242.854.854,0,0,1,.219.594.826.826,0,0,1-.219.586.834.834,0,0,1-.641.234.821.821,0,0,1-.637-.234A.834.834,0,0,1,180.641,4.3Zm6.664,8.734L189.4,6.547h1.477L187.844,15h-1.1L183.68,6.547h1.477Zm4.461-2.344a4.993,4.993,0,0,1,.488-2.234,3.642,3.642,0,0,1,1.359-1.531,3.7,3.7,0,0,1,1.988-.539,3.565,3.565,0,0,1,2.793,1.2,4.6,4.6,0,0,1,1.066,3.18v.1a5.036,5.036,0,0,1-.473,2.215,3.589,3.589,0,0,1-1.352,1.527,3.743,3.743,0,0,1-2.02.547,3.556,3.556,0,0,1-2.785-1.2,4.575,4.575,0,0,1-1.066-3.164Zm1.453.172a3.616,3.616,0,0,0,.652,2.258,2.211,2.211,0,0,0,3.5-.012,3.954,3.954,0,0,0,.648-2.418,3.61,3.61,0,0,0-.66-2.254,2.1,2.1,0,0,0-1.754-.863,2.075,2.075,0,0,0-1.727.852A3.925,3.925,0,0,0,193.219,10.867ZM206.2,12.758a1.064,1.064,0,0,0-.441-.91,4.249,4.249,0,0,0-1.539-.559,7.277,7.277,0,0,1-1.742-.562,2.479,2.479,0,0,1-.953-.781,1.869,1.869,0,0,1-.309-1.078,2.193,2.193,0,0,1,.879-1.758,3.432,3.432,0,0,1,2.246-.719,3.532,3.532,0,0,1,2.332.742,2.357,2.357,0,0,1,.895,1.9h-1.453a1.3,1.3,0,0,0-.5-1.023,1.888,1.888,0,0,0-1.27-.43,1.976,1.976,0,0,0-1.234.344,1.082,1.082,0,0,0-.445.9.877.877,0,0,0,.414.789,5.1,5.1,0,0,0,1.5.508,7.8,7.8,0,0,1,1.754.578,2.558,2.558,0,0,1,1,.809,1.988,1.988,0,0,1,.324,1.152,2.163,2.163,0,0,1-.906,1.816,3.8,3.8,0,0,1-2.352.684,4.257,4.257,0,0,1-1.8-.359,2.922,2.922,0,0,1-1.223-1,2.42,2.42,0,0,1-.441-1.395h1.445a1.5,1.5,0,0,0,.582,1.152,2.258,2.258,0,0,0,1.434.426,2.331,2.331,0,0,0,1.316-.332A1.02,1.02,0,0,0,206.2,12.758ZM3.859,36.883l1.969-6.336H7.375L3.977,40.3q-.789,2.109-2.508,2.109L1.2,42.391l-.539-.1V41.117l.391.031a1.923,1.923,0,0,0,1.145-.3,2.148,2.148,0,0,0,.676-1.086l.32-.859L.172,30.547H1.75ZM14.586,28.5v2.047h1.578v1.117H14.586v5.249a1.173,1.173,0,0,0,.211.763.888.888,0,0,0,.719.254,3.5,3.5,0,0,0,.688-.094V39a4.215,4.215,0,0,1-1.109.155,1.8,1.8,0,0,1-1.461-.586,2.517,2.517,0,0,1-.492-1.664V31.664H11.6V30.547h1.539V28.5ZM23.07,39a3.036,3.036,0,0,1-.2-.891,3.225,3.225,0,0,1-2.406,1.047,2.984,2.984,0,0,1-2.051-.707,2.287,2.287,0,0,1-.8-1.793,2.39,2.39,0,0,1,1-2.051,4.733,4.733,0,0,1,2.824-.73h1.406v-.664A1.623,1.623,0,0,0,22.391,32a1.821,1.821,0,0,0-1.336-.449,2.108,2.108,0,0,0-1.3.391,1.151,1.151,0,0,0-.523.945H17.781a2,2,0,0,1,.449-1.223,3.066,3.066,0,0,1,1.219-.934,4.1,4.1,0,0,1,1.691-.344,3.342,3.342,0,0,1,2.289.73,2.635,2.635,0,0,1,.859,2.012v3.891a4.757,4.757,0,0,0,.3,1.852V39Zm-2.4-1.1a2.54,2.54,0,0,0,1.289-.352,2.127,2.127,0,0,0,.883-.914V34.9H21.711q-2.656,0-2.656,1.555a1.316,1.316,0,0,0,.453,1.063A1.742,1.742,0,0,0,20.672,37.9Zm9.969-6.055a4.331,4.331,0,0,0-.711-.055A1.9,1.9,0,0,0,28,33v6H26.555V30.547h1.406l.023.977A2.251,2.251,0,0,1,30,30.391a1.477,1.477,0,0,1,.641.109Zm4.688,7.313a3.693,3.693,0,0,1-2.8-1.129,4.19,4.19,0,0,1-1.078-3.02v-.266a5.073,5.073,0,0,1,.48-2.246,3.748,3.748,0,0,1,1.344-1.547,3.378,3.378,0,0,1,1.871-.559,3.166,3.166,0,0,1,2.563,1.086,4.7,4.7,0,0,1,.914,3.109v.6H32.9a3,3,0,0,0,.73,2.02,2.3,2.3,0,0,0,1.777.77,2.517,2.517,0,0,0,1.3-.312,3.258,3.258,0,0,0,.93-.828l.883.688A3.55,3.55,0,0,1,35.328,39.156Zm-.18-7.578a1.928,1.928,0,0,0-1.469.637A3.1,3.1,0,0,0,32.945,34H37.18v-.109a2.753,2.753,0,0,0-.594-1.707A1.815,1.815,0,0,0,35.148,31.578ZM45.516,39a3.036,3.036,0,0,1-.2-.891,3.225,3.225,0,0,1-2.406,1.047,2.984,2.984,0,0,1-2.051-.707,2.287,2.287,0,0,1-.8-1.793,2.39,2.39,0,0,1,1-2.051,4.733,4.733,0,0,1,2.824-.73h1.406v-.664A1.623,1.623,0,0,0,44.836,32a1.821,1.821,0,0,0-1.336-.449,2.107,2.107,0,0,0-1.3.391,1.151,1.151,0,0,0-.523.945H40.227a2,2,0,0,1,.449-1.223,3.066,3.066,0,0,1,1.219-.934,4.1,4.1,0,0,1,1.691-.344,3.342,3.342,0,0,1,2.289.73,2.635,2.635,0,0,1,.859,2.012v3.891a4.757,4.757,0,0,0,.3,1.852V39Zm-2.4-1.1a2.54,2.54,0,0,0,1.289-.352,2.127,2.127,0,0,0,.883-.914V34.9H44.156q-2.656,0-2.656,1.555a1.316,1.316,0,0,0,.453,1.063A1.742,1.742,0,0,0,43.117,37.9Zm10.8-1.141a1.064,1.064,0,0,0-.441-.91,4.249,4.249,0,0,0-1.539-.559,7.277,7.277,0,0,1-1.742-.562,2.479,2.479,0,0,1-.953-.781,1.869,1.869,0,0,1-.309-1.078,2.193,2.193,0,0,1,.879-1.758,3.432,3.432,0,0,1,2.246-.719,3.532,3.532,0,0,1,2.332.742,2.357,2.357,0,0,1,.895,1.9H53.836a1.3,1.3,0,0,0-.5-1.023,1.888,1.888,0,0,0-1.27-.43,1.976,1.976,0,0,0-1.234.344,1.082,1.082,0,0,0-.445.9.877.877,0,0,0,.414.789,5.1,5.1,0,0,0,1.5.508,7.8,7.8,0,0,1,1.754.578,2.558,2.558,0,0,1,1,.809,1.988,1.988,0,0,1,.324,1.152,2.163,2.163,0,0,1-.906,1.816,3.8,3.8,0,0,1-2.352.684,4.257,4.257,0,0,1-1.8-.359,2.922,2.922,0,0,1-1.223-1,2.42,2.42,0,0,1-.441-1.395h1.445a1.5,1.5,0,0,0,.582,1.152,2.258,2.258,0,0,0,1.434.426,2.331,2.331,0,0,0,1.316-.332A1.02,1.02,0,0,0,53.922,36.758Zm3.359,1.484a.905.905,0,0,1,.223-.625.848.848,0,0,1,.668-.25.874.874,0,0,1,.676.25.887.887,0,0,1,.23.625.839.839,0,0,1-.23.6.89.89,0,0,1-.676.242.8.8,0,0,1-.891-.844Z" transform="translate(416 4646)" fill="#12263f"/>
    <path id="Trazado_710608" data-name="Trazado 710608" d="M9.719,13.508a3.465,3.465,0,0,1-1.613,1.238,6.517,6.517,0,0,1-2.41.41A4.674,4.674,0,0,1,3.227,14.5a4.346,4.346,0,0,1-1.668-1.855A6.408,6.408,0,0,1,.953,9.859V8.867a5.982,5.982,0,0,1,1.2-3.984A4.179,4.179,0,0,1,5.523,3.469a4.316,4.316,0,0,1,2.867.91A3.965,3.965,0,0,1,9.719,6.961h-1.5A2.48,2.48,0,0,0,5.531,4.7a2.655,2.655,0,0,0-2.285,1.06,5.173,5.173,0,0,0-.785,3.069v.93A4.848,4.848,0,0,0,3.336,12.8,2.836,2.836,0,0,0,5.7,13.93a5.228,5.228,0,0,0,1.477-.187,2.283,2.283,0,0,0,1.047-.631V10.563H5.594V9.336H9.719ZM15.5,15.156a3.693,3.693,0,0,1-2.8-1.129,4.19,4.19,0,0,1-1.078-3.02v-.266a5.073,5.073,0,0,1,.48-2.246,3.748,3.748,0,0,1,1.344-1.547,3.378,3.378,0,0,1,1.871-.559,3.166,3.166,0,0,1,2.563,1.086,4.7,4.7,0,0,1,.914,3.109v.6H13.07a3,3,0,0,0,.73,2.02,2.3,2.3,0,0,0,1.777.77,2.517,2.517,0,0,0,1.3-.312,3.259,3.259,0,0,0,.93-.828l.883.688A3.55,3.55,0,0,1,15.5,15.156Zm-.18-7.578a1.928,1.928,0,0,0-1.469.637A3.1,3.1,0,0,0,13.117,10h4.234V9.891a2.753,2.753,0,0,0-.594-1.707A1.815,1.815,0,0,0,15.32,7.578Zm10.07,5.18a1.064,1.064,0,0,0-.441-.91,4.249,4.249,0,0,0-1.539-.559,7.277,7.277,0,0,1-1.742-.562,2.479,2.479,0,0,1-.953-.781,1.869,1.869,0,0,1-.309-1.078,2.193,2.193,0,0,1,.879-1.758,3.432,3.432,0,0,1,2.246-.719,3.532,3.532,0,0,1,2.332.742,2.357,2.357,0,0,1,.895,1.9H25.3a1.3,1.3,0,0,0-.5-1.023,1.888,1.888,0,0,0-1.27-.43,1.976,1.976,0,0,0-1.234.344,1.082,1.082,0,0,0-.445.9.877.877,0,0,0,.414.789,5.1,5.1,0,0,0,1.5.508,7.8,7.8,0,0,1,1.754.578,2.558,2.558,0,0,1,1,.809,1.988,1.988,0,0,1,.324,1.152,2.163,2.163,0,0,1-.906,1.816,3.8,3.8,0,0,1-2.352.684,4.257,4.257,0,0,1-1.8-.359,2.922,2.922,0,0,1-1.223-1,2.42,2.42,0,0,1-.441-1.395h1.445a1.5,1.5,0,0,0,.582,1.152,2.258,2.258,0,0,0,1.434.426,2.331,2.331,0,0,0,1.316-.332A1.02,1.02,0,0,0,25.391,12.758ZM30.68,4.5V6.547h1.578V7.664H30.68v5.249a1.173,1.173,0,0,0,.211.763.888.888,0,0,0,.719.254,3.5,3.5,0,0,0,.688-.094V15a4.215,4.215,0,0,1-1.109.155,1.8,1.8,0,0,1-1.461-.586,2.517,2.517,0,0,1-.492-1.664V7.664H27.7V6.547h1.539V4.5ZM35.516,15H34.07V6.547h1.445ZM33.953,4.3a.863.863,0,0,1,.215-.594.807.807,0,0,1,.637-.242.819.819,0,0,1,.641.242.854.854,0,0,1,.219.594.826.826,0,0,1-.219.586.834.834,0,0,1-.641.234.821.821,0,0,1-.637-.234A.834.834,0,0,1,33.953,4.3ZM37.445,10.7a4.993,4.993,0,0,1,.488-2.234A3.643,3.643,0,0,1,39.293,6.93a3.7,3.7,0,0,1,1.988-.539,3.565,3.565,0,0,1,2.793,1.2,4.6,4.6,0,0,1,1.066,3.18v.1a5.036,5.036,0,0,1-.473,2.215,3.589,3.589,0,0,1-1.352,1.527,3.743,3.743,0,0,1-2.02.547,3.556,3.556,0,0,1-2.785-1.2A4.575,4.575,0,0,1,37.445,10.8Zm1.453.172a3.616,3.616,0,0,0,.652,2.258,2.211,2.211,0,0,0,3.5-.012A3.955,3.955,0,0,0,43.7,10.7a3.61,3.61,0,0,0-.66-2.254,2.1,2.1,0,0,0-1.754-.863,2.075,2.075,0,0,0-1.727.852A3.925,3.925,0,0,0,38.9,10.867Zm9.422-4.32.047,1.063A3.08,3.08,0,0,1,50.9,6.391q2.68,0,2.7,3.023V15H52.156V9.406a1.946,1.946,0,0,0-.418-1.352,1.675,1.675,0,0,0-1.277-.437,2.086,2.086,0,0,0-1.234.375,2.546,2.546,0,0,0-.828.984V15H46.953V6.547ZM61,15a3.036,3.036,0,0,1-.2-.891,3.225,3.225,0,0,1-2.406,1.047,2.984,2.984,0,0,1-2.051-.707,2.287,2.287,0,0,1-.8-1.793,2.39,2.39,0,0,1,1-2.051,4.733,4.733,0,0,1,2.824-.73h1.406V9.211A1.623,1.623,0,0,0,60.32,8a1.821,1.821,0,0,0-1.336-.449,2.107,2.107,0,0,0-1.3.391,1.151,1.151,0,0,0-.523.945H55.711a2,2,0,0,1,.449-1.223,3.066,3.066,0,0,1,1.219-.934,4.1,4.1,0,0,1,1.691-.344,3.342,3.342,0,0,1,2.289.73,2.635,2.635,0,0,1,.859,2.012v3.891a4.757,4.757,0,0,0,.3,1.852V15Zm-2.4-1.1a2.54,2.54,0,0,0,1.289-.352,2.127,2.127,0,0,0,.883-.914V10.9H59.641q-2.656,0-2.656,1.555a1.316,1.316,0,0,0,.453,1.063A1.742,1.742,0,0,0,58.6,13.9ZM68.57,7.844a4.331,4.331,0,0,0-.711-.055A1.9,1.9,0,0,0,65.93,9v6H64.484V6.547h1.406l.023.977A2.251,2.251,0,0,1,67.93,6.391a1.477,1.477,0,0,1,.641.109Zm9.375,0a4.331,4.331,0,0,0-.711-.055A1.9,1.9,0,0,0,75.3,9v6H73.859V6.547h1.406l.023.977A2.251,2.251,0,0,1,77.3,6.391a1.477,1.477,0,0,1,.641.109Zm4.688,7.313a3.693,3.693,0,0,1-2.8-1.129,4.19,4.19,0,0,1-1.078-3.02v-.266a5.073,5.073,0,0,1,.48-2.246,3.748,3.748,0,0,1,1.344-1.547,3.378,3.378,0,0,1,1.871-.559,3.166,3.166,0,0,1,2.563,1.086,4.7,4.7,0,0,1,.914,3.109v.6H80.2a3,3,0,0,0,.73,2.02,2.3,2.3,0,0,0,1.777.77,2.517,2.517,0,0,0,1.3-.312,3.259,3.259,0,0,0,.93-.828l.883.688A3.55,3.55,0,0,1,82.633,15.156Zm-.18-7.578a1.928,1.928,0,0,0-1.469.637A3.1,3.1,0,0,0,80.25,10h4.234V9.891a2.753,2.753,0,0,0-.594-1.707A1.815,1.815,0,0,0,82.453,7.578Zm8.539,6.4a2.082,2.082,0,0,0,1.352-.469,1.649,1.649,0,0,0,.641-1.172h1.367a2.621,2.621,0,0,1-.5,1.383,3.293,3.293,0,0,1-1.23,1.047,3.55,3.55,0,0,1-1.629.391A3.482,3.482,0,0,1,88.246,14a4.59,4.59,0,0,1-1.02-3.152v-.242a5.089,5.089,0,0,1,.453-2.2,3.451,3.451,0,0,1,1.3-1.492,3.7,3.7,0,0,1,2-.531,3.39,3.39,0,0,1,2.363.852,3.043,3.043,0,0,1,1,2.211H92.984a1.992,1.992,0,0,0-.621-1.348,1.932,1.932,0,0,0-1.379-.527,2.023,2.023,0,0,0-1.707.793,3.724,3.724,0,0,0-.605,2.293v.273a3.65,3.65,0,0,0,.6,2.25A2.033,2.033,0,0,0,90.992,13.977Zm10.2.188a3.07,3.07,0,0,1-2.477.992,2.628,2.628,0,0,1-2.059-.785,3.4,3.4,0,0,1-.715-2.324v-5.5h1.445v5.461q0,1.922,1.563,1.922a2.163,2.163,0,0,0,2.2-1.234V6.547H102.6V15h-1.375Zm7.688-6.32a4.331,4.331,0,0,0-.711-.055A1.9,1.9,0,0,0,106.242,9v6H104.8V6.547H106.2l.023.977a2.251,2.251,0,0,1,2.016-1.133,1.477,1.477,0,0,1,.641.109Zm6.25,4.914a1.064,1.064,0,0,0-.441-.91,4.249,4.249,0,0,0-1.539-.559,7.277,7.277,0,0,1-1.742-.562,2.479,2.479,0,0,1-.953-.781,1.869,1.869,0,0,1-.309-1.078,2.193,2.193,0,0,1,.879-1.758,3.432,3.432,0,0,1,2.246-.719,3.532,3.532,0,0,1,2.332.742,2.357,2.357,0,0,1,.895,1.9h-1.453a1.3,1.3,0,0,0-.5-1.023,1.888,1.888,0,0,0-1.27-.43,1.976,1.976,0,0,0-1.234.344,1.082,1.082,0,0,0-.445.9.877.877,0,0,0,.414.789,5.1,5.1,0,0,0,1.5.508,7.8,7.8,0,0,1,1.754.578,2.558,2.558,0,0,1,1,.809,1.988,1.988,0,0,1,.324,1.152,2.163,2.163,0,0,1-.906,1.816,3.8,3.8,0,0,1-2.352.684,4.257,4.257,0,0,1-1.8-.359,2.922,2.922,0,0,1-1.223-1,2.42,2.42,0,0,1-.441-1.395H111.3a1.5,1.5,0,0,0,.582,1.152,2.258,2.258,0,0,0,1.434.426,2.331,2.331,0,0,0,1.316-.332A1.02,1.02,0,0,0,115.133,12.758Zm2.945-2.062a4.993,4.993,0,0,1,.488-2.234,3.643,3.643,0,0,1,1.359-1.531,3.7,3.7,0,0,1,1.988-.539,3.565,3.565,0,0,1,2.793,1.2,4.6,4.6,0,0,1,1.066,3.18v.1a5.036,5.036,0,0,1-.473,2.215,3.589,3.589,0,0,1-1.352,1.527,3.743,3.743,0,0,1-2.02.547,3.556,3.556,0,0,1-2.785-1.2,4.575,4.575,0,0,1-1.066-3.164Zm1.453.172a3.616,3.616,0,0,0,.652,2.258,2.211,2.211,0,0,0,3.5-.012,3.955,3.955,0,0,0,.648-2.418,3.61,3.61,0,0,0-.66-2.254,2.1,2.1,0,0,0-1.754-.863,2.075,2.075,0,0,0-1.727.852A3.925,3.925,0,0,0,119.531,10.867Zm12.977,1.891a1.064,1.064,0,0,0-.441-.91,4.249,4.249,0,0,0-1.539-.559,7.277,7.277,0,0,1-1.742-.562,2.479,2.479,0,0,1-.953-.781,1.869,1.869,0,0,1-.309-1.078,2.193,2.193,0,0,1,.879-1.758,3.432,3.432,0,0,1,2.246-.719,3.532,3.532,0,0,1,2.332.742,2.357,2.357,0,0,1,.895,1.9h-1.453a1.3,1.3,0,0,0-.5-1.023,1.888,1.888,0,0,0-1.27-.43,1.976,1.976,0,0,0-1.234.344,1.082,1.082,0,0,0-.445.9.877.877,0,0,0,.414.789,5.1,5.1,0,0,0,1.5.508,7.8,7.8,0,0,1,1.754.578,2.558,2.558,0,0,1,1,.809,1.988,1.988,0,0,1,.324,1.152,2.163,2.163,0,0,1-.906,1.816,3.8,3.8,0,0,1-2.352.684,4.257,4.257,0,0,1-1.8-.359,2.923,2.923,0,0,1-1.223-1,2.42,2.42,0,0,1-.441-1.395h1.445a1.5,1.5,0,0,0,.582,1.152,2.258,2.258,0,0,0,1.434.426,2.331,2.331,0,0,0,1.316-.332A1.02,1.02,0,0,0,132.508,12.758Zm3.359,1.484a.905.905,0,0,1,.223-.625.848.848,0,0,1,.668-.25.874.874,0,0,1,.676.25.887.887,0,0,1,.23.625.839.839,0,0,1-.23.6.89.89,0,0,1-.676.242.8.8,0,0,1-.891-.844Z" transform="translate(723 4795)" fill="#12263f"/>
    <path id="Trazado_710606" data-name="Trazado 710606" d="M1.32,15V3.625H4.531a5.169,5.169,0,0,1,2.625.656A4.438,4.438,0,0,1,8.918,6.148,6.078,6.078,0,0,1,9.547,8.93v.727a6.1,6.1,0,0,1-.621,2.82,4.369,4.369,0,0,1-1.773,1.859A5.5,5.5,0,0,1,4.469,15ZM2.82,4.852v8.922H4.4a3.434,3.434,0,0,0,2.7-1.079,4.458,4.458,0,0,0,.965-3.073V8.957a4.529,4.529,0,0,0-.91-3.014A3.239,3.239,0,0,0,4.57,4.852Zm12.273,10.3a3.693,3.693,0,0,1-2.8-1.129,4.19,4.19,0,0,1-1.078-3.02v-.266A5.073,5.073,0,0,1,11.7,8.5a3.748,3.748,0,0,1,1.344-1.547,3.378,3.378,0,0,1,1.871-.559,3.166,3.166,0,0,1,2.563,1.086,4.7,4.7,0,0,1,.914,3.109v.6H12.664a3,3,0,0,0,.73,2.02,2.3,2.3,0,0,0,1.777.77,2.517,2.517,0,0,0,1.3-.312,3.259,3.259,0,0,0,.93-.828l.883.688A3.55,3.55,0,0,1,15.094,15.156Zm-.18-7.578a1.928,1.928,0,0,0-1.469.637A3.1,3.1,0,0,0,12.711,10h4.234V9.891a2.753,2.753,0,0,0-.594-1.707A1.815,1.815,0,0,0,14.914,7.578ZM20.547,15V7.664H19.211V6.547h1.336V5.828a2.937,2.937,0,0,1,.809-2.2,3.136,3.136,0,0,1,2.285-.789,6.881,6.881,0,0,1,2.211.477l-.242,1.219a5.008,5.008,0,0,0-1.859-.391,1.819,1.819,0,0,0-1.34.418A1.723,1.723,0,0,0,22,5.813v.734h1.727V7.664H22V15Zm6.023,0H25.117V6.547H26.57Zm3.719-8.453.047,1.063a3.08,3.08,0,0,1,2.531-1.219q2.68,0,2.7,3.023V15H34.125V9.406a1.946,1.946,0,0,0-.418-1.352,1.675,1.675,0,0,0-1.277-.437,2.086,2.086,0,0,0-1.234.375,2.546,2.546,0,0,0-.828.984V15H28.922V6.547ZM39.32,15H37.875V6.547H39.32ZM37.758,4.3a.863.863,0,0,1,.215-.594.807.807,0,0,1,.637-.242.819.819,0,0,1,.641.242.854.854,0,0,1,.219.594.826.826,0,0,1-.219.586.834.834,0,0,1-.641.234.821.821,0,0,1-.637-.234A.834.834,0,0,1,37.758,4.3Zm7.961,3.539a4.331,4.331,0,0,0-.711-.055A1.9,1.9,0,0,0,43.078,9v6H41.633V6.547h1.406l.023.977a2.251,2.251,0,0,1,2.016-1.133,1.477,1.477,0,0,1,.641.109ZM52.578,15H51.133V6.547h1.445ZM51.016,4.3a.863.863,0,0,1,.215-.594.807.807,0,0,1,.637-.242.819.819,0,0,1,.641.242.854.854,0,0,1,.219.594.826.826,0,0,1-.219.586.834.834,0,0,1-.641.234.821.821,0,0,1-.637-.234A.834.834,0,0,1,51.016,4.3Zm5.242,2.242L56.3,7.609a3.08,3.08,0,0,1,2.531-1.219q2.68,0,2.7,3.023V15H60.094V9.406a1.946,1.946,0,0,0-.418-1.352A1.675,1.675,0,0,0,58.4,7.617a2.086,2.086,0,0,0-1.234.375,2.546,2.546,0,0,0-.828.984V15H54.891V6.547ZM63.367,10.7a4.952,4.952,0,0,1,.922-3.129,3.137,3.137,0,0,1,4.766-.168V3H70.5V15H69.172l-.07-.906a2.943,2.943,0,0,1-2.414,1.063,2.887,2.887,0,0,1-2.395-1.2,5.008,5.008,0,0,1-.926-3.141Zm1.445.164a3.749,3.749,0,0,0,.594,2.25,1.92,1.92,0,0,0,1.641.813A2.108,2.108,0,0,0,69.055,12.7V8.813a2.125,2.125,0,0,0-1.992-1.2,1.929,1.929,0,0,0-1.656.82A4.128,4.128,0,0,0,64.813,10.867ZM74.313,15H72.867V6.547h1.445ZM72.75,4.3a.863.863,0,0,1,.215-.594.807.807,0,0,1,.637-.242.819.819,0,0,1,.641.242.854.854,0,0,1,.219.594.826.826,0,0,1-.219.586.834.834,0,0,1-.641.234.821.821,0,0,1-.637-.234A.834.834,0,0,1,72.75,4.3Zm7.266,9.672a2.082,2.082,0,0,0,1.352-.469,1.649,1.649,0,0,0,.641-1.172h1.367a2.621,2.621,0,0,1-.5,1.383,3.293,3.293,0,0,1-1.23,1.047,3.55,3.55,0,0,1-1.629.391A3.482,3.482,0,0,1,77.27,14a4.59,4.59,0,0,1-1.02-3.152v-.242a5.089,5.089,0,0,1,.453-2.2A3.451,3.451,0,0,1,78,6.922a3.7,3.7,0,0,1,2-.531,3.39,3.39,0,0,1,2.363.852,3.043,3.043,0,0,1,1,2.211H82.008a1.992,1.992,0,0,0-.621-1.348,1.932,1.932,0,0,0-1.379-.527,2.023,2.023,0,0,0-1.707.793,3.724,3.724,0,0,0-.605,2.293v.273a3.65,3.65,0,0,0,.6,2.25A2.033,2.033,0,0,0,80.016,13.977ZM90.219,15a3.036,3.036,0,0,1-.2-.891,3.225,3.225,0,0,1-2.406,1.047,2.984,2.984,0,0,1-2.051-.707,2.288,2.288,0,0,1-.8-1.793,2.39,2.39,0,0,1,1-2.051,4.733,4.733,0,0,1,2.824-.73h1.406V9.211A1.623,1.623,0,0,0,89.539,8,1.821,1.821,0,0,0,88.2,7.555a2.108,2.108,0,0,0-1.3.391,1.151,1.151,0,0,0-.523.945H84.93a2,2,0,0,1,.449-1.223A3.066,3.066,0,0,1,86.6,6.734a4.1,4.1,0,0,1,1.691-.344,3.342,3.342,0,0,1,2.289.73,2.635,2.635,0,0,1,.859,2.012v3.891a4.757,4.757,0,0,0,.3,1.852V15Zm-2.4-1.1a2.54,2.54,0,0,0,1.289-.352,2.127,2.127,0,0,0,.883-.914V10.9H88.859q-2.656,0-2.656,1.555a1.316,1.316,0,0,0,.453,1.063A1.742,1.742,0,0,0,87.82,13.9Zm5.531-3.2a4.952,4.952,0,0,1,.922-3.129,3.137,3.137,0,0,1,4.766-.168V3h1.445V15H99.156l-.07-.906a2.943,2.943,0,0,1-2.414,1.063,2.887,2.887,0,0,1-2.395-1.2,5.008,5.008,0,0,1-.926-3.141Zm1.445.164a3.749,3.749,0,0,0,.594,2.25,1.92,1.92,0,0,0,1.641.813A2.108,2.108,0,0,0,99.039,12.7V8.813a2.125,2.125,0,0,0-1.992-1.2,1.929,1.929,0,0,0-1.656.82A4.128,4.128,0,0,0,94.8,10.867Zm7.547-.172a4.993,4.993,0,0,1,.488-2.234,3.643,3.643,0,0,1,1.359-1.531,3.7,3.7,0,0,1,1.988-.539,3.565,3.565,0,0,1,2.793,1.2,4.6,4.6,0,0,1,1.066,3.18v.1a5.036,5.036,0,0,1-.473,2.215,3.589,3.589,0,0,1-1.352,1.527,3.743,3.743,0,0,1-2.02.547,3.556,3.556,0,0,1-2.785-1.2,4.575,4.575,0,0,1-1.066-3.164Zm1.453.172a3.616,3.616,0,0,0,.652,2.258,2.211,2.211,0,0,0,3.5-.012,3.955,3.955,0,0,0,.648-2.418,3.61,3.61,0,0,0-.66-2.254,2.1,2.1,0,0,0-1.754-.863,2.075,2.075,0,0,0-1.727.852A3.925,3.925,0,0,0,103.8,10.867Zm12.141-3.023a4.331,4.331,0,0,0-.711-.055A1.9,1.9,0,0,0,113.3,9v6h-1.445V6.547h1.406l.023.977A2.251,2.251,0,0,1,115.3,6.391a1.477,1.477,0,0,1,.641.109Zm4.688,7.313a3.693,3.693,0,0,1-2.8-1.129,4.19,4.19,0,0,1-1.078-3.02v-.266a5.073,5.073,0,0,1,.48-2.246,3.748,3.748,0,0,1,1.344-1.547,3.378,3.378,0,0,1,1.871-.559,3.166,3.166,0,0,1,2.563,1.086,4.7,4.7,0,0,1,.914,3.109v.6H118.2a3,3,0,0,0,.73,2.02,2.3,2.3,0,0,0,1.777.77,2.517,2.517,0,0,0,1.3-.312,3.259,3.259,0,0,0,.93-.828l.883.688A3.55,3.55,0,0,1,120.625,15.156Zm-.18-7.578a1.928,1.928,0,0,0-1.469.637A3.1,3.1,0,0,0,118.242,10h4.234V9.891a2.753,2.753,0,0,0-.594-1.707A1.815,1.815,0,0,0,120.445,7.578Zm10.07,5.18a1.064,1.064,0,0,0-.441-.91,4.249,4.249,0,0,0-1.539-.559,7.277,7.277,0,0,1-1.742-.562,2.479,2.479,0,0,1-.953-.781,1.869,1.869,0,0,1-.309-1.078,2.193,2.193,0,0,1,.879-1.758,3.432,3.432,0,0,1,2.246-.719,3.532,3.532,0,0,1,2.332.742,2.357,2.357,0,0,1,.895,1.9H130.43a1.3,1.3,0,0,0-.5-1.023,1.888,1.888,0,0,0-1.27-.43,1.976,1.976,0,0,0-1.234.344,1.082,1.082,0,0,0-.445.9.877.877,0,0,0,.414.789,5.094,5.094,0,0,0,1.5.508,7.8,7.8,0,0,1,1.754.578,2.558,2.558,0,0,1,1,.809,1.988,1.988,0,0,1,.324,1.152,2.163,2.163,0,0,1-.906,1.816,3.8,3.8,0,0,1-2.352.684,4.257,4.257,0,0,1-1.8-.359,2.922,2.922,0,0,1-1.223-1,2.42,2.42,0,0,1-.441-1.395h1.445a1.5,1.5,0,0,0,.582,1.152,2.258,2.258,0,0,0,1.434.426,2.331,2.331,0,0,0,1.316-.332A1.02,1.02,0,0,0,130.516,12.758Zm6.938-2.055a4.952,4.952,0,0,1,.922-3.129,3.137,3.137,0,0,1,4.766-.168V3h1.445V15h-1.328l-.07-.906a2.943,2.943,0,0,1-2.414,1.063,2.887,2.887,0,0,1-2.395-1.2,5.008,5.008,0,0,1-.926-3.141Zm1.445.164a3.749,3.749,0,0,0,.594,2.25,1.919,1.919,0,0,0,1.641.813,2.108,2.108,0,0,0,2.008-1.234V8.813a2.125,2.125,0,0,0-1.992-1.2,1.929,1.929,0,0,0-1.656.82A4.128,4.128,0,0,0,138.9,10.867Zm11.438,4.289a3.693,3.693,0,0,1-2.8-1.129,4.19,4.19,0,0,1-1.078-3.02v-.266a5.073,5.073,0,0,1,.48-2.246,3.748,3.748,0,0,1,1.344-1.547,3.378,3.378,0,0,1,1.871-.559,3.166,3.166,0,0,1,2.563,1.086,4.7,4.7,0,0,1,.914,3.109v.6h-5.727a3,3,0,0,0,.73,2.02,2.3,2.3,0,0,0,1.777.77,2.517,2.517,0,0,0,1.3-.312,3.258,3.258,0,0,0,.93-.828l.883.688A3.55,3.55,0,0,1,150.336,15.156Zm-.18-7.578a1.928,1.928,0,0,0-1.469.637A3.1,3.1,0,0,0,147.953,10h4.234V9.891a2.753,2.753,0,0,0-.594-1.707A1.815,1.815,0,0,0,150.156,7.578Zm13.2.266a4.331,4.331,0,0,0-.711-.055A1.9,1.9,0,0,0,160.711,9v6h-1.445V6.547h1.406l.023.977a2.251,2.251,0,0,1,2.016-1.133,1.477,1.477,0,0,1,.641.109Zm4.688,7.313a3.693,3.693,0,0,1-2.8-1.129,4.19,4.19,0,0,1-1.078-3.02v-.266a5.073,5.073,0,0,1,.48-2.246,3.748,3.748,0,0,1,1.344-1.547,3.378,3.378,0,0,1,1.871-.559,3.166,3.166,0,0,1,2.563,1.086,4.7,4.7,0,0,1,.914,3.109v.6h-5.727a3,3,0,0,0,.73,2.02,2.3,2.3,0,0,0,1.777.77,2.517,2.517,0,0,0,1.3-.312,3.258,3.258,0,0,0,.93-.828l.883.688A3.55,3.55,0,0,1,168.039,15.156Zm-.18-7.578a1.928,1.928,0,0,0-1.469.637A3.1,3.1,0,0,0,165.656,10h4.234V9.891a2.753,2.753,0,0,0-.594-1.707A1.815,1.815,0,0,0,167.859,7.578Zm6.516-1.031.047,1.063a3.08,3.08,0,0,1,2.531-1.219q2.68,0,2.7,3.023V15h-1.445V9.406a1.946,1.946,0,0,0-.418-1.352,1.675,1.675,0,0,0-1.277-.437,2.086,2.086,0,0,0-1.234.375,2.546,2.546,0,0,0-.828.984V15h-1.445V6.547Zm7.109,4.156a4.952,4.952,0,0,1,.922-3.129,3.137,3.137,0,0,1,4.766-.168V3h1.445V15h-1.328l-.07-.906a2.943,2.943,0,0,1-2.414,1.063,2.887,2.887,0,0,1-2.395-1.2,5.008,5.008,0,0,1-.926-3.141Zm1.445.164a3.749,3.749,0,0,0,.594,2.25,1.919,1.919,0,0,0,1.641.813,2.108,2.108,0,0,0,2.008-1.234V8.813a2.125,2.125,0,0,0-1.992-1.2,1.929,1.929,0,0,0-1.656.82A4.128,4.128,0,0,0,182.93,10.867ZM192.43,15h-1.445V6.547h1.445ZM190.867,4.3a.863.863,0,0,1,.215-.594.807.807,0,0,1,.637-.242.819.819,0,0,1,.641.242.854.854,0,0,1,.219.594.826.826,0,0,1-.219.586.834.834,0,0,1-.641.234.821.821,0,0,1-.637-.234A.834.834,0,0,1,190.867,4.3ZM196.1,6.547l.039.938a3.122,3.122,0,0,1,2.508-1.094,2.417,2.417,0,0,1,2.414,1.359,3.2,3.2,0,0,1,1.1-.984,3.242,3.242,0,0,1,1.6-.375q2.781,0,2.828,2.945V15h-1.445V9.422a1.941,1.941,0,0,0-.414-1.355,1.823,1.823,0,0,0-1.391-.449A1.917,1.917,0,0,0,202,8.1a1.949,1.949,0,0,0-.617,1.293V15H199.93V9.461a1.613,1.613,0,0,0-1.8-1.844,1.934,1.934,0,0,0-1.945,1.211V15h-1.445V6.547ZM210.336,15h-1.445V6.547h1.445ZM208.773,4.3a.863.863,0,0,1,.215-.594.807.807,0,0,1,.637-.242.819.819,0,0,1,.641.242.854.854,0,0,1,.219.594.826.826,0,0,1-.219.586.834.834,0,0,1-.641.234.821.821,0,0,1-.637-.234A.834.834,0,0,1,208.773,4.3Zm7.383,10.852a3.693,3.693,0,0,1-2.8-1.129,4.19,4.19,0,0,1-1.078-3.02v-.266a5.073,5.073,0,0,1,.48-2.246,3.748,3.748,0,0,1,1.344-1.547,3.378,3.378,0,0,1,1.871-.559,3.166,3.166,0,0,1,2.563,1.086,4.7,4.7,0,0,1,.914,3.109v.6h-5.727a3,3,0,0,0,.73,2.02,2.3,2.3,0,0,0,1.777.77,2.517,2.517,0,0,0,1.3-.312,3.258,3.258,0,0,0,.93-.828l.883.688A3.55,3.55,0,0,1,216.156,15.156Zm-.18-7.578a1.928,1.928,0,0,0-1.469.637A3.1,3.1,0,0,0,213.773,10h4.234V9.891a2.753,2.753,0,0,0-.594-1.707A1.815,1.815,0,0,0,215.977,7.578Zm6.516-1.031.047,1.063a3.08,3.08,0,0,1,2.531-1.219q2.68,0,2.7,3.023V15h-1.445V9.406a1.946,1.946,0,0,0-.418-1.352,1.675,1.675,0,0,0-1.277-.437,2.086,2.086,0,0,0-1.234.375,2.546,2.546,0,0,0-.828.984V15h-1.445V6.547ZM231.914,4.5V6.547h1.578V7.664h-1.578v5.249a1.173,1.173,0,0,0,.211.763.888.888,0,0,0,.719.254,3.5,3.5,0,0,0,.688-.094V15a4.215,4.215,0,0,1-1.109.155,1.8,1.8,0,0,1-1.461-.586,2.517,2.517,0,0,1-.492-1.664V7.664H228.93V6.547h1.539V4.5Zm2.727,6.2a4.993,4.993,0,0,1,.488-2.234,3.642,3.642,0,0,1,1.359-1.531,3.7,3.7,0,0,1,1.988-.539,3.565,3.565,0,0,1,2.793,1.2,4.6,4.6,0,0,1,1.066,3.18v.1a5.036,5.036,0,0,1-.473,2.215,3.589,3.589,0,0,1-1.352,1.527,3.743,3.743,0,0,1-2.02.547,3.556,3.556,0,0,1-2.785-1.2,4.575,4.575,0,0,1-1.066-3.164Zm1.453.172a3.616,3.616,0,0,0,.652,2.258,2.211,2.211,0,0,0,3.5-.012,3.954,3.954,0,0,0,.648-2.418,3.61,3.61,0,0,0-.66-2.254,2.1,2.1,0,0,0-1.754-.863,2.075,2.075,0,0,0-1.727.852A3.925,3.925,0,0,0,236.094,10.867Zm8.086,3.375a.905.905,0,0,1,.223-.625.848.848,0,0,1,.668-.25.874.874,0,0,1,.676.25.887.887,0,0,1,.23.625.839.839,0,0,1-.23.6.89.89,0,0,1-.676.242.8.8,0,0,1-.891-.844Z" transform="translate(956 4654)" fill="#12263f"/>
    <path id="Trazado_710605" data-name="Trazado 710605" d="M5.492,10.4H2.82V15H1.313V3.625H5.078A4.457,4.457,0,0,1,8.035,4.5,3.148,3.148,0,0,1,9.07,7.047,3.062,3.062,0,0,1,8.5,8.9a3.428,3.428,0,0,1-1.6,1.18L9.57,14.906V15H7.961ZM2.82,9.172h2.3A2.6,2.6,0,0,0,6.9,8.593a1.959,1.959,0,0,0,.66-1.55,2.062,2.062,0,0,0-.629-1.62,2.663,2.663,0,0,0-1.816-.571H2.82Zm11.633,5.984a3.693,3.693,0,0,1-2.8-1.129,4.19,4.19,0,0,1-1.078-3.02v-.266a5.073,5.073,0,0,1,.48-2.246A3.748,3.748,0,0,1,12.4,6.949a3.378,3.378,0,0,1,1.871-.559,3.166,3.166,0,0,1,2.563,1.086,4.7,4.7,0,0,1,.914,3.109v.6H12.023a3,3,0,0,0,.73,2.02,2.3,2.3,0,0,0,1.777.77,2.517,2.517,0,0,0,1.3-.312,3.259,3.259,0,0,0,.93-.828l.883.688A3.55,3.55,0,0,1,14.453,15.156Zm-.18-7.578a1.928,1.928,0,0,0-1.469.637A3.1,3.1,0,0,0,12.07,10H16.3V9.891a2.753,2.753,0,0,0-.594-1.707A1.815,1.815,0,0,0,14.273,7.578Zm7.836,5.461L24.2,6.547H25.68L22.648,15h-1.1L18.484,6.547h1.477ZM28.641,15H27.2V6.547h1.445ZM27.078,4.3a.863.863,0,0,1,.215-.594.807.807,0,0,1,.637-.242.819.819,0,0,1,.641.242.854.854,0,0,1,.219.594.826.826,0,0,1-.219.586.834.834,0,0,1-.641.234.821.821,0,0,1-.637-.234A.834.834,0,0,1,27.078,4.3Zm8.8,8.453a1.064,1.064,0,0,0-.441-.91,4.249,4.249,0,0,0-1.539-.559,7.277,7.277,0,0,1-1.742-.562,2.479,2.479,0,0,1-.953-.781,1.869,1.869,0,0,1-.309-1.078,2.193,2.193,0,0,1,.879-1.758,3.432,3.432,0,0,1,2.246-.719,3.532,3.532,0,0,1,2.332.742,2.357,2.357,0,0,1,.895,1.9H35.789a1.3,1.3,0,0,0-.5-1.023,1.888,1.888,0,0,0-1.27-.43,1.976,1.976,0,0,0-1.234.344,1.082,1.082,0,0,0-.445.9.877.877,0,0,0,.414.789,5.1,5.1,0,0,0,1.5.508A7.8,7.8,0,0,1,36,10.7a2.558,2.558,0,0,1,1,.809,1.988,1.988,0,0,1,.324,1.152,2.163,2.163,0,0,1-.906,1.816,3.8,3.8,0,0,1-2.352.684,4.257,4.257,0,0,1-1.8-.359,2.922,2.922,0,0,1-1.223-1A2.42,2.42,0,0,1,30.6,12.4h1.445a1.5,1.5,0,0,0,.582,1.152,2.258,2.258,0,0,0,1.434.426,2.331,2.331,0,0,0,1.316-.332A1.02,1.02,0,0,0,35.875,12.758ZM44.422,15a3.036,3.036,0,0,1-.2-.891,3.225,3.225,0,0,1-2.406,1.047,2.984,2.984,0,0,1-2.051-.707,2.287,2.287,0,0,1-.8-1.793,2.39,2.39,0,0,1,1-2.051,4.733,4.733,0,0,1,2.824-.73H44.2V9.211A1.623,1.623,0,0,0,43.742,8a1.821,1.821,0,0,0-1.336-.449,2.107,2.107,0,0,0-1.3.391,1.151,1.151,0,0,0-.523.945H39.133a2,2,0,0,1,.449-1.223A3.066,3.066,0,0,1,40.8,6.734a4.1,4.1,0,0,1,1.691-.344,3.342,3.342,0,0,1,2.289.73,2.635,2.635,0,0,1,.859,2.012v3.891a4.757,4.757,0,0,0,.3,1.852V15Zm-2.4-1.1a2.54,2.54,0,0,0,1.289-.352,2.127,2.127,0,0,0,.883-.914V10.9H43.063q-2.656,0-2.656,1.555a1.316,1.316,0,0,0,.453,1.063A1.742,1.742,0,0,0,42.023,13.9Zm9.969-6.055a4.331,4.331,0,0,0-.711-.055A1.9,1.9,0,0,0,49.352,9v6H47.906V6.547h1.406l.023.977a2.251,2.251,0,0,1,2.016-1.133,1.477,1.477,0,0,1,.641.109Zm8.055,5.039,1.969-6.336h1.547l-3.4,9.758q-.789,2.109-2.508,2.109l-.273-.023-.539-.1V17.117l.391.031a1.923,1.923,0,0,0,1.145-.3,2.148,2.148,0,0,0,.676-1.086l.32-.859L56.359,6.547h1.578ZM70.172,6.547l.039.938a3.122,3.122,0,0,1,2.508-1.094A2.417,2.417,0,0,1,75.133,7.75a3.2,3.2,0,0,1,1.1-.984,3.242,3.242,0,0,1,1.6-.375q2.781,0,2.828,2.945V15H79.211V9.422A1.941,1.941,0,0,0,78.8,8.066a1.823,1.823,0,0,0-1.391-.449,1.916,1.916,0,0,0-1.336.48,1.949,1.949,0,0,0-.617,1.293V15H74V9.461a1.613,1.613,0,0,0-1.8-1.844A1.934,1.934,0,0,0,70.25,8.828V15H68.8V6.547Zm16.172,8.609a3.693,3.693,0,0,1-2.8-1.129,4.19,4.19,0,0,1-1.078-3.02v-.266a5.073,5.073,0,0,1,.48-2.246,3.748,3.748,0,0,1,1.344-1.547,3.378,3.378,0,0,1,1.871-.559,3.166,3.166,0,0,1,2.563,1.086,4.7,4.7,0,0,1,.914,3.109v.6H83.914a3,3,0,0,0,.73,2.02,2.3,2.3,0,0,0,1.777.77,2.517,2.517,0,0,0,1.3-.312,3.259,3.259,0,0,0,.93-.828l.883.688A3.55,3.55,0,0,1,86.344,15.156Zm-.18-7.578a1.928,1.928,0,0,0-1.469.637A3.1,3.1,0,0,0,83.961,10H88.2V9.891A2.753,2.753,0,0,0,87.6,8.184,1.815,1.815,0,0,0,86.164,7.578ZM92.8,6.547v9.43q0,2.438-2.211,2.438a2.7,2.7,0,0,1-.883-.14V17.125a2.794,2.794,0,0,0,.656.063.982.982,0,0,0,.738-.262,1.3,1.3,0,0,0,.254-.911V6.547ZM91.211,4.3a.867.867,0,0,1,.215-.59.79.79,0,0,1,.629-.246.819.819,0,0,1,.641.242.854.854,0,0,1,.219.594.826.826,0,0,1-.219.586.834.834,0,0,1-.641.234.808.808,0,0,1-.633-.234A.843.843,0,0,1,91.211,4.3ZM94.75,10.7a4.993,4.993,0,0,1,.488-2.234A3.643,3.643,0,0,1,96.6,6.93a3.7,3.7,0,0,1,1.988-.539,3.565,3.565,0,0,1,2.793,1.2,4.6,4.6,0,0,1,1.066,3.18v.1a5.036,5.036,0,0,1-.473,2.215,3.589,3.589,0,0,1-1.352,1.527,3.743,3.743,0,0,1-2.02.547,3.556,3.556,0,0,1-2.785-1.2A4.575,4.575,0,0,1,94.75,10.8Zm1.453.172a3.616,3.616,0,0,0,.652,2.258,2.211,2.211,0,0,0,3.5-.012A3.955,3.955,0,0,0,101,10.7a3.61,3.61,0,0,0-.66-2.254,2.1,2.1,0,0,0-1.754-.863,2.075,2.075,0,0,0-1.727.852A3.925,3.925,0,0,0,96.2,10.867Zm12.141-3.023a4.331,4.331,0,0,0-.711-.055A1.9,1.9,0,0,0,105.7,9v6h-1.445V6.547h1.406l.023.977A2.251,2.251,0,0,1,107.7,6.391a1.477,1.477,0,0,1,.641.109ZM114.578,15a3.036,3.036,0,0,1-.2-.891,3.225,3.225,0,0,1-2.406,1.047,2.984,2.984,0,0,1-2.051-.707,2.288,2.288,0,0,1-.8-1.793,2.39,2.39,0,0,1,1-2.051,4.733,4.733,0,0,1,2.824-.73h1.406V9.211A1.623,1.623,0,0,0,113.9,8a1.821,1.821,0,0,0-1.336-.449,2.108,2.108,0,0,0-1.3.391,1.151,1.151,0,0,0-.523.945h-1.453a2,2,0,0,1,.449-1.223,3.066,3.066,0,0,1,1.219-.934,4.1,4.1,0,0,1,1.691-.344,3.342,3.342,0,0,1,2.289.73,2.635,2.635,0,0,1,.859,2.012v3.891a4.757,4.757,0,0,0,.3,1.852V15Zm-2.4-1.1a2.54,2.54,0,0,0,1.289-.352,2.127,2.127,0,0,0,.883-.914V10.9h-1.133q-2.656,0-2.656,1.555a1.316,1.316,0,0,0,.453,1.063A1.742,1.742,0,0,0,112.18,13.9Zm9.969-6.055a4.331,4.331,0,0,0-.711-.055A1.9,1.9,0,0,0,119.508,9v6h-1.445V6.547h1.406l.023.977a2.251,2.251,0,0,1,2.016-1.133,1.477,1.477,0,0,1,.641.109Zm.4,6.4a.905.905,0,0,1,.223-.625.848.848,0,0,1,.668-.25.874.874,0,0,1,.676.25.887.887,0,0,1,.23.625.839.839,0,0,1-.23.6.89.89,0,0,1-.676.242.8.8,0,0,1-.891-.844Z" transform="translate(1197 4422)" fill="#12263f"/>
    <path id="Trazado_710604" data-name="Trazado 710604" d="M13.428,17.738V24H9.766V6.227H16.7a8.022,8.022,0,0,1,3.522.732A5.4,5.4,0,0,1,22.559,9.04a5.8,5.8,0,0,1,.818,3.07,5.1,5.1,0,0,1-1.788,4.12,7.448,7.448,0,0,1-4.95,1.508Zm0-2.966H16.7a3.217,3.217,0,0,0,2.216-.684,2.486,2.486,0,0,0,.763-1.953,2.932,2.932,0,0,0-.769-2.112,2.873,2.873,0,0,0-2.124-.83H13.428ZM33.179,24a3.918,3.918,0,0,1-.354-1.184,4.269,4.269,0,0,1-3.333,1.428,4.69,4.69,0,0,1-3.217-1.123A3.612,3.612,0,0,1,25,20.289a3.733,3.733,0,0,1,1.556-3.223,7.68,7.68,0,0,1,4.5-1.135h1.624v-.757a2.177,2.177,0,0,0-.47-1.465,1.849,1.849,0,0,0-1.483-.549,2.1,2.1,0,0,0-1.4.427,1.451,1.451,0,0,0-.507,1.172H25.293A3.544,3.544,0,0,1,26,12.635,4.68,4.68,0,0,1,28,11.1a7.3,7.3,0,0,1,2.905-.555,5.764,5.764,0,0,1,3.876,1.227,4.292,4.292,0,0,1,1.434,3.448v5.725a6.314,6.314,0,0,0,.525,2.844V24Zm-2.917-2.454A3.038,3.038,0,0,0,31.7,21.2a2.285,2.285,0,0,0,.977-.934V17.994H31.36q-2.649,0-2.82,1.831l-.012.208a1.412,1.412,0,0,0,.464,1.086A1.8,1.8,0,0,0,30.261,21.546Zm15.82-1.2a1.137,1.137,0,0,0-.641-1.019,7.28,7.28,0,0,0-2.057-.665q-4.712-.989-4.712-4a3.629,3.629,0,0,1,1.459-2.936,5.884,5.884,0,0,1,3.815-1.178,6.333,6.333,0,0,1,4.022,1.184,3.732,3.732,0,0,1,1.508,3.076H45.947a1.707,1.707,0,0,0-.488-1.251,2.066,2.066,0,0,0-1.526-.494,2.111,2.111,0,0,0-1.379.4,1.272,1.272,0,0,0-.488,1.025,1.087,1.087,0,0,0,.555.946,5.714,5.714,0,0,0,1.874.623,15.3,15.3,0,0,1,2.222.592q2.8,1.025,2.8,3.552a3.445,3.445,0,0,1-1.55,2.924,6.688,6.688,0,0,1-4,1.117,6.985,6.985,0,0,1-2.948-.592,4.946,4.946,0,0,1-2.02-1.624,3.772,3.772,0,0,1-.732-2.228H41.6a1.842,1.842,0,0,0,.7,1.44,2.76,2.76,0,0,0,1.733.5,2.554,2.554,0,0,0,1.532-.385A1.2,1.2,0,0,0,46.082,20.35Zm5.151-3.076a7.833,7.833,0,0,1,.757-3.5,5.54,5.54,0,0,1,2.179-2.38,6.357,6.357,0,0,1,3.3-.842,6.014,6.014,0,0,1,4.364,1.636,6.565,6.565,0,0,1,1.886,4.443l.024.9a6.9,6.9,0,0,1-1.7,4.877,6.576,6.576,0,0,1-9.113.006,7.025,7.025,0,0,1-1.7-4.98Zm3.528.25a4.937,4.937,0,0,0,.708,2.879,2.543,2.543,0,0,0,4.028.012,5.4,5.4,0,0,0,.72-3.148,4.888,4.888,0,0,0-.72-2.861,2.341,2.341,0,0,0-2.026-1.015,2.3,2.3,0,0,0-2,1.009A5.493,5.493,0,0,0,54.761,17.524ZM73.071,20.35a1.137,1.137,0,0,0-.641-1.019,7.28,7.28,0,0,0-2.057-.665q-4.712-.989-4.712-4a3.629,3.629,0,0,1,1.459-2.936,5.884,5.884,0,0,1,3.815-1.178,6.333,6.333,0,0,1,4.022,1.184,3.732,3.732,0,0,1,1.508,3.076H72.937a1.707,1.707,0,0,0-.488-1.251,2.066,2.066,0,0,0-1.526-.494,2.111,2.111,0,0,0-1.379.4,1.272,1.272,0,0,0-.488,1.025,1.087,1.087,0,0,0,.555.946,5.714,5.714,0,0,0,1.874.623,15.3,15.3,0,0,1,2.222.592q2.8,1.025,2.8,3.552a3.445,3.445,0,0,1-1.55,2.924,6.688,6.688,0,0,1-4,1.117A6.985,6.985,0,0,1,68,23.652a4.946,4.946,0,0,1-2.02-1.624,3.772,3.772,0,0,1-.732-2.228h3.345a1.842,1.842,0,0,0,.7,1.44,2.76,2.76,0,0,0,1.733.5,2.554,2.554,0,0,0,1.532-.385A1.2,1.2,0,0,0,73.071,20.35Zm23.816-2.832A7.921,7.921,0,0,1,95.5,22.407a4.442,4.442,0,0,1-3.741,1.837,4.115,4.115,0,0,1-3.235-1.392v6.226H85V10.792h3.271l.122,1.294a4.146,4.146,0,0,1,3.345-1.538,4.472,4.472,0,0,1,3.8,1.807,8.136,8.136,0,0,1,1.355,4.98Zm-3.528-.256a5.2,5.2,0,0,0-.653-2.844,2.127,2.127,0,0,0-1.9-1,2.31,2.31,0,0,0-2.283,1.27v5.408A2.349,2.349,0,0,0,90.833,21.4Q93.359,21.4,93.359,17.262ZM106.726,24a3.918,3.918,0,0,1-.354-1.184,4.269,4.269,0,0,1-3.333,1.428,4.69,4.69,0,0,1-3.217-1.123,3.612,3.612,0,0,1-1.276-2.832,3.733,3.733,0,0,1,1.556-3.223,7.68,7.68,0,0,1,4.5-1.135h1.624v-.757a2.177,2.177,0,0,0-.47-1.465,1.849,1.849,0,0,0-1.483-.549,2.1,2.1,0,0,0-1.4.427,1.451,1.451,0,0,0-.507,1.172H98.84a3.544,3.544,0,0,1,.708-2.124,4.68,4.68,0,0,1,2-1.532,7.3,7.3,0,0,1,2.905-.555,5.764,5.764,0,0,1,3.876,1.227,4.292,4.292,0,0,1,1.434,3.448v5.725a6.314,6.314,0,0,0,.525,2.844V24Zm-2.917-2.454a3.038,3.038,0,0,0,1.44-.348,2.285,2.285,0,0,0,.977-.934V17.994h-1.318q-2.649,0-2.82,1.831l-.012.208a1.412,1.412,0,0,0,.464,1.086A1.8,1.8,0,0,0,103.809,21.546ZM119.9,14.1a9.584,9.584,0,0,0-1.27-.1A2.584,2.584,0,0,0,116,15.357V24h-3.528V10.792h3.333l.1,1.575a3.269,3.269,0,0,1,2.942-1.819,3.7,3.7,0,0,1,1.1.159Zm8.984,9.9a3.917,3.917,0,0,1-.354-1.184,4.269,4.269,0,0,1-3.333,1.428,4.69,4.69,0,0,1-3.217-1.123,3.612,3.612,0,0,1-1.276-2.832,3.733,3.733,0,0,1,1.556-3.223,7.68,7.68,0,0,1,4.5-1.135h1.624v-.757a2.177,2.177,0,0,0-.47-1.465,1.849,1.849,0,0,0-1.483-.549,2.1,2.1,0,0,0-1.4.427,1.451,1.451,0,0,0-.507,1.172H121a3.544,3.544,0,0,1,.708-2.124,4.68,4.68,0,0,1,2-1.532,7.3,7.3,0,0,1,2.905-.555,5.764,5.764,0,0,1,3.876,1.227,4.292,4.292,0,0,1,1.434,3.448v5.725a6.314,6.314,0,0,0,.525,2.844V24Zm-2.917-2.454a3.038,3.038,0,0,0,1.44-.348,2.285,2.285,0,0,0,.977-.934V17.994h-1.318q-2.649,0-2.82,1.831l-.012.208a1.412,1.412,0,0,0,.464,1.086A1.8,1.8,0,0,0,125.964,21.546Zm20.972,2.7a6.484,6.484,0,0,1-4.73-1.782,6.335,6.335,0,0,1-1.825-4.749v-.342a7.979,7.979,0,0,1,.769-3.558,5.644,5.644,0,0,1,2.179-2.417,6.116,6.116,0,0,1,3.217-.848,5.482,5.482,0,0,1,4.266,1.709,6.944,6.944,0,0,1,1.556,4.846v1.44h-8.411a3.277,3.277,0,0,0,1.031,2.075,3.118,3.118,0,0,0,2.179.781,3.808,3.808,0,0,0,3.186-1.477l1.733,1.941a5.3,5.3,0,0,1-2.148,1.752A7.049,7.049,0,0,1,146.936,24.244Zm-.4-10.852a2.2,2.2,0,0,0-1.7.711,3.683,3.683,0,0,0-.836,2.035H148.9v-.282a2.626,2.626,0,0,0-.635-1.821A2.274,2.274,0,0,0,146.533,13.392Zm14.99,6.958a1.137,1.137,0,0,0-.641-1.019,7.28,7.28,0,0,0-2.057-.665q-4.712-.989-4.712-4a3.629,3.629,0,0,1,1.459-2.936,5.884,5.884,0,0,1,3.815-1.178,6.333,6.333,0,0,1,4.022,1.184,3.732,3.732,0,0,1,1.508,3.076h-3.528a1.707,1.707,0,0,0-.488-1.251,2.066,2.066,0,0,0-1.526-.494,2.111,2.111,0,0,0-1.379.4,1.272,1.272,0,0,0-.488,1.025,1.087,1.087,0,0,0,.555.946,5.714,5.714,0,0,0,1.874.623,15.3,15.3,0,0,1,2.222.592q2.8,1.025,2.8,3.552a3.445,3.445,0,0,1-1.55,2.924,6.688,6.688,0,0,1-4,1.117,6.985,6.985,0,0,1-2.948-.592,4.946,4.946,0,0,1-2.02-1.624A3.772,3.772,0,0,1,153.7,19.8h3.345a1.842,1.842,0,0,0,.7,1.44,2.76,2.76,0,0,0,1.733.5A2.554,2.554,0,0,0,161,21.357,1.2,1.2,0,0,0,161.523,20.35Zm9.924-12.805v3.247h2.258V13.38h-2.258v6.592a1.574,1.574,0,0,0,.281,1.05,1.41,1.41,0,0,0,1.074.317,5.626,5.626,0,0,0,1.038-.085v2.673a7.263,7.263,0,0,1-2.136.317q-3.711,0-3.784-3.748V13.38h-1.929V10.792h1.929V7.545ZM183.325,24a3.917,3.917,0,0,1-.354-1.184,4.269,4.269,0,0,1-3.333,1.428,4.69,4.69,0,0,1-3.217-1.123,3.612,3.612,0,0,1-1.276-2.832,3.733,3.733,0,0,1,1.556-3.223,7.68,7.68,0,0,1,4.5-1.135h1.624v-.757a2.177,2.177,0,0,0-.47-1.465,1.849,1.849,0,0,0-1.483-.549,2.1,2.1,0,0,0-1.4.427,1.451,1.451,0,0,0-.507,1.172h-3.528a3.544,3.544,0,0,1,.708-2.124,4.68,4.68,0,0,1,2-1.532,7.3,7.3,0,0,1,2.905-.555,5.764,5.764,0,0,1,3.876,1.227,4.292,4.292,0,0,1,1.434,3.448v5.725a6.314,6.314,0,0,0,.525,2.844V24Zm-2.917-2.454a3.038,3.038,0,0,0,1.44-.348,2.285,2.285,0,0,0,.977-.934V17.994h-1.318q-2.649,0-2.82,1.831l-.012.208a1.412,1.412,0,0,0,.464,1.086A1.8,1.8,0,0,0,180.408,21.546Zm20.569-4.028a8,8,0,0,1-1.355,4.95,4.488,4.488,0,0,1-3.784,1.776,4.124,4.124,0,0,1-3.43-1.648l-.159,1.4h-3.174V5.25H192.6v6.726a4.018,4.018,0,0,1,3.21-1.428,4.525,4.525,0,0,1,3.79,1.776,8.009,8.009,0,0,1,1.373,5Zm-3.528-.256a5.254,5.254,0,0,0-.635-2.924,2.146,2.146,0,0,0-1.892-.922A2.327,2.327,0,0,0,192.6,14.8v5.212a2.359,2.359,0,0,0,2.344,1.392,2.178,2.178,0,0,0,2.246-1.685A8.69,8.69,0,0,0,197.449,17.262ZM206.873,24h-3.54V5.25h3.54Zm8.984.244a6.484,6.484,0,0,1-4.73-1.782,6.335,6.335,0,0,1-1.825-4.749v-.342a7.979,7.979,0,0,1,.769-3.558A5.644,5.644,0,0,1,212.25,11.4a6.116,6.116,0,0,1,3.217-.848,5.482,5.482,0,0,1,4.266,1.709,6.944,6.944,0,0,1,1.556,4.846v1.44h-8.411a3.277,3.277,0,0,0,1.031,2.075,3.118,3.118,0,0,0,2.179.781,3.808,3.808,0,0,0,3.186-1.477l1.733,1.941a5.3,5.3,0,0,1-2.148,1.752A7.049,7.049,0,0,1,215.857,24.244Zm-.4-10.852a2.2,2.2,0,0,0-1.7.711,3.683,3.683,0,0,0-.836,2.035h4.907v-.282a2.626,2.626,0,0,0-.635-1.821A2.274,2.274,0,0,0,215.454,13.392Zm13.33,8.008a2.314,2.314,0,0,0,1.587-.537,1.882,1.882,0,0,0,.635-1.428h3.308a4.525,4.525,0,0,1-.732,2.46,4.833,4.833,0,0,1-1.971,1.733,6.17,6.17,0,0,1-2.765.616,5.734,5.734,0,0,1-4.468-1.8,7.125,7.125,0,0,1-1.636-4.974v-.232a7.044,7.044,0,0,1,1.624-4.871,5.667,5.667,0,0,1,4.456-1.819,5.555,5.555,0,0,1,3.973,1.41,4.992,4.992,0,0,1,1.52,3.754h-3.308a2.424,2.424,0,0,0-.635-1.675,2.359,2.359,0,0,0-3.473.254,5.208,5.208,0,0,0-.629,2.916v.367a5.274,5.274,0,0,0,.623,2.934A2.151,2.151,0,0,0,228.784,21.4Zm13.623,2.844a6.484,6.484,0,0,1-4.73-1.782,6.335,6.335,0,0,1-1.825-4.749v-.342a7.979,7.979,0,0,1,.769-3.558A5.644,5.644,0,0,1,238.8,11.4a6.116,6.116,0,0,1,3.217-.848,5.482,5.482,0,0,1,4.266,1.709,6.944,6.944,0,0,1,1.556,4.846v1.44h-8.411a3.277,3.277,0,0,0,1.031,2.075,3.118,3.118,0,0,0,2.179.781,3.808,3.808,0,0,0,3.186-1.477l1.733,1.941a5.3,5.3,0,0,1-2.148,1.752A7.049,7.049,0,0,1,242.407,24.244ZM242,13.392a2.2,2.2,0,0,0-1.7.711,3.683,3.683,0,0,0-.836,2.035h4.907v-.282a2.626,2.626,0,0,0-.635-1.821A2.274,2.274,0,0,0,242,13.392Zm15.259.708a9.584,9.584,0,0,0-1.27-.1,2.584,2.584,0,0,0-2.625,1.355V24h-3.528V10.792h3.333l.1,1.575a3.269,3.269,0,0,1,2.942-1.819,3.7,3.7,0,0,1,1.1.159ZM273.1,22.657a4.424,4.424,0,0,1-3.613,1.587,4.172,4.172,0,0,1-3.241-1.221,5.211,5.211,0,0,1-1.141-3.577V10.792h3.528v8.543q0,2.065,1.88,2.065a2.547,2.547,0,0,0,2.466-1.247V10.792h3.54V24h-3.32Zm9.326-11.865.11,1.526a4.611,4.611,0,0,1,3.8-1.77,3.832,3.832,0,0,1,3.125,1.233,5.752,5.752,0,0,1,1.05,3.687V24h-3.528V15.553a2.289,2.289,0,0,0-.488-1.63,2.186,2.186,0,0,0-1.624-.507,2.427,2.427,0,0,0-2.234,1.27V24H279.1V10.792ZM41.193,47.518a7.921,7.921,0,0,1-1.385,4.889,4.442,4.442,0,0,1-3.741,1.837,4.115,4.115,0,0,1-3.235-1.392v6.226H29.3V40.792h3.271l.122,1.294a4.146,4.146,0,0,1,3.345-1.538,4.472,4.472,0,0,1,3.8,1.807,8.136,8.136,0,0,1,1.355,4.98Zm-3.528-.256a5.2,5.2,0,0,0-.653-2.844,2.127,2.127,0,0,0-1.9-1,2.31,2.31,0,0,0-2.283,1.27v5.408A2.349,2.349,0,0,0,35.138,51.4Q37.665,51.4,37.665,47.262ZM47.1,54h-3.54V35.25H47.1ZM57.66,54a3.918,3.918,0,0,1-.354-1.184,4.269,4.269,0,0,1-3.333,1.428,4.69,4.69,0,0,1-3.217-1.123,3.612,3.612,0,0,1-1.276-2.832,3.733,3.733,0,0,1,1.556-3.223,7.68,7.68,0,0,1,4.5-1.135h1.624v-.757a2.177,2.177,0,0,0-.47-1.465,1.849,1.849,0,0,0-1.483-.549,2.1,2.1,0,0,0-1.4.427,1.451,1.451,0,0,0-.507,1.172H49.774a3.544,3.544,0,0,1,.708-2.124,4.68,4.68,0,0,1,2-1.532,7.3,7.3,0,0,1,2.905-.555,5.764,5.764,0,0,1,3.876,1.227A4.292,4.292,0,0,1,60.7,45.223v5.725a6.314,6.314,0,0,0,.525,2.844V54Zm-2.917-2.454a3.038,3.038,0,0,0,1.44-.348,2.285,2.285,0,0,0,.977-.934V47.994H55.841q-2.649,0-2.82,1.831l-.012.208a1.412,1.412,0,0,0,.464,1.086A1.8,1.8,0,0,0,54.742,51.546ZM66.656,40.792l.11,1.526a4.611,4.611,0,0,1,3.8-1.77,3.832,3.832,0,0,1,3.125,1.233,5.752,5.752,0,0,1,1.05,3.687V54H71.21V45.553a2.289,2.289,0,0,0-.488-1.63,2.186,2.186,0,0,0-1.624-.507,2.427,2.427,0,0,0-2.234,1.27V54H63.336V40.792ZM83.087,47.3a7.96,7.96,0,0,1,1.385-4.919,4.5,4.5,0,0,1,3.79-1.831,4.045,4.045,0,0,1,3.186,1.44V35.25h3.54V54H91.8l-.171-1.4a4.151,4.151,0,0,1-3.394,1.648A4.483,4.483,0,0,1,84.5,52.407,8.216,8.216,0,0,1,83.087,47.3Zm3.528.263a5.214,5.214,0,0,0,.647,2.849,2.108,2.108,0,0,0,1.88.99,2.361,2.361,0,0,0,2.307-1.381V44.8a2.327,2.327,0,0,0-2.283-1.381Q86.615,43.417,86.615,47.561ZM103.8,54.244a6.484,6.484,0,0,1-4.73-1.782,6.335,6.335,0,0,1-1.825-4.749v-.342a7.979,7.979,0,0,1,.769-3.558A5.644,5.644,0,0,1,100.2,41.4a6.116,6.116,0,0,1,3.217-.848,5.482,5.482,0,0,1,4.266,1.709,6.944,6.944,0,0,1,1.556,4.846v1.44h-8.411a3.277,3.277,0,0,0,1.031,2.075,3.118,3.118,0,0,0,2.179.781,3.808,3.808,0,0,0,3.186-1.477l1.733,1.941a5.3,5.3,0,0,1-2.148,1.752A7.049,7.049,0,0,1,103.8,54.244Zm-.4-10.852a2.2,2.2,0,0,0-1.7.711,3.682,3.682,0,0,0-.836,2.035h4.907v-.282a2.626,2.626,0,0,0-.635-1.821A2.274,2.274,0,0,0,103.4,43.392Zm17.371-2.6.11,1.477a4.642,4.642,0,0,1,3.8-1.721,3.523,3.523,0,0,1,3.5,2.014,4.535,4.535,0,0,1,3.967-2.014,3.94,3.94,0,0,1,3.2,1.251,5.751,5.751,0,0,1,1.05,3.766V54h-3.54V45.577a2.515,2.515,0,0,0-.439-1.642,1.948,1.948,0,0,0-1.55-.519,2.2,2.2,0,0,0-2.2,1.514L128.68,54h-3.528V45.589a2.484,2.484,0,0,0-.452-1.66,1.966,1.966,0,0,0-1.538-.513,2.286,2.286,0,0,0-2.173,1.245V54h-3.528V40.792Zm24.414,13.452a6.484,6.484,0,0,1-4.73-1.782,6.335,6.335,0,0,1-1.825-4.749v-.342a7.979,7.979,0,0,1,.769-3.558,5.644,5.644,0,0,1,2.179-2.417,6.116,6.116,0,0,1,3.217-.848,5.482,5.482,0,0,1,4.266,1.709,6.944,6.944,0,0,1,1.556,4.846v1.44h-8.411a3.277,3.277,0,0,0,1.031,2.075,3.118,3.118,0,0,0,2.179.781,3.808,3.808,0,0,0,3.186-1.477l1.733,1.941a5.3,5.3,0,0,1-2.148,1.752A7.049,7.049,0,0,1,145.184,54.244Zm-.4-10.852a2.2,2.2,0,0,0-1.7.711,3.683,3.683,0,0,0-.836,2.035h4.907v-.282a2.626,2.626,0,0,0-.635-1.821A2.274,2.274,0,0,0,144.781,43.392Zm11.572-2.6V54.72a4.725,4.725,0,0,1-1.16,3.4,4.408,4.408,0,0,1-3.345,1.215,7.173,7.173,0,0,1-1.746-.208v-2.8a6.622,6.622,0,0,0,1.111.11q1.6,0,1.6-1.7V40.792Zm-3.821-3.418a1.737,1.737,0,0,1,.531-1.306,2.3,2.3,0,0,1,2.893,0,1.872,1.872,0,0,1-.012,2.625,2.263,2.263,0,0,1-2.869,0A1.732,1.732,0,0,1,152.533,37.374Zm6.03,9.9a7.833,7.833,0,0,1,.757-3.5,5.541,5.541,0,0,1,2.179-2.38,6.357,6.357,0,0,1,3.3-.842,6.014,6.014,0,0,1,4.364,1.636,6.565,6.565,0,0,1,1.886,4.443l.024.9a6.9,6.9,0,0,1-1.7,4.877,6.576,6.576,0,0,1-9.113.006,7.025,7.025,0,0,1-1.7-4.98Zm3.528.25A4.937,4.937,0,0,0,162.8,50.4a2.543,2.543,0,0,0,4.028.012,5.4,5.4,0,0,0,.72-3.148,4.888,4.888,0,0,0-.72-2.861,2.341,2.341,0,0,0-2.026-1.015,2.3,2.3,0,0,0-2,1.009A5.493,5.493,0,0,0,162.091,47.524ZM180.67,44.1a9.584,9.584,0,0,0-1.27-.1,2.584,2.584,0,0,0-2.625,1.355V54h-3.528V40.792h3.333l.1,1.575a3.269,3.269,0,0,1,2.942-1.819,3.7,3.7,0,0,1,1.1.159Zm8.984,9.9a3.917,3.917,0,0,1-.354-1.184,4.269,4.269,0,0,1-3.333,1.428,4.69,4.69,0,0,1-3.217-1.123,3.612,3.612,0,0,1-1.276-2.832,3.733,3.733,0,0,1,1.556-3.223,7.68,7.68,0,0,1,4.5-1.135h1.624v-.757a2.177,2.177,0,0,0-.47-1.465,1.849,1.849,0,0,0-1.483-.549,2.1,2.1,0,0,0-1.4.427,1.451,1.451,0,0,0-.507,1.172h-3.528a3.544,3.544,0,0,1,.708-2.124,4.68,4.68,0,0,1,2-1.532,7.3,7.3,0,0,1,2.905-.555,5.764,5.764,0,0,1,3.876,1.227,4.292,4.292,0,0,1,1.434,3.448v5.725a6.314,6.314,0,0,0,.525,2.844V54Zm-2.917-2.454a3.038,3.038,0,0,0,1.44-.348,2.285,2.285,0,0,0,.977-.934V47.994h-1.318q-2.649,0-2.82,1.831l-.012.208a1.412,1.412,0,0,0,.464,1.086A1.8,1.8,0,0,0,186.737,51.546Zm11.975-10.754.11,1.477a4.642,4.642,0,0,1,3.8-1.721,3.523,3.523,0,0,1,3.5,2.014,4.535,4.535,0,0,1,3.967-2.014,3.94,3.94,0,0,1,3.2,1.251,5.751,5.751,0,0,1,1.05,3.766V54H210.8V45.577a2.515,2.515,0,0,0-.439-1.642,1.948,1.948,0,0,0-1.55-.519,2.2,2.2,0,0,0-2.2,1.514l.012,9.07h-3.528V45.589a2.484,2.484,0,0,0-.452-1.66,1.966,1.966,0,0,0-1.538-.513,2.286,2.286,0,0,0-2.173,1.245V54H195.4V40.792ZM220.77,54h-3.54V40.792h3.54Zm-3.748-16.626a1.737,1.737,0,0,1,.531-1.306,2.288,2.288,0,0,1,2.887,0,1.864,1.864,0,0,1-.006,2.625,2.263,2.263,0,0,1-2.869,0A1.732,1.732,0,0,1,217.023,37.374Zm12.732,16.87a6.484,6.484,0,0,1-4.73-1.782,6.335,6.335,0,0,1-1.825-4.749v-.342a7.979,7.979,0,0,1,.769-3.558,5.644,5.644,0,0,1,2.179-2.417,6.116,6.116,0,0,1,3.217-.848,5.482,5.482,0,0,1,4.266,1.709,6.944,6.944,0,0,1,1.556,4.846v1.44h-8.411a3.277,3.277,0,0,0,1.031,2.075,3.118,3.118,0,0,0,2.179.781,3.808,3.808,0,0,0,3.186-1.477l1.733,1.941a5.3,5.3,0,0,1-2.148,1.752A7.049,7.049,0,0,1,229.755,54.244Zm-.4-10.852a2.2,2.2,0,0,0-1.7.711,3.683,3.683,0,0,0-.836,2.035h4.907v-.282a2.626,2.626,0,0,0-.635-1.821A2.274,2.274,0,0,0,229.352,43.392Zm11.084-2.6.11,1.526a4.611,4.611,0,0,1,3.8-1.77,3.832,3.832,0,0,1,3.125,1.233,5.752,5.752,0,0,1,1.05,3.687V54h-3.528V45.553a2.289,2.289,0,0,0-.488-1.63,2.186,2.186,0,0,0-1.624-.507,2.427,2.427,0,0,0-2.234,1.27V54h-3.528V40.792Zm14.978-3.247v3.247h2.258V43.38h-2.258v6.592a1.574,1.574,0,0,0,.281,1.05,1.41,1.41,0,0,0,1.074.317,5.626,5.626,0,0,0,1.038-.085v2.673a7.263,7.263,0,0,1-2.136.317q-3.711,0-3.784-3.748V43.38h-1.929V40.792h1.929V37.545Zm3.308,9.729a7.833,7.833,0,0,1,.757-3.5,5.54,5.54,0,0,1,2.179-2.38,6.357,6.357,0,0,1,3.3-.842,6.014,6.014,0,0,1,4.364,1.636,6.565,6.565,0,0,1,1.886,4.443l.024.9a6.9,6.9,0,0,1-1.7,4.877,6.576,6.576,0,0,1-9.113.006,7.025,7.025,0,0,1-1.7-4.98Zm3.528.25a4.937,4.937,0,0,0,.708,2.879,2.543,2.543,0,0,0,4.028.012,5.4,5.4,0,0,0,.72-3.148,4.888,4.888,0,0,0-.72-2.861,2.341,2.341,0,0,0-2.026-1.015,2.3,2.3,0,0,0-2,1.009A5.493,5.493,0,0,0,262.25,47.524Z" transform="translate(650 4389)" fill="#12263f"/>
  </g>
</svg>
