<svg xmlns="http://www.w3.org/2000/svg" width="732" height="206.959" viewBox="0 0 732 206.959">
  <g id="Grupo_1013394" data-name="Grupo 1013394" transform="translate(-434 -5996)">
    <path id="Trazado_115044" data-name="Trazado 115044" d="M223.448,271.431a9.416,9.416,0,0,0-9.183-9.183H180.592l-30.612-48.979H137.735l15.306,48.979H119.367L110.183,250H101l6.122,21.428L101,292.86h9.183l9.184-12.245H153.04l-15.306,48.979h12.245l30.612-48.979h33.673A9.416,9.416,0,0,0,223.448,271.431Z" transform="translate(444 5873.365)" fill="#b3009d"/>
    <path id="Trazado_115045" data-name="Trazado 115045" d="M386.573,250.416a18.241,18.241,0,0,0-.649-4.816h71.1v-8.56H380.707a17.949,17.949,0,0,0-9.293-4.494V228.5c0-.091.178-.117.176-.206a9.04,9.04,0,0,0-9.06-8.907H324.865v14.98a17.817,17.817,0,0,0-9.542,16.053c0,.069.05.137.05.205a29.793,29.793,0,0,1,3.428-.205Z" transform="translate(420.929 5872.707)" fill="#00cca7"/>
    <path id="Trazado_115046" data-name="Trazado 115046" d="M437.288,304.817v-.145a20.439,20.439,0,0,0,17.122-20.1v-.178a20.471,20.471,0,0,0-20.331-20.642H316.724a20.774,20.774,0,0,0-20.687,20.641v.178a20.438,20.438,0,0,0,17.121,20.1v.146a17.474,17.474,0,0,0,17.434,17.255h89.619a17.051,17.051,0,0,0,17.077-17.255ZM389.9,313.111a8.7,8.7,0,1,1,8.7-8.7A8.7,8.7,0,0,1,389.9,313.111Zm-38.125-8.7a8.7,8.7,0,1,1,8.7,8.7A8.7,8.7,0,0,1,351.776,304.413Zm-29.427,0a8.7,8.7,0,1,1,8.7,8.7A8.7,8.7,0,0,1,322.349,304.413Zm96.979,8.7a8.7,8.7,0,1,1,8.7-8.7A8.7,8.7,0,0,1,419.328,313.111Z" transform="translate(423.005 5867.931)" fill="#00cca7"/>
    <path id="Trazado_115047" data-name="Trazado 115047" d="M538.577,213.6H531.16V211.51A15.527,15.527,0,0,1,546.67,196h8.053v7.417H546.67a8.1,8.1,0,0,0-8.093,8.092Z" transform="translate(397.694 5875.224)" fill="#33a4ff"/>
    <path id="Trazado_115048" data-name="Trazado 115048" d="M561.589,219.786h-7.416a12.244,12.244,0,0,1,12.23-12.23h19.187v7.417H566.4A4.818,4.818,0,0,0,561.589,219.786Z" transform="translate(395.218 5873.98)" fill="#33a4ff"/>
    <path id="Trazado_115049" data-name="Trazado 115049" d="M531.16,252.379h26.716v76.266H531.16Z" transform="translate(397.694 5869.155)" fill="#33a4ff"/>
    <path id="Trazado_115050" data-name="Trazado 115050" d="M569.411,258.4h92.438v14.835H569.411Z" transform="translate(393.577 5868.507)" fill="#33a4ff"/>
    <path id="Trazado_115051" data-name="Trazado 115051" d="M531.16,228.3h26.716v14.069H531.16Z" transform="translate(397.694 5871.747)" fill="#33a4ff"/>
    <path id="Trazado_115052" data-name="Trazado 115052" d="M607.3,319.674h7.417v16.215H607.3Z" transform="translate(389.498 5861.911)" fill="#33a4ff"/>
    <path id="Trazado_115053" data-name="Trazado 115053" d="M569.411,331.977h26.395V308.345h22.252v23.632h43.791v-48.64H569.411Zm70.9-38.468h7.417v7.418H640.31Zm0,14.835h7.417v7.417H640.31ZM625.476,293.51h7.417v7.418h-7.417Zm0,14.835h7.417v7.417h-7.417ZM610.64,293.51h7.417v7.418H610.64Zm-14.834,0h7.417v7.418h-7.417Zm-14.834,0h7.417v7.418h-7.417Zm7.417,14.835v7.417h-7.417v-7.417Z" transform="translate(393.577 5865.823)" fill="#33a4ff"/>
    <g id="Grupo_81505" data-name="Grupo 81505" transform="translate(251)">
      <g id="Grupo_81504" data-name="Grupo 81504" transform="translate(180 5870)">
        <path id="Trazado_115281" data-name="Trazado 115281" d="M3,143.1H735" fill="none" stroke="#36cfb3" stroke-width="5"/>
        <circle id="Elipse_4774" data-name="Elipse 4774" cx="17" cy="17" r="17" transform="translate(118 126)" fill="#3c0061"/>
        <circle id="Elipse_4775" data-name="Elipse 4775" cx="17" cy="17" r="17" transform="translate(327 126)" fill="#3c0061"/>
        <circle id="Elipse_4776" data-name="Elipse 4776" cx="17" cy="17" r="17" transform="translate(525 126)" fill="#3c0061"/>
      </g>
      <text id="_1" data-name="1" transform="translate(310 6019)" fill="#fff" font-size="16" font-family="Roboto-Bold, Roboto" font-weight="700"><tspan x="0" y="0">1</tspan></text>
      <text id="_2" data-name="2" transform="translate(519 6019)" fill="#fff" font-size="16" font-family="Roboto-Bold, Roboto" font-weight="700"><tspan x="0" y="0">2</tspan></text>
      <text id="_3" data-name="3" transform="translate(718 6019)" fill="#fff" font-size="16" font-family="Roboto-Bold, Roboto" font-weight="700"><tspan x="0" y="0">3</tspan></text>
    </g>
  </g>
</svg>
