<svg xmlns="http://www.w3.org/2000/svg" width="1176" height="493" viewBox="0 0 1176 493">
  <g id="Grupo_1013404" data-name="Grupo 1013404" transform="translate(-212 -9438)">
    <g id="Grupo_1013403" data-name="Grupo 1013403">
      <path id="Trazado_710614" data-name="Trazado 710614" d="M36.279,17.738V24H32.617V6.227h6.934a8.022,8.022,0,0,1,3.522.732A5.4,5.4,0,0,1,45.41,9.04a5.8,5.8,0,0,1,.818,3.07,5.1,5.1,0,0,1-1.788,4.12,7.448,7.448,0,0,1-4.95,1.508Zm0-2.966h3.271a3.217,3.217,0,0,0,2.216-.684,2.486,2.486,0,0,0,.763-1.953,2.932,2.932,0,0,0-.769-2.112,2.873,2.873,0,0,0-2.124-.83H36.279ZM56.03,24a3.918,3.918,0,0,1-.354-1.184,4.269,4.269,0,0,1-3.333,1.428,4.69,4.69,0,0,1-3.217-1.123,3.612,3.612,0,0,1-1.276-2.832,3.733,3.733,0,0,1,1.556-3.223,7.68,7.68,0,0,1,4.5-1.135H55.53v-.757a2.177,2.177,0,0,0-.47-1.465,1.849,1.849,0,0,0-1.483-.549,2.1,2.1,0,0,0-1.4.427,1.451,1.451,0,0,0-.507,1.172H48.145a3.544,3.544,0,0,1,.708-2.124,4.68,4.68,0,0,1,2-1.532,7.3,7.3,0,0,1,2.905-.555,5.764,5.764,0,0,1,3.876,1.227,4.292,4.292,0,0,1,1.434,3.448v5.725a6.314,6.314,0,0,0,.525,2.844V24Zm-2.917-2.454a3.038,3.038,0,0,0,1.44-.348,2.285,2.285,0,0,0,.977-.934V17.994H54.211q-2.649,0-2.82,1.831l-.012.208a1.412,1.412,0,0,0,.464,1.086A1.8,1.8,0,0,0,53.113,21.546Zm15.82-1.2a1.137,1.137,0,0,0-.641-1.019,7.28,7.28,0,0,0-2.057-.665q-4.712-.989-4.712-4a3.629,3.629,0,0,1,1.459-2.936A5.884,5.884,0,0,1,66.8,10.548a6.333,6.333,0,0,1,4.022,1.184,3.732,3.732,0,0,1,1.508,3.076H68.8a1.707,1.707,0,0,0-.488-1.251,2.066,2.066,0,0,0-1.526-.494,2.111,2.111,0,0,0-1.379.4,1.272,1.272,0,0,0-.488,1.025,1.087,1.087,0,0,0,.555.946,5.714,5.714,0,0,0,1.874.623,15.3,15.3,0,0,1,2.222.592q2.8,1.025,2.8,3.552a3.445,3.445,0,0,1-1.55,2.924,6.688,6.688,0,0,1-4,1.117,6.985,6.985,0,0,1-2.948-.592,4.946,4.946,0,0,1-2.02-1.624,3.772,3.772,0,0,1-.732-2.228h3.345a1.842,1.842,0,0,0,.7,1.44,2.76,2.76,0,0,0,1.733.5,2.554,2.554,0,0,0,1.532-.385A1.2,1.2,0,0,0,68.933,20.35Zm5.151-3.076a7.833,7.833,0,0,1,.757-3.5,5.54,5.54,0,0,1,2.179-2.38,6.357,6.357,0,0,1,3.3-.842,6.014,6.014,0,0,1,4.364,1.636,6.565,6.565,0,0,1,1.886,4.443l.024.9a6.9,6.9,0,0,1-1.7,4.877,6.576,6.576,0,0,1-9.113.006,7.025,7.025,0,0,1-1.7-4.98Zm3.528.25A4.937,4.937,0,0,0,78.32,20.4a2.543,2.543,0,0,0,4.028.012,5.4,5.4,0,0,0,.72-3.148,4.888,4.888,0,0,0-.72-2.861,2.341,2.341,0,0,0-2.026-1.015,2.3,2.3,0,0,0-2,1.009A5.493,5.493,0,0,0,77.612,17.524ZM95.923,20.35a1.137,1.137,0,0,0-.641-1.019,7.28,7.28,0,0,0-2.057-.665q-4.712-.989-4.712-4a3.629,3.629,0,0,1,1.459-2.936,5.884,5.884,0,0,1,3.815-1.178,6.333,6.333,0,0,1,4.022,1.184,3.732,3.732,0,0,1,1.508,3.076H95.789a1.707,1.707,0,0,0-.488-1.251,2.066,2.066,0,0,0-1.526-.494,2.111,2.111,0,0,0-1.379.4,1.272,1.272,0,0,0-.488,1.025,1.087,1.087,0,0,0,.555.946,5.714,5.714,0,0,0,1.874.623,15.3,15.3,0,0,1,2.222.592q2.8,1.025,2.8,3.552a3.445,3.445,0,0,1-1.55,2.924,6.688,6.688,0,0,1-4,1.117,6.985,6.985,0,0,1-2.948-.592,4.946,4.946,0,0,1-2.02-1.624A3.772,3.772,0,0,1,88.1,19.8h3.345a1.842,1.842,0,0,0,.7,1.44,2.76,2.76,0,0,0,1.733.5,2.554,2.554,0,0,0,1.532-.385A1.2,1.2,0,0,0,95.923,20.35Zm23.816-2.832a7.921,7.921,0,0,1-1.385,4.889,4.442,4.442,0,0,1-3.741,1.837,4.115,4.115,0,0,1-3.235-1.392v6.226h-3.528V10.792h3.271l.122,1.294a4.146,4.146,0,0,1,3.345-1.538,4.472,4.472,0,0,1,3.8,1.807,8.136,8.136,0,0,1,1.355,4.98Zm-3.528-.256a5.2,5.2,0,0,0-.653-2.844,2.127,2.127,0,0,0-1.9-1,2.31,2.31,0,0,0-2.283,1.27v5.408a2.349,2.349,0,0,0,2.307,1.306Q116.211,21.4,116.211,17.262ZM129.578,24a3.917,3.917,0,0,1-.354-1.184,4.269,4.269,0,0,1-3.333,1.428,4.69,4.69,0,0,1-3.217-1.123,3.612,3.612,0,0,1-1.276-2.832,3.733,3.733,0,0,1,1.556-3.223,7.68,7.68,0,0,1,4.5-1.135h1.624v-.757a2.177,2.177,0,0,0-.47-1.465,1.849,1.849,0,0,0-1.483-.549,2.1,2.1,0,0,0-1.4.427,1.451,1.451,0,0,0-.507,1.172h-3.528a3.544,3.544,0,0,1,.708-2.124,4.68,4.68,0,0,1,2-1.532,7.3,7.3,0,0,1,2.905-.555,5.764,5.764,0,0,1,3.876,1.227,4.292,4.292,0,0,1,1.434,3.448v5.725a6.314,6.314,0,0,0,.525,2.844V24Zm-2.917-2.454a3.038,3.038,0,0,0,1.44-.348,2.285,2.285,0,0,0,.977-.934V17.994h-1.318q-2.649,0-2.82,1.831l-.012.208a1.412,1.412,0,0,0,.464,1.086A1.8,1.8,0,0,0,126.66,21.546ZM142.749,14.1a9.585,9.585,0,0,0-1.27-.1,2.584,2.584,0,0,0-2.625,1.355V24h-3.528V10.792h3.333l.1,1.575a3.269,3.269,0,0,1,2.942-1.819,3.7,3.7,0,0,1,1.1.159Zm8.984,9.9a3.917,3.917,0,0,1-.354-1.184,4.269,4.269,0,0,1-3.333,1.428,4.69,4.69,0,0,1-3.217-1.123,3.612,3.612,0,0,1-1.276-2.832,3.733,3.733,0,0,1,1.556-3.223,7.68,7.68,0,0,1,4.5-1.135h1.624v-.757a2.177,2.177,0,0,0-.47-1.465,1.849,1.849,0,0,0-1.483-.549,2.1,2.1,0,0,0-1.4.427,1.451,1.451,0,0,0-.507,1.172h-3.528a3.544,3.544,0,0,1,.708-2.124,4.68,4.68,0,0,1,2-1.532,7.3,7.3,0,0,1,2.905-.555,5.764,5.764,0,0,1,3.876,1.227,4.292,4.292,0,0,1,1.434,3.448v5.725a6.314,6.314,0,0,0,.525,2.844V24Zm-2.917-2.454a3.038,3.038,0,0,0,1.44-.348,2.285,2.285,0,0,0,.977-.934V17.994h-1.318q-2.649,0-2.82,1.831l-.012.208a1.412,1.412,0,0,0,.464,1.086A1.8,1.8,0,0,0,148.816,21.546ZM175.6,17.518a7.921,7.921,0,0,1-1.385,4.889,4.442,4.442,0,0,1-3.741,1.837,4.115,4.115,0,0,1-3.235-1.392v6.226h-3.528V10.792h3.271l.122,1.294a4.146,4.146,0,0,1,3.345-1.538,4.472,4.472,0,0,1,3.8,1.807,8.136,8.136,0,0,1,1.355,4.98Zm-3.528-.256a5.2,5.2,0,0,0-.653-2.844,2.127,2.127,0,0,0-1.9-1,2.31,2.31,0,0,0-2.283,1.27v5.408a2.349,2.349,0,0,0,2.307,1.306Q172.07,21.4,172.07,17.262ZM185.205,14.1a9.585,9.585,0,0,0-1.27-.1,2.584,2.584,0,0,0-2.625,1.355V24h-3.528V10.792h3.333l.1,1.575a3.269,3.269,0,0,1,2.942-1.819,3.7,3.7,0,0,1,1.1.159Zm.708,3.174a7.833,7.833,0,0,1,.757-3.5,5.541,5.541,0,0,1,2.179-2.38,6.357,6.357,0,0,1,3.3-.842,6.014,6.014,0,0,1,4.364,1.636,6.565,6.565,0,0,1,1.886,4.443l.024.9a6.9,6.9,0,0,1-1.7,4.877,6.576,6.576,0,0,1-9.113.006,7.025,7.025,0,0,1-1.7-4.98Zm3.528.25a4.937,4.937,0,0,0,.708,2.879,2.543,2.543,0,0,0,4.028.012,5.4,5.4,0,0,0,.72-3.148,4.888,4.888,0,0,0-.72-2.861,2.341,2.341,0,0,0-2.026-1.015,2.3,2.3,0,0,0-2,1.009A5.493,5.493,0,0,0,189.441,17.524Zm15.906,1.483,2.441-8.215h3.784l-5.31,15.259-.293.7a4.026,4.026,0,0,1-3.906,2.588A5.551,5.551,0,0,1,200.5,29.1V26.429l.537.012a2.9,2.9,0,0,0,1.5-.305,2,2,0,0,0,.775-1.013l.415-1.086L199.1,10.792h3.8Zm13.538,5.237a6.484,6.484,0,0,1-4.73-1.782,6.335,6.335,0,0,1-1.825-4.749v-.342a7.979,7.979,0,0,1,.769-3.558,5.644,5.644,0,0,1,2.179-2.417,6.116,6.116,0,0,1,3.217-.848,5.482,5.482,0,0,1,4.266,1.709,6.944,6.944,0,0,1,1.556,4.846v1.44h-8.411a3.277,3.277,0,0,0,1.031,2.075,3.118,3.118,0,0,0,2.179.781,3.808,3.808,0,0,0,3.186-1.477l1.733,1.941a5.3,5.3,0,0,1-2.148,1.752A7.049,7.049,0,0,1,218.884,24.244Zm-.4-10.852a2.2,2.2,0,0,0-1.7.711,3.683,3.683,0,0,0-.836,2.035h4.907v-.282a2.626,2.626,0,0,0-.635-1.821A2.274,2.274,0,0,0,218.481,13.392Zm13.33,8.008a2.314,2.314,0,0,0,1.587-.537,1.882,1.882,0,0,0,.635-1.428h3.308a4.525,4.525,0,0,1-.732,2.46,4.833,4.833,0,0,1-1.971,1.733,6.17,6.17,0,0,1-2.765.616,5.734,5.734,0,0,1-4.468-1.8,7.125,7.125,0,0,1-1.636-4.974v-.232a7.044,7.044,0,0,1,1.624-4.871,5.667,5.667,0,0,1,4.456-1.819,5.555,5.555,0,0,1,3.973,1.41,4.992,4.992,0,0,1,1.52,3.754h-3.308a2.424,2.424,0,0,0-.635-1.675,2.359,2.359,0,0,0-3.473.254,5.208,5.208,0,0,0-.629,2.916v.367a5.274,5.274,0,0,0,.623,2.934A2.151,2.151,0,0,0,231.812,21.4ZM243.579,7.545v3.247h2.258V13.38h-2.258v6.592a1.574,1.574,0,0,0,.281,1.05,1.41,1.41,0,0,0,1.074.317,5.626,5.626,0,0,0,1.038-.085v2.673a7.263,7.263,0,0,1-2.136.317q-3.711,0-3.784-3.748V13.38h-1.929V10.792h1.929V7.545ZM255.457,24a3.917,3.917,0,0,1-.354-1.184,4.269,4.269,0,0,1-3.333,1.428,4.69,4.69,0,0,1-3.217-1.123,3.612,3.612,0,0,1-1.276-2.832,3.733,3.733,0,0,1,1.556-3.223,7.68,7.68,0,0,1,4.5-1.135h1.624v-.757a2.177,2.177,0,0,0-.47-1.465A1.849,1.849,0,0,0,253,13.16a2.1,2.1,0,0,0-1.4.427,1.451,1.451,0,0,0-.507,1.172h-3.528a3.544,3.544,0,0,1,.708-2.124,4.68,4.68,0,0,1,2-1.532,7.3,7.3,0,0,1,2.905-.555,5.764,5.764,0,0,1,3.876,1.227,4.292,4.292,0,0,1,1.434,3.448v5.725a6.315,6.315,0,0,0,.525,2.844V24Zm-2.917-2.454a3.038,3.038,0,0,0,1.44-.348,2.285,2.285,0,0,0,.977-.934V17.994h-1.318q-2.649,0-2.82,1.831l-.012.208a1.412,1.412,0,0,0,.464,1.086A1.8,1.8,0,0,0,252.539,21.546ZM268.628,14.1a9.584,9.584,0,0,0-1.27-.1,2.584,2.584,0,0,0-2.625,1.355V24h-3.528V10.792h3.333l.1,1.575a3.269,3.269,0,0,1,2.942-1.819,3.7,3.7,0,0,1,1.1.159ZM14.453,51.4a2.314,2.314,0,0,0,1.587-.537,1.882,1.882,0,0,0,.635-1.428h3.308a4.525,4.525,0,0,1-.732,2.46,4.833,4.833,0,0,1-1.971,1.733,6.17,6.17,0,0,1-2.765.616,5.734,5.734,0,0,1-4.468-1.8,7.125,7.125,0,0,1-1.636-4.974v-.232a7.044,7.044,0,0,1,1.624-4.871,5.667,5.667,0,0,1,4.456-1.819,5.555,5.555,0,0,1,3.973,1.41,4.992,4.992,0,0,1,1.52,3.754H16.675a2.424,2.424,0,0,0-.635-1.675,2.116,2.116,0,0,0-1.611-.644,2.125,2.125,0,0,0-1.862.9,5.208,5.208,0,0,0-.629,2.916v.367a5.274,5.274,0,0,0,.623,2.934A2.151,2.151,0,0,0,14.453,51.4Zm6.995-4.126a7.833,7.833,0,0,1,.757-3.5,5.54,5.54,0,0,1,2.179-2.38,6.357,6.357,0,0,1,3.3-.842,6.014,6.014,0,0,1,4.364,1.636,6.565,6.565,0,0,1,1.886,4.443l.024.9a6.9,6.9,0,0,1-1.7,4.877,5.9,5.9,0,0,1-4.553,1.837,5.927,5.927,0,0,1-4.559-1.831,7.025,7.025,0,0,1-1.7-4.98Zm3.528.25a4.937,4.937,0,0,0,.708,2.879,2.543,2.543,0,0,0,4.028.012,5.4,5.4,0,0,0,.72-3.148,4.888,4.888,0,0,0-.72-2.861,2.341,2.341,0,0,0-2.026-1.015,2.3,2.3,0,0,0-2,1.009A5.493,5.493,0,0,0,24.976,47.524ZM43.286,50.35a1.137,1.137,0,0,0-.641-1.019,7.28,7.28,0,0,0-2.057-.665q-4.712-.989-4.712-4a3.629,3.629,0,0,1,1.459-2.936,5.884,5.884,0,0,1,3.815-1.178,6.333,6.333,0,0,1,4.022,1.184,3.732,3.732,0,0,1,1.508,3.076H43.152a1.707,1.707,0,0,0-.488-1.251,2.066,2.066,0,0,0-1.526-.494,2.111,2.111,0,0,0-1.379.4,1.272,1.272,0,0,0-.488,1.025,1.087,1.087,0,0,0,.555.946,5.714,5.714,0,0,0,1.874.623,15.3,15.3,0,0,1,2.222.592q2.8,1.025,2.8,3.552a3.445,3.445,0,0,1-1.55,2.924,6.688,6.688,0,0,1-4,1.117,6.985,6.985,0,0,1-2.948-.592,4.946,4.946,0,0,1-2.02-1.624,3.772,3.772,0,0,1-.732-2.228h3.345a1.842,1.842,0,0,0,.7,1.44,2.76,2.76,0,0,0,1.733.5,2.554,2.554,0,0,0,1.532-.385A1.2,1.2,0,0,0,43.286,50.35ZM53.21,37.545v3.247h2.258V43.38H53.21v6.592a1.574,1.574,0,0,0,.281,1.05,1.41,1.41,0,0,0,1.074.317,5.626,5.626,0,0,0,1.038-.085v2.673a7.262,7.262,0,0,1-2.136.317q-3.711,0-3.784-3.748V43.38H47.754V40.792h1.929V37.545Zm3.308,9.729a7.833,7.833,0,0,1,.757-3.5,5.54,5.54,0,0,1,2.179-2.38,6.357,6.357,0,0,1,3.3-.842,6.014,6.014,0,0,1,4.364,1.636,6.565,6.565,0,0,1,1.886,4.443l.024.9a6.9,6.9,0,0,1-1.7,4.877,6.576,6.576,0,0,1-9.113.006,7.025,7.025,0,0,1-1.7-4.98Zm3.528.25a4.937,4.937,0,0,0,.708,2.879,2.543,2.543,0,0,0,4.028.012,5.4,5.4,0,0,0,.72-3.148,4.888,4.888,0,0,0-.72-2.861,2.341,2.341,0,0,0-2.026-1.015,2.3,2.3,0,0,0-2,1.009A5.493,5.493,0,0,0,60.046,47.524ZM78.357,50.35a1.137,1.137,0,0,0-.641-1.019,7.28,7.28,0,0,0-2.057-.665q-4.712-.989-4.712-4a3.629,3.629,0,0,1,1.459-2.936,5.884,5.884,0,0,1,3.815-1.178,6.333,6.333,0,0,1,4.022,1.184,3.732,3.732,0,0,1,1.508,3.076H78.223a1.707,1.707,0,0,0-.488-1.251,2.066,2.066,0,0,0-1.526-.494,2.111,2.111,0,0,0-1.379.4,1.272,1.272,0,0,0-.488,1.025,1.087,1.087,0,0,0,.555.946,5.714,5.714,0,0,0,1.874.623,15.3,15.3,0,0,1,2.222.592q2.8,1.025,2.8,3.552a3.445,3.445,0,0,1-1.55,2.924,6.688,6.688,0,0,1-4,1.117,6.985,6.985,0,0,1-2.948-.592,4.946,4.946,0,0,1-2.02-1.624,3.772,3.772,0,0,1-.732-2.228h3.345a1.842,1.842,0,0,0,.7,1.44,2.76,2.76,0,0,0,1.733.5,2.554,2.554,0,0,0,1.532-.385A1.2,1.2,0,0,0,78.357,50.35ZM89.734,47.3a7.96,7.96,0,0,1,1.385-4.919,4.5,4.5,0,0,1,3.79-1.831,4.045,4.045,0,0,1,3.186,1.44V35.25h3.54V54H98.45l-.171-1.4a4.151,4.151,0,0,1-3.394,1.648,4.483,4.483,0,0,1-3.741-1.837A8.216,8.216,0,0,1,89.734,47.3Zm3.528.263a5.214,5.214,0,0,0,.647,2.849,2.108,2.108,0,0,0,1.88.99A2.361,2.361,0,0,0,98.1,50.018V44.8a2.327,2.327,0,0,0-2.283-1.381Q93.262,43.417,93.262,47.561Zm17.188,6.683a6.484,6.484,0,0,1-4.73-1.782,6.335,6.335,0,0,1-1.825-4.749v-.342a7.979,7.979,0,0,1,.769-3.558,5.644,5.644,0,0,1,2.179-2.417,6.116,6.116,0,0,1,3.217-.848,5.482,5.482,0,0,1,4.266,1.709,6.944,6.944,0,0,1,1.556,4.846v1.44h-8.411a3.277,3.277,0,0,0,1.031,2.075,3.118,3.118,0,0,0,2.179.781,3.808,3.808,0,0,0,3.186-1.477l1.733,1.941a5.3,5.3,0,0,1-2.148,1.752A7.049,7.049,0,0,1,110.449,54.244Zm-.4-10.852a2.2,2.2,0,0,0-1.7.711,3.682,3.682,0,0,0-.836,2.035h4.907v-.282a2.626,2.626,0,0,0-.635-1.821A2.274,2.274,0,0,0,110.046,43.392Zm17.371-2.6.11,1.477a4.642,4.642,0,0,1,3.8-1.721,3.523,3.523,0,0,1,3.5,2.014,4.535,4.535,0,0,1,3.967-2.014,3.94,3.94,0,0,1,3.2,1.251,5.751,5.751,0,0,1,1.05,3.766V54H139.5V45.577a2.515,2.515,0,0,0-.439-1.642,1.948,1.948,0,0,0-1.55-.519,2.2,2.2,0,0,0-2.2,1.514l.012,9.07H131.8V45.589a2.484,2.484,0,0,0-.452-1.66,1.966,1.966,0,0,0-1.538-.513,2.286,2.286,0,0,0-2.173,1.245V54h-3.528V40.792ZM153.406,54a3.917,3.917,0,0,1-.354-1.184,4.269,4.269,0,0,1-3.333,1.428,4.69,4.69,0,0,1-3.217-1.123,3.612,3.612,0,0,1-1.276-2.832,3.733,3.733,0,0,1,1.556-3.223,7.68,7.68,0,0,1,4.5-1.135h1.624v-.757a2.177,2.177,0,0,0-.47-1.465,1.849,1.849,0,0,0-1.483-.549,2.1,2.1,0,0,0-1.4.427,1.451,1.451,0,0,0-.507,1.172H145.52a3.544,3.544,0,0,1,.708-2.124,4.68,4.68,0,0,1,2-1.532,7.3,7.3,0,0,1,2.905-.555,5.764,5.764,0,0,1,3.876,1.227,4.292,4.292,0,0,1,1.434,3.448v5.725a6.314,6.314,0,0,0,.525,2.844V54Zm-2.917-2.454a3.038,3.038,0,0,0,1.44-.348,2.285,2.285,0,0,0,.977-.934V47.994h-1.318q-2.649,0-2.82,1.831l-.012.208a1.412,1.412,0,0,0,.464,1.086A1.8,1.8,0,0,0,150.488,51.546ZM162.4,40.792l.11,1.526a4.611,4.611,0,0,1,3.8-1.77,3.832,3.832,0,0,1,3.125,1.233,5.752,5.752,0,0,1,1.05,3.687V54h-3.528V45.553a2.289,2.289,0,0,0-.488-1.63,2.186,2.186,0,0,0-1.624-.507,2.427,2.427,0,0,0-2.234,1.27V54h-3.528V40.792Zm14.978-3.247v3.247h2.258V43.38H177.38v6.592a1.574,1.574,0,0,0,.281,1.05,1.41,1.41,0,0,0,1.074.317,5.626,5.626,0,0,0,1.038-.085v2.673a7.262,7.262,0,0,1-2.136.317q-3.711,0-3.784-3.748V43.38h-1.929V40.792h1.929V37.545Zm10.3,16.7a6.484,6.484,0,0,1-4.73-1.782,6.335,6.335,0,0,1-1.825-4.749v-.342a7.979,7.979,0,0,1,.769-3.558,5.644,5.644,0,0,1,2.179-2.417,6.116,6.116,0,0,1,3.217-.848,5.482,5.482,0,0,1,4.266,1.709,6.944,6.944,0,0,1,1.556,4.846v1.44H184.7a3.277,3.277,0,0,0,1.031,2.075,3.118,3.118,0,0,0,2.179.781,3.808,3.808,0,0,0,3.186-1.477l1.733,1.941a5.3,5.3,0,0,1-2.148,1.752A7.049,7.049,0,0,1,187.683,54.244Zm-.4-10.852a2.2,2.2,0,0,0-1.7.711,3.683,3.683,0,0,0-.836,2.035h4.907v-.282a2.626,2.626,0,0,0-.635-1.821A2.274,2.274,0,0,0,187.28,43.392Zm11.084-2.6.11,1.526a4.611,4.611,0,0,1,3.8-1.77,3.832,3.832,0,0,1,3.125,1.233,5.752,5.752,0,0,1,1.05,3.687V54h-3.528V45.553a2.289,2.289,0,0,0-.488-1.63,2.186,2.186,0,0,0-1.624-.507,2.427,2.427,0,0,0-2.234,1.27V54h-3.528V40.792ZM212.842,54H209.3V40.792h3.54Zm-3.748-16.626a1.737,1.737,0,0,1,.531-1.306,2.288,2.288,0,0,1,2.887,0,1.864,1.864,0,0,1-.006,2.625,2.263,2.263,0,0,1-2.869,0A1.732,1.732,0,0,1,209.094,37.374Zm9.961,3.418.11,1.477a4.642,4.642,0,0,1,3.8-1.721,3.523,3.523,0,0,1,3.5,2.014,4.535,4.535,0,0,1,3.967-2.014,3.94,3.94,0,0,1,3.2,1.251,5.751,5.751,0,0,1,1.05,3.766V54h-3.54V45.577a2.515,2.515,0,0,0-.439-1.642,1.948,1.948,0,0,0-1.55-.519,2.2,2.2,0,0,0-2.2,1.514l.012,9.07h-3.528V45.589a2.484,2.484,0,0,0-.452-1.66,1.966,1.966,0,0,0-1.538-.513,2.286,2.286,0,0,0-2.173,1.245V54h-3.528V40.792ZM241.113,54h-3.54V40.792h3.54Zm-3.748-16.626a1.737,1.737,0,0,1,.531-1.306,2.288,2.288,0,0,1,2.887,0,1.864,1.864,0,0,1-.006,2.625,2.263,2.263,0,0,1-2.869,0A1.732,1.732,0,0,1,237.366,37.374ZM250.1,54.244a6.484,6.484,0,0,1-4.73-1.782,6.335,6.335,0,0,1-1.825-4.749v-.342a7.979,7.979,0,0,1,.769-3.558A5.644,5.644,0,0,1,246.49,41.4a6.116,6.116,0,0,1,3.217-.848,5.482,5.482,0,0,1,4.266,1.709A6.944,6.944,0,0,1,255.53,47.1v1.44h-8.411a3.277,3.277,0,0,0,1.031,2.075,3.118,3.118,0,0,0,2.179.781,3.808,3.808,0,0,0,3.186-1.477l1.733,1.941a5.3,5.3,0,0,1-2.148,1.752A7.049,7.049,0,0,1,250.1,54.244Zm-.4-10.852a2.2,2.2,0,0,0-1.7.711,3.683,3.683,0,0,0-.836,2.035h4.907v-.282a2.626,2.626,0,0,0-.635-1.821A2.274,2.274,0,0,0,249.695,43.392Zm11.084-2.6.11,1.526a4.611,4.611,0,0,1,3.8-1.77,3.832,3.832,0,0,1,3.125,1.233,5.752,5.752,0,0,1,1.05,3.687V54h-3.528V45.553a2.289,2.289,0,0,0-.488-1.63,2.186,2.186,0,0,0-1.624-.507,2.427,2.427,0,0,0-2.234,1.27V54h-3.528V40.792Zm14.978-3.247v3.247h2.258V43.38h-2.258v6.592a1.574,1.574,0,0,0,.281,1.05,1.41,1.41,0,0,0,1.074.317,5.626,5.626,0,0,0,1.038-.085v2.673a7.263,7.263,0,0,1-2.136.317q-3.711,0-3.784-3.748V43.38H270.3V40.792h1.929V37.545Zm3.308,9.729a7.833,7.833,0,0,1,.757-3.5A5.54,5.54,0,0,1,282,41.39a6.357,6.357,0,0,1,3.3-.842,6.014,6.014,0,0,1,4.364,1.636,6.565,6.565,0,0,1,1.886,4.443l.024.9a6.9,6.9,0,0,1-1.7,4.877,6.576,6.576,0,0,1-9.113.006,7.025,7.025,0,0,1-1.7-4.98Zm3.528.25A4.937,4.937,0,0,0,283.3,50.4a2.543,2.543,0,0,0,4.028.012,5.4,5.4,0,0,0,.72-3.148,4.888,4.888,0,0,0-.72-2.861,2.341,2.341,0,0,0-2.026-1.015,2.3,2.3,0,0,0-2,1.009A5.493,5.493,0,0,0,282.593,47.524Z" transform="translate(650 9520)" fill="#12263f"/>
      <g id="Group_7_3_" data-name="Group 7 (3)" transform="translate(212 9438.036)">
        <rect id="Rectángulo_34203" data-name="Rectángulo 34203" width="206" height="71" rx="4" transform="translate(340 421.964)" fill="rgba(102,187,255,0.67)"/>
        <rect id="Rectángulo_34204" data-name="Rectángulo 34204" width="204" height="71" rx="4" transform="translate(642 421.964)" fill="rgba(102,187,255,0.67)"/>
        <rect id="Rectángulo_34205" data-name="Rectángulo 34205" width="240" height="71" rx="4" transform="translate(128 307.964)" fill="rgba(102,187,255,0.67)"/>
        <rect id="Rectángulo_34206" data-name="Rectángulo 34206" width="240" height="71" rx="4" transform="translate(0 116.964)" fill="rgba(102,187,255,0.67)"/>
        <rect id="Rectángulo_34207" data-name="Rectángulo 34207" width="240" height="71" rx="4" transform="translate(936 116.964)" fill="rgba(102,187,255,0.67)"/>
        <rect id="Rectángulo_34208" data-name="Rectángulo 34208" width="240" height="71" rx="4" transform="translate(816 307.964)" fill="rgba(102,187,255,0.67)"/>
        <path id="Trazado_115286" data-name="Trazado 115286" d="M101.74,387.1H100.5v1.24h1.24Zm23.966,0-12.4-7.157V394.26ZM100.5,240V387.1h2.479V240Zm1.24,148.343h12.81v-2.479H101.74Z" transform="translate(-17.445 -41.659)"/>
        <path id="Trazado_115287" data-name="Trazado 115287" d="M324.74,535.725H323.5v1.24h1.24Zm57.85,0-12.4-7.157v14.314ZM323.5,463v72.725h2.479V463Zm1.24,73.965h46.693v-2.479H324.74Z" transform="translate(-56.152 -80.366)"/>
        <path id="Trazado_115288" data-name="Trazado 115288" d="M1092.891,540.684v1.24h1.24v-1.24Zm0-77.684-7.157,12.4h14.314ZM1040,541.923h52.891v-2.479H1040Zm54.131-1.24V474.157h-2.479v66.527Z" transform="translate(-180.52 -80.366)"/>
        <path id="Trazado_115289" data-name="Trazado 115289" d="M746.725,556l-12.4-7.157v14.314ZM674,557.236h61.568v-2.479H674Z" transform="translate(-116.991 -95.266)"/>
        <path id="Trazado_115290" data-name="Trazado 115290" d="M1314.008,383.194v1.24h1.24v-1.24Zm0-156.194-7.157,12.4h14.314ZM1295,384.434h19.008v-2.479H1295Zm20.247-1.24V238.157h-2.479V383.194Z" transform="translate(-224.783 -39.402)"/>
        <circle id="Elipse_4777" data-name="Elipse 4777" cx="45.5" cy="45.5" r="45.5" transform="translate(73 -0.036)" fill="#b3009d"/>
        <circle id="Elipse_4778" data-name="Elipse 4778" cx="45.5" cy="45.5" r="45.5" transform="translate(1011 -0.036)" fill="#b3009d"/>
        <ellipse id="Elipse_4779" data-name="Elipse 4779" cx="45.5" cy="45" rx="45.5" ry="45" transform="translate(215 200.964)" fill="#b3009d"/>
        <ellipse id="Elipse_4780" data-name="Elipse 4780" cx="45.5" cy="45" rx="45.5" ry="45" transform="translate(894 200.964)" fill="#b3009d"/>
        <circle id="Elipse_4781" data-name="Elipse 4781" cx="45.5" cy="45.5" r="45.5" transform="translate(398 307.964)" fill="#b3009d"/>
        <circle id="Elipse_4782" data-name="Elipse 4782" cx="45.5" cy="45.5" r="45.5" transform="translate(700 307.964)" fill="#b3009d"/>
        <path id="Trazado_115291" data-name="Trazado 115291" d="M162.932,36.01a.647.647,0,0,0-.189-.458l-9.363-9.362a.647.647,0,0,0-.916,0L115.19,63.465a.646.646,0,0,0,0,.916l9.362,9.362a.647.647,0,0,0,.916,0L135.908,63.3h0l2.731-2.731h0l5.463-5.462h0l2.731-2.731h0l5.464-5.464h0l5.463-5.464h0l4.978-4.979A.648.648,0,0,0,162.932,36.01Zm-10.01-8.446.9.895L117.459,64.818l-.9-.895Zm4.383,12.509-3.769-3.77a.648.648,0,1,0-.916.916l3.77,3.77L154.574,42.8l-1.656-1.656a.648.648,0,1,0-.916.916l1.655,1.656-1.816,1.816-3.769-3.77a.648.648,0,1,0-.916.916l3.769,3.77-1.816,1.816-1.655-1.656a.648.648,0,1,0-.917.916l1.656,1.656L146.378,51l-3.77-3.77a.648.648,0,0,0-.916.916l3.769,3.77-1.816,1.816-1.656-1.656a.648.648,0,0,0-.916.916l1.656,1.656-1.816,1.816-3.769-3.769a.648.648,0,1,0-.917.916L140,57.38,138.184,59.2l-1.656-1.656a.648.648,0,0,0-.916.916l1.655,1.656-1.816,1.816-3.769-3.769a.648.648,0,0,0-.917.916l3.77,3.769-1.816,1.816L131.064,63a.648.648,0,1,0-.916.916l1.655,1.656-1.816,1.816-3.769-3.77a.648.648,0,0,0-.916.916l3.769,3.77-4.063,4.063-6.635-6.635,36.359-36.359,6.635,6.635Z" transform="translate(-19.961 -4.513)" fill="#fff"/>
        <path id="Trazado_115292" data-name="Trazado 115292" d="M314.347,293.035A4.317,4.317,0,1,0,317.4,294.3,4.314,4.314,0,0,0,314.347,293.035Zm0,6.836a2.525,2.525,0,1,1,1.783-.74A2.525,2.525,0,0,1,314.347,299.871Z" transform="translate(-53.815 -50.864)" fill="#fff"/>
        <path id="Trazado_115293" data-name="Trazado 115293" d="M332.8,292.455h-3.5A19,19,0,0,0,311.244,274.4v-3.5a.895.895,0,0,0-1.789,0v3.5A19,19,0,0,0,291.4,292.455h-3.5a.895.895,0,0,0,0,1.789h3.5A19,19,0,0,0,309.455,312.3v3.5a.895.895,0,0,0,1.789,0v-3.5A19,19,0,0,0,329.3,294.244h3.5a.895.895,0,0,0,0-1.789Zm-5.295,0h-4.017a13.191,13.191,0,0,0-12.248-12.248v-4.018a17.208,17.208,0,0,1,16.266,16.266Zm-7.93,1.789H321.7A11.4,11.4,0,0,1,311.244,304.7V302.58a.895.895,0,0,0-1.789,0V304.7A11.4,11.4,0,0,1,299,294.244h2.118a.895.895,0,1,0,0-1.789H299A11.4,11.4,0,0,1,309.455,282v2.118a.895.895,0,1,0,1.789,0V282A11.4,11.4,0,0,1,321.7,292.455H319.58a.895.895,0,0,0,0,1.789Zm-10.125-18.056v4.018a13.191,13.191,0,0,0-12.248,12.248h-4.018a17.209,17.209,0,0,1,16.266-16.266Zm-16.266,18.056h4.018a13.191,13.191,0,0,0,12.248,12.248v4.018a17.209,17.209,0,0,1-16.266-16.266Zm18.056,16.266v-4.018a13.191,13.191,0,0,0,12.248-12.248h4.017a17.208,17.208,0,0,1-16.266,16.266Z" transform="translate(-49.817 -46.866)" fill="#fff"/>
        <path id="Trazado_115294" data-name="Trazado 115294" d="M532.777,434.906a15.374,15.374,0,1,0-10.853-4.5A15.354,15.354,0,0,0,532.777,434.906Zm0-29.006a13.666,13.666,0,1,1-9.648,4A13.65,13.65,0,0,1,532.777,405.9Z" transform="translate(-89.812 -70.159)" fill="#fff"/>
        <path id="Trazado_115295" data-name="Trazado 115295" d="M527.052,428.769a.853.853,0,0,0,1.323.9l5.477-3.911,5.476,3.911a.853.853,0,0,0,1.323-.9l-1.576-6.306,4.707-3.925a.855.855,0,0,0,.275-.432.845.845,0,0,0-.022-.512.852.852,0,0,0-.8-.563h-6.21l-2.365-7.095a.853.853,0,0,0-1.621,0l-2.364,7.095h-6.21a.853.853,0,0,0-.545,1.509l4.706,3.925Zm-.229-10.03h4.469a.851.851,0,0,0,.809-.584l1.75-5.249,1.75,5.249a.853.853,0,0,0,.809.584h4.469l-3.309,2.756a.854.854,0,0,0-.281.863l1.144,4.577-4.087-2.918a.853.853,0,0,0-.991,0l-4.087,2.918,1.144-4.577a.854.854,0,0,0-.281-.863Z" transform="translate(-90.887 -71.054)" fill="#fff"/>
        <path id="Trazado_115296" data-name="Trazado 115296" d="M556.643,435.787l-8.094-8.1a4.146,4.146,0,0,0,.74-4.266,1.815,1.815,0,0,1,.41-1.969,4.24,4.24,0,0,0,.136-5.813,1.592,1.592,0,0,1-.31-1.631,4.24,4.24,0,0,0-2.229-5.346,1.876,1.876,0,0,1-1.127-1.721,4.241,4.241,0,0,0-4.015-4.181,1.591,1.591,0,0,1-1.372-.933,4.239,4.239,0,0,0-5.387-2.2,1.81,1.81,0,0,1-1.962-.409,4.241,4.241,0,0,0-5.815-.136,1.59,1.59,0,0,1-1.63.31,4.237,4.237,0,0,0-5.352,2.228,1.877,1.877,0,0,1-1.722,1.127,4.239,4.239,0,0,0-4.18,4.016,1.6,1.6,0,0,1-.939,1.372,4.239,4.239,0,0,0-2.19,5.387,1.812,1.812,0,0,1-.41,1.962,4.239,4.239,0,0,0-.136,5.813,1.594,1.594,0,0,1,.309,1.63,4.18,4.18,0,0,0,1.127,4.607l-8.245,8.249a.853.853,0,0,0,.411,1.435l10.572,2.439,2.439,10.571a.853.853,0,0,0,1.435.412l11.341-11.34,11.34,11.34a.853.853,0,0,0,1.435-.412l2.44-10.571,10.571-2.439a.853.853,0,0,0,.411-1.435Zm-41.919-5.78a4.24,4.24,0,0,0,4.015,4.18,1.591,1.591,0,0,1,1.372.933,4.239,4.239,0,0,0,5.387,2.2,1.813,1.813,0,0,1,1.969.409,4.21,4.21,0,0,0,1.284.863l-7.2,7.2-2.216-9.591a.854.854,0,0,0-.64-.64l-9.591-2.213,4.84-4.84a1.86,1.86,0,0,1,.779,1.5Zm32.368-1.194c.036-.017.067-.041.1-.059l4.593,4.594-9.591,2.211a.854.854,0,0,0-.64.64l-2.213,9.591-7.206-7.207a4.23,4.23,0,0,0,1.14-.719,1.6,1.6,0,0,1,1.63-.31,4.241,4.241,0,0,0,5.349-2.228,1.877,1.877,0,0,1,1.722-1.127,4.24,4.24,0,0,0,4.18-4.016,1.6,1.6,0,0,1,.933-1.372Zm-35.415-10.339a2.526,2.526,0,0,1,.731-1.784,3.527,3.527,0,0,0,.788-3.78,2.533,2.533,0,0,1,1.311-3.218,3.291,3.291,0,0,0,1.931-2.835,2.535,2.535,0,0,1,2.5-2.4,3.59,3.59,0,0,0,3.253-2.132,2.533,2.533,0,0,1,3.2-1.331,3.3,3.3,0,0,0,3.37-.639,2.6,2.6,0,0,1,3.475.085,3.519,3.519,0,0,0,3.778.788,2.536,2.536,0,0,1,3.224,1.308,3.3,3.3,0,0,0,2.836,1.931,2.532,2.532,0,0,1,2.4,2.5,3.595,3.595,0,0,0,2.133,3.253,2.534,2.534,0,0,1,1.333,3.2,3.294,3.294,0,0,0,.64,3.371,2.535,2.535,0,0,1-.085,3.473,3.521,3.521,0,0,0-.788,3.779,2.535,2.535,0,0,1-1.314,3.223,3.291,3.291,0,0,0-1.931,2.835,2.535,2.535,0,0,1-2.5,2.4,3.589,3.589,0,0,0-3.253,2.133,2.533,2.533,0,0,1-3.2,1.333,3.3,3.3,0,0,0-3.369.639,2.6,2.6,0,0,1-3.476-.085,3.523,3.523,0,0,0-2.48-1.034,3.6,3.6,0,0,0-1.295.243,2.535,2.535,0,0,1-3.22-1.311,3.294,3.294,0,0,0-2.835-1.932,2.532,2.532,0,0,1-2.4-2.5,3.593,3.593,0,0,0-2.133-3.252,2.534,2.534,0,0,1-1.332-3.2,3.3,3.3,0,0,0-.64-3.372A2.515,2.515,0,0,1,511.678,418.475Zm7.311,29.874-2.213-9.591a.853.853,0,0,0-.64-.64l-9.591-2.212,1.136-1.136,10.11,2.333,2.333,10.11Zm25.769-10.231a.853.853,0,0,0-.64.64l-2.213,9.591-1.135-1.137L543.1,437.1l10.109-2.332,1.136,1.137Z" transform="translate(-87.483 -69.084)" fill="#fff"/>
        <path id="Trazado_115297" data-name="Trazado 115297" d="M899.318,436a.936.936,0,1,0-1.324,0A.938.938,0,0,0,899.318,436Z" transform="translate(-155.824 -75.403)" fill="#fff"/>
        <path id="Trazado_115298" data-name="Trazado 115298" d="M894.291,407.295A10.3,10.3,0,1,0,904.587,397,10.307,10.307,0,0,0,894.291,407.295Zm18.719,0a8.423,8.423,0,1,1-8.423-8.423A8.433,8.433,0,0,1,913.01,407.295Z" transform="translate(-155.229 -68.91)" fill="#fff"/>
        <path id="Trazado_115299" data-name="Trazado 115299" d="M883.781,448.831a.935.935,0,0,0,1.321.007l4.537-4.47a2.829,2.829,0,0,0,.667-2.9l.976-.941a2.792,2.792,0,0,1,1.949-.788h12.442a8.383,8.383,0,0,0,5.876-2.387c.065-.064-.494.6,8.488-10.14a3.744,3.744,0,0,0-5.7-4.859l-5.523,5.677a3.758,3.758,0,0,0-2.91-1.393H895.47a12.073,12.073,0,0,0-4.687-.935,11.578,11.578,0,0,0-10.554,5.984,2.8,2.8,0,0,0-2.5.775l-4.453,4.466a.936.936,0,0,0,0,1.32Zm7-21.263a10.225,10.225,0,0,1,4.121.858.931.931,0,0,0,.375.079h10.628a1.872,1.872,0,1,1,0,3.744H898.27a.936.936,0,1,0,0,1.872h7.635a3.748,3.748,0,0,0,3.744-3.744,3.855,3.855,0,0,0-.032-.489c5.342-5.492,6.1-6.263,6.128-6.3A1.872,1.872,0,1,1,918.6,426l-8.394,10.036a6.518,6.518,0,0,1-4.537,1.824H893.23a4.651,4.651,0,0,0-3.249,1.312l-.8.768-7.332-7.332A9.664,9.664,0,0,1,890.782,427.567Zm-11.732,6.211a.932.932,0,0,1,1.159-.131c.162.1-.3-.325,8.106,8.072a.938.938,0,0,1,.005,1.32l-3.868,3.811-9.2-9.267Z" transform="translate(-151.533 -73.085)" fill="#fff"/>
        <path id="Trazado_115300" data-name="Trazado 115300" d="M904.984,402.466v1.1a2.807,2.807,0,0,0,.935,5.454.936.936,0,0,1,0,1.872,1.694,1.694,0,0,1-1.216-.708.936.936,0,1,0-1.432,1.2,3.877,3.877,0,0,0,1.712,1.219V413.7a.935.935,0,0,0,1.871,0v-1.1a2.808,2.808,0,0,0-.935-5.455.936.936,0,0,1,0-1.872,1.5,1.5,0,0,1,1.012.489.936.936,0,1,0,1.3-1.345,3.62,3.62,0,0,0-1.379-.861v-1.09a.935.935,0,1,0-1.871,0Z" transform="translate(-156.749 -69.697)" fill="#fff"/>
        <path id="Trazado_115301" data-name="Trazado 115301" d="M1157.466,294.024l-6.752-10.432a2.83,2.83,0,0,0-2.38-1.291h-29.8a2.807,2.807,0,0,0-2.372,1.288l-6.777,10.434a2.837,2.837,0,0,0,.256,3.423l21.669,24.326a2.835,2.835,0,0,0,2.116.947h0a2.831,2.831,0,0,0,2.107-.947l21.669-24.327A2.821,2.821,0,0,0,1157.466,294.024Zm-10.5-9.3-5.686,8.786-5.686-8.786Zm-7.909,9.806h-11.272l5.636-8.71Zm-7.818-9.8-5.669,8.761-5.669-8.761Zm-13.578,1,5.694,8.806h-11.413Zm-5.206,11.232h12.206l6.454,20.949Zm20.966,20.2-6.223-20.2h12.446Zm2.306.752,6.454-20.949h12.206Zm7.785-23.375,5.694-8.8,5.694,8.8Z" transform="translate(-192.485 -49.001)" fill="#fff"/>
        <path id="Trazado_115302" data-name="Trazado 115302" d="M1104.677,297.1h-2.463a1.213,1.213,0,1,0,0,2.426h2.463a1.213,1.213,0,1,0,0-2.426Z" transform="translate(-191.109 -51.57)" fill="#fff"/>
        <path id="Trazado_115303" data-name="Trazado 115303" d="M1173.9,297.1h-2.471a1.213,1.213,0,0,0,0,2.426h2.471a1.213,1.213,0,1,0,0-2.426Z" transform="translate(-203.124 -51.57)" fill="#fff"/>
        <path id="Trazado_115304" data-name="Trazado 115304" d="M1163.869,271.936a1.208,1.208,0,0,0-1.711,0l-4.033,4.029a1.214,1.214,0,0,0,1.719,1.715l4.025-4.029A1.217,1.217,0,0,0,1163.869,271.936Z" transform="translate(-200.963 -47.14)" fill="#fff"/>
        <path id="Trazado_115305" data-name="Trazado 115305" d="M1117.719,275.939l-4.033-4.029a1.211,1.211,0,0,0-1.711,1.715l4.025,4.029a1.228,1.228,0,0,0,.859.355,1.213,1.213,0,0,0,.859-2.07Z" transform="translate(-192.952 -47.136)" fill="#fff"/>
        <path id="Trazado_115306" data-name="Trazado 115306" d="M1138.355,261a1.209,1.209,0,0,0-1.215,1.212v7.9a1.211,1.211,0,1,0,2.421,0v-7.9A1.208,1.208,0,0,0,1138.355,261Z" transform="translate(-197.382 -45.304)" fill="#fff"/>
        <path id="Trazado_115307" data-name="Trazado 115307" d="M1139.206,275.883a1.207,1.207,0,0,0-1.711,0,1.213,1.213,0,0,0,.851,2.07,1.213,1.213,0,0,0,.859-.355,1.212,1.212,0,0,0,0-1.715Z" transform="translate(-197.382 -47.825)" fill="#fff"/>
        <g id="Grupo_81509" data-name="Grupo 81509" transform="translate(1038.64 18.35)">
          <path id="Trazado_115308" data-name="Trazado 115308" d="M1289.806,35.6V30.518H1282.5v1.7a1.316,1.316,0,0,1-1.314,1.319h-15.768a1.317,1.317,0,0,1-1.322-1.319v-1.7h-7.306v42.1h33.016a11.681,11.681,0,0,1,0-23.362v-4.9" transform="translate(-1256.79 -23.648)" fill="none" stroke="#fff" stroke-linecap="round" stroke-linejoin="round" stroke-miterlimit="10" stroke-width="2.409"/>
          <path id="Trazado_115309" data-name="Trazado 115309" d="M1278.431,26.012v-.206a3.6,3.6,0,1,0-7.2,0v.206h-4.281a1.317,1.317,0,0,0-1.322,1.319v3.439a1.317,1.317,0,0,0,1.322,1.319h15.768a1.316,1.316,0,0,0,1.314-1.319V27.332a1.316,1.316,0,0,0-1.314-1.319Z" transform="translate(-1258.324 -22.205)" fill="none" stroke="#fff" stroke-linecap="round" stroke-linejoin="round" stroke-miterlimit="10" stroke-width="2.409"/>
          <path id="Trazado_115310" data-name="Trazado 115310" d="M1305.973,64.875a11.682,11.682,0,1,1-11.686-11.681A11.683,11.683,0,0,1,1305.973,64.875Z" transform="translate(-1261.272 -27.583)" fill="none" stroke="#fff" stroke-linecap="round" stroke-linejoin="round" stroke-miterlimit="10" stroke-width="2.409"/>
          <path id="Trazado_115311" data-name="Trazado 115311" d="M1298.652,60.578a3.887,3.887,0,0,0-3.645-.657c-2.025.611-2.645,3.272-1.157,4.469a12.7,12.7,0,0,0,3.595,1.7c3.587,1.27,2.265,6.338-1.4,6.362a4.871,4.871,0,0,1-3.339-.9" transform="translate(-1263.025 -28.719)" fill="none" stroke="#fff" stroke-linecap="round" stroke-linejoin="round" stroke-miterlimit="10" stroke-width="2.409"/>
          <path id="Trazado_115312" data-name="Trazado 115312" d="M1296.75,58.271V73.629" transform="translate(-1263.726 -28.465)" fill="none" stroke="#fff" stroke-linecap="round" stroke-linejoin="round" stroke-miterlimit="10" stroke-width="2.409"/>
          <path id="Trazado_115313" data-name="Trazado 115313" d="M1265.87,44.395h18.4" transform="translate(-1258.366 -26.056)" fill="none" stroke="#fff" stroke-linecap="round" stroke-linejoin="round" stroke-miterlimit="10" stroke-width="2.409"/>
          <path id="Trazado_115314" data-name="Trazado 115314" d="M1265.87,53.194h13.768" transform="translate(-1258.366 -27.583)" fill="none" stroke="#fff" stroke-linecap="round" stroke-linejoin="round" stroke-miterlimit="10" stroke-width="2.409"/>
          <path id="Trazado_115315" data-name="Trazado 115315" d="M1265.87,61.992h9.182" transform="translate(-1258.366 -29.111)" fill="none" stroke="#fff" stroke-linecap="round" stroke-linejoin="round" stroke-miterlimit="10" stroke-width="2.409"/>
          <path id="Trazado_115316" data-name="Trazado 115316" d="M1265.87,70.791h9.182" transform="translate(-1258.366 -30.638)" fill="none" stroke="#fff" stroke-linecap="round" stroke-linejoin="round" stroke-miterlimit="10" stroke-width="2.409"/>
        </g>
      </g>
      <path id="Trazado_710608" data-name="Trazado 710608" d="M3.258,3.625l3.719,9.281L10.7,3.625h1.945V15h-1.5V10.57l.141-4.781L7.547,15H6.4L2.672,5.813,2.82,10.57V15H1.32V3.625ZM18.57,15.156a3.693,3.693,0,0,1-2.8-1.129,4.19,4.19,0,0,1-1.078-3.02v-.266a5.073,5.073,0,0,1,.48-2.246A3.748,3.748,0,0,1,16.52,6.949a3.378,3.378,0,0,1,1.871-.559,3.166,3.166,0,0,1,2.563,1.086,4.7,4.7,0,0,1,.914,3.109v.6H16.141a3,3,0,0,0,.73,2.02,2.3,2.3,0,0,0,1.777.77,2.517,2.517,0,0,0,1.3-.312,3.259,3.259,0,0,0,.93-.828l.883.688A3.55,3.55,0,0,1,18.57,15.156Zm-.18-7.578a1.928,1.928,0,0,0-1.469.637A3.1,3.1,0,0,0,16.188,10h4.234V9.891a2.753,2.753,0,0,0-.594-1.707A1.815,1.815,0,0,0,18.391,7.578Zm4.8,3.125a4.952,4.952,0,0,1,.922-3.129,3.137,3.137,0,0,1,4.766-.168V3H30.32V15H28.992l-.07-.906a2.943,2.943,0,0,1-2.414,1.063,2.887,2.887,0,0,1-2.395-1.2,5.008,5.008,0,0,1-.926-3.141Zm1.445.164a3.749,3.749,0,0,0,.594,2.25,1.92,1.92,0,0,0,1.641.813A2.108,2.108,0,0,0,28.875,12.7V8.813a2.125,2.125,0,0,0-1.992-1.2,1.929,1.929,0,0,0-1.656.82A4.128,4.128,0,0,0,24.633,10.867ZM34.133,15H32.688V6.547h1.445ZM32.57,4.3a.863.863,0,0,1,.215-.594.807.807,0,0,1,.637-.242.819.819,0,0,1,.641.242.854.854,0,0,1,.219.594.826.826,0,0,1-.219.586.834.834,0,0,1-.641.234.821.821,0,0,1-.637-.234A.834.834,0,0,1,32.57,4.3Zm7.961,3.539a4.331,4.331,0,0,0-.711-.055A1.9,1.9,0,0,0,37.891,9v6H36.445V6.547h1.406l.023.977a2.251,2.251,0,0,1,2.016-1.133,1.477,1.477,0,0,1,.641.109Zm12.445,3.023a5.026,5.026,0,0,1-.891,3.113A2.846,2.846,0,0,1,49.7,15.156a2.947,2.947,0,0,1-2.477-1.133l-.07.977H45.82V3h1.445V7.477A2.93,2.93,0,0,1,49.68,6.391,2.863,2.863,0,0,1,52.1,7.555a5.177,5.177,0,0,1,.879,3.188ZM51.531,10.7a3.906,3.906,0,0,0-.57-2.281,1.888,1.888,0,0,0-1.641-.8,2.122,2.122,0,0,0-2.055,1.328V12.6a2.181,2.181,0,0,0,2.07,1.328,1.878,1.878,0,0,0,1.617-.8A4.153,4.153,0,0,0,51.531,10.7ZM56.367,15H54.922V6.547h1.445ZM54.8,4.3a.863.863,0,0,1,.215-.594.807.807,0,0,1,.637-.242.819.819,0,0,1,.641.242.854.854,0,0,1,.219.594.826.826,0,0,1-.219.586.834.834,0,0,1-.641.234.821.821,0,0,1-.637-.234A.834.834,0,0,1,54.8,4.3Zm7.383,10.852a3.693,3.693,0,0,1-2.8-1.129,4.19,4.19,0,0,1-1.078-3.02v-.266a5.073,5.073,0,0,1,.48-2.246,3.748,3.748,0,0,1,1.344-1.547,3.378,3.378,0,0,1,1.871-.559A3.166,3.166,0,0,1,64.57,7.477a4.7,4.7,0,0,1,.914,3.109v.6H59.758a3,3,0,0,0,.73,2.02,2.3,2.3,0,0,0,1.777.77,2.517,2.517,0,0,0,1.3-.312,3.259,3.259,0,0,0,.93-.828l.883.688A3.55,3.55,0,0,1,62.188,15.156Zm-.18-7.578a1.928,1.928,0,0,0-1.469.637A3.1,3.1,0,0,0,59.8,10h4.234V9.891a2.753,2.753,0,0,0-.594-1.707A1.815,1.815,0,0,0,62.008,7.578Zm6.516-1.031.047,1.063A3.08,3.08,0,0,1,71.1,6.391q2.68,0,2.7,3.023V15H72.359V9.406a1.946,1.946,0,0,0-.418-1.352,1.675,1.675,0,0,0-1.277-.437,2.086,2.086,0,0,0-1.234.375,2.546,2.546,0,0,0-.828.984V15H67.156V6.547Z" transform="translate(292 9581)" fill="#12263f"/>
      <path id="Trazado_710609" data-name="Trazado 710609" d="M7.75,9.742H2.82v4.031H8.547V15H1.32V3.625H8.469V4.852H2.82V8.516H7.75Zm7.359,3.016a1.064,1.064,0,0,0-.441-.91,4.249,4.249,0,0,0-1.539-.559,7.277,7.277,0,0,1-1.742-.562,2.479,2.479,0,0,1-.953-.781,1.869,1.869,0,0,1-.309-1.078A2.193,2.193,0,0,1,11,7.109a3.432,3.432,0,0,1,2.246-.719,3.532,3.532,0,0,1,2.332.742,2.357,2.357,0,0,1,.895,1.9H15.023a1.3,1.3,0,0,0-.5-1.023,1.888,1.888,0,0,0-1.27-.43,1.976,1.976,0,0,0-1.234.344,1.082,1.082,0,0,0-.445.9.877.877,0,0,0,.414.789,5.1,5.1,0,0,0,1.5.508,7.8,7.8,0,0,1,1.754.578,2.558,2.558,0,0,1,1,.809,1.988,1.988,0,0,1,.324,1.152,2.163,2.163,0,0,1-.906,1.816,3.8,3.8,0,0,1-2.352.684,4.257,4.257,0,0,1-1.8-.359,2.922,2.922,0,0,1-1.223-1A2.42,2.42,0,0,1,9.836,12.4h1.445a1.5,1.5,0,0,0,.582,1.152,2.258,2.258,0,0,0,1.434.426,2.331,2.331,0,0,0,1.316-.332A1.02,1.02,0,0,0,15.109,12.758ZM20.4,4.5V6.547h1.578V7.664H20.4v5.249a1.173,1.173,0,0,0,.211.763.888.888,0,0,0,.719.254,3.5,3.5,0,0,0,.688-.094V15a4.215,4.215,0,0,1-1.109.155,1.8,1.8,0,0,1-1.461-.586,2.517,2.517,0,0,1-.492-1.664V7.664H17.414V6.547h1.539V4.5ZM28.883,15a3.036,3.036,0,0,1-.2-.891,3.225,3.225,0,0,1-2.406,1.047,2.984,2.984,0,0,1-2.051-.707,2.287,2.287,0,0,1-.8-1.793,2.39,2.39,0,0,1,1-2.051,4.733,4.733,0,0,1,2.824-.73h1.406V9.211A1.623,1.623,0,0,0,28.2,8a1.821,1.821,0,0,0-1.336-.449,2.108,2.108,0,0,0-1.3.391,1.151,1.151,0,0,0-.523.945H23.594a2,2,0,0,1,.449-1.223,3.066,3.066,0,0,1,1.219-.934,4.1,4.1,0,0,1,1.691-.344,3.342,3.342,0,0,1,2.289.73A2.635,2.635,0,0,1,30.1,9.133v3.891a4.757,4.757,0,0,0,.3,1.852V15Zm-2.4-1.1a2.54,2.54,0,0,0,1.289-.352,2.127,2.127,0,0,0,.883-.914V10.9H27.523q-2.656,0-2.656,1.555a1.316,1.316,0,0,0,.453,1.063A1.742,1.742,0,0,0,26.484,13.9Zm13.039-3.031a5.026,5.026,0,0,1-.891,3.113,2.846,2.846,0,0,1-2.391,1.176,2.947,2.947,0,0,1-2.477-1.133L33.7,15H32.367V3h1.445V7.477a2.93,2.93,0,0,1,2.414-1.086,2.863,2.863,0,0,1,2.418,1.164,5.177,5.177,0,0,1,.879,3.188ZM38.078,10.7a3.906,3.906,0,0,0-.57-2.281,1.888,1.888,0,0,0-1.641-.8,2.122,2.122,0,0,0-2.055,1.328V12.6a2.181,2.181,0,0,0,2.07,1.328,1.878,1.878,0,0,0,1.617-.8A4.153,4.153,0,0,0,38.078,10.7ZM42.914,15H41.469V3h1.445Zm5.82.156a3.693,3.693,0,0,1-2.8-1.129,4.19,4.19,0,0,1-1.078-3.02v-.266A5.073,5.073,0,0,1,45.34,8.5a3.748,3.748,0,0,1,1.344-1.547,3.378,3.378,0,0,1,1.871-.559,3.166,3.166,0,0,1,2.563,1.086,4.7,4.7,0,0,1,.914,3.109v.6H46.3a3,3,0,0,0,.73,2.02,2.3,2.3,0,0,0,1.777.77,2.517,2.517,0,0,0,1.3-.312,3.259,3.259,0,0,0,.93-.828l.883.688A3.55,3.55,0,0,1,48.734,15.156Zm-.18-7.578a1.928,1.928,0,0,0-1.469.637A3.1,3.1,0,0,0,46.352,10h4.234V9.891a2.753,2.753,0,0,0-.594-1.707A1.815,1.815,0,0,0,48.555,7.578Zm8.539,6.4a2.082,2.082,0,0,0,1.352-.469,1.649,1.649,0,0,0,.641-1.172h1.367a2.621,2.621,0,0,1-.5,1.383,3.293,3.293,0,0,1-1.23,1.047,3.55,3.55,0,0,1-1.629.391A3.482,3.482,0,0,1,54.348,14a4.59,4.59,0,0,1-1.02-3.152v-.242a5.089,5.089,0,0,1,.453-2.2,3.451,3.451,0,0,1,1.3-1.492,3.7,3.7,0,0,1,2-.531,3.39,3.39,0,0,1,2.363.852,3.043,3.043,0,0,1,1,2.211H59.086a1.992,1.992,0,0,0-.621-1.348,1.932,1.932,0,0,0-1.379-.527,2.023,2.023,0,0,0-1.707.793,3.724,3.724,0,0,0-.605,2.293v.273a3.65,3.65,0,0,0,.6,2.25A2.033,2.033,0,0,0,57.094,13.977Zm8.492,1.18a3.693,3.693,0,0,1-2.8-1.129,4.19,4.19,0,0,1-1.078-3.02v-.266a5.073,5.073,0,0,1,.48-2.246,3.748,3.748,0,0,1,1.344-1.547,3.378,3.378,0,0,1,1.871-.559,3.166,3.166,0,0,1,2.563,1.086,4.7,4.7,0,0,1,.914,3.109v.6H63.156a3,3,0,0,0,.73,2.02,2.3,2.3,0,0,0,1.777.77,2.517,2.517,0,0,0,1.3-.312,3.259,3.259,0,0,0,.93-.828l.883.688A3.55,3.55,0,0,1,65.586,15.156Zm-.18-7.578a1.928,1.928,0,0,0-1.469.637A3.1,3.1,0,0,0,63.2,10h4.234V9.891a2.753,2.753,0,0,0-.594-1.707A1.815,1.815,0,0,0,65.406,7.578Zm9.234.266a4.331,4.331,0,0,0-.711-.055A1.9,1.9,0,0,0,72,9v6H70.555V6.547h1.406l.023.977A2.251,2.251,0,0,1,74,6.391a1.477,1.477,0,0,1,.641.109ZM85.148,15a3.036,3.036,0,0,1-.2-.891,3.225,3.225,0,0,1-2.406,1.047,2.984,2.984,0,0,1-2.051-.707,2.288,2.288,0,0,1-.8-1.793,2.39,2.39,0,0,1,1-2.051,4.733,4.733,0,0,1,2.824-.73h1.406V9.211A1.623,1.623,0,0,0,84.469,8a1.821,1.821,0,0,0-1.336-.449,2.108,2.108,0,0,0-1.3.391,1.151,1.151,0,0,0-.523.945H79.859a2,2,0,0,1,.449-1.223,3.066,3.066,0,0,1,1.219-.934,4.1,4.1,0,0,1,1.691-.344,3.342,3.342,0,0,1,2.289.73,2.635,2.635,0,0,1,.859,2.012v3.891a4.757,4.757,0,0,0,.3,1.852V15Zm-2.4-1.1a2.54,2.54,0,0,0,1.289-.352,2.127,2.127,0,0,0,.883-.914V10.9H83.789q-2.656,0-2.656,1.555a1.316,1.316,0,0,0,.453,1.063A1.742,1.742,0,0,0,82.75,13.9ZM90.2,15H88.758V3H90.2Zm5.7-1.023a2.082,2.082,0,0,0,1.352-.469,1.649,1.649,0,0,0,.641-1.172h1.367a2.621,2.621,0,0,1-.5,1.383,3.293,3.293,0,0,1-1.23,1.047,3.55,3.55,0,0,1-1.629.391A3.482,3.482,0,0,1,93.16,14a4.59,4.59,0,0,1-1.02-3.152v-.242a5.089,5.089,0,0,1,.453-2.2,3.451,3.451,0,0,1,1.3-1.492,3.7,3.7,0,0,1,2-.531,3.39,3.39,0,0,1,2.363.852,3.043,3.043,0,0,1,1,2.211H97.9a1.992,1.992,0,0,0-.621-1.348A1.932,1.932,0,0,0,95.9,7.578a2.023,2.023,0,0,0-1.707.793,3.724,3.724,0,0,0-.605,2.293v.273a3.65,3.65,0,0,0,.6,2.25A2.033,2.033,0,0,0,95.906,13.977ZM106.109,15a3.036,3.036,0,0,1-.2-.891,3.225,3.225,0,0,1-2.406,1.047,2.984,2.984,0,0,1-2.051-.707,2.288,2.288,0,0,1-.8-1.793,2.39,2.39,0,0,1,1-2.051,4.733,4.733,0,0,1,2.824-.73h1.406V9.211A1.623,1.623,0,0,0,105.43,8a1.821,1.821,0,0,0-1.336-.449,2.108,2.108,0,0,0-1.3.391,1.151,1.151,0,0,0-.523.945H100.82a2,2,0,0,1,.449-1.223,3.066,3.066,0,0,1,1.219-.934,4.1,4.1,0,0,1,1.691-.344,3.342,3.342,0,0,1,2.289.73,2.635,2.635,0,0,1,.859,2.012v3.891a4.757,4.757,0,0,0,.3,1.852V15Zm-2.4-1.1A2.54,2.54,0,0,0,105,13.547a2.127,2.127,0,0,0,.883-.914V10.9H104.75q-2.656,0-2.656,1.555a1.316,1.316,0,0,0,.453,1.063A1.742,1.742,0,0,0,103.711,13.9Zm7.25-7.352.047,1.063a3.08,3.08,0,0,1,2.531-1.219q2.68,0,2.7,3.023V15H114.8V9.406a1.946,1.946,0,0,0-.418-1.352,1.675,1.675,0,0,0-1.277-.437,2.086,2.086,0,0,0-1.234.375,2.546,2.546,0,0,0-.828.984V15h-1.445V6.547Zm10.852,7.43a2.082,2.082,0,0,0,1.352-.469,1.649,1.649,0,0,0,.641-1.172h1.367a2.621,2.621,0,0,1-.5,1.383,3.293,3.293,0,0,1-1.23,1.047,3.55,3.55,0,0,1-1.629.391A3.482,3.482,0,0,1,119.066,14a4.59,4.59,0,0,1-1.02-3.152v-.242a5.089,5.089,0,0,1,.453-2.2,3.451,3.451,0,0,1,1.3-1.492,3.7,3.7,0,0,1,2-.531,3.39,3.39,0,0,1,2.363.852,3.043,3.043,0,0,1,1,2.211H123.8a1.992,1.992,0,0,0-.621-1.348,1.932,1.932,0,0,0-1.379-.527,2.023,2.023,0,0,0-1.707.793,3.724,3.724,0,0,0-.605,2.293v.273a3.65,3.65,0,0,0,.6,2.25A2.033,2.033,0,0,0,121.813,13.977Zm8.492,1.18a3.693,3.693,0,0,1-2.8-1.129,4.19,4.19,0,0,1-1.078-3.02v-.266a5.073,5.073,0,0,1,.48-2.246,3.748,3.748,0,0,1,1.344-1.547,3.378,3.378,0,0,1,1.871-.559,3.166,3.166,0,0,1,2.563,1.086,4.7,4.7,0,0,1,.914,3.109v.6h-5.727a3,3,0,0,0,.73,2.02,2.3,2.3,0,0,0,1.777.77,2.517,2.517,0,0,0,1.3-.312,3.258,3.258,0,0,0,.93-.828l.883.688A3.55,3.55,0,0,1,130.3,15.156Zm-.18-7.578a1.928,1.928,0,0,0-1.469.637A3.1,3.1,0,0,0,127.922,10h4.234V9.891a2.753,2.753,0,0,0-.594-1.707A1.815,1.815,0,0,0,130.125,7.578Zm10.07,5.18a1.064,1.064,0,0,0-.441-.91,4.249,4.249,0,0,0-1.539-.559,7.277,7.277,0,0,1-1.742-.562,2.479,2.479,0,0,1-.953-.781,1.869,1.869,0,0,1-.309-1.078,2.193,2.193,0,0,1,.879-1.758,3.432,3.432,0,0,1,2.246-.719,3.532,3.532,0,0,1,2.332.742,2.357,2.357,0,0,1,.895,1.9h-1.453a1.3,1.3,0,0,0-.5-1.023,1.888,1.888,0,0,0-1.27-.43,1.976,1.976,0,0,0-1.234.344,1.082,1.082,0,0,0-.445.9.877.877,0,0,0,.414.789,5.1,5.1,0,0,0,1.5.508,7.8,7.8,0,0,1,1.754.578,2.558,2.558,0,0,1,1,.809,1.988,1.988,0,0,1,.324,1.152,2.163,2.163,0,0,1-.906,1.816,3.8,3.8,0,0,1-2.352.684,4.257,4.257,0,0,1-1.8-.359,2.922,2.922,0,0,1-1.223-1,2.42,2.42,0,0,1-.441-1.395h1.445a1.5,1.5,0,0,0,.582,1.152,2.258,2.258,0,0,0,1.434.426,2.331,2.331,0,0,0,1.316-.332A1.02,1.02,0,0,0,140.2,12.758Z" transform="translate(390 9772)" fill="#12263f"/>
      <path id="Trazado_710610" data-name="Trazado 710610" d="M7.6,12.023H2.836L1.766,15H.219L4.563,3.625H5.875L10.227,15H8.688ZM3.289,10.8H7.156L5.219,5.477Zm9.734-4.25v9.43q0,2.438-2.211,2.438a2.7,2.7,0,0,1-.883-.14V17.125a2.794,2.794,0,0,0,.656.063.982.982,0,0,0,.738-.262,1.3,1.3,0,0,0,.254-.911V6.547ZM11.43,4.3a.867.867,0,0,1,.215-.59.79.79,0,0,1,.629-.246.819.819,0,0,1,.641.242.854.854,0,0,1,.219.594.826.826,0,0,1-.219.586.834.834,0,0,1-.641.234.808.808,0,0,1-.633-.234A.843.843,0,0,1,11.43,4.3Zm9.141,9.859a3.07,3.07,0,0,1-2.477.992,2.628,2.628,0,0,1-2.059-.785,3.4,3.4,0,0,1-.715-2.324v-5.5h1.445v5.461q0,1.922,1.563,1.922a2.163,2.163,0,0,0,2.2-1.234V6.547h1.445V15H20.6Zm8.523-1.406a1.064,1.064,0,0,0-.441-.91,4.249,4.249,0,0,0-1.539-.559,7.277,7.277,0,0,1-1.742-.562,2.479,2.479,0,0,1-.953-.781,1.869,1.869,0,0,1-.309-1.078,2.193,2.193,0,0,1,.879-1.758,3.432,3.432,0,0,1,2.246-.719,3.532,3.532,0,0,1,2.332.742,2.357,2.357,0,0,1,.895,1.9H29.008a1.3,1.3,0,0,0-.5-1.023,1.888,1.888,0,0,0-1.27-.43A1.976,1.976,0,0,0,26,7.922a1.082,1.082,0,0,0-.445.9.877.877,0,0,0,.414.789,5.1,5.1,0,0,0,1.5.508,7.8,7.8,0,0,1,1.754.578,2.558,2.558,0,0,1,1,.809,1.988,1.988,0,0,1,.324,1.152,2.163,2.163,0,0,1-.906,1.816,3.8,3.8,0,0,1-2.352.684,4.257,4.257,0,0,1-1.8-.359,2.922,2.922,0,0,1-1.223-1A2.42,2.42,0,0,1,23.82,12.4h1.445a1.5,1.5,0,0,0,.582,1.152,2.258,2.258,0,0,0,1.434.426,2.331,2.331,0,0,0,1.316-.332A1.02,1.02,0,0,0,29.094,12.758ZM34.383,4.5V6.547h1.578V7.664H34.383v5.249a1.173,1.173,0,0,0,.211.763.888.888,0,0,0,.719.254A3.5,3.5,0,0,0,36,13.836V15a4.215,4.215,0,0,1-1.109.155,1.8,1.8,0,0,1-1.461-.586,2.517,2.517,0,0,1-.492-1.664V7.664H31.4V6.547h1.539V4.5ZM42.867,15a3.036,3.036,0,0,1-.2-.891,3.225,3.225,0,0,1-2.406,1.047,2.984,2.984,0,0,1-2.051-.707,2.287,2.287,0,0,1-.8-1.793,2.39,2.39,0,0,1,1-2.051,4.733,4.733,0,0,1,2.824-.73h1.406V9.211A1.623,1.623,0,0,0,42.188,8a1.821,1.821,0,0,0-1.336-.449,2.107,2.107,0,0,0-1.3.391,1.151,1.151,0,0,0-.523.945H37.578a2,2,0,0,1,.449-1.223,3.066,3.066,0,0,1,1.219-.934,4.1,4.1,0,0,1,1.691-.344,3.342,3.342,0,0,1,2.289.73,2.635,2.635,0,0,1,.859,2.012v3.891a4.757,4.757,0,0,0,.3,1.852V15Zm-2.4-1.1a2.54,2.54,0,0,0,1.289-.352,2.127,2.127,0,0,0,.883-.914V10.9H41.508q-2.656,0-2.656,1.555a1.316,1.316,0,0,0,.453,1.063A1.742,1.742,0,0,0,40.469,13.9Zm9.969-6.055a4.331,4.331,0,0,0-.711-.055A1.9,1.9,0,0,0,47.8,9v6H46.352V6.547h1.406l.023.977A2.251,2.251,0,0,1,49.8,6.391a1.477,1.477,0,0,1,.641.109Zm8.078,5.2,2.094-6.492h1.477L59.055,15h-1.1L54.891,6.547h1.477ZM68.578,15a3.036,3.036,0,0,1-.2-.891,3.225,3.225,0,0,1-2.406,1.047,2.984,2.984,0,0,1-2.051-.707,2.287,2.287,0,0,1-.8-1.793,2.39,2.39,0,0,1,1-2.051,4.733,4.733,0,0,1,2.824-.73h1.406V9.211A1.623,1.623,0,0,0,67.9,8a1.821,1.821,0,0,0-1.336-.449,2.108,2.108,0,0,0-1.3.391,1.151,1.151,0,0,0-.523.945H63.289a2,2,0,0,1,.449-1.223,3.066,3.066,0,0,1,1.219-.934,4.1,4.1,0,0,1,1.691-.344,3.342,3.342,0,0,1,2.289.73A2.635,2.635,0,0,1,69.8,9.133v3.891a4.757,4.757,0,0,0,.3,1.852V15Zm-2.4-1.1a2.54,2.54,0,0,0,1.289-.352,2.127,2.127,0,0,0,.883-.914V10.9H67.219q-2.656,0-2.656,1.555a1.316,1.316,0,0,0,.453,1.063A1.742,1.742,0,0,0,66.18,13.9ZM73.633,15H72.188V3h1.445Zm1.93-4.3a4.993,4.993,0,0,1,.488-2.234A3.643,3.643,0,0,1,77.41,6.93,3.7,3.7,0,0,1,79.4,6.391a3.565,3.565,0,0,1,2.793,1.2,4.6,4.6,0,0,1,1.066,3.18v.1a5.036,5.036,0,0,1-.473,2.215,3.589,3.589,0,0,1-1.352,1.527,3.743,3.743,0,0,1-2.02.547,3.556,3.556,0,0,1-2.785-1.2A4.575,4.575,0,0,1,75.563,10.8Zm1.453.172a3.616,3.616,0,0,0,.652,2.258,2.211,2.211,0,0,0,3.5-.012,3.955,3.955,0,0,0,.648-2.418,3.61,3.61,0,0,0-.66-2.254A2.1,2.1,0,0,0,79.4,7.578a2.075,2.075,0,0,0-1.727.852A3.925,3.925,0,0,0,77.016,10.867ZM89.156,7.844a4.331,4.331,0,0,0-.711-.055A1.9,1.9,0,0,0,86.516,9v6H85.07V6.547h1.406l.023.977a2.251,2.251,0,0,1,2.016-1.133,1.477,1.477,0,0,1,.641.109Zm4.688,7.313a3.693,3.693,0,0,1-2.8-1.129,4.19,4.19,0,0,1-1.078-3.02v-.266a5.073,5.073,0,0,1,.48-2.246,3.748,3.748,0,0,1,1.344-1.547,3.378,3.378,0,0,1,1.871-.559,3.166,3.166,0,0,1,2.563,1.086,4.7,4.7,0,0,1,.914,3.109v.6H91.414a3,3,0,0,0,.73,2.02,2.3,2.3,0,0,0,1.777.77,2.517,2.517,0,0,0,1.3-.312,3.259,3.259,0,0,0,.93-.828l.883.688A3.55,3.55,0,0,1,93.844,15.156Zm-.18-7.578a1.928,1.928,0,0,0-1.469.637A3.1,3.1,0,0,0,91.461,10H95.7V9.891A2.753,2.753,0,0,0,95.1,8.184,1.815,1.815,0,0,0,93.664,7.578Zm10.07,5.18a1.064,1.064,0,0,0-.441-.91,4.249,4.249,0,0,0-1.539-.559,7.277,7.277,0,0,1-1.742-.562,2.479,2.479,0,0,1-.953-.781,1.869,1.869,0,0,1-.309-1.078,2.193,2.193,0,0,1,.879-1.758,3.432,3.432,0,0,1,2.246-.719,3.532,3.532,0,0,1,2.332.742,2.357,2.357,0,0,1,.895,1.9h-1.453a1.3,1.3,0,0,0-.5-1.023,1.888,1.888,0,0,0-1.27-.43,1.976,1.976,0,0,0-1.234.344,1.082,1.082,0,0,0-.445.9.877.877,0,0,0,.414.789,5.1,5.1,0,0,0,1.5.508,7.8,7.8,0,0,1,1.754.578,2.558,2.558,0,0,1,1,.809,1.988,1.988,0,0,1,.324,1.152,2.163,2.163,0,0,1-.906,1.816,3.8,3.8,0,0,1-2.352.684,4.257,4.257,0,0,1-1.8-.359,2.922,2.922,0,0,1-1.223-1,2.42,2.42,0,0,1-.441-1.395h1.445a1.5,1.5,0,0,0,.582,1.152,2.258,2.258,0,0,0,1.434.426,2.331,2.331,0,0,0,1.316-.332A1.02,1.02,0,0,0,103.734,12.758Z" transform="translate(600 9886)" fill="#12263f"/>
      <path id="Trazado_710611" data-name="Trazado 710611" d="M21.336,10.4H18.664V15H17.156V3.625h3.766a4.457,4.457,0,0,1,2.957.875,3.148,3.148,0,0,1,1.035,2.547A3.062,3.062,0,0,1,24.34,8.9a3.428,3.428,0,0,1-1.6,1.18l2.672,4.828V15H23.8ZM18.664,9.172h2.3a2.6,2.6,0,0,0,1.777-.579,1.959,1.959,0,0,0,.66-1.55,2.062,2.062,0,0,0-.629-1.62,2.663,2.663,0,0,0-1.816-.571h-2.3ZM30.3,15.156a3.693,3.693,0,0,1-2.8-1.129,4.19,4.19,0,0,1-1.078-3.02v-.266A5.073,5.073,0,0,1,26.9,8.5a3.748,3.748,0,0,1,1.344-1.547,3.378,3.378,0,0,1,1.871-.559A3.166,3.166,0,0,1,32.68,7.477a4.7,4.7,0,0,1,.914,3.109v.6H27.867a3,3,0,0,0,.73,2.02,2.3,2.3,0,0,0,1.777.77,2.517,2.517,0,0,0,1.3-.312,3.259,3.259,0,0,0,.93-.828l.883.688A3.55,3.55,0,0,1,30.3,15.156Zm-.18-7.578a1.928,1.928,0,0,0-1.469.637A3.1,3.1,0,0,0,27.914,10h4.234V9.891a2.753,2.753,0,0,0-.594-1.707A1.815,1.815,0,0,0,30.117,7.578Zm8.539,6.4a2.082,2.082,0,0,0,1.352-.469,1.649,1.649,0,0,0,.641-1.172h1.367a2.621,2.621,0,0,1-.5,1.383,3.293,3.293,0,0,1-1.23,1.047,3.55,3.55,0,0,1-1.629.391A3.482,3.482,0,0,1,35.91,14a4.59,4.59,0,0,1-1.02-3.152v-.242a5.089,5.089,0,0,1,.453-2.2,3.451,3.451,0,0,1,1.3-1.492,3.7,3.7,0,0,1,2-.531,3.39,3.39,0,0,1,2.363.852,3.043,3.043,0,0,1,1,2.211H40.648a1.992,1.992,0,0,0-.621-1.348,1.932,1.932,0,0,0-1.379-.527,2.023,2.023,0,0,0-1.707.793,3.724,3.724,0,0,0-.605,2.293v.273a3.65,3.65,0,0,0,.6,2.25A2.033,2.033,0,0,0,38.656,13.977Zm4.6-3.281a4.993,4.993,0,0,1,.488-2.234A3.643,3.643,0,0,1,45.105,6.93a3.7,3.7,0,0,1,1.988-.539,3.565,3.565,0,0,1,2.793,1.2,4.6,4.6,0,0,1,1.066,3.18v.1a5.036,5.036,0,0,1-.473,2.215,3.589,3.589,0,0,1-1.352,1.527,3.743,3.743,0,0,1-2.02.547,3.556,3.556,0,0,1-2.785-1.2A4.575,4.575,0,0,1,43.258,10.8Zm1.453.172a3.616,3.616,0,0,0,.652,2.258,2.211,2.211,0,0,0,3.5-.012,3.955,3.955,0,0,0,.648-2.418,3.61,3.61,0,0,0-.66-2.254,2.1,2.1,0,0,0-1.754-.863,2.075,2.075,0,0,0-1.727.852A3.925,3.925,0,0,0,44.711,10.867ZM56.852,7.844a4.331,4.331,0,0,0-.711-.055A1.9,1.9,0,0,0,54.211,9v6H52.766V6.547h1.406l.023.977a2.251,2.251,0,0,1,2.016-1.133,1.477,1.477,0,0,1,.641.109ZM60.531,4.5V6.547h1.578V7.664H60.531v5.249a1.173,1.173,0,0,0,.211.763.888.888,0,0,0,.719.254,3.5,3.5,0,0,0,.688-.094V15a4.215,4.215,0,0,1-1.109.155,1.8,1.8,0,0,1-1.461-.586,2.517,2.517,0,0,1-.492-1.664V7.664H57.547V6.547h1.539V4.5ZM69.016,15a3.036,3.036,0,0,1-.2-.891,3.225,3.225,0,0,1-2.406,1.047,2.984,2.984,0,0,1-2.051-.707,2.287,2.287,0,0,1-.8-1.793,2.39,2.39,0,0,1,1-2.051,4.733,4.733,0,0,1,2.824-.73h1.406V9.211A1.623,1.623,0,0,0,68.336,8,1.821,1.821,0,0,0,67,7.555a2.108,2.108,0,0,0-1.3.391,1.151,1.151,0,0,0-.523.945H63.727a2,2,0,0,1,.449-1.223,3.066,3.066,0,0,1,1.219-.934,4.1,4.1,0,0,1,1.691-.344,3.342,3.342,0,0,1,2.289.73,2.635,2.635,0,0,1,.859,2.012v3.891a4.757,4.757,0,0,0,.3,1.852V15Zm-2.4-1.1a2.54,2.54,0,0,0,1.289-.352,2.127,2.127,0,0,0,.883-.914V10.9H67.656Q65,10.9,65,12.453a1.316,1.316,0,0,0,.453,1.063A1.742,1.742,0,0,0,66.617,13.9Zm9.969-6.055a4.331,4.331,0,0,0-.711-.055A1.9,1.9,0,0,0,73.945,9v6H72.5V6.547h1.406l.023.977a2.251,2.251,0,0,1,2.016-1.133,1.477,1.477,0,0,1,.641.109ZM81.531,10.7a4.968,4.968,0,0,1,.914-3.145,3.151,3.151,0,0,1,4.836-.074l.07-.937h1.32V14.8a3.439,3.439,0,0,1-.973,2.586,3.589,3.589,0,0,1-2.613.945,4.348,4.348,0,0,1-1.789-.391,3.08,3.08,0,0,1-1.336-1.07l.75-.867a2.826,2.826,0,0,0,2.273,1.148,2.214,2.214,0,0,0,1.645-.594,2.269,2.269,0,0,0,.59-1.672v-.727a2.971,2.971,0,0,1-2.367,1,2.887,2.887,0,0,1-2.4-1.2A5.224,5.224,0,0,1,81.531,10.7Zm1.453.164a3.79,3.79,0,0,0,.586,2.246,1.9,1.9,0,0,0,1.641.816,2.117,2.117,0,0,0,2.008-1.242V8.828a2.142,2.142,0,0,0-1.992-1.211,1.921,1.921,0,0,0-1.648.82A4.128,4.128,0,0,0,82.984,10.867ZM96.07,15a3.036,3.036,0,0,1-.2-.891,3.225,3.225,0,0,1-2.406,1.047,2.984,2.984,0,0,1-2.051-.707,2.288,2.288,0,0,1-.8-1.793,2.39,2.39,0,0,1,1-2.051,4.733,4.733,0,0,1,2.824-.73h1.406V9.211A1.623,1.623,0,0,0,95.391,8a1.821,1.821,0,0,0-1.336-.449,2.108,2.108,0,0,0-1.3.391,1.151,1.151,0,0,0-.523.945H90.781a2,2,0,0,1,.449-1.223,3.066,3.066,0,0,1,1.219-.934,4.1,4.1,0,0,1,1.691-.344,3.342,3.342,0,0,1,2.289.73,2.635,2.635,0,0,1,.859,2.012v3.891a4.757,4.757,0,0,0,.3,1.852V15Zm-2.4-1.1a2.54,2.54,0,0,0,1.289-.352,2.127,2.127,0,0,0,.883-.914V10.9H94.711q-2.656,0-2.656,1.555a1.316,1.316,0,0,0,.453,1.063A1.742,1.742,0,0,0,93.672,13.9Zm10.8-1.141a1.064,1.064,0,0,0-.441-.91,4.249,4.249,0,0,0-1.539-.559,7.277,7.277,0,0,1-1.742-.562,2.479,2.479,0,0,1-.953-.781,1.869,1.869,0,0,1-.309-1.078,2.193,2.193,0,0,1,.879-1.758,3.432,3.432,0,0,1,2.246-.719,3.532,3.532,0,0,1,2.332.742,2.357,2.357,0,0,1,.895,1.9h-1.453a1.3,1.3,0,0,0-.5-1.023,1.888,1.888,0,0,0-1.27-.43,1.976,1.976,0,0,0-1.234.344,1.082,1.082,0,0,0-.445.9.877.877,0,0,0,.414.789,5.1,5.1,0,0,0,1.5.508,7.8,7.8,0,0,1,1.754.578,2.558,2.558,0,0,1,1,.809,1.988,1.988,0,0,1,.324,1.152,2.163,2.163,0,0,1-.906,1.816,3.8,3.8,0,0,1-2.352.684,4.257,4.257,0,0,1-1.8-.359,2.922,2.922,0,0,1-1.223-1A2.42,2.42,0,0,1,99.2,12.4h1.445a1.5,1.5,0,0,0,.582,1.152,2.258,2.258,0,0,0,1.434.426,2.331,2.331,0,0,0,1.316-.332A1.02,1.02,0,0,0,104.477,12.758ZM109.766,4.5V6.547h1.578V7.664h-1.578v5.249a1.173,1.173,0,0,0,.211.763.888.888,0,0,0,.719.254,3.5,3.5,0,0,0,.688-.094V15a4.215,4.215,0,0,1-1.109.155,1.8,1.8,0,0,1-1.461-.586,2.517,2.517,0,0,1-.492-1.664V7.664h-1.539V6.547h1.539V4.5Zm2.727,6.2a4.993,4.993,0,0,1,.488-2.234A3.643,3.643,0,0,1,114.34,6.93a3.7,3.7,0,0,1,1.988-.539,3.565,3.565,0,0,1,2.793,1.2,4.6,4.6,0,0,1,1.066,3.18v.1a5.036,5.036,0,0,1-.473,2.215,3.589,3.589,0,0,1-1.352,1.527,3.743,3.743,0,0,1-2.02.547,3.556,3.556,0,0,1-2.785-1.2,4.575,4.575,0,0,1-1.066-3.164Zm1.453.172a3.616,3.616,0,0,0,.652,2.258,2.211,2.211,0,0,0,3.5-.012,3.955,3.955,0,0,0,.648-2.418,3.61,3.61,0,0,0-.66-2.254,2.1,2.1,0,0,0-1.754-.863,2.075,2.075,0,0,0-1.727.852A3.925,3.925,0,0,0,113.945,10.867Zm12.977,1.891a1.064,1.064,0,0,0-.441-.91,4.249,4.249,0,0,0-1.539-.559,7.277,7.277,0,0,1-1.742-.562,2.479,2.479,0,0,1-.953-.781,1.869,1.869,0,0,1-.309-1.078,2.193,2.193,0,0,1,.879-1.758,3.432,3.432,0,0,1,2.246-.719,3.532,3.532,0,0,1,2.332.742,2.357,2.357,0,0,1,.895,1.9h-1.453a1.3,1.3,0,0,0-.5-1.023,1.888,1.888,0,0,0-1.27-.43,1.976,1.976,0,0,0-1.234.344,1.082,1.082,0,0,0-.445.9.877.877,0,0,0,.414.789,5.1,5.1,0,0,0,1.5.508,7.8,7.8,0,0,1,1.754.578,2.558,2.558,0,0,1,1,.809,1.988,1.988,0,0,1,.324,1.152,2.163,2.163,0,0,1-.906,1.816,3.8,3.8,0,0,1-2.352.684,4.257,4.257,0,0,1-1.8-.359,2.922,2.922,0,0,1-1.223-1,2.42,2.42,0,0,1-.441-1.395h1.445a1.5,1.5,0,0,0,.582,1.152,2.258,2.258,0,0,0,1.434.426,2.331,2.331,0,0,0,1.316-.332A1.02,1.02,0,0,0,126.922,12.758ZM29.918,39H28.473V30.547h1.445ZM28.355,28.3a.863.863,0,0,1,.215-.594.807.807,0,0,1,.637-.242.819.819,0,0,1,.641.242.854.854,0,0,1,.219.594.826.826,0,0,1-.219.586.834.834,0,0,1-.641.234.821.821,0,0,1-.637-.234A.834.834,0,0,1,28.355,28.3ZM33.6,30.547l.047,1.063a3.08,3.08,0,0,1,2.531-1.219q2.68,0,2.7,3.023V39H37.434V33.406a1.946,1.946,0,0,0-.418-1.352,1.675,1.675,0,0,0-1.277-.437,2.086,2.086,0,0,0-1.234.375,2.546,2.546,0,0,0-.828.984V39H32.23V30.547Zm8.828,0,.047,1.063A3.08,3.08,0,0,1,45,30.391q2.68,0,2.7,3.023V39H46.262V33.406a1.946,1.946,0,0,0-.418-1.352,1.675,1.675,0,0,0-1.277-.437,2.086,2.086,0,0,0-1.234.375,2.546,2.546,0,0,0-.828.984V39H41.059V30.547Zm10.969,8.609a3.693,3.693,0,0,1-2.8-1.129,4.19,4.19,0,0,1-1.078-3.02v-.266A5.073,5.073,0,0,1,50,32.5a3.748,3.748,0,0,1,1.344-1.547,3.378,3.378,0,0,1,1.871-.559,3.166,3.166,0,0,1,2.563,1.086,4.7,4.7,0,0,1,.914,3.109v.6H50.965a3,3,0,0,0,.73,2.02,2.3,2.3,0,0,0,1.777.77,2.517,2.517,0,0,0,1.3-.312,3.258,3.258,0,0,0,.93-.828l.883.688A3.55,3.55,0,0,1,53.395,39.156Zm-.18-7.578a1.928,1.928,0,0,0-1.469.637A3.1,3.1,0,0,0,51.012,34h4.234v-.109a2.753,2.753,0,0,0-.594-1.707A1.815,1.815,0,0,0,53.215,31.578Zm8.539,6.4a2.082,2.082,0,0,0,1.352-.469,1.649,1.649,0,0,0,.641-1.172h1.367a2.621,2.621,0,0,1-.5,1.383,3.293,3.293,0,0,1-1.23,1.047,3.55,3.55,0,0,1-1.629.391A3.482,3.482,0,0,1,59.008,38a4.59,4.59,0,0,1-1.02-3.152v-.242a5.089,5.089,0,0,1,.453-2.2,3.451,3.451,0,0,1,1.3-1.492,3.7,3.7,0,0,1,2-.531,3.39,3.39,0,0,1,2.363.852,3.043,3.043,0,0,1,1,2.211H63.746a1.992,1.992,0,0,0-.621-1.348,1.932,1.932,0,0,0-1.379-.527,2.023,2.023,0,0,0-1.707.793,3.724,3.724,0,0,0-.605,2.293v.273a3.65,3.65,0,0,0,.6,2.25A2.033,2.033,0,0,0,61.754,37.977Zm8.492,1.18a3.693,3.693,0,0,1-2.8-1.129,4.19,4.19,0,0,1-1.078-3.02v-.266a5.073,5.073,0,0,1,.48-2.246A3.748,3.748,0,0,1,68.2,30.949a3.378,3.378,0,0,1,1.871-.559,3.166,3.166,0,0,1,2.563,1.086,4.7,4.7,0,0,1,.914,3.109v.6H67.816a3,3,0,0,0,.73,2.02,2.3,2.3,0,0,0,1.777.77,2.517,2.517,0,0,0,1.3-.312,3.259,3.259,0,0,0,.93-.828l.883.688A3.55,3.55,0,0,1,70.246,39.156Zm-.18-7.578a1.928,1.928,0,0,0-1.469.637A3.1,3.1,0,0,0,67.863,34H72.1v-.109a2.753,2.753,0,0,0-.594-1.707A1.815,1.815,0,0,0,70.066,31.578Zm10.07,5.18a1.064,1.064,0,0,0-.441-.91,4.249,4.249,0,0,0-1.539-.559,7.277,7.277,0,0,1-1.742-.562,2.479,2.479,0,0,1-.953-.781,1.869,1.869,0,0,1-.309-1.078,2.193,2.193,0,0,1,.879-1.758,3.432,3.432,0,0,1,2.246-.719,3.532,3.532,0,0,1,2.332.742,2.357,2.357,0,0,1,.895,1.9H80.051a1.3,1.3,0,0,0-.5-1.023,1.888,1.888,0,0,0-1.27-.43,1.976,1.976,0,0,0-1.234.344,1.082,1.082,0,0,0-.445.9.877.877,0,0,0,.414.789,5.1,5.1,0,0,0,1.5.508,7.8,7.8,0,0,1,1.754.578,2.558,2.558,0,0,1,1,.809,1.988,1.988,0,0,1,.324,1.152,2.163,2.163,0,0,1-.906,1.816,3.8,3.8,0,0,1-2.352.684,4.257,4.257,0,0,1-1.8-.359,2.922,2.922,0,0,1-1.223-1,2.42,2.42,0,0,1-.441-1.395h1.445a1.5,1.5,0,0,0,.582,1.152,2.258,2.258,0,0,0,1.434.426,2.331,2.331,0,0,0,1.316-.332A1.02,1.02,0,0,0,80.137,36.758ZM88.684,39a3.036,3.036,0,0,1-.2-.891,3.225,3.225,0,0,1-2.406,1.047,2.984,2.984,0,0,1-2.051-.707,2.288,2.288,0,0,1-.8-1.793,2.39,2.39,0,0,1,1-2.051,4.733,4.733,0,0,1,2.824-.73h1.406v-.664A1.623,1.623,0,0,0,88,32a1.821,1.821,0,0,0-1.336-.449,2.108,2.108,0,0,0-1.3.391,1.151,1.151,0,0,0-.523.945H83.395a2,2,0,0,1,.449-1.223,3.066,3.066,0,0,1,1.219-.934,4.1,4.1,0,0,1,1.691-.344,3.342,3.342,0,0,1,2.289.73,2.635,2.635,0,0,1,.859,2.012v3.891a4.757,4.757,0,0,0,.3,1.852V39Zm-2.4-1.1a2.54,2.54,0,0,0,1.289-.352,2.127,2.127,0,0,0,.883-.914V34.9H87.324q-2.656,0-2.656,1.555a1.316,1.316,0,0,0,.453,1.063A1.742,1.742,0,0,0,86.285,37.9Zm9.969-6.055a4.331,4.331,0,0,0-.711-.055A1.9,1.9,0,0,0,93.613,33v6H92.168V30.547h1.406l.023.977a2.251,2.251,0,0,1,2.016-1.133,1.477,1.477,0,0,1,.641.109ZM99.152,39H97.707V30.547h1.445ZM97.59,28.3a.863.863,0,0,1,.215-.594.807.807,0,0,1,.637-.242.819.819,0,0,1,.641.242.854.854,0,0,1,.219.594.826.826,0,0,1-.219.586.834.834,0,0,1-.641.234.821.821,0,0,1-.637-.234A.834.834,0,0,1,97.59,28.3Zm3.492,6.391a4.993,4.993,0,0,1,.488-2.234,3.643,3.643,0,0,1,1.359-1.531,3.7,3.7,0,0,1,1.988-.539,3.565,3.565,0,0,1,2.793,1.2,4.6,4.6,0,0,1,1.066,3.18v.1a5.036,5.036,0,0,1-.473,2.215,3.589,3.589,0,0,1-1.352,1.527,3.743,3.743,0,0,1-2.02.547,3.556,3.556,0,0,1-2.785-1.2,4.575,4.575,0,0,1-1.066-3.164Zm1.453.172a3.616,3.616,0,0,0,.652,2.258,2.211,2.211,0,0,0,3.5-.012,3.955,3.955,0,0,0,.648-2.418,3.61,3.61,0,0,0-.66-2.254,2.1,2.1,0,0,0-1.754-.863,2.075,2.075,0,0,0-1.727.852A3.925,3.925,0,0,0,102.535,34.867Zm12.977,1.891a1.064,1.064,0,0,0-.441-.91,4.249,4.249,0,0,0-1.539-.559,7.277,7.277,0,0,1-1.742-.562,2.479,2.479,0,0,1-.953-.781,1.869,1.869,0,0,1-.309-1.078,2.193,2.193,0,0,1,.879-1.758,3.432,3.432,0,0,1,2.246-.719,3.532,3.532,0,0,1,2.332.742,2.357,2.357,0,0,1,.895,1.9h-1.453a1.3,1.3,0,0,0-.5-1.023,1.888,1.888,0,0,0-1.27-.43,1.976,1.976,0,0,0-1.234.344,1.082,1.082,0,0,0-.445.9.877.877,0,0,0,.414.789,5.1,5.1,0,0,0,1.5.508,7.8,7.8,0,0,1,1.754.578,2.558,2.558,0,0,1,1,.809,1.988,1.988,0,0,1,.324,1.152,2.163,2.163,0,0,1-.906,1.816,3.8,3.8,0,0,1-2.352.684,4.257,4.257,0,0,1-1.8-.359,2.922,2.922,0,0,1-1.223-1,2.42,2.42,0,0,1-.441-1.395h1.445a1.5,1.5,0,0,0,.582,1.152,2.258,2.258,0,0,0,1.434.426,2.331,2.331,0,0,0,1.316-.332A1.02,1.02,0,0,0,115.512,36.758Z" transform="translate(881 9874)" fill="#12263f"/>
      <path id="Trazado_710612" data-name="Trazado 710612" d="M10.5,12.023H5.734L4.664,15H3.117L7.461,3.625H8.773L13.125,15H11.586ZM6.188,10.8h3.867L8.117,5.477Zm9.734-4.25v9.43q0,2.438-2.211,2.438a2.7,2.7,0,0,1-.883-.14V17.125a2.794,2.794,0,0,0,.656.063.982.982,0,0,0,.738-.262,1.3,1.3,0,0,0,.254-.911V6.547ZM14.328,4.3a.867.867,0,0,1,.215-.59.79.79,0,0,1,.629-.246.819.819,0,0,1,.641.242.854.854,0,0,1,.219.594.826.826,0,0,1-.219.586.834.834,0,0,1-.641.234.808.808,0,0,1-.633-.234A.843.843,0,0,1,14.328,4.3Zm9.141,9.859a3.07,3.07,0,0,1-2.477.992,2.628,2.628,0,0,1-2.059-.785,3.4,3.4,0,0,1-.715-2.324v-5.5h1.445v5.461q0,1.922,1.563,1.922a2.163,2.163,0,0,0,2.2-1.234V6.547h1.445V15H23.5Zm8.523-1.406a1.064,1.064,0,0,0-.441-.91,4.249,4.249,0,0,0-1.539-.559,7.277,7.277,0,0,1-1.742-.562,2.479,2.479,0,0,1-.953-.781,1.869,1.869,0,0,1-.309-1.078,2.193,2.193,0,0,1,.879-1.758,3.432,3.432,0,0,1,2.246-.719,3.532,3.532,0,0,1,2.332.742,2.357,2.357,0,0,1,.895,1.9H31.906a1.3,1.3,0,0,0-.5-1.023,1.888,1.888,0,0,0-1.27-.43,1.976,1.976,0,0,0-1.234.344,1.082,1.082,0,0,0-.445.9.877.877,0,0,0,.414.789,5.1,5.1,0,0,0,1.5.508,7.8,7.8,0,0,1,1.754.578,2.558,2.558,0,0,1,1,.809,1.988,1.988,0,0,1,.324,1.152,2.163,2.163,0,0,1-.906,1.816,3.8,3.8,0,0,1-2.352.684,4.257,4.257,0,0,1-1.8-.359,2.922,2.922,0,0,1-1.223-1,2.42,2.42,0,0,1-.441-1.395h1.445a1.5,1.5,0,0,0,.582,1.152,2.258,2.258,0,0,0,1.434.426,2.331,2.331,0,0,0,1.316-.332A1.02,1.02,0,0,0,31.992,12.758ZM37.281,4.5V6.547h1.578V7.664H37.281v5.249a1.173,1.173,0,0,0,.211.763.888.888,0,0,0,.719.254,3.5,3.5,0,0,0,.688-.094V15a4.215,4.215,0,0,1-1.109.155,1.8,1.8,0,0,1-1.461-.586,2.517,2.517,0,0,1-.492-1.664V7.664H34.3V6.547h1.539V4.5ZM45.766,15a3.036,3.036,0,0,1-.2-.891,3.225,3.225,0,0,1-2.406,1.047,2.984,2.984,0,0,1-2.051-.707,2.287,2.287,0,0,1-.8-1.793,2.39,2.39,0,0,1,1-2.051,4.733,4.733,0,0,1,2.824-.73h1.406V9.211A1.623,1.623,0,0,0,45.086,8a1.821,1.821,0,0,0-1.336-.449,2.107,2.107,0,0,0-1.3.391,1.151,1.151,0,0,0-.523.945H40.477a2,2,0,0,1,.449-1.223,3.066,3.066,0,0,1,1.219-.934,4.1,4.1,0,0,1,1.691-.344,3.342,3.342,0,0,1,2.289.73,2.635,2.635,0,0,1,.859,2.012v3.891a4.757,4.757,0,0,0,.3,1.852V15Zm-2.4-1.1a2.54,2.54,0,0,0,1.289-.352,2.127,2.127,0,0,0,.883-.914V10.9H44.406q-2.656,0-2.656,1.555a1.316,1.316,0,0,0,.453,1.063A1.742,1.742,0,0,0,43.367,13.9Zm9.969-6.055a4.331,4.331,0,0,0-.711-.055A1.9,1.9,0,0,0,50.7,9v6H49.25V6.547h1.406l.023.977A2.251,2.251,0,0,1,52.7,6.391a1.477,1.477,0,0,1,.641.109Zm8.078,5.2,2.094-6.492h1.477L61.953,15h-1.1L57.789,6.547h1.477ZM71.477,15a3.036,3.036,0,0,1-.2-.891,3.225,3.225,0,0,1-2.406,1.047,2.984,2.984,0,0,1-2.051-.707,2.288,2.288,0,0,1-.8-1.793,2.39,2.39,0,0,1,1-2.051,4.733,4.733,0,0,1,2.824-.73H71.25V9.211A1.623,1.623,0,0,0,70.8,8a1.821,1.821,0,0,0-1.336-.449,2.108,2.108,0,0,0-1.3.391,1.151,1.151,0,0,0-.523.945H66.188a2,2,0,0,1,.449-1.223,3.066,3.066,0,0,1,1.219-.934,4.1,4.1,0,0,1,1.691-.344,3.342,3.342,0,0,1,2.289.73A2.635,2.635,0,0,1,72.7,9.133v3.891a4.757,4.757,0,0,0,.3,1.852V15Zm-2.4-1.1a2.54,2.54,0,0,0,1.289-.352,2.127,2.127,0,0,0,.883-.914V10.9H70.117q-2.656,0-2.656,1.555a1.316,1.316,0,0,0,.453,1.063A1.742,1.742,0,0,0,69.078,13.9ZM76.531,15H75.086V3h1.445Zm1.93-4.3a4.993,4.993,0,0,1,.488-2.234A3.643,3.643,0,0,1,80.309,6.93,3.7,3.7,0,0,1,82.3,6.391a3.565,3.565,0,0,1,2.793,1.2,4.6,4.6,0,0,1,1.066,3.18v.1a5.036,5.036,0,0,1-.473,2.215,3.589,3.589,0,0,1-1.352,1.527,3.743,3.743,0,0,1-2.02.547,3.556,3.556,0,0,1-2.785-1.2A4.575,4.575,0,0,1,78.461,10.8Zm1.453.172a3.616,3.616,0,0,0,.652,2.258,2.211,2.211,0,0,0,3.5-.012,3.955,3.955,0,0,0,.648-2.418,3.61,3.61,0,0,0-.66-2.254A2.1,2.1,0,0,0,82.3,7.578a2.075,2.075,0,0,0-1.727.852A3.925,3.925,0,0,0,79.914,10.867ZM92.055,7.844a4.331,4.331,0,0,0-.711-.055A1.9,1.9,0,0,0,89.414,9v6H87.969V6.547h1.406l.023.977a2.251,2.251,0,0,1,2.016-1.133,1.477,1.477,0,0,1,.641.109Zm4.688,7.313a3.693,3.693,0,0,1-2.8-1.129,4.19,4.19,0,0,1-1.078-3.02v-.266a5.073,5.073,0,0,1,.48-2.246,3.748,3.748,0,0,1,1.344-1.547,3.378,3.378,0,0,1,1.871-.559,3.166,3.166,0,0,1,2.563,1.086,4.7,4.7,0,0,1,.914,3.109v.6H94.313a3,3,0,0,0,.73,2.02,2.3,2.3,0,0,0,1.777.77,2.517,2.517,0,0,0,1.3-.312,3.259,3.259,0,0,0,.93-.828l.883.688A3.55,3.55,0,0,1,96.742,15.156Zm-.18-7.578a1.928,1.928,0,0,0-1.469.637A3.1,3.1,0,0,0,94.359,10h4.234V9.891A2.753,2.753,0,0,0,98,8.184,1.815,1.815,0,0,0,96.563,7.578Zm10.07,5.18a1.064,1.064,0,0,0-.441-.91,4.249,4.249,0,0,0-1.539-.559,7.277,7.277,0,0,1-1.742-.562,2.479,2.479,0,0,1-.953-.781,1.869,1.869,0,0,1-.309-1.078,2.193,2.193,0,0,1,.879-1.758,3.432,3.432,0,0,1,2.246-.719,3.532,3.532,0,0,1,2.332.742,2.357,2.357,0,0,1,.895,1.9h-1.453a1.3,1.3,0,0,0-.5-1.023,1.888,1.888,0,0,0-1.27-.43,1.976,1.976,0,0,0-1.234.344,1.082,1.082,0,0,0-.445.9.877.877,0,0,0,.414.789,5.1,5.1,0,0,0,1.5.508,7.8,7.8,0,0,1,1.754.578,2.558,2.558,0,0,1,1,.809,1.988,1.988,0,0,1,.324,1.152,2.163,2.163,0,0,1-.906,1.816,3.8,3.8,0,0,1-2.352.684,4.257,4.257,0,0,1-1.8-.359,2.922,2.922,0,0,1-1.223-1,2.42,2.42,0,0,1-.441-1.395H102.8a1.5,1.5,0,0,0,.582,1.152,2.258,2.258,0,0,0,1.434.426,2.331,2.331,0,0,0,1.316-.332A1.02,1.02,0,0,0,106.633,12.758Zm6.945-2.055a4.968,4.968,0,0,1,.914-3.145,3.151,3.151,0,0,1,4.836-.074l.07-.937h1.32V14.8a3.439,3.439,0,0,1-.973,2.586,3.589,3.589,0,0,1-2.613.945,4.348,4.348,0,0,1-1.789-.391,3.08,3.08,0,0,1-1.336-1.07l.75-.867a2.826,2.826,0,0,0,2.273,1.148,2.214,2.214,0,0,0,1.645-.594,2.269,2.269,0,0,0,.59-1.672v-.727a2.971,2.971,0,0,1-2.367,1,2.887,2.887,0,0,1-2.4-1.2A5.224,5.224,0,0,1,113.578,10.7Zm1.453.164a3.79,3.79,0,0,0,.586,2.246,1.9,1.9,0,0,0,1.641.816,2.117,2.117,0,0,0,2.008-1.242V8.828a2.142,2.142,0,0,0-1.992-1.211,1.921,1.921,0,0,0-1.648.82A4.128,4.128,0,0,0,115.031,10.867ZM124.469,15h-1.445V3h1.445Zm1.93-4.3a4.993,4.993,0,0,1,.488-2.234,3.643,3.643,0,0,1,1.359-1.531,3.7,3.7,0,0,1,1.988-.539,3.565,3.565,0,0,1,2.793,1.2,4.6,4.6,0,0,1,1.066,3.18v.1a5.036,5.036,0,0,1-.473,2.215,3.589,3.589,0,0,1-1.352,1.527,3.743,3.743,0,0,1-2.02.547,3.556,3.556,0,0,1-2.785-1.2A4.575,4.575,0,0,1,126.4,10.8Zm1.453.172a3.616,3.616,0,0,0,.652,2.258,2.211,2.211,0,0,0,3.5-.012,3.954,3.954,0,0,0,.648-2.418,3.61,3.61,0,0,0-.66-2.254,2.1,2.1,0,0,0-1.754-.863,2.075,2.075,0,0,0-1.727.852A3.925,3.925,0,0,0,127.852,10.867Zm15.211,0a5.026,5.026,0,0,1-.891,3.113,2.846,2.846,0,0,1-2.391,1.176,2.947,2.947,0,0,1-2.477-1.133l-.07.977h-1.328V3h1.445V7.477a2.93,2.93,0,0,1,2.414-1.086,2.863,2.863,0,0,1,2.418,1.164,5.177,5.177,0,0,1,.879,3.188Zm-1.445-.164a3.906,3.906,0,0,0-.57-2.281,1.888,1.888,0,0,0-1.641-.8,2.122,2.122,0,0,0-2.055,1.328V12.6a2.181,2.181,0,0,0,2.07,1.328,1.878,1.878,0,0,0,1.617-.8A4.153,4.153,0,0,0,141.617,10.7ZM150.1,15a3.036,3.036,0,0,1-.2-.891,3.225,3.225,0,0,1-2.406,1.047,2.984,2.984,0,0,1-2.051-.707,2.287,2.287,0,0,1-.8-1.793,2.39,2.39,0,0,1,1-2.051,4.733,4.733,0,0,1,2.824-.73h1.406V9.211A1.623,1.623,0,0,0,149.422,8a1.821,1.821,0,0,0-1.336-.449,2.107,2.107,0,0,0-1.3.391,1.151,1.151,0,0,0-.523.945h-1.453a2,2,0,0,1,.449-1.223,3.066,3.066,0,0,1,1.219-.934,4.1,4.1,0,0,1,1.691-.344,3.342,3.342,0,0,1,2.289.73,2.635,2.635,0,0,1,.859,2.012v3.891a4.757,4.757,0,0,0,.3,1.852V15Zm-2.4-1.1a2.54,2.54,0,0,0,1.289-.352,2.127,2.127,0,0,0,.883-.914V10.9h-1.133q-2.656,0-2.656,1.555a1.316,1.316,0,0,0,.453,1.063A1.742,1.742,0,0,0,147.7,13.9Zm7.453,1.1h-1.445V3h1.445Zm5.82.156a3.693,3.693,0,0,1-2.8-1.129,4.19,4.19,0,0,1-1.078-3.02v-.266a5.073,5.073,0,0,1,.48-2.246,3.748,3.748,0,0,1,1.344-1.547,3.378,3.378,0,0,1,1.871-.559,3.166,3.166,0,0,1,2.563,1.086,4.7,4.7,0,0,1,.914,3.109v.6h-5.727a3,3,0,0,0,.73,2.02,2.3,2.3,0,0,0,1.777.77,2.517,2.517,0,0,0,1.3-.312,3.258,3.258,0,0,0,.93-.828l.883.688A3.55,3.55,0,0,1,160.977,15.156Zm-.18-7.578a1.928,1.928,0,0,0-1.469.637A3.1,3.1,0,0,0,158.594,10h4.234V9.891a2.753,2.753,0,0,0-.594-1.707A1.815,1.815,0,0,0,160.8,7.578Zm10.07,5.18a1.064,1.064,0,0,0-.441-.91,4.249,4.249,0,0,0-1.539-.559,7.277,7.277,0,0,1-1.742-.562,2.479,2.479,0,0,1-.953-.781,1.869,1.869,0,0,1-.309-1.078,2.193,2.193,0,0,1,.879-1.758,3.432,3.432,0,0,1,2.246-.719,3.532,3.532,0,0,1,2.332.742,2.357,2.357,0,0,1,.895,1.9h-1.453a1.3,1.3,0,0,0-.5-1.023,1.888,1.888,0,0,0-1.27-.43,1.976,1.976,0,0,0-1.234.344,1.082,1.082,0,0,0-.445.9.877.877,0,0,0,.414.789,5.1,5.1,0,0,0,1.5.508,7.8,7.8,0,0,1,1.754.578,2.558,2.558,0,0,1,1,.809,1.988,1.988,0,0,1,.324,1.152,2.163,2.163,0,0,1-.906,1.816,3.8,3.8,0,0,1-2.352.684,4.257,4.257,0,0,1-1.8-.359,2.922,2.922,0,0,1-1.223-1,2.42,2.42,0,0,1-.441-1.395h1.445a1.5,1.5,0,0,0,.582,1.152,2.258,2.258,0,0,0,1.434.426,2.331,2.331,0,0,0,1.316-.332A1.02,1.02,0,0,0,170.867,12.758Z" transform="translate(1061 9770)" fill="#12263f"/>
      <path id="Trazado_710613" data-name="Trazado 710613" d="M6.449,15V3.625H9.66a5.169,5.169,0,0,1,2.625.656,4.438,4.438,0,0,1,1.762,1.867,6.078,6.078,0,0,1,.629,2.781v.727a6.1,6.1,0,0,1-.621,2.82,4.369,4.369,0,0,1-1.773,1.859A5.5,5.5,0,0,1,9.6,15Zm1.5-10.148v8.922H9.527a3.434,3.434,0,0,0,2.7-1.079,4.458,4.458,0,0,0,.965-3.073V8.957a4.529,4.529,0,0,0-.91-3.014A3.239,3.239,0,0,0,9.7,4.852Zm12.273,10.3a3.693,3.693,0,0,1-2.8-1.129,4.19,4.19,0,0,1-1.078-3.02v-.266a5.073,5.073,0,0,1,.48-2.246,3.748,3.748,0,0,1,1.344-1.547,3.378,3.378,0,0,1,1.871-.559,3.166,3.166,0,0,1,2.563,1.086,4.7,4.7,0,0,1,.914,3.109v.6H17.793a3,3,0,0,0,.73,2.02,2.3,2.3,0,0,0,1.777.77,2.517,2.517,0,0,0,1.3-.312,3.259,3.259,0,0,0,.93-.828l.883.688A3.55,3.55,0,0,1,20.223,15.156Zm-.18-7.578a1.928,1.928,0,0,0-1.469.637A3.1,3.1,0,0,0,17.84,10h4.234V9.891a2.753,2.753,0,0,0-.594-1.707A1.815,1.815,0,0,0,20.043,7.578ZM25.676,15V7.664H24.34V6.547h1.336V5.828a2.937,2.937,0,0,1,.809-2.2,3.136,3.136,0,0,1,2.285-.789,6.881,6.881,0,0,1,2.211.477l-.242,1.219a5.008,5.008,0,0,0-1.859-.391,1.819,1.819,0,0,0-1.34.418,1.723,1.723,0,0,0-.41,1.254v.734h1.727V7.664H27.129V15ZM31.7,15H30.246V6.547H31.7Zm3.719-8.453.047,1.063A3.08,3.08,0,0,1,38,6.391q2.68,0,2.7,3.023V15H39.254V9.406a1.946,1.946,0,0,0-.418-1.352,1.675,1.675,0,0,0-1.277-.437,2.086,2.086,0,0,0-1.234.375,2.546,2.546,0,0,0-.828.984V15H34.051V6.547ZM44.449,15H43V6.547h1.445ZM42.887,4.3a.863.863,0,0,1,.215-.594.807.807,0,0,1,.637-.242.819.819,0,0,1,.641.242A.854.854,0,0,1,44.6,4.3a.826.826,0,0,1-.219.586.834.834,0,0,1-.641.234.821.821,0,0,1-.637-.234A.834.834,0,0,1,42.887,4.3Zm7.961,3.539a4.331,4.331,0,0,0-.711-.055A1.9,1.9,0,0,0,48.207,9v6H46.762V6.547h1.406l.023.977a2.251,2.251,0,0,1,2.016-1.133,1.477,1.477,0,0,1,.641.109Zm8.8,7.313a3.693,3.693,0,0,1-2.8-1.129,4.19,4.19,0,0,1-1.078-3.02v-.266A5.073,5.073,0,0,1,56.25,8.5a3.748,3.748,0,0,1,1.344-1.547,3.378,3.378,0,0,1,1.871-.559,3.166,3.166,0,0,1,2.563,1.086,4.7,4.7,0,0,1,.914,3.109v.6H57.215a3,3,0,0,0,.73,2.02,2.3,2.3,0,0,0,1.777.77,2.517,2.517,0,0,0,1.3-.312,3.259,3.259,0,0,0,.93-.828l.883.688A3.55,3.55,0,0,1,59.645,15.156Zm-.18-7.578A1.928,1.928,0,0,0,58,8.215,3.1,3.1,0,0,0,57.262,10H61.5V9.891A2.753,2.753,0,0,0,60.9,8.184,1.815,1.815,0,0,0,59.465,7.578ZM66.184,15H64.738V3h1.445ZM79.6,10.867a5.062,5.062,0,0,1-.883,3.109,2.829,2.829,0,0,1-2.391,1.18A3.1,3.1,0,0,1,73.9,14.18v4.07H72.457V6.547h1.32l.07.938A2.977,2.977,0,0,1,76.3,6.391a2.882,2.882,0,0,1,2.41,1.148,5.117,5.117,0,0,1,.887,3.2ZM78.152,10.7a3.735,3.735,0,0,0-.609-2.258,1.963,1.963,0,0,0-1.672-.828A2.125,2.125,0,0,0,73.9,8.781V12.82a2.129,2.129,0,0,0,1.984,1.156,1.954,1.954,0,0,0,1.652-.824A4.077,4.077,0,0,0,78.152,10.7ZM85.52,7.844a4.331,4.331,0,0,0-.711-.055A1.9,1.9,0,0,0,82.879,9v6H81.434V6.547H82.84l.023.977a2.251,2.251,0,0,1,2.016-1.133,1.477,1.477,0,0,1,.641.109Zm4.688,7.313a3.693,3.693,0,0,1-2.8-1.129,4.19,4.19,0,0,1-1.078-3.02v-.266a5.073,5.073,0,0,1,.48-2.246,3.748,3.748,0,0,1,1.344-1.547,3.378,3.378,0,0,1,1.871-.559A3.166,3.166,0,0,1,92.59,7.477a4.7,4.7,0,0,1,.914,3.109v.6H87.777a3,3,0,0,0,.73,2.02,2.3,2.3,0,0,0,1.777.77,2.517,2.517,0,0,0,1.3-.312,3.259,3.259,0,0,0,.93-.828l.883.688A3.55,3.55,0,0,1,90.207,15.156Zm-.18-7.578a1.928,1.928,0,0,0-1.469.637A3.1,3.1,0,0,0,87.824,10h4.234V9.891a2.753,2.753,0,0,0-.594-1.707A1.815,1.815,0,0,0,90.027,7.578Zm10.07,5.18a1.064,1.064,0,0,0-.441-.91,4.249,4.249,0,0,0-1.539-.559,7.277,7.277,0,0,1-1.742-.562,2.479,2.479,0,0,1-.953-.781,1.869,1.869,0,0,1-.309-1.078,2.193,2.193,0,0,1,.879-1.758,3.432,3.432,0,0,1,2.246-.719,3.532,3.532,0,0,1,2.332.742,2.357,2.357,0,0,1,.895,1.9h-1.453a1.3,1.3,0,0,0-.5-1.023,1.888,1.888,0,0,0-1.27-.43A1.976,1.976,0,0,0,97,7.922a1.082,1.082,0,0,0-.445.9.877.877,0,0,0,.414.789,5.1,5.1,0,0,0,1.5.508,7.8,7.8,0,0,1,1.754.578,2.558,2.558,0,0,1,1,.809,1.988,1.988,0,0,1,.324,1.152,2.163,2.163,0,0,1-.906,1.816,3.8,3.8,0,0,1-2.352.684,4.257,4.257,0,0,1-1.8-.359,2.922,2.922,0,0,1-1.223-1,2.42,2.42,0,0,1-.441-1.395H96.27a1.5,1.5,0,0,0,.582,1.152,2.258,2.258,0,0,0,1.434.426,2.331,2.331,0,0,0,1.316-.332A1.02,1.02,0,0,0,100.1,12.758Zm8.547,1.406a3.07,3.07,0,0,1-2.477.992,2.628,2.628,0,0,1-2.059-.785,3.4,3.4,0,0,1-.715-2.324v-5.5h1.445v5.461q0,1.922,1.563,1.922a2.163,2.163,0,0,0,2.2-1.234V6.547h1.445V15h-1.375Zm10.742-3.3a5.062,5.062,0,0,1-.883,3.109,2.829,2.829,0,0,1-2.391,1.18,3.1,3.1,0,0,1-2.422-.977v4.07h-1.445V6.547h1.32l.07.938a2.977,2.977,0,0,1,2.453-1.094,2.882,2.882,0,0,1,2.41,1.148,5.117,5.117,0,0,1,.887,3.2Zm-1.445-.164a3.735,3.735,0,0,0-.609-2.258,1.963,1.963,0,0,0-1.672-.828,2.125,2.125,0,0,0-1.969,1.164V12.82a2.129,2.129,0,0,0,1.984,1.156,1.954,1.954,0,0,0,1.652-.824A4.077,4.077,0,0,0,117.941,10.7Zm8.5,3.461a3.07,3.07,0,0,1-2.477.992,2.628,2.628,0,0,1-2.059-.785,3.4,3.4,0,0,1-.715-2.324v-5.5h1.445v5.461q0,1.922,1.563,1.922a2.163,2.163,0,0,0,2.2-1.234V6.547h1.445V15h-1.375Zm7.109.992a3.693,3.693,0,0,1-2.8-1.129,4.19,4.19,0,0,1-1.078-3.02v-.266a5.073,5.073,0,0,1,.48-2.246A3.748,3.748,0,0,1,131.5,6.949a3.378,3.378,0,0,1,1.871-.559,3.166,3.166,0,0,1,2.563,1.086,4.7,4.7,0,0,1,.914,3.109v.6h-5.727a3,3,0,0,0,.73,2.02,2.3,2.3,0,0,0,1.777.77,2.517,2.517,0,0,0,1.3-.312,3.258,3.258,0,0,0,.93-.828l.883.688A3.55,3.55,0,0,1,133.551,15.156Zm-.18-7.578a1.928,1.928,0,0,0-1.469.637A3.1,3.1,0,0,0,131.168,10H135.4V9.891a2.753,2.753,0,0,0-.594-1.707A1.815,1.815,0,0,0,133.371,7.578Zm10.07,5.18a1.064,1.064,0,0,0-.441-.91,4.249,4.249,0,0,0-1.539-.559,7.277,7.277,0,0,1-1.742-.562,2.479,2.479,0,0,1-.953-.781,1.869,1.869,0,0,1-.309-1.078,2.193,2.193,0,0,1,.879-1.758,3.432,3.432,0,0,1,2.246-.719,3.532,3.532,0,0,1,2.332.742,2.357,2.357,0,0,1,.895,1.9h-1.453a1.3,1.3,0,0,0-.5-1.023,1.888,1.888,0,0,0-1.27-.43,1.976,1.976,0,0,0-1.234.344,1.082,1.082,0,0,0-.445.9.877.877,0,0,0,.414.789,5.1,5.1,0,0,0,1.5.508,7.8,7.8,0,0,1,1.754.578,2.558,2.558,0,0,1,1,.809,1.988,1.988,0,0,1,.324,1.152,2.163,2.163,0,0,1-.906,1.816,3.8,3.8,0,0,1-2.352.684,4.257,4.257,0,0,1-1.8-.359,2.922,2.922,0,0,1-1.223-1,2.42,2.42,0,0,1-.441-1.395h1.445a1.5,1.5,0,0,0,.582,1.152,2.258,2.258,0,0,0,1.434.426,2.331,2.331,0,0,0,1.316-.332A1.02,1.02,0,0,0,143.441,12.758ZM148.73,4.5V6.547h1.578V7.664H148.73v5.249a1.173,1.173,0,0,0,.211.763.888.888,0,0,0,.719.254,3.5,3.5,0,0,0,.688-.094V15a4.215,4.215,0,0,1-1.109.155,1.8,1.8,0,0,1-1.461-.586,2.517,2.517,0,0,1-.492-1.664V7.664h-1.539V6.547h1.539V4.5Zm2.727,6.2a4.993,4.993,0,0,1,.488-2.234A3.642,3.642,0,0,1,153.3,6.93a3.7,3.7,0,0,1,1.988-.539,3.565,3.565,0,0,1,2.793,1.2,4.6,4.6,0,0,1,1.066,3.18v.1a5.036,5.036,0,0,1-.473,2.215,3.589,3.589,0,0,1-1.352,1.527,3.743,3.743,0,0,1-2.02.547,3.556,3.556,0,0,1-2.785-1.2,4.575,4.575,0,0,1-1.066-3.164Zm1.453.172a3.616,3.616,0,0,0,.652,2.258,2.211,2.211,0,0,0,3.5-.012,3.954,3.954,0,0,0,.648-2.418,3.61,3.61,0,0,0-.66-2.254,2.1,2.1,0,0,0-1.754-.863,2.075,2.075,0,0,0-1.727.852A3.925,3.925,0,0,0,152.91,10.867Z" transform="translate(1187 9580)" fill="#12263f"/>
    </g>
  </g>
</svg>
