<svg xmlns="http://www.w3.org/2000/svg" width="101" height="101" viewBox="0 0 101 101">
  <g id="Grupo_1013449" data-name="Grupo 1013449" transform="translate(-637 -996)">
    <g id="Grupo_1013448" data-name="Grupo 1013448">
      <g id="Grupo_1013441" data-name="Grupo 1013441">
        <circle id="Elipse_1142" data-name="Elipse 1142" cx="50.5" cy="50.5" r="50.5" transform="translate(637 996)" fill="#00cca7"/>
      </g>
    </g>
    <g id="Grupo_1013444" data-name="Grupo 1013444">
      <g id="Grupo_1013442" data-name="Grupo 1013442">
        <g id="Group_23" data-name="Group 23" transform="translate(657.583 1017.083)">
          <g id="Grupo_1013445" data-name="Grupo 1013445">
            <path id="Trazado_124665" data-name="Trazado 124665" d="M264.221,279.791a15.575,15.575,0,0,1-15.271-12.521l-3.381.671A19.023,19.023,0,0,0,273.9,280.595l9.258,2.561-2.561-9.258a19.023,19.023,0,0,0-12.653-28.328l-.671,3.381a15.574,15.574,0,0,1,10.017,23.741l-.423.651,1.347,4.87-4.87-1.347-.651.423A15.488,15.488,0,0,1,264.221,279.791Z" transform="translate(-224.406 -224.406)" fill="#12263f" fill-rule="evenodd"/>
            <path id="Trazado_124666" data-name="Trazado 124666" d="M22.465,41.482A18.92,18.92,0,0,1,12.237,38.5l-.647-.414L5.027,39.9l1.815-6.563-.414-.647a19.019,19.019,0,1,1,16.036,8.79Zm-11.419.332a22.457,22.457,0,1,0-7.931-7.931L.083,44.846Z" fill="#12263f" fill-rule="evenodd"/>
            <path id="Trazado_124667" data-name="Trazado 124667" d="M244.114,364.78h-3.447v-3.447h3.447Z" transform="translate(-219.926 -330.193)" fill="#12263f"/>
            <path id="Trazado_124668" data-name="Trazado 124668" d="M189.285,134.663v2.688h-3.447v-4.206l4.049-3.706a3.447,3.447,0,1,0-5.773-2.544h-3.447a6.895,6.895,0,1,1,11.547,5.087h0Z" transform="translate(-165.097 -109.658)" fill="#12263f" fill-rule="evenodd"/>
          </g>
        </g>
      </g>
    </g>
  </g>
</svg>
