<svg xmlns="http://www.w3.org/2000/svg" width="101" height="101" viewBox="0 0 101 101">
  <g id="Grupo_1013451" data-name="Grupo 1013451" transform="translate(-637 -1318)">
    <circle id="Elipse_1147" data-name="Elipse 1147" cx="50.5" cy="50.5" r="50.5" transform="translate(637 1318)" fill="#00cca7"/>
    <g id="Grupo_1013446" data-name="Grupo 1013446">
      <g id="Group_23_1_" data-name="Group 23 (1)" transform="translate(538.278 1330.689)">
        <path id="Trazado_124671" data-name="Trazado 124671" d="M289.3,127.767a1.3,1.3,0,0,0,1.3-1.3V121.3a1.3,1.3,0,0,0-2.59,0v5.177A1.3,1.3,0,0,0,289.3,127.767Z" transform="translate(-144.459 -108.344)" fill="#12263f" fill-rule="evenodd"/>
        <g id="Grupo_1013332" data-name="Grupo 1013332" transform="translate(127.999 0)">
          <path id="Trazado_124678" data-name="Trazado 124678" d="M369.3,658.59a1.3,1.3,0,1,1,1.3-1.3A1.3,1.3,0,0,1,369.3,658.59Z" transform="translate(-344.688 -592.28)" fill="#12263f"/>
          <g id="Grupo_1013447" data-name="Grupo 1013447">
            <path id="Trazado_124672" data-name="Trazado 124672" d="M209.3,55.087a1.3,1.3,0,0,0,1.3-1.3V45.181a2.59,2.59,0,1,1,5.18,0,1.3,1.3,0,0,0,2.59,0,5.18,5.18,0,0,0-10.361,0v8.611A1.3,1.3,0,0,0,209.3,55.087Z" transform="translate(-200.229 -36.115)" fill="#12263f" fill-rule="evenodd"/>
            <path id="Trazado_124673" data-name="Trazado 124673" d="M289.3,14.246a1.3,1.3,0,0,0,1.3-1.3V5.181a2.59,2.59,0,1,1,5.18,0V9.066a1.3,1.3,0,0,0,2.59,0V5.181a5.18,5.18,0,0,0-10.361,0v7.771A1.3,1.3,0,0,0,289.3,14.246Z" transform="translate(-272.458)" fill="#12263f" fill-rule="evenodd"/>
            <path id="Trazado_124674" data-name="Trazado 124674" d="M368,53.728a5.18,5.18,0,1,0,10.361,0,1.3,1.3,0,0,0-2.59,0,2.59,2.59,0,1,1-5.18,0V45.181a2.59,2.59,0,1,1,5.18,0v3.885a1.3,1.3,0,1,0,2.59,0V45.181a5.18,5.18,0,0,0-10.361,0Z" transform="translate(-344.688 -36.115)" fill="#12263f" fill-rule="evenodd"/>
            <path id="Trazado_124675" data-name="Trazado 124675" d="M448,93.728a5.18,5.18,0,1,0,10.361,0V85.181a5.18,5.18,0,0,0-10.361,0Zm5.18,2.59a2.59,2.59,0,0,1-2.59-2.59V85.181a2.59,2.59,0,0,1,5.18,0v8.548A2.59,2.59,0,0,1,453.18,96.319Z" transform="translate(-416.917 -72.229)" fill="#12263f" fill-rule="evenodd"/>
            <path id="Trazado_124676" data-name="Trazado 124676" d="M208,489.3a1.3,1.3,0,0,0,1.3,1.3h31.083a1.3,1.3,0,1,0,0-2.59H209.3A1.3,1.3,0,0,0,208,489.3Z" transform="translate(-200.229 -440.599)" fill="#12263f" fill-rule="evenodd"/>
            <path id="Trazado_124677" data-name="Trazado 124677" d="M208,573.3a1.3,1.3,0,0,0,1.3,1.3h31.083a1.3,1.3,0,1,0,0-2.59H209.3A1.3,1.3,0,0,0,208,573.3Z" transform="translate(-200.229 -516.439)" fill="#12263f" fill-rule="evenodd"/>
            <path id="Trazado_124679" data-name="Trazado 124679" d="M139.656,216.7a1.3,1.3,0,0,0,1.3,1.3h5.828a1.3,1.3,0,1,0,0-2.59h-4.533V192.607a1.3,1.3,0,0,0-.379-.916l-11.09-11.09,3.332-10,6.367.106c1.454.082,2.876.207,4.19.382a20.277,20.277,0,0,1,4.875,1.137,3.722,3.722,0,0,1,1.141.677c.176.172.174.256.174.272h0c0,.038,0,.156-.241.374a4.77,4.77,0,0,1-1.6.827,32.71,32.71,0,0,1-8.142,1.263,1.3,1.3,0,0,0,.08,2.588,6.475,6.475,0,0,1,6.476,6.476,1.3,1.3,0,0,0,2.59,0,9.049,9.049,0,0,0-3.406-7.083,20.824,20.824,0,0,0,3.253-.8,7.238,7.238,0,0,0,2.488-1.352,3.067,3.067,0,0,0,1.093-2.295,2.951,2.951,0,0,0-.949-2.122,6.212,6.212,0,0,0-1.95-1.216,22.687,22.687,0,0,0-5.538-1.317h0c-1.4-.187-2.9-.317-4.413-.4l-.051,0L133.2,168a1.3,1.3,0,0,0-1.25.885l-3.885,11.656a1.3,1.3,0,0,0,.313,1.325l11.277,11.277Z" transform="translate(-128 -151.682)" fill="#12263f" fill-rule="evenodd"/>
            <path id="Trazado_124680" data-name="Trazado 124680" d="M428,252.811a1.3,1.3,0,0,0,1.3,1.3h5.828a1.3,1.3,0,0,0,1.3-1.3V229.244a14.56,14.56,0,0,0,3.885-9.9V209.3a1.3,1.3,0,0,0-2.59,0v10.046a11.97,11.97,0,0,1-3.506,8.465,1.3,1.3,0,0,0-.379.916v22.794H429.3A1.3,1.3,0,0,0,428,252.811Z" transform="translate(-398.86 -187.796)" fill="#12263f" fill-rule="evenodd"/>
          </g>
        </g>
      </g>
    </g>
  </g>
</svg>
