<svg xmlns="http://www.w3.org/2000/svg" width="101" height="101" viewBox="0 0 101 101">
  <g id="Grupo_1013452" data-name="Grupo 1013452" transform="translate(-637 -1480)">
    <circle id="Elipse_1145" data-name="Elipse 1145" cx="50.5" cy="50.5" r="50.5" transform="translate(637 1480)" fill="#00cca7"/>
    <g id="Tumbs_up_like" data-name="Tumbs up like" transform="translate(659.313 1502.506)">
      <path id="Trazado_124681" data-name="Trazado 124681" d="M52.345,25.707A4.621,4.621,0,0,0,48.521,18.5H34.3A25.346,25.346,0,0,0,36.968,7.165c0-6.5-8.549-9.242-9.693-4.113L26.271,7.6c-.959,4.309-3.743,8.329-8.087,9.774l-2.773.924a4.621,4.621,0,0,0-3.858-2.114H1.155A1.155,1.155,0,0,0,0,17.343V47.38a1.155,1.155,0,0,0,1.155,1.155h10.4A4.621,4.621,0,0,0,15.4,46.467c6.885,2.738,10.617,2.068,31.966,2.068a4.621,4.621,0,0,0,3.824-7.209A4.621,4.621,0,0,0,53.142,34a4.621,4.621,0,0,0-.8-8.295ZM11.553,46.225H2.311V18.5h9.242a2.31,2.31,0,0,1,2.31,2.31V43.914a2.311,2.311,0,0,1-2.31,2.311Zm38.124-6.932H43.9a1.155,1.155,0,0,0,0,2.31h3.466a2.311,2.311,0,0,1,0,4.621c-22.216,0-24.757.612-31.192-1.941V20.809c0-.451-.416-.185,2.75-1.236,5.176-1.733,8.48-6.435,9.6-11.46L29.54,3.561c.5-2.114,5.118-.231,5.118,3.6a23.233,23.233,0,0,1-3.316,11.922,1.155,1.155,0,0,0,1.005,1.721H48.521a2.311,2.311,0,0,1,0,4.621H43.9a1.155,1.155,0,0,0,0,2.31h6.932a2.311,2.311,0,0,1,0,4.621H43.9a1.155,1.155,0,0,0,0,2.31h5.776a2.311,2.311,0,0,1,0,4.621Z" transform="translate(0 0)" fill="#12263f" stroke="#12263f" stroke-width="1"/>
      <path id="Trazado_124682" data-name="Trazado 124682" d="M85.629,381.3a1.16,1.16,0,1,0,.82-.34A1.16,1.16,0,0,0,85.629,381.3Z" transform="translate(-76.052 -339.357)" fill="#12263f" stroke="#12263f" stroke-width="1"/>
    </g>
  </g>
</svg>
