<svg xmlns="http://www.w3.org/2000/svg" width="101" height="101" viewBox="0 0 101 101">
  <g id="Grupo_1013454" data-name="Grupo 1013454" transform="translate(-637 -1802)">
    <circle id="Elipse_1149" data-name="Elipse 1149" cx="50.5" cy="50.5" r="50.5" transform="translate(637 1802)" fill="#00cca7"/>
    <g id="_x33_1" transform="translate(655.559 1821.76)">
      <path id="Trazado_124686" data-name="Trazado 124686" d="M22.941,42.767a3.618,3.618,0,0,0-1.067,5.687,3.637,3.637,0,0,0,2.675,6.089,5.588,5.588,0,0,0,10.908,0,3.637,3.637,0,0,0,2.674-6.089,3.615,3.615,0,0,0-1.062-5.684c5.493-4.295,12.478-11.4,12.478-19.8a11,11,0,0,0-19.541-6.951,11.009,11.009,0,0,0-19.547,6.951c0,8.4,6.986,15.505,12.482,19.8Zm12.486,4.468H24.578a1.218,1.218,0,0,1,0-2.437H35.427a1.218,1.218,0,1,1,0,2.437Zm-4.058-4.876H28.636v-8.13a24.615,24.615,0,0,0,2.732,0ZM26.2,31.467c-2.106-.441-2.984-1.123-3.065-1.318.046-.142.619-.775,2.566-1.269a.38.38,0,0,1,.094-.012.4.4,0,0,1,.241.086.414.414,0,0,1,.164.331v2.182ZM30.01,56.48a3.172,3.172,0,0,1-2.921-1.934h5.828A3.156,3.156,0,0,1,30.01,56.48Zm5.417-4.371H24.578a1.218,1.218,0,0,1,0-2.437H35.427a1.218,1.218,0,0,1,0,2.437ZM21.469,14.394a8.624,8.624,0,0,1,7.479,4.374,1.218,1.218,0,0,0,1.06.617h0a1.219,1.219,0,0,0,1.06-.62,8.57,8.57,0,0,1,16.041,4.2c0,8.3-8.08,15.449-13.3,19.205V33.938c3.456-.621,5.5-2.009,5.5-3.819,0-1.6-1.562-2.881-4.4-3.6a2.8,2.8,0,0,0-2.431.512,2.839,2.839,0,0,0-1.105,2.255v2.5a21.7,21.7,0,0,1-2.732,0v-2.5a2.839,2.839,0,0,0-1.105-2.255,2.806,2.806,0,0,0-2.431-.512c-2.837.72-4.4,2-4.4,3.6,0,1.81,2.043,3.2,5.5,3.819v8.229c-5.228-3.756-13.3-10.9-13.3-19.2a8.584,8.584,0,0,1,8.574-8.574ZM33.8,31.467V29.285a.415.415,0,0,1,.164-.331.4.4,0,0,1,.241-.086.389.389,0,0,1,.095.012c1.835.466,2.449,1.055,2.553,1.24-.14.269-1.03.922-3.052,1.347Z" transform="translate(1.438 2.065)"/>
      <path id="Trazado_124687" data-name="Trazado 124687" d="M26.719,7.38a1.218,1.218,0,0,0,1.218-1.218V3.718a1.218,1.218,0,0,0-2.437,0V6.161A1.218,1.218,0,0,0,26.719,7.38Z" transform="translate(4.723)"/>
      <path id="Trazado_124688" data-name="Trazado 124688" d="M18.9,7.755a1.218,1.218,0,0,0,2.289-.833l-.836-2.3a1.218,1.218,0,0,0-2.289.833Z" transform="translate(3.083 0.289)"/>
      <path id="Trazado_124689" data-name="Trazado 124689" d="M13.239,11.512a1.219,1.219,0,1,0,1.867-1.567L13.534,8.073A1.219,1.219,0,1,0,11.668,9.64Z" transform="translate(1.64 1.122)"/>
      <path id="Trazado_124690" data-name="Trazado 124690" d="M7.089,15.755l2.116,1.222a1.219,1.219,0,1,0,1.218-2.111L8.307,13.644a1.219,1.219,0,0,0-1.218,2.111Z" transform="translate(0.57 2.398)"/>
      <path id="Trazado_124691" data-name="Trazado 124691" d="M4.878,23.067l2.407.424a1.218,1.218,0,1,0,.422-2.4L5.3,20.667a1.218,1.218,0,1,0-.422,2.4Z" transform="translate(0 3.963)"/>
      <path id="Trazado_124692" data-name="Trazado 124692" d="M45.173,22.5a1.219,1.219,0,0,0,1.412.988l2.406-.424a1.218,1.218,0,1,0-.424-2.4l-2.406.424A1.219,1.219,0,0,0,45.173,22.5Z" transform="translate(9.014 3.963)"/>
      <path id="Trazado_124693" data-name="Trazado 124693" d="M44.611,16.976l2.116-1.222a1.219,1.219,0,1,0-1.218-2.111l-2.116,1.222a1.219,1.219,0,0,0,1.218,2.111Z" transform="translate(8.496 2.398)"/>
      <path id="Trazado_124694" data-name="Trazado 124694" d="M40.48,11.511l1.571-1.872a1.218,1.218,0,0,0-1.867-1.566L38.613,9.945a1.218,1.218,0,1,0,1.867,1.566Z" transform="translate(7.524 1.122)"/>
      <path id="Trazado_124695" data-name="Trazado 124695" d="M33.128,8.483a1.217,1.217,0,0,0,1.561-.728l.836-2.3a1.218,1.218,0,1,0-2.289-.833l-.836,2.3A1.218,1.218,0,0,0,33.128,8.483Z" transform="translate(6.213 0.289)"/>
    </g>
  </g>
</svg>
