<svg xmlns="http://www.w3.org/2000/svg" width="254.11" height="249.753" viewBox="0 0 254.11 249.753">
  <g id="Grupo_1013432" data-name="Grupo 1013432" transform="translate(-336 -2077.124)">
    <g id="Group_17_1_" data-name="Group 17 (1)" transform="translate(336 2076.126)">
      <path id="Trazado_116300" data-name="Trazado 116300" d="M142.62,232.4a10.5,10.5,0,0,1,2.567-1.118l.529-2.539,4.3-.077.617,2.523a10.424,10.424,0,0,1,2.606,1.024l2.17-1.421,3.09,2.986-1.344,2.22a10.5,10.5,0,0,1,1.118,2.567l2.539.529.077,4.3-2.523.617a10.426,10.426,0,0,1-1.024,2.605l1.421,2.17-2.985,3.09-2.22-1.344a10.5,10.5,0,0,1-2.567,1.118l-.529,2.545-4.3.077-.617-2.523a10.427,10.427,0,0,1-2.605-1.024l-2.17,1.421-3.09-2.986,1.344-2.22a10.5,10.5,0,0,1-1.118-2.567l-2.539-.529-.077-4.3,2.523-.617a10.426,10.426,0,0,1,1.024-2.605l-1.421-2.17,2.986-3.09,2.22,1.344Zm2.292,5.723a4.609,4.609,0,1,0,6.516-.116A4.605,4.605,0,0,0,144.911,238.12Z" transform="translate(-88.956 -149.697)" fill="#e0e0e0"/>
      <path id="Trazado_116301" data-name="Trazado 116301" d="M160.743,253.414a3.481,3.481,0,0,1,.859-.754,4.584,4.584,0,0,1,3.008-.711,4.633,4.633,0,0,1,2.043.727,4.746,4.746,0,0,1,1.653,1.862,4.461,4.461,0,0,1,.418,1.294,4.547,4.547,0,0,1,.028,1.421,4.7,4.7,0,0,1-3.889,4.027,4.405,4.405,0,0,1-1.421.022,4.474,4.474,0,0,1-1.305-.374,4.688,4.688,0,0,1-2.716-3.6,4.566,4.566,0,0,1,.606-3.029,3.379,3.379,0,0,1,.722-.882c.027.022-.281.3-.634.937a4.572,4.572,0,0,0-.507,2.952,4.481,4.481,0,0,0,.793,1.917,4.551,4.551,0,0,0,1.84,1.493,4.494,4.494,0,0,0,2.583.32,4.462,4.462,0,0,0,3.674-3.806,4.219,4.219,0,0,0-.017-1.344,4.162,4.162,0,0,0-.391-1.228,4.493,4.493,0,0,0-3.5-2.506,4.6,4.6,0,0,0-2.93.611,9.993,9.993,0,0,0-.914.666Z" transform="translate(-104.794 -164.991)" fill="#e0e0e0"/>
      <path id="Trazado_116302" data-name="Trazado 116302" d="M142.493,232.28a1.617,1.617,0,0,1-.143-.077c-.1-.061-.242-.143-.424-.248-.386-.231-.948-.562-1.675-.986h.05c-.76.788-1.757,1.834-2.964,3.1v-.083c.441.656.925,1.383,1.438,2.165l.028.038-.022.044a10.429,10.429,0,0,0-1.008,2.589l-.011.05-.05.011c-.788.193-1.636.408-2.517.628l.072-.093c.028,1.35.055,2.787.083,4.3l-.083-.1c.788.16,1.653.342,2.545.523l.066.011.016.066A10.493,10.493,0,0,0,139,246.757l.033.061-.033.061c-.419.688-.876,1.449-1.344,2.22l-.016-.143c.97.937,2.022,1.945,3.1,2.98l-.154-.016,2.17-1.427.066-.044.066.039a10.589,10.589,0,0,0,2.573,1.014l.077.016.016.077c.193.788.408,1.652.623,2.523l-.127-.1c1.361-.022,2.815-.05,4.3-.077l-.127.1c.165-.8.347-1.669.529-2.539l.016-.077.077-.022a10.317,10.317,0,0,0,2.534-1.1l.072-.044.066.039c.743.452,1.487.9,2.22,1.344l-.165.022q1.512-1.57,2.986-3.09l-.016.165q-.719-1.1-1.421-2.17l-.044-.066.039-.066a10.388,10.388,0,0,0,1.014-2.573l.016-.077.077-.016,2.523-.617-.094.127c-.022-1.465-.049-2.9-.072-4.3l.1.116c-.865-.182-1.708-.358-2.539-.534l-.072-.016-.022-.066a10.377,10.377,0,0,0-1.1-2.539l-.038-.061.038-.061c.463-.76.909-1.5,1.35-2.214l.016.138c-1.085-1.052-2.11-2.044-3.085-2.991l.127.011c-.766.5-1.482.964-2.176,1.416l-.049.033-.05-.027a10.507,10.507,0,0,0-2.578-1.025l-.049-.011-.011-.05c-.22-.914-.418-1.741-.611-2.523l.077.061-4.3.055.055-.05c-.22,1.014-.4,1.846-.545,2.539v.028h-.028a11.5,11.5,0,0,0-1.966.76c-.2.1-.352.182-.463.242a.974.974,0,0,1-.154.077s.049-.038.143-.1.248-.149.452-.259a10.162,10.162,0,0,1,1.961-.8l-.028.033c.138-.694.309-1.531.512-2.545l.011-.044h.05c1.212-.027,2.633-.061,4.3-.093h.061l.016.061c.193.777.4,1.6.628,2.517l-.066-.066a10.734,10.734,0,0,1,2.633,1.024h-.1c.689-.452,1.4-.92,2.165-1.427l.066-.044.061.055c.98.942,2.005,1.928,3.1,2.98l.061.061-.044.077c-.435.722-.882,1.46-1.344,2.22v-.116a10.854,10.854,0,0,1,1.135,2.595l-.088-.083c.832.171,1.68.347,2.545.523l.094.022v.1c.027,1.4.055,2.826.083,4.3v.1l-.094.022c-.832.2-1.669.413-2.523.623l.093-.094a10.68,10.68,0,0,1-1.035,2.639v-.132c.463.716.942,1.438,1.421,2.17l.055.088-.072.077c-.98,1.013-1.977,2.049-2.98,3.09l-.072.077-.088-.055c-.733-.446-1.476-.892-2.22-1.344h.132a10.433,10.433,0,0,1-2.6,1.129l.094-.1c-.182.87-.363,1.74-.529,2.539l-.022.1h-.1c-1.476.028-2.936.05-4.3.077h-.1l-.022-.1c-.215-.87-.424-1.73-.617-2.523l.094.094a10.82,10.82,0,0,1-2.638-1.041h.132c-.755.49-1.5.975-2.171,1.415l-.083.055-.072-.066c-1.074-1.036-2.115-2.049-3.085-2.986l-.066-.066.049-.083c.469-.771.931-1.532,1.35-2.214v.116a10.607,10.607,0,0,1-1.124-2.6l.083.077-2.539-.534-.083-.016v-.083q-.033-2.264-.066-4.3v-.077l.072-.016c.887-.215,1.735-.419,2.523-.612l-.066.066a10.541,10.541,0,0,1,1.041-2.622v.083c-.507-.782-.98-1.515-1.41-2.176l-.027-.044.038-.038c1.223-1.25,2.231-2.286,3-3.074l.022-.022.027.016c.711.441,1.256.782,1.636,1.019.182.116.32.2.419.264a1,1,0,0,1,.143.1Z" transform="translate(-88.83 -149.581)" fill="#e0e0e0"/>
      <path id="Trazado_116303" data-name="Trazado 116303" d="M516.481,324.312a6.217,6.217,0,0,1,1.537-.667l.314-1.52,2.573-.044.369,1.51a6.281,6.281,0,0,1,1.559.611l1.3-.854,1.851,1.785-.8,1.328a6.221,6.221,0,0,1,.667,1.537l1.52.314.044,2.573-1.51.369a6.277,6.277,0,0,1-.611,1.559l.854,1.3-1.785,1.851-1.328-.8a6.215,6.215,0,0,1-1.537.667l-.314,1.52-2.573.044-.369-1.51a6.274,6.274,0,0,1-1.559-.611l-1.3.854-1.851-1.785.8-1.328a6.213,6.213,0,0,1-.667-1.537l-1.52-.314-.044-2.573,1.51-.369a6.271,6.271,0,0,1,.611-1.559l-.854-1.3,1.785-1.851Zm1.372,3.426a2.758,2.758,0,1,0,3.9-.066A2.758,2.758,0,0,0,517.853,327.738Z" transform="translate(-336.724 -211.123)" fill="#f5f5f5"/>
      <path id="Trazado_116304" data-name="Trazado 116304" d="M527.319,336.886a2.062,2.062,0,0,1,.512-.452,2.788,2.788,0,0,1,3.024.011,2.829,2.829,0,0,1,.991,1.113,2.784,2.784,0,0,1,.253.777,2.725,2.725,0,0,1,.016.848,2.811,2.811,0,0,1-2.33,2.413,2.752,2.752,0,0,1-.848.016,2.669,2.669,0,0,1-.782-.226,2.851,2.851,0,0,1-1.151-.947,2.819,2.819,0,0,1-.479-1.207,2.741,2.741,0,0,1,.363-1.812,2.13,2.13,0,0,1,.43-.529c.016.011-.165.182-.38.562a2.728,2.728,0,0,0-.3,1.768,2.7,2.7,0,0,0,1.575,2.038,2.584,2.584,0,0,0,.744.209,2.473,2.473,0,0,0,.8-.017,2.668,2.668,0,0,0,2.2-2.28,2.612,2.612,0,0,0-.011-.8,2.647,2.647,0,0,0-.232-.733,2.715,2.715,0,0,0-3.845-1.135c-.369.226-.534.413-.545.4Z" transform="translate(-346.191 -220.271)" fill="#f5f5f5"/>
      <path id="Trazado_116305" data-name="Trazado 116305" d="M516.334,324.185a.91.91,0,0,1-.089-.044l-.253-.149c-.231-.138-.567-.336-1-.589h.033c-.457.474-1.052,1.1-1.774,1.856v-.05c.264.391.551.832.86,1.294l.016.022-.011.027a6.491,6.491,0,0,0-.606,1.548v.033h-.038c-.468.127-.981.248-1.509.38l.044-.055c.016.81.033,1.669.05,2.573l-.05-.061c.474.1.991.2,1.521.314h.038l.011.044a6.517,6.517,0,0,0,.661,1.521l.022.033-.022.033c-.248.413-.523.865-.8,1.327l-.011-.088c.584.562,1.206,1.162,1.851,1.785l-.094-.011,1.3-.854.039-.027.038.022a6.293,6.293,0,0,0,1.542.606l.044.011.011.044c.115.474.242.986.369,1.509l-.077-.061c.815-.016,1.686-.033,2.573-.044l-.077.061c.1-.479.21-1,.314-1.521l.011-.05.044-.011a6.073,6.073,0,0,0,1.515-.661l.044-.027.039.022c.446.27.887.54,1.327.8l-.1.011q.909-.934,1.785-1.851l-.011.1c-.287-.435-.573-.871-.848-1.3l-.028-.039.022-.038a6.164,6.164,0,0,0,.606-1.542l.011-.044.044-.011c.512-.127,1.013-.248,1.509-.369l-.055.077c-.016-.876-.027-1.735-.044-2.573l.06.072c-.518-.11-1.024-.215-1.52-.32l-.044-.011-.011-.039a6.17,6.17,0,0,0-.661-1.52l-.022-.033.022-.033c.275-.457.545-.9.81-1.327l.011.083c-.65-.628-1.262-1.223-1.846-1.79H524c-.458.3-.887.584-1.3.854l-.028.016-.027-.016a6.152,6.152,0,0,0-1.542-.612h-.033v-.038c-.138-.551-.259-1.041-.374-1.51l.044.033c-1,.011-1.845.022-2.572.033l.033-.027c-.132.606-.237,1.107-.325,1.52v.017h-.016a6.65,6.65,0,0,0-1.173.457c-.121.061-.209.11-.275.143l-.094.05a1.061,1.061,0,0,1,.088-.061c.061-.039.149-.088.27-.154a6,6,0,0,1,1.173-.479l-.016.016c.083-.413.182-.914.308-1.526v-.028h.033l2.572-.055h.039l.011.033c.116.468.237.959.375,1.509l-.039-.038a6.388,6.388,0,0,1,1.576.617h-.061c.413-.27.843-.551,1.3-.854l.038-.028.033.033,1.851,1.785.039.039-.028.044c-.259.429-.529.876-.8,1.327v-.072a6.44,6.44,0,0,1,.677,1.553l-.055-.05c.5.1,1.008.209,1.52.314l.055.011v.061c.016.837.033,1.691.05,2.573v.06l-.055.017c-.5.121-1,.248-1.509.369l.055-.055a6.26,6.26,0,0,1-.622,1.581v-.083c.281.429.562.859.848,1.3l.033.049-.044.044q-.884.909-1.785,1.851l-.044.044-.055-.033c-.441-.265-.881-.535-1.328-.8h.083a6.5,6.5,0,0,1-1.553.678l.055-.061c-.11.523-.215,1.041-.32,1.52l-.011.061h-.06c-.887.016-1.757.033-2.573.044h-.061l-.016-.061c-.127-.523-.253-1.036-.369-1.509l.055.055a6.478,6.478,0,0,1-1.575-.622h.077c-.452.292-.9.584-1.3.848l-.05.033-.044-.038c-.639-.623-1.267-1.228-1.846-1.79l-.038-.038.027-.05c.281-.463.556-.914.81-1.327v.072a6.315,6.315,0,0,1-.672-1.553l.05.044c-.534-.11-1.052-.22-1.52-.319l-.05-.011v-.049c-.016-.9-.028-1.763-.039-2.573v-.044l.044-.011c.529-.127,1.041-.253,1.509-.363l-.038.038a6.351,6.351,0,0,1,.622-1.57v.05c-.3-.468-.589-.909-.843-1.305l-.016-.028.022-.022c.733-.749,1.339-1.366,1.8-1.84l.016-.016.016.011.98.611c.1.066.187.121.254.16a.464.464,0,0,1,.083.06Z" transform="translate(-336.577 -210.996)" fill="#f5f5f5"/>
      <path id="Trazado_116306" data-name="Trazado 116306" d="M572.994,47.438a8.034,8.034,0,0,1,1.977-.859l.408-1.961,3.311-.061.474,1.944a8.243,8.243,0,0,1,2.01.788l1.675-1.1,2.38,2.3L584.192,50.2a8.036,8.036,0,0,1,.859,1.978l1.961.408.061,3.311-1.944.474a8.231,8.231,0,0,1-.788,2.011l1.1,1.675-2.3,2.38L581.432,61.4a8.025,8.025,0,0,1-1.977.859l-.408,1.961-3.311.061-.474-1.944a8.245,8.245,0,0,1-2.011-.788l-1.675,1.1-2.38-2.3,1.036-1.708a8.05,8.05,0,0,1-.859-1.978l-1.961-.408-.061-3.311,1.944-.479a8.254,8.254,0,0,1,.788-2.011l-1.1-1.675,2.3-2.38L573,47.433Zm1.763,4.407a3.553,3.553,0,1,0,5.024-.088A3.557,3.557,0,0,0,574.756,51.845Z" transform="translate(-373.054 -28.642)" fill="#f5f5f5"/>
      <path id="Trazado_116307" data-name="Trazado 116307" d="M586.962,63.639a2.638,2.638,0,0,1,.661-.578,3.589,3.589,0,0,1,3.895.017,3.667,3.667,0,0,1,1.272,1.432,3.515,3.515,0,0,1,.325,1,3.436,3.436,0,0,1,.022,1.091,3.623,3.623,0,0,1-3,3.107,3.333,3.333,0,0,1-1.1.017,3.381,3.381,0,0,1-1.008-.286,3.621,3.621,0,0,1-2.093-2.776,3.536,3.536,0,0,1,.468-2.336,2.809,2.809,0,0,1,.556-.683,7.977,7.977,0,0,0-.49.722,3.52,3.52,0,0,0-.391,2.275,3.441,3.441,0,0,0,.612,1.476,3.508,3.508,0,0,0,1.416,1.151,3.505,3.505,0,0,0,1.994.242,3.467,3.467,0,0,0,1.9-1,3.512,3.512,0,0,0,.937-1.933,3.26,3.26,0,0,0-.016-1.036,3.4,3.4,0,0,0-.3-.947,3.489,3.489,0,0,0-1.2-1.377,3.427,3.427,0,0,0-1.5-.556,3.536,3.536,0,0,0-2.259.474c-.479.292-.689.534-.705.512Z" transform="translate(-385.254 -40.437)" fill="#f5f5f5"/>
      <path id="Trazado_116308" data-name="Trazado 116308" d="M572.846,47.332a.958.958,0,0,1-.11-.061c-.083-.044-.187-.11-.33-.187l-1.289-.76h.039c-.584.606-1.355,1.416-2.286,2.391v-.066c.341.507.711,1.069,1.107,1.669l.022.028-.016.033a8.041,8.041,0,0,0-.777,1.994l-.011.039-.039.011c-.606.149-1.261.314-1.945.485l.055-.072c.022,1.041.044,2.148.066,3.311l-.066-.077c.606.127,1.273.264,1.961.4l.05.011.016.05a8.154,8.154,0,0,0,.854,1.955l.028.044-.028.044c-.32.529-.672,1.118-1.036,1.713l-.016-.11c.749.722,1.559,1.5,2.385,2.3l-.116-.011c.523-.342,1.091-.716,1.675-1.1l.05-.033.049.028a7.915,7.915,0,0,0,1.983.777l.055.017.016.061c.149.606.314,1.273.479,1.944l-.1-.077c1.046-.016,2.17-.039,3.311-.061l-.1.083c.127-.617.27-1.289.408-1.961l.011-.061.061-.017a7.967,7.967,0,0,0,1.956-.848l.055-.033.05.033,1.707,1.036-.127.017q1.165-1.206,2.3-2.38l-.011.127c-.369-.562-.733-1.124-1.1-1.675l-.033-.05.028-.055a8.046,8.046,0,0,0,.782-1.983l.016-.061.061-.017c.655-.16,1.305-.319,1.945-.474l-.072.094c-.017-1.129-.039-2.236-.055-3.311l.077.088c-.667-.138-1.317-.275-1.961-.408l-.055-.011-.016-.055a8.225,8.225,0,0,0-.848-1.961l-.028-.044.028-.044c.358-.584.7-1.151,1.041-1.708l.011.1c-.837-.81-1.625-1.575-2.374-2.3l.1.011c-.589.386-1.14.744-1.675,1.091l-.038.022-.039-.022A8.03,8.03,0,0,0,579,46.462l-.038-.011-.011-.039c-.171-.705-.325-1.344-.469-1.944l.061.044c-1.283.017-2.374.033-3.31.044l.044-.039c-.165.782-.3,1.421-.418,1.956V46.5h-.022a8.424,8.424,0,0,0-1.515.589c-.154.083-.27.143-.358.187s-.121.061-.121.061l.11-.077c.077-.044.193-.116.347-.2a7.828,7.828,0,0,1,1.509-.617l-.022.022c.11-.534.237-1.179.4-1.961v-.033h.044c.937-.022,2.027-.044,3.311-.072h.05l.011.044c.149.6.309,1.234.485,1.944l-.05-.05a7.88,7.88,0,0,1,2.027.793h-.077c.534-.347,1.085-.711,1.669-1.1l.049-.033.044.044c.755.727,1.548,1.487,2.385,2.3l.049.05-.033.061c-.336.556-.678,1.124-1.036,1.713V50.07a8.23,8.23,0,0,1,.87,2L584.915,52l1.961.408.072.017V52.5c.022,1.074.044,2.181.061,3.311v.077l-.072.017c-.639.16-1.283.314-1.945.479l.072-.072a8.2,8.2,0,0,1-.8,2.033v-.1l1.091,1.675.044.066-.055.061-2.3,2.38-.055.061-.072-.044c-.567-.342-1.135-.689-1.708-1.036h.1a8.082,8.082,0,0,1-2.005.87l.072-.077c-.138.672-.281,1.338-.408,1.961l-.016.077h-.083c-1.14.022-2.264.039-3.31.061h-.077l-.016-.077c-.165-.672-.325-1.333-.474-1.944l.072.072a8.451,8.451,0,0,1-2.033-.8h.1c-.578.375-1.151.749-1.674,1.091l-.066.044-.055-.055c-.826-.8-1.63-1.581-2.38-2.3l-.05-.05.039-.061c.364-.595.716-1.179,1.041-1.708V58.6a8.131,8.131,0,0,1-.865-2l.066.061c-.683-.143-1.35-.286-1.955-.413l-.061-.011v-.066c-.017-1.162-.033-2.269-.05-3.311V52.8l.055-.011c.683-.165,1.338-.325,1.945-.474l-.05.05a8.114,8.114,0,0,1,.8-2.022V50.4l-1.085-1.68-.022-.033.028-.028c.942-.964,1.719-1.763,2.313-2.369l.016-.017.022.011c.545.342.97.6,1.261.782.138.088.242.154.325.2a.964.964,0,0,1,.11.077Z" transform="translate(-372.906 -28.536)" fill="#f5f5f5"/>
      <path id="Trazado_116309" data-name="Trazado 116309" d="M417.641,91.52a6.216,6.216,0,0,1,1.537-.667l.314-1.52,2.573-.044.369,1.509a6.275,6.275,0,0,1,1.559.611l1.3-.854,1.851,1.785-.8,1.328a6.215,6.215,0,0,1,.667,1.537l1.52.314.044,2.573-1.51.369a6.279,6.279,0,0,1-.611,1.559l.854,1.3-1.785,1.851-1.328-.8a6.219,6.219,0,0,1-1.537.667l-.314,1.52-2.573.044-.369-1.509a6.278,6.278,0,0,1-1.559-.612l-1.3.854-1.851-1.785.8-1.328a6.219,6.219,0,0,1-.667-1.537l-1.52-.314-.044-2.572,1.51-.369a6.29,6.29,0,0,1,.611-1.559l-.854-1.3,1.785-1.851Zm1.372,3.426a2.758,2.758,0,1,0,3.9-.066A2.758,2.758,0,0,0,419.013,94.946Z" transform="translate(-271.734 -58.054)" fill="#f5f5f5"/>
      <path id="Trazado_116310" data-name="Trazado 116310" d="M428.479,104.093a2.057,2.057,0,0,1,.512-.452,2.788,2.788,0,0,1,3.024.011,2.829,2.829,0,0,1,.991,1.113,2.794,2.794,0,0,1,.253.777,2.729,2.729,0,0,1,.016.848,2.811,2.811,0,0,1-2.33,2.413,2.739,2.739,0,0,1-.848.016,2.666,2.666,0,0,1-.782-.226,2.853,2.853,0,0,1-1.151-.948,2.815,2.815,0,0,1-.479-1.206,2.742,2.742,0,0,1,.363-1.812,2.125,2.125,0,0,1,.43-.529c.016.011-.165.182-.38.562a2.727,2.727,0,0,0-.3,1.768,2.7,2.7,0,0,0,1.575,2.038,2.583,2.583,0,0,0,.744.209,2.472,2.472,0,0,0,.8-.016,2.669,2.669,0,0,0,2.2-2.28,2.614,2.614,0,0,0-.011-.8,2.647,2.647,0,0,0-.232-.733,2.714,2.714,0,0,0-3.845-1.135c-.369.226-.534.413-.545.4Z" transform="translate(-281.2 -67.202)" fill="#f5f5f5"/>
      <path id="Trazado_116311" data-name="Trazado 116311" d="M417.494,91.393a.941.941,0,0,1-.088-.044c-.061-.039-.149-.083-.253-.149-.231-.138-.567-.336-1-.589h.033c-.457.474-1.052,1.1-1.774,1.856v-.05c.264.391.551.832.859,1.295l.017.022-.011.027a6.467,6.467,0,0,0-.606,1.548v.033h-.038c-.468.126-.98.248-1.51.38l.044-.055c.016.81.033,1.669.05,2.572l-.05-.061c.474.1.991.2,1.52.314h.039l.011.044a6.512,6.512,0,0,0,.661,1.52l.022.033-.022.033c-.248.413-.523.865-.8,1.327l-.011-.088c.584.562,1.206,1.162,1.851,1.785l-.094-.011,1.3-.854.038-.027.039.022a6.291,6.291,0,0,0,1.542.606l.044.011.011.044c.115.474.242.986.369,1.509l-.077-.06c.815-.017,1.686-.033,2.573-.044l-.077.061c.1-.479.21-1,.314-1.521l.011-.049.044-.011a6.078,6.078,0,0,0,1.515-.661l.044-.027.039.022c.446.27.887.54,1.327.8l-.1.011q.909-.934,1.785-1.851l-.011.1c-.287-.435-.573-.871-.848-1.3l-.028-.039.022-.038a6.159,6.159,0,0,0,.606-1.542l.011-.044.044-.011c.512-.127,1.013-.248,1.509-.369l-.055.077c-.016-.876-.027-1.735-.044-2.573l.061.072c-.518-.11-1.024-.215-1.52-.32l-.044-.011-.011-.038a6.165,6.165,0,0,0-.661-1.521l-.022-.033.022-.033c.275-.457.545-.9.81-1.327l.011.083c-.65-.628-1.262-1.223-1.846-1.79h.077c-.457.3-.887.584-1.3.854l-.027.017-.027-.017a6.156,6.156,0,0,0-1.542-.611h-.033v-.039c-.138-.551-.259-1.041-.374-1.509l.044.033c-1,.011-1.845.022-2.572.033l.033-.028c-.132.606-.237,1.107-.325,1.52v.017h-.016a6.665,6.665,0,0,0-1.173.457c-.121.061-.209.11-.275.143s-.094.05-.094.05.028-.022.088-.061.149-.088.27-.154a6,6,0,0,1,1.173-.479l-.016.017c.082-.413.181-.914.308-1.526v-.028h.033l2.572-.055h.039l.011.033c.116.468.237.958.375,1.509l-.039-.039a6.394,6.394,0,0,1,1.576.617h-.061c.413-.27.843-.551,1.3-.854l.038-.028.033.033q.876.843,1.851,1.785l.039.039-.028.044c-.259.43-.529.876-.8,1.327v-.072a6.44,6.44,0,0,1,.677,1.553l-.055-.05c.5.1,1.008.209,1.52.314l.055.011v.061c.016.837.033,1.691.049,2.573v.061l-.055.016c-.5.121-1,.248-1.51.369l.055-.055a6.264,6.264,0,0,1-.622,1.581v-.083c.281.429.562.859.848,1.3l.033.049-.044.044q-.884.909-1.785,1.851l-.044.044-.055-.033c-.441-.264-.882-.534-1.328-.8h.083a6.5,6.5,0,0,1-1.553.678l.055-.061c-.11.523-.215,1.041-.319,1.52l-.011.061h-.061c-.887.016-1.757.033-2.572.044h-.061l-.016-.061c-.127-.523-.253-1.036-.369-1.509l.055.055a6.491,6.491,0,0,1-1.575-.623h.077c-.452.292-.9.584-1.3.848l-.05.033-.044-.038c-.639-.623-1.267-1.228-1.846-1.79l-.038-.038.027-.05c.281-.463.557-.914.81-1.327v.072a6.324,6.324,0,0,1-.672-1.553l.05.044c-.534-.11-1.052-.221-1.52-.32l-.05-.011v-.049c-.016-.9-.028-1.763-.039-2.573V95.6l.044-.011c.529-.127,1.041-.253,1.509-.363l-.039.038a6.363,6.363,0,0,1,.623-1.57v.05c-.3-.468-.589-.909-.843-1.305l-.016-.028.022-.022c.733-.749,1.339-1.366,1.8-1.84l.016-.016.016.011.981.611c.1.066.187.121.253.16a.459.459,0,0,1,.083.061Z" transform="translate(-271.586 -57.927)" fill="#f5f5f5"/>
      <path id="Trazado_116312" data-name="Trazado 116312" d="M73.607,223.928a6.22,6.22,0,0,1,1.537-.666l.314-1.52,2.572-.044.369,1.509a6.273,6.273,0,0,1,1.559.612l1.3-.854,1.851,1.785-.8,1.327a6.213,6.213,0,0,1,.666,1.537l1.521.314.044,2.572-1.509.369a6.288,6.288,0,0,1-.611,1.559l.854,1.3-1.785,1.851-1.328-.8a6.206,6.206,0,0,1-1.537.666l-.314,1.521L75.734,237l-.369-1.509a6.286,6.286,0,0,1-1.559-.611l-1.3.854-1.851-1.785.8-1.327a6.213,6.213,0,0,1-.667-1.537l-1.52-.314-.044-2.573,1.509-.369a6.287,6.287,0,0,1,.611-1.559l-.854-1.3,1.785-1.851Zm1.372,3.426a2.758,2.758,0,1,0,3.9-.066A2.758,2.758,0,0,0,74.979,227.354Z" transform="translate(-45.52 -145.117)" fill="#f5f5f5"/>
      <path id="Trazado_116313" data-name="Trazado 116313" d="M84.445,236.5a2.066,2.066,0,0,1,.512-.452,2.79,2.79,0,0,1,3.024.011,2.833,2.833,0,0,1,.992,1.113,2.8,2.8,0,0,1,.253.777,2.727,2.727,0,0,1,.016.848,2.81,2.81,0,0,1-2.33,2.413,2.749,2.749,0,0,1-.848.017,2.673,2.673,0,0,1-.782-.226,2.851,2.851,0,0,1-1.151-.947,2.818,2.818,0,0,1-.479-1.207,2.742,2.742,0,0,1,.364-1.812,2.122,2.122,0,0,1,.43-.529c.016.011-.165.182-.38.562a2.727,2.727,0,0,0-.3,1.768,2.7,2.7,0,0,0,1.575,2.038,2.57,2.57,0,0,0,.744.21,2.475,2.475,0,0,0,.8-.017,2.669,2.669,0,0,0,2.2-2.281,2.619,2.619,0,0,0-.011-.8,2.646,2.646,0,0,0-.231-.733,2.722,2.722,0,0,0-.931-1.069,2.691,2.691,0,0,0-1.162-.435,2.718,2.718,0,0,0-1.752.369c-.369.226-.534.413-.545.4Z" transform="translate(-54.986 -154.265)" fill="#f5f5f5"/>
      <path id="Trazado_116314" data-name="Trazado 116314" d="M73.459,223.8a.951.951,0,0,1-.088-.044c-.061-.039-.149-.082-.253-.149-.231-.138-.567-.336-1-.59h.033c-.457.474-1.052,1.1-1.774,1.857v-.05c.264.391.551.832.859,1.294l.017.022-.011.028a6.472,6.472,0,0,0-.606,1.548v.033H70.6c-.468.127-.981.248-1.509.38l.044-.055c.017.81.033,1.669.05,2.573l-.05-.061c.474.1.992.2,1.52.314h.039l.011.044a6.5,6.5,0,0,0,.661,1.521l.022.033-.022.033c-.248.413-.523.865-.8,1.327l-.011-.088c.584.562,1.206,1.162,1.851,1.785l-.094-.011,1.3-.854.039-.028.039.022a6.292,6.292,0,0,0,1.542.606l.044.011.011.044c.116.474.242.986.369,1.509l-.077-.061c.815-.016,1.686-.033,2.572-.044l-.077.061c.1-.479.209-1,.314-1.52l.011-.05.044-.011a6.08,6.08,0,0,0,1.515-.661l.044-.027.038.022c.446.27.887.54,1.328.8l-.1.011q.909-.933,1.785-1.851l-.011.1c-.287-.435-.573-.87-.848-1.3l-.028-.039.022-.039a6.141,6.141,0,0,0,.606-1.542l.011-.044.044-.011c.512-.127,1.013-.248,1.509-.369l-.055.077c-.016-.876-.027-1.735-.044-2.572l.061.072c-.518-.11-1.025-.215-1.52-.32l-.044-.011-.011-.039a6.17,6.17,0,0,0-.661-1.52l-.022-.033.022-.033c.275-.457.545-.9.81-1.328l.011.083c-.65-.628-1.261-1.223-1.845-1.79h.077c-.457.3-.887.584-1.3.854l-.027.017-.028-.017a6.161,6.161,0,0,0-1.542-.611H78.2v-.039c-.138-.551-.259-1.041-.375-1.509l.044.033c-1,.011-1.845.022-2.572.033l.033-.027c-.132.606-.237,1.107-.325,1.52v.016h-.016a6.7,6.7,0,0,0-1.173.457c-.121.061-.209.11-.275.143l-.094.049s.028-.022.088-.061.149-.088.27-.154a5.987,5.987,0,0,1,1.173-.479l-.017.016c.083-.413.182-.914.308-1.526v-.027H75.3l2.572-.055h.039l.011.033c.116.468.237.958.375,1.509l-.039-.039a6.382,6.382,0,0,1,1.575.617h-.061c.413-.27.843-.551,1.3-.854l.039-.028.033.033q.876.843,1.851,1.785l.039.039-.028.044c-.259.43-.529.876-.8,1.328V225.9a6.44,6.44,0,0,1,.677,1.553l-.055-.05c.5.1,1.008.209,1.521.314l.055.011v.061c.016.837.033,1.691.049,2.572v.061l-.055.016c-.5.121-1,.248-1.509.369l.055-.055a6.258,6.258,0,0,1-.622,1.581v-.083c.281.43.562.86.848,1.3l.033.05-.044.044q-.884.909-1.785,1.851l-.044.044-.055-.033c-.441-.264-.882-.534-1.328-.8h.083a6.482,6.482,0,0,1-1.553.677l.055-.061c-.11.524-.215,1.041-.319,1.521l-.011.061h-.061c-.887.016-1.757.033-2.572.044H75.5l-.017-.061c-.127-.523-.253-1.035-.369-1.509l.055.055a6.479,6.479,0,0,1-1.575-.622h.077c-.452.292-.9.584-1.3.848l-.05.033-.044-.038c-.639-.623-1.267-1.228-1.845-1.79l-.039-.039.028-.049c.281-.463.556-.914.81-1.328v.072a6.317,6.317,0,0,1-.672-1.553l.05.044c-.534-.11-1.052-.22-1.52-.32l-.05-.011v-.05c-.017-.9-.028-1.763-.039-2.572v-.044l.044-.011c.529-.127,1.041-.253,1.509-.364l-.039.039a6.351,6.351,0,0,1,.622-1.57v.05c-.3-.468-.589-.909-.843-1.305l-.017-.028.022-.022c.733-.749,1.339-1.366,1.8-1.84l.017-.017.016.011c.424.265.749.469.981.612.1.066.187.121.253.16a.478.478,0,0,1,.083.061Z" transform="translate(-45.372 -144.991)" fill="#f5f5f5"/>
      <path id="Trazado_116315" data-name="Trazado 116315" d="M90.439,331.443a19.929,19.929,0,0,1,4.87-2.115l1-4.82,8.147-.143,1.173,4.781a19.832,19.832,0,0,1,4.941,1.945l4.115-2.7,5.861,5.657L118,338.257a19.967,19.967,0,0,1,2.115,4.875l4.82,1,.143,8.147-4.781,1.173a19.847,19.847,0,0,1-1.945,4.941l2.7,4.121-5.657,5.861-4.209-2.551a19.915,19.915,0,0,1-4.87,2.115l-1,4.82-8.147.143-1.173-4.781a19.85,19.85,0,0,1-4.941-1.944l-4.115,2.7-5.861-5.657,2.55-4.208a19.931,19.931,0,0,1-2.115-4.87l-4.82-1-.143-8.147,4.781-1.173a19.845,19.845,0,0,1,1.945-4.941l-2.7-4.115,5.657-5.861,4.208,2.55ZM94.78,342.3a8.742,8.742,0,1,0,12.361-.215A8.743,8.743,0,0,0,94.78,342.3Z" transform="translate(-50.332 -212.625)" fill="none" stroke="#e0e0e0" stroke-miterlimit="10" stroke-width="0.08"/>
      <path id="Trazado_116316" data-name="Trazado 116316" d="M124.8,371.293a6.6,6.6,0,0,1,1.625-1.427,8.694,8.694,0,0,1,5.7-1.35,8.867,8.867,0,0,1,7.012,4.908,8.971,8.971,0,0,1,.843,5.139,8.916,8.916,0,0,1-7.376,7.646,8.952,8.952,0,0,1-5.173-.666,8.978,8.978,0,0,1-3.641-3.008,8.832,8.832,0,0,1-.363-9.568,6.617,6.617,0,0,1,1.372-1.675c.05.039-.529.573-1.2,1.774a8.717,8.717,0,0,0-.964,5.6,8.53,8.53,0,0,0,4.985,6.461,8.011,8.011,0,0,0,2.352.656,7.927,7.927,0,0,0,2.545-.055,8.476,8.476,0,0,0,6.974-7.227,8.525,8.525,0,0,0-.771-4.875,8.533,8.533,0,0,0-6.638-4.759,8.717,8.717,0,0,0-5.558,1.162c-1.173.716-1.691,1.311-1.729,1.262Z" transform="translate(-80.344 -241.622)" fill="#ebebeb"/>
      <path id="Trazado_116317" data-name="Trazado 116317" d="M90.058,331.084a2.34,2.34,0,0,1-.27-.143c-.2-.116-.463-.27-.81-.468-.738-.435-1.8-1.063-3.173-1.873l.1-.011c-1.438,1.509-3.332,3.492-5.624,5.894l.017-.16c.821,1.245,1.735,2.627,2.716,4.1l.05.072-.044.077a20.016,20.016,0,0,0-1.911,4.908l-.022.093-.1.022c-1.487.369-3.1.771-4.781,1.185l.138-.176c.05,2.567.1,5.288.16,8.147l-.154-.187c1.493.309,3.14.645,4.825.991l.121.028.033.121a19.675,19.675,0,0,0,2.1,4.814l.066.11-.066.11c-.788,1.305-1.658,2.743-2.545,4.214l-.033-.275c1.845,1.774,3.828,3.69,5.867,5.651l-.292-.027c1.284-.843,2.688-1.768,4.115-2.7l.121-.077.126.072a19.851,19.851,0,0,0,4.886,1.917l.143.033.033.143c.369,1.5.771,3.135,1.173,4.782l-.242-.187c2.578-.044,5.343-.094,8.147-.149l-.237.2c.314-1.521.655-3.168,1-4.82l.033-.149.143-.038a19.841,19.841,0,0,0,4.809-2.088l.132-.083.127.077q2.124,1.289,4.209,2.55l-.309.038q2.867-2.974,5.663-5.861l-.027.309q-1.363-2.082-2.7-4.12l-.083-.127.072-.132a19.652,19.652,0,0,0,1.922-4.88l.033-.143.143-.033c1.62-.4,3.211-.782,4.782-1.168l-.182.237c-.044-2.782-.094-5.5-.132-8.147l.182.22q-2.454-.512-4.82-1.008l-.133-.028-.038-.132a19.8,19.8,0,0,0-2.088-4.82l-.066-.11.066-.11c.876-1.443,1.729-2.837,2.561-4.2l.033.259c-2.06-1.994-4-3.878-5.85-5.674l.237.022c-1.449.948-2.809,1.835-4.126,2.688l-.094.061-.094-.055a19.927,19.927,0,0,0-4.9-1.944l-.1-.022-.022-.094c-.418-1.741-.8-3.305-1.157-4.787l.149.11c-3.157.044-5.845.077-8.147.1l.11-.088c-.413,1.923-.754,3.5-1.036,4.814l-.011.05-.044.011a20.783,20.783,0,0,0-3.724,1.432c-.375.2-.666.347-.876.457a2.012,2.012,0,0,1-.292.149,2.845,2.845,0,0,1,.27-.187c.187-.116.468-.287.86-.5a19.7,19.7,0,0,1,3.718-1.515l-.055.061c.264-1.316.584-2.9.97-4.831l.016-.088h.088c2.3-.055,4.991-.11,8.147-.182h.116l.028.11c.369,1.476.754,3.041,1.19,4.781l-.121-.121a20.057,20.057,0,0,1,4.991,1.95h-.187c1.311-.854,2.666-1.752,4.109-2.7l.127-.083.11.1c1.856,1.785,3.806,3.663,5.872,5.646l.121.116-.088.143q-1.239,2.049-2.545,4.214v-.226a20.362,20.362,0,0,1,2.148,4.924l-.171-.16c1.581.325,3.184.661,4.82,1l.182.039v.187q.082,3.974.154,8.147v.193l-.182.044c-1.57.386-3.167.777-4.781,1.179l.176-.176a20.1,20.1,0,0,1-1.966,5l-.011-.253q1.339,2.041,2.7,4.115l.11.165-.138.143q-2.793,2.892-5.657,5.861l-.138.143-.171-.1q-2.09-1.264-4.208-2.55h.253a20.108,20.108,0,0,1-4.93,2.143l.176-.187c-.347,1.652-.689,3.3-1,4.82l-.038.193h-.2c-2.8.05-5.569.1-8.147.143h-.2l-.044-.187c-.4-1.652-.8-3.283-1.168-4.781l.176.176a20.412,20.412,0,0,1-5-1.972l.248-.011c-1.427.937-2.837,1.857-4.12,2.694l-.154.1-.132-.132c-2.033-1.966-4.016-3.889-5.856-5.668l-.127-.127.094-.154c.892-1.465,1.763-2.9,2.556-4.2v.226a20.367,20.367,0,0,1-2.132-4.925l.154.143c-1.686-.352-3.327-.7-4.82-1.013l-.154-.033v-.16c-.044-2.859-.088-5.58-.127-8.147v-.143l.138-.033c1.68-.408,3.294-.8,4.787-1.157l-.121.121a19.919,19.919,0,0,1,1.978-4.974v.154c-.958-1.487-1.862-2.875-2.677-4.126l-.055-.088.072-.072c2.319-2.374,4.236-4.335,5.69-5.828l.044-.044.055.033q2.016,1.256,3.1,1.928c.341.215.6.38.8.507a1.56,1.56,0,0,1,.27.187Z" transform="translate(-49.951 -212.265)" fill="#ebebeb"/>
      <path id="Trazado_116318" data-name="Trazado 116318" d="M495.166,99.313a13.271,13.271,0,0,1,3.531.546l2.3-2.385,4.688,2.842-1.047,3.14a13.406,13.406,0,0,1,2.115,2.881l3.311-.061,1.305,5.321-2.963,1.476a13.271,13.271,0,0,1-.546,3.531l2.385,2.3-2.842,4.688-3.14-1.047a13.4,13.4,0,0,1-2.881,2.115l.055,3.311-5.321,1.305-1.476-2.964a13.268,13.268,0,0,1-3.531-.545l-2.3,2.385-4.688-2.842,1.047-3.14a13.388,13.388,0,0,1-2.115-2.881l-3.311.061-1.305-5.321,2.964-1.476a13.274,13.274,0,0,1,.545-3.531l-2.385-2.3,2.842-4.688,3.14,1.047a13.6,13.6,0,0,1,2.881-2.115l-.061-3.311,5.321-1.306Zm-1.421,7.734a5.881,5.881,0,1,0,7.112,4.313A5.88,5.88,0,0,0,493.745,107.047Z" transform="translate(-314.589 -62.697)" fill="#e0e0e0"/>
      <path id="Trazado_116319" data-name="Trazado 116319" d="M514.263,127.139a4.426,4.426,0,0,1,1.438-.231,5.889,5.889,0,0,1,3.73,1.278,5.972,5.972,0,0,1,2.231,5.31,5.56,5.56,0,0,1-.43,1.68,5.666,5.666,0,0,1-.936,1.548,6,6,0,0,1-6.941,1.7,5.652,5.652,0,0,1-1.548-.942,5.716,5.716,0,0,1-1.157-1.295,5.97,5.97,0,0,1-.479-5.74,5.839,5.839,0,0,1,2.716-2.859,4.531,4.531,0,0,1,1.383-.463,14.393,14.393,0,0,0-1.322.578,5.858,5.858,0,0,0-2.556,2.837,5.739,5.739,0,0,0,.518,5.464,5.474,5.474,0,0,0,1.1,1.217,5.275,5.275,0,0,0,1.471.882,5.688,5.688,0,0,0,6.555-1.6,5.283,5.283,0,0,0,.892-1.46,5.542,5.542,0,0,0,.419-1.592,5.742,5.742,0,0,0-2.071-5.09,5.87,5.87,0,0,0-3.581-1.333,12.862,12.862,0,0,0-1.438.1Z" transform="translate(-335.112 -82.79)" fill="#e0e0e0"/>
      <path id="Trazado_116320" data-name="Trazado 116320" d="M494.86,99.218s-.038-.055-.1-.176c-.072-.138-.165-.32-.292-.557-.264-.512-.639-1.25-1.135-2.2l.061.028c-1.361.342-3.151.793-5.316,1.333l.066-.083c.022,1,.044,2.115.072,3.311v.061l-.05.027a13.3,13.3,0,0,0-2.848,2.11l-.05.044-.066-.022c-.981-.325-2.044-.678-3.145-1.041l.143-.05c-.892,1.476-1.84,3.046-2.832,4.693l-.022-.165c.738.71,1.553,1.492,2.385,2.3l.06.061-.022.083a13.468,13.468,0,0,0-.534,3.492v.088l-.083.039c-.92.457-1.928.97-2.958,1.482l.077-.171c.413,1.669.854,3.476,1.311,5.321l-.154-.121c1.03-.017,2.165-.039,3.311-.061h.1l.044.083a13.287,13.287,0,0,0,2.093,2.842l.066.072-.033.093c-.33.986-.683,2.06-1.047,3.146l-.072-.193c1.482.9,3.074,1.862,4.688,2.842l-.209.028c.727-.755,1.509-1.564,2.3-2.385l.072-.072.1.027a13.227,13.227,0,0,0,3.481.535h.1l.044.093c.5,1,.992,1.983,1.476,2.964l-.193-.088q2.7-.661,5.321-1.305l-.127.165c-.016-1.113-.039-2.22-.055-3.311v-.1l.088-.049a13.4,13.4,0,0,0,2.848-2.088l.072-.066.094.033c1.063.358,2.11.705,3.14,1.052l-.187.072q1.454-2.4,2.848-4.682l.027.193q-1.214-1.173-2.379-2.3l-.066-.066.027-.088a13.475,13.475,0,0,0,.545-3.492V112.9l.083-.038,2.963-1.476-.072.16c-.457-1.873-.887-3.641-1.295-5.327l.127.1-3.311.05h-.072l-.033-.061a13.312,13.312,0,0,0-2.088-2.859l-.044-.05.022-.06c.386-1.14.733-2.171,1.058-3.14l.044.116c-1.812-1.107-3.354-2.054-4.671-2.864l.094-.011c-.925.947-1.686,1.724-2.314,2.369l-.022.022-.033-.011a14.093,14.093,0,0,0-2.633-.523c-.286-.022-.5-.038-.661-.055a1.23,1.23,0,0,1-.221-.022s.077-.005.221-.005.369,0,.666.028a13.036,13.036,0,0,1,2.661.474l-.055.016c.623-.655,1.372-1.438,2.286-2.4l.044-.044.05.033c1.327.8,2.881,1.73,4.7,2.82l.066.039-.028.077c-.319.975-.661,2.005-1.041,3.146l-.027-.11a13.6,13.6,0,0,1,2.143,2.9l-.11-.061,3.311-.066h.1l.022.1c.413,1.68.854,3.448,1.316,5.321l.028.11-.1.05-2.958,1.482.083-.127a13.624,13.624,0,0,1-.545,3.57l-.039-.149q1.173,1.132,2.385,2.3l.088.088-.066.1q-1.38,2.289-2.837,4.688l-.066.11-.121-.039c-1.036-.341-2.082-.694-3.146-1.047l.165-.039a13.573,13.573,0,0,1-2.914,2.143l.088-.149c.022,1.091.039,2.2.061,3.311v.132l-.127.033-5.321,1.305-.132.033-.061-.121c-.49-.98-.98-1.966-1.482-2.964l.149.094a13.586,13.586,0,0,1-3.57-.551l.171-.044c-.788.821-1.575,1.63-2.3,2.385l-.094.094-.116-.072c-1.614-.98-3.2-1.945-4.688-2.842l-.11-.066.044-.127c.364-1.085.722-2.159,1.052-3.14l.038.165a13.716,13.716,0,0,1-2.137-2.914l.143.083c-1.146.016-2.281.038-3.31.055h-.127l-.028-.121c-.452-1.851-.892-3.652-1.3-5.327l-.027-.116.11-.055c1.03-.512,2.043-1.019,2.963-1.476l-.083.127a13.522,13.522,0,0,1,.556-3.57l.039.138c-.832-.8-1.641-1.592-2.38-2.308l-.077-.072.055-.088q1.5-2.462,2.853-4.682l.05-.083.088.033c1.1.369,2.159.727,3.14,1.058l-.11.027a13.628,13.628,0,0,1,2.908-2.121l-.05.088c-.016-1.2-.033-2.308-.044-3.311v-.066l.066-.017c2.17-.518,3.966-.947,5.332-1.272l.044-.011.017.039c.463.958.821,1.7,1.074,2.209.116.242.2.435.27.573s.088.2.088.2Z" transform="translate(-314.282 -62.602)" fill="#e0e0e0"/>
      <path id="Trazado_116321" data-name="Trazado 116321" d="M563.217,409.392a4.528,4.528,0,0,1,1.454-.232,5.98,5.98,0,0,1,5.486,3.482,6.078,6.078,0,0,1,.523,3.162,6.059,6.059,0,0,1-1.377,3.261,6.05,6.05,0,0,1-7,1.719,5.766,5.766,0,0,1-1.564-.948,5.562,5.562,0,0,1-1.168-1.305,6.135,6.135,0,0,1-1-3.046,6,6,0,0,1,3.255-5.63,4.522,4.522,0,0,1,1.393-.468,13.771,13.771,0,0,0-1.333.584,5.923,5.923,0,0,0-2.583,2.864,5.789,5.789,0,0,0,.523,5.52,5.475,5.475,0,0,0,1.113,1.228,5.59,5.59,0,0,0,1.482.892,5.75,5.75,0,0,0,6.621-1.625,5.33,5.33,0,0,0,.9-1.476,5.44,5.44,0,0,0,.419-1.6,5.822,5.822,0,0,0-.468-3.013,5.752,5.752,0,0,0-1.62-2.121,5.9,5.9,0,0,0-3.613-1.344,13.058,13.058,0,0,0-1.449.1Z" transform="translate(-367.271 -268.38)" fill="#ebebeb"/>
      <path id="Trazado_116322" data-name="Trazado 116322" d="M543.638,381.167a1.812,1.812,0,0,1-.1-.182c-.072-.138-.171-.32-.292-.562-.264-.518-.644-1.262-1.146-2.225l.061.027c-1.372.347-3.178.8-5.365,1.35l.066-.083c.022,1.014.044,2.137.072,3.344v.061l-.049.027A13.332,13.332,0,0,0,534,385.05l-.05.05-.066-.022c-.991-.325-2.06-.683-3.173-1.052l.143-.05c-.9,1.493-1.856,3.074-2.859,4.737l-.022-.165c.744.716,1.57,1.509,2.407,2.319l.061.061-.022.083a13.248,13.248,0,0,0-.535,3.526v.088l-.082.039c-.925.463-1.95.975-2.986,1.5l.077-.171c.413,1.686.865,3.509,1.322,5.371l-.154-.121c1.041-.017,2.182-.039,3.344-.061h.1l.05.083a13.388,13.388,0,0,0,2.11,2.87l.072.072-.033.094c-.33.991-.694,2.076-1.057,3.173l-.072-.193c1.5.909,3.1,1.878,4.732,2.864l-.209.028c.733-.76,1.526-1.581,2.319-2.407l.072-.072.1.027a13.436,13.436,0,0,0,3.515.54h.1l.044.094q.752,1.5,1.493,2.991l-.193-.088q2.727-.669,5.371-1.316l-.127.165c-.016-1.124-.038-2.237-.055-3.344v-.1l.088-.05a13.342,13.342,0,0,0,2.87-2.1l.072-.072.094.033c1.074.358,2.126.711,3.173,1.063l-.187.072q1.471-2.421,2.875-4.726l.028.193q-1.223-1.181-2.4-2.325l-.066-.066.027-.088a13.268,13.268,0,0,0,.546-3.525v-.088l.083-.038c1.025-.512,2.022-1,2.991-1.487l-.072.16c-.457-1.889-.892-3.674-1.305-5.376l.127.1-3.344.05h-.072l-.033-.066a13.37,13.37,0,0,0-2.11-2.886l-.049-.05.022-.066c.391-1.151.738-2.187,1.068-3.167l.044.116c-1.829-1.118-3.382-2.071-4.715-2.886l.094-.011c-.936.953-1.7,1.74-2.336,2.391l-.022.022-.033-.011a14.494,14.494,0,0,0-2.661-.529c-.286-.022-.506-.044-.666-.055a1.121,1.121,0,0,1-.22-.022s.077-.005.22-.005.375,0,.672.027a12.99,12.99,0,0,1,2.683.479l-.055.016c.628-.661,1.382-1.454,2.308-2.418l.044-.044.055.033c1.338.8,2.9,1.746,4.743,2.848l.066.039-.028.077c-.325.98-.667,2.022-1.047,3.173l-.027-.11a13.715,13.715,0,0,1,2.159,2.925l-.11-.066c1.063-.022,2.165-.044,3.344-.066h.1l.028.1c.419,1.7.859,3.481,1.328,5.371l.027.11-.1.05c-.969.485-1.961.986-2.986,1.5l.083-.127a13.647,13.647,0,0,1-.551,3.6l-.039-.154q1.182,1.14,2.407,2.319l.088.088-.066.1q-1.4,2.306-2.864,4.732l-.066.11-.121-.039-3.173-1.058.165-.039A13.5,13.5,0,0,1,550,406.9l.088-.149c.022,1.1.038,2.214.061,3.344v.132l-.127.033c-1.763.435-3.559.87-5.371,1.316l-.132.033-.061-.121c-.5-.986-.991-1.989-1.493-2.991l.149.094a13.648,13.648,0,0,1-3.608-.556l.171-.044c-.8.826-1.592,1.647-2.325,2.407l-.093.1-.116-.072c-1.625-.986-3.234-1.961-4.726-2.87l-.116-.072.044-.127c.364-1.1.727-2.176,1.063-3.173l.039.165a13.774,13.774,0,0,1-2.159-2.941l.143.083c-1.157.017-2.3.039-3.344.055h-.127l-.028-.121c-.457-1.867-.9-3.685-1.311-5.376l-.027-.116.11-.055c1.041-.518,2.066-1.025,2.991-1.487l-.083.127a13.732,13.732,0,0,1,.562-3.6l.038.143c-.837-.815-1.658-1.609-2.4-2.325l-.077-.077.055-.094q1.512-2.487,2.881-4.721l.05-.083.094.033c1.113.375,2.181.733,3.167,1.069l-.11.027a13.89,13.89,0,0,1,2.936-2.143l-.05.088c-.016-1.206-.033-2.33-.044-3.344v-.072l.066-.016c2.193-.523,4-.959,5.382-1.284l.044-.011.016.039c.468.97.832,1.713,1.079,2.231.116.248.21.435.276.578s.088.2.088.2Z" transform="translate(-346.254 -247.96)" fill="#ebebeb"/>
      <path id="Trazado_116323" data-name="Trazado 116323" d="M59.32,679.948v16.988h52.253V679.948Z" transform="translate(-39.005 -446.433)" fill="#f5f5f5"/>
      <path id="Trazado_116324" data-name="Trazado 116324" d="M52.918,666.083v4.748h56.269v-4.748H52.918Z" transform="translate(-34.796 -437.316)" fill="#e0e0e0"/>
      <path id="Trazado_116325" data-name="Trazado 116325" d="M132.974,687.819h26.308V670.831h1.823v-4.748H131.878v4.308Z" transform="translate(-86.714 -437.316)" fill="#e0e0e0"/>
      <path id="Trazado_116326" data-name="Trazado 116326" d="M91.263,687.942h-10.6V690.5h10.6Z" transform="translate(-53.04 -451.689)" fill="#e0e0e0"/>
      <path id="Trazado_116327" data-name="Trazado 116327" d="M90.281,704.751H76.675v5.4H90.281Z" transform="translate(-50.417 -462.742)" fill="#fff"/>
      <path id="Trazado_116328" data-name="Trazado 116328" d="M82.8,616.527v16.994h52.247V616.527Z" transform="translate(-54.446 -404.732)" fill="#f5f5f5"/>
      <path id="Trazado_116329" data-name="Trazado 116329" d="M76.4,602.662v4.748h56.263v-4.748H76.4Z" transform="translate(-50.237 -395.615)" fill="#e0e0e0"/>
      <path id="Trazado_116330" data-name="Trazado 116330" d="M156.441,624.4h26.308V607.41h1.823v-4.748H155.345v4.313Z" transform="translate(-102.145 -395.615)" fill="#e0e0e0"/>
      <path id="Trazado_116331" data-name="Trazado 116331" d="M114.73,624.537h-10.6v2.556h10.6Z" transform="translate(-68.47 -409.998)" fill="#e0e0e0"/>
      <path id="Trazado_116332" data-name="Trazado 116332" d="M113.765,641.345H100.159v5.4h13.606Z" transform="translate(-65.858 -421.05)" fill="#fff"/>
      <path id="Trazado_116333" data-name="Trazado 116333" d="M254.11,729.278c0,.077-56.891.143-127.047.143S0,729.355,0,729.278s56.875-.143,127.063-.143S254.11,729.2,254.11,729.278Z" transform="translate(0 -478.775)" fill="#263238"/>
      <path id="Trazado_116334" data-name="Trazado 116334" d="M71.963,36.281a26.435,26.435,0,0,1,6.478-2.787L79.8,27.1l10.819-.154L92.152,33.3a26.434,26.434,0,0,1,6.555,2.606l5.481-3.564,7.756,7.541-3.41,5.575a26.437,26.437,0,0,1,2.787,6.478l6.4,1.355.154,10.819-6.357,1.537a26.426,26.426,0,0,1-2.605,6.555l3.564,5.481-7.541,7.756-5.574-3.41a26.438,26.438,0,0,1-6.478,2.787l-1.355,6.4L80.7,91.366l-1.537-6.357A26.525,26.525,0,0,1,72.613,82.4l-5.481,3.564-7.756-7.541,3.41-5.575A26.435,26.435,0,0,1,60,66.374l-6.4-1.355L53.449,54.2l6.357-1.537a26.518,26.518,0,0,1,2.605-6.555l-3.564-5.481,7.541-7.756,5.58,3.41Z" transform="translate(-35.145 -17.061)" fill="#00cca7" fill-rule="evenodd"/>
      <path id="Trazado_116335" data-name="Trazado 116335" d="M129.925,93.469a14.6,14.6,0,0,0-.347-2.275,8.994,8.994,0,0,0-1.047-2.468A9.259,9.259,0,0,0,117.41,84.8a8.809,8.809,0,0,0-2.336,1.256,9.939,9.939,0,0,0-1.047.892,10.613,10.613,0,0,0-.9,1.069,9.193,9.193,0,0,0,0,10.9,8.512,8.512,0,0,0,1.95,1.961,8.673,8.673,0,0,0,2.336,1.262,9.287,9.287,0,0,0,11.122-3.928,8.992,8.992,0,0,0,1.047-2.468,14.6,14.6,0,0,0,.347-2.275s.005.05.005.154,0,.264-.005.446a4.081,4.081,0,0,1-.061.722,6.964,6.964,0,0,1-.176.975,8.934,8.934,0,0,1-1.014,2.523,9.432,9.432,0,0,1-6.357,4.489,9.455,9.455,0,0,1-4.985-.4,9.01,9.01,0,0,1-2.407-1.289,8.582,8.582,0,0,1-2.011-2.016,9.453,9.453,0,0,1,0-11.237,8.584,8.584,0,0,1,2.011-2.016,9.012,9.012,0,0,1,2.407-1.289,9.516,9.516,0,0,1,4.985-.4,9.433,9.433,0,0,1,6.357,4.489,8.867,8.867,0,0,1,1.014,2.523,6.349,6.349,0,0,1,.176.975,4.159,4.159,0,0,1,.061.722c0,.182.005.33.005.446a.683.683,0,0,1-.005.154Z" transform="translate(-73.028 -54.562)" fill="#fff"/>
      <path id="Trazado_116336" data-name="Trazado 116336" d="M157.517,131.612c.055-.055,2.1,1.895,4.555,4.352s4.412,4.5,4.357,4.555-2.1-1.895-4.555-4.357-4.412-4.5-4.352-4.555Z" transform="translate(-103.573 -85.88)" fill="#fff"/>
      <path id="Trazado_116337" data-name="Trazado 116337" d="M277.794,150.719a34.22,34.22,0,0,1,8.312-3.58l1.741-8.213,13.881-.193,1.972,8.158a33.9,33.9,0,0,1,8.411,3.344l7.034-4.572,9.954,9.678-4.374,7.155a34.177,34.177,0,0,1,3.581,8.318l8.213,1.74.2,13.882-8.158,1.972a33.909,33.909,0,0,1-3.344,8.411l4.578,7.034-9.678,9.954-7.161-4.374a34.173,34.173,0,0,1-8.318,3.581l-1.741,8.213-13.881.2-1.972-8.158a33.88,33.88,0,0,1-8.411-3.344L271.6,214.5l-9.954-9.678,4.374-7.155a34.159,34.159,0,0,1-3.581-8.318l-8.213-1.74-.2-13.882,8.158-1.972a33.9,33.9,0,0,1,3.344-8.411l-4.572-7.034,9.678-9.954,7.161,4.374Z" transform="translate(-167.03 -90.566)" fill="#00cca7" fill-rule="evenodd"/>
      <path id="Trazado_116338" data-name="Trazado 116338" d="M342.371,242.218s.061,0,.165-.005c.121,0,.275,0,.474-.011.43,0,1.036-.011,1.823-.022l6.809-.049-.083.088c-.028-1.173-.061-2.49-.094-3.895v-.066l.061-.027a20.976,20.976,0,0,0,5.828-3.988,14.783,14.783,0,0,0,2.445-3.135,10.725,10.725,0,0,0,1.344-3.983,13.244,13.244,0,0,0-2.082-8.725,15.85,15.85,0,0,0-7.6-6.059,13.075,13.075,0,0,0-7.293-.507,14.306,14.306,0,0,0-6.335,2.925,12.923,12.923,0,0,0-3.823,5.283c-.171.5-.386.98-.512,1.482s-.242,1-.363,1.493a15.89,15.89,0,0,0-.259,2.941,13.71,13.71,0,0,0,.347,2.771,12.83,12.83,0,0,0,.892,2.468A14.2,14.2,0,0,0,336.868,235a18.8,18.8,0,0,0,5.685,3.884l.033.016v.033q-.1,1.594-.149,2.429c-.017.264-.033.474-.044.623a1.285,1.285,0,0,1-.022.215V242c0-.149.011-.353.016-.612.022-.567.05-1.388.088-2.462l.033.049a18.563,18.563,0,0,1-5.767-3.856,14.4,14.4,0,0,1-2.809-3.839,12.76,12.76,0,0,1-.92-2.506,13.789,13.789,0,0,1-.369-2.821,16.411,16.411,0,0,1,.253-2.991c.121-.5.242-1,.364-1.515s.341-1,.512-1.509a13.144,13.144,0,0,1,3.889-5.4,14.658,14.658,0,0,1,6.456-3,13.325,13.325,0,0,1,7.448.518,16.1,16.1,0,0,1,7.734,6.175,13.156,13.156,0,0,1,1.856,4.374,15.223,15.223,0,0,1,.32,2.28c.011.38.033.76.033,1.135l-.1,1.118a10.918,10.918,0,0,1-1.388,4.071,14.979,14.979,0,0,1-2.5,3.178,21.122,21.122,0,0,1-5.916,4l.061-.094c.022,1.41.044,2.727.066,3.9v.088h-.083l-6.863-.05c-.777-.011-1.383-.016-1.807-.022l-.457-.011a.54.54,0,0,1-.149-.005Z" transform="translate(-218.723 -138.245)" fill="#fff"/>
      <path id="Trazado_116339" data-name="Trazado 116339" d="M370.227,308.939a40.3,40.3,0,0,1-4.765.143,38.916,38.916,0,0,1-4.765-.143,40.128,40.128,0,0,1,4.765-.143A38.757,38.757,0,0,1,370.227,308.939Z" transform="translate(-237.171 -202.387)" fill="#fff"/>
      <path id="Trazado_116340" data-name="Trazado 116340" d="M373.065,319.474a3.666,3.666,0,0,1-1.686.2,3.729,3.729,0,0,1-1.675-.3,7.805,7.805,0,0,1,1.68.017A8.161,8.161,0,0,1,373.065,319.474Z" transform="translate(-243.093 -209.315)" fill="#fff"/>
      <path id="Trazado_116341" data-name="Trazado 116341" d="M363.333,267.9s-.005-.055-.011-.16v-.463c.005-.424.017-1.019.028-1.774.038-1.559.088-3.779.154-6.516.039-1.377.077-2.881.121-4.5a2.984,2.984,0,0,0-.16-1.168.759.759,0,0,0-.837-.556,1.108,1.108,0,0,0-.738.832,1.707,1.707,0,0,0,.154,1.212,2.763,2.763,0,0,0,2.126,1.416,2.83,2.83,0,0,0,2.479-.992,4.218,4.218,0,0,0,1.041-2.666,2.509,2.509,0,0,0-.292-1.41,1.037,1.037,0,0,0-1.168-.5,1.054,1.054,0,0,0-.557,1.146,2.826,2.826,0,0,0,.661,1.294,5.286,5.286,0,0,0,2.3,1.774,2.979,2.979,0,0,0,1.383.165,2.79,2.79,0,0,0,1.256-.523,2.161,2.161,0,0,0,.788-1.047,1.608,1.608,0,0,0-.072-1.239,1.061,1.061,0,0,0-.942-.639,1.309,1.309,0,0,0-.986.59,5.613,5.613,0,0,0-.578,2.352c-.176,1.6-.292,3.106-.391,4.478-.182,2.727-.336,4.947-.441,6.5-.05.749-.088,1.344-.121,1.768-.016.187-.027.342-.038.457a.642.642,0,0,1-.022.154s-.005-.055-.005-.16c0-.121,0-.27.011-.463.017-.424.039-1.019.066-1.774.066-1.537.171-3.762.347-6.511.093-1.372.193-2.875.358-4.489.05-.4.088-.81.16-1.234a3.039,3.039,0,0,1,.446-1.239,1.564,1.564,0,0,1,1.19-.705,1.324,1.324,0,0,1,1.179.777,1.848,1.848,0,0,1,.094,1.443,2.429,2.429,0,0,1-.881,1.179,3.03,3.03,0,0,1-1.383.578,3.16,3.16,0,0,1-1.515-.176,5.6,5.6,0,0,1-2.429-1.862,3.162,3.162,0,0,1-.722-1.427,1.331,1.331,0,0,1,.744-1.454,1.317,1.317,0,0,1,1.51.617,2.853,2.853,0,0,1,.336,1.57,4.5,4.5,0,0,1-1.118,2.842,3.1,3.1,0,0,1-2.721,1.074,3.019,3.019,0,0,1-2.33-1.57,1.99,1.99,0,0,1-.165-1.4,1.362,1.362,0,0,1,.942-1.014.915.915,0,0,1,.705.16,1.174,1.174,0,0,1,.408.556,3.256,3.256,0,0,1,.171,1.262c-.055,1.614-.1,3.123-.154,4.5-.1,2.732-.187,4.952-.242,6.511q-.049,1.132-.083,1.768c-.011.187-.022.341-.027.463a.4.4,0,0,1-.022.154Z" transform="translate(-237.747 -163.93)" fill="#fff"/>
      <path id="Trazado_116342" data-name="Trazado 116342" d="M371.214,314.214a52.2,52.2,0,0,1-7.734,0,52.287,52.287,0,0,1,7.734,0Z" transform="translate(-239 -205.856)" fill="#fff"/>
      <path id="Trazado_116343" data-name="Trazado 116343" d="M560.525,223.058a22.044,22.044,0,0,1,5.36-2.407l1.047-5.343,9.006-.27,1.361,5.272a22.026,22.026,0,0,1,5.492,2.082l4.517-3.041,6.555,6.18-2.765,4.688a22.038,22.038,0,0,1,2.407,5.36l5.343,1.047.27,9.006-5.272,1.361a22,22,0,0,1-2.082,5.492L594.8,257l-6.175,6.555-4.688-2.765a22.03,22.03,0,0,1-5.36,2.407l-1.047,5.343-9.006.27-1.36-5.272a22,22,0,0,1-5.492-2.082l-4.517,3.041-6.555-6.18,2.765-4.688a22.024,22.024,0,0,1-2.407-5.36l-5.343-1.047-.27-9.007,5.272-1.361a22.018,22.018,0,0,1,2.082-5.492l-3.04-4.517,6.175-6.555Z" transform="translate(-358.585 -140.739)" fill="#00cca7" fill-rule="evenodd"/>
      <path id="Trazado_116344" data-name="Trazado 116344" d="M615.452,282.645a3.774,3.774,0,0,1-.435.028c-.314.005-.733.016-1.25.027-1.118.011-2.683.027-4.605.044l-15.2.044h-1.228v-.143c.016-5.679.033-10.769.044-14.476.017-1.818.033-3.294.044-4.352.011-.49.022-.882.027-1.179a2.337,2.337,0,0,1,.028-.408,2.427,2.427,0,0,1,.027.408c.005.3.017.688.028,1.179.011,1.052.027,2.534.044,4.352.011,3.707.028,8.8.044,14.476l-.143-.143h1.085l15.2.044c1.923.016,3.487.033,4.605.044.523.011.942.022,1.25.028A2.676,2.676,0,0,1,615.452,282.645Z" transform="translate(-389.743 -171.77)" fill="#fff"/>
      <path id="Trazado_116345" data-name="Trazado 116345" d="M617.248,276.679s-.226.242-.672.645c-.485.429-1.129.991-1.906,1.674-1.62,1.4-3.867,3.327-6.357,5.437l-.38.32-.1.083-.094-.088c-1-.926-1.95-1.812-2.826-2.628h.176c-1.663,1.377-3.1,2.556-4.153,3.432-.49.391-.892.711-1.207.964a2.107,2.107,0,0,1-.452.32,2.425,2.425,0,0,1,.4-.391q.454-.4,1.157-1.025c1.041-.892,2.446-2.1,4.087-3.5l.088-.077.088.083c.881.815,1.84,1.691,2.842,2.611h-.187l.38-.325c2.5-2.11,4.765-4.01,6.412-5.376.8-.655,1.465-1.2,1.966-1.6a5.579,5.579,0,0,1,.744-.556Z" transform="translate(-394.046 -181.265)" fill="#fff"/>
      <path id="Trazado_116346" data-name="Trazado 116346" d="M641.522,280.936a7.269,7.269,0,0,1-.1-1.41c-.028-.876-.044-2.082-.044-3.432l.143.143h-.242c-1.4,0-2.677-.016-3.6-.044a8.08,8.08,0,0,1-1.487-.1,7.526,7.526,0,0,1,1.487-.1c.92-.027,2.192-.044,3.6-.044h.386v.143c0,1.35-.016,2.561-.044,3.432A7.247,7.247,0,0,1,641.522,280.936Z" transform="translate(-418.32 -180.791)" fill="#fff"/>
      <path id="Trazado_116347" data-name="Trazado 116347" d="M224.317,318.09a9.524,9.524,0,0,1-1-3.151,9.524,9.524,0,0,1,1,3.151Z" transform="translate(-146.824 -206.427)" fill="#263238"/>
      <path id="Trazado_116348" data-name="Trazado 116348" d="M237.021,347.592a22.242,22.242,0,0,1-3.288-5.712,29.459,29.459,0,0,1,1.68,2.837A30.6,30.6,0,0,1,237.021,347.592Z" transform="translate(-153.684 -224.141)" fill="#263238"/>
      <path id="Trazado_116349" data-name="Trazado 116349" d="M259.574,378.59a21.767,21.767,0,0,1-4.622-4.7,29.523,29.523,0,0,1,2.336,2.325,31.189,31.189,0,0,1,2.286,2.374Z" transform="translate(-167.638 -245.186)" fill="#263238"/>
      <path id="Trazado_116350" data-name="Trazado 116350" d="M289.314,402.79a13.361,13.361,0,0,1-2.975-1.438,14.064,14.064,0,0,1-2.721-1.878,32.5,32.5,0,0,1,2.864,1.63A29.108,29.108,0,0,1,289.314,402.79Z" transform="translate(-186.487 -262.009)" fill="#263238"/>
      <path id="Trazado_116351" data-name="Trazado 116351" d="M324.479,417.934a18.044,18.044,0,0,1-3.266-.518,18.749,18.749,0,0,1-3.14-1.036,18.979,18.979,0,0,1,3.206.754,19.637,19.637,0,0,1,3.195.793Z" transform="translate(-209.144 -273.122)" fill="#263238"/>
      <path id="Trazado_116352" data-name="Trazado 116352" d="M362.525,421.738a22.283,22.283,0,0,1-6.588.292,29.077,29.077,0,0,1,3.288-.187,31.042,31.042,0,0,1,3.294-.1Z" transform="translate(-234.041 -276.633)" fill="#263238"/>
      <path id="Trazado_116353" data-name="Trazado 116353" d="M400.5,413.473a14.5,14.5,0,0,1-3.112,1.113,14.824,14.824,0,0,1-3.239.667,29.018,29.018,0,0,1,3.162-.942A27.228,27.228,0,0,1,400.5,413.473Z" transform="translate(-259.169 -271.21)" fill="#263238"/>
      <path id="Trazado_116354" data-name="Trazado 116354" d="M436.369,397.181a14.415,14.415,0,0,1-2.787,1.774,15.082,15.082,0,0,1-3.013,1.355,28.114,28.114,0,0,1,2.881-1.6,29.442,29.442,0,0,1,2.925-1.52Z" transform="translate(-283.113 -260.504)" fill="#263238"/>
      <path id="Trazado_116355" data-name="Trazado 116355" d="M468.071,373.017a21.076,21.076,0,0,1-4.837,4.478,31.376,31.376,0,0,1,2.4-2.258C466.969,374.009,468.01,372.962,468.071,373.017Z" transform="translate(-304.591 -244.614)" fill="#263238"/>
      <path id="Trazado_116356" data-name="Trazado 116356" d="M492.486,341.092a13.893,13.893,0,0,1-1.355,3.013,12.67,12.67,0,0,1-1.829,2.754c-.066-.044.705-1.3,1.576-2.892A29.8,29.8,0,0,1,492.486,341.092Z" transform="translate(-321.73 -223.623)" fill="#263238"/>
      <path id="Trazado_116357" data-name="Trazado 116357" d="M507.807,304.934a19.006,19.006,0,0,1-.893,3.178,18.419,18.419,0,0,1-1.168,3.085,18.856,18.856,0,0,1,.892-3.178A18.363,18.363,0,0,1,507.807,304.934Z" transform="translate(-332.539 -199.849)" fill="#263238"/>
      <path id="Trazado_116358" data-name="Trazado 116358" d="M519.8,268.455a23.775,23.775,0,0,1-1.014,3.14,18.825,18.825,0,0,1-1.218,3.068,18.807,18.807,0,0,1,.948-3.162c.286-.865.606-1.625.843-2.176a3.075,3.075,0,0,1,.441-.865Z" transform="translate(-340.314 -175.862)" fill="#263238"/>
      <path id="Trazado_116359" data-name="Trazado 116359" d="M535,233.984a30.8,30.8,0,0,1-1.559,2.9,27.046,27.046,0,0,1-1.647,2.859,14.491,14.491,0,0,1,1.393-3A13.934,13.934,0,0,1,535,233.984Z" transform="translate(-349.669 -153.196)" fill="#263238"/>
      <path id="Trazado_116360" data-name="Trazado 116360" d="M557.564,205.558c.05.066-1.107.98-2.435,2.214s-2.341,2.308-2.4,2.253a12.483,12.483,0,0,1,2.209-2.462,12.138,12.138,0,0,1,2.633-2.005Z" transform="translate(-363.436 -134.503)" fill="#263238"/>
      <path id="Trazado_116361" data-name="Trazado 116361" d="M589.634,189.3a32.281,32.281,0,0,1-3.1,1.124c-1.708.612-3.068,1.184-3.1,1.107a13.144,13.144,0,0,1,3.007-1.377,13.373,13.373,0,0,1,3.195-.854Z" transform="translate(-383.629 -123.808)" fill="#263238"/>
      <path id="Trazado_116362" data-name="Trazado 116362" d="M627,184.705c0,.083-1.476.044-3.294.11s-3.283.182-3.294.1a13.132,13.132,0,0,1,3.283-.386,12.561,12.561,0,0,1,3.3.176Z" transform="translate(-407.944 -120.668)" fill="#263238"/>
      <path id="Trazado_116363" data-name="Trazado 116363" d="M664.841,190.313a30.131,30.131,0,0,1-3.112-1.074,31.415,31.415,0,0,1-3.1-1.129,13.677,13.677,0,0,1,3.195.859,13.981,13.981,0,0,1,3.019,1.344Z" transform="translate(-433.073 -123.026)" fill="#263238"/>
      <path id="Trazado_116364" data-name="Trazado 116364" d="M699.222,207.229c-.055.061-1.212-.848-2.694-1.9s-2.716-1.862-2.672-1.928a13.457,13.457,0,0,1,2.837,1.7A13.317,13.317,0,0,1,699.222,207.229Z" transform="translate(-456.234 -133.084)" fill="#263238"/>
      <path id="Trazado_116365" data-name="Trazado 116365" d="M725.067,230.828a5.836,5.836,0,0,1-1.058-1.267,5.744,5.744,0,0,1-.9-1.388,7.288,7.288,0,0,1,1.961,2.655Z" transform="translate(-475.463 -149.373)" fill="#263238"/>
      <path id="Trazado_116366" data-name="Trazado 116366" d="M21.157,34.225s.028-.171.1-.5.187-.821.33-1.46a37.482,37.482,0,0,1,1.834-5.448,41.193,41.193,0,0,1,4.561-7.861,45.117,45.117,0,0,1,8.406-8.6A44.605,44.605,0,0,1,49.2,3.422a46.823,46.823,0,0,1,7.916-1.911,51.919,51.919,0,0,1,8.61-.5,44.694,44.694,0,0,1,9,1.14A38.968,38.968,0,0,1,91.8,10.737a38.647,38.647,0,0,1,6.77,7.475,37.4,37.4,0,0,1,4.539,9.012,42.547,42.547,0,0,1,2.066,9.579c.061.8.149,1.6.182,2.4.016.8.039,1.592.055,2.379s-.044,1.576-.061,2.358c-.072.782-.121,1.559-.226,2.324a34.65,34.65,0,0,1-2.368,8.759,67.972,67.972,0,0,1-3.911,7.7q-2.124,3.619-4.109,7.018A41.3,41.3,0,0,0,89.93,83.394a60.462,60.462,0,0,0-.782,6.3c-.154,2-.215,3.895-.226,5.663a62.468,62.468,0,0,0,.43,9.061,36.456,36.456,0,0,0,1.256,5.591c.2.622.375,1.1.5,1.4.061.16.116.27.149.353a.879.879,0,0,1,.044.121,13.077,13.077,0,0,1-.749-1.857,34.933,34.933,0,0,1-1.317-5.6,62.024,62.024,0,0,1-.479-9.078c0-1.774.061-3.669.2-5.679a60.6,60.6,0,0,1,.76-6.324,41.44,41.44,0,0,1,4.8-13.743q1.983-3.4,4.1-7.023a67.87,67.87,0,0,0,3.889-7.668,34.82,34.82,0,0,0,2.341-8.692c.1-.76.149-1.537.221-2.308.016-.776.066-1.559.06-2.341s-.038-1.575-.055-2.368c-.039-.793-.127-1.586-.182-2.379a42.14,42.14,0,0,0-2.055-9.513,36.825,36.825,0,0,0-4.506-8.94,38.43,38.43,0,0,0-6.72-7.42,39.937,39.937,0,0,0-8.1-5.393,40.369,40.369,0,0,0-8.858-3.134,44.12,44.12,0,0,0-8.946-1.14,50.922,50.922,0,0,0-8.571.485,46.823,46.823,0,0,0-7.872,1.889A44.586,44.586,0,0,0,36.5,10.528a45.039,45.039,0,0,0-8.4,8.538,41.342,41.342,0,0,0-4.583,7.811,39.444,39.444,0,0,0-1.878,5.415c-.154.633-.275,1.118-.358,1.449s-.132.49-.132.49Z" transform="translate(-13.908 0)" fill="#263238"/>
      <path id="Trazado_116367" data-name="Trazado 116367" d="M412.651,671.767l8.268,2.9-.088,7.949c-3.955,1.118-4.512,3.118-4.512,3.118l8.274-.187,7.2-14.636-5.7-3.724-10.642-4.654" transform="translate(-271.332 -434.979)" fill="#00cca7"/>
      <g id="Grupo_81563" data-name="Grupo 81563" transform="translate(144.987 235.135)" opacity="0.6">
        <path id="Trazado_116368" data-name="Trazado 116368" d="M438.831,685.47l-7.2,14.636-8.268.187.9-1.261,6.715-.523,6.637-13.832Z" transform="translate(-423.363 -684.677)" fill="#fff"/>
      </g>
      <path id="Trazado_116369" data-name="Trazado 116369" d="M436.44,709.489c.061.083.535-.2,1.173-.193.639-.016,1.119.259,1.179.177.077-.066-.4-.551-1.179-.54S436.363,709.428,436.44,709.489Z" transform="translate(-286.969 -465.491)" fill="#263238"/>
      <path id="Trazado_116370" data-name="Trazado 116370" d="M436.68,702.906c.083.055.44-.441,1.1-.584s1.19.149,1.245.061c.027-.039-.072-.176-.309-.3a1.547,1.547,0,0,0-1.884.419c-.16.209-.193.375-.149.4Z" transform="translate(-287.12 -460.886)" fill="#263238"/>
      <path id="Trazado_116371" data-name="Trazado 116371" d="M436.354,695.311c.094.044.364-.441.936-.656s1.091-.039,1.135-.127c.022-.044-.088-.154-.32-.237a1.394,1.394,0,0,0-.942.028,1.429,1.429,0,0,0-.722.606c-.121.215-.127.369-.083.386Z" transform="translate(-286.905 -455.82)" fill="#263238"/>
      <path id="Trazado_116372" data-name="Trazado 116372" d="M434.242,693.359c.1-.027.038-.545.286-1.107.231-.568.65-.881.6-.97-.027-.093-.644.138-.936.832s-.044,1.294.05,1.25Z" transform="translate(-285.404 -453.872)" fill="#263238"/>
      <path id="Trazado_116373" data-name="Trazado 116373" d="M429.509,687.79a3.563,3.563,0,0,0,.193-1.113c.038-.4.072-.8.11-1.212a2.765,2.765,0,0,0,0-.771.676.676,0,0,0-.292-.413.519.519,0,0,0-.562.022,1.512,1.512,0,0,0-.468.733,2.869,2.869,0,0,0-.149.749,2.777,2.777,0,0,0,.22,1.25c.3.672.711.914.727.887a9.039,9.039,0,0,1-.485-.975,2.914,2.914,0,0,1-.127-1.135,2.772,2.772,0,0,1,.149-.65,1.313,1.313,0,0,1,.341-.556.142.142,0,0,1,.171-.011.32.32,0,0,1,.138.193,2.878,2.878,0,0,1,.011.661c-.011.413-.022.815-.033,1.217a3.627,3.627,0,0,0,.061,1.124Z" transform="translate(-281.646 -449.234)" fill="#263238"/>
      <path id="Trazado_116374" data-name="Trazado 116374" d="M425.185,694.421c.033-.022-.21-.386-.848-.589a2.068,2.068,0,0,0-2.347.837.387.387,0,0,0,.033.32.421.421,0,0,0,.215.176,1.254,1.254,0,0,0,.386.077,3.947,3.947,0,0,0,.672,0,3.461,3.461,0,0,0,1.1-.281c.595-.259.865-.562.837-.6-.033-.049-.352.171-.931.353a4.381,4.381,0,0,1-1.03.187,4.533,4.533,0,0,1-.611-.017,1.108,1.108,0,0,1-.281-.055c-.072-.044-.049-.028-.049-.055a.633.633,0,0,1,.165-.2,1.963,1.963,0,0,1,.242-.193,2.237,2.237,0,0,1,.529-.259,2.042,2.042,0,0,1,1-.055,7.908,7.908,0,0,1,.909.342Z" transform="translate(-277.459 -455.502)" fill="#263238"/>
      <g id="Grupo_81564" data-name="Grupo 81564" transform="translate(153.851 234.821)" opacity="0.6">
        <path id="Trazado_116375" data-name="Trazado 116375" d="M449.244,684.763a.981.981,0,1,0,.958-1A.983.983,0,0,0,449.244,684.763Z" transform="translate(-449.243 -683.76)" fill="#fff"/>
      </g>
      <path id="Trazado_116376" data-name="Trazado 116376" d="M267.615,679.776l.11,10.83s-10.973,3.751-11.143,5.756l21.009.534.518-16.883-10.494-.242Z" transform="translate(-168.711 -446.317)" fill="#00cca7"/>
      <g id="Grupo_81565" data-name="Grupo 81565" transform="translate(104.492 243.504)" opacity="0.6">
        <path id="Trazado_116377" data-name="Trazado 116377" d="M306.161,709.157a.856.856,0,0,1,.567.991.824.824,0,0,1-.98.573.9.9,0,0,1-.595-1.057.851.851,0,0,1,1.085-.479" transform="translate(-305.117 -709.115)" fill="#fff"/>
      </g>
      <g id="Grupo_81566" data-name="Grupo 81566" transform="translate(87.859 248.884)" opacity="0.6">
        <path id="Trazado_116378" data-name="Trazado 116378" d="M277.57,726.526l-.017-1.7-20.139.121s-.948.386-.859,1.047l21.009.534Z" transform="translate(-256.549 -724.824)" fill="#fff"/>
      </g>
      <path id="Trazado_116379" data-name="Trazado 116379" d="M288.139,710.924c0,.1.512.16,1.008.507.507.33.755.782.848.743.094-.016-.044-.633-.65-1.041S288.117,710.831,288.139,710.924Z" transform="translate(-189.461 -466.745)" fill="#263238"/>
      <path id="Trazado_116380" data-name="Trazado 116380" d="M281.64,713.506c-.028.1.413.287.749.727.353.435.424.9.529.9.094.017.182-.578-.248-1.124S281.645,713.407,281.64,713.506Z" transform="translate(-185.187 -468.473)" fill="#263238"/>
      <path id="Trazado_116381" data-name="Trazado 116381" d="M276.286,717.753c.093.022.248-.485,0-1.052s-.722-.8-.771-.721.242.391.44.865S276.181,717.742,276.286,717.753Z" transform="translate(-181.155 -470.114)" fill="#263238"/>
      <path id="Trazado_116382" data-name="Trazado 116382" d="M288.857,703.2c.038.094.512-.033,1.1.016s1.024.248,1.079.16c.061-.072-.369-.463-1.052-.518s-1.173.253-1.124.336Z" transform="translate(-189.931 -461.489)" fill="#263238"/>
      <g id="Grupo_81567" data-name="Grupo 81567" transform="translate(98.926 235.609)" opacity="0.3">
        <path id="Trazado_116383" data-name="Trazado 116383" d="M288.864,686.061l.022,1.928,10.323.171.061-1.735Z" transform="translate(-288.864 -686.061)"/>
      </g>
      <path id="Trazado_116384" data-name="Trazado 116384" d="M288.912,694.367a1.968,1.968,0,0,0,1.052.022,4.838,4.838,0,0,0,1.107-.309,5.235,5.235,0,0,0,.612-.3,1.41,1.41,0,0,0,.325-.237.451.451,0,0,0,.061-.546.575.575,0,0,0-.441-.248,1.244,1.244,0,0,0-.4.044,3.407,3.407,0,0,0-.661.21,3.688,3.688,0,0,0-.986.611c-.5.441-.677.815-.639.837s.292-.281.8-.639a4.382,4.382,0,0,1,.953-.507,3.764,3.764,0,0,1,.612-.17c.226-.055.413-.05.468.049.022.039.022.055-.027.116a1.108,1.108,0,0,1-.237.176,6.2,6.2,0,0,1-.562.3,6.09,6.09,0,0,1-1.024.364,7.69,7.69,0,0,0-1,.226Z" transform="translate(-189.969 -454.847)" fill="#263238"/>
      <path id="Trazado_116385" data-name="Trazado 116385" d="M286.766,691.478a1.665,1.665,0,0,0,.3-1.008,3.4,3.4,0,0,0-.116-1.156,3.463,3.463,0,0,0-.253-.645.877.877,0,0,0-.655-.551.489.489,0,0,0-.446.281,1.454,1.454,0,0,0-.116.386,2.387,2.387,0,0,0-.016.71,2.362,2.362,0,0,0,.424,1.1c.4.557.821.689.832.655.033-.049-.319-.259-.617-.788a2.475,2.475,0,0,1-.309-1,2.261,2.261,0,0,1,.033-.606c.038-.221.127-.4.209-.375.1,0,.275.176.358.352a3.712,3.712,0,0,1,.248.578,3.78,3.78,0,0,1,.176,1.057c.011.617-.1,1-.05,1.014Z" transform="translate(-187.691 -451.805)" fill="#263238"/>
      <path id="Trazado_116386" data-name="Trazado 116386" d="M332.037,615.76l-24.188-9,25.427-3.57,1.283-12.389-47.554,4.153-6.715,9.667,1.768,12.13,46.332,11.777Z" transform="translate(-184.301 -387.82)" fill="#263238"/>
      <path id="Trazado_116387" data-name="Trazado 116387" d="M277.184,580.783l-2.314-44.271a12.452,12.452,0,0,1,16.388-11.447l30.853,10.284,16.933,4.352s2.886,7.117,1.19,12.642c-1.658,5.409-7.59,9.012-12.807,7.464-6.484-1.923-36.235-14.719-36.235-14.719v36.053l-14-.358Z" transform="translate(-180.736 -344.172)" fill="#263238"/>
      <path id="Trazado_116388" data-name="Trazado 116388" d="M358.016,599.2a1.874,1.874,0,0,1-.182-.061c-.132-.05-.309-.121-.529-.2l-2.022-.81c-1.768-.722-4.3-1.752-7.42-3.024-6.269-2.589-14.906-6.153-24.441-10.086l-1.245-.518.2-.132c-.016,10.014-.033,19.021-.044,25.542-.016,3.239-.033,5.861-.044,7.7-.011.892-.022,1.592-.028,2.088-.005.226-.011.408-.016.54a.57.57,0,0,1-.016.187.8.8,0,0,1-.016-.187c0-.138-.005-.314-.017-.54-.005-.5-.016-1.2-.027-2.088-.011-1.829-.027-4.451-.044-7.7-.011-6.522-.027-15.528-.044-25.542v-.215l.2.083c.391.165.815.341,1.245.518l24.408,10.163c3.107,1.311,5.624,2.368,7.387,3.112q1.289.554,2.005.86c.215.094.386.171.518.231a.8.8,0,0,1,.171.088Z" transform="translate(-211.778 -383.441)" fill="#455a64"/>
      <path id="Trazado_116389" data-name="Trazado 116389" d="M343.8,628.215a10.121,10.121,0,0,1,5.795,3.212c-.061.066-1.162-.958-2.771-1.845s-3.057-1.284-3.029-1.372Z" transform="translate(-226.055 -412.41)" fill="#455a64"/>
      <path id="Trazado_116390" data-name="Trazado 116390" d="M314.654,567.29a22.154,22.154,0,0,1,2.782,6.208,33.96,33.96,0,0,1-1.41-3.09c-.766-1.708-1.444-3.074-1.372-3.112Z" transform="translate(-206.892 -372.356)" fill="#455a64"/>
      <path id="Trazado_116391" data-name="Trazado 116391" d="M293.393,508.363l-5.459-1.019-5.729,5.845,1.057,3.729,6.682-2.462Z" transform="translate(-185.559 -332.94)" fill="#ffbe9d"/>
      <path id="Trazado_116392" data-name="Trazado 116392" d="M243.724,320.8l-1.476.127s-2.661.435-2.661.5-1.168,1.691-1.173,1.7l-1.068,1.653a1.534,1.534,0,0,0,1.493-.275l-.375.831a1.66,1.66,0,0,0,2.055-.8,19.459,19.459,0,0,1,1.156-1.647l.485-.044c.038.1,1.906,2.732,1.945,2.672s1.592-1.559,1.592-1.559l-1.977-3.151Z" transform="translate(-156.062 -210.278)" fill="#eb996e"/>
      <path id="Trazado_116393" data-name="Trazado 116393" d="M248.081,329.577l.435-8.175-4.142-4.693-4.555.275-1.862,1.3c.094.452,1.388.76,2.782.358a7.059,7.059,0,0,1,2.87-.1l1.752,3.057-1.157,1.278,1.487,7.838,2.4-1.146Z" transform="translate(-156.464 -207.591)" fill="#ffbe9d"/>
      <path id="Trazado_116394" data-name="Trazado 116394" d="M229.438,322.837h14.807a.678.678,0,1,1,0,1.355H229.438l-1.454-.677Z" transform="translate(-149.907 -211.62)" fill="#263238"/>
      <path id="Trazado_116395" data-name="Trazado 116395" d="M248.828,333.522l-1.509-3.707a3.431,3.431,0,0,1-.253-1.487,25.508,25.508,0,0,0-.039-4.622c-.275-.826-1.383-3.658-.76-4.071s1.482-.551,2.088,1.1,2.468,5.244,2.468,5.244l1.41,5.911Z" transform="translate(-161.806 -209.338)" fill="#ffbe9d"/>
      <path id="Trazado_116396" data-name="Trazado 116396" d="M250.431,325.488a12.109,12.109,0,0,1-.86-1.581c-.5-.98-1.167-2.407-1.884-3.884a1.1,1.1,0,0,0-.876-.573.793.793,0,0,0-.738.551,2.136,2.136,0,0,0,.027.97q.091.479.2.876c.287,1.063.589,1.686.551,1.7a1.538,1.538,0,0,1-.253-.418,9.077,9.077,0,0,1-.49-1.228c-.083-.27-.165-.562-.237-.887a2.233,2.233,0,0,1-.05-1.091,1.063,1.063,0,0,1,.98-.755,1.354,1.354,0,0,1,1.124.694c.766,1.564,1.372,2.93,1.829,3.955a11.06,11.06,0,0,1,.672,1.669Z" transform="translate(-161.602 -209.209)" fill="#eb996e"/>
      <path id="Trazado_116397" data-name="Trazado 116397" d="M426.976,555.89l-1.509-2.649L409.322,549.2l1.9,3.283Z" transform="translate(-269.143 -360.46)" fill="#ffbe9d"/>
      <path id="Trazado_116398" data-name="Trazado 116398" d="M250,354.249l10.163,24.083a9.345,9.345,0,0,0,5.062,5.013l21.929,9.006,5.107-14.124-21.356-7.563-13.871-19.775L250,354.255Z" transform="translate(-164.385 -230.066)" fill="#00cca7"/>
      <path id="Trazado_116399" data-name="Trazado 116399" d="M341.867,426.438c.022.567-2.369,18.09-2.369,21.664s6.853,7.464,6.853,7.464l7.508,15.936h26.733l-9.139-17.159-4.131-13.749a32.365,32.365,0,0,0-8.3-13.76l-4.462-2.986-12.691,2.584Z" transform="translate(-223.231 -278.039)" fill="#00cca7"/>
      <path id="Trazado_116400" data-name="Trazado 116400" d="M326.821,457.567l4.489,18.839-22.645-6.379-3.861,6.819,29.464,13.419a8.285,8.285,0,0,0,11.458-9.6l-6.6-25.779a6.3,6.3,0,0,0-12.311,2.666Z" transform="translate(-200.419 -295.331)" fill="#00cca7"/>
      <path id="Trazado_116401" data-name="Trazado 116401" d="M346.137,469.252a1.751,1.751,0,0,1-.259-.11c-.165-.083-.408-.21-.716-.38a20.719,20.719,0,0,1-2.485-1.647,10.144,10.144,0,0,1-2.925-3.322,9.783,9.783,0,0,1-.408-5.387c.276-1.906.667-3.68.9-5.321.253-1.636.424-3.118.518-4.368s.11-2.259.11-2.964-.022-1.085,0-1.091a.882.882,0,0,1,.044.281c.022.182.044.457.066.81a26.991,26.991,0,0,1-.016,2.975c-.066,1.256-.22,2.749-.457,4.39-.215,1.647-.6,3.437-.876,5.321a9.708,9.708,0,0,0,.363,5.233,10.128,10.128,0,0,0,2.809,3.272,25.3,25.3,0,0,0,2.413,1.708c.6.375.926.567.92.589Z" transform="translate(-223.012 -291.724)" fill="#263238"/>
      <path id="Trazado_116402" data-name="Trazado 116402" d="M384.114,455.219a9.39,9.39,0,0,0-6.175-.418,6.3,6.3,0,0,1,6.169.418Z" transform="translate(-248.507 -297.985)" fill="#263238"/>
      <path id="Trazado_116403" data-name="Trazado 116403" d="M363.8,427.519a5.151,5.151,0,0,1-.408.457c-.275.281-.683.678-1.2,1.157-1.03.958-2.49,2.248-4.164,3.591s-3.25,2.49-4.412,3.283c-.578.4-1.058.711-1.388.92a2.423,2.423,0,0,1-.535.3,2.658,2.658,0,0,1,.474-.391l1.338-.991c1.129-.837,2.677-2.005,4.352-3.344s3.145-2.6,4.209-3.52c.5-.43.914-.793,1.261-1.091a2.519,2.519,0,0,1,.485-.375Z" transform="translate(-231.247 -280.448)" fill="#263238"/>
      <path id="Trazado_116404" data-name="Trazado 116404" d="M304.633,408.743c.028.077-.793.43-1.7,1.024s-1.564,1.206-1.625,1.146a5.684,5.684,0,0,1,3.322-2.176Z" transform="translate(-198.117 -268.095)" fill="#263238"/>
      <path id="Trazado_116405" data-name="Trazado 116405" d="M351.965,490.833a3.3,3.3,0,0,1-.49.16,9.558,9.558,0,0,1-1.388.242,12.639,12.639,0,0,1-2.093.055,14.283,14.283,0,0,1-2.539-.385,14.123,14.123,0,0,1-2.418-.86,12.982,12.982,0,0,1-1.818-1.036,9.28,9.28,0,0,1-1.107-.87c-.242-.226-.375-.358-.358-.375.033-.038.584.446,1.581,1.074a14.554,14.554,0,0,0,8.742,2.192c1.173-.083,1.889-.253,1.9-.2Z" transform="translate(-223.398 -320.065)" fill="#fafafa"/>
      <path id="Trazado_116406" data-name="Trazado 116406" d="M367.01,518.286a2.875,2.875,0,0,1-1.014.187,9.338,9.338,0,0,1-2.484-.165,9.185,9.185,0,0,1-2.352-.821,3,3,0,0,1-.865-.568,13.867,13.867,0,0,0,6.715,1.372Z" transform="translate(-236.906 -339.233)" fill="#fafafa"/>
      <path id="Trazado_116407" data-name="Trazado 116407" d="M390.9,505.88a4.09,4.09,0,0,1-.419.253,12.628,12.628,0,0,1-1.217.545,18.663,18.663,0,0,1-4.253,1.113,18.44,18.44,0,0,1-4.4.083,11.741,11.741,0,0,1-1.317-.2,1.945,1.945,0,0,1-.474-.127c.005-.049.694.055,1.807.121a21.9,21.9,0,0,0,8.566-1.184c1.052-.364,1.685-.65,1.708-.611Z" transform="translate(-249.09 -331.971)" fill="#fafafa"/>
      <path id="Trazado_116408" data-name="Trazado 116408" d="M384.143,477.585c-.011.044-.7-.083-1.823-.221a29.558,29.558,0,0,0-4.412-.187,28.747,28.747,0,0,0-4.385.506c-1.113.215-1.79.391-1.807.347a1.861,1.861,0,0,1,.463-.187c.3-.1.743-.231,1.3-.364a22.875,22.875,0,0,1,4.418-.595,22.6,22.6,0,0,1,4.451.275c.562.094,1.014.187,1.322.27a1.758,1.758,0,0,1,.474.149Z" transform="translate(-244.416 -312.903)" fill="#fafafa"/>
      <path id="Trazado_116409" data-name="Trazado 116409" d="M396.024,536.26a6.3,6.3,0,0,1-.645-.127,16.178,16.178,0,0,1-1.708-.529,22.516,22.516,0,0,1-5.222-2.727,23.013,23.013,0,0,1-4.341-3.988,16.5,16.5,0,0,1-1.074-1.427,2.922,2.922,0,0,1-.336-.562c.044-.027.573.732,1.57,1.856a24.961,24.961,0,0,0,9.485,6.66c1.394.551,2.292.793,2.281.843Z" transform="translate(-251.637 -345.799)" fill="#fafafa"/>
      <path id="Trazado_116410" data-name="Trazado 116410" d="M362.178,533.838a6.082,6.082,0,0,1-.066-1.57,17.375,17.375,0,0,1,1.912-7.282,6.424,6.424,0,0,1,.826-1.333,14.639,14.639,0,0,1-.644,1.421,22.121,22.121,0,0,0-1.256,3.525,22.716,22.716,0,0,0-.634,3.685A12.322,12.322,0,0,1,362.178,533.838Z" transform="translate(-238.095 -343.664)" fill="#fafafa"/>
      <path id="Trazado_116411" data-name="Trazado 116411" d="M322.443,520.912a4.421,4.421,0,0,1,.011-1.317,7.55,7.55,0,0,1,.975-3.035,9.741,9.741,0,0,1,2.126-2.374,5.041,5.041,0,0,1,1.068-.766,7.183,7.183,0,0,1-.936.92,11.66,11.66,0,0,0-2.016,2.374,8.415,8.415,0,0,0-1.025,2.919,8.144,8.144,0,0,1-.215,1.289Z" transform="translate(-211.994 -336.934)" fill="#fafafa"/>
      <path id="Trazado_116412" data-name="Trazado 116412" d="M432.195,552.947a8.593,8.593,0,0,1-1.592.7,30.059,30.059,0,0,1-4.021,1.207,17.381,17.381,0,0,1-4.181.457,5.693,5.693,0,0,1-.727-.05,3.933,3.933,0,0,1-.546-.077c-.3-.061-.457-.1-.452-.121.011-.05.661.061,1.73.038a21.062,21.062,0,0,0,4.12-.534c1.587-.352,3-.788,4.016-1.118a14.067,14.067,0,0,1,1.658-.512Z" transform="translate(-276.609 -362.915)" fill="#fafafa"/>
      <path id="Trazado_116413" data-name="Trazado 116413" d="M425.974,521.193c.033.011-.143.347-.606.689a8.369,8.369,0,0,1-1.945,1.024,12.1,12.1,0,0,1-2.1.617,3.016,3.016,0,0,1-.667.066c-.16,0-.259-.055-.242-.066s.331-.039.865-.2,1.256-.386,2.044-.689a12.092,12.092,0,0,0,1.933-.92c.468-.281.683-.545.722-.518Z" transform="translate(-276.437 -342.046)" fill="#fafafa"/>
      <path id="Trazado_116414" data-name="Trazado 116414" d="M416.524,488.892a.275.275,0,0,1-.083.2,1.873,1.873,0,0,1-.441.358,8.651,8.651,0,0,1-1.663.777,9.429,9.429,0,0,1-1.774.479c-.468.077-.776.016-.765-.022s.281-.05.727-.176,1.052-.309,1.713-.551a16.867,16.867,0,0,0,1.664-.683,2.832,2.832,0,0,0,.463-.264C416.469,488.942,416.5,488.882,416.524,488.892Z" transform="translate(-270.771 -320.807)" fill="#fafafa"/>
      <path id="Trazado_116415" data-name="Trazado 116415" d="M351.932,467.948a4.575,4.575,0,0,1-1.295.05,16.474,16.474,0,0,1-6.065-1.438,4.452,4.452,0,0,1-1.135-.628c.039-.083,1.807.8,4.164,1.355C349.955,467.854,351.932,467.854,351.932,467.948Z" transform="translate(-225.822 -305.706)" fill="#fafafa"/>
      <path id="Trazado_116416" data-name="Trazado 116416" d="M407.2,457.273a4.764,4.764,0,0,1-1.812,1.041,4.7,4.7,0,0,1-2.022.523c-.011-.061.86-.347,1.912-.788,1.063-.419,1.878-.826,1.917-.771Z" transform="translate(-265.229 -300.017)" fill="#fafafa"/>
      <path id="Trazado_116417" data-name="Trazado 116417" d="M378.488,436.368a3.423,3.423,0,0,1,.765.606,6.993,6.993,0,0,1,1.928,4.241,2.393,2.393,0,0,1-.044.975,12.887,12.887,0,0,0-.82-3.145,12.752,12.752,0,0,0-1.835-2.683Z" transform="translate(-248.863 -286.268)" fill="#fafafa"/>
      <path id="Trazado_116418" data-name="Trazado 116418" d="M326.053,432.138a3.223,3.223,0,0,1-.253-.518,9.441,9.441,0,0,1-.441-1.515,13.7,13.7,0,0,1,.039-5.172,27.348,27.348,0,0,1,1.5-4.952c.242-.617.452-1.107.6-1.443a2.2,2.2,0,0,1,.259-.512,2.487,2.487,0,0,1-.154.557c-.143.408-.314.9-.518,1.476a34.662,34.662,0,0,0-1.41,4.935,15,15,0,0,0-.121,5.085c.215,1.294.54,2.049.49,2.065Z" transform="translate(-213.786 -274.21)" fill="#fafafa"/>
      <path id="Trazado_116419" data-name="Trazado 116419" d="M289.99,421.765a4.217,4.217,0,0,1,.1-.556,13.152,13.152,0,0,1,.435-1.471,18.825,18.825,0,0,1,5.734-8.235,14.5,14.5,0,0,1,1.229-.92,1.884,1.884,0,0,1,.49-.281c.028.038-.628.5-1.586,1.355a21.3,21.3,0,0,0-5.679,8.153C290.243,421.005,290.04,421.782,289.99,421.765Z" transform="translate(-190.678 -269.131)" fill="#fafafa"/>
      <path id="Trazado_116420" data-name="Trazado 116420" d="M278.012,387.237c0,.049-.628.083-1.6.358a14.9,14.9,0,0,0-3.581,1.6,16.709,16.709,0,0,0-3.107,2.4c-.716.711-1.08,1.223-1.118,1.2-.016-.011.061-.149.215-.391a4.16,4.16,0,0,1,.308-.419,5.777,5.777,0,0,1,.446-.529,14.329,14.329,0,0,1,3.107-2.506,12.741,12.741,0,0,1,3.68-1.548,5.365,5.365,0,0,1,.683-.127,4.166,4.166,0,0,1,.518-.05A1.559,1.559,0,0,1,278.012,387.237Z" transform="translate(-176.618 -253.953)" fill="#fafafa"/>
      <path id="Trazado_116421" data-name="Trazado 116421" d="M263.631,364.862a13.944,13.944,0,0,0-9.078,2.3,4.466,4.466,0,0,1,1.118-.87,11,11,0,0,1,3.151-1.338,11.131,11.131,0,0,1,3.41-.319,4.449,4.449,0,0,1,1.4.237Z" transform="translate(-167.377 -239.087)" fill="#fafafa"/>
      <path id="Trazado_116422" data-name="Trazado 116422" d="M326.811,471.8s.044.121.11.358c.066.259.16.611.275,1.052.237.942.567,2.275.98,3.927.815,3.377,1.956,8.075,3.261,13.468l.055.232-.232-.066c-1.834-.512-3.773-1.063-5.773-1.625-6.544-1.862-12.488-3.548-16.861-4.792l.115-.05-2.864,4.969c-.336.567-.6,1.013-.793,1.344l-.215.347c-.05.077-.077.116-.083.11s.016-.044.055-.127c.05-.1.11-.215.187-.358l.744-1.372c.672-1.207,1.62-2.914,2.787-5.013l.038-.072.077.022c4.379,1.223,10.328,2.886,16.884,4.715,2,.562,3.938,1.113,5.773,1.63l-.171.165c-1.267-5.4-2.369-10.108-3.162-13.49-.38-1.664-.683-3-.9-3.95-.094-.446-.171-.8-.231-1.063a1.713,1.713,0,0,1-.061-.369Z" transform="translate(-200.408 -309.567)" fill="#263238"/>
      <path id="Trazado_116423" data-name="Trazado 116423" d="M405.327,468.387a2.647,2.647,0,0,1,.11.325q.1.364.264.942c.226.854.535,2.033.914,3.47.749,2.969,1.774,7.012,2.9,11.479.556,2.248,1.1,4.379,1.553,6.335a14.853,14.853,0,0,1,.43,5.316,7.451,7.451,0,0,1-1.267,3.36,3.99,3.99,0,0,1-.9.964,9.184,9.184,0,0,0,.81-1.025,7.68,7.68,0,0,0,1.157-3.327,14.973,14.973,0,0,0-.49-5.233c-.485-1.95-1.019-4.082-1.575-6.324-1.1-4.473-2.094-8.527-2.821-11.5-.341-1.449-.622-2.633-.82-3.492-.088-.391-.154-.705-.21-.953A1.538,1.538,0,0,1,405.327,468.387Z" transform="translate(-266.515 -307.324)" fill="#263238"/>
      <g id="Grupo_81568" data-name="Grupo 81568" transform="translate(140.465 167.706)" opacity="0.3">
        <path id="Trazado_116424" data-name="Trazado 116424" d="M412.615,513.548c3.316.3,5.238-1.586,5.6-4.175a9.38,9.38,0,0,0-.738-4.209c-2.033-5.96-4.087-11.97-7.315-17.379,1.218,5.409,2.771,10.609,3.988,16.018a16.685,16.685,0,0,1,.512,4.611,8.293,8.293,0,0,1-2.049,5.134" transform="translate(-410.158 -487.785)"/>
      </g>
      <path id="Trazado_116425" data-name="Trazado 116425" d="M381.7,376.77a6.747,6.747,0,0,0,8.571-5.123,3.955,3.955,0,0,0,3.421.909,6.521,6.521,0,0,0,3.189-1.719,7.974,7.974,0,0,0,2.677-5.982,5.832,5.832,0,0,0-3.619-5.244,4.623,4.623,0,0,0-5.679,2.308c-.4-1.179.617-2.776.375-3.993-.485-2.451-1.95-3.884-3.2-3.933" transform="translate(-250.983 -232.107)" fill="#263238"/>
      <path id="Trazado_116426" data-name="Trazado 116426" d="M375.772,365.377c2.424-4.23,3.123-9.866,3.735-14.741.286-2.291.8-5.558-.766-7-1.675-1.537-1.834-3.905-3.762-5.1a5.77,5.77,0,0,0-6.351.072" transform="translate(-242.385 -221.347)" fill="#263238"/>
      <path id="Trazado_116427" data-name="Trazado 116427" d="M338.062,378.3V371.66s-6.913-1.223-7.321-6.759-.264-18.332-.264-18.332a18.23,18.23,0,0,1,18.916,1.2l-.281,19.5.011,6.351-5.657,4.594-5.4,4.252v-4.17Z" transform="translate(-217.283 -225.85)" fill="#ffbe9d"/>
      <path id="Trazado_116428" data-name="Trazado 116428" d="M327.408,349.231a2.7,2.7,0,0,1,3.669-.837,3.283,3.283,0,0,1,1.052,4.021,4.145,4.145,0,0,1-2.628,2.066s2.49,4.539,4.071,5.745c1.884,1.432,2.771,2.137,5.1,2.418,2.286.27,2.011.3,3.338-1.647a7.631,7.631,0,0,0,1.294-4.5q.107-6.131.209-12.256a18.034,18.034,0,0,0-.281-4.4,5.913,5.913,0,0,0-2.259-3.63c-1.311-.881-2.963-.953-4.451-1.443-1.862-.617-3.443-1.884-5.189-2.8s-3.878-1.454-5.624-.546c-1.25.656-2.088,1.945-3.305,2.666-1.735,1.025-4.1.8-4.93,3.437a4.592,4.592,0,0,0,.039,2.815A6.239,6.239,0,0,0,326.1,343.8a9.05,9.05,0,0,0,.11,3.878c.2.611.275,1.548,1.2,1.559" transform="translate(-208.618 -216.961)" fill="#263238"/>
      <path id="Trazado_116429" data-name="Trazado 116429" d="M349.652,389.25a.318.318,0,0,0,.077.237.789.789,0,0,0,.6.309,1.5,1.5,0,0,0,1.388-1.531,1.644,1.644,0,0,0-.4-1.173,1.584,1.584,0,0,0-.843-.5c-.551-.115-.871.094-.848.132.011.061.33-.027.776.138a1.394,1.394,0,0,1,.931,1.383,1.284,1.284,0,0,1-1.008,1.272c-.452.028-.633-.3-.672-.264Z" transform="translate(-229.893 -253.521)" fill="#eb996e"/>
      <path id="Trazado_116430" data-name="Trazado 116430" d="M410.5,385.92a2.458,2.458,0,0,1-.16.518,5.973,5.973,0,0,1-.732,1.289,6.467,6.467,0,0,1-4.115,2.523,6.326,6.326,0,0,1-4.671-1.206,5.856,5.856,0,0,1-1.069-1.03,1.726,1.726,0,0,1-.3-.457,11.461,11.461,0,0,0,1.482,1.322,6.413,6.413,0,0,0,4.506,1.091,6.562,6.562,0,0,0,4-2.363,12.11,12.11,0,0,0,1.052-1.686Z" transform="translate(-262.658 -253.099)" fill="#455a64"/>
      <path id="Trazado_116431" data-name="Trazado 116431" d="M410.014,383.3a1.992,1.992,0,0,1-.193.424,6.033,6.033,0,0,1-.749,1.03,6.9,6.9,0,0,1-3.58,2.137,6.764,6.764,0,0,1-4.148-.391,5.931,5.931,0,0,1-1.113-.623c-.242-.176-.363-.292-.352-.309.027-.044.556.369,1.537.744a7.037,7.037,0,0,0,4.01.3,7.236,7.236,0,0,0,3.5-1.994c.732-.755,1.041-1.344,1.085-1.316Z" transform="translate(-262.933 -251.375)" fill="#455a64"/>
      <path id="Trazado_116432" data-name="Trazado 116432" d="M364.108,381.213a1.9,1.9,0,0,1-.231.127,2.694,2.694,0,0,1-.727.193,3.957,3.957,0,0,1-2.638-.727,7.685,7.685,0,0,1-2.484-3.228,24.974,24.974,0,0,0-2.253-4.39,5.227,5.227,0,0,0-1.889-1.614,6.725,6.725,0,0,0-2.264-.595c-1.5-.154-2.9-.055-4.054-.215a6.591,6.591,0,0,1-2.627-.815,4.471,4.471,0,0,1-.6-.452,1.131,1.131,0,0,1-.176-.193c.016-.022.275.237.832.551a6.7,6.7,0,0,0,2.594.711c1.14.132,2.517.011,4.06.154a6.934,6.934,0,0,1,2.358.606,5.5,5.5,0,0,1,1.994,1.7,24.09,24.09,0,0,1,2.264,4.451,7.609,7.609,0,0,0,2.358,3.173,3.955,3.955,0,0,0,2.512.782,4.48,4.48,0,0,0,.97-.209Z" transform="translate(-226.298 -242.173)" fill="#455a64"/>
      <path id="Trazado_116433" data-name="Trazado 116433" d="M363.145,378.076a1.722,1.722,0,0,1-.248.022,3.029,3.029,0,0,1-.705-.088,4.425,4.425,0,0,1-2.154-1.46A8.389,8.389,0,0,1,359,375.068c-.32-.568-.606-1.2-.925-1.84a12.479,12.479,0,0,0-1.129-1.939,5.577,5.577,0,0,0-.788-.865,3.9,3.9,0,0,0-.479-.358,2.721,2.721,0,0,0-.512-.314,6.425,6.425,0,0,0-2.275-.666,17.467,17.467,0,0,0-2.247-.116,30.356,30.356,0,0,1-3.856-.1,6.813,6.813,0,0,1-2.5-.749,5.247,5.247,0,0,1-.589-.4.842.842,0,0,1-.187-.16c.017-.022.3.176.826.457a7.271,7.271,0,0,0,2.468.645,34.436,34.436,0,0,0,3.828.038,17.147,17.147,0,0,1,2.286.1,6.73,6.73,0,0,1,2.374.694,3.1,3.1,0,0,1,.546.336,3.733,3.733,0,0,1,.5.38,5.828,5.828,0,0,1,.821.914,12.665,12.665,0,0,1,1.14,1.989c.314.655.595,1.284.9,1.84a8.388,8.388,0,0,0,.981,1.465,4.524,4.524,0,0,0,2.033,1.482A6.358,6.358,0,0,0,363.145,378.076Z" transform="translate(-225.875 -241.03)" fill="#455a64"/>
      <path id="Trazado_116434" data-name="Trazado 116434" d="M400.8,388.909a1.469,1.469,0,0,1-.3-.259,5.521,5.521,0,0,1-.672-.854,6.789,6.789,0,0,1-.27-6.869,5.508,5.508,0,0,1,.6-.9c.165-.2.27-.292.281-.281.039.033-.32.468-.7,1.278a7.163,7.163,0,0,0,.264,6.676c.446.777.837,1.179.8,1.217Z" transform="translate(-262.195 -249.038)" fill="#00cca7"/>
      <path id="Trazado_116435" data-name="Trazado 116435" d="M628.561,587.292c3.8,1.328,8.759.144,12.008-2.231s5.591-5.773,7.662-9.227a13.664,13.664,0,0,0,2.027-4.7,5.077,5.077,0,0,0-1.449-4.71c-2.043-1.719-5.172-.848-7.491.474a25.847,25.847,0,0,0-12.763,20.392" transform="translate(-413.296 -371.156)" fill="#00cca7"/>
      <path id="Trazado_116436" data-name="Trazado 116436" d="M640.49,644.2c2.28,3.013,6.2,4.352,9.976,4.528a27.645,27.645,0,0,0,11.034-2.22c1.278-.49,2.683-1.162,3.118-2.462a3.14,3.14,0,0,0-.667-2.9,6.521,6.521,0,0,0-2.545-1.735,17.421,17.421,0,0,0-11.1-.6,27.289,27.289,0,0,0-9.811,5.4" transform="translate(-421.144 -418.97)" fill="#00cca7"/>
      <path id="Trazado_116437" data-name="Trazado 116437" d="M625.394,538.073c3.146.061,5.525-2.693,6.952-5.5a20.391,20.391,0,0,0,1.873-12.708c-.286-1.608-.9-3.338-2.336-4.115a4.144,4.144,0,0,0-4.588.848,9.4,9.4,0,0,0-2.385,4.3A28.819,28.819,0,0,0,625.394,538.073Z" transform="translate(-410.185 -338.22)" fill="#00cca7"/>
      <path id="Trazado_116438" data-name="Trazado 116438" d="M588.433,567.128a37.857,37.857,0,0,0,3.09-30.4c-.512-1.641-1.482-3.514-3.2-3.624-1.9-.121-3.09,1.994-3.614,3.823-1.84,6.417-1.449,13.231-1.041,19.891a14.1,14.1,0,0,0,4.76,10.306" transform="translate(-383.557 -349.874)" fill="#00cca7"/>
      <path id="Trazado_116439" data-name="Trazado 116439" d="M547.427,616a21.941,21.941,0,0,0-13.016-13.8c-1.427-.534-3.234-.843-4.3.248-1.041,1.068-.722,2.853-.055,4.192a21.061,21.061,0,0,0,4.578,5.553,18.913,18.913,0,0,0,5.25,3.911c2.011.881,5.7,1.1,7.536-.094" transform="translate(-348.127 -394.989)" fill="#00cca7"/>
      <path id="Trazado_116440" data-name="Trazado 116440" d="M631.786,574.948a.617.617,0,0,1-.094.083c-.077.061-.171.132-.286.226q-.413.306-1.124.843c-.248.182-.518.386-.815.6s-.6.49-.936.76c-.661.556-1.449,1.151-2.237,1.9-.4.369-.826.749-1.267,1.151s-.859.854-1.311,1.306c-.925.887-1.818,1.923-2.776,2.991a63.989,63.989,0,0,0-5.531,7.541,65.4,65.4,0,0,0-4.274,8.318c-.529,1.339-1.052,2.6-1.438,3.823-.2.606-.419,1.19-.578,1.757s-.314,1.118-.463,1.647c-.319,1.041-.5,2.011-.7,2.854-.094.424-.193.815-.264,1.179s-.121.694-.176,1c-.1.584-.187,1.047-.248,1.383-.027.143-.05.264-.072.358a.362.362,0,0,1-.033.121s0-.044.005-.127.027-.215.044-.364c.05-.336.116-.8.2-1.388.044-.3.1-.639.155-1s.154-.76.242-1.185c.187-.848.358-1.823.667-2.87q.215-.793.446-1.652c.16-.573.374-1.157.567-1.768.375-1.229.9-2.5,1.421-3.845a57.854,57.854,0,0,1,9.843-15.92c.97-1.068,1.873-2.1,2.8-2.991.458-.446.887-.9,1.328-1.3s.87-.777,1.278-1.14c.8-.744,1.6-1.333,2.269-1.878.342-.27.65-.523.948-.749s.578-.408.832-.584c.49-.341.876-.606,1.151-.8.121-.083.22-.149.3-.2s.1-.066.11-.061Z" transform="translate(-399.23 -377.392)" fill="#263238"/>
      <path id="Trazado_116441" data-name="Trazado 116441" d="M639.308,646.933s-.127-.011-.369-.061-.589-.138-1.047-.209a29.289,29.289,0,0,0-3.883-.474,28.326,28.326,0,0,0-23,9.574,29.607,29.607,0,0,0-2.4,3.09c-.27.38-.446.688-.584.892a1.969,1.969,0,0,1-.215.3,2.466,2.466,0,0,1,.171-.33c.127-.209.292-.529.545-.92a26.615,26.615,0,0,1,2.347-3.151,27.872,27.872,0,0,1,23.152-9.634,26.019,26.019,0,0,1,3.889.557c.457.094.8.2,1.036.259a2.987,2.987,0,0,1,.358.11Z" transform="translate(-399.652 -424.071)" fill="#263238"/>
      <path id="Trazado_116442" data-name="Trazado 116442" d="M619.056,527.128a.7.7,0,0,1-.022.143c-.022.1-.049.242-.088.408-.083.375-.2.9-.353,1.57-.308,1.366-.782,3.333-1.372,5.762-1.179,4.859-2.9,11.551-4.688,18.966-.887,3.713-1.691,7.255-2.385,10.483s-1.262,6.153-1.691,8.615c-.232,1.228-.407,2.347-.573,3.322s-.3,1.823-.4,2.518c-.1.677-.187,1.212-.248,1.592-.027.171-.055.308-.072.413a.453.453,0,0,1-.033.138s0-.05.005-.143c.011-.11.028-.242.044-.419.05-.386.116-.92.2-1.6.088-.694.2-1.542.358-2.523s.314-2.1.534-3.333c.408-2.468.975-5.393,1.641-8.632.683-3.239,1.482-6.786,2.369-10.494,1.79-7.42,3.536-14.1,4.759-18.949.611-2.413,1.1-4.368,1.449-5.74.171-.661.3-1.185.4-1.559.044-.165.083-.3.11-.4.027-.088.044-.138.044-.138Z" transform="translate(-399.209 -345.949)" fill="#263238"/>
      <path id="Trazado_116443" data-name="Trazado 116443" d="M598.87,597.441a.718.718,0,0,1-.033-.11c-.022-.088-.044-.2-.077-.33-.066-.314-.154-.733-.264-1.273-.226-1.1-.529-2.7-.87-4.693-.688-3.972-1.5-9.486-2.005-15.622-.242-3.068-.38-6-.435-8.665s-.022-5.068.061-7.084c.022-1.008.094-1.917.138-2.715s.1-1.487.149-2.049c.05-.545.088-.975.121-1.295.016-.132.027-.242.039-.336a.4.4,0,0,1,.022-.116.612.612,0,0,1,0,.116c0,.094-.005.2-.011.336-.017.32-.044.749-.072,1.295-.039.562-.077,1.25-.1,2.049s-.083,1.708-.1,2.715c-.06,2.011-.066,4.412-.006,7.073s.215,5.586.457,8.648c.5,6.125,1.289,11.634,1.928,15.611.319,1.988.595,3.6.793,4.7.094.54.165.964.215,1.278.022.133.038.242.049.336a.922.922,0,0,1,.011.115Z" transform="translate(-391.34 -363.061)" fill="#263238"/>
      <path id="Trazado_116444" data-name="Trazado 116444" d="M565.6,637.718s-.055-.1-.138-.314c-.088-.231-.209-.54-.352-.92l-.253-.667c-.1-.237-.22-.5-.347-.771s-.253-.573-.391-.887-.319-.634-.49-.97-.358-.694-.545-1.063c-.209-.358-.43-.733-.65-1.124-.43-.788-.986-1.57-1.526-2.424a57.353,57.353,0,0,0-4.038-5.161,61.313,61.313,0,0,0-4.638-4.638c-.771-.65-1.476-1.3-2.192-1.845l-1.013-.81c-.336-.248-.655-.485-.964-.711-.606-.463-1.179-.848-1.686-1.184s-.936-.634-1.3-.854l-.832-.529a1.8,1.8,0,0,1-.281-.2,2.043,2.043,0,0,1,.309.155c.22.121.5.286.859.485.375.209.821.485,1.327.821s1.1.705,1.713,1.156c.314.226.639.458.975.7.331.259.672.523,1.03.8.721.54,1.438,1.185,2.214,1.835a59.722,59.722,0,0,1,4.671,4.649,54.864,54.864,0,0,1,4.043,5.2c.535.859,1.091,1.652,1.515,2.446.22.391.435.771.644,1.135.187.375.363.733.534,1.08s.341.666.474.986.259.617.38.9.226.54.325.782c.083.242.16.468.231.672.127.386.231.7.309.936a2.9,2.9,0,0,1,.094.331Z" transform="translate(-357.676 -402.181)" fill="#263238"/>
      <path id="Trazado_116445" data-name="Trazado 116445" d="M651.541,605.711c0,.038-.65.038-1.7.1a30.911,30.911,0,0,0-4.049.49,31.368,31.368,0,0,0-3.95,1.03,16.116,16.116,0,0,1-1.614.529,1.636,1.636,0,0,1,.4-.22c.264-.127.656-.292,1.151-.479a24.13,24.13,0,0,1,8.048-1.526c.529-.006.953,0,1.245.022a1.566,1.566,0,0,1,.457.055Z" transform="translate(-420.975 -397.568)" fill="#263238"/>
      <path id="Trazado_116446" data-name="Trazado 116446" d="M674.757,652.474a12.3,12.3,0,0,0-5.365-5.778,3.737,3.737,0,0,1,1.091.485,9.63,9.63,0,0,1,3.872,4.175,3.729,3.729,0,0,1,.4,1.124Z" transform="translate(-440.147 -424.566)" fill="#263238"/>
      <path id="Trazado_116447" data-name="Trazado 116447" d="M637.232,548.758c.05.055-.936,1.036-2.016,2.358s-1.845,2.485-1.906,2.446a15.147,15.147,0,0,1,3.922-4.8Z" transform="translate(-416.421 -360.17)" fill="#263238"/>
      <path id="Trazado_116448" data-name="Trazado 116448" d="M635.269,532.42a9.377,9.377,0,0,1,.49,2.115,8.96,8.96,0,0,1,.237,2.159,9.745,9.745,0,0,1-.49-2.115A9.313,9.313,0,0,1,635.269,532.42Z" transform="translate(-417.696 -349.428)" fill="#263238"/>
      <path id="Trazado_116449" data-name="Trazado 116449" d="M599.535,583.713a52.845,52.845,0,0,1-3.365,6.495,26.58,26.58,0,0,1,1.57-3.305A27.906,27.906,0,0,1,599.535,583.713Z" transform="translate(-392 -383.155)" fill="#263238"/>
      <path id="Trazado_116450" data-name="Trazado 116450" d="M588.558,566.294a14.919,14.919,0,0,1,1.333,2.391,14.483,14.483,0,0,1,1.1,2.5,15.434,15.434,0,0,1-1.333-2.391A14.505,14.505,0,0,1,588.558,566.294Z" transform="translate(-386.993 -371.701)" fill="#263238"/>
      <path id="Trazado_116451" data-name="Trazado 116451" d="M553.681,624.862c-.016.072-1.08-.132-2.407-.226s-2.413-.044-2.418-.116a9.61,9.61,0,0,1,4.825.342Z" transform="translate(-360.891 -409.877)" fill="#263238"/>
      <path id="Trazado_116452" data-name="Trazado 116452" d="M580.446,678.485l2.986,15.7a2.2,2.2,0,0,0,2.165,1.79h8.819a2.2,2.2,0,0,0,2.17-1.84l2.595-15.649H580.446Z" transform="translate(-381.663 -445.471)" fill="#263238"/>
      <path id="Trazado_116453" data-name="Trazado 116453" d="M581.416,683.586h16.872l.9-5.1h-18.74Z" transform="translate(-381.663 -445.471)" fill="#455a64"/>
      <path id="Trazado_116454" data-name="Trazado 116454" d="M583.277,693.379l.352,1.862H599.89l.259-1.862Z" transform="translate(-383.524 -455.264)" fill="#fafafa"/>
    </g>
  </g>
</svg>
