<svg xmlns="http://www.w3.org/2000/svg" width="227.622" height="228.15" viewBox="0 0 227.622 228.15">
  <g id="Grupo_1013433" data-name="Grupo 1013433" transform="translate(-343 -2087.925)">
    <g id="Group_39_" data-name="Group (39)" transform="translate(342.999 2087.924)">
      <path id="Trazado_116455" data-name="Trazado 116455" d="M204.5,198.085a81.749,81.749,0,0,1-12.514,10.536c-40.825,29.292-89.131,20.754-99.4,18.669-15.161-3.079-44.465-9.03-65.652-33.946C-5.12,155.649-.128,96.262,24.735,57.06c4.547-7.171,28.571-46.97,77.4-53.352,29.55-3.863,63.995,3.928,88.939,24.826C243.43,72.4,239.7,161.021,204.5,198.084Z" transform="translate(-3.099 -1.906)" fill="#d9eeff"/>
      <path id="Trazado_116456" data-name="Trazado 116456" d="M75.944,1.739A1.334,1.334,0,0,1,78.016.271c10.526,7.85,36.418,32,36.036,79.387-.479,59.455,14.169,79.465,30.858,90.789a65.977,65.977,0,0,1-37.187-23.984C69.407,96.818,83.031,23.611,75.944,1.739Z" transform="translate(-52.53 0)" fill="#99d2ff"/>
      <g id="Grupo_81570" data-name="Grupo 81570" transform="translate(32.719 18.785)">
        <path id="Trazado_116457" data-name="Trazado 116457" d="M106.357,61.5c1.932,6.393,3.736,12.821,5.3,19.306q2.4,9.713,4.2,19.552c1.173,6.56,2.224,13.14,2.992,19.755.8,6.612,1.313,13.25,1.805,19.916.53,6.66,1.025,13.373,2.21,20.055a67.718,67.718,0,0,0,6.311,19.38c.785,1.514,1.6,3.02,2.5,4.462.87,1.459,1.805,2.881,2.766,4.286a70.245,70.245,0,0,0,22.215,20.764,1.291,1.291,0,0,0,1.363-2.192l0,0c-1.388-.889-2.764-1.793-4.1-2.755-.673-.471-1.325-.97-1.985-1.457-.641-.511-1.3-1-1.926-1.528a67.939,67.939,0,0,1-7.122-6.754,74.625,74.625,0,0,1-11.177-16.111,64.986,64.986,0,0,1-3.752-9.046,73.723,73.723,0,0,1-2.4-9.538c-1.2-6.48-1.745-13.119-2.323-19.776s-1.221-13.342-2.131-19.991q-.667-4.988-1.515-9.948c-.273-1.655-.578-3.3-.879-4.953q-.477-2.47-.984-4.932-2.057-9.845-4.718-19.542c-1.806-6.451-3.782-12.852-6-19.166a.347.347,0,0,0-.659.215Z" transform="translate(-106.342 -61.054)" fill="#fff"/>
      </g>
      <path id="Trazado_116458" data-name="Trazado 116458" d="M56.214,272.188a3.355,3.355,0,0,1-5.235,1.9c-10.639-7.723-38.744-32.281-41.215-77.6-2.087-38.268-6.855-58.821-9.665-68a2.1,2.1,0,0,1,3.266-2.3c18,13.336,73.228,62.1,52.848,146Z" transform="translate(0 -87.07)" fill="#00cca7"/>
      <g id="Grupo_81571" data-name="Grupo 81571" transform="translate(18.194 79.462)">
        <path id="Trazado_116459" data-name="Trazado 116459" d="M93.947,364.295a.881.881,0,0,1-.149.1.931.931,0,0,1-1.263-.367c-.28-.51-28.093-51.658-33.4-104.737a.93.93,0,1,1,1.852-.186c5.266,52.693,32.9,103.519,33.176,104.027a.929.929,0,0,1-.219,1.161Z" transform="translate(-59.133 -258.268)" fill="#fff"/>
      </g>
      <path id="Trazado_116460" data-name="Trazado 116460" d="M148.764,96.744h134.1a13.893,13.893,0,0,1,13.875,13.187L304.8,274.978a10.245,10.245,0,0,1-10.045,10.764l-153.7,2.793a9.725,9.725,0,0,1-9.9-9.723L133,112.513a15.769,15.769,0,0,1,15.769-15.769Z" transform="translate(-90.805 -66.978)" fill="#3c0061"/>
      <path id="Trazado_116461" data-name="Trazado 116461" d="M174.228,625.871h0l-17.2-.223a10.582,10.582,0,0,1-10.406-10.541V589.141a.344.344,0,1,1,.688,0v25.965a9.892,9.892,0,0,0,9.726,9.853l17.2.222a.344.344,0,0,1,0,.689Z" transform="translate(-101.509 -407.641)" fill="#91b3fa"/>
      <path id="Trazado_116462" data-name="Trazado 116462" d="M146.961,553.883a.344.344,0,0,1-.344-.344v-4.2a.344.344,0,0,1,.688,0v4.2A.344.344,0,0,1,146.961,553.883Z" transform="translate(-101.507 -380.081)" fill="#fff"/>
      <path id="Trazado_116463" data-name="Trazado 116463" d="M176.614,91.526c18.312,2.484,81.285,10.164,133.35,6.167a4.236,4.236,0,0,1,4.561,3.995L323.068,267.6a4.874,4.874,0,0,1-4.58,5.125c-21.9,1.3-112.078,6.305-144.243,2.936a3.862,3.862,0,0,1-3.455-3.822L171.419,96.1A4.581,4.581,0,0,1,176.614,91.526Z" transform="translate(-118.242 -63.337)" fill="#6700a6"/>
      <path id="Trazado_116464" data-name="Trazado 116464" d="M183.328,107.994c17.623,2.389,78.224,9.781,128.328,5.935a4.075,4.075,0,0,1,4.389,3.844L324.2,276.333a4.691,4.691,0,0,1-4.407,4.933c-21.073,1.247-107.857,6.068-138.811,2.825a3.716,3.716,0,0,1-3.325-3.678l.674-168.024a4.409,4.409,0,0,1,5-4.4Z" transform="translate(-122.995 -74.738)" fill="#bdd0fb"/>
      <path id="Trazado_116465" data-name="Trazado 116465" d="M239.359,289.259h-.03l-11.625-.112a3.022,3.022,0,0,1-3.088-2.567l-1.022-9.754a2.019,2.019,0,0,1,.477-1.518,2.454,2.454,0,0,1,1.708-.841c.979-.067,2.356-.184,3.814-.309,3.075-.261,6.9-.587,9.053-.615h.046a3.139,3.139,0,0,1,3.109,2.2c.6,2.227.549,6.457.434,10.964a2.771,2.771,0,0,1-2.876,2.549Zm-.667-15.027h-.037c-2.126.026-5.94.351-9,.612-1.461.124-2.841.242-3.826.309a1.756,1.756,0,0,0-1.228.6,1.335,1.335,0,0,0-.319,1l1.022,9.754a2.338,2.338,0,0,0,2.411,1.95l11.626.112h.023a2.083,2.083,0,0,0,2.188-1.879c.113-4.455.168-8.63-.41-10.767a2.453,2.453,0,0,0-2.445-1.693Z" transform="translate(-154.792 -189.382)" fill="#fff"/>
      <path id="Trazado_116466" data-name="Trazado 116466" d="M231.585,280.722c2.442-.167,7.75-.706,10.268-.737a2.252,2.252,0,0,1,2.253,1.556c.486,1.8.421,5.377.337,8.682a1.934,1.934,0,0,1-2.044,1.769l-9.29-.089a2.147,2.147,0,0,1-2.2-1.8l-.817-7.795a1.508,1.508,0,0,1,1.491-1.582Z" transform="translate(-159.295 -193.841)" fill="#fff" opacity="0.6"/>
      <g id="Grupo_81572" data-name="Grupo 81572" transform="translate(93.969 89.872)" opacity="0.6">
        <path id="Trazado_116467" data-name="Trazado 116467" d="M305.8,292.1a.34.34,0,0,0-.348.487l1.742,4.816a.808.808,0,0,0,.708.5h81.81a.51.51,0,0,0,.512-.528l-.1-3.28a.561.561,0,0,0-.544-.537Z" transform="translate(-305.419 -292.102)" fill="#fff"/>
      </g>
      <path id="Trazado_116468" data-name="Trazado 116468" d="M234.494,268.67a1.785,1.785,0,0,1,2.461.669l2.293,4.11a.573.573,0,0,0,1.023-.045l5.687-12.662a.635.635,0,0,1,1.214.274,25,25,0,0,1-7.274,17.4s-3.41-1.325-6.156-7.356a1.872,1.872,0,0,1,.752-2.389Z" transform="translate(-161.709 -180.259)" fill="#3c0061"/>
      <path id="Trazado_116469" data-name="Trazado 116469" d="M239.36,370.243h-.031l-11.625-.112a3.022,3.022,0,0,1-3.088-2.567l-1.022-9.754a2.019,2.019,0,0,1,.477-1.518,2.45,2.45,0,0,1,1.708-.841c.981-.067,2.362-.185,3.824-.31,3.072-.262,6.894-.587,9.043-.614h.046a3.139,3.139,0,0,1,3.11,2.2c.6,2.227.549,6.456.434,10.964A2.771,2.771,0,0,1,239.36,370.243Zm-13.535-14.1a1.758,1.758,0,0,0-1.228.6,1.333,1.333,0,0,0-.319,1l1.022,9.754a2.338,2.338,0,0,0,2.411,1.95l11.625.112h.024a2.082,2.082,0,0,0,2.187-1.879c.114-4.455.168-8.63-.41-10.767a2.434,2.434,0,0,0-2.482-1.693c-2.124.026-5.933.351-8.994.611-1.465.125-2.849.242-3.836.31Z" transform="translate(-154.792 -245.45)" fill="#fff"/>
      <path id="Trazado_116470" data-name="Trazado 116470" d="M231.585,361.7c2.442-.167,7.75-.706,10.268-.737a2.252,2.252,0,0,1,2.253,1.556c.486,1.8.421,5.377.337,8.682a1.934,1.934,0,0,1-2.044,1.769l-9.29-.089a2.147,2.147,0,0,1-2.2-1.8l-.817-7.795a1.508,1.508,0,0,1,1.491-1.582Z" transform="translate(-159.295 -249.908)" fill="#fff" opacity="0.6"/>
      <g id="Grupo_81573" data-name="Grupo 81573" transform="translate(93.969 114.788)" opacity="0.6">
        <path id="Trazado_116471" data-name="Trazado 116471" d="M305.8,373.085a.34.34,0,0,0-.348.487l1.742,4.816a.809.809,0,0,0,.708.5h81.81a.51.51,0,0,0,.512-.528l-.1-3.28a.561.561,0,0,0-.544-.537Z" transform="translate(-305.419 -373.085)" fill="#fff"/>
      </g>
      <path id="Trazado_116472" data-name="Trazado 116472" d="M234.921,349.3a1.785,1.785,0,0,1,2.461.669l2.292,4.11a.573.573,0,0,0,1.024-.045l5.687-12.662a.635.635,0,0,1,1.214.274,25,25,0,0,1-7.274,17.4s-3.411-1.325-6.156-7.356a1.873,1.873,0,0,1,.752-2.39Z" transform="translate(-162.004 -236.084)" fill="#3c0061"/>
      <path id="Trazado_116473" data-name="Trazado 116473" d="M239.36,451.226h-.031l-11.625-.112a3.022,3.022,0,0,1-3.088-2.566l-1.022-9.754a2.019,2.019,0,0,1,.477-1.518,2.451,2.451,0,0,1,1.708-.841c.981-.067,2.362-.185,3.824-.31,3.072-.262,6.894-.587,9.043-.614h.046a3.14,3.14,0,0,1,3.11,2.2c.6,2.227.549,6.456.434,10.964A2.77,2.77,0,0,1,239.36,451.226Zm-13.535-14.1a1.757,1.757,0,0,0-1.228.6,1.333,1.333,0,0,0-.319,1l1.022,9.754a2.338,2.338,0,0,0,2.411,1.95l11.625.112h.024a2.082,2.082,0,0,0,2.187-1.879c.114-4.454.168-8.63-.41-10.767a2.442,2.442,0,0,0-2.482-1.693c-2.124.026-5.933.351-8.994.611-1.465.125-2.849.242-3.836.31Z" transform="translate(-154.792 -301.516)" fill="#fff"/>
      <path id="Trazado_116474" data-name="Trazado 116474" d="M231.585,442.691c2.442-.167,7.75-.706,10.268-.737a2.252,2.252,0,0,1,2.253,1.556c.486,1.8.421,5.377.337,8.682a1.934,1.934,0,0,1-2.044,1.769l-9.29-.089a2.147,2.147,0,0,1-2.2-1.8l-.817-7.795a1.509,1.509,0,0,1,1.491-1.582Z" transform="translate(-159.295 -305.977)" fill="#fff" opacity="0.6"/>
      <g id="Grupo_81574" data-name="Grupo 81574" transform="translate(93.971 139.704)" opacity="0.6">
        <path id="Trazado_116475" data-name="Trazado 116475" d="M305.8,454.069a.338.338,0,0,0-.346.487l1.768,4.818a.813.813,0,0,0,.711.5H391a.511.511,0,0,0,.512-.528l-.1-3.28a.561.561,0,0,0-.544-.537L305.8,454.069Z" transform="translate(-305.424 -454.069)" fill="#fff"/>
      </g>
      <path id="Trazado_116476" data-name="Trazado 116476" d="M234.921,430.3a1.785,1.785,0,0,1,2.461.669l2.292,4.11a.573.573,0,0,0,1.024-.045l5.687-12.662a.635.635,0,0,1,1.214.274,25,25,0,0,1-7.274,17.4s-3.411-1.325-6.156-7.356a1.873,1.873,0,0,1,.752-2.39Z" transform="translate(-162.004 -292.162)" fill="#3c0061"/>
      <path id="Trazado_116477" data-name="Trazado 116477" d="M239.36,532.209h-.031L227.7,532.1a3.022,3.022,0,0,1-3.088-2.567l-1.022-9.754a2.019,2.019,0,0,1,.477-1.518,2.454,2.454,0,0,1,1.708-.841c.979-.067,2.356-.184,3.814-.309,3.075-.261,6.9-.588,9.054-.615h.046a3.14,3.14,0,0,1,3.109,2.2c.6,2.227.549,6.456.434,10.964a2.77,2.77,0,0,1-2.875,2.549Zm-.668-15.027h-.037c-2.126.026-5.94.351-9,.612-1.461.124-2.841.242-3.825.309a1.756,1.756,0,0,0-1.228.6,1.335,1.335,0,0,0-.319,1l1.022,9.754a2.338,2.338,0,0,0,2.411,1.95l11.626.112h.024a2.082,2.082,0,0,0,2.187-1.879c.113-4.455.168-8.63-.41-10.767a2.453,2.453,0,0,0-2.445-1.693Z" transform="translate(-154.792 -357.583)" fill="#fff"/>
      <path id="Trazado_116478" data-name="Trazado 116478" d="M231.585,523.674c2.442-.167,7.75-.705,10.268-.737a2.252,2.252,0,0,1,2.253,1.557c.486,1.8.421,5.377.337,8.682a1.934,1.934,0,0,1-2.044,1.769l-9.29-.09a2.147,2.147,0,0,1-2.2-1.8l-.817-7.795a1.508,1.508,0,0,1,1.491-1.582Z" transform="translate(-159.295 -362.044)" fill="#fff" opacity="0.6"/>
      <g id="Grupo_81575" data-name="Grupo 81575" transform="translate(93.973 164.62)" opacity="0.6">
        <path id="Trazado_116479" data-name="Trazado 116479" d="M305.807,535.052a.335.335,0,0,0-.342.486l1.822,4.821a.823.823,0,0,0,.715.494h85.535a.511.511,0,0,0,.512-.528l-.1-3.281a.561.561,0,0,0-.544-.537l-87.594-1.455Z" transform="translate(-305.433 -535.052)" fill="#fff"/>
      </g>
      <path id="Trazado_116480" data-name="Trazado 116480" d="M234.921,511.3a1.785,1.785,0,0,1,2.461.669l2.292,4.11a.574.574,0,0,0,1.024-.045l5.687-12.662a.635.635,0,0,1,1.214.274,25,25,0,0,1-7.274,17.4s-3.411-1.325-6.156-7.356a1.873,1.873,0,0,1,.752-2.39Z" transform="translate(-162.004 -348.241)" fill="#3c0061"/>
      <path id="Trazado_116481" data-name="Trazado 116481" d="M243.885,612.988h-.031l-11.625-.112a3.022,3.022,0,0,1-3.088-2.567l-1.022-9.754a2.021,2.021,0,0,1,.478-1.518,2.453,2.453,0,0,1,1.708-.841c.979-.067,2.356-.184,3.814-.309,3.075-.262,6.9-.588,9.054-.615h.046a3.14,3.14,0,0,1,3.109,2.2c.6,2.226.549,6.456.434,10.964a2.771,2.771,0,0,1-2.875,2.549Zm-.668-15.027h-.037c-2.127.026-5.94.351-9,.612-1.461.124-2.841.242-3.825.309a1.755,1.755,0,0,0-1.228.6,1.333,1.333,0,0,0-.319,1l1.022,9.754a2.338,2.338,0,0,0,2.411,1.95l11.625.112h.024a2.083,2.083,0,0,0,2.187-1.879c.113-4.455.168-8.63-.41-10.767a2.454,2.454,0,0,0-2.445-1.693Z" transform="translate(-157.925 -413.509)" fill="#fff"/>
      <path id="Trazado_116482" data-name="Trazado 116482" d="M236.111,604.451c2.442-.167,7.75-.706,10.268-.737a2.25,2.25,0,0,1,2.252,1.556c.486,1.8.421,5.377.338,8.682a1.934,1.934,0,0,1-2.044,1.769l-9.29-.089a2.147,2.147,0,0,1-2.2-1.8l-.817-7.795a1.508,1.508,0,0,1,1.491-1.582Z" transform="translate(-162.428 -417.968)" fill="#fff" opacity="0.6"/>
      <g id="Grupo_81576" data-name="Grupo 81576" transform="translate(95.911 189.473)" opacity="0.6">
        <path id="Trazado_116483" data-name="Trazado 116483" d="M312.1,615.828a.335.335,0,0,0-.342.486l1.818,4.821a.823.823,0,0,0,.715.494h85.391a.511.511,0,0,0,.512-.528l-.1-3.28a.561.561,0,0,0-.544-.537l-87.446-1.455Z" transform="translate(-311.731 -615.828)" fill="#fff"/>
      </g>
      <path id="Trazado_116484" data-name="Trazado 116484" d="M237.921,592.3a1.784,1.784,0,0,1,2.461.669l2.293,4.11a.573.573,0,0,0,1.023-.045l5.687-12.662a.635.635,0,0,1,1.214.274,25,25,0,0,1-7.274,17.4s-3.411-1.325-6.156-7.356a1.873,1.873,0,0,1,.752-2.39Z" transform="translate(-164.081 -404.32)" fill="#3c0061"/>
      <path id="Trazado_116485" data-name="Trazado 116485" d="M221.089,195.725l-2.2.05a.966.966,0,0,1-.614-.171,1.044,1.044,0,0,1-.355-.453l-1.216-3.1-6.348.145-1.073,3.152a1,1,0,0,1-.324.453.936.936,0,0,1-.6.215l-2.215.05,5.669-15.461,2.914-.067,6.37,15.185Zm-10.051-5.559,4.885-.112L213.941,185q-.135-.336-.3-.793t-.325-.994q-.136.544-.268,1.013c-.089.313-.176.588-.262.822l-1.749,5.119Z" transform="translate(-142.713 -124.991)" fill="#3c0061"/>
      <path id="Trazado_116486" data-name="Trazado 116486" d="M262.119,189.571l.123,5.393-2.85.066-.35-15.324,4.991-.114a8.752,8.752,0,0,1,2.668.3,5.123,5.123,0,0,1,1.877.964,3.942,3.942,0,0,1,1.116,1.522,5.765,5.765,0,0,1,.07,4.012,4.229,4.229,0,0,1-1.077,1.62,5.169,5.169,0,0,1-1.831,1.081,8.243,8.243,0,0,1-2.6.43l-2.14.049Zm-.05-2.226,2.14-.049a4.276,4.276,0,0,0,1.363-.227,2.539,2.539,0,0,0,.952-.583,2.309,2.309,0,0,0,.552-.9,3.413,3.413,0,0,0,.164-1.176,3.09,3.09,0,0,0-.216-1.109,2.2,2.2,0,0,0-.592-.835,2.545,2.545,0,0,0-.976-.513,4.505,4.505,0,0,0-1.372-.154l-2.14.049.126,5.5Z" transform="translate(-179.342 -124.334)" fill="#3c0061"/>
      <path id="Trazado_116487" data-name="Trazado 116487" d="M305.172,188.587l.123,5.393-2.85.066-.35-15.324,4.991-.114a8.744,8.744,0,0,1,2.668.3,5.128,5.128,0,0,1,1.877.964,3.944,3.944,0,0,1,1.116,1.522,5.766,5.766,0,0,1,.07,4.012,4.225,4.225,0,0,1-1.077,1.62,5.165,5.165,0,0,1-1.831,1.081,8.234,8.234,0,0,1-2.6.43l-2.14.049Zm-.05-2.226,2.14-.049a4.276,4.276,0,0,0,1.363-.227,2.541,2.541,0,0,0,.952-.583,2.3,2.3,0,0,0,.552-.9,3.41,3.41,0,0,0,.164-1.176,3.09,3.09,0,0,0-.216-1.109,2.2,2.2,0,0,0-.592-.835,2.549,2.549,0,0,0-.976-.513,4.505,4.505,0,0,0-1.372-.154l-2.14.049.126,5.5Z" transform="translate(-209.149 -123.652)" fill="#3c0061"/>
      <path id="Trazado_116488" data-name="Trazado 116488" d="M348.212,187.026l.136,5.988-2.85.065-.35-15.324,4.673-.107a9.8,9.8,0,0,1,2.694.261,5.13,5.13,0,0,1,1.854.864,3.505,3.505,0,0,1,1.081,1.369,4.882,4.882,0,0,1,.18,3.246,4.231,4.231,0,0,1-.629,1.266,4.421,4.421,0,0,1-1.037,1.009,5.54,5.54,0,0,1-1.421.711,2.82,2.82,0,0,1,.952.858l3.966,5.571-2.564.059a1.248,1.248,0,0,1-.634-.134,1.287,1.287,0,0,1-.449-.414l-3.334-4.833a1.127,1.127,0,0,0-.406-.383,1.39,1.39,0,0,0-.644-.1l-1.219.028Zm-.047-2.045,1.78-.041a4.418,4.418,0,0,0,1.4-.233,2.7,2.7,0,0,0,.973-.579,2.24,2.24,0,0,0,.558-.855,2.906,2.906,0,0,0,.166-1.075,2.175,2.175,0,0,0-.809-1.773,3.674,3.674,0,0,0-2.361-.572l-1.823.041.117,5.087Z" transform="translate(-238.956 -122.989)" fill="#3c0061"/>
      <path id="Trazado_116489" data-name="Trazado 116489" d="M401.683,183.6a8.5,8.5,0,0,1-.491,3.134,7.408,7.408,0,0,1-1.522,2.521,7.156,7.156,0,0,1-2.41,1.693,8.849,8.849,0,0,1-6.342.145,7.2,7.2,0,0,1-2.5-1.581,7.35,7.35,0,0,1-1.64-2.449,8.949,8.949,0,0,1-.142-6.242,7.355,7.355,0,0,1,1.527-2.521,7.21,7.21,0,0,1,2.421-1.693,8.3,8.3,0,0,1,3.16-.66,8.19,8.19,0,0,1,3.182.521,7.252,7.252,0,0,1,2.485,1.581,7.331,7.331,0,0,1,1.636,2.444,8.494,8.494,0,0,1,.633,3.107Zm-2.925.067a7.142,7.142,0,0,0-.386-2.255,4.78,4.78,0,0,0-1-1.679,4.138,4.138,0,0,0-1.545-1.036,5.691,5.691,0,0,0-4.043.092,4.17,4.17,0,0,0-1.507,1.105,4.809,4.809,0,0,0-.931,1.723,7.727,7.727,0,0,0,.1,4.525,4.74,4.74,0,0,0,1.009,1.673,4.194,4.194,0,0,0,1.556,1.03,5.7,5.7,0,0,0,4.043-.093,4.157,4.157,0,0,0,1.5-1.1,4.727,4.727,0,0,0,.92-1.717,7.15,7.15,0,0,0,.282-2.27Z" transform="translate(-267.339 -121.811)" fill="#3c0061"/>
      <path id="Trazado_116490" data-name="Trazado 116490" d="M436.56,175.141l2.3-.053a.959.959,0,0,1,.608.166,1.1,1.1,0,0,1,.36.458l3.817,9.264q.191.452.367.994t.339,1.142a13.066,13.066,0,0,1,.555-2.165l3.379-9.429a1.1,1.1,0,0,1,.329-.453.918.918,0,0,1,.6-.215l2.3-.053-5.839,15.465-2.575.058-6.539-15.182Z" transform="translate(-302.243 -121.018)" fill="#3c0061"/>
      <path id="Trazado_116491" data-name="Trazado 116491" d="M500.028,173.966l.052,2.268-6.792.156.1,4.249,5.352-.122.05,2.193-5.352.122.1,4.335,6.793-.156.052,2.279-9.665.221-.35-15.324,9.665-.221Z" transform="translate(-339.493 -120.441)" fill="#3c0061"/>
      <path id="Trazado_116492" data-name="Trazado 116492" d="M543.581,180.825a8.3,8.3,0,0,1-.49,3.107,6.948,6.948,0,0,1-3.935,4.1,8.607,8.607,0,0,1-3.155.634l-5.849.134-.35-15.324,5.849-.134a8.524,8.524,0,0,1,3.181.495,7.16,7.16,0,0,1,2.484,1.523,7.058,7.058,0,0,1,1.634,2.385A8.3,8.3,0,0,1,543.581,180.825Zm-2.914.067a7.053,7.053,0,0,0-.39-2.255,4.806,4.806,0,0,0-1-1.674,4.156,4.156,0,0,0-1.545-1.03,5.228,5.228,0,0,0-2.027-.324l-2.978.068.247,10.788,2.978-.068a5.244,5.244,0,0,0,2.011-.417,4.156,4.156,0,0,0,1.5-1.1,4.8,4.8,0,0,0,.926-1.718,7.023,7.023,0,0,0,.287-2.27Z" transform="translate(-366.796 -120.006)" fill="#3c0061"/>
      <path id="Trazado_116493" data-name="Trazado 116493" d="M580.621,189.51a1.621,1.621,0,0,1,.108-.628,1.5,1.5,0,0,1,.327-.516,1.661,1.661,0,0,1,.506-.351,1.623,1.623,0,0,1,1.777.3,1.611,1.611,0,0,1,.351.5,1.615,1.615,0,0,1,.029,1.256,1.618,1.618,0,0,1-.328.511,1.519,1.519,0,0,1-.5.345,1.628,1.628,0,0,1-.622.136,1.659,1.659,0,0,1-.639-.107,1.6,1.6,0,0,1-.521-.322,1.511,1.511,0,0,1-.351-.5A1.6,1.6,0,0,1,580.621,189.51Zm.173,7.555a1.625,1.625,0,0,1,.108-.628,1.5,1.5,0,0,1,.328-.516,1.657,1.657,0,0,1,.506-.351,1.592,1.592,0,0,1,.633-.142,1.573,1.573,0,0,1,.628.113,1.562,1.562,0,0,1,.867.828,1.615,1.615,0,0,1,.029,1.256,1.622,1.622,0,0,1-.328.511,1.52,1.52,0,0,1-.5.345,1.687,1.687,0,0,1-1.261.029,1.6,1.6,0,0,1-.521-.322,1.507,1.507,0,0,1-.351-.5A1.6,1.6,0,0,1,580.794,197.065Z" transform="translate(-401.98 -130.069)" fill="#3c0061"/>
      <path id="Trazado_116494" data-name="Trazado 116494" d="M396.78,3.978c-4.844-3.37-9.056-3.3-12.021-2.428a5.914,5.914,0,0,0-4.2,6.218l1.278,13.956,15.215,1.35s9.227-12.487-.273-19.1Zm-6.691,11.26a3.794,3.794,0,1,1,3.794-3.793A3.794,3.794,0,0,1,390.089,15.238Z" transform="translate(-263.454 -0.72)" fill="#3c0061"/>
      <path id="Trazado_116495" data-name="Trazado 116495" d="M387.643,20.482a.344.344,0,0,1-.342-.313l-.2-2.222a.344.344,0,0,1,.685-.063l.2,2.222a.343.343,0,0,1-.311.374Zm-.4-4.355a.344.344,0,0,1-.342-.313l-.155-1.688a5.621,5.621,0,0,1,3.985-5.9A11.362,11.362,0,0,1,396.282,8a.344.344,0,0,1-.138.674,10.671,10.671,0,0,0-5.217.214,4.932,4.932,0,0,0-3.5,5.176l.155,1.688a.343.343,0,0,1-.311.374l-.031,0Z" transform="translate(-267.739 -5.372)" fill="#4b0079"/>
      <path id="Trazado_116496" data-name="Trazado 116496" d="M317.278,72.154V65.137a4.281,4.281,0,0,1,4.428-4.279l48.378,1.657a4.165,4.165,0,0,1,4.014,3.913l.4,6.742Z" transform="translate(-219.66 -42.131)" fill="#3c0061"/>
      <path id="Trazado_116497" data-name="Trazado 116497" d="M370.449,67.833h-2.081a.344.344,0,1,1,0-.688h2.081a.344.344,0,1,1,0,.688Z" transform="translate(-254.793 -46.486)" fill="#4b0079"/>
      <path id="Trazado_116498" data-name="Trazado 116498" d="M325.014,74.283a.344.344,0,0,1-.344-.344V71.1a3.959,3.959,0,0,1,3.955-3.955h7.649a.344.344,0,1,1,0,.688h-7.649a3.27,3.27,0,0,0-3.267,3.266v2.839A.344.344,0,0,1,325.014,74.283Z" transform="translate(-224.778 -46.486)" fill="#4b0079"/>
      <path id="Trazado_116499" data-name="Trazado 116499" d="M257.332,89.225l84.6,0a6.253,6.253,0,0,1,6.161,5.186l.072.414a5.37,5.37,0,0,1-5.291,6.285H256.079a3.491,3.491,0,0,1-3.487-3.659l.187-3.885A4.558,4.558,0,0,1,257.332,89.225Z" transform="translate(-174.873 -61.771)" fill="#3c0061"/>
      <path id="Trazado_116500" data-name="Trazado 116500" d="M515.223,605.857a9.193,9.193,0,0,0,9.367-9.19v-40.9a9.8,9.8,0,0,0-9.692-9.8c-16.126-.175-49.386-.185-76.6,2.109a7.368,7.368,0,0,0-6.737,7.081l-2.543,39.542a9.363,9.363,0,0,0,9.179,9.7l77.027,1.464Z" transform="translate(-297.016 -377.938)" fill="#b3009d"/>
      <path id="Trazado_116501" data-name="Trazado 116501" d="M664.995,585.434c.069,3.48-.035,9-.119,12.569a3.151,3.151,0,0,1-3.517,3.055L648.087,599.5a3.151,3.151,0,0,1-2.749-3.6l1.629-10.867a3.151,3.151,0,0,1,3.117-2.684h11.762a3.147,3.147,0,0,1,3.151,3.08Z" transform="translate(-446.761 -403.18)" fill="#fff"/>
      <path id="Trazado_116502" data-name="Trazado 116502" d="M565.448,581.149l-11.071,1.194a2.5,2.5,0,0,1-2.757-2.664l2.42-32.933c4.641-.147,9.218-.255,13.636-.33v32.251a2.5,2.5,0,0,1-2.228,2.481Z" transform="translate(-381.898 -378.299)" fill="#fff" opacity="0.37"/>
      <path id="Trazado_116503" data-name="Trazado 116503" d="M576.827,575.67a1.113,1.113,0,0,1-1.11,1.049.586.586,0,0,1-.065,0,1.113,1.113,0,0,1-1.047-1.176l1.67-28.743c.749-.018,1.491-.036,2.233-.051l-1.68,28.923Z" transform="translate(-397.814 -378.528)" fill="#fff"/>
      <path id="Trazado_116504" data-name="Trazado 116504" d="M688.524,604.041a.372.372,0,0,0,.371-.348l.574-9.053a.371.371,0,0,0-.347-.394.364.364,0,0,0-.394.347l-.574,9.053a.371.371,0,0,0,.348.394h.023Z" transform="translate(-476.428 -411.412)" fill="#fff"/>
      <path id="Trazado_116505" data-name="Trazado 116505" d="M684.681,603.651a.372.372,0,0,0,.372-.359l.3-9.226a.372.372,0,0,0-.359-.384.352.352,0,0,0-.384.359l-.3,9.226a.372.372,0,0,0,.359.384Z" transform="translate(-473.767 -411.022)" fill="#fff"/>
      <path id="Trazado_116506" data-name="Trazado 116506" d="M679.515,603.651a.371.371,0,0,1-.353-.388c.147-3.1.428-9.011.432-9.213a.371.371,0,0,1,.743,0c0,.153-.361,7.727-.434,9.244a.37.37,0,0,1-.37.354h-.018Z" transform="translate(-470.203 -411.024)" fill="#fff"/>
      <path id="Trazado_116507" data-name="Trazado 116507" d="M670.653,603.579a.742.742,0,0,0,.742-.717c.314-8.939.259-9.141.222-9.274a.742.742,0,0,0-1.452.294c.024.537-.142,5.739-.254,8.928a.742.742,0,0,0,.716.768h.026Z" transform="translate(-463.798 -410.579)" fill="#fff"/>
      <path id="Trazado_116508" data-name="Trazado 116508" d="M666.261,604.041a.371.371,0,0,0,.371-.372v-9.053a.372.372,0,1,0-.743,0v9.053A.372.372,0,0,0,666.261,604.041Z" transform="translate(-461.014 -411.413)" fill="#fff"/>
      <path id="Trazado_116509" data-name="Trazado 116509" d="M662.036,603.995a.372.372,0,0,0,.371-.362c.071-3.146.238-8.284.386-8.9a.371.371,0,0,0-.528-.491c-.2.132-.395.258-.6,9.376a.372.372,0,0,0,.362.38h.009Z" transform="translate(-458.089 -411.366)" fill="#fff"/>
      <path id="Trazado_116510" data-name="Trazado 116510" d="M694.179,604.03a.744.744,0,0,0,.741-.7l.495-9.506a.744.744,0,0,0-.7-.78.752.752,0,0,0-.78.7l-.495,9.506a.744.744,0,0,0,.7.78h.039Z" transform="translate(-480.085 -410.577)" fill="#fff"/>
      <path id="Trazado_116511" data-name="Trazado 116511" d="M565.475,446.458V417.735a6.882,6.882,0,0,0-6.806-6.885c-11.325-.123-34.683-.13-53.795,1.481a5.173,5.173,0,0,0-4.731,4.972l-1.786,27.769a6.576,6.576,0,0,0,6.446,6.811l54.094,1.028a6.456,6.456,0,0,0,6.579-6.454Z" transform="translate(-345.024 -284.409)" fill="#b3009d"/>
      <path id="Trazado_116512" data-name="Trazado 116512" d="M664.074,438.575c.048,2.444-.024,6.322-.083,8.827a2.212,2.212,0,0,1-2.471,2.144l-9.32-1.092a2.213,2.213,0,0,1-1.931-2.526l1.144-7.631a2.213,2.213,0,0,1,2.188-1.885h8.26a2.209,2.209,0,0,1,2.212,2.164Z" transform="translate(-450.182 -302.14)" fill="#fff"/>
      <path id="Trazado_116513" data-name="Trazado 116513" d="M594.167,435.565l-7.775.839a1.753,1.753,0,0,1-1.936-1.871l1.7-23.128c3.259-.1,6.474-.179,9.576-.232v22.649a1.752,1.752,0,0,1-1.565,1.743Z" transform="translate(-404.632 -284.667)" fill="#fff" opacity="0.37"/>
      <path id="Trazado_116514" data-name="Trazado 116514" d="M602.155,431.715a.782.782,0,0,1-.78.737.434.434,0,0,1-.046,0,.782.782,0,0,1-.736-.826l1.173-20.185q.788-.02,1.568-.036Z" transform="translate(-415.807 -284.826)" fill="#fff"/>
      <path id="Trazado_116515" data-name="Trazado 116515" d="M680.6,451.64a.261.261,0,0,0,.261-.244l.4-6.358a.26.26,0,0,0-.244-.276.255.255,0,0,0-.276.244l-.4,6.357a.261.261,0,0,0,.244.276h.016Z" transform="translate(-471.02 -307.921)" fill="#fff"/>
      <path id="Trazado_116516" data-name="Trazado 116516" d="M677.9,451.364a.261.261,0,0,0,.261-.252l.211-6.479a.261.261,0,0,0-.252-.27.247.247,0,0,0-.27.252l-.211,6.479a.261.261,0,0,0,.252.27h.009Z" transform="translate(-469.15 -307.645)" fill="#fff"/>
      <path id="Trazado_116517" data-name="Trazado 116517" d="M674.272,451.366a.26.26,0,0,1-.248-.272c.1-2.177.3-6.328.3-6.47a.261.261,0,0,1,.521,0c0,.108-.253,5.427-.3,6.492a.26.26,0,0,1-.26.248Z" transform="translate(-466.645 -307.647)" fill="#fff"/>
      <path id="Trazado_116518" data-name="Trazado 116518" d="M668.052,451.313a.521.521,0,0,0,.52-.5c.22-6.278.182-6.42.156-6.513a.521.521,0,0,0-1.019.207c.017.377-.1,4.03-.178,6.27a.522.522,0,0,0,.5.54h.018Z" transform="translate(-462.151 -307.333)" fill="#fff"/>
      <path id="Trazado_116519" data-name="Trazado 116519" d="M664.964,451.641a.26.26,0,0,0,.261-.261v-6.357a.261.261,0,1,0-.521,0v6.357A.26.26,0,0,0,664.964,451.641Z" transform="translate(-460.193 -307.921)" fill="#fff"/>
      <path id="Trazado_116520" data-name="Trazado 116520" d="M662,451.6a.261.261,0,0,0,.261-.255c.049-2.209.166-5.817.27-6.252a.261.261,0,0,0-.37-.345c-.142.094-.277.181-.422,6.584a.261.261,0,0,0,.255.266H662Z" transform="translate(-458.139 -307.885)" fill="#fff"/>
      <path id="Trazado_116521" data-name="Trazado 116521" d="M684.572,451.631a.522.522,0,0,0,.52-.5l.348-6.676a.521.521,0,0,0-.494-.548.527.527,0,0,0-.548.494l-.347,6.676a.521.521,0,0,0,.494.548h.027Z" transform="translate(-473.587 -307.332)" fill="#fff"/>
      <path id="Trazado_116522" data-name="Trazado 116522" d="M454.354,639.21V610.487c0-3.774-2.621-6.844-5.882-6.885-9.788-.123-29.974-.13-46.491,1.481a4.908,4.908,0,0,0-4.089,4.972l-1.544,27.769c-.115,3.673,2.4,6.741,5.571,6.812l46.75,1.028c3.123.069,5.685-2.841,5.685-6.454Z" transform="translate(-274.4 -417.857)" fill="#b3009d"/>
      <path id="Trazado_116523" data-name="Trazado 116523" d="M539.564,631.324c.042,2.444-.021,6.322-.073,8.827a2.028,2.028,0,0,1-2.135,2.144L529.3,641.2a2.175,2.175,0,0,1-1.669-2.526l.989-7.631a2.025,2.025,0,0,1,1.891-1.885h7.139a2.068,2.068,0,0,1,1.912,2.164Z" transform="translate(-365.28 -435.586)" fill="#fff"/>
      <path id="Trazado_116524" data-name="Trazado 116524" d="M479.151,628.314l-6.719.839a1.635,1.635,0,0,1-1.673-1.871l1.469-23.128c2.816-.1,5.595-.178,8.276-.232v22.65a1.68,1.68,0,0,1-1.352,1.742Z" transform="translate(-325.916 -418.113)" fill="#fff" opacity="0.37"/>
      <path id="Trazado_116525" data-name="Trazado 116525" d="M486.053,624.464a.727.727,0,0,1-.674.737.345.345,0,0,1-.04,0,.749.749,0,0,1-.635-.826l1.013-20.185c.454-.013.905-.025,1.355-.036Z" transform="translate(-335.573 -418.272)" fill="#fff"/>
      <path id="Trazado_116526" data-name="Trazado 116526" d="M553.847,644.389a.242.242,0,0,0,.225-.244l.348-6.357a.25.25,0,0,0-.211-.277.235.235,0,0,0-.239.244l-.348,6.357a.249.249,0,0,0,.211.276Z" transform="translate(-383.288 -441.367)" fill="#fff"/>
      <path id="Trazado_116527" data-name="Trazado 116527" d="M551.517,644.113a.244.244,0,0,0,.225-.252l.183-6.479a.249.249,0,0,0-.218-.27c-.143-.008-.229.108-.233.252l-.183,6.479a.248.248,0,0,0,.218.27Z" transform="translate(-381.675 -441.091)" fill="#fff"/>
      <path id="Trazado_116528" data-name="Trazado 116528" d="M548.378,644.115a.249.249,0,0,1-.214-.272c.09-2.177.26-6.329.262-6.47a.227.227,0,1,1,.45,0c0,.107-.219,5.427-.263,6.492a.242.242,0,0,1-.225.248h-.01Z" transform="translate(-379.509 -441.093)" fill="#fff"/>
      <path id="Trazado_116529" data-name="Trazado 116529" d="M543,644.065a.488.488,0,0,0,.45-.5c.19-6.278.157-6.42.135-6.513a.447.447,0,0,0-.553-.365.526.526,0,0,0-.329.572c.015.378-.086,4.03-.154,6.271a.5.5,0,0,0,.434.54H543Z" transform="translate(-375.623 -440.781)" fill="#fff"/>
      <path id="Trazado_116530" data-name="Trazado 116530" d="M540.335,644.39a.244.244,0,0,0,.225-.261v-6.357a.227.227,0,1,0-.45,0v6.357A.245.245,0,0,0,540.335,644.39Z" transform="translate(-373.933 -441.367)" fill="#fff"/>
      <path id="Trazado_116531" data-name="Trazado 116531" d="M537.772,644.354A.244.244,0,0,0,538,644.1c.043-2.209.144-5.817.234-6.252a.3.3,0,0,0-.008-.27.207.207,0,0,0-.312-.074c-.122.093-.239.181-.364,6.584a.247.247,0,0,0,.22.266h0Z" transform="translate(-372.159 -441.331)" fill="#fff"/>
      <path id="Trazado_116532" data-name="Trazado 116532" d="M557.28,644.38a.486.486,0,0,0,.45-.495l.3-6.676a.5.5,0,0,0-.427-.548.486.486,0,0,0-.474.494l-.3,6.676a.5.5,0,0,0,.427.548h.023Z" transform="translate(-385.509 -440.778)" fill="#fff"/>
      <path id="Trazado_116533" data-name="Trazado 116533" d="M284.511,512.262l-55.426,60.326a5.894,5.894,0,0,0,.7,8.625l.443.348a5.48,5.48,0,0,0,7.715-.957l50.422-65.12Z" transform="translate(-157.526 -354.653)" fill="#3c0061"/>
      <path id="Trazado_116534" data-name="Trazado 116534" d="M432.36,343.258c21.983-11.41,30.722-38.159,19.518-59.746s-38.108-29.837-60.091-18.427-30.722,38.159-19.518,59.746S410.377,354.668,432.36,343.258Z" transform="translate(-254.353 -179.972)" fill="#fff" opacity="0.27"/>
      <path id="Trazado_116535" data-name="Trazado 116535" d="M378.157,249.509c-24.463,12.693-34.19,42.457-21.725,66.479s42.4,33.2,66.863,20.511,34.189-42.457,21.725-66.479S402.62,236.815,378.157,249.509Zm41.823,80.6c-20.87,10.828-46.407,3-57.041-17.5S360.6,266.727,381.471,255.9s46.408-3,57.041,17.5,2.336,45.884-18.534,56.714Z" transform="translate(-243.009 -168.789)" fill="#3c0061"/>
      <path id="Trazado_116536" data-name="Trazado 116536" d="M369.858,326.781a.128.128,0,0,1-.123-.054c-.663-.957-1.3-1.953-1.885-2.962a.128.128,0,1,1,.221-.128c.585,1,1.215,1.994,1.875,2.945a.128.128,0,0,1-.087.2Zm-6.008-12.319a.128.128,0,0,1-.14-.089A44.921,44.921,0,0,1,361.865,305a45.888,45.888,0,0,1,5.487-26.043,47.344,47.344,0,0,1,45.2-24.423.128.128,0,0,1-.022.255,47.088,47.088,0,0,0-44.956,24.292,45.638,45.638,0,0,0-5.457,25.9,44.681,44.681,0,0,0,1.835,9.321.128.128,0,0,1-.084.16.091.091,0,0,1-.021,0Z" transform="translate(-250.408 -176.113)" fill="#58008f"/>
      <path id="Trazado_116537" data-name="Trazado 116537" d="M239.032,702.342c-2.408.336-4.086-.287-4.985-1.852a4.4,4.4,0,0,1,.6-5.089l6.544-7.456a.108.108,0,0,1,.163.143l-6.544,7.456a4.188,4.188,0,0,0-.574,4.838c.861,1.5,2.481,2.083,4.843,1.734a.109.109,0,0,1,.03.215l-.076.011Z" transform="translate(-161.654 -476.259)" fill="#5a0290"/>
      <path id="Trazado_116538" data-name="Trazado 116538" d="M265.092,678.482a.108.108,0,0,1-.1-.179l.848-.966a.108.108,0,1,1,.163.143l-.848.966a.1.1,0,0,1-.066.036Z" transform="translate(-183.446 -468.914)" fill="#5a0290"/>
      <path id="Trazado_116539" data-name="Trazado 116539" d="M149.981,400.4s0,15.074-6.608,13.845c-4.038-.751-6.429-16.989-6.429-16.989s4.178-9.305,4.644-6.259C144.979,413.14,147.505,396.194,149.981,400.4Z" transform="translate(-94.81 -270.275)" fill="#febbba"/>
      <path id="Trazado_116540" data-name="Trazado 116540" d="M119.936,713.742s-.5,2.825-.744,5.621a1.927,1.927,0,0,0,1.844,2.088c3.724.155,11.69.457,14.549.329a.627.627,0,0,0,.552-.859,1.4,1.4,0,0,0-.718-.756l-13.158-6.047Z" transform="translate(-82.515 -494.144)" fill="#3c0061"/>
      <path id="Trazado_116541" data-name="Trazado 116541" d="M120.3,707.175l.4,3.379s2.305,1.073,3.878-.135l-.955-3.765-3.325.522Z" transform="translate(-83.285 -489.237)" fill="#fff"/>
      <path id="Trazado_116542" data-name="Trazado 116542" d="M97.768,501.867c-.173.882-.929,44.034,3.683,63.372a.657.657,0,0,1-.385.764,11.445,11.445,0,0,1-3.756.764,1.129,1.129,0,0,1-1.121-.812c-1.319-4.487-7.637-26.966-8.461-48.441-.921-24,0-.817,0-.817l.54-14.833,9.5,0Z" transform="translate(-60.453 -347.455)" fill="#3c0061"/>
      <path id="Trazado_116543" data-name="Trazado 116543" d="M68.859,718.53a20.343,20.343,0,0,0-1.564,5.216,1.175,1.175,0,0,0,1.034,1.407c1.229.121,3.122.276,4.639.266a1.171,1.171,0,0,0,1.16-1.307,9.883,9.883,0,0,0-2.308-5.422l-2.963-.161Z" transform="translate(-46.573 -497.458)" fill="#3c0061"/>
      <path id="Trazado_116544" data-name="Trazado 116544" d="M70.165,703.959l.937,5.11a3.3,3.3,0,0,0,2.758.19l-.447-5.5Z" transform="translate(-48.577 -487.233)" fill="#fff"/>
      <path id="Trazado_116545" data-name="Trazado 116545" d="M58.671,500.8c-3.773,22.768.818,56.272,2.366,62.83a1.024,1.024,0,0,0,.826.777,6.871,6.871,0,0,0,2.95-.117.938.938,0,0,0,.673-.863c.208-5.3-.166-37.848,3.349-50.711a2.918,2.918,0,0,1,1.127-1.612l6.823-4.85.523-7.84L58.67,500.8Z" transform="translate(-39.613 -345.067)" fill="#3c0061"/>
      <path id="Trazado_116546" data-name="Trazado 116546" d="M83.224,368.031a63.729,63.729,0,0,0-24.2,2.109c-3.37,19.663-.589,42.344-.589,42.344,8.753,2.295,18.626-1.4,18.626-1.4,1.454-8.219,7.516-27.2,7.516-27.2,2.762-.343,5.354,1.052,4.758-2.782S84.959,368.2,83.224,368.031Z" transform="translate(-39.712 -254.575)" fill="#b3009d"/>
      <path id="Trazado_116547" data-name="Trazado 116547" d="M39.447,386.557,35.111,375.61s-10.56,7.175-12.3,16.272a24.985,24.985,0,0,1,9.18,2.46C32.775,390.047,39.447,386.557,39.447,386.557Z" transform="translate(-15.795 -260.045)" fill="#b3009d"/>
      <path id="Trazado_116548" data-name="Trazado 116548" d="M49.07,433.474s-12.2,6.682-16.2.961c-.831-1.188-1.578-2.765-1.373-3.891A23.06,23.06,0,0,0,22.29,428.5c-.524,2.743-.256,5.072,1.747,8.82,5.356,10.024,26.6-.921,26.6-.921Z" transform="translate(-15.27 -296.661)" fill="#febbba"/>
      <path id="Trazado_116549" data-name="Trazado 116549" d="M111.6,414.833l5.182-18.1a.527.527,0,0,1,.446-.38c.939-.109,3.659-.417,6.8-.683a77.279,77.279,0,0,1,10.8-.359.529.529,0,0,1,.433.762c-1.493,3.021-7.635,15.308-10.71,19.333a.53.53,0,0,1-.427.209l-12.023-.112A.529.529,0,0,1,111.6,414.833Z" transform="translate(-77.251 -273.631)" fill="#fff"/>
      <path id="Trazado_116550" data-name="Trazado 116550" d="M153.417,390.237l3.689-.615a.265.265,0,0,1,.3.344l-.365,1.107a.265.265,0,0,1-.217.18l-3.55.474a.265.265,0,0,1-.293-.323l.226-.966A.265.265,0,0,1,153.417,390.237Z" transform="translate(-105.905 -269.744)" fill="#91b3fa"/>
      <path id="Trazado_116551" data-name="Trazado 116551" d="M145.428,395.849l.3-1.583a.366.366,0,0,1,.323-.3l7.451-.756a.366.366,0,0,1,.393.449l-.474,1.972a.365.365,0,0,1-.338.28l-7.282.366a.366.366,0,0,1-.378-.434Z" transform="translate(-100.678 -272.232)" fill="#6bf"/>
      <path id="Trazado_116552" data-name="Trazado 116552" d="M109.818,437.164a1.029,1.029,0,0,1-1.094-.825,12.606,12.606,0,0,1-.361-4.223c.363-1.315,1.068-3.006,3.416-2.63a34.3,34.3,0,0,1,5.118,1.365,1.344,1.344,0,0,1-1.924,1.16l1.107.856s-.158,1.372-1.665.639l1.029,1.136a1.2,1.2,0,0,1-1.756.4c-.991-.645-1.521,1.89-3.869,2.118Z" transform="translate(-74.963 -297.309)" fill="#fff"/>
      <path id="Trazado_116553" data-name="Trazado 116553" d="M159.677,414.292s2.733-2.662,3.123-3.969.692-3.114-1.5-4.043a34.339,34.339,0,0,0-5.061-1.562,1.344,1.344,0,0,0,1.014,2.005l-1.393.137s-.595,1.246,1.072,1.426l-1.475.415a1.2,1.2,0,0,0,1.273,1.275c1.324-.023.042,3.022,2.944,4.315Z" transform="translate(-107.63 -280.198)" fill="#febbba"/>
      <path id="Trazado_116554" data-name="Trazado 116554" d="M96.336,340.692l-3.6,10.4a.376.376,0,0,0,.17.452,8.457,8.457,0,0,0,8.771-.59,1.763,1.763,0,0,0,.813-1.261l1.165-9H96.336Z" transform="translate(-64.191 -235.87)" fill="#ffb3b1"/>
      <path id="Trazado_116555" data-name="Trazado 116555" d="M113.789,325.184s-1.163,8.339-3.335,10.475-6.011-.911-8.042-5.394l2.29-8.255Z" transform="translate(-70.903 -222.936)" fill="#febbba"/>
      <path id="Trazado_116556" data-name="Trazado 116556" d="M95.181,315.444a.307.307,0,0,0,.372-.285,7.985,7.985,0,0,1,.479-2.534s-.309-.785,2.084.2,5.982,2.433,7.877,1.161c1.848-1.241,3.294-6.682-1.774-5.183a.306.306,0,0,1-.4-.282,3.161,3.161,0,0,0-2.384-3.271,2.9,2.9,0,0,0-3.25,1.1.305.305,0,0,1-.476.041,3.533,3.533,0,0,0-4.471-.862c-1.768,1.005-1.939,2.175-1.836,2.883a.306.306,0,0,1-.4.334,1.839,1.839,0,0,0-2.282.938c-1.053,1.637.808,2.773,1.36,3.064a.305.305,0,0,1,.164.238c.085.787.559,4.207,2.478,5.968a.309.309,0,0,0,.5-.141l1-3.292a.309.309,0,0,1,.359-.212l.594.127Z" transform="translate(-61.204 -211.198)" fill="#3c0061"/>
      <path id="Trazado_116557" data-name="Trazado 116557" d="M104.846,335.755s-1.146-3.213-2.265-2.017.67,3.392,2.125,3.7l.142-1.68Z" transform="translate(-70.776 -230.871)" fill="#fff"/>
    </g>
  </g>
</svg>
