<svg xmlns="http://www.w3.org/2000/svg" width="311.909" height="227.663" viewBox="0 0 311.909 227.663">
  <g id="Grupo_1013435" data-name="Grupo 1013435" transform="translate(-289.091 -2073)">
    <g id="Group_19_1_" data-name="Group 19 (1)" transform="translate(289.091 2073)">
      <path id="Trazado_116828" data-name="Trazado 116828" d="M186.994,257.532a13.45,13.45,0,1,1-12.86-14.015A13.422,13.422,0,0,1,186.994,257.532Z" transform="translate(-99.2 -150.872)" fill="#b3ddff"/>
      <path id="Trazado_116829" data-name="Trazado 116829" d="M143.816,173.9a18.235,18.235,0,0,1-5.637-15.609c.529-3.4,10.077-9.311,10.077-9.311L134,133.492s-6.686,9.064-10.1,9.3a17.11,17.11,0,0,1-14.331-6.668c-2.026-2.784.6-13.706.6-13.706l-21.052-.907s1.647,11.125-.59,13.706a14.609,14.609,0,0,1-13.16,4.475c-3.374-.67-8.817-10.5-8.817-10.5L50.42,142.74s8.729,7.073,8.826,10.5a19.36,19.36,0,0,1-7.734,15.529c-2.8,2-13.724-.766-13.724-.766l-1.18,21.034s11.125-1.524,13.671.749a18.267,18.267,0,0,1,5.646,15.626c-.52,3.391-10.095,9.3-10.095,9.3L60.082,230.2s6.686-9.055,10.112-9.293a17.2,17.2,0,0,1,14.34,6.668c2.017,2.784-.581,13.706-.581,13.706l21.035.907s-1.665-11.125.573-13.706a14.682,14.682,0,0,1,13.186-4.475c3.356.678,8.809,10.5,8.809,10.5l16.128-13.548s-8.72-7.082-8.826-10.5a19.393,19.393,0,0,1,7.743-15.529c2.8-1.982,13.724.775,13.724.775l1.163-21.035s-11.108,1.506-13.671-.767ZM95.554,216.221a34.888,34.888,0,1,1,36.353-33.349A34.874,34.874,0,0,1,95.554,216.221Z" transform="translate(-22.682 -75.287)" fill="#93cfff"/>
      <path id="Trazado_116830" data-name="Trazado 116830" d="M178.746,237.831a26.657,26.657,0,1,1-25.483-27.791A26.652,26.652,0,0,1,178.746,237.831Z" transform="translate(-77.73 -130.122)" fill="#93cfff"/>
      <path id="Trazado_116831" data-name="Trazado 116831" d="M689.513,65.455H635.068V265.936h54.445Z" transform="translate(-393.477 -40.555)" fill="#00cca7"/>
      <path id="Trazado_116832" data-name="Trazado 116832" d="M478.492,65.455H382.356V265.936h96.136Z" transform="translate(-236.901 -40.555)" fill="#c1e4fa"/>
      <path id="Trazado_116833" data-name="Trazado 116833" d="M698.6,454.78H673.042v43.109H698.6Z" transform="translate(-417.005 -281.774)" fill="#848fb7"/>
      <path id="Trazado_116834" data-name="Trazado 116834" d="M700.578,466.867H681.331v1.867h19.247Z" transform="translate(-422.141 -289.263)" fill="#464f72"/>
      <path id="Trazado_116835" data-name="Trazado 116835" d="M700.578,475.457H681.331v1.876h19.247Z" transform="translate(-422.141 -294.585)" fill="#464f72"/>
      <path id="Trazado_116836" data-name="Trazado 116836" d="M700.578,484.279H681.331v1.876h19.247Z" transform="translate(-422.141 -300.051)" fill="#464f72"/>
      <path id="Trazado_116837" data-name="Trazado 116837" d="M700.578,492.87H681.331v1.876h19.247Z" transform="translate(-422.141 -305.374)" fill="#464f72"/>
      <path id="Trazado_116838" data-name="Trazado 116838" d="M700.578,501.646H681.331v1.867h19.247Z" transform="translate(-422.141 -310.811)" fill="#464f72"/>
      <path id="Trazado_116839" data-name="Trazado 116839" d="M700.578,510.236H681.331v1.876h19.247Z" transform="translate(-422.141 -316.133)" fill="#464f72"/>
      <path id="Trazado_116840" data-name="Trazado 116840" d="M700.578,519.058H681.331v1.867h19.247Z" transform="translate(-422.141 -321.599)" fill="#464f72"/>
      <path id="Trazado_116841" data-name="Trazado 116841" d="M700.578,527.648H681.331v1.876h19.247Z" transform="translate(-422.141 -326.922)" fill="#464f72"/>
      <path id="Trazado_116842" data-name="Trazado 116842" d="M700.578,538.114H681.331v1.876h19.247Z" transform="translate(-422.141 -333.406)" fill="#464f72"/>
      <path id="Trazado_116843" data-name="Trazado 116843" d="M700.578,546.936H681.331V548.8h19.247Z" transform="translate(-422.141 -338.872)" fill="#464f72"/>
      <path id="Trazado_116844" data-name="Trazado 116844" d="M700.578,555.527H681.331V557.4h19.247Z" transform="translate(-422.141 -344.195)" fill="#464f72"/>
      <path id="Trazado_116845" data-name="Trazado 116845" d="M672.185,164.9H698.4l-13.107-26.205Z" transform="translate(-416.474 -85.932)" fill="#6d76a1"/>
      <path id="Trazado_116846" data-name="Trazado 116846" d="M699.994,169.4l-10.57-20.586L678.854,169.4Z" transform="translate(-420.606 -92.201)" fill="#ffca00"/>
      <path id="Trazado_116847" data-name="Trazado 116847" d="M707.583,175.226l.2-9.293-2.4,3.242-.652-8.183-.044,10.659,1.938-2.687Z" transform="translate(-436.616 -99.747)" fill="#6d76a1"/>
      <path id="Trazado_116848" data-name="Trazado 116848" d="M484.195,109.032H410.767v30.662h73.428Z" transform="translate(-254.504 -67.554)" fill="#6d76a1"/>
      <path id="Trazado_116849" data-name="Trazado 116849" d="M473.8,118.549H420.608v15.335H473.8Z" transform="translate(-260.601 -73.451)" fill="#464f72"/>
      <path id="Trazado_116850" data-name="Trazado 116850" d="M484.195,209.478H410.767V217.8h73.428Z" transform="translate(-254.504 -129.789)" fill="#6d76a1"/>
      <path id="Trazado_116851" data-name="Trazado 116851" d="M594.81,257.431h-5.5v30.513h5.5Z" transform="translate(-365.129 -159.5)" fill="#6d76a1"/>
      <path id="Trazado_116852" data-name="Trazado 116852" d="M569.117,257.431h-5.505v30.513h5.505Z" transform="translate(-349.204 -159.5)" fill="#6d76a1"/>
      <path id="Trazado_116853" data-name="Trazado 116853" d="M543.384,257.431h-5.5v30.513h5.5Z" transform="translate(-333.265 -159.5)" fill="#6d76a1"/>
      <path id="Trazado_116854" data-name="Trazado 116854" d="M517.69,257.431h-5.505v30.513h5.505Z" transform="translate(-317.341 -159.5)" fill="#6d76a1"/>
      <path id="Trazado_116855" data-name="Trazado 116855" d="M495.994,257.431h-5.505v30.513h5.505Z" transform="translate(-303.898 -159.5)" fill="#6d76a1"/>
      <path id="Trazado_116856" data-name="Trazado 116856" d="M470.292,257.431h-5.505v30.513h5.505Z" transform="translate(-287.974 -159.5)" fill="#6d76a1"/>
      <path id="Trazado_116857" data-name="Trazado 116857" d="M444.582,257.431h-5.5v30.513h5.5Z" transform="translate(-272.049 -159.5)" fill="#6d76a1"/>
      <path id="Trazado_116858" data-name="Trazado 116858" d="M418.865,257.431H413.36v30.513h5.505Z" transform="translate(-256.111 -159.5)" fill="#6d76a1"/>
      <path id="Trazado_116859" data-name="Trazado 116859" d="M420.378,328.957h-.7V389.92h.7Z" transform="translate(-260.028 -203.816)" fill="#6d76a1"/>
      <path id="Trazado_116860" data-name="Trazado 116860" d="M446.1,328.957h-.7V389.92h.7Z" transform="translate(-275.966 -203.816)" fill="#6d76a1"/>
      <path id="Trazado_116861" data-name="Trazado 116861" d="M471.8,328.957h-.7V389.92h.7Z" transform="translate(-291.89 -203.816)" fill="#6d76a1"/>
      <path id="Trazado_116862" data-name="Trazado 116862" d="M497.506,328.957h-.7V389.92h.7Z" transform="translate(-307.815 -203.816)" fill="#6d76a1"/>
      <path id="Trazado_116863" data-name="Trazado 116863" d="M519.2,328.957h-.7V389.92h.7Z" transform="translate(-321.257 -203.816)" fill="#6d76a1"/>
      <path id="Trazado_116864" data-name="Trazado 116864" d="M544.9,328.957h-.7V389.92h.7Z" transform="translate(-337.182 -203.816)" fill="#6d76a1"/>
      <path id="Trazado_116865" data-name="Trazado 116865" d="M570.629,328.957h-.7V389.92h.7Z" transform="translate(-353.121 -203.816)" fill="#6d76a1"/>
      <path id="Trazado_116866" data-name="Trazado 116866" d="M596.331,328.957h-.7V389.92h.7Z" transform="translate(-369.045 -203.816)" fill="#6d76a1"/>
      <path id="Trazado_116867" data-name="Trazado 116867" d="M484.195,487.475H410.767v3.691h73.428Z" transform="translate(-254.504 -302.031)" fill="#6d76a1"/>
      <path id="Trazado_116868" data-name="Trazado 116868" d="M573.1,238.188l-.044-5.347a2.444,2.444,0,0,0-.714-1.735,2.052,2.052,0,0,0-1.436-.6h-.018l-9.161.07a3.247,3.247,0,0,1-2.387-1.039,3.59,3.59,0,0,1-.978-2.475l-.052-6.633h1.383l.053,6.624a2.244,2.244,0,0,0,.6,1.533,1.858,1.858,0,0,0,1.357.6h.018l9.161-.071h.026a3.38,3.38,0,0,1,2.4,1,3.907,3.907,0,0,1,1.128,2.713l.044,5.347H573.1Z" transform="translate(-345.919 -136.575)" fill="#6d76a1"/>
      <path id="Trazado_116869" data-name="Trazado 116869" d="M521.229,238.151l-.035-5.347a2.447,2.447,0,0,0-.661-1.683,2.027,2.027,0,0,0-1.489-.66h-.018l-9.152.07h-.027a3.232,3.232,0,0,1-2.36-1.039,3.59,3.59,0,0,1-.978-2.475l-.044-6.633h1.383l.044,6.624a2.244,2.244,0,0,0,.6,1.533,1.825,1.825,0,0,0,1.374.6l9.152-.071h.027a3.4,3.4,0,0,1,2.493,1.093,3.843,3.843,0,0,1,1.039,2.625l.035,5.347h-1.383Z" transform="translate(-313.798 -136.546)" fill="#6d76a1"/>
      <path id="Trazado_116870" data-name="Trazado 116870" d="M474.453,238.1l-.035-5.347a2.178,2.178,0,0,0-1.92-2.343h-.009l-8.395.062h-.018a2.9,2.9,0,0,1-2.052-.872,3.762,3.762,0,0,1-1.075-2.651l-.053-6.633h1.383l.053,6.624a2.372,2.372,0,0,0,.661,1.673,1.521,1.521,0,0,0,1.083.467h.009l8.395-.062h.017a3.56,3.56,0,0,1,3.312,3.717l.035,5.347h-1.383Z" transform="translate(-285.564 -136.503)" fill="#6d76a1"/>
      <path id="Trazado_116871" data-name="Trazado 116871" d="M427.009,238.122l-.035-5.347a2.925,2.925,0,0,0-.538-1.735,1.351,1.351,0,0,0-1.039-.6l-7.267.053h-.017a2.466,2.466,0,0,1-1.726-.749,3.924,3.924,0,0,1-1.075-2.775l-.053-6.633h1.383l.053,6.624a2.578,2.578,0,0,0,.661,1.8,1.1,1.1,0,0,0,.757.344l7.267-.053h.018a2.731,2.731,0,0,1,2.141,1.154,4.32,4.32,0,0,1,.819,2.563l.035,5.347h-1.383Z" transform="translate(-257.287 -136.517)" fill="#6d76a1"/>
      <path id="Trazado_116872" data-name="Trazado 116872" d="M484.195,512.69H410.767v11.548h73.428Z" transform="translate(-254.504 -317.654)" fill="#6d76a1"/>
      <path id="Trazado_116873" data-name="Trazado 116873" d="M594.81,369.894h-5.5v7.937h5.5Z" transform="translate(-365.129 -229.18)" fill="#6d76a1"/>
      <path id="Trazado_116874" data-name="Trazado 116874" d="M569.117,429.009h-5.505v7.936h5.505Z" transform="translate(-349.204 -265.807)" fill="#6d76a1"/>
      <path id="Trazado_116875" data-name="Trazado 116875" d="M543.384,380.314h-5.5v7.937h5.5Z" transform="translate(-333.265 -235.636)" fill="#6d76a1"/>
      <path id="Trazado_116876" data-name="Trazado 116876" d="M517.682,458.9h-5.5v7.936h5.5Z" transform="translate(-317.341 -284.328)" fill="#6d76a1"/>
      <path id="Trazado_116877" data-name="Trazado 116877" d="M495.994,359.452h-5.505v7.936h5.505Z" transform="translate(-303.898 -222.71)" fill="#6d76a1"/>
      <path id="Trazado_116878" data-name="Trazado 116878" d="M446.234,369.894h-5.505v7.937h5.505Z" transform="translate(-273.068 -229.18)" fill="#6d76a1"/>
      <path id="Trazado_116879" data-name="Trazado 116879" d="M418.865,448.459H413.36V456.4h5.505Z" transform="translate(-256.111 -277.857)" fill="#6d76a1"/>
      <path id="Trazado_116880" data-name="Trazado 116880" d="M631.644,116.3h-3.523v48.464h3.523Z" transform="translate(-389.173 -72.059)" fill="#c1e4fa"/>
      <path id="Trazado_116881" data-name="Trazado 116881" d="M631.644,408.424h-3.523v48.464h3.523Z" transform="translate(-389.173 -253.052)" fill="#c1e4fa"/>
      <path id="Trazado_116882" data-name="Trazado 116882" d="M310.3,233.716c.96-1.242,4.906-3.788,8.826-1.674,5.241,2.819,11.953,12.94,20.163,12.676,8.245-.282,10.826-5.188,13.01-8.245,2.167-3.065,1.586-5.3,3.057-6.941s3.339.167,1.039,5.919c-1.092,2.757-4.9,16.983-14.631,19.114-12.755,2.8-37.093-13.459-31.455-20.841Z" transform="translate(-191.744 -141.854)" fill="#fbc6b4"/>
      <path id="Trazado_116883" data-name="Trazado 116883" d="M312,231.324s-4.906,4.3,1.295,11.777,9.927,9.883,9.927,9.883,5.866-2.449,10.658-11.178c0,0-15.855-17.529-21.889-10.482Z" transform="translate(-192.167 -142.29)" fill="#eda503"/>
      <path id="Trazado_116884" data-name="Trazado 116884" d="M260.736,243.579c3.638,13.45,1.63,22.9,0,28.02,3.8,1.216,1.533,3.25,1.427,3.515-5.364,11.134,27.993,4.536,33.851-4.475,2.017-3.1.088-7.038.449-12.992.132-1.339.167-2.7.176-4.026a74.522,74.522,0,0,0-1.1-16.1c-2.616-12.288-14.173-12.887-21.211-11.909-3.2.441-7.355.978-10.561,2.863l-.018.027c-3.726,2.255-5.725,5.082-3.021,15.08Z" transform="translate(-160.769 -139.587)" fill="#ffb502"/>
      <path id="Trazado_116885" data-name="Trazado 116885" d="M271.047,236.818c1.444,6.1,6.6,24.734-8.263,34.054,0,0,24.611,18.022,38.687,2.431,0,0-2.827-26.593-6.765-37.154-1.127-3.03-4.131-12.349-9.531-11,0,0,9.5,14.957,5.162,18.9s-8.421.634-10.333-2.343c-3.065-4.783-6.333-15.855-6.333-15.855l-5.743,1.462a61.313,61.313,0,0,1,3.127,9.513Z" transform="translate(-162.816 -139.415)" fill="#3c0061"/>
      <path id="Trazado_116886" data-name="Trazado 116886" d="M295.831,202.717s3.153,4.95-.2,8.254c-3.444,3.382,12.394,9.354,11.627,6.316-.978-3.929-3.321-6.025-1.964-10.861Z" transform="translate(-182.862 -125.6)" fill="#f7b2a0"/>
      <path id="Trazado_116887" data-name="Trazado 116887" d="M299.251,171.573c3.814,2.757,9.258,16.349,6.1,19.9-1.392,1.55-7.972.846-12.808-4.818-1.991-2.308-4.651-6.809-2.7-11.918.889-2.317,4.994-6.377,9.416-3.171Z" transform="translate(-179.156 -105.563)" fill="#fbc6b4"/>
      <path id="Trazado_116888" data-name="Trazado 116888" d="M299.576,170.657c.978,1.665.81,2.1-4.4,3.594s-6.157,1.251-5.461,2.449c2.07,3.523-1.814,3.277.7,7.452,2.5,4.193-2.3,2.07-4.721-1.3-.476-.687-3.171-3.955-1.295-9.8,2.176-6.827,11.557-8.5,15.168-2.378Z" transform="translate(-175.807 -103.397)" fill="#1d1b3a"/>
      <path id="Trazado_116889" data-name="Trazado 116889" d="M297.609,181.771s16.111-4.554,15.362-9.575c-.458-3.1-9.812-1.885-9.812-1.885Z" transform="translate(-184.393 -105.376)" fill="#eda503"/>
      <path id="Trazado_116890" data-name="Trazado 116890" d="M297.769,167.538c-1.286,4.845-5.092,7.514-14.966,10.667,0,0-5.347-9.575,1.586-14.649C290.511,159.091,298.6,164.438,297.769,167.538Z" transform="translate(-174.001 -100.278)" fill="#ffb502"/>
      <path id="Trazado_116891" data-name="Trazado 116891" d="M233.146,432.605c-3.339,13.072-7.258,40.977-.837,41.136s10-1.8,6.3-2.828c-3.7-1.048-3.849-1.445-3.735-2.484,1.594-13.477,22.664-34.494,24.461-50.517.6-5.47,1.013-10.473,1.3-14.869,2.4,11.733.634,24.188.846,28.31.678,14.649,3.805,42.334,10.826,42.4,7.479.053,11.152-2.017,6.369-3-4.131-.872-3.955-1.066-3.884-2.088,1-14.789,8.174-42.131,9.548-59.7,1.594-20.277-48.288,12.235-51.2,23.668Z" transform="translate(-141.802 -249.346)" fill="#fbc6b4"/>
      <path id="Trazado_116892" data-name="Trazado 116892" d="M332.68,581.09s5.576,2.211,9.02,0c0,0,6.289.846,2.343,2.378C340.079,585,332.442,586.269,332.68,581.09Z" transform="translate(-206.119 -360.033)" fill="#ffb502"/>
      <path id="Trazado_116893" data-name="Trazado 116893" d="M230.753,582.41s5.585,2.2,9.02,0c0,0,6.289.854,2.325,2.378S230.524,587.589,230.753,582.41Z" transform="translate(-142.967 -360.851)" fill="#ffb502"/>
      <path id="Trazado_116894" data-name="Trazado 116894" d="M276.611,328.957c-12.781,8.527-30.662,7.663-37.621,6.307-1.885,15.2-13.31,72.265-14.6,80.087,5.611,1.859,7.478,2.255,9.1,2.255,27.095-34.943,23.985-49.936,24.276-54.322,1.022,5.074-2.326,29.94,3.523,54.322,1.964,1.268,7.9,2.907,12.156,0,.212-1.559,8.165-29.561,7.989-51.486C281.323,351.172,278.821,340.919,276.611,328.957Z" transform="translate(-139.031 -203.816)" fill="#3c0061"/>
      <path id="Trazado_116895" data-name="Trazado 116895" d="M264.578,362.253a12.589,12.589,0,0,0,8.65-10.456l-1.057-.079a11.336,11.336,0,0,1-7.928,9.531l.326,1Z" transform="translate(-163.72 -217.918)" fill="#fff"/>
      <path id="Trazado_116896" data-name="Trazado 116896" d="M348.8,357.075l.326-1.013a11.509,11.509,0,0,1-7.928-9.531l-1.057.079a12.625,12.625,0,0,0,8.659,10.455Z" transform="translate(-210.748 -214.705)" fill="#fff"/>
      <path id="Trazado_116897" data-name="Trazado 116897" d="M55.74,513.825H0v32.2H55.74Z" transform="translate(0 -318.357)" fill="#c1e4fa"/>
      <path id="Trazado_116898" data-name="Trazado 116898" d="M168.149,513.825H146.524v32.2h21.625Z" transform="translate(-90.784 -318.357)" fill="#4ca1bf"/>
      <path id="Trazado_116899" data-name="Trazado 116899" d="M16.852,487.312H8.845v15.7h8.007Z" transform="translate(-5.48 -301.93)" fill="#c1e4fa"/>
      <path id="Trazado_116900" data-name="Trazado 116900" d="M78.947,493.194H19.357v1.92h59.59Z" transform="translate(-11.994 -305.574)" fill="#464f72"/>
      <path id="Trazado_116901" data-name="Trazado 116901" d="M173.471,487.312h-8.007v15.7h8.007Z" transform="translate(-102.519 -301.93)" fill="#4ca1bf"/>
      <path id="Trazado_116902" data-name="Trazado 116902" d="M254.242,355.608H208.579V381.98h45.663Z" transform="translate(-129.232 -220.329)" fill="#c1e4fa"/>
      <path id="Trazado_116903" data-name="Trazado 116903" d="M346.328,355.608H328.614V381.98h17.714Z" transform="translate(-203.604 -220.329)" fill="#4ca1bf"/>
      <path id="Trazado_116904" data-name="Trazado 116904" d="M222.389,333.865h-6.563v12.86h6.563Z" transform="translate(-133.722 -206.857)" fill="#c1e4fa"/>
      <path id="Trazado_116905" data-name="Trazado 116905" d="M273.248,338.7H224.44v1.576h48.808Z" transform="translate(-139.059 -209.856)" fill="#464f72"/>
      <path id="Trazado_116906" data-name="Trazado 116906" d="M350.69,333.865h-6.563v12.86h6.563Z" transform="translate(-213.215 -206.857)" fill="#4ca1bf"/>
      <path id="Trazado_116907" data-name="Trazado 116907" d="M256.594,236.494c1.427.458,4.07,2.792,3.391,6.976-.9,5.611-7.937,14.816-5.126,22.136,2.819,7.337,8.06,8.139,11.5,9.143s5.267-.22,7.214.581.889,3.074-5.012,2.792c-2.827-.141-16.833.881-21.8-7.223C240.246,260.286,248.191,233.72,256.594,236.494Z" transform="translate(-151.403 -146.403)" fill="#fbc6b4"/>
      <path id="Trazado_116908" data-name="Trazado 116908" d="M252.684,230.983s-3.894-.731-8.694,7.205c-4.792,7.91-5.8,12.024-5.8,12.024s4.034,4.527,13.407,6.122c0,0,10.552-20.718,1.083-25.36Z" transform="translate(-147.581 -143.102)" fill="#eda503"/>
      <path id="Trazado_116909" data-name="Trazado 116909" d="M795.012,348.671a5.84,5.84,0,1,1,5.849-5.84A5.855,5.855,0,0,1,795.012,348.671Zm0-9.082a3.237,3.237,0,1,0,3.242,3.242A3.245,3.245,0,0,0,795.012,339.59Z" transform="translate(-488.952 -208.794)" fill="#00cca7"/>
      <path id="Trazado_116910" data-name="Trazado 116910" d="M301.511,96.043,299.682,97.9l8.786,8.653L310.3,104.7Z" transform="translate(-185.678 -59.506)" fill="#ffb502"/>
      <path id="Trazado_116911" data-name="Trazado 116911" d="M308.513,96.093l-8.615,8.639,1.846,1.841,8.615-8.639Z" transform="translate(-185.812 -59.538)" fill="#ffb502"/>
      <path id="Trazado_116912" data-name="Trazado 116912" d="M578.838,6.874l1.136-1.251s-.564-.564-1.127-1.11c-.52-.608-1.048-1.207-1.048-1.207l-1.312,1.066s.564.643,1.128,1.295c.617.608,1.224,1.216,1.224,1.216Z" transform="translate(-357.181 -2.049)" fill="#ffca00"/>
      <path id="Trazado_116913" data-name="Trazado 116913" d="M589.551,14.731l.361-1.656a7.256,7.256,0,0,1-1.392-.467,5.662,5.662,0,0,1-.907-.5c-.238-.159-.4-.255-.4-.255l-.96,1.4s.185.123.467.3a6.445,6.445,0,0,0,1.092.6,9.055,9.055,0,0,0,1.735.6Z" transform="translate(-363.235 -7.343)" fill="#ffca00"/>
      <path id="Trazado_116914" data-name="Trazado 116914" d="M603.13,15.068l-.67-1.55a9.276,9.276,0,0,1-1.436.5,6.718,6.718,0,0,1-1.454.22l.053,1.691a8.037,8.037,0,0,0,1.823-.273,10.272,10.272,0,0,0,1.691-.6Z" transform="translate(-371.484 -8.376)" fill="#ffca00"/>
      <path id="Trazado_116915" data-name="Trazado 116915" d="M614.46,8.624,613.553,7.2l-1.392.881c-.7.414-1.383.828-1.383.828l.828,1.48s.731-.432,1.462-.872l1.392-.9Z" transform="translate(-378.427 -4.459)" fill="#ffca00"/>
      <path id="Trazado_116916" data-name="Trazado 116916" d="M625.4,2.627l-.511-1.612a14.285,14.285,0,0,0-1.647.669c-.784.388-1.506.819-1.506.819l.863,1.462s.7-.414,1.392-.758a12.182,12.182,0,0,1,1.418-.573Z" transform="translate(-385.214 -0.629)" fill="#ffca00"/>
      <path id="Trazado_116917" data-name="Trazado 116917" d="M637.57,2.2l.7-1.533A7.247,7.247,0,0,0,636.5.113a6.526,6.526,0,0,0-1.867-.079l.159,1.682a4.818,4.818,0,0,1,1.409.062,5.736,5.736,0,0,1,1.365.432Z" transform="translate(-393.204 0)" fill="#ffca00"/>
      <path id="Trazado_116918" data-name="Trazado 116918" d="M647.931,7.55,649.2,6.432s-.59-.634-1.207-1.251c-.335-.282-.67-.573-.916-.784a5.08,5.08,0,0,0-.458-.326l-.969,1.383s.158.1.387.273.511.432.8.687c.546.555,1.083,1.127,1.083,1.127Z" transform="translate(-400.034 -2.522)" fill="#ffca00"/>
      <path id="Trazado_116919" data-name="Trazado 116919" d="M805.436,147.914l-2.317.011.026,5.505,2.316-.011Z" transform="translate(-497.599 -91.645)" fill="#3c0061"/>
      <path id="Trazado_116920" data-name="Trazado 116920" d="M805.561,169.471l-2.317.011.026,5.505,2.317-.011Z" transform="translate(-497.676 -105.001)" fill="#3c0061"/>
      <path id="Trazado_116921" data-name="Trazado 116921" d="M805.662,191.027l-2.316.011.026,5.505,2.317-.011Z" transform="translate(-497.739 -118.357)" fill="#3c0061"/>
      <path id="Trazado_116922" data-name="Trazado 116922" d="M805.764,212.542l-2.317.014.033,5.505,2.317-.014Z" transform="translate(-497.802 -131.687)" fill="#3c0061"/>
      <path id="Trazado_116923" data-name="Trazado 116923" d="M805.889,234.14l-2.317.011.026,5.505,2.317-.011Z" transform="translate(-497.879 -145.069)" fill="#3c0061"/>
      <path id="Trazado_116924" data-name="Trazado 116924" d="M806,255.655l-2.316.014.033,5.505,2.316-.014Z" transform="translate(-497.946 -158.399)" fill="#3c0061"/>
      <path id="Trazado_116925" data-name="Trazado 116925" d="M806.081,277.294l-2.316.008.019,5.505,2.317-.008Z" transform="translate(-497.999 -171.807)" fill="#3c0061"/>
      <path id="Trazado_116926" data-name="Trazado 116926" d="M90.153,448.158H66.176v1.85H90.153Z" transform="translate(-41.002 -277.671)" fill="#27355c"/>
      <path id="Trazado_116927" data-name="Trazado 116927" d="M103.98,432.227H90.767v1.85H103.98Z" transform="translate(-56.238 -267.8)" fill="#27355c"/>
    </g>
  </g>
</svg>
