<svg xmlns="http://www.w3.org/2000/svg" width="399.252" height="391.511" viewBox="0 0 399.252 391.511">
  <g id="Grupo_1013353" data-name="Grupo 1013353" transform="translate(-944.178 -125)">
    <g id="Group_37_" data-name="Group (37)" transform="translate(944.173 124.962)">
      <path id="Trazado_114715" data-name="Trazado 114715" d="M425.244,55.026,395.794,89.1a5.321,5.321,0,1,0,8.053,6.958l29.475-34.05-8.054-6.958Zm-24.3,39.22a2.979,2.979,0,1,1,0-5.957,2.978,2.978,0,0,1,0,5.957Z" transform="translate(-145.769 -20.318)" fill="#99d2ff"/>
      <path id="Trazado_114716" data-name="Trazado 114716" d="M462.118,43.349c-.214,7.053-5.623,12.581-12.033,12.39-6.434-.191-11.461-6.076-11.247-13.105a12.855,12.855,0,0,1,7.125-11.342V43.778h9.412V31.387a12.794,12.794,0,0,1,6.767,11.985Z" transform="translate(-162.15 -11.549)" fill="#99d2ff"/>
      <path id="Trazado_114717" data-name="Trazado 114717" d="M441.772,84.1l1.124-1.2a5.217,5.217,0,0,1,7.376-.237l17.589,16.494-8.263,8.812-17.59-16.495A5.217,5.217,0,0,1,441.772,84.1Z" transform="translate(-162.715 -30.009)" fill="#3c0061"/>
      <path id="Trazado_114718" data-name="Trazado 114718" d="M440.273,78.689l-2.859,3.026-8.435-3.264,7.577-8.006Z" transform="translate(-158.509 -26.016)" fill="#3c0061"/>
      <path id="Trazado_114719" data-name="Trazado 114719" d="M409.068,48.126l-2.628,2.628,17.219,17.219,2.628-2.628Z" transform="translate(-150.181 -17.769)" fill="#3c0061"/>
      <path id="Trazado_114720" data-name="Trazado 114720" d="M406.226,45.759l-2.311,2.287a1.421,1.421,0,0,1-2.24-.31l-2.931-5.29,1.882-1.859,5.29,2.955a1.422,1.422,0,0,1,.31,2.24Z" transform="translate(-147.338 -14.984)" fill="#3c0061"/>
      <path id="Trazado_114721" data-name="Trazado 114721" d="M430.793,462.141a4.932,4.932,0,1,1-4.932-4.932A4.927,4.927,0,0,1,430.793,462.141Z" transform="translate(-155.535 -168.929)" fill="#3c0061"/>
      <path id="Trazado_114722" data-name="Trazado 114722" d="M429.279,465.032h-2.455v89.4h2.455Z" transform="translate(-157.713 -171.82)" fill="#3c0061"/>
      <path id="Trazado_114723" data-name="Trazado 114723" d="M423.263,581.167l-9.364,16.25h18.753Z" transform="translate(-152.937 -214.733)" fill="#3c0061"/>
      <path id="Trazado_114724" data-name="Trazado 114724" d="M620.4,462.141a4.932,4.932,0,1,1-4.932-4.932A4.927,4.927,0,0,1,620.4,462.141Z" transform="translate(-225.595 -168.929)" fill="#3c0061"/>
      <path id="Trazado_114725" data-name="Trazado 114725" d="M618.843,465.032h-2.455v89.4h2.455Z" transform="translate(-227.759 -171.82)" fill="#3c0061"/>
      <path id="Trazado_114726" data-name="Trazado 114726" d="M612.852,581.167l-9.388,16.25h18.777Z" transform="translate(-222.983 -214.733)" fill="#3c0061"/>
      <path id="Trazado_114727" data-name="Trazado 114727" d="M549.591,497.533H422.78V511.9H549.591Z" transform="translate(-156.219 -183.829)" fill="#99d2ff"/>
      <path id="Trazado_114728" data-name="Trazado 114728" d="M451.909,511.9h-8.22l-6.434-14.368h8.22Z" transform="translate(-161.568 -183.829)" fill="#3c0061"/>
      <path id="Trazado_114729" data-name="Trazado 114729" d="M482.256,511.9h-8.22L467.6,497.533h8.22Z" transform="translate(-172.781 -183.829)" fill="#3c0061"/>
      <path id="Trazado_114730" data-name="Trazado 114730" d="M512.6,511.9h-8.22l-6.434-14.368h8.2Z" transform="translate(-183.995 -183.829)" fill="#3c0061"/>
      <path id="Trazado_114731" data-name="Trazado 114731" d="M542.95,511.9h-8.22L528.3,497.533h8.2Z" transform="translate(-195.208 -183.829)" fill="#3c0061"/>
      <path id="Trazado_114732" data-name="Trazado 114732" d="M573.3,511.9h-8.22l-6.434-14.368h8.2Z" transform="translate(-206.422 -183.829)" fill="#3c0061"/>
      <path id="Trazado_114733" data-name="Trazado 114733" d="M603.644,511.9h-8.22l-6.434-14.368h8.2Z" transform="translate(-217.635 -183.829)" fill="#3c0061"/>
      <path id="Trazado_114734" data-name="Trazado 114734" d="M549.591,530.526H422.78v14.368H549.591Z" transform="translate(-156.219 -196.02)" fill="#99d2ff"/>
      <path id="Trazado_114735" data-name="Trazado 114735" d="M451.909,544.894h-8.22l-6.434-14.368h8.22Z" transform="translate(-161.568 -196.02)" fill="#3c0061"/>
      <path id="Trazado_114736" data-name="Trazado 114736" d="M482.256,544.894h-8.22L467.6,530.526h8.22Z" transform="translate(-172.781 -196.02)" fill="#3c0061"/>
      <path id="Trazado_114737" data-name="Trazado 114737" d="M512.6,544.894h-8.22l-6.434-14.368h8.2Z" transform="translate(-183.995 -196.02)" fill="#3c0061"/>
      <path id="Trazado_114738" data-name="Trazado 114738" d="M542.95,544.894h-8.22L528.3,530.526h8.2Z" transform="translate(-195.208 -196.02)" fill="#3c0061"/>
      <path id="Trazado_114739" data-name="Trazado 114739" d="M573.3,544.894h-8.22l-6.434-14.368h8.2Z" transform="translate(-206.422 -196.02)" fill="#3c0061"/>
      <path id="Trazado_114740" data-name="Trazado 114740" d="M603.644,544.894h-8.22l-6.434-14.368h8.2Z" transform="translate(-217.635 -196.02)" fill="#3c0061"/>
      <path id="Trazado_114741" data-name="Trazado 114741" d="M110.758,180.042h-6.981V448.65h6.981Z" transform="translate(-38.345 -66.513)" fill="#99d2ff"/>
      <path id="Trazado_114742" data-name="Trazado 114742" d="M112.444,180.08H96.861v4h15.583Z" transform="translate(-35.789 -66.527)" fill="#3c0061"/>
      <path id="Trazado_114743" data-name="Trazado 114743" d="M112.094,585.173H98.751v13.344h13.343Z" transform="translate(-36.487 -216.213)" fill="#3c0061"/>
      <path id="Trazado_114744" data-name="Trazado 114744" d="M187.452,180.042h-6.957V448.65h6.957Z" transform="translate(-66.693 -66.513)" fill="#99d2ff"/>
      <path id="Trazado_114745" data-name="Trazado 114745" d="M189.124,180.08H173.541v4h15.583Z" transform="translate(-64.123 -66.527)" fill="#3c0061"/>
      <path id="Trazado_114746" data-name="Trazado 114746" d="M188.775,585.173H175.431v13.344h13.344Z" transform="translate(-64.821 -216.213)" fill="#3c0061"/>
      <path id="Trazado_114747" data-name="Trazado 114747" d="M159.1,240.32H103.777v9.054H159.1Z" transform="translate(-38.345 -88.786)" fill="#3c0061"/>
      <path id="Trazado_114748" data-name="Trazado 114748" d="M159.1,285.86H103.777v9.054H159.1Z" transform="translate(-38.345 -105.614)" fill="#3c0061"/>
      <path id="Trazado_114749" data-name="Trazado 114749" d="M159.1,332.382H103.777v9.031H159.1Z" transform="translate(-38.345 -122.804)" fill="#3c0061"/>
      <path id="Trazado_114750" data-name="Trazado 114750" d="M159.1,378.224H103.777v9.054H159.1Z" transform="translate(-38.345 -139.743)" fill="#3c0061"/>
      <path id="Trazado_114751" data-name="Trazado 114751" d="M159.1,425.426H103.777v9.031H159.1Z" transform="translate(-38.345 -157.185)" fill="#3c0061"/>
      <path id="Trazado_114752" data-name="Trazado 114752" d="M159.1,471.91H103.777v9.055H159.1Z" transform="translate(-38.345 -174.361)" fill="#3c0061"/>
      <path id="Trazado_114753" data-name="Trazado 114753" d="M159.1,517.752H103.777v9.054H159.1Z" transform="translate(-38.345 -191.3)" fill="#3c0061"/>
      <path id="Trazado_114754" data-name="Trazado 114754" d="M426.687,282.609h-2.5a1.859,1.859,0,0,0-1.859,1.859V307.8a1.859,1.859,0,0,0,1.859,1.859h2.5a1.859,1.859,0,0,0,1.859-1.859V284.468A1.859,1.859,0,0,0,426.687,282.609Z" transform="translate(-156.052 -104.413)" fill="#041a28"/>
      <path id="Trazado_114755" data-name="Trazado 114755" d="M426.687,189.339h-2.5a1.858,1.858,0,0,0-1.859,1.858v41.341a1.859,1.859,0,0,0,1.859,1.859h2.5a1.859,1.859,0,0,0,1.859-1.859V191.2A1.858,1.858,0,0,0,426.687,189.339Z" transform="translate(-156.052 -69.948)" fill="#041a28"/>
      <path id="Trazado_114756" data-name="Trazado 114756" d="M334.817,139.718H201.74a5.6,5.6,0,0,0-5.6,5.6V429.557a5.6,5.6,0,0,0,5.6,5.6H334.817a5.6,5.6,0,0,0,5.6-5.6V145.317A5.6,5.6,0,0,0,334.817,139.718Z" transform="translate(-72.474 -51.613)" fill="#041a28"/>
      <path id="Trazado_114757" data-name="Trazado 114757" d="M333.178,152.869H208.2a5.6,5.6,0,0,0-5.6,5.6V426.1a5.6,5.6,0,0,0,5.6,5.6H333.178a5.6,5.6,0,0,0,5.6-5.6V158.468A5.6,5.6,0,0,0,333.178,152.869Z" transform="translate(-74.862 -56.473)" fill="#468fc1"/>
      <path id="Trazado_114758" data-name="Trazado 114758" d="M263.8,164.812h41.317a1.861,1.861,0,0,1,1.859,1.858v2.478a1.861,1.861,0,0,1-1.859,1.859H263.8a1.861,1.861,0,0,1-1.859-1.859V166.67A1.861,1.861,0,0,1,263.8,164.812Z" transform="translate(-96.786 -60.886)" fill="#041a28"/>
      <path id="Trazado_114759" data-name="Trazado 114759" d="M355,167.654a3.6,3.6,0,1,1-3.6-3.6A3.61,3.61,0,0,1,355,167.654Z" transform="translate(-128.514 -60.606)" fill="#041a28"/>
      <path id="Trazado_114760" data-name="Trazado 114760" d="M327.836,344.75l-9.031-1.216a34.408,34.408,0,0,0-3.6-12.152l6.91-5.29a1.888,1.888,0,0,0,.357-2.621l-6.672-8.744a1.887,1.887,0,0,0-2.621-.357l-7.244,5.527a35.192,35.192,0,0,0-11.152-6.052l1.168-8.649a1.857,1.857,0,0,0-1.6-2.1l-10.913-1.453a1.87,1.87,0,0,0-2.1,1.6l-1.215,9.054a34.408,34.408,0,0,0-12.152,3.6l-5.29-6.934a1.884,1.884,0,0,0-2.621-.357l-8.745,6.672a1.891,1.891,0,0,0-.358,2.621l5.552,7.244a34.7,34.7,0,0,0-6.052,11.151l-8.65-1.167a1.873,1.873,0,0,0-2.1,1.6l-1.454,10.913a1.857,1.857,0,0,0,1.6,2.1l9.054,1.216a35,35,0,0,0,3.574,12.175l-6.91,5.266a1.888,1.888,0,0,0-.357,2.622l6.671,8.744a1.89,1.89,0,0,0,2.621.357l7.244-5.528a33.909,33.909,0,0,0,11.128,6.053l-1.168,8.625a1.874,1.874,0,0,0,1.6,2.1l10.913,1.477a1.892,1.892,0,0,0,2.1-1.6l1.215-9.054a34.665,34.665,0,0,0,12.176-3.6l5.266,6.91a1.89,1.89,0,0,0,2.621.357l8.745-6.672a1.891,1.891,0,0,0,.357-2.621l-5.528-7.244a34.755,34.755,0,0,0,6.076-11.151l8.6,1.167a1.874,1.874,0,0,0,2.1-1.6l1.453-10.913a1.887,1.887,0,0,0-1.6-2.1Zm-43.986,26.02a23.518,23.518,0,1,1,23.517-23.518A23.521,23.521,0,0,1,283.851,370.77Z" transform="translate(-88.034 -111.44)" fill="#b4d2ed"/>
      <path id="Trazado_114763" data-name="Trazado 114763" d="M265.06,106.132l-11.008-3.526-6.814,15.3c-.048.119-.119.262-.167.381l-.071.143a6.6,6.6,0,0,0-.4,2.168,5.764,5.764,0,0,0,5.861,6.123c3.146,0,5.457-5.766,5.457-5.766l7.125-14.821Z" transform="translate(-91.117 -37.9)" fill="#f5be97"/>
      <path id="Trazado_114764" data-name="Trazado 114764" d="M330.6,111.7l5.886,12.342s-21.612,11.271-23.018,12.629c-1.405,1.334-5.5,1.906-7.315,2.74s-3.288,1.144-2.907,2.263c.381,1.144,7.839-.834,7.839-.834s-5.028,4.528-5.957,7.482c-1.191,3.717-1.882,4.742-.477,6.6,1.406,1.835,4.694,1.644,7.053-1.381s2.1-4.146,5.147-6.815,3.86-4.718,3.622-6.076c4.313-1.6,22.589-7.315,25.639-9.674s2.025-6.386.857-9.912c-1.12-3.407-5.862-13.677-5.862-13.677s-1.334-.381-5.671,1.239c-4.1,1.549-4.861,3.1-4.861,3.1Z" transform="translate(-112.028 -39.65)" fill="#f5be97"/>
      <path id="Trazado_114765" data-name="Trazado 114765" d="M324.394,94.429l-11.723,5.433-4.1-9.6v24.376l-38.053-.143.1-16.8.048-8.65L267.971,98l-12.534-4.36s8.887-18.49,12.319-20.849c1.168-.81,2.192-.477,4.408-.62,1.263-.1,2.74-.143,4.384-.191,7.648-.214,18.633,0,26.853.5,1.24.048,2.455.143,3.55.214,4.289.334,6.124.191,7.553,1.573,1.74,1.692,9.913,20.134,9.913,20.134Z" transform="translate(-94.384 -26.554)" fill="#ffca00"/>
      <path id="Trazado_114766" data-name="Trazado 114766" d="M299.084,56.537l-2.907,10.1s3.669,2.407,10.293,2.454c6.7.048,9.007-1.716,9.007-1.716L313.07,56.537H299.084Z" transform="translate(-109.438 -20.877)" fill="#eca87b"/>
      <path id="Trazado_114767" data-name="Trazado 114767" d="M317.412,96.877v17.943H279.359l.1-18.252c1.406-2.026,2.883-5.647,3.026-12.414.143-6.219-.333-9.221-1.239-11.652,1.287-.119,2.478-.119,4.122-.167l1.144,18.323,23.851.31,1.859-18.133c1.239.048,2.454.143,3.55.214a39.885,39.885,0,0,0-1.168,9.483,36.565,36.565,0,0,0,2.787,14.344Z" transform="translate(-103.224 -26.714)" fill="#12263f"/>
      <path id="Trazado_114768" data-name="Trazado 114768" d="M312.336,121.07h-8.268a4.527,4.527,0,1,1,0-9.054h8.268a4.527,4.527,0,0,1,0,9.054Z" transform="translate(-110.681 -41.377)" fill="#10214b"/>
      <path id="Trazado_114769" data-name="Trazado 114769" d="M249.69,120.655c5,5.6,36-12.3,37.409-12.891,2.74.262,13.51-.548,13.82-2.478a1.445,1.445,0,0,0-.691-1.5s1.572-1.668.238-2.74a1.284,1.284,0,0,0-.525-2.383,1.471,1.471,0,0,0-.1-2.74c-1.311-.62-8.078.405-8.078.405s2.5-6.958.929-7.22c-1.549-.238-3.05,3.479-3.931,5.766s-1.859,4.5-1.859,4.5-18.776,7.577-25,9.96c-.881.381-6.648,2.407-10.246,5.1C249.19,116.295,247.736,118.487,249.69,120.655Z" transform="translate(-91.926 -32.908)" fill="#f5be97"/>
      <path id="Trazado_114770" data-name="Trazado 114770" d="M327.642,104.16h-4.384a.29.29,0,0,1-.286-.286.275.275,0,0,1,.286-.286h4.384a.29.29,0,0,1,.286.286A.275.275,0,0,1,327.642,104.16Z" transform="translate(-119.339 -38.263)" fill="#4b2524"/>
      <path id="Trazado_114771" data-name="Trazado 114771" d="M322.8,108.413a.29.29,0,0,1-.286-.286.286.286,0,0,1,.262-.286l4.908-.1a.275.275,0,0,1,.024.549l-4.909.1Z" transform="translate(-119.171 -39.799)" fill="#4b2524"/>
      <path id="Trazado_114772" data-name="Trazado 114772" d="M322.539,112.764a.3.3,0,0,1-.286-.262.27.27,0,0,1,.262-.286l4.718-.238a.27.27,0,0,1,.286.262.286.286,0,0,1-.262.286Z" transform="translate(-119.073 -41.363)" fill="#4b2524"/>
      <path id="Trazado_114773" data-name="Trazado 114773" d="M304.96,76.783h-.191c-7.863-.072-11.318-4.289-11.461-4.48a.269.269,0,0,1,.048-.381.3.3,0,0,1,.4.048c.024.048,3.455,4.194,11.032,4.265h.19c7.435,0,10.818-3.812,10.866-3.836a.287.287,0,0,1,.429.381c-.143.167-3.55,4.051-11.271,4.051Z" transform="translate(-108.356 -26.54)" fill="#4b2524"/>
      <path id="Trazado_114774" data-name="Trazado 114774" d="M287.776,40.737s-4.956-4.718-6.41-.715a6.387,6.387,0,0,0,8.1,7.982c-.977-3.86-1.692-7.244-1.692-7.244Z" transform="translate(-103.85 -14.179)" fill="#eca87b"/>
      <path id="Trazado_114775" data-name="Trazado 114775" d="M330.6,40.737s4.956-4.718,6.41-.715A6.387,6.387,0,0,1,328.9,48c.977-3.86,1.692-7.244,1.692-7.244Z" transform="translate(-121.531 -14.179)" fill="#eca87b"/>
      <path id="Trazado_114776" data-name="Trazado 114776" d="M318.056,33.924c0,8.745-5.647,15.822-14.392,15.822s-14.63-7.077-14.63-15.822S294.92,18.1,303.664,18.1,318.056,25.179,318.056,33.924Z" transform="translate(-106.799 -6.675)" fill="#f5be97"/>
      <path id="Trazado_114777" data-name="Trazado 114777" d="M304.987,54.194a9.363,9.363,0,0,0,4.647,1.12,12.112,12.112,0,0,0,4.6-1.12s1,4.313-4.622,4.265c-5.361-.024-4.647-4.265-4.647-4.265Z" transform="translate(-112.673 -20.011)" fill="#fff"/>
      <path id="Trazado_114778" data-name="Trazado 114778" d="M287.059,19.866c-.167-1.906-2.192-9.007,2.311-13.987,6.862-7.6,23.518-7.124,29.022.691,2.454,3.455,3.336,9.126.977,12.962C312.531,19.7,302.022,19.366,287.059,19.866Z" transform="translate(-105.848 -0.147)" fill="#ffca00"/>
      <path id="Trazado_114779" data-name="Trazado 114779" d="M286.657,32.905a.467.467,0,0,1-.214-.1L283.869,30s-.1-.262,0-.381l.119-.119c1.883-2.1,5.79-6.481,12.3-7.53,9.269-1.525,17.347.477,23.28,5.742l.214.191s.119.214.071.334l-1.286,2.907a.707.707,0,0,1-.191.167c-.1,0-.19,0-.238-.072a22.187,22.187,0,0,0-16.774-5.885,21.91,21.91,0,0,0-14.487,7.482c-.047.071-.143.071-.214.1Zm-2.192-3.1,2.192,2.407a22.08,22.08,0,0,1,31.572-1.668l1.048-2.359-.071-.071c-5.838-5.171-13.724-7.1-22.827-5.623-6.242,1.025-10.055,5.218-11.914,7.291Z" transform="translate(-104.875 -7.92)" fill="#4b2524"/>
      <path id="Trazado_114780" data-name="Trazado 114780" d="M302.156,43.514c.526,0,.953-.875.953-1.954s-.426-1.954-.953-1.954-.953.875-.953,1.954S301.63,43.514,302.156,43.514Z" transform="translate(-111.295 -14.621)" fill="#4b2524"/>
      <path id="Trazado_114781" data-name="Trazado 114781" d="M323.744,41.56c0,1.072-.429,1.954-.953,1.954s-.953-.882-.953-1.954.429-1.954.953-1.954S323.744,40.488,323.744,41.56Z" transform="translate(-118.92 -14.621)" fill="#4b2524"/>
      <path id="Trazado_114782" data-name="Trazado 114782" d="M311.614,46.781l-3.122-.071a.274.274,0,1,1,.024-.548l2.835.071V40.157a.286.286,0,0,1,.262-.286.275.275,0,0,1,.286.286v6.362s0,.143-.071.191a.271.271,0,0,1-.19.071Z" transform="translate(-113.891 -14.719)" fill="#4b2524"/>
      <path id="Trazado_114783" data-name="Trazado 114783" d="M317.386,34.066a3.337,3.337,0,0,1-2.74-1.43c-.119-.167-3.741-4.956-13.177-5.48-9.269-.5-13.248,4.527-13.415,4.766a3.324,3.324,0,0,1-5.361-3.932c.238-.334,6.076-8.173,19.134-7.458,12.867.715,18.085,8.03,18.3,8.34a3.326,3.326,0,0,1-.833,4.623,3.263,3.263,0,0,1-1.883.6Z" transform="translate(-104.223 -7.556)" fill="#ffca00"/>
      <path id="Trazado_114784" data-name="Trazado 114784" d="M313.118,13.262a.286.286,0,0,1-.286-.262L312.427.324A.275.275,0,0,1,312.976.3l.4,12.676A.286.286,0,0,1,313.118,13.262Z" transform="translate(-115.443)" fill="#4b2524"/>
      <path id="Trazado_114785" data-name="Trazado 114785" d="M324.366,16.3a.27.27,0,0,1-.262-.286c.214-7.7,4.67-10.937,4.861-11.056a.251.251,0,0,1,.381.071.269.269,0,0,1-.071.381c-.048.024-4.408,3.217-4.623,10.627A.27.27,0,0,1,324.366,16.3Z" transform="translate(-119.756 -1.796)" fill="#4b2524"/>
      <path id="Trazado_114786" data-name="Trazado 114786" d="M299.814,16.31a.286.286,0,0,1-.286-.262c-.215-7.41-4.123-10.6-4.17-10.627a.272.272,0,1,1,.334-.429c.167.143,4.146,3.36,4.384,11.056a.286.286,0,0,1-.262.286Z" transform="translate(-109.096 -1.809)" fill="#4b2524"/>
      <path id="Trazado_114787" data-name="Trazado 114787" d="M345.1,111.345s-.214-.071-.262-.166a.255.255,0,0,1,.143-.357L356.8,105.65a.272.272,0,0,1,.214.5l-11.819,5.171h-.119Z" transform="translate(-127.408 -39.014)" fill="#4b2524"/>
      <path id="Trazado_114788" data-name="Trazado 114788" d="M268.629,108.291h-.1l-12.271-3.86a.3.3,0,0,1-.191-.357.286.286,0,0,1,.357-.19l12.271,3.86a.3.3,0,0,1,.19.357A.278.278,0,0,1,268.629,108.291Z" transform="translate(-94.614 -38.367)" fill="#4b2524"/>
      <path id="Trazado_114789" data-name="Trazado 114789" d="M305.314,176.238h-.048a.275.275,0,0,1-.214-.334c.047-.214,1.048-5.171,2.478-6.838a30.3,30.3,0,0,1,3.241-3.122.278.278,0,0,1,.4.048.3.3,0,0,1-.047.4,33.9,33.9,0,0,0-3.169,3.05c-1.335,1.549-2.335,6.529-2.335,6.577a.255.255,0,0,1-.262.214Z" transform="translate(-112.713 -61.279)" fill="#4b2524"/>
      <path id="Trazado_114790" data-name="Trazado 114790" d="M308,178.245h-.048a.276.276,0,0,1-.214-.334c.048-.214,1.025-5.194,2.478-6.838a27.523,27.523,0,0,1,3.24-3.122.288.288,0,1,1,.357.453,28.587,28.587,0,0,0-3.169,3.05c-1.335,1.525-2.335,6.529-2.335,6.576a.255.255,0,0,1-.262.214Z" transform="translate(-113.705 -62.024)" fill="#4b2524"/>
      <path id="Trazado_114791" data-name="Trazado 114791" d="M311.133,178.476h-.072a.285.285,0,0,1-.19-.357c.047-.19,1.453-4.67,2.907-6.266,1.5-1.62,3.335-3.241,3.335-3.264a.287.287,0,1,1,.381.429s-1.835,1.62-3.312,3.217c-1.382,1.5-2.788,6-2.788,6.052A.278.278,0,0,1,311.133,178.476Z" transform="translate(-114.863 -62.255)" fill="#4b2524"/>
      <path id="Trazado_114792" data-name="Trazado 114792" d="M334.792,140.86s-.19-.048-.238-.143a.291.291,0,0,1,.1-.381c.1-.048,9.793-5.766,15.488-7.316a.272.272,0,1,1,.142.525c-5.6,1.525-15.25,7.2-15.345,7.244a.342.342,0,0,1-.143.047Z" transform="translate(-123.606 -49.134)" fill="#4b2524"/>
      <path id="Trazado_114793" data-name="Trazado 114793" d="M260.029,120.442s-.214-.072-.262-.167a.255.255,0,0,1,.143-.357c.142-.071,15.392-6.553,21.135-8.363a.287.287,0,0,1,.167.549c-5.695,1.811-20.921,8.268-21.087,8.339h-.1Z" transform="translate(-95.974 -41.201)" fill="#4b2524"/>
      <path id="Trazado_114794" data-name="Trazado 114794" d="M141.933,592.391l1.239,16.036.143,2H172.5V606.9s.262-4.408-8.816-5.981c-9.054-1.6-8.7-8.531-8.7-8.531H141.933Z" transform="translate(-52.435 -218.88)" fill="#12263f"/>
      <path id="Trazado_114795" data-name="Trazado 114795" d="M143.875,617.825l.166,2H173.23v-2Z" transform="translate(-53.161 -228.278)" fill="#10214b"/>
      <path id="Trazado_114796" data-name="Trazado 114796" d="M162.426,599.123H158.9a.289.289,0,0,1-.286-.286.275.275,0,0,1,.286-.286h3.526a.286.286,0,1,1,0,.571Z" transform="translate(-58.607 -221.156)" fill="#4b2524"/>
      <path id="Trazado_114797" data-name="Trazado 114797" d="M166.629,603.772H161.7a.286.286,0,1,1,0-.572h4.932a.29.29,0,0,1,.286.286A.275.275,0,0,1,166.629,603.772Z" transform="translate(-59.64 -222.874)" fill="#4b2524"/>
      <path id="Trazado_114798" data-name="Trazado 114798" d="M167.261,604.1s-8.268-.214-10.317-7.6a.272.272,0,0,1,.524-.143c1.93,6.982,9.7,7.2,9.769,7.2a.286.286,0,0,1,0,.572Z" transform="translate(-57.986 -220.269)" fill="#4b2524"/>
      <path id="Trazado_114799" data-name="Trazado 114799" d="M182.377,612.4a.283.283,0,0,1-.286-.238c0-.19-.524-4.408-5.6-5.027s-6.862,3.026-6.934,3.169a.288.288,0,0,1-.525-.238c0-.048,2-4.17,7.529-3.5a6.633,6.633,0,0,1,6.1,5.528.308.308,0,0,1-.238.31h-.047Z" transform="translate(-62.451 -224.088)" fill="#4b2524"/>
      <path id="Trazado_114800" data-name="Trazado 114800" d="M159.143,389.439l10.722-8.268,8.65,14.154c.262.572.572,1.215.905,1.787a10.66,10.66,0,0,1,1.215,5.79,3.863,3.863,0,0,1-.238,1c-1.477,4.122-4.36,5.29-8.411,4.075a7.151,7.151,0,0,1-3.193-2.169Z" transform="translate(-58.803 -140.832)" fill="#c1583b"/>
      <path id="Trazado_114801" data-name="Trazado 114801" d="M119.59,342.514h-20.8l4.622-17.275h11.556Z" transform="translate(-36.501 -120.165)" fill="#b55039"/>
      <path id="Trazado_114802" data-name="Trazado 114802" d="M93.3,304.936s-2.835-4.552-5.5-2.526,1.1,8.959,5.5,9.435A62.348,62.348,0,0,1,93.3,304.936Z" transform="translate(-32.111 -111.537)" fill="#b55039"/>
      <path id="Trazado_114803" data-name="Trazado 114803" d="M134.842,304.936s3.074-4.552,5.719-2.526-1.334,8.959-5.719,9.435A62.368,62.368,0,0,0,134.842,304.936Z" transform="translate(-49.823 -111.537)" fill="#b55039"/>
      <path id="Trazado_114804" data-name="Trazado 114804" d="M55.466,387.68l-9.34-11.27-7.649,6.91c-.429.453-.953.953-1.453,1.382a8.653,8.653,0,0,0-2.74,4.6,5.419,5.419,0,0,0-.119,1.025c0,4.384,3.169,7.2,7.53,7.2a7.944,7.944,0,0,0,3.741-.977l10.031-8.888Z" transform="translate(-12.622 -139.073)" fill="#c1583b"/>
      <path id="Trazado_114805" data-name="Trazado 114805" d="M61.446,592.391l-1.239,16.036-.143,2H30.876V606.9s-.262-4.408,8.816-5.981c9.054-1.6,8.7-8.531,8.7-8.531H61.446Z" transform="translate(-11.407 -218.88)" fill="#12263f"/>
      <path id="Trazado_114806" data-name="Trazado 114806" d="M60.232,617.825l-.167,2H30.876v-2Z" transform="translate(-11.407 -228.278)" fill="#10214b"/>
      <path id="Trazado_114807" data-name="Trazado 114807" d="M60.009,599.124H56.483a.29.29,0,0,1-.286-.286.275.275,0,0,1,.286-.286h3.527a.29.29,0,0,1,.286.286A.275.275,0,0,1,60.009,599.124Z" transform="translate(-20.763 -221.156)" fill="#4b2524"/>
      <path id="Trazado_114808" data-name="Trazado 114808" d="M56.389,603.772H51.456a.286.286,0,1,1,0-.572h4.932a.29.29,0,0,1,.286.286A.275.275,0,0,1,56.389,603.772Z" transform="translate(-18.906 -222.874)" fill="#4b2524"/>
      <path id="Trazado_114809" data-name="Trazado 114809" d="M47.828,604.084a.286.286,0,1,1,0-.572c.071,0,7.839-.215,9.769-7.2a.272.272,0,0,1,.524.143c-2.049,7.387-10.222,7.6-10.317,7.6Z" transform="translate(-17.565 -220.255)" fill="#4b2524"/>
      <path id="Trazado_114810" data-name="Trazado 114810" d="M30.91,612.51h-.024a.261.261,0,0,1-.238-.31,6.6,6.6,0,0,1,6.1-5.528c5.5-.667,7.506,3.455,7.53,3.5a.288.288,0,1,1-.524.238c-.071-.167-1.859-3.813-6.934-3.169-5.075.619-5.576,4.837-5.6,5.027a.286.286,0,0,1-.286.262Z" transform="translate(-11.321 -224.13)" fill="#4b2524"/>
      <path id="Trazado_114811" data-name="Trazado 114811" d="M129.414,366.6,118.5,375.6l-6.6-10.77s.119,11.962-.238,20.015c-.31,5.79-.548,10.842-.643,10.961-.214.334-40.96-1.168-40.96-1.168v-25.3l-8.316,8.006L49.734,364.476s7.792-9.388,15.559-15.226a35.4,35.4,0,0,1,9.15-4.765,48.721,48.721,0,0,1,5.766-1.716c2.335-.549,2.145-.5,2.145-.5s2.6,4.17,8.983,4.408c6.457.238,8.292-4.884,8.292-4.884s1.358.5,5,1.525c1.359.381,2.859.738,4.337,1.215a27.425,27.425,0,0,1,6.266,2.693c5.719,3.55,14.153,19.419,14.153,19.419Z" transform="translate(-18.375 -126.281)" fill="#ffca00"/>
      <path id="Trazado_114812" data-name="Trazado 114812" d="M121.268,299.307c0,11.843-3.693,16.417-12.39,16.417S95.463,312.365,95.463,300c0-8.7,4.718-15.726,13.415-15.726s12.39,6.362,12.39,15.059Z" transform="translate(-35.272 -105.027)" fill="#c1583b"/>
      <path id="Trazado_114813" data-name="Trazado 114813" d="M94.652,298.975s-2.5-5.862-1.859-9.412a34.172,34.172,0,0,1,5.266,1.072A22.4,22.4,0,0,0,94.676,299Z" transform="translate(-34.247 -106.982)" fill="#86361d"/>
      <path id="Trazado_114814" data-name="Trazado 114814" d="M147.826,382.086a.275.275,0,0,1-.286-.286v-4.575a.286.286,0,0,1,.572,0V381.8A.29.29,0,0,1,147.826,382.086Z" transform="translate(-54.515 -139.268)" fill="#4b2524"/>
      <path id="Trazado_114815" data-name="Trazado 114815" d="M134.092,298.975s2.5-5.862,1.859-9.412a34.186,34.186,0,0,0-5.266,1.072A14.257,14.257,0,0,1,134.069,299Z" transform="translate(-48.287 -106.982)" fill="#86361d"/>
      <path id="Trazado_114816" data-name="Trazado 114816" d="M92.6,282.972l29.356.548s1.144-12.366-6.41-16.346c-7.959-4.193-16.632-.834-20.253,4.194S92.6,282.972,92.6,282.972Z" transform="translate(-34.176 -98.008)" fill="#ffca00"/>
      <path id="Trazado_114817" data-name="Trazado 114817" d="M107.632,319.684h11.032a6.252,6.252,0,0,1-5.838,3.431A5.3,5.3,0,0,1,107.632,319.684Z" transform="translate(-39.769 -118.112)" fill="#fff"/>
      <path id="Trazado_114818" data-name="Trazado 114818" d="M123.612,385.445c-.31,5.79-.548,10.842-.644,10.96-.214.334-40.959-1.167-40.959-1.167v-2.311c8.626-10.508,6.171-37.886,4.384-47.87a48.958,48.958,0,0,1,5.766-1.716c.429,5.409,1.525,21.707,1.525,21.707s17.37.1,21.54,0c.31-8.578.715-17.537.929-21.278,1.382.334,3.312.857,4.789,1.334-2.025,15.155.644,31.238,2.693,40.34Z" transform="translate(-30.301 -126.854)" fill="#efbe00"/>
      <path id="Trazado_114819" data-name="Trazado 114819" d="M106.025,304.95c0,.929-.453,1.668-1.049,1.668s-1.049-.739-1.049-1.668.453-1.668,1.049-1.668S106.025,304.02,106.025,304.95Z" transform="translate(-38.4 -112.051)" fill="#4b2524"/>
      <path id="Trazado_114820" data-name="Trazado 114820" d="M126.622,304.95c0,.929-.453,1.668-1.049,1.668s-1.049-.739-1.049-1.668.453-1.668,1.049-1.668S126.622,304.02,126.622,304.95Z" transform="translate(-46.011 -112.051)" fill="#4b2524"/>
      <path id="Trazado_114821" data-name="Trazado 114821" d="M116.77,310.089h-3.146a.289.289,0,0,1-.286-.286.275.275,0,0,1,.286-.286h2.764l-1.787-6.362a.272.272,0,0,1,.525-.142l1.882,6.719a.576.576,0,0,1-.047.238.286.286,0,0,1-.214.119Z" transform="translate(-41.878 -111.877)" fill="#4b2524"/>
      <path id="Trazado_114822" data-name="Trazado 114822" d="M124.394,527.835H109.573L94.371,460.4,74.832,527.835l-16.179-.953,13.3-91.426,1.025-6.838.429-3,40.959,1.192.167,1.811.691,6.838Z" transform="translate(-21.671 -157.255)" fill="#efbe00"/>
      <path id="Trazado_114823" data-name="Trazado 114823" d="M53.468,588.921,53.6,586.3a1.861,1.861,0,0,1,1.952-1.76l17.989.933a1.861,1.861,0,0,1,1.76,1.953l-.136,2.617a1.861,1.861,0,0,1-1.952,1.76l-17.989-.933A1.861,1.861,0,0,1,53.468,588.921Z" transform="translate(-19.754 -215.979)" fill="#4b2524"/>
      <path id="Trazado_114824" data-name="Trazado 114824" d="M136.285,585.249H154.3a1.861,1.861,0,0,1,1.859,1.859v2.621a1.861,1.861,0,0,1-1.859,1.858H136.285a1.86,1.86,0,0,1-1.858-1.858v-2.621A1.86,1.86,0,0,1,136.285,585.249Z" transform="translate(-49.67 -216.241)" fill="#4b2524"/>
      <path id="Trazado_114825" data-name="Trazado 114825" d="M79.741,437.215h43.271l-.691-6.838H80.766Z" transform="translate(-29.463 -159.014)" fill="#4b2524"/>
      <path id="Trazado_114826" data-name="Trazado 114826" d="M15.347,477.172A17.5,17.5,0,0,0,.812,489.2a17.236,17.236,0,0,0-.524,8.316,1.035,1.035,0,0,0,1.668.62l12.486-9.817a5.627,5.627,0,0,1,7.863.929l2.287,2.907a5.624,5.624,0,0,1-.929,7.863l-11.7,9.2a1.033,1.033,0,0,0,.334,1.811,17.918,17.918,0,0,0,7.6.6,17.377,17.377,0,0,0-4.527-34.454Z" transform="translate(0 -176.263)" fill="#12263f"/>
      <path id="Trazado_114827" data-name="Trazado 114827" d="M208.907,339.341a17.494,17.494,0,0,0,14.535-12.033,17.238,17.238,0,0,0,.525-8.316,1.035,1.035,0,0,0-1.668-.619l-12.486,9.817a5.624,5.624,0,0,1-7.863-.929l-2.287-2.907a5.627,5.627,0,0,1,.929-7.863l11.7-9.2a1.034,1.034,0,0,0-.334-1.811,17.94,17.94,0,0,0-7.6-.6,17.377,17.377,0,0,0,4.527,34.455Z" transform="translate(-70.014 -112.584)" fill="#12263f"/>
      <path id="Trazado_114828" data-name="Trazado 114828" d="M131.761,334.536l1.072,4.694L85.011,382.763l-47.822,43.51-4.575-1.5,2.764,3.145,8.411,9.269,2.955,3.241L45.6,435.517l47.822-43.51,47.846-43.533,4.765,1.62-2.954-3.264-8.435-9.246Z" transform="translate(-12.049 -123.6)" fill="#12263f"/>
      <path id="Trazado_114829" data-name="Trazado 114829" d="M80.1,464.715a.283.283,0,0,1-.286-.238.308.308,0,0,1,.238-.31c.048,0,5.695-.882,7.029-4.551a32.631,32.631,0,0,0,1.477-4.551.276.276,0,1,1,.548.072,34.732,34.732,0,0,1-1.5,4.67c-1.453,3.979-7.244,4.86-7.482,4.908H80.1Z" transform="translate(-29.491 -168.047)" fill="#4b2524"/>
      <path id="Trazado_114830" data-name="Trazado 114830" d="M173.036,412.873c-1.74,6.7-11.843,7.41-19.968,5.551a120.8,120.8,0,0,1-13.653-3.908l6.981-6.386,11.747-2.168s16.679.214,14.916,6.886Z" transform="translate(-51.513 -149.993)" fill="#c1583b"/>
      <path id="Trazado_114831" data-name="Trazado 114831" d="M123.817,407.766s5.1,3.622,8.7,3.717c3.622.1,9.554-7.648,10.722-9.555s-3.193-8.172-4.575-8.292c-1.382-.1-2.74.4-1.072,2.454s2.6,3.36,1.548,4.766c-1.025,1.405-3.383.762-5.552-1.477s-5.194-6.338-6.41-5.1c-1.072,1.1,2.24,4.265,2.24,4.265s-3.217-3.288-4.051-2.454c-.953.953,3.122,5.7,3.122,5.7s-3.241-2.622-3.979-1.24,6.1,7.959,6.1,7.959c-1.858-.31-6.1-2.335-6.838-.739Z" transform="translate(-45.732 -145.434)" fill="#b55039"/>
      <path id="Trazado_114832" data-name="Trazado 114832" d="M35.019,402.165c.5,5.743,24.852,25.162,24.852,25.162s-1.406,4.265,4.909,8.387,10.27,1.62,11.914-1.382c1.668-3-6.767-8.768-6.767-8.768a2.611,2.611,0,0,1,2.359-1.025c1.334.286,3.669,3.1,5.29,2.049,1.62-1.025-1.882-4.265-3.217-5.147s-6,.286-6,.286-17.2-18.943-18.228-20.11c-1.191,0-7.815.4-15.131.548Z" transform="translate(-12.929 -148.387)" fill="#c1583b"/>
      <path id="Trazado_114833" data-name="Trazado 114833" d="M139.7,366.182h-4.789s-.143-.024-.19-.1a.291.291,0,0,1-.072-.214l.167-3.789a.27.27,0,0,1,.286-.262h4.623a.29.29,0,0,1,.286.286V365.9s0,.143-.048.191a.272.272,0,0,1-.19.071Zm-4.5-.548h4.217v-3.217h-4.1l-.142,3.217Z" transform="translate(-49.754 -133.683)" fill="#4b2524"/>
      <path id="Trazado_114834" data-name="Trazado 114834" d="M96.261,364.874H91.138a.275.275,0,0,1-.286-.286v-3.765a.29.29,0,0,1,.286-.286h5.1a.29.29,0,0,1,.286.286v3.765s0,.142-.048.19a.272.272,0,0,1-.191.071Zm-4.837-.548h4.551v-3.217H91.424Z" transform="translate(-33.569 -133.208)" fill="#4b2524"/>
      <path id="Trazado_114835" data-name="Trazado 114835" d="M115.149,468.537a.27.27,0,0,1-.262-.286l.5-21.588a.286.286,0,0,1,.286-.262.269.269,0,0,1,.262.286l-.5,21.588A.27.27,0,0,1,115.149,468.537Z" transform="translate(-42.449 -164.935)" fill="#4b2524"/>
      <path id="Trazado_114836" data-name="Trazado 114836" d="M115.867,459.059h-.453a.286.286,0,0,1-.262-.286c0-.143.119-.238.286-.262a4.117,4.117,0,0,0,3.312-.977,3.508,3.508,0,0,0,.81-2.5V441.093a.29.29,0,0,1,.286-.286.275.275,0,0,1,.286.286v13.915a4.075,4.075,0,0,1-.953,2.907,4.3,4.3,0,0,1-3.288,1.168Z" transform="translate(-42.548 -162.868)" fill="#4b2524"/>
      <path id="Trazado_114837" data-name="Trazado 114837" d="M146.543,456.567a.316.316,0,0,1-.119-.024,16.852,16.852,0,0,1-4.766-4.027c-2.668-3-2.383-11.128-2.168-11.556a.354.354,0,0,1,.262-.191.289.289,0,0,1,.286.286.176.176,0,0,1-.047.143c-.167.738-.31,8.244,2.073,10.96a16.925,16.925,0,0,0,4.575,3.884.31.31,0,0,1,.143.381.293.293,0,0,1-.262.166Z" transform="translate(-51.492 -162.854)" fill="#4b2524"/>
      <path id="Trazado_114838" data-name="Trazado 114838" d="M119.989,390.608H107a1.525,1.525,0,0,1,0-3.05h12.986a1.525,1.525,0,1,1,0,3.05Z" transform="translate(-38.973 -143.192)" fill="#4b2524"/>
      <path id="Trazado_114839" data-name="Trazado 114839" d="M45.966,494.621a.3.3,0,0,1-.286-.262c0-.071-.405-6.957-4.384-11.437-3.955-4.48-10.6-5.552-10.675-5.552a.286.286,0,0,1-.238-.31.273.273,0,0,1,.31-.238c.286.048,6.91,1.12,11.008,5.743s4.5,11.485,4.527,11.771A.286.286,0,0,1,45.966,494.621Z" transform="translate(-11.224 -176.175)" fill="#4b2524"/>
      <path id="Trazado_114840" data-name="Trazado 114840" d="M205.825,349.691a17.87,17.87,0,0,1-11.675-5.194c-4.861-5.028-5.075-12.438-5.075-12.51a.274.274,0,1,1,.548-.024c0,.072.214,7.268,4.932,12.128a17.3,17.3,0,0,0,11.295,5.028.29.29,0,0,1,.286.286.275.275,0,0,1-.286.286Z" transform="translate(-69.863 -122.553)" fill="#4b2524"/>
      <path id="Trazado_114841" data-name="Trazado 114841" d="M121.867,294.023l-29.356-.548a.257.257,0,0,1-.262-.286.27.27,0,0,1,.286-.262l29.356.548a.257.257,0,0,1,.262.286.29.29,0,0,1-.286.286Z" transform="translate(-34.084 -108.225)" fill="#4b2524"/>
      <path id="Trazado_114842" data-name="Trazado 114842" d="M108.661,284.28h-.048a.288.288,0,0,1-.238-.31c1.263-8.2-2.549-16.131-2.573-16.226a.283.283,0,0,1,.5-.262c.047.072,3.907,8.173,2.621,16.536a.267.267,0,0,1-.286.238Z" transform="translate(-39.082 -98.768)" fill="#4b2524"/>
      <path id="Trazado_114843" data-name="Trazado 114843" d="M121.754,284.04a.284.284,0,0,1-.286-.238c-1.287-8.363,2.811-16.87,2.835-16.965a.282.282,0,0,1,.5.262c-.048.072-4.051,8.435-2.788,16.632a.287.287,0,0,1-.238.31h-.024Z" transform="translate(-44.789 -98.528)" fill="#4b2524"/>
      <path id="Trazado_114844" data-name="Trazado 114844" d="M110.344,281.855H110.3a.276.276,0,0,1-.215-.334c0-.024.715-3.5,3.908-3.6h.119c3.122,0,3.741,3.36,3.741,3.384a.306.306,0,0,1-.238.334c-.143.047-.286-.072-.334-.238,0-.119-.572-2.978-3.289-2.931-2.764.072-3.383,3.1-3.383,3.146a.283.283,0,0,1-.286.238Z" transform="translate(-40.67 -102.681)" fill="#4b2524"/>
      <path id="Trazado_114845" data-name="Trazado 114845" d="M89.074,455.3h-.1c-3.121-1.239-7.577-6.171-7.768-6.386a.286.286,0,0,1,.405-.4c.048.047,4.551,5.051,7.553,6.242a.283.283,0,0,1,.167.357.258.258,0,0,1-.262.167Z" transform="translate(-29.98 -165.689)" fill="#4b2524"/>
      <path id="Trazado_114846" data-name="Trazado 114846" d="M92.939,453.062h-.072c-1.525-.477-7.2-6.553-7.839-7.244a.286.286,0,0,1,.405-.4c1.716,1.858,6.433,6.719,7.6,7.077a.286.286,0,0,1,.191.357.279.279,0,0,1-.262.19Z" transform="translate(-31.39 -164.544)" fill="#4b2524"/>
      <path id="Trazado_114847" data-name="Trazado 114847" d="M96.12,450.146h-.072c-1.12-.262-6.457-5.98-7.506-7.124a.287.287,0,1,1,.405-.405c2.407,2.6,6.481,6.791,7.22,6.957a.3.3,0,0,1,.214.334.279.279,0,0,1-.262.214Z" transform="translate(-32.689 -163.511)" fill="#4b2524"/>
      <path id="Trazado_114848" data-name="Trazado 114848" d="M138.714,406.884a.318.318,0,0,1-.119-.024c-2.311-1.12-5.766-5.052-5.909-5.219a.287.287,0,0,1,.429-.381c.024.047,3.5,4.026,5.719,5.075a.31.31,0,0,1,.143.381A.294.294,0,0,1,138.714,406.884Z" transform="translate(-49.001 -148.221)" fill="#4b2524"/>
      <path id="Trazado_114849" data-name="Trazado 114849" d="M136.5,411.454a.237.237,0,0,1-.143-.047,27.912,27.912,0,0,1-5.409-4.551.287.287,0,0,1,.405-.405,27.2,27.2,0,0,0,5.266,4.432.27.27,0,0,1,.1.381.262.262,0,0,1-.238.143Z" transform="translate(-48.357 -150.147)" fill="#4b2524"/>
      <path id="Trazado_114850" data-name="Trazado 114850" d="M176.964,407.314h-.1c-4.646-1.811-12.486-.6-12.581-.6a.276.276,0,0,1-.071-.548c.334-.048,8.1-1.24,12.867.619a.284.284,0,0,1,.166.358.258.258,0,0,1-.262.167Z" transform="translate(-60.588 -149.915)" fill="#4b2524"/>
      <path id="Trazado_114851" data-name="Trazado 114851" d="M68.04,413.192a.463.463,0,0,1-.214-.1l-7.244-7.982c-5.719-6.314-8.411-7.1-8.435-7.1a.272.272,0,0,1,.143-.525c.119.024,2.812.787,8.7,7.268l7.244,7.982s.1.286,0,.405a.272.272,0,0,1-.191.071Z" transform="translate(-19.192 -146.858)" fill="#4b2524"/>
      <path id="Trazado_114852" data-name="Trazado 114852" d="M109.635,349A11.2,11.2,0,0,1,99.6,342.97a.288.288,0,1,1,.524-.238,10.67,10.67,0,0,0,9.531,5.719c6.862,0,9.412-6.2,9.436-6.267a.272.272,0,0,1,.5.215c-.024.071-2.741,6.624-9.96,6.624Z" transform="translate(-36.792 -126.363)" fill="#4b2524"/>
      <path id="Trazado_114853" data-name="Trazado 114853" d="M63.239,389.175a.341.341,0,0,1-.191-.1L50.73,376.427s-.1-.286,0-.405a.3.3,0,0,1,.405,0l12.319,12.653s.1.286,0,.405a.272.272,0,0,1-.191.071Z" transform="translate(-18.728 -138.9)" fill="#4b2524"/>
      <path id="Trazado_114854" data-name="Trazado 114854" d="M81.879,393.357a.29.29,0,0,1-.286-.286V381.42a.286.286,0,0,1,.572,0v11.651A.275.275,0,0,1,81.879,393.357Z" transform="translate(-30.147 -140.819)" fill="#4b2524"/>
      <path id="Trazado_114855" data-name="Trazado 114855" d="M553.13,591.522v16.036l-.143,2H523.8v-3.526s-.262-4.408,8.816-5.981c9.054-1.6,8.7-8.531,8.7-8.531H553.13Z" transform="translate(-193.546 -218.559)" fill="#12263f"/>
      <path id="Trazado_114856" data-name="Trazado 114856" d="M553.117,616.956l-.143,2H523.761v-2Z" transform="translate(-193.532 -227.957)" fill="#10214b"/>
      <path id="Trazado_114857" data-name="Trazado 114857" d="M552.932,598.254h-3.526a.29.29,0,0,1-.286-.286.275.275,0,0,1,.286-.286h3.526a.29.29,0,0,1,.286.286A.275.275,0,0,1,552.932,598.254Z" transform="translate(-202.903 -220.835)" fill="#4b2524"/>
      <path id="Trazado_114858" data-name="Trazado 114858" d="M549.311,602.9h-4.932a.29.29,0,0,1-.286-.286.275.275,0,0,1,.286-.286h4.932a.29.29,0,0,1,.286.286A.275.275,0,0,1,549.311,602.9Z" transform="translate(-201.045 -222.553)" fill="#4b2524"/>
      <path id="Trazado_114859" data-name="Trazado 114859" d="M540.713,603.215a.286.286,0,1,1,0-.572c.071,0,7.839-.214,9.769-7.2a.272.272,0,0,1,.525.143c-2.049,7.386-10.222,7.6-10.317,7.6Z" transform="translate(-199.691 -219.934)" fill="#4b2524"/>
      <path id="Trazado_114860" data-name="Trazado 114860" d="M523.832,611.527h-.024a.261.261,0,0,1-.238-.31,6.6,6.6,0,0,1,6.1-5.528c5.5-.667,7.505,3.455,7.529,3.5a.288.288,0,0,1-.524.238c-.072-.167-1.859-3.789-6.934-3.169s-5.575,4.837-5.6,5.027a.286.286,0,0,1-.286.262Z" transform="translate(-193.461 -223.767)" fill="#4b2524"/>
      <path id="Trazado_114861" data-name="Trazado 114861" d="M597.683,366.1a17.2,17.2,0,0,0-2.574-1.978c-.1-.071-.214-.119-.309-.19l-25.424-15.488.572,16.68,17.394,10.484a6.925,6.925,0,0,0,4.694,2.192,7.084,7.084,0,0,0,7.363-6.815,7.278,7.278,0,0,0-.4-2.763,5.172,5.172,0,0,0-1.335-2.1Z" transform="translate(-210.388 -128.739)" fill="#f09c77"/>
      <path id="Trazado_114862" data-name="Trazado 114862" d="M477.179,393.35a7,7,0,0,0,.548-.905l11.223-18.466-6.91-17.561-16.108,28.355a7.3,7.3,0,0,0-1.429,4.289,7.073,7.073,0,0,0,7.029,7.172,6.982,6.982,0,0,0,5.528-2.788l.1-.142Z" transform="translate(-171.636 -131.685)" fill="#f09c77"/>
      <path id="Trazado_114863" data-name="Trazado 114863" d="M552.118,356.521,545.59,370.2l-10.58-3.717-1.358,17.394-1.239,15.774H497.172l-2.216-18.633-1.335-11.247-5.361,8.125-13.629-11.365s8.65-17.2,16.822-19.825a37.515,37.515,0,0,1,4.027-.953c1.692-.286,3.645-.548,5.743-.786a166.343,166.343,0,0,1,23.613-.691,52.608,52.608,0,0,1,5.743.5,1.612,1.612,0,0,1,.453.072c7.815,1.382,21.087,11.7,21.087,11.7Z" transform="translate(-175.378 -127.142)" fill="#12263f"/>
      <path id="Trazado_114864" data-name="Trazado 114864" d="M522.545,328.761l-1.43,10.056s2.264,3.789,9.46,3.789,8.459-4.265,8.459-4.265l-2.835-9.889Z" transform="translate(-192.555 -121.352)" fill="#e59173"/>
      <path id="Trazado_114865" data-name="Trazado 114865" d="M584.48,436.482s3.837-3.455,2.835-5.623c-1-2.145-7.458,1.144-7.458,1.144s-1.668,3.693.763,4.456a5.284,5.284,0,0,0,3.86,0Z" transform="translate(-214.054 -158.924)" fill="#e59173"/>
      <path id="Trazado_114866" data-name="Trazado 114866" d="M558.2,298.7a20.682,20.682,0,0,1-1.072,5.862.807.807,0,0,1-.1.214c-2.192-.166-4.432,2.431-4.432,2.431l-.381-8.649Z" transform="translate(-204.048 -110.306)" fill="#86361d"/>
      <path id="Trazado_114867" data-name="Trazado 114867" d="M539.714,311.5a18.085,18.085,0,0,1-6.957,6.791c-5.1,2.74-11.462,2.716-15.178-2.5-6.815-9.627-1.453-21.374-.262-22.446l20.849,3.312.381,8.65s2.24-2.621,4.432-2.431a3.034,3.034,0,0,1,2.383,1.716c2.526,4.289-2.383,8.149-5.623,6.934Z" transform="translate(-189.995 -108.379)" fill="#f09c77"/>
      <path id="Trazado_114868" data-name="Trazado 114868" d="M541.064,286.815s-5.886,2.049-18.9.286c-13.01-1.74-16.322-3.622-16.322-3.622l6.362-3.765s5.361-16.846,19.277-12.652c14.32,4.337,9.578,19.729,9.578,19.729Z" transform="translate(-186.913 -98.42)" fill="#12263f"/>
      <path id="Trazado_114869" data-name="Trazado 114869" d="M541.064,294.623s-5.886,2.049-18.9.286c-13.01-1.74-16.322-3.622-16.322-3.622l6.362-3.765s1.978,2.168,10.365,4.217a135.747,135.747,0,0,0,18.514,2.883Z" transform="translate(-186.913 -106.228)" fill="#10214b"/>
      <path id="Trazado_114870" data-name="Trazado 114870" d="M524.818,319.4l7.268,1.644s-.929,3.55-5.051,2.43a3.031,3.031,0,0,1-2.216-4.1Z" transform="translate(-193.851 -118)" fill="#fff"/>
      <path id="Trazado_114871" data-name="Trazado 114871" d="M531.033,312.826h-.071l-3.884-1.072a.494.494,0,0,1-.19-.167.4.4,0,0,1,0-.238c1.12-2.073,3-5.575,3.217-5.766a.321.321,0,0,1,.4,0,.289.289,0,0,1,0,.381c-.214.262-1.859,3.289-2.955,5.338l3.55.977a.271.271,0,0,1,.19.334A.279.279,0,0,1,531.033,312.826Z" transform="translate(-194.681 -112.875)" fill="#4b2524"/>
      <path id="Trazado_114872" data-name="Trazado 114872" d="M542.988,308.511c-.286,1.072-.929,1.859-1.454,1.716s-.715-1.12-.429-2.216c.286-1.072.929-1.859,1.453-1.716S543.273,307.415,542.988,308.511Z" transform="translate(-199.892 -113.159)" fill="#4b2524"/>
      <path id="Trazado_114873" data-name="Trazado 114873" d="M524.243,303.636c-.286,1.072-.929,1.859-1.454,1.716s-.714-1.12-.429-2.216c.286-1.072.929-1.859,1.453-1.716S524.529,302.54,524.243,303.636Z" transform="translate(-192.966 -111.357)" fill="#4b2524"/>
      <path id="Trazado_114874" data-name="Trazado 114874" d="M522.535,282.263h-.024a.293.293,0,0,1-.262-.31c.024-.358.834-8.578,4.623-11.866a18.1,18.1,0,0,1,7.816-3.955c.142,0,.31.071.333.214a.309.309,0,0,1-.214.334,18.118,18.118,0,0,0-7.554,3.837c-3.622,3.121-4.432,11.413-4.432,11.485A.286.286,0,0,1,522.535,282.263Z" transform="translate(-192.974 -98.324)" fill="#4b2524"/>
      <path id="Trazado_114875" data-name="Trazado 114875" d="M532.172,284.694a.29.29,0,0,1-.286-.286c0-.286-.1-7.148,3.526-11.58a17.868,17.868,0,0,1,6.648-5.194.279.279,0,1,1,.191.524,17.993,17.993,0,0,0-6.433,5.028c-3.479,4.265-3.384,11.151-3.384,11.2a.29.29,0,0,1-.286.286Z" transform="translate(-196.535 -98.873)" fill="#4b2524"/>
      <path id="Trazado_114876" data-name="Trazado 114876" d="M544.41,288.38a.284.284,0,0,1-.286-.238c-.047-.286-.977-7.077,2.645-10.889s5.528-3.789,5.6-3.789a.274.274,0,1,1-.023.548s-1.763.024-5.171,3.622c-3.455,3.622-2.5,10.365-2.5,10.437a.31.31,0,0,1-.238.31h-.024Z" transform="translate(-201.005 -101.033)" fill="#4b2524"/>
      <path id="Trazado_114877" data-name="Trazado 114877" d="M555.539,320.843h-.166c-2.978-.119-3.479-1.5-3.5-1.573a.277.277,0,0,1,.19-.357.283.283,0,0,1,.357.166c0,.024.453,1.072,2.978,1.192,2.621.119,3.908-2.812,3.908-2.836a.29.29,0,0,1,.357-.142.268.268,0,0,1,.143.357c-.048.142-1.406,3.169-4.289,3.169Z" transform="translate(-203.914 -117.222)" fill="#4b2524"/>
      <path id="Trazado_114878" data-name="Trazado 114878" d="M589.139,381.549s-10.1,15.917-12.772,24.019c3.122,2.787,5.552,2.668,5.552,2.668s5.552-5.218,10.77-11.342c5.219-6.147,7.959-9.793,7.959-9.793Z" transform="translate(-212.971 -140.972)" fill="#f09c77"/>
      <path id="Trazado_114879" data-name="Trazado 114879" d="M467.122,404.065c0-3.955-2.811-7.172-6.266-7.172a5.9,5.9,0,0,0-4.623,2.383,1.631,1.631,0,0,1-.881.619c-3.693.953-14.869,3.932-20.9,6.91a1.891,1.891,0,0,0-.953,1.954,10.6,10.6,0,0,0,1.12,3.646,1.582,1.582,0,0,0,1.31.834,115.781,115.781,0,0,0,26.02-2.121,1.549,1.549,0,0,0,.691-.334c1.072-.929,4.48-4.122,4.48-6.7Z" transform="translate(-160.173 -146.642)" fill="#f09c77"/>
      <path id="Trazado_114880" data-name="Trazado 114880" d="M578.917,434.458a3.376,3.376,0,0,0,4.074,3.622c-1.477,1.835-7.72.477-7.72.477Z" transform="translate(-212.566 -160.522)" fill="#f09c77"/>
      <path id="Trazado_114881" data-name="Trazado 114881" d="M539.855,487.565l-.643,46.8H525.178l-7.244-73.317-12.8,26.353-3.121,46.964H487.912s-2.454-48.894-2.287-49.633v-.071l.381-1.239.048-.119,15.131-51.468,17.132-.548,17.013.238c2.74-.238,3.431.31,3.383,1.144,0,0,1.1,54.708,1.073,54.9Z" transform="translate(-179.438 -159.349)" fill="#ffca00"/>
      <path id="Trazado_114882" data-name="Trazado 114882" d="M546.783,583.094h14.94a1.861,1.861,0,0,1,1.859,1.859V588.6a1.861,1.861,0,0,1-1.859,1.859h-14.94a1.861,1.861,0,0,1-1.859-1.859v-3.646A1.861,1.861,0,0,1,546.783,583.094Z" transform="translate(-201.352 -215.445)" fill="#ffca00"/>
      <path id="Trazado_114883" data-name="Trazado 114883" d="M430.864,413.335l-1.644,3.5-4.17,3.741-7.291.929-2.764-11.819,1.572-2.669Z" transform="translate(-153.342 -150.384)" fill="#e59173"/>
      <path id="Trazado_114884" data-name="Trazado 114884" d="M458.255,565.737l-12.271,3.1a7.027,7.027,0,0,1-8.554-5.98l-10.77-72.245a7.31,7.31,0,0,1,5.266-8.244l1.263-.31c3.55-.882,7.577.81,8.7,4.432l21.35,69.862a7.375,7.375,0,0,1-5,9.412Z" transform="translate(-157.621 -178.025)" fill="#ffca00"/>
      <path id="Trazado_114885" data-name="Trazado 114885" d="M424.813,419.293l-5.575,1.429c-.477-.31-10.794-49.275-16.226-75.223-1.311-6.2-2.335-11.056-2.859-13.677a2.3,2.3,0,0,1,1.477-2.669,2.144,2.144,0,0,1,1.763.238,2.452,2.452,0,0,1,1,1.406l3.24,14.058,17.18,74.414Z" transform="translate(-147.84 -121.577)" fill="#d7dae9"/>
      <path id="Trazado_114886" data-name="Trazado 114886" d="M407.671,344.88a4.243,4.243,0,0,1-4.622.62c-1.311-6.2-2.335-11.056-2.86-13.677a2.3,2.3,0,0,1,1.478-2.669,2.144,2.144,0,0,1,1.763.238,2.448,2.448,0,0,1,1,1.406l3.241,14.058Z" transform="translate(-147.853 -121.577)" fill="#12263f"/>
      <path id="Trazado_114887" data-name="Trazado 114887" d="M436.9,478.906l-6.957,1.549a1.8,1.8,0,0,1-2.12-1.43l-1.477-7.267a1.86,1.86,0,0,1,1.382-2.216l6.957-1.548a1.8,1.8,0,0,1,2.12,1.429l1.477,7.268A1.86,1.86,0,0,1,436.9,478.906Z" transform="translate(-157.521 -172.899)" fill="#d5a902"/>
      <path id="Trazado_114888" data-name="Trazado 114888" d="M408.708,417.228a2.219,2.219,0,0,1-2.24-.834c-.81-1.191.667-2.526,1.74-3.1s8.363-1.787,8.769-.357c.381,1.43-8.244,4.313-8.244,4.313Z" transform="translate(-150.106 -152.323)" fill="#f09c77"/>
      <path id="Trazado_114889" data-name="Trazado 114889" d="M410.3,419.815s.762,1.5,3.622.023,6.529-2.716,6.2-3.765c-.334-1.12-2.835-.715-5.218.262S408.851,417.718,410.3,419.815Z" transform="translate(-151.487 -153.48)" fill="#f09c77"/>
      <path id="Trazado_114890" data-name="Trazado 114890" d="M413.762,421.834s-.62.4-.071,1.692c.572,1.287,1.548,1,3.121.31,1.6-.691,6.41-3.478,5.623-4.48s-2.025-.619-3.622-.047a46.19,46.19,0,0,0-5.051,2.549Z" transform="translate(-152.777 -154.713)" fill="#f09c77"/>
      <path id="Trazado_114891" data-name="Trazado 114891" d="M416.75,426.629a.831.831,0,0,0,.262.31,1.788,1.788,0,0,0,1.382.334,2.346,2.346,0,0,0,.548-.143,17.553,17.553,0,0,0,4.623-3.1c.572-.548.477-1.668-.62-1.358a27.376,27.376,0,0,0-5.551,2.883,2.327,2.327,0,0,0-.644.715.41.41,0,0,0,0,.334Z" transform="translate(-153.978 -156.148)" fill="#f09c77"/>
      <path id="Trazado_114892" data-name="Trazado 114892" d="M409.994,418.784s-.214-.071-.262-.166a.272.272,0,0,1,.143-.357l6.1-2.526a.255.255,0,0,1,.357.143.273.273,0,0,1-.143.358l-6.1,2.526h-.119Z" transform="translate(-151.391 -153.593)" fill="#4b2524"/>
      <path id="Trazado_114893" data-name="Trazado 114893" d="M413.781,422.247s-.19-.047-.238-.143a.3.3,0,0,1,.119-.381l5-2.55a.283.283,0,1,1,.262.5l-5,2.549a1.021,1.021,0,0,1-.119.024Z" transform="translate(-152.795 -154.864)" fill="#4b2524"/>
      <path id="Trazado_114894" data-name="Trazado 114894" d="M417.629,426.14s-.191-.048-.238-.119a.275.275,0,0,1,.1-.381l3.55-2.24a.278.278,0,0,1,.286.477l-3.55,2.24a.483.483,0,0,1-.143.048Z" transform="translate(-154.213 -156.422)" fill="#4b2524"/>
      <path id="Trazado_114895" data-name="Trazado 114895" d="M426.006,409.531l-1.787-.929c-1.168-.6-2.5-1.263-3.717-1.883a17.04,17.04,0,0,0-4.1-1.62,3.546,3.546,0,0,0-3.265.62c-1.025.977-3.574,3.6-4.1,4.289-1.025,1.406,1.668,1.12,2.74.5a23.932,23.932,0,0,0,2.907-2.383l7.482,4.908c.143,2.049,2.668,3.622,4.646,3.122a3.564,3.564,0,0,0,2.788-3.765,3.637,3.637,0,0,0-3.622-2.883Z" transform="translate(-151.058 -149.629)" fill="#f09c77"/>
      <path id="Trazado_114896" data-name="Trazado 114896" d="M409.816,413.3a.959.959,0,0,1-.453-.071,1.5,1.5,0,0,1-.953-.929.279.279,0,1,1,.525-.19.99.99,0,0,0,.6.572,2.354,2.354,0,0,0,1.93-.715,25.973,25.973,0,0,0,2.859-2.359.272.272,0,1,1,.429.334,23.833,23.833,0,0,1-2.954,2.454,3.412,3.412,0,0,1-1.978.858Z" transform="translate(-150.904 -151.299)" fill="#4b2524"/>
      <path id="Trazado_114897" data-name="Trazado 114897" d="M585.651,437.132a.475.475,0,0,1-.19-.072.274.274,0,0,1,0-.4l3.05-3.1s.286-.119.4,0a.274.274,0,0,1,0,.4l-3.05,3.1a.456.456,0,0,1-.191.1Z" transform="translate(-216.298 -160.17)" fill="#4b2524"/>
      <path id="Trazado_114898" data-name="Trazado 114898" d="M583.493,435.412a.464.464,0,0,1-.214-.1.323.323,0,0,1,0-.4l4.289-3.956s.286-.1.4,0a.323.323,0,0,1,0,.405l-4.289,3.955a.521.521,0,0,1-.191.072Z" transform="translate(-215.499 -159.213)" fill="#4b2524"/>
      <path id="Trazado_114899" data-name="Trazado 114899" d="M582.666,434.2a.478.478,0,0,1-.19-.071.274.274,0,0,1,0-.405l2.6-2.74s.286-.119.4,0a.274.274,0,0,1,0,.405l-2.6,2.74a.446.446,0,0,1-.214.1Z" transform="translate(-215.195 -159.22)" fill="#4b2524"/>
      <path id="Trazado_114900" data-name="Trazado 114900" d="M529.367,349.612h-.024c-7.339,0-10.055-4.552-10.174-4.742a.293.293,0,0,1,.1-.381.3.3,0,0,1,.381.1c.024.048,2.692,4.456,9.7,4.48,7.434,0,9.937-4.932,9.96-4.98a.283.283,0,0,1,.5.262c-.024.047-2.669,5.289-10.461,5.289Z" transform="translate(-191.823 -127.072)" fill="#4b2524"/>
      <path id="Trazado_114901" data-name="Trazado 114901" d="M584.291,376.272a.318.318,0,0,1-.119-.024.309.309,0,0,1-.143-.381l6.6-14.3a.286.286,0,0,1,.381-.143.309.309,0,0,1,.143.381l-6.6,14.3S584.41,376.272,584.291,376.272Z" transform="translate(-215.795 -133.526)" fill="#4b2524"/>
      <path id="Trazado_114902" data-name="Trazado 114902" d="M489.779,388.374a.223.223,0,0,1-.166-.071l-13.8-11.438a.288.288,0,0,1,.357-.453l13.8,11.438a.3.3,0,0,1,.047.4.258.258,0,0,1-.214.1Z" transform="translate(-175.777 -139.052)" fill="#4b2524"/>
      <path id="Trazado_114903" data-name="Trazado 114903" d="M545.564,383.949l-.6,15.774H509.084l-2.216-18.634a113.242,113.242,0,0,0,2.144-18.323,90.251,90.251,0,0,0-1.6-16.941c1.692-.286,3.645-.548,5.742-.786l2.883,19.777h19.014l1.716-20.492a52.759,52.759,0,0,1,5.742.5,86.555,86.555,0,0,0-.858,16.894c.453,8.244,2.788,17.847,3.932,22.207Z" transform="translate(-187.29 -127.217)" fill="#ffca00"/>
      <path id="Trazado_114904" data-name="Trazado 114904" d="M509.324,423.347l36.742.262-.214,5.313-35.861-.023Z" transform="translate(-188.198 -156.417)" fill="#ffca00"/>
      <path id="Trazado_114905" data-name="Trazado 114905" d="M572.307,419.592s-7.958,5.29-6.814,8.816a6.818,6.818,0,0,0,7.839,4.456c2.763-.762,4.527-10.627,4.527-10.627l-5.552-2.669Z" transform="translate(-208.911 -155.02)" fill="#f09c77"/>
      <path id="Trazado_114906" data-name="Trazado 114906" d="M539.4,395.577H526.3a1.478,1.478,0,0,1,0-2.955H539.4a1.478,1.478,0,0,1,0,2.955Z" transform="translate(-193.923 -145.063)" fill="#ffca00"/>
      <path id="Trazado_114907" data-name="Trazado 114907" d="M509.91,365.846a.481.481,0,0,1-.19-.071.294.294,0,0,1-.1-.191l-.262-4.479s0-.143.071-.191a.3.3,0,0,1,.191-.1l6.171-.358s.143,0,.19.072a.292.292,0,0,1,.1.19l.215,4.384a.286.286,0,0,1-.262.286l-6.124.429Zm.024-4.5.238,3.907,5.575-.381-.19-3.837Z" transform="translate(-188.212 -133.18)" fill="#4b2524"/>
      <path id="Trazado_114908" data-name="Trazado 114908" d="M558.439,364.881h-6.147a.672.672,0,0,1-.19-.1.269.269,0,0,1-.072-.19l.072-4.48a.34.34,0,0,1,.1-.19.2.2,0,0,1,.19-.072l6.171.119a.341.341,0,0,1,.191.1.271.271,0,0,1,.071.19l-.1,4.408a.271.271,0,0,1-.286.262Zm-5.861-.572h5.576l.1-3.813-5.623-.1-.047,3.931Z" transform="translate(-203.978 -132.952)" fill="#4b2524"/>
      <path id="Trazado_114909" data-name="Trazado 114909" d="M537.13,476.88a.3.3,0,0,1-.286-.262l-2.954-40.15a.275.275,0,1,1,.548-.048l2.955,40.15A.291.291,0,0,1,537.13,476.88Z" transform="translate(-197.275 -161.151)" fill="#4b2524"/>
      <path id="Trazado_114910" data-name="Trazado 114910" d="M562.954,445.724a5.876,5.876,0,0,1-4.622-1.74c-2.073-2.526-1.811-11.58-1.811-11.985a.274.274,0,1,1,.548.024c0,.1-.262,9.245,1.668,11.6,1.883,2.311,6.362,1.335,6.386,1.311a.275.275,0,0,1,.333.214.3.3,0,0,1-.214.334,13.312,13.312,0,0,1-2.311.238Z" transform="translate(-205.634 -159.517)" fill="#4b2524"/>
      <path id="Trazado_114911" data-name="Trazado 114911" d="M492.814,591.522v16.036l-.143,2H463.482v-3.526s-.262-4.408,8.816-5.981c9.054-1.6,8.7-8.531,8.7-8.531h11.819Z" transform="translate(-171.258 -218.559)" fill="#12263f"/>
      <path id="Trazado_114912" data-name="Trazado 114912" d="M492.8,616.956l-.143,2H463.445v-2Z" transform="translate(-171.245 -227.957)" fill="#10214b"/>
      <path id="Trazado_114913" data-name="Trazado 114913" d="M492.616,598.254h-3.526a.29.29,0,0,1-.286-.286.275.275,0,0,1,.286-.286h3.526a.289.289,0,0,1,.286.286A.275.275,0,0,1,492.616,598.254Z" transform="translate(-180.615 -220.835)" fill="#4b2524"/>
      <path id="Trazado_114914" data-name="Trazado 114914" d="M488.995,602.9h-4.932a.29.29,0,0,1-.286-.286.275.275,0,0,1,.286-.286h4.932a.29.29,0,0,1,.286.286A.275.275,0,0,1,488.995,602.9Z" transform="translate(-178.758 -222.553)" fill="#4b2524"/>
      <path id="Trazado_114915" data-name="Trazado 114915" d="M480.4,603.215a.286.286,0,0,1,0-.572c.072,0,7.863-.214,9.769-7.2a.272.272,0,0,1,.525.143c-2.026,7.386-10.222,7.6-10.317,7.6Z" transform="translate(-177.403 -219.934)" fill="#4b2524"/>
      <path id="Trazado_114916" data-name="Trazado 114916" d="M463.516,611.527h-.023a.261.261,0,0,1-.238-.31,6.6,6.6,0,0,1,6.1-5.528c5.5-.667,7.506,3.455,7.506,3.5a.288.288,0,0,1-.524.238c-.072-.167-1.859-3.812-6.934-3.169-5.075.62-5.575,4.837-5.6,5.027a.286.286,0,0,1-.286.262Z" transform="translate(-171.174 -223.767)" fill="#4b2524"/>
      <path id="Trazado_114917" data-name="Trazado 114917" d="M487.147,583.094h14.94a1.861,1.861,0,0,1,1.859,1.859V588.6a1.861,1.861,0,0,1-1.859,1.859h-14.94a1.861,1.861,0,0,1-1.859-1.859v-3.646A1.861,1.861,0,0,1,487.147,583.094Z" transform="translate(-179.316 -215.445)" fill="#ffca00"/>
      <path id="Trazado_114918" data-name="Trazado 114918" d="M147.645,153.411a.59.59,0,0,1-.6-.6V76.067a.59.59,0,0,1,.6-.6h44.844a.6.6,0,0,1,0,1.191H148.241v76.153A.59.59,0,0,1,147.645,153.411Z" transform="translate(-54.334 -27.873)" fill="#3c0061"/>
      <path id="Trazado_114919" data-name="Trazado 114919" d="M221.032,73.707a4.622,4.622,0,1,1-4.622-4.623A4.627,4.627,0,0,1,221.032,73.707Z" transform="translate(-78.255 -25.513)" fill="#3c0061"/>
      <path id="Trazado_114920" data-name="Trazado 114920" d="M473.295,153.713a4.623,4.623,0,1,1-4.623-4.623A4.627,4.627,0,0,1,473.295,153.713Z" transform="translate(-171.468 -55.076)" fill="#3c0061"/>
      <path id="Trazado_114921" data-name="Trazado 114921" d="M471.032,274.972a.59.59,0,0,1-.6-.6v-118.3a.6.6,0,1,1,1.192,0v118.3A.59.59,0,0,1,471.032,274.972Z" transform="translate(-173.828 -57.436)" fill="#3c0061"/>
    </g>
  </g>
</svg>
