<svg xmlns="http://www.w3.org/2000/svg" width="81.705" height="81.705" viewBox="0 0 81.705 81.705">
  <g id="Grupo_1013438" data-name="Grupo 1013438" transform="translate(97.773 2.258)">
    <g id="Group_21" data-name="Group 21" transform="translate(-97.773 -2.258)">
      <path id="Trazado_124644" data-name="Trazado 124644" d="M40.852,81.7A40.852,40.852,0,1,0,0,40.852,40.852,40.852,0,0,0,40.852,81.7Z" fill="#ffcf13"/>
      <path id="Trazado_124645" data-name="Trazado 124645" d="M201.231,136.474l-22.7-22.7-17.973,28.2-18.34,17.194,18.157,18.157A40.852,40.852,0,0,0,201.231,136.474Z" transform="translate(-119.526 -95.621)" fill="#ffb31e"/>
      <path id="Trazado_124646" data-name="Trazado 124646" d="M150.429,113.778l-8.207,8.207v37.184h36.313V113.778Z" transform="translate(-119.526 -95.621)" fill="#e9eff4"/>
      <path id="Trazado_124647" data-name="Trazado 124647" d="M273.678,113.778H255.431v45.391h18.247Z" transform="translate(-214.67 -95.621)" fill="#cfdbe6"/>
      <path id="Trazado_124648" data-name="Trazado 124648" d="M150.429,121.985v-8.207l-8.207,8.207Z" transform="translate(-119.526 -95.621)" fill="#cfdbe6"/>
      <path id="Trazado_124649" data-name="Trazado 124649" d="M197.9,196.525H170.667v.825H197.9Z" transform="translate(-143.432 -165.164)" fill="#d0d1d3"/>
      <path id="Trazado_124650" data-name="Trazado 124650" d="M197.9,224.97H170.667v.825H197.9Z" transform="translate(-143.432 -189.069)" fill="#d0d1d3"/>
      <path id="Trazado_124651" data-name="Trazado 124651" d="M197.9,253.414H170.667v.825H197.9Z" transform="translate(-143.432 -212.974)" fill="#d0d1d3"/>
      <path id="Trazado_124652" data-name="Trazado 124652" d="M197.9,281.859H170.667v.825H197.9Z" transform="translate(-143.432 -236.88)" fill="#d0d1d3"/>
      <path id="Trazado_124653" data-name="Trazado 124653" d="M197.9,310.3H170.667v.825H197.9Z" transform="translate(-143.432 -260.785)" fill="#d0d1d3"/>
      <path id="Trazado_124654" data-name="Trazado 124654" d="M193.712,334.16a1.9,1.9,0,0,1-1.934-.972,1.66,1.66,0,0,0-.374-.413c-.623-.393-1.227.094-1.773.4l-1.571.872c-.264.147-1.146.809-1.424.725a17.657,17.657,0,0,0-.574-2.08.418.418,0,0,0-.754.1,7.477,7.477,0,0,1-.6,1.265,2.018,2.018,0,0,1-2.338.98,1.118,1.118,0,0,1-.58-.554,3.406,3.406,0,0,0,.872-1.112,3.533,3.533,0,0,0,.445-2.457c-.262-.637-.787-.642-1.254-.227a3.683,3.683,0,0,0-1,3.454,1.5,1.5,0,0,1-1.9-.226c-.387-.364-.971.218-.583.583a2.38,2.38,0,0,0,2.785.4,2.371,2.371,0,0,0,.524.64c1.628,1.374,3.08-.052,3.929-1.519a6.937,6.937,0,0,0,.119,1.009.856.856,0,0,0,.217.471c.55.527,1.375-.1,1.858-.363l1.8-1c.54-.3.953-.676,1.657-.222.119.076.163.27.275.356a2.731,2.731,0,0,0,2.181.717C194.231,334.918,194.238,334.092,193.712,334.16Zm-11.66-2.293c.151-.19.178-.506.265-.141a2.737,2.737,0,0,1-.318,1.088,3.072,3.072,0,0,1-.416.683A2.759,2.759,0,0,1,182.052,331.867Z" transform="translate(-149.8 -277.672)" fill="#d0d1d3"/>
      <path id="Trazado_124655" data-name="Trazado 124655" d="M269.14,196.525H255.431v.825H269.14Z" transform="translate(-214.67 -165.164)" fill="#a6a8aa"/>
      <path id="Trazado_124656" data-name="Trazado 124656" d="M269.14,224.97H255.431v.825H269.14Z" transform="translate(-214.67 -189.069)" fill="#a6a8aa"/>
      <path id="Trazado_124657" data-name="Trazado 124657" d="M269.14,253.414H255.431v.825H269.14Z" transform="translate(-214.67 -212.974)" fill="#a6a8aa"/>
      <path id="Trazado_124658" data-name="Trazado 124658" d="M269.14,281.859H255.431v.825H269.14Z" transform="translate(-214.67 -236.88)" fill="#a6a8aa"/>
      <path id="Trazado_124659" data-name="Trazado 124659" d="M269.14,310.3H255.431v.825H269.14Z" transform="translate(-214.67 -260.785)" fill="#a6a8aa"/>
      <path id="Trazado_124660" data-name="Trazado 124660" d="M258.578,345.914a1.9,1.9,0,0,1-1.934-.972,1.659,1.659,0,0,0-.374-.413.95.95,0,0,0-.843-.087v1.015a1.1,1.1,0,0,1,.695.208c.119.076.163.27.275.356a2.731,2.731,0,0,0,2.181.717C259.1,346.672,259.1,345.846,258.578,345.914Z" transform="translate(-214.665 -289.427)" fill="#a6a8aa"/>
      <path id="Trazado_124661" data-name="Trazado 124661" d="M283.918,184.93l-3.823-2.447,15.9-24.85a2.27,2.27,0,1,1,3.823,2.447Z" transform="translate(-235.398 -131.599)" fill="#324a5e"/>
      <path id="Trazado_124662" data-name="Trazado 124662" d="M309.1,158.728l-.035-.02-17.113,26.77,1.93,1.235,15.9-24.851A2.269,2.269,0,0,0,309.1,158.728Z" transform="translate(-245.365 -133.382)" fill="#2b3b4e"/>
      <path id="Trazado_124663" data-name="Trazado 124663" d="M276.74,323.914l4.358-2.6-3.823-2.447Z" transform="translate(-232.578 -267.982)" fill="#ffcf13"/>
      <path id="Trazado_124664" data-name="Trazado 124664" d="M276.745,330.25l0,.044,4.358-2.6-1.93-1.236Z" transform="translate(-232.578 -274.363)" fill="#ffb31e"/>
    </g>
  </g>
</svg>
