<svg xmlns="http://www.w3.org/2000/svg" width="101" height="101" viewBox="0 0 101 101">
  <g id="Grupo_1013450" data-name="Grupo 1013450" transform="translate(-637 -1157)">
    <circle id="Elipse_1146" data-name="Elipse 1146" cx="50.5" cy="50.5" r="50.5" transform="translate(637 1157)" fill="#00cca7"/>
    <g id="Group_22" data-name="Group 22" transform="translate(655.69 1175.19)">
      <g id="Grupo_1013443" data-name="Grupo 1013443">
        <path id="Trazado_124669" data-name="Trazado 124669" d="M186.935,209.525a1.835,1.835,0,0,0,1.3-.537l6.486-6.486,6.486,6.486a1.835,1.835,0,0,0,2.595,0l5.189-5.189a1.835,1.835,0,0,0,0-2.594l-6.486-6.486,6.486-6.486a1.835,1.835,0,0,0,0-2.594l-5.189-5.189a1.835,1.835,0,0,0-2.595,0l-6.486,6.486-6.486-6.486a1.835,1.835,0,0,0-2.594,0l-5.189,5.189a1.834,1.834,0,0,0,0,2.594l6.486,6.486-6.486,6.486a1.834,1.834,0,0,0,0,2.594l5.189,5.189A1.834,1.834,0,0,0,186.935,209.525ZM202.5,205.1l-6.486-6.486a1.835,1.835,0,0,0-2.594,0l-6.486,6.486-2.594-2.595,6.486-6.486a1.835,1.835,0,0,0,0-2.595l-6.486-6.486,2.594-2.594,6.486,6.486a1.835,1.835,0,0,0,2.594,0l6.486-6.486,2.594,2.594-6.486,6.486a1.835,1.835,0,0,0,0,2.595L205.1,202.5Z" transform="translate(-163.409 -163.408)" fill="#12263f" fill-rule="evenodd"/>
        <g id="Grupo_1013331" data-name="Grupo 1013331" transform="translate(0 0)">
          <path id="Trazado_124670" data-name="Trazado 124670" d="M0,31.31A31.31,31.31,0,1,0,31.31,0,31.4,31.4,0,0,0,0,31.31ZM31.31,58.951A27.641,27.641,0,1,1,58.951,31.31,27.728,27.728,0,0,1,31.31,58.951Z" transform="translate(0 0)" fill="#12263f" fill-rule="evenodd"/>
        </g>
      </g>
    </g>
  </g>
</svg>
