<svg xmlns="http://www.w3.org/2000/svg" width="178.304" height="297.42" viewBox="0 0 178.304 297.42">
  <g id="Grupo_1013384" data-name="Grupo 1013384" transform="translate(0)">
    <path id="Trazado_114937" data-name="Trazado 114937" d="M89.152,287.473A89.152,89.152,0,1,0,0,198.321,89.151,89.151,0,0,0,89.152,287.473Z" transform="translate(0 -16.767)" fill="#fff"/>
    <g id="Grupo_1013383" data-name="Grupo 1013383">
      <path id="Trazado_114936" data-name="Trazado 114936" d="M89.152,0A89.194,89.194,0,0,1,178.3,89.152v92.4H0v-92.4A89.2,89.2,0,0,1,89.152,0Z" fill="#00cca7"/>
      <path id="Trazado_114938" data-name="Trazado 114938" d="M92.231,273.591a72.183,72.183,0,1,1,51.045-21.142A71.732,71.732,0,0,1,92.231,273.591Z" transform="translate(-3.078 -19.846)" fill="#f9f9f9"/>
      <path id="Trazado_114939" data-name="Trazado 114939" d="M126.643,320.63,100.61,346.663,74.576,320.63a94.567,94.567,0,0,0,52.067,0Z" transform="translate(-11.454 -49.243)" fill="#00cca7"/>
    </g>
    <g id="Grupo_81443" data-name="Grupo 81443" transform="translate(56.664 137.661)">
      <path id="Trazado_114978" data-name="Trazado 114978" d="M85.563,173.261H68.709a1.766,1.766,0,0,1-1.764-1.76v-3.7a5.186,5.186,0,0,1,5.176-5.165h45.631m0,0a5.184,5.184,0,0,1,5.177,5.165v31.022m-5.177-36.187a5.184,5.184,0,0,0-5.176,5.165v3.7a1.766,1.766,0,0,1-1.764,1.76H98.062m-26.611,0V226.81a1.766,1.766,0,0,0,1.764,1.76h37.165" transform="translate(-66.945 -162.64)" fill="none" stroke="#00cca7" stroke-linecap="round" stroke-linejoin="round" stroke-miterlimit="10" stroke-width="3.306"/>
      <path id="Trazado_114979" data-name="Trazado 114979" d="M83.184,184.335h5.409a1.291,1.291,0,0,1,1.29,1.284v5.4a1.291,1.291,0,0,1-1.29,1.283H83.184a1.29,1.29,0,0,1-1.286-1.283v-5.4A1.29,1.29,0,0,1,83.184,184.335Z" transform="translate(-69.242 -165.972)" fill="none" stroke="#00cca7" stroke-linecap="round" stroke-linejoin="round" stroke-miterlimit="10" stroke-width="3.306"/>
      <path id="Trazado_114980" data-name="Trazado 114980" d="M118.865,203.35a3.1,3.1,0,1,1,6.186,0v7.73m6.186-2.476a3.1,3.1,0,1,1,6.19,0v8.475c.095,16.225-15.986,24.2-25.9,11.478l-9.638-12.372c-3.085-3.96,1.779-9.2,5.183-5.55l3.381,3.625c2.731,2.924,2.225,1.142,2.225-3V191.2a3.1,3.1,0,1,1,6.186,0V211.08m6.186-5.1a3.1,3.1,0,1,1,6.186,0v5.1" transform="translate(-72.161 -166.525)" fill="none" stroke="#00cca7" stroke-linecap="round" stroke-linejoin="round" stroke-miterlimit="10" stroke-width="3.306"/>
      <path id="Trazado_114981" data-name="Trazado 114981" d="M98.235,184.335h11.114" transform="translate(-71.751 -165.972)" fill="none" stroke="#00cca7" stroke-linecap="round" stroke-linejoin="round" stroke-miterlimit="10" stroke-width="3.306"/>
      <path id="Trazado_114982" data-name="Trazado 114982" d="M98.235,193.744h8.754" transform="translate(-71.751 -167.417)" fill="none" stroke="#00cca7" stroke-linecap="round" stroke-linejoin="round" stroke-miterlimit="10" stroke-width="3.306"/>
      <path id="Trazado_114983" data-name="Trazado 114983" d="M81.9,203.156h21.209" transform="translate(-69.242 -168.863)" fill="none" stroke="#00cca7" stroke-linecap="round" stroke-linejoin="round" stroke-miterlimit="10" stroke-width="3.306"/>
      <path id="Trazado_114984" data-name="Trazado 114984" d="M81.9,212.564H93.339" transform="translate(-69.242 -170.307)" fill="none" stroke="#00cca7" stroke-linecap="round" stroke-linejoin="round" stroke-miterlimit="10" stroke-width="3.306"/>
      <path id="Trazado_114985" data-name="Trazado 114985" d="M81.9,221.977H91.974" transform="translate(-69.242 -171.753)" fill="none" stroke="#00cca7" stroke-linecap="round" stroke-linejoin="round" stroke-miterlimit="10" stroke-width="3.306"/>
      <path id="Trazado_114986" data-name="Trazado 114986" d="M81.9,231.385H96.681" transform="translate(-69.242 -173.198)" fill="none" stroke="#00cca7" stroke-linecap="round" stroke-linejoin="round" stroke-miterlimit="10" stroke-width="3.306"/>
      <path id="Trazado_114987" data-name="Trazado 114987" d="M96.33,175.188h-.006" transform="translate(-71.457 -164.567)" fill="none" stroke="#00cca7" stroke-linecap="round" stroke-linejoin="round" stroke-miterlimit="10" stroke-width="3.306"/>
    </g>
  </g>
</svg>
