<svg xmlns="http://www.w3.org/2000/svg" width="178.308" height="297.42" viewBox="0 0 178.308 297.42">
  <g id="Grupo_1013388" data-name="Grupo 1013388" transform="translate(-604.674 -3361.009)">
    <path id="Trazado_114944" data-name="Trazado 114944" d="M590.888,0A89.193,89.193,0,0,1,680.04,89.151v92.4H501.732v-92.4A89.194,89.194,0,0,1,590.884,0Z" transform="translate(102.942 3361.009)" fill="#33a4ff"/>
    <path id="Trazado_114945" data-name="Trazado 114945" d="M590.889,287.473a89.152,89.152,0,1,0-89.152-89.151A89.151,89.151,0,0,0,590.889,287.473Z" transform="translate(102.941 3344.242)" fill="#fff"/>
    <path id="Trazado_114946" data-name="Trazado 114946" d="M593.968,273.591a72.183,72.183,0,1,1,51.045-21.142A71.731,71.731,0,0,1,593.968,273.591Z" transform="translate(99.863 3341.163)" fill="#f9f9f9"/>
    <path id="Trazado_114947" data-name="Trazado 114947" d="M628.38,320.63l-26.033,26.033L576.314,320.63a94.565,94.565,0,0,0,52.066,0Z" transform="translate(91.488 3311.766)" fill="#33a4ff"/>
    <path id="Trazado_114974" data-name="Trazado 114974" d="M604.956,178.775a1.356,1.356,0,1,0,1.356,1.356A1.356,1.356,0,0,0,604.956,178.775Z" transform="translate(87.297 3333.552)" fill="#33a4ff"/>
    <path id="Trazado_114975" data-name="Trazado 114975" d="M603.732,196.024h-5.421a1.356,1.356,0,0,0-1.286.927l-1.424,4.275-1.426-4.275a1.355,1.355,0,0,0-1.286-.927h-1.652l-2.455-9.817a1.355,1.355,0,0,0-2.63,0l-2.454,9.817h-4.364a1.356,1.356,0,1,0,0,2.711h5.421a1.355,1.355,0,0,0,1.315-1.027l1.4-5.583,1.4,5.583a1.356,1.356,0,0,0,1.315,1.027h1.734l2.4,7.206a1.356,1.356,0,0,0,2.572,0l2.4-7.206h4.445a1.356,1.356,0,0,0,0-2.711Z" transform="translate(91.232 3332.568)" fill="#33a4ff"/>
    <path id="Trazado_114976" data-name="Trazado 114976" d="M632.166,226.594c-1.754-1.6-19.568-17.841-22.085-20.135a24.4,24.4,0,1,0-7.65,7.638c.02.022,20.394,22.311,20.41,22.326a6.777,6.777,0,1,0,9.325-9.829Zm-58.1-17.855a21.688,21.688,0,1,1,30.71.04A21.676,21.676,0,0,1,574.068,208.739Zm30.755,3.918-.043-.045-.106-.106a24.544,24.544,0,0,0,3.823-3.822l3.118,2.843-4.092,4.092ZM630.5,234.5a4.063,4.063,0,0,1-5.9-.157l-15.252-16.721,4.269-4.269L630.347,228.6A4.061,4.061,0,0,1,630.5,234.5Z" transform="translate(93.225 3335.053)" fill="#33a4ff"/>
    <path id="Trazado_114977" data-name="Trazado 114977" d="M605.1,182.386A1.356,1.356,0,1,0,603,184.11a16.275,16.275,0,1,1-8.3-5.364,1.355,1.355,0,1,0,.707-2.617,18.969,18.969,0,1,0,9.684,6.258Z" transform="translate(92.232 3334.059)" fill="#33a4ff"/>
  </g>
</svg>
