<svg xmlns="http://www.w3.org/2000/svg" width="101" height="101" viewBox="0 0 101 101">
  <g id="Grupo_1013453" data-name="Grupo 1013453" transform="translate(-637 -1641)">
    <circle id="Elipse_1150" data-name="Elipse 1150" cx="50.5" cy="50.5" r="50.5" transform="translate(637 1641)" fill="#00cca7"/>
    <g id="equilibrar" transform="translate(657.157 1659.659)">
      <g id="Grupo_1013334" data-name="Grupo 1013334" transform="translate(0.002 -0.001)">
        <path id="Trazado_124685" data-name="Trazado 124685" d="M63.578,38.831l.01,0L53.132,16.015l2.536-1.262-.949-1.9-2.472,1.231-.334-.729a1.061,1.061,0,0,0-1.93,0l-.3.652a13.653,13.653,0,0,0-5.742-1.27H35.027V10.614H37.15V8.491H35.326l.763-3.054a4.376,4.376,0,1,0-8.491,0l.763,3.054H26.536v2.123h2.123v2.123h-8.91A13.653,13.653,0,0,0,14,14.01l-.3-.652a1.061,1.061,0,0,0-1.93,0l-.334.729L8.967,12.851l-.949,1.9,2.536,1.267L.1,38.828a1.037,1.037,0,0,0-.1.443,7.438,7.438,0,0,0,7.43,7.43H18.045a7.438,7.438,0,0,0,7.43-7.43,1.038,1.038,0,0,0-.106-.439l-10.484-22.9a11.545,11.545,0,0,1,4.864-1.073h8.91V53.691l-3.624,3.624H21.229a5.313,5.313,0,0,0-5.307,5.307,1.061,1.061,0,0,0,1.061,1.061H46.7a1.061,1.061,0,0,0,1.061-1.061,5.313,5.313,0,0,0-5.307-5.307H38.651l-3.624-3.624V14.859h8.916a11.545,11.545,0,0,1,4.864,1.073l-10.5,22.9a1.037,1.037,0,0,0-.1.443,7.438,7.438,0,0,0,7.43,7.43H56.255a7.438,7.438,0,0,0,7.43-7.43A1.034,1.034,0,0,0,63.578,38.831ZM18.045,44.578H7.432a5.315,5.315,0,0,1-5.2-4.246H23.246A5.315,5.315,0,0,1,18.045,44.578ZM22.76,38.21H2.717l9.75-21.271a1.048,1.048,0,0,0,.543,0ZM30.068,2.989a2.322,2.322,0,0,1,3.551,0,2.24,2.24,0,0,1,.411,1.934l-.893,3.568H30.549l-.893-3.568A2.241,2.241,0,0,1,30.068,2.989Zm.714,9.748V10.614H32.9v2.123ZM32.9,14.859v38.21H30.782V14.859Zm9.552,44.578a3.19,3.19,0,0,1,3,2.123H18.227a3.19,3.19,0,0,1,3-2.123Zm-6.808-2.123H28.037l2.123-2.123h3.367ZM50.674,16.942a.725.725,0,0,0,.537-.022L60.97,38.21H40.927Zm5.581,27.636H45.641a5.315,5.315,0,0,1-5.2-4.246H61.456A5.315,5.315,0,0,1,56.255,44.578Z" transform="translate(-0.002 0.001)" fill="#12263f" stroke="#12263f" stroke-width="0.5"/>
      </g>
    </g>
  </g>
</svg>
