<svg xmlns="http://www.w3.org/2000/svg" width="178.308" height="297.42" viewBox="0 0 178.308 297.42">
  <g id="Grupo_1013389" data-name="Grupo 1013389" transform="translate(-817.014 -3361.009)">
    <path id="Trazado_114948" data-name="Trazado 114948" d="M841.757,0a89.194,89.194,0,0,1,89.152,89.151v92.4H752.6v-92.4A89.193,89.193,0,0,1,841.752,0Z" transform="translate(64.413 3361.009)" fill="#3b97ca"/>
    <path id="Trazado_114949" data-name="Trazado 114949" d="M841.757,287.473a89.152,89.152,0,1,0-89.151-89.151A89.152,89.152,0,0,0,841.757,287.473Z" transform="translate(64.412 3344.242)" fill="#fff"/>
    <path id="Trazado_114950" data-name="Trazado 114950" d="M844.836,273.591a72.182,72.182,0,1,1,51.045-21.142A71.734,71.734,0,0,1,844.836,273.591Z" transform="translate(61.334 3341.163)" fill="#f9f9f9"/>
    <path id="Trazado_114951" data-name="Trazado 114951" d="M879.249,320.63l-26.034,26.033L827.182,320.63a94.568,94.568,0,0,0,52.067,0Z" transform="translate(52.958 3311.766)" fill="#3b97ca"/>
    <path id="Trazado_114960" data-name="Trazado 114960" d="M882.882,200.545l-8.305-.794a2.056,2.056,0,0,1-1.7-1.255l-.017-.044a2.047,2.047,0,0,1,.312-2.11l5.312-6.435a1.319,1.319,0,0,0-.083-1.768l-7.533-7.533a1.313,1.313,0,0,0-1.767-.083l-6.279,5.181a2.185,2.185,0,0,1-2.281.307,2.159,2.159,0,0,1-1.3-1.777l-.772-8.116a1.319,1.319,0,0,0-1.312-1.193H846.5a1.319,1.319,0,0,0-1.312,1.193l-.728,7.651a2.363,2.363,0,0,1-1.527,1.965l-.079.031a2.361,2.361,0,0,1-2.374-.351l-5.922-4.891a1.314,1.314,0,0,0-1.768.083l-7.532,7.533a1.315,1.315,0,0,0-.084,1.768l4.738,5.738a2.062,2.062,0,0,1,.281,2.176c-.114.245-.219.5-.325.746a2.054,2.054,0,0,1-1.706,1.264l-7.393.706a1.316,1.316,0,0,0-1.188,1.312V212.5a1.319,1.319,0,0,0,1.188,1.312l7.217.689a2.041,2.041,0,0,1,1.72,1.3c.118.311.245.619.381.921a2.047,2.047,0,0,1-.3,2.132l-4.615,5.586a1.319,1.319,0,0,0,.084,1.768l7.532,7.532a1.315,1.315,0,0,0,1.768.084l5.686-4.694a2.055,2.055,0,0,1,2.11-.307c.267.109.535.219.8.32a2.047,2.047,0,0,1,1.33,1.733l.7,7.353a1.315,1.315,0,0,0,1.312,1.188h10.652a1.319,1.319,0,0,0,1.312-1.188l.736-7.718a2.074,2.074,0,0,1,1.26-1.706c.153-.066.3-.131.456-.2a2.072,2.072,0,0,1,2.189.276l5.989,4.945a1.314,1.314,0,0,0,1.767-.084l7.533-7.532a1.314,1.314,0,0,0,.083-1.768l-5.194-6.291a2.034,2.034,0,0,1-.325-2.066l.083-.207a2.038,2.038,0,0,1,1.716-1.29l8.13-.776a1.316,1.316,0,0,0,1.188-1.312V201.848a1.319,1.319,0,0,0-1.188-1.312Zm-1.443,10.761-6.936.663a4.661,4.661,0,0,0-3.917,2.948l-.075.185a4.678,4.678,0,0,0,.736,4.725l4.436,5.37-5.839,5.839-5.068-4.185a4.687,4.687,0,0,0-4.944-.645c-.136.061-.273.119-.408.179a4.7,4.7,0,0,0-2.852,3.878l-.623,6.528h-8.256l-.588-6.164a4.663,4.663,0,0,0-3.018-3.943c-.241-.092-.478-.185-.715-.285a4.681,4.681,0,0,0-4.808.706l-4.765,3.936-5.839-5.839,3.852-4.664a4.667,4.667,0,0,0,.681-4.861c-.119-.273-.229-.544-.338-.816a4.658,4.658,0,0,0-3.927-2.97l-6.024-.575v-8.257l6.2-.592a4.68,4.68,0,0,0,3.892-2.882c.091-.219.184-.444.284-.659a4.673,4.673,0,0,0-.644-4.94l-3.98-4.817,5.839-5.839,5,4.128a5,5,0,0,0,5.015.768l.074-.03a4.977,4.977,0,0,0,3.185-4.164l.614-6.458h8.257l.663,6.924a4.838,4.838,0,0,0,7.879,3.255l5.357-4.423,5.839,5.839-4.554,5.51a4.73,4.73,0,0,0,3.19,7.7l7.116.681v8.257Z" transform="translate(54.125 3334.144)" fill="#3b97ca"/>
    <path id="Trazado_114961" data-name="Trazado 114961" d="M855.526,199.036a11.846,11.846,0,1,0,11.846,11.846A11.858,11.858,0,0,0,855.526,199.036Zm0,21.059a9.213,9.213,0,1,1,9.213-9.213A9.224,9.224,0,0,1,855.526,220.095Z" transform="translate(50.425 3330.44)" fill="#3b97ca"/>
  </g>
</svg>
