<svg xmlns="http://www.w3.org/2000/svg" xmlns:xlink="http://www.w3.org/1999/xlink" width="288.307" height="263.354" viewBox="0 0 288.307 263.354">
  <defs>
    <clipPath id="clip-path">
      <rect id="Rect치ngulo_347482" data-name="Rect치ngulo 347482" width="288.307" height="263.354" fill="none"/>
    </clipPath>
  </defs>
  <g id="Grupo_1013357" data-name="Grupo 1013357" transform="translate(-306 -2070.667)">
    <g id="Grupo_1013354" data-name="Grupo 1013354" transform="translate(306 2070.668)">
      <g id="Grupo_1013354-2" data-name="Grupo 1013354" transform="translate(0 -0.001)" clip-path="url(#clip-path)">
        <path id="Trazado_710603" data-name="Trazado 710603" d="M244.3,109.867A109.868,109.868,0,1,1,134.433,0,109.868,109.868,0,0,1,244.3,109.867" transform="translate(-8.271 0.001)" fill="#a6e2e2"/>
        <path id="Trazado_710604" data-name="Trazado 710604" d="M183.8,196.453s-30.626,37.166-41.458,36.2-18.255-19.084-18.255-19.084.371-.2,1-.577c3.171-1.871,12.922-8.066,15.2-14.679,2.209-3.589,18.275-29.637,23.163-36.284,5.26-7.144,11.449-7.423,11.449-7.423,3.489,5.738,7.894,10.1,13.353,10.925a21.57,21.57,0,0,0,2.176.219c.332,2.335,2.527,14.248,13.227,20.344,0,0,.411-8.3,5.9-9.035,0,0,5.811-3.184,10.607,1.473,0,0,7.6-8.159,0-31.07l-5.426-4.909-.007-.007-2.487-5.917s27.76-1.386,34.181,4.564,47.494,60.3,47.494,60.3l-59.746,46.386s-36.224-35.926-50.373-51.421" transform="translate(-41.778 -45.951)" fill="#fff"/>
        <path id="Trazado_710605" data-name="Trazado 710605" d="M263.547,150.538c7.6,22.911,0,31.07,0,31.07-4.8-4.657-10.607-1.473-10.607-1.473l7.748-28.4-2.567-6.1Z" transform="translate(-85.159 -49.029)" fill="#d7f2ed"/>
        <path id="Trazado_710606" data-name="Trazado 710606" d="M235.2,186.6l8.033,5.3c-5.486.736-5.9,9.035-5.9,9.035-10.7-6.1-12.9-18.009-13.227-20.344a17.414,17.414,0,0,0,1.957-.013Z" transform="translate(-75.452 -60.796)" fill="#d7f2ed"/>
        <path id="Trazado_710607" data-name="Trazado 710607" d="M208.463,220.1l-10.026-12.374c-.269-.332-.736.141-.469.469l10.026,12.374c.269.332.736-.14.469-.469" transform="translate(-66.624 -69.898)" fill="#2e303d"/>
        <path id="Trazado_710608" data-name="Trazado 710608" d="M205.554,226.1l-7.1-3.047c-.388-.167-.726.405-.335.573l7.1,3.046c.388.167.726-.4.335-.572" transform="translate(-66.644 -75.086)" fill="#2e303d"/>
        <path id="Trazado_710609" data-name="Trazado 710609" d="M276.992,236.713l-9.025-14.927-8.981-14.858-5.09-8.419a.332.332,0,0,0-.573.335l9.025,14.927,8.982,14.858,5.09,8.419a.332.332,0,0,0,.572-.335" transform="translate(-85.271 -66.779)" fill="#2e303d"/>
        <path id="Trazado_710610" data-name="Trazado 710610" d="M129.642,217.4a8.437,8.437,0,0,1-.484,2.448c-2.282,6.613-12.033,12.809-15.2,14.679l-1-3.668s-5.141,1.154-8.9-2.1a1.3,1.3,0,0,1-.444.484,3,3,0,0,1-1.824.272,14.928,14.928,0,0,1-7.8-3.078,7.361,7.361,0,0,1-2.872-3.993,3.827,3.827,0,0,1,1.612-4.139,4.732,4.732,0,0,1-.1-.75,5.244,5.244,0,0,1,1.725-3.827,14.071,14.071,0,0,1,3.3-2.249c.013-.06.027-.113.04-.166a4.856,4.856,0,0,1,1.864-2.5,13.649,13.649,0,0,1,2.521-1.38c-4.252-2.189-8.331-4.617-7.92-5.7.829-2.209,9.539-1.426,18.348,1.658s11.681,7.695,11.681,7.695c2.74-1.214,5.738-.975,5.466,6.321" transform="translate(-30.641 -67.492)" fill="#ff9971"/>
        <path id="Trazado_710611" data-name="Trazado 710611" d="M137.42,223.931l-6.158,2.642-3.117,1.337c-.854.366-1.894.964-2.852.667-1.032-.319-1.043-1.475-.648-2.3a12.389,12.389,0,0,1,1.585-2.3,26.035,26.035,0,0,1,9.072-7.2c.385-.186.048-.758-.334-.573a26.709,26.709,0,0,0-9.375,7.517c-.975,1.24-2.812,3.426-1.349,4.979a2.529,2.529,0,0,0,2.608.442A32.718,32.718,0,0,0,130,227.831l7.754-3.327c.391-.168.054-.739-.335-.572" transform="translate(-41.646 -72.778)" fill="#2e303d"/>
        <path id="Trazado_710612" data-name="Trazado 710612" d="M115.821,215.523l-7.72-4.609a.332.332,0,0,0-.334.572l7.72,4.609a.332.332,0,0,0,.335-.572" transform="translate(-36.229 -70.992)" fill="#2e303d"/>
        <path id="Trazado_710613" data-name="Trazado 710613" d="M114.761,230.176a6.693,6.693,0,0,0-.6-1.783l-.795-1.9-3.654-8.744c-.162-.388-.8-.218-.639.176L112.033,225l1.493,3.573c.3.723,1.232,2.625-.109,2.933-.941.216-2.038-.724-2.752-1.226a23.219,23.219,0,0,1-2.351-1.9,24.356,24.356,0,0,1-3.882-4.56,24.045,24.045,0,0,1-2.884-6.109c-.125-.407-.766-.233-.639.176a24.811,24.811,0,0,0,9.423,12.962,5.352,5.352,0,0,0,2.878,1.339,1.681,1.681,0,0,0,1.554-2.011" transform="translate(-33.967 -73.219)" fill="#2e303d"/>
        <path id="Trazado_710614" data-name="Trazado 710614" d="M106.747,233.679c-.254-.336-.83-.005-.572.335a1.51,1.51,0,0,1-.033,1.97,1.675,1.675,0,0,1-1.966.273A9.1,9.1,0,0,1,102.321,235q-.906-.711-1.78-1.465a51.024,51.024,0,0,1-6.349-6.566c-.269-.333-.735.139-.469.468a51,51,0,0,0,5.79,6.076c1.02.907,2.076,1.777,3.169,2.595.961.719,2.216,1.4,3.4.759a2.159,2.159,0,0,0,.669-3.184" transform="translate(-31.527 -76.375)" fill="#2e303d"/>
        <path id="Trazado_710615" data-name="Trazado 710615" d="M237.42,136.232l-7.748,28.4-8.033-5.3c8.265-11.741,6.653-25.684,6.653-25.684s-1.287,18.779-15.787,19.661a17.418,17.418,0,0,1-1.957.013,21.583,21.583,0,0,1-2.176-.219c-5.459-.823-9.864-5.187-13.353-10.925-6.932-11.4-10.282-28.178-11.19-33.332,8.166-1.068,16.1-4.5,23.847-7.588,2.395-.955,4.922-1.9,7.489-1.619a10.949,10.949,0,0,1,6.746,3.821,28.88,28.88,0,0,1,3.788,5.811c.305-1.871,1.572-7.482,5.817-5.864a3.711,3.711,0,0,1,1.307.862c3.522,3.555,2.229,14.593-1.764,16.842l1.3,3.091,2.487,5.917.007.007Z" transform="translate(-61.891 -33.529)" fill="#ff9971"/>
        <path id="Trazado_710616" data-name="Trazado 710616" d="M242.847,150.939s1.612,13.943-6.653,25.684L227.06,170.6c14.5-.882,15.787-19.661,15.787-19.661" transform="translate(-76.445 -50.817)" fill="#2e303d"/>
        <path id="Trazado_710617" data-name="Trazado 710617" d="M223.711,81.382c-.391-2.494-1-5.088-2.667-6.985a5.687,5.687,0,0,0-6.093-1.76,8.9,8.9,0,0,0-6.361-10.916c-5.624-1.464-10.761,2.237-15.328,4.938a27.746,27.746,0,0,1-7.758,3.256,25.046,25.046,0,0,1-12.4-.2,23.048,23.048,0,0,0-4.121-.9c-2.341-.184-4.726.7-5.667,2.99a8.946,8.946,0,0,0,.427,6.68,13.855,13.855,0,0,0,2.5,3.948,6.594,6.594,0,0,0-5.349,11.316c1.824,1.745,4.464,2.3,6.978,2.487a36.49,36.49,0,0,0,7.569-.252c8.166-1.068,16.1-4.5,23.847-7.588,2.395-.955,4.922-1.9,7.489-1.619a10.949,10.949,0,0,1,6.746,3.821,28.88,28.88,0,0,1,3.788,5.811c.305-1.871,1.572-7.482,5.817-5.864a3.711,3.711,0,0,1,1.307.862,59.089,59.089,0,0,0-.716-10.029M209.629,65.11c-3.171-1.141-6.726-.4-9.817.942s-5.917,3.23-9.021,4.524a25.675,25.675,0,0,1-18,.557c-2.149-.743-4.5-1.778-6.587-.889a4.881,4.881,0,0,0-2.694,4.171,7.128,7.128,0,0,1,.087-1.195,4.46,4.46,0,0,1,1.494-2.766,5.165,5.165,0,0,1,3.306-1,15.6,15.6,0,0,1,4,.755,29.085,29.085,0,0,0,3.865.817,25.926,25.926,0,0,0,14.941-2.481c4.707-2.352,9.012-6.292,14.528-6.468a8.613,8.613,0,0,1,6.565,2.572,8.286,8.286,0,0,1,2.209,6.833c-.011.086-.036.169-.05.255.123-2.829-2.083-5.632-4.834-6.629" transform="translate(-53.495 -20.668)" fill="#2e303d"/>
        <path id="Trazado_710618" data-name="Trazado 710618" d="M229.719,151.279s3.688,6.739-1.937,10.653-9.592-1.645-9.592-1.645Z" transform="translate(-73.459 -50.931)" fill="#fff"/>
        <path id="Trazado_710619" data-name="Trazado 710619" d="M206.337,132.869l7.648,15.217s-6.222,3.5-7.648,1.473,0-16.689,0-16.689" transform="translate(-69.254 -44.733)" fill="#f9785a"/>
        <path id="Trazado_710620" data-name="Trazado 710620" d="M199.769,136.559c.587,1.986-.056,3.926-1.435,4.333s-2.974-.872-3.56-2.858.056-3.926,1.435-4.333,2.974.872,3.56,2.858" transform="translate(-65.502 -44.988)" fill="#2e303d"/>
        <path id="Trazado_710621" data-name="Trazado 710621" d="M224.1,128.351c.587,1.986-.056,3.926-1.435,4.334s-2.974-.872-3.56-2.858.056-3.926,1.435-4.334,2.974.872,3.56,2.858" transform="translate(-73.695 -42.224)" fill="#2e303d"/>
        <path id="Trazado_710622" data-name="Trazado 710622" d="M195.215,125.912a14.3,14.3,0,0,0-3.6,1.417,1.337,1.337,0,0,0-.427,1.827,1.358,1.358,0,0,0,1.828.427c.279-.155.568-.294.858-.429a13.033,13.033,0,0,1,2.092-.7,1.335,1.335,0,0,0,.9-1.648,1.357,1.357,0,0,0-1.648-.9" transform="translate(-64.302 -42.376)" fill="#2e303d"/>
        <path id="Trazado_710623" data-name="Trazado 710623" d="M222.478,119a1.552,1.552,0,0,0-.934-.36,10.18,10.18,0,0,0-4.776.705,1.432,1.432,0,0,0-.789.639,1.326,1.326,0,0,0,1.542,1.906,8.129,8.129,0,0,1,4.072-.6,1.329,1.329,0,0,0,.943-.418,1.328,1.328,0,0,0-.057-1.876" transform="translate(-72.66 -39.928)" fill="#2e303d"/>
        <path id="Trazado_710624" data-name="Trazado 710624" d="M242.829,61.437c-.168-.391-.74-.053-.572.335a22.31,22.31,0,0,1,1.812,9.057.332.332,0,0,0,.663,0,23.094,23.094,0,0,0-1.9-9.392" transform="translate(-81.551 -20.625)" fill="#2e303d"/>
        <path id="Trazado_710625" data-name="Trazado 710625" d="M247.279,70.029q-.425,1.749-.849,3.5c-.1.415.539.592.639.176q.425-1.75.849-3.5c.1-.415-.539-.592-.639-.176" transform="translate(-82.963 -23.497)" fill="#2e303d"/>
        <path id="Trazado_710626" data-name="Trazado 710626" d="M187.983,354.085v4.239H128.8L83.689,333.8v-3.814l45.975,24.1Z" transform="translate(-28.176 -111.097)" fill="#8e8e8e"/>
        <path id="Trazado_710627" data-name="Trazado 710627" d="M187.983,354.085h-58.32l-45.975-24.1h58.32Z" transform="translate(-28.176 -111.097)" fill="#b7b7b7"/>
        <path id="Trazado_710628" data-name="Trazado 710628" d="M155.785,362.016H148.6l-5.661-2.968h7.182Z" transform="translate(-48.125 -120.882)" fill="#8e8e8e"/>
        <path id="Trazado_710629" data-name="Trazado 710629" d="M144.343,356.038h-7.182l-5.661-2.968h7.182Z" transform="translate(-44.273 -118.869)" fill="#8e8e8e"/>
        <path id="Trazado_710630" data-name="Trazado 710630" d="M134.662,350.3H127.48l-5.661-2.968H129Z" transform="translate(-41.013 -116.936)" fill="#8e8e8e"/>
        <path id="Trazado_710631" data-name="Trazado 710631" d="M123.22,344.317h-7.182l-5.661-2.968h7.182Z" transform="translate(-37.161 -114.923)" fill="#8e8e8e"/>
        <path id="Trazado_710632" data-name="Trazado 710632" d="M168.852,361.147H161.67l-5.661-2.968h7.182Z" transform="translate(-52.524 -120.589)" fill="#8e8e8e"/>
        <path id="Trazado_710633" data-name="Trazado 710633" d="M159.17,355.4h-7.182l-5.661-2.968h7.182Z" transform="translate(-49.265 -118.656)" fill="#8e8e8e"/>
        <path id="Trazado_710634" data-name="Trazado 710634" d="M147.729,349.426h-7.182l-5.661-2.968h7.182Z" transform="translate(-45.413 -116.643)" fill="#8e8e8e"/>
        <path id="Trazado_710635" data-name="Trazado 710635" d="M171.215,354.338h-7.182l-5.661-2.968h7.182Z" transform="translate(-53.32 -118.297)" fill="#8e8e8e"/>
        <path id="Trazado_710636" data-name="Trazado 710636" d="M161.533,348.594h-7.182l-5.661-2.968h7.182Z" transform="translate(-50.06 -116.363)" fill="#8e8e8e"/>
        <path id="Trazado_710637" data-name="Trazado 710637" d="M150.092,342.617H142.91l-5.661-2.968h7.182Z" transform="translate(-46.208 -114.351)" fill="#8e8e8e"/>
        <path id="Trazado_710638" data-name="Trazado 710638" d="M211.1,362.556h-7.182l-5.661-2.968h7.182Z" transform="translate(-66.747 -121.064)" fill="#8e8e8e"/>
        <path id="Trazado_710639" data-name="Trazado 710639" d="M199.655,356.579h-7.182l-5.661-2.968h7.182Z" transform="translate(-62.895 -119.051)" fill="#8e8e8e"/>
        <path id="Trazado_710640" data-name="Trazado 710640" d="M189.974,350.835h-7.182l-5.661-2.968h7.182Z" transform="translate(-59.636 -117.118)" fill="#8e8e8e"/>
        <path id="Trazado_710641" data-name="Trazado 710641" d="M178.533,344.858h-7.182l-5.661-2.968h7.182Z" transform="translate(-55.783 -115.105)" fill="#8e8e8e"/>
        <path id="Trazado_710642" data-name="Trazado 710642" d="M224.164,361.687h-7.182l-5.661-2.968H218.5Z" transform="translate(-71.146 -120.771)" fill="#8e8e8e"/>
        <path id="Trazado_710643" data-name="Trazado 710643" d="M214.483,355.944H207.3l-5.661-2.968h7.182Z" transform="translate(-67.887 -118.838)" fill="#8e8e8e"/>
        <path id="Trazado_710644" data-name="Trazado 710644" d="M203.041,349.966h-7.182L190.2,347h7.182Z" transform="translate(-64.035 -116.825)" fill="#8e8e8e"/>
        <path id="Trazado_710645" data-name="Trazado 710645" d="M252.374,389.082h-58.32l-29.777-15.64H222.6Z" transform="translate(-55.308 -125.728)" fill="#d5e0e0"/>
        <path id="Trazado_710646" data-name="Trazado 710646" d="M223.1,391.879H206.126l-8.666-4.552h16.973Z" transform="translate(-66.48 -130.403)" fill="#27c8cc"/>
        <path id="Trazado_710647" data-name="Trazado 710647" d="M233.55,387.72a.671.671,0,0,1-.308-.076l-20.126-10.571a.664.664,0,1,1,.618-1.175l20.125,10.57a.663.663,0,0,1-.308,1.251" transform="translate(-71.631 -126.53)" fill="#b7b7b7"/>
        <path id="Trazado_710648" data-name="Trazado 710648" d="M243.757,387.132a.668.668,0,0,1-.308-.076l-20.126-10.571a.663.663,0,1,1,.617-1.175l20.126,10.57a.663.663,0,0,1-.309,1.251" transform="translate(-75.068 -126.332)" fill="#b7b7b7"/>
        <path id="Trazado_710649" data-name="Trazado 710649" d="M257.635,388.013a.67.67,0,0,1-.308-.076L237.2,377.366a.663.663,0,0,1,.617-1.175l20.126,10.57a.663.663,0,0,1-.309,1.251" transform="translate(-79.74 -126.628)" fill="#b7b7b7"/>
        <path id="Trazado_710650" data-name="Trazado 710650" d="M267.842,387.426a.668.668,0,0,1-.308-.076l-20.126-10.571a.663.663,0,1,1,.617-1.175l20.126,10.57a.663.663,0,0,1-.309,1.251" transform="translate(-83.177 -126.431)" fill="#b7b7b7"/>
        <path id="Trazado_710651" data-name="Trazado 710651" d="M366.275,100.031l11.35-5.91a25.125,25.125,0,1,0-11.541-6.647Z" transform="translate(-120.802 -15.025)" fill="#a6e2e2"/>
        <path id="Trazado_710659" data-name="Trazado 710659" d="M128.9,115.245l-11.808,1.831a23.464,23.464,0,1,1,5.007-11.383Z" transform="translate(-25.38 -26.522)" fill="#fff"/>
        <path id="Trazado_710660" data-name="Trazado 710660" d="M121.7,99.889,99.708,121.876l-11.954-11.96,5.8-5.8,6.158,6.158,16.184-16.184Z" transform="translate(-29.545 -31.678)" fill="#27c8cc"/>
        <path id="Trazado_710661" data-name="Trazado 710661" d="M323.805,180.415l-14.978,16.809L305,207.552l-.783-9.685-1.572-11.8.159-2.182.9-12.331a26.6,26.6,0,0,1-7.184-.245c-8.955-1.592-15.787-8.431-16.643-23.23a58.593,58.593,0,0,1,2.1-20.7c2.209-7.19,5.28-10.275,5.28-10.275s11.2,18.765,26.049,20.842c0,0,2.72-6.414,6.958-4.524s4.245,14.653-2.481,16.324a55.458,55.458,0,0,0,3.721,26.108,25.844,25.844,0,0,0,2.308,4.564" transform="translate(-94.182 -39.424)" fill="#ff9971"/>
        <path id="Trazado_710662" data-name="Trazado 710662" d="M321.043,156.581a6,6,0,1,1-6,6,6,6,0,0,1,6-6" transform="translate(-106.066 -52.716)" fill="#f9785a"/>
        <path id="Trazado_710663" data-name="Trazado 710663" d="M323.1,196.961l-7.947,7.933.471-6.454a38.406,38.406,0,0,0,7.476-1.479" transform="translate(-106.103 -66.311)" fill="#2e303d"/>
        <path id="Trazado_710664" data-name="Trazado 710664" d="M308.244,205.521l-.424,5.877a27.28,27.28,0,0,0-12.557,12.981,17.206,17.206,0,0,1-.146-8.65,47.566,47.566,0,0,1,3.337-9.154,63.7,63.7,0,0,0,3.078-7.754,26.6,26.6,0,0,0,7.184.245Z" transform="translate(-99.197 -66.937)" fill="#2e303d"/>
        <path id="Trazado_710665" data-name="Trazado 710665" d="M291.966,152.821l3.416,14.388s-5.95,1.8-6.733.365,3.317-14.752,3.317-14.752" transform="translate(-97.148 -51.45)" fill="#f9785a"/>
        <path id="Trazado_710666" data-name="Trazado 710666" d="M369.759,175.309c-1.778-7.275-6.1-13.57-11.014-19.1-3.981-4.473-8.406-8.518-12.6-12.784-1.314-2.141-2.544-4.331-3.642-6.6-4.113-8.484-6.268-17.818-10.5-26.235s-11.343-16.264-20.656-17.717c-13.678-2.136-26.732,9.99-40.337,7.436a23.054,23.054,0,0,0,7.489,18.659l.511.16c1.9-6.17,4.419-9.308,5.1-10.078.818,4.073,3.647,7.424,6.446,10.384,3.273,3.46,6.957,6.676,11.431,8.462a18.45,18.45,0,0,0,6.058,1.332,20.749,20.749,0,0,0,2.294.467s2.72-6.415,6.958-4.525,4.245,14.653-2.481,16.325a55.462,55.462,0,0,0,3.721,26.108,25.861,25.861,0,0,0,2.308,4.564,13.22,13.22,0,0,0,2,2.415v.007c.272.252.557.5.862.73,5.831,4.45,14.421,1.784,21.286,4.364,6.355,2.389,10.295,9.075,11.33,15.787s-.312,13.539-1.652,20.2l.119.04c.133-.4.259-.8.385-1.2,8.912-3.154,14.191-12.816,14.614-22.322a36.606,36.606,0,0,0-.025-16.884M296.9,124.3a40.93,40.93,0,0,1-5.175-4.587,41.688,41.688,0,0,1-4.418-5.147,16.272,16.272,0,0,1-2.288-4.545c2.289,3.465,9.736,13.8,19.569,18.033A22.885,22.885,0,0,1,296.9,124.3m72.824,64.557c-.645-9.61-5.295-18.578-10.658-26.623-3.654-5.474-7.695-10.721-11.289-16.224,2.557,2.53,5.155,5.022,7.647,7.608,5.267,5.464,10.254,11.566,12.79,18.823a35.031,35.031,0,0,1,1.51,16.415" transform="translate(-91.22 -31.185)" fill="#2e303d"/>
        <path id="Trazado_710667" data-name="Trazado 710667" d="M287.283,151.107c0,2.071-1.166,3.75-2.6,3.75s-2.6-1.679-2.6-3.75,1.166-3.749,2.6-3.749,2.6,1.678,2.6,3.749" transform="translate(-94.967 -49.611)" fill="#2e303d"/>
        <path id="Trazado_710668" data-name="Trazado 710668" d="M307.635,150.3c0,2.072-1.166,3.75-2.6,3.75s-2.6-1.678-2.6-3.75,1.166-3.75,2.6-3.75,2.6,1.679,2.6,3.75" transform="translate(-101.819 -49.338)" fill="#2e303d"/>
        <path id="Trazado_710669" data-name="Trazado 710669" d="M286.057,139.951a14.286,14.286,0,0,0-3.854.339,1.337,1.337,0,0,0-.927,1.632,1.357,1.357,0,0,0,1.632.927c.312-.07.628-.121.945-.168a13.085,13.085,0,0,1,2.2-.076,1.335,1.335,0,0,0,1.327-1.327,1.357,1.357,0,0,0-1.327-1.327" transform="translate(-94.681 -47.111)" fill="#2e303d"/>
        <path id="Trazado_710670" data-name="Trazado 710670" d="M308.936,141.072a1.553,1.553,0,0,0-.793-.61,10.179,10.179,0,0,0-4.781-.677,1.433,1.433,0,0,0-.938.389,1.326,1.326,0,0,0,.938,2.265,8.142,8.142,0,0,1,4.075.582,1.328,1.328,0,0,0,1.022-.134,1.328,1.328,0,0,0,.477-1.815" transform="translate(-101.688 -47.045)" fill="#2e303d"/>
        <path id="Trazado_710671" data-name="Trazado 710671" d="M309.942,180.306a4.094,4.094,0,1,1-5.5-2.781,4.378,4.378,0,0,1,5.5,2.781" transform="translate(-101.688 -59.679)" fill="#e56b45"/>
        <path id="Trazado_710672" data-name="Trazado 710672" d="M309.522,176.871s1.983,5.671-3.735,7.562c-4.656,1.539-6.613-1.519-7.137-2.567Z" transform="translate(-100.548 -59.547)" fill="#fff"/>
        <path id="Trazado_710673" data-name="Trazado 710673" d="M359,257.281l.119.04c-1.844,5.724-3.94,11.469-6.056,16.888v.007c-6.54,16.742-13.28,30.4-13.485,30.8-6.461-8.922-18.493-14.845-22.4-16.6-.8-.358-1.26-.544-1.26-.544l-2.461,7.376c.206.192.418.385.617.57l-22.308,2.972V289.6s-.551-1.194-1.366-3.091c-1.114-2.587-2.726-6.487-4.073-10.414-1.479-4.312-2.64-8.656-2.5-11.33.371-6.885,15.456-33.438,15.456-33.438a29.646,29.646,0,0,0,.869,6.918,4.48,4.48,0,0,1,.444-1.293c.066.285,2.2,9.094,6.189,15.767l8.491-14.474c.352.909.7,1.924,1.008,3.038,0,0,9.419-15.23,10.892-25.08.272.252.557.5.862.73,5.831,4.451,14.421,1.784,21.286,4.365,6.355,2.388,10.295,9.074,11.33,15.787s-.312,13.538-1.652,20.2" transform="translate(-95.553 -72.789)" fill="#27c8cc"/>
        <path id="Trazado_710674" data-name="Trazado 710674" d="M381.143,303.661l3.973,34.924h-17.9l1.486-2.58c-.325-.524-.677-1.035-1.048-1.539.206-.4,6.945-14.062,13.485-30.8" transform="translate(-123.634 -102.234)" fill="#27c8cc"/>
        <path id="Trazado_710675" data-name="Trazado 710675" d="M354.622,341.4c.371.5.723,1.015,1.048,1.539l-1.486,2.58L346.7,358.552s-2.633-12.384-17.578-26.354c-.2-.186-.411-.378-.617-.57l2.461-7.376s.458.186,1.26.544c3.907,1.758,15.94,7.681,22.4,16.6" transform="translate(-110.598 -109.167)" fill="#0cbcbc"/>
        <path id="Trazado_710676" data-name="Trazado 710676" d="M306.692,362.585s-17.134.305-65.032-2.461c0,0-11.19,7.748-15.734,7.257s-13.525-8.915-15.741-12.417,3.569-8.729,3.569-8.729.06-2.64,3.688-4.179c1.619-.683,6.056-.59,10.487-.279,5.519.4,11.024,1.141,11.024,1.141l13.326-1.778,14.527-1.937,22.308-2.972c14.945,13.97,17.578,26.354,17.578,26.354" transform="translate(-70.594 -113.2)" fill="#ff9971"/>
        <path id="Trazado_710677" data-name="Trazado 710677" d="M340.564,214.965v.007c-1.473,9.85-10.892,25.08-10.892,25.08-.312-1.114-.657-2.129-1.008-3.038-2.275-5.89-5.074-7.655-5.074-7.655l14.978-16.809a13.2,13.2,0,0,0,2,2.414" transform="translate(-108.945 -71.56)" fill="#fff"/>
        <path id="Trazado_710678" data-name="Trazado 710678" d="M323.789,245.546,315.3,260.02c-3.987-6.673-6.123-15.482-6.189-15.767v-.007c1.333-2.693,4.995-5.711,4.995-5.711l.783,9.685,3.827-10.328s2.8,1.764,5.074,7.655" transform="translate(-104.07 -80.091)" fill="#d7f2ed"/>
        <path id="Trazado_710679" data-name="Trazado 710679" d="M304.626,302.111h10.348l.411,21.2h-15.3l-.312-21.2Zm7.111,2.036h-8.318V314.1h8.318Z" transform="translate(-100.925 -101.713)" fill="#fff"/>
        <rect id="Rect치ngulo_347481" data-name="Rect치ngulo 347481" width="8.318" height="9.957" transform="translate(202.493 202.435)" fill="#27c8cc"/>
        <path id="Trazado_710680" data-name="Trazado 710680" d="M311.866,221.071l1.572,11.8s-3.662,3.018-4.995,5.711v.007a4.478,4.478,0,0,0-.444,1.293,29.646,29.646,0,0,1-.869-6.918c-.02-4.066.889-8.975,4.736-11.893" transform="translate(-103.403 -74.428)" fill="#fff"/>
        <path id="Trazado_710681" data-name="Trazado 710681" d="M309.757,297.241l2.554,3.23h-5.22Z" transform="translate(-103.39 -100.073)" fill="#b7b7b7"/>
        <path id="Trazado_710682" data-name="Trazado 710682" d="M289.149,230.762a27.28,27.28,0,0,1,12.557-12.981l-.159,2.182c-3.847,2.919-4.756,7.827-4.736,11.893,0,0-15.084,26.553-15.456,33.438-.139,2.673,1.022,7.018,2.5,11.33l-.9.226-6.474-3.144.206-.418s8.239-29.2,11.555-40.078a20.966,20.966,0,0,1,.909-2.448" transform="translate(-93.084 -73.321)" fill="#27c8cc"/>
        <path id="Trazado_710683" data-name="Trazado 710683" d="M246.285,323.356v9.194l-14.527,1.937-44.212-.092c-7.482,3.217-11.351,3.39-14.244,1.95-1.181.08-5.608.569-6.789.642-.113,1.274-.5,2.408-1.559,2.408-2.395,0-5.068-5.346-5.068-5.346s-.736,5.346-3.138,4.06S155,329.5,155,329.5s-5.439,5.333-6.176,3.323,2.859-11.588,11.8-12.417,29.133,2.766,29.133,2.766l40.045-6.7,15.117,3.794c.816,1.9,1.366,3.091,1.366,3.091" transform="translate(-50.073 -106.547)" fill="#ff9971"/>
        <path id="Trazado_710684" data-name="Trazado 710684" d="M285.961,314.9,270.844,311.1c-.929-7.436,1.539-10.573,1.539-10.573l2.129,1.035,7.376,2.919c1.347,3.927,2.958,7.827,4.073,10.414" transform="translate(-91.116 -101.181)" fill="#0cbcbc"/>
        <path id="Trazado_710685" data-name="Trazado 710685" d="M245.246,321.44a2.226,2.226,0,0,1,.63,2.945c-4.676-.6-5.791-2.733-5.791-2.733a2.835,2.835,0,0,1,1.9-1.459,5.962,5.962,0,0,1,3.264,1.247" transform="translate(-80.831 -107.8)" fill="#ed694f"/>
        <path id="Trazado_710686" data-name="Trazado 710686" d="M244.482,325.127,241.656,330a9.51,9.51,0,0,1-5.711-3l2.746-4.61s1.114,2.129,5.791,2.733" transform="translate(-79.437 -108.541)" fill="#ff9076"/>
        <path id="Trazado_710687" data-name="Trazado 710687" d="M238.5,332.342l-4.4,7.6-7.522-.159,6.215-10.441a9.51,9.51,0,0,0,5.711,3" transform="translate(-76.282 -110.881)" fill="#27c8cc"/>
        <path id="Trazado_710688" data-name="Trazado 710688" d="M346.71,254.82q-2.731,8.6-5.461,17.2l-5.437,17.119-3.082,9.7c-.129.408.511.582.64.176l5.461-17.2,5.437-17.12,3.081-9.7c.129-.408-.511-.582-.639-.176" transform="translate(-112.016 -85.713)" fill="#2e303d"/>
        <path id="Trazado_710689" data-name="Trazado 710689" d="M381.045,305q-5.721,11.376-10.5,23.192-1.346,3.329-2.615,6.69c-.151.4.49.572.639.176q4.472-11.83,9.9-23.269,1.539-3.246,3.153-6.453c.192-.381-.381-.717-.572-.335" transform="translate(-123.865 -102.627)" fill="#2e303d"/>
        <path id="Trazado_710690" data-name="Trazado 710690" d="M298.342,240.077c-3.154,5.848-6.385,11.662-9.448,17.559-2.763,5.32-5.2,11.028-5.181,17.128a18.546,18.546,0,0,0,2.275,9.115.332.332,0,0,0,.573-.334c-2.864-5.043-2.6-11.187-.955-16.579a51.711,51.711,0,0,1,3.546-8.384c1.445-2.824,2.983-5.6,4.489-8.393q2.637-4.888,5.273-9.776c.2-.376-.369-.711-.572-.335" transform="translate(-95.519 -80.772)" fill="#2e303d"/>
        <path id="Trazado_710691" data-name="Trazado 710691" d="M323.186,249.673l-10.752,24.32-2.619,5.926a128.161,128.161,0,0,1-1.693-24.471q.1-3.646.406-7.281c.036-.425-.628-.423-.663,0a128.583,128.583,0,0,0,.44,25.882q.418,3.524,1.029,7.021a.334.334,0,0,0,.038.168.257.257,0,0,0,.2.183.262.262,0,0,0,.361-.145.122.122,0,0,1,.007-.017.344.344,0,0,0,.047-.107l10.7-24.2,3.072-6.948c.171-.387-.4-.725-.572-.335" transform="translate(-103.498 -83.444)" fill="#2e303d"/>
        <path id="Trazado_710692" data-name="Trazado 710692" d="M287.773,340.949l-14.106,1.383c-.421.041-.425.7,0,.663l14.106-1.383c.421-.041.425-.705,0-.663" transform="translate(-92.03 -114.788)" fill="#2e303d"/>
        <path id="Trazado_710693" data-name="Trazado 710693" d="M188.043,339.531a57.117,57.117,0,0,1-12.173,2.452q-.711.063-1.423.108a4.536,4.536,0,0,1-1.207-.009c-.3-.063-.64-.207-.62-.572.026-.453.6-.876.9-1.159a36.116,36.116,0,0,1,4.363-3.534,36.924,36.924,0,0,1,5.522-3.132c.387-.178.05-.75-.335-.573a37.117,37.117,0,0,0-10.175,6.92c-.558.535-1.288,1.328-.753,2.133a2.035,2.035,0,0,0,1.829.618,51.849,51.849,0,0,0,6.7-.767,57.7,57.7,0,0,0,7.545-1.846c.405-.128.232-.769-.176-.639" transform="translate(-57.893 -112.138)" fill="#2e303d"/>
        <path id="Trazado_710694" data-name="Trazado 710694" d="M165.384,338.078a15.914,15.914,0,0,1-.032-8.981.332.332,0,0,0-.639-.176,16.576,16.576,0,0,0,.032,9.334.332.332,0,0,0,.639-.176" transform="translate(-55.234 -110.66)" fill="#2e303d"/>
        <path id="Trazado_710695" data-name="Trazado 710695" d="M160.817,327.666a.34.34,0,0,0-.454.119,13,13,0,0,0-2.449,5.509c-.078.417.561.6.639.176a12.569,12.569,0,0,1,2.382-5.35.333.333,0,0,0-.119-.454" transform="translate(-53.164 -110.301)" fill="#2e303d"/>
        <path id="Trazado_710696" data-name="Trazado 710696" d="M313.46,238.78a66.652,66.652,0,0,0-5.387,6.024c-.262.331.2.8.469.469a66.648,66.648,0,0,1,5.387-6.024.332.332,0,0,0-.469-.469" transform="translate(-103.694 -80.358)" fill="#2e303d"/>
        <path id="Trazado_710697" data-name="Trazado 710697" d="M329.733,247.736a26.86,26.86,0,0,0-5.711-10.232c-.285-.319-.753.151-.469.469a26.1,26.1,0,0,1,5.541,9.939.332.332,0,0,0,.639-.176" transform="translate(-108.903 -79.925)" fill="#2e303d"/>
        <path id="Trazado_710698" data-name="Trazado 710698" d="M318.281,254.132c-.018-.425-.682-.428-.663,0q.188,4.411.377,8.822c.018.425.681.427.663,0q-.189-4.411-.377-8.822" transform="translate(-106.934 -85.451)" fill="#2e303d"/>
        <path id="Trazado_710699" data-name="Trazado 710699" d="M321.394,256.6a.884.884,0,0,0-1.071-.43,1.009,1.009,0,0,0-.318.2c-.011.009-.026.013-.036.025s-.028.05-.045.074a.706.706,0,0,0-.094.114.766.766,0,0,0-.023.076c-.009.022-.013.044-.021.067a.865.865,0,0,0-.047.248c0,.01-.005.018-.005.027s.011.046.013.069a.824.824,0,0,0,.013.162c.005.021.021.038.028.058a.906.906,0,0,0,.054.111.867.867,0,0,0,.1.166c.009.011.013.026.023.036a.733.733,0,0,0,.081.06.859.859,0,0,0,.1.088c.015.009.034.01.049.018a.927.927,0,0,0,.135.048.8.8,0,0,0,.165.049.82.82,0,0,0,.6-.131.931.931,0,0,0,.364-.508.886.886,0,0,0-.063-.631" transform="translate(-107.646 -86.228)" fill="#2e303d"/>
        <path id="Trazado_710700" data-name="Trazado 710700" d="M51.528,328.645l-1.97,16.238,33.929-2.089v6.766l-49.418,5.532-13.4-10.209,15.283-36.171,5.492-13L55.09,299.28l-1.711,14.135Z" transform="translate(-6.959 -99.558)" fill="#8e8e8e"/>
        <path id="Trazado_710701" data-name="Trazado 710701" d="M89.466,160.331,112.4,279.822h-9.837L79.51,160.331Z" transform="translate(-26.769 -53.979)" fill="#8e8e8e"/>
        <path id="Trazado_710702" data-name="Trazado 710702" d="M98.149,359.51,64.22,361.6l1.97-16.238Z" transform="translate(-21.621 -116.274)" fill="#b7b7b7"/>
        <path id="Trazado_710703" data-name="Trazado 710703" d="M52.741,160.331,75.792,279.822,46.419,267.836,48.131,253.7l-13.645-3.569-5.492,13L26.56,262.1,0,160.331Z" transform="translate(0 -53.979)" fill="#b7b7b7"/>
        <path id="Trazado_710704" data-name="Trazado 710704" d="M97.77,253.434q-1.907-11.221-3.916-22.426-2.018-11.26-4.137-22.5-2.108-11.186-4.317-22.353t-4.516-22.313q-.289-1.393-.578-2.786c-.087-.418-.726-.241-.639.176q2.319,11.144,4.541,22.308t4.341,22.347q2.131,11.239,4.162,22.5,2.021,11.2,3.941,22.422t3.74,22.456q.228,1.4.454,2.809c.068.42.707.241.639-.176q-1.808-11.238-3.715-22.46" transform="translate(-26.819 -54.142)" fill="#2e303d"/>
        <path id="Trazado_710705" data-name="Trazado 710705" d="M57.694,300.544q-3.027,10.79-6.3,21.509-3.26,10.679-6.763,21.282-1.982,6-4.04,11.969c-.14.4.5.578.639.176q3.652-10.595,7.062-21.271,3.4-10.636,6.55-21.348,1.784-6.059,3.489-12.141a.332.332,0,0,0-.639-.176" transform="translate(-13.66 -101.106)" fill="#2e303d"/>
        <path id="Trazado_710706" data-name="Trazado 710706" d="M-4.789-13.692a13.05,13.05,0,0,1,.738-4.842,9.934,9.934,0,0,1,2.7-3.55,13.808,13.808,0,0,0,2.614-2.845,4.467,4.467,0,0,0,.651-2.314q0-3.672-3.384-3.672a3.428,3.428,0,0,0-2.571.989A3.887,3.887,0,0,0-5.05-27.2H-11.34A8.367,8.367,0,0,1-8.661-33.69,10.43,10.43,0,0,1-1.47-36.035q4.6,0,7.137,2.226A7.917,7.917,0,0,1,8.2-27.523a7.653,7.653,0,0,1-.824,3.485A14.357,14.357,0,0,1,4.5-20.4L2.738-18.729A5.957,5.957,0,0,0,.851-15.017L.764-13.692Zm-.629,6.649a3.158,3.158,0,0,1,.987-2.389A3.514,3.514,0,0,1-1.9-10.373a3.514,3.514,0,0,1,2.527.941A3.158,3.158,0,0,1,1.61-7.043,3.132,3.132,0,0,1,.645-4.687a3.52,3.52,0,0,1-2.549.93,3.52,3.52,0,0,1-2.549-.93A3.132,3.132,0,0,1-5.418-7.043Z" transform="translate(264.266 75.432)" fill="#00223d"/>
      </g>
    </g>
  </g>
</svg>
