<svg xmlns="http://www.w3.org/2000/svg" xmlns:xlink="http://www.w3.org/1999/xlink" width="281.103" height="263.031" viewBox="0 0 281.103 263.031">
  <defs>
    <clipPath id="clip-path">
      <rect id="Rectángulo_347538" data-name="Rectángulo 347538" width="281.103" height="263.031" fill="none"/>
    </clipPath>
  </defs>
  <g id="Grupo_1013358" data-name="Grupo 1013358" transform="translate(-306 -2071)">
    <g id="Grupo_1013356" data-name="Grupo 1013356" transform="translate(306 2071)">
      <g id="Grupo_1013356-2" data-name="Grupo 1013356" clip-path="url(#clip-path)">
        <path id="Trazado_710707" data-name="Trazado 710707" d="M147.175,270.06A121.986,121.986,0,1,1,269.161,148.074,122.124,122.124,0,0,1,147.175,270.06m0-243.241A121.255,121.255,0,1,0,268.431,148.074,121.393,121.393,0,0,0,147.175,26.819" transform="translate(-6.786 -7.029)" fill="#d0d2d3"/>
        <path id="Trazado_710708" data-name="Trazado 710708" d="M260.232,151.647A109.15,109.15,0,1,1,151.082,42.5a109.15,109.15,0,0,1,109.15,109.15" transform="translate(-11.297 -11.45)" fill="#d0d2d3"/>
        <path id="Trazado_710709" data-name="Trazado 710709" d="M154.423,323.821h-.731V306.068H115.117V287.949H76.541V269.83H38.331V269.1H77.272v18.118h38.575v18.119h38.575Z" transform="translate(-10.327 -72.501)" fill="#fff"/>
        <path id="Trazado_710710" data-name="Trazado 710710" d="M57.913,191.532v22.215H53.968V199.273H15.831v-7.741Z" transform="translate(-4.265 -51.603)" fill="#0d7292"/>
        <path id="Trazado_710711" data-name="Trazado 710711" d="M14.377,202.128H52.513v22.215H22.705l-8.767,8.768v-8.768H10.431V202.128Z" transform="translate(-2.81 -54.458)" fill="#f05f7a"/>
        <rect id="Rectángulo_347483" data-name="Rectángulo 347483" width="27.625" height="0.731" transform="translate(14.845 152.589)" fill="#0d0c0d"/>
        <rect id="Rectángulo_347484" data-name="Rectángulo 347484" width="27.625" height="0.731" transform="translate(14.845 157.685)" fill="#0d0c0d"/>
        <rect id="Rectángulo_347485" data-name="Rectángulo 347485" width="27.625" height="0.731" transform="translate(14.845 162.781)" fill="#0d0c0d"/>
        <path id="Trazado_710712" data-name="Trazado 710712" d="M262.51,12.915l-4.254-3.927H243.8V32.55h40.81V12.915Z" transform="translate(-65.686 -2.421)" fill="#0d7292"/>
        <path id="Trazado_710713" data-name="Trazado 710713" d="M280.986,35.014H239.154L227.911,16.775h41.831Zm-41.424-.731h40.115L269.334,17.506H229.219Z" transform="translate(-61.404 -4.52)" fill="#0d0c0d"/>
        <path id="Trazado_710714" data-name="Trazado 710714" d="M76.4,56.944h-.007L57.915,68.492,39.436,56.944h-.007v-.007a3.72,3.72,0,0,1,2.39-.858H74a3.722,3.722,0,0,1,2.4.858Z" transform="translate(-10.623 -15.109)" fill="#0d7292"/>
        <path id="Trazado_710715" data-name="Trazado 710715" d="M75.893,57.253a3.753,3.753,0,0,1,1.376,2.908V77.455a3.77,3.77,0,0,1-3.774,3.766H41.312a3.768,3.768,0,0,1-3.766-3.766V60.161a3.753,3.753,0,0,1,1.376-2.908v.007h.007L57.408,68.808,75.885,57.26h.007Z" transform="translate(-10.116 -15.425)" fill="#f05f7a"/>
        <path id="Trazado_710716" data-name="Trazado 710716" d="M57.846,69.107,39.174,57.438l.191-.3,0-.37h.1l.1.056L57.846,68.245,76.219,56.763h.1l0,.37.19.3Z" transform="translate(-10.554 -15.293)" fill="#0d0c0d"/>
        <path id="Trazado_710717" data-name="Trazado 710717" d="M296.372,228.818v9.354a9.93,9.93,0,0,1-9.933,9.933h-1.753a9.938,9.938,0,0,1-9.942-9.933v-9.354a9.937,9.937,0,0,1,9.942-9.933h1.753a9.93,9.93,0,0,1,9.933,9.933m-9.442-3.375a1.372,1.372,0,1,0-1.368,1.368,1.371,1.371,0,0,0,1.368-1.368" transform="translate(-74.022 -58.972)" fill="#0d7292"/>
        <path id="Trazado_710718" data-name="Trazado 710718" d="M288.91,228.951a1.737,1.737,0,1,1,1.733-1.733,1.739,1.739,0,0,1-1.733,1.733m0-2.744a1.007,1.007,0,1,0,1,1.011,1.012,1.012,0,0,0-1-1.011" transform="translate(-77.369 -60.748)" fill="#0d0c0d"/>
        <path id="Trazado_710719" data-name="Trazado 710719" d="M125.126,181.778a3.416,3.416,0,1,1-3.419,3.419,3.416,3.416,0,0,1,3.419-3.419" transform="translate(-32.79 -48.975)" fill="#0d7292"/>
        <path id="Trazado_710720" data-name="Trazado 710720" d="M122.606,172.62a10.251,10.251,0,0,1,10.251,10.257c0,5.659-10.251,26.094-10.251,26.094s-10.251-20.435-10.251-26.094a10.255,10.255,0,0,1,10.251-10.257m3.419,10.11a3.419,3.419,0,1,0-3.419,3.413,3.416,3.416,0,0,0,3.419-3.413" transform="translate(-30.271 -46.507)" fill="#f05f7a"/>
        <path id="Trazado_710721" data-name="Trazado 710721" d="M124.991,188.841a3.781,3.781,0,1,1,3.784-3.778,3.786,3.786,0,0,1-3.784,3.778m0-6.832a3.051,3.051,0,1,0,3.054,3.054,3.057,3.057,0,0,0-3.054-3.054" transform="translate(-32.656 -48.84)" fill="#0d0c0d"/>
        <path id="Trazado_710722" data-name="Trazado 710722" d="M202.042,231.026a17.76,17.76,0,1,1-17.76,17.76,17.781,17.781,0,0,1,17.76-17.76" transform="translate(-49.649 -62.243)" fill="#fff"/>
        <path id="Trazado_710723" data-name="Trazado 710723" d="M208.111,253.552a1.3,1.3,0,1,1-1.3,1.3,1.3,1.3,0,0,1,1.3-1.3" transform="translate(-55.718 -68.312)" fill="#231f20"/>
        <path id="Trazado_710724" data-name="Trazado 710724" d="M217.67,247.741a15.684,15.684,0,0,0-14.584-14.584v2.57H201v-2.57a15.684,15.684,0,0,0-14.584,14.584h2.57v2.089h-2.57A15.684,15.684,0,0,0,201,264.414v-2.57h2.089v2.57A15.685,15.685,0,0,0,217.67,249.83H215.1v-2.089Zm-15.629-16.715a17.76,17.76,0,1,1-17.76,17.76,17.781,17.781,0,0,1,17.76-17.76" transform="translate(-49.649 -62.243)" fill="#f05f7a"/>
        <rect id="Rectángulo_347486" data-name="Rectángulo 347486" width="0.731" height="10.321" transform="translate(152.027 174.918)" fill="#0d0c0d"/>
        <rect id="Rectángulo_347487" data-name="Rectángulo 347487" width="5.099" height="0.731" transform="translate(153.694 186.177)" fill="#0d0c0d"/>
        <rect id="Rectángulo_347488" data-name="Rectángulo 347488" width="3.652" height="19.399" transform="matrix(0.707, -0.707, 0.707, 0.707, 256.035, 124.586)" fill="#f05f7a"/>
        <path id="Trazado_710725" data-name="Trazado 710725" d="M338.276,165.7a11.872,11.872,0,1,1,11.872-11.872A11.886,11.886,0,0,1,338.276,165.7m0-20.822a8.95,8.95,0,1,0,8.95,8.95,8.959,8.959,0,0,0-8.95-8.95" transform="translate(-87.94 -38.246)" fill="#0d7292"/>
        <path id="Trazado_710726" data-name="Trazado 710726" d="M339.7,163.269a8.017,8.017,0,1,1,8.017-8.017,8.027,8.027,0,0,1-8.017,8.017m0-15.3a7.287,7.287,0,1,0,7.287,7.287,7.3,7.3,0,0,0-7.287-7.287" transform="translate(-89.362 -39.668)" fill="#0d0c0d"/>
        <path id="Trazado_710727" data-name="Trazado 710727" d="M57.14,258.695A15.538,15.538,0,1,1,41.6,243.157,15.538,15.538,0,0,1,57.14,258.695" transform="translate(-7.022 -65.512)" fill="#0d7292"/>
        <path id="Trazado_710728" data-name="Trazado 710728" d="M45.394,258.57h2.832L46.81,248.318Z" transform="translate(-12.23 -66.902)" fill="#f05f7a"/>
        <path id="Trazado_710729" data-name="Trazado 710729" d="M48.226,266.5H45.394l1.416,10.253Z" transform="translate(-12.23 -71.8)" fill="#fff"/>
        <path id="Trazado_710730" data-name="Trazado 710730" d="M328.817,229.907h33.458V217.479h4.719V249H318.8V217.479h4.72v12.427Z" transform="translate(-85.891 -58.594)" fill="#f05f7a"/>
        <path id="Trazado_710731" data-name="Trazado 710731" d="M358.715,229.907H325.256V217.479h38.759v12.427Z" transform="translate(-87.631 -58.594)" fill="#0d7292"/>
        <path id="Trazado_710732" data-name="Trazado 710732" d="M356.7,215.551h-.731v-4.5H341.857v4.5h-.731v-5.228H356.7Z" transform="translate(-91.907 -56.666)" fill="#0d0c0d"/>
        <rect id="Rectángulo_347489" data-name="Rectángulo 347489" width="0.731" height="4.61" transform="translate(270.718 169.37)" fill="#0d0c0d"/>
        <rect id="Rectángulo_347490" data-name="Rectángulo 347490" width="0.731" height="4.61" transform="translate(242.561 169.37)" fill="#0d0c0d"/>
        <rect id="Rectángulo_347491" data-name="Rectángulo 347491" width="38.759" height="0.731" transform="translate(237.626 181.946)" fill="#0d0c0d"/>
        <path id="Trazado_710733" data-name="Trazado 710733" d="M325.242,158.439H324.15a.365.365,0,1,1,0-.731h1.092a.365.365,0,1,1,0,.731" transform="translate(-87.235 -42.49)" fill="#0d0c0d"/>
        <path id="Trazado_710734" data-name="Trazado 710734" d="M282.347,158.439h-2.156a.365.365,0,1,1,0-.731h2.156a.365.365,0,1,1,0,.731m-4.308,0h-2.153a.365.365,0,1,1,0-.731h2.153a.365.365,0,0,1,0,.731m-4.306,0h-2.152a.365.365,0,1,1,0-.731h2.152a.365.365,0,1,1,0,.731m-4.3,0h-2.152a.365.365,0,0,1,0-.731h2.152a.365.365,0,1,1,0,.731m-4.3,0h-2.151a.365.365,0,1,1,0-.731h2.151a.365.365,0,1,1,0,.731m-4.3,0h-2.152a.365.365,0,1,1,0-.731h2.152a.365.365,0,1,1,0,.731m-4.3,0h-2.151a.365.365,0,0,1,0-.731h2.151a.365.365,0,0,1,0,.731m-4.3,0h-2.15a.365.365,0,1,1,0-.731h2.15a.365.365,0,1,1,0,.731m-4.3,0h-2.151a.365.365,0,0,1,0-.731h2.151a.365.365,0,1,1,0,.731m-4.3,0h-2.152a.365.365,0,0,1,0-.731h2.152a.365.365,0,0,1,0,.731m-4.3,0h-2.151a.365.365,0,0,1,0-.731h2.151a.365.365,0,0,1,0,.731m-4.3,0h-2.151a.365.365,0,0,1,0-.731h2.151a.365.365,0,1,1,0,.731m-4.3,0h-2.151a.365.365,0,0,1,0-.731h2.151a.365.365,0,0,1,0,.731m-4.3,0h-2.151a.365.365,0,0,1,0-.731h2.151a.365.365,0,0,1,0,.731m-4.3,0H219.96a.365.365,0,1,1,0-.731h2.151a.365.365,0,1,1,0,.731m-4.3,0H215.66a.365.365,0,0,1,0-.731h2.152a.365.365,0,1,1,0,.731m-4.293,0h-2.146a.365.365,0,0,1,0-.731h2.146a.365.365,0,0,1,0,.731m-4.291,0h-2.149a.365.365,0,1,1,0-.731h2.149a.365.365,0,0,1,0,.731m-4.3,0h-2.152a.365.365,0,1,1,0-.731h2.152a.365.365,0,1,1,0,.731m-4.306,0h-2.155a.365.365,0,1,1,0-.731h2.155a.365.365,0,1,1,0,.731m-4.313,0h-2.15a.365.365,0,0,1,0-.731h2.15a.365.365,0,1,1,0,.731m-4.3,0h-2.151a.365.365,0,0,1,0-.731h2.151a.365.365,0,0,1,0,.731m-4.3,0h-2.151a.365.365,0,1,1,0-.731h2.151a.365.365,0,1,1,0,.731m-4.3,0h-2.151a.365.365,0,1,1,0-.731h2.151a.365.365,0,1,1,0,.731m-4.3,0h-2.149a.365.365,0,1,1,0-.731h2.149a.365.365,0,0,1,0,.731" transform="translate(-47.578 -42.49)" fill="#0d0c0d"/>
        <path id="Trazado_710735" data-name="Trazado 710735" d="M173.693,158.439h-1.1a.365.365,0,1,1,0-.731h1.1a.365.365,0,1,1,0,.731" transform="translate(-46.403 -42.49)" fill="#0d0c0d"/>
        <path id="Trazado_710736" data-name="Trazado 710736" d="M98.305,191.819a.365.365,0,0,1-.365-.365V157.708h41.2a.365.365,0,1,1,0,.731H98.671v33.016a.365.365,0,0,1-.365.365" transform="translate(-26.387 -42.49)" fill="#0d0c0d"/>
        <rect id="Rectángulo_347492" data-name="Rectángulo 347492" width="6.469" height="5.822" transform="translate(201.373 39.238)" fill="#f05f7a"/>
        <rect id="Rectángulo_347493" data-name="Rectángulo 347493" width="6.469" height="5.822" transform="translate(210.904 39.238)" fill="#0d7292"/>
        <rect id="Rectángulo_347494" data-name="Rectángulo 347494" width="6.469" height="5.822" transform="translate(220.626 39.238)" fill="#d0d2d3"/>
        <rect id="Rectángulo_347495" data-name="Rectángulo 347495" width="6.469" height="5.822" transform="translate(72.725 15.436)" fill="#d0d2d3"/>
        <rect id="Rectángulo_347496" data-name="Rectángulo 347496" width="6.469" height="5.822" transform="translate(160.55 41.204)" fill="#fff"/>
        <rect id="Rectángulo_347497" data-name="Rectángulo 347497" width="6.469" height="5.822" transform="translate(68.684 173.811)" fill="#fff"/>
        <rect id="Rectángulo_347498" data-name="Rectángulo 347498" width="6.469" height="5.822" transform="translate(25.957 67.807)" fill="#d0d2d3"/>
        <path id="Trazado_710737" data-name="Trazado 710737" d="M270.992,153.446l-1.555-.066-.4-37.689-26.834-11.527a192.86,192.86,0,0,0,2.924,28.613c2.806,15.65,5.928,28.02,5.928,28.02a44.154,44.154,0,0,1-7.482,4.268,80.243,80.243,0,0,1-19.023,5.757l-9.722-14.148c.053-12.818-3.9-37.861-3.9-37.861.8-4.426,1.541-8.839,2.226-13.173v-.013c1.081-6.93,1.963-13.635,2.582-19.773l21.789,1.067,40.89,18.456a6.574,6.574,0,0,1,3.978,6.35l-4.163,42.049-.9-.039Z" transform="translate(-56.83 -23.131)" fill="#0d7292"/>
        <path id="Trazado_710738" data-name="Trazado 710738" d="M289.669,186.25c-.592-1.133-1.791-2.556-1.422-3.228.329-.658,2.529-3.386,3.556-4.65l6.349.29-.013.171s.356,5.414-.118,7.43-1.278,3.543-2.121,3.86a17.716,17.716,0,0,1-4.123.013,4.842,4.842,0,0,1-2.081.422c-.672-.132-.158-3.491-.026-4.294Z" transform="translate(-77.641 -48.057)" fill="#0d0c0d"/>
        <path id="Trazado_710739" data-name="Trazado 710739" d="M236.109,289.652l-.013.013-2.754.764L214.149,240.3l-15.413-43.366-38.914,25.886,11.567,50.823-1.515.514-9.156,3.149-.9.3s-22.514-52.351-21.3-59.359c1.028-5.915,27.954-22.725,36.24-27.757a36.336,36.336,0,0,0,17.757,4.466,18.929,18.929,0,0,0,2.582-8.049,39.835,39.835,0,0,0,.211-4.123l9.722,14.148a80.232,80.232,0,0,0,19.022-5.757l6.8,44.144L245.7,286.979l-2.055.579Z" transform="translate(-37.308 -49.248)" fill="#0d7292"/>
        <path id="Trazado_710740" data-name="Trazado 710740" d="M208.008,196.938s2.543-3.113,3.023-9.812l6.84,11.085s14.509-1.64,20.062-3.812l-.5-3.218a80.232,80.232,0,0,1-19.022,5.757l-9.722-14.148a40.042,40.042,0,0,1-.211,4.123,18.936,18.936,0,0,1-2.582,8.049,36.345,36.345,0,0,1-17.757-4.465,40.02,40.02,0,0,0,12.194,5.487c6.356,1.425,7.671.955,7.671.955" transform="translate(-50.69 -49.248)" fill="#0e5c6d"/>
        <path id="Trazado_710741" data-name="Trazado 710741" d="M275.818,326.194l1.581,8.286s-19.089,3.346-19.5,2.095c-.4-1.173,9.2-7.509,10.368-8.273l.013-.013Z" transform="translate(-69.481 -87.884)" fill="#0d0c0d"/>
        <path id="Trazado_710742" data-name="Trazado 710742" d="M209.881,84.058c.738-.316,1.422-.619,1.95-.909l2.134,1.976-5.427,5.6L205.9,87.839l-1.568-1.726s3.082-1.027,5.546-2.055" transform="translate(-55.052 -22.402)" fill="#fff"/>
        <path id="Trazado_710743" data-name="Trazado 710743" d="M208.775,91.452l5.427-5.6c-.62,6.138-1.5,12.844-2.582,19.773L205.219,90l.922-1.436Z" transform="translate(-55.29 -23.131)" fill="#d0d2d3"/>
        <path id="Trazado_710744" data-name="Trazado 710744" d="M170.2,106.522l5.652,13.2s3.952,25.043,3.9,37.861a39.835,39.835,0,0,1-.211,4.123,18.929,18.929,0,0,1-2.582,8.049,36.352,36.352,0,0,1-17.757-4.466,21.845,21.845,0,0,1-2.108-1.278l8.009-9.511-2.306-2.938,2.279-2.081s-8.972-22.908-10.671-35.252L125.348,143.9a6.551,6.551,0,0,1-8.642.672L80.73,115.335l.474-.633,1.975-2.648,2.161-2.9.909-1.212,33.724,22.619L149.3,97.078c3.518-3.293,13.5-7.852,13.5-7.852Z" transform="translate(-21.75 -24.039)" fill="#0d7292"/>
        <path id="Trazado_710745" data-name="Trazado 710745" d="M211.077,107.157v.013c-.685,4.334-1.422,8.747-2.226,13.173l-5.652-13.2v-15.2l.83.606.646-1.014Z" transform="translate(-54.746 -24.661)" fill="#f05f7a"/>
        <path id="Trazado_710746" data-name="Trazado 710746" d="M191.9,72.364c-2.385.422-5.48.883-6.257.579-1.3-.487-2.621-6.547-2.621-6.547a6.584,6.584,0,0,1-2.042.171c-.58-.171,1.383-5.9,1.383-6.389s-.645-1.4-.817-2.055a17.57,17.57,0,0,1,.751-6.574,3.679,3.679,0,0,1-3.043-3s8.313-2.608,11.039-3.267c7.68-1.844,13.793.685,13.858,6.218.039,3.372-1.3,18.416-1.3,18.416a24.641,24.641,0,0,0,.277,3.781c-2.464,1.028-5.547,2.055-5.547,2.055l-2.147.079-2.713-.382Z" transform="translate(-48.295 -12.038)" fill="#0d0c0d"/>
        <path id="Trazado_710747" data-name="Trazado 710747" d="M203.228,87.206l1.568,1.726-.923,1.436-.645,1.014-.83-.606-2.173-1.607.856-1.884Z" transform="translate(-53.945 -23.495)" fill="#f05f7a"/>
        <path id="Trazado_710748" data-name="Trazado 710748" d="M200.469,91.32v15.2l-7.4-17.3,3.952,3.293,1.278-2.806Z" transform="translate(-52.016 -24.039)" fill="#d0d2d3"/>
        <path id="Trazado_710749" data-name="Trazado 710749" d="M198.3,88.955l-1.278,2.806-3.952-3.293,1.475-2.055,1.9.277,2.713.382Z" transform="translate(-52.016 -23.281)" fill="#fff"/>
        <path id="Trazado_710750" data-name="Trazado 710750" d="M174.846,307.856l1.594,8.247s-19.089,3.346-19.5,2.095c-.316-.936,5.691-5.125,8.747-7.193Z" transform="translate(-42.281 -82.943)" fill="#0d0c0d"/>
        <path id="Trazado_710751" data-name="Trazado 710751" d="M145.3,63.008l3.833,19.773-11.961-8.787Z" transform="translate(-36.956 -16.976)" fill="#f05f7a"/>
        <path id="Trazado_710752" data-name="Trazado 710752" d="M141.653,62l-8.128,10.986-9.88-.448,7.022-13.279Z" transform="translate(-33.312 -15.965)" fill="#bc3f61"/>
        <path id="Trazado_710753" data-name="Trazado 710753" d="M124.187,45.066l3.53,10.368L120.7,68.712l-8-7.206c6.758-9.682,11.487-16.44,11.487-16.44" transform="translate(-30.364 -12.142)" fill="#f05f7a"/>
        <path id="Trazado_710754" data-name="Trazado 710754" d="M113.088,43.011l2.16,1.5s-4.729,6.758-11.487,16.44c-6.113,8.76-13.9,19.891-21.354,30.575-.738-.106-1.739-.053-2.516-.145,0-.013,0-.013-.013,0a4.687,4.687,0,0,0-.356-.342c15.9-22.751,33.566-48.03,33.566-48.03" transform="translate(-21.425 -11.588)" fill="#0d7292"/>
        <path id="Trazado_710755" data-name="Trazado 710755" d="M79.48,112.239l-.026.026c-.277.211-2.661,1.976-3.28,1.778-.659-.2,2.793-4.821,2.793-4.821.777.092,1.778.039,2.516.145.474.066.83.185.961.448.3.553,1.107,3.044,1.647,4.73l-2.16,2.9s-1.607-.632-1.976-1.462a17.533,17.533,0,0,1-.474-3.741" transform="translate(-20.5 -29.427)" fill="#0d0c0d"/>
        <path id="Trazado_710756" data-name="Trazado 710756" d="M81.839,118.555,79.863,121.2c-.856-.514-2.687-1.607-4.11-2.648l.712-1.027q1.442-2.056,2.9-4.15l.026-.026a17.522,17.522,0,0,0,.474,3.741c.369.83,1.976,1.463,1.976,1.463" transform="translate(-20.409 -30.539)" fill="#0d0c0d"/>
        <path id="Trazado_710757" data-name="Trazado 710757" d="M77.185,107.984a4.675,4.675,0,0,1,.356.343c.013-.013.013-.013.013,0s-3.451,4.624-2.793,4.821c.62.2,3-1.567,3.28-1.778q-1.462,2.094-2.9,4.15C74.129,115.954,73,114,73,114c-.184.251-.369.514-.54.764-1.133-1.33-1.753-2.608-1.581-3.385a18.411,18.411,0,0,1,2.279-3.451,4.811,4.811,0,0,1,.79-1.963c.422-.422,2.332,1.2,3.241,2.016" transform="translate(-19.087 -28.532)" fill="#0d0c0d"/>
        <path id="Trazado_710758" data-name="Trazado 710758" d="M73.589,116.994s1.133,1.95,2.147,1.515l-.712,1.027a12.093,12.093,0,0,1-1.514-1.265c-.159-.171-.316-.343-.461-.514.171-.251.356-.514.54-.764" transform="translate(-19.681 -31.521)" fill="#0d7292"/>
        <path id="Trazado_710759" data-name="Trazado 710759" d="M66.1,118.554a12.053,12.053,0,0,0,1.515,1.265c-10.921,15.637-19.919,28.507-19.919,28.507l-2.16-1.515s9.09-13,20.1-28.77c.145.171.3.343.461.514" transform="translate(-12.267 -31.802)" fill="#0d7292"/>
        <rect id="Rectángulo_347499" data-name="Rectángulo 347499" width="14.177" height="0.73" transform="matrix(0.866, -0.5, 0.5, 0.866, 92.696, 239.977)" fill="#fff"/>
        <rect id="Rectángulo_347500" data-name="Rectángulo 347500" width="14.178" height="0.73" transform="matrix(0.866, -0.5, 0.5, 0.866, 54.121, 221.859)" fill="#fff"/>
        <rect id="Rectángulo_347501" data-name="Rectángulo 347501" width="33.922" height="0.73" transform="matrix(0.866, -0.5, 0.5, 0.866, 114.174, 249.854)" fill="#fff"/>
        <rect id="Rectángulo_347502" data-name="Rectángulo 347502" width="33.922" height="0.73" transform="matrix(0.866, -0.5, 0.5, 0.866, 75.599, 231.735)" fill="#fff"/>
        <rect id="Rectángulo_347503" data-name="Rectángulo 347503" width="33.922" height="0.73" transform="matrix(0.866, -0.5, 0.5, 0.866, 37.024, 213.616)" fill="#fff"/>
        <path id="Trazado_710760" data-name="Trazado 710760" d="M214.195,117.712l-.675-.281,7.347-17.6-3.821-2.922,3.866-2.316-1.4-8.7.723-.115,1.474,9.189-3.367,2.017,3.413,2.609-.108.26Z" transform="translate(-57.527 -23.109)" fill="#0d0c0d"/>
        <path id="Trazado_710761" data-name="Trazado 710761" d="M201.444,118.492,190.89,103.9l2.736-4.212H189.68l-.794-9.6.728-.06.739,8.931h4.619l-3.2,4.92,10.261,14.189Z" transform="translate(-50.89 -24.254)" fill="#0d0c0d"/>
        <path id="Trazado_710762" data-name="Trazado 710762" d="M100.845,215.14H93.226v-7.619h7.619Zm-6.888-.731h6.158v-6.158H93.957Z" transform="translate(-25.117 -55.911)" fill="#0d0c0d"/>
        <path id="Trazado_710763" data-name="Trazado 710763" d="M100.845,231.934H93.226v-7.619h7.619Zm-6.888-.731h6.158v-6.158H93.957Z" transform="translate(-25.117 -60.435)" fill="#fff"/>
        <path id="Trazado_710764" data-name="Trazado 710764" d="M227.05,288.1h-7.619v-7.619h7.619Zm-6.889-.731h6.158v-6.158h-6.158Z" transform="translate(-59.119 -75.567)" fill="#fff"/>
        <path id="Trazado_710765" data-name="Trazado 710765" d="M241.193,62.377h-7.619V54.758h7.619Zm-6.889-.731h6.158V55.489H234.3Z" transform="translate(-62.93 -14.753)" fill="#fff"/>
        <path id="Trazado_710766" data-name="Trazado 710766" d="M266.639,134.7H259.02v-7.619h7.619Zm-6.888-.731h6.158v-6.158h-6.158Z" transform="translate(-69.785 -34.239)" fill="#fff"/>
        <path id="Trazado_710767" data-name="Trazado 710767" d="M162.239,160.423a3.51,3.51,0,1,1,3.51-3.51,3.514,3.514,0,0,1-3.51,3.51m0-6.289a2.779,2.779,0,1,0,2.779,2.779,2.782,2.782,0,0,0-2.779-2.779" transform="translate(-42.765 -41.33)" fill="#fff"/>
        <path id="Trazado_710768" data-name="Trazado 710768" d="M14.537,183.993a3.51,3.51,0,1,1,3.51-3.51,3.514,3.514,0,0,1-3.51,3.51m0-6.289a2.779,2.779,0,1,0,2.779,2.779,2.782,2.782,0,0,0-2.779-2.779" transform="translate(-2.971 -47.681)" fill="#d0d2d3"/>
        <path id="Trazado_710769" data-name="Trazado 710769" d="M56.838,321.645a3.51,3.51,0,1,1,3.51-3.51,3.514,3.514,0,0,1-3.51,3.51m0-6.289a2.779,2.779,0,1,0,2.779,2.779,2.782,2.782,0,0,0-2.779-2.779" transform="translate(-14.368 -84.767)" fill="#d0d2d3"/>
        <path id="Trazado_710770" data-name="Trazado 710770" d="M366.742,271.815a3.51,3.51,0,1,1,3.51-3.51,3.514,3.514,0,0,1-3.51,3.51m0-6.289a2.779,2.779,0,1,0,2.78,2.779,2.782,2.782,0,0,0-2.78-2.779" transform="translate(-97.862 -71.342)" fill="#d0d2d3"/>
        <path id="Trazado_710771" data-name="Trazado 710771" d="M288.252,85.364a3.51,3.51,0,1,1,3.51-3.51,3.514,3.514,0,0,1-3.51,3.51m0-6.289a2.779,2.779,0,1,0,2.78,2.779,2.782,2.782,0,0,0-2.78-2.779" transform="translate(-76.716 -21.108)" fill="#fff"/>
        <path id="Trazado_710772" data-name="Trazado 710772" d="M336.532,51.2a3.51,3.51,0,1,1,3.51-3.51,3.514,3.514,0,0,1-3.51,3.51m0-6.289a2.779,2.779,0,1,0,2.78,2.779,2.782,2.782,0,0,0-2.78-2.779" transform="translate(-89.723 -11.904)" fill="#d0d2d3"/>
        <path id="Trazado_710773" data-name="Trazado 710773" d="M273.449,206.114a3.51,3.51,0,1,1,3.51-3.509,3.514,3.514,0,0,1-3.51,3.509m0-6.289a2.779,2.779,0,1,0,2.779,2.78,2.783,2.783,0,0,0-2.779-2.78" transform="translate(-72.727 -53.64)" fill="#fff"/>
        <path id="Trazado_710774" data-name="Trazado 710774" d="M272.26,77.135H253.381V60.2h-6.546v-.731h7.277V76.4H272.26Z" transform="translate(-66.503 -16.023)" fill="#fff"/>
        <rect id="Rectángulo_347504" data-name="Rectángulo 347504" width="0.731" height="5.552" transform="translate(91.97 70.718)" fill="#fff"/>
        <rect id="Rectángulo_347505" data-name="Rectángulo 347505" width="5.552" height="0.731" transform="translate(89.559 73.129)" fill="#fff"/>
        <path id="Trazado_710775" data-name="Trazado 710775" d="M36.608,109.045a.365.365,0,0,1-.259-.624l3.926-3.925a.365.365,0,0,1,.517.517l-3.925,3.926a.367.367,0,0,1-.259.107" transform="translate(-9.765 -28.124)" fill="#0d0c0d"/>
        <path id="Trazado_710776" data-name="Trazado 710776" d="M40.534,109.045a.367.367,0,0,1-.259-.107l-3.925-3.926a.365.365,0,0,1,.517-.517l3.926,3.925a.365.365,0,0,1-.259.624" transform="translate(-9.765 -28.124)" fill="#0d0c0d"/>
        <path id="Trazado_710777" data-name="Trazado 710777" d="M77.908,161.441a.366.366,0,0,1-.259-.624l3.927-3.926a.365.365,0,1,1,.517.517l-3.927,3.926a.362.362,0,0,1-.258.107" transform="translate(-20.892 -42.241)" fill="#0d0c0d"/>
        <path id="Trazado_710778" data-name="Trazado 710778" d="M81.834,161.441a.362.362,0,0,1-.258-.107l-3.927-3.926a.365.365,0,0,1,.517-.517l3.927,3.926a.366.366,0,0,1-.259.624" transform="translate(-20.892 -42.241)" fill="#0d0c0d"/>
        <path id="Trazado_710779" data-name="Trazado 710779" d="M39.95,297.263H34.4a.365.365,0,0,1,0-.731H39.95a.365.365,0,0,1,0,.731" transform="translate(-9.169 -79.892)" fill="#0d0c0d"/>
        <path id="Trazado_710780" data-name="Trazado 710780" d="M38.2,299.015a.365.365,0,0,1-.365-.365V293.1a.365.365,0,1,1,.731,0v5.552a.365.365,0,0,1-.365.365" transform="translate(-10.193 -78.868)" fill="#0d0c0d"/>
        <path id="Trazado_710781" data-name="Trazado 710781" d="M343.244,115.079h-5.553a.365.365,0,1,1,0-.731h5.553a.365.365,0,1,1,0,.731" transform="translate(-90.883 -30.808)" fill="#0d0c0d"/>
        <path id="Trazado_710782" data-name="Trazado 710782" d="M341.492,116.831a.365.365,0,0,1-.365-.365v-5.553a.365.365,0,0,1,.731,0v5.553a.365.365,0,0,1-.365.365" transform="translate(-91.907 -29.784)" fill="#0d0c0d"/>
        <path id="Trazado_710783" data-name="Trazado 710783" d="M105.59,37.557h-5.553a.365.365,0,0,1,0-.731h5.553a.365.365,0,0,1,0,.731" transform="translate(-26.854 -9.922)" fill="#0d0c0d"/>
        <path id="Trazado_710784" data-name="Trazado 710784" d="M103.838,39.309a.365.365,0,0,1-.365-.365V33.391a.365.365,0,1,1,.731,0v5.552a.365.365,0,0,1-.365.365" transform="translate(-27.878 -8.898)" fill="#0d0c0d"/>
        <path id="Trazado_710785" data-name="Trazado 710785" d="M351.715,271.07a.365.365,0,0,1-.259-.624l3.927-3.926a.365.365,0,0,1,.517.517l-3.927,3.927a.364.364,0,0,1-.258.107" transform="translate(-94.661 -71.777)" fill="#0d0c0d"/>
        <path id="Trazado_710786" data-name="Trazado 710786" d="M355.641,271.07a.364.364,0,0,1-.258-.107l-3.927-3.927a.365.365,0,0,1,.517-.517l3.927,3.926a.365.365,0,0,1-.259.624" transform="translate(-94.661 -71.777)" fill="#0d0c0d"/>
        <path id="Trazado_710787" data-name="Trazado 710787" d="M125.2,331.595a.365.365,0,0,1-.259-.624l3.926-3.926a.365.365,0,0,1,.517.516l-3.925,3.927a.367.367,0,0,1-.259.107" transform="translate(-33.634 -88.084)" fill="#0d0c0d"/>
        <path id="Trazado_710788" data-name="Trazado 710788" d="M129.129,331.595a.367.367,0,0,1-.259-.107l-3.925-3.927a.365.365,0,0,1,.517-.516l3.926,3.926a.365.365,0,0,1-.259.624" transform="translate(-33.634 -88.084)" fill="#0d0c0d"/>
        <rect id="Rectángulo_347506" data-name="Rectángulo 347506" width="5.552" height="0.73" transform="translate(50.236 118.576) rotate(-45.001)" fill="#fff"/>
        <rect id="Rectángulo_347507" data-name="Rectángulo 347507" width="0.73" height="5.552" transform="translate(50.236 115.167) rotate(-45)" fill="#fff"/>
        <rect id="Rectángulo_347508" data-name="Rectángulo 347508" width="5.552" height="0.73" transform="matrix(0.707, -0.707, 0.707, 0.707, 106.271, 178.427)" fill="#fff"/>
        <rect id="Rectángulo_347509" data-name="Rectángulo 347509" width="0.73" height="5.552" transform="matrix(0.707, -0.707, 0.707, 0.707, 106.271, 175.017)" fill="#fff"/>
        <rect id="Rectángulo_347510" data-name="Rectángulo 347510" width="5.552" height="0.73" transform="matrix(0.707, -0.707, 0.707, 0.707, 214.638, 204.887)" fill="#fff"/>
        <rect id="Rectángulo_347511" data-name="Rectángulo 347511" width="0.73" height="5.552" transform="translate(214.638 201.477) rotate(-45)" fill="#fff"/>
        <rect id="Rectángulo_347512" data-name="Rectángulo 347512" width="5.552" height="0.73" transform="matrix(0.707, -0.707, 0.707, 0.707, 172.233, 57.386)" fill="#fff"/>
        <rect id="Rectángulo_347513" data-name="Rectángulo 347513" width="0.73" height="5.552" transform="matrix(0.707, -0.707, 0.707, 0.707, 172.233, 53.977)" fill="#fff"/>
        <path id="Trazado_710789" data-name="Trazado 710789" d="M168.71,100.828h-2.192a.365.365,0,1,1,0-.731h2.192a.365.365,0,0,1,0,.731m-4.383,0h-2.192a.365.365,0,0,1,0-.731h2.192a.365.365,0,1,1,0,.731m-4.383,0h-2.192a.365.365,0,0,1,0-.731h2.192a.365.365,0,0,1,0,.731m-4.383,0h-2.192a.365.365,0,1,1,0-.731h2.192a.365.365,0,0,1,0,.731m-4.383,0h-2.192a.365.365,0,1,1,0-.731h2.192a.365.365,0,1,1,0,.731m-4.383,0H144.6a.365.365,0,0,1,0-.731h2.192a.365.365,0,1,1,0,.731m-4.383,0h-2.192a.365.365,0,0,1,0-.731h2.192a.365.365,0,0,1,0,.731m-4.383,0h-2.192a.365.365,0,1,1,0-.731h2.192a.365.365,0,0,1,0,.731" transform="translate(-36.498 -26.968)" fill="#fff"/>
        <path id="Trazado_710790" data-name="Trazado 710790" d="M43.705,132.07c-1.307,4.313-5.5,9.582-8.215,10.266a5.932,5.932,0,0,0,.255-.6c.061-.149.1-.307.158-.456a6.711,6.711,0,0,0,.351-1.867,18.68,18.68,0,0,0,5.312-7.978c.4-1.324.658-3.121-.368-4.217-.9-.964-1.5-.868-1.7-.833-1.333.237-2.726,2.472-3.234,3.621v-4.033a5.223,5.223,0,0,1,2.857-1.78,4.019,4.019,0,0,1,3.709,1.5c1.376,1.482,1.674,3.682.877,6.382" transform="translate(-9.562 -33.445)" fill="#f05f7a"/>
        <path id="Trazado_710791" data-name="Trazado 710791" d="M29.608,123.7v15.456c0,.044-.009.088-.009.132a6.659,6.659,0,0,1-.351,1.867c-.053.149-.1.307-.158.456a9.8,9.8,0,0,1-7.6,5.935,10.376,10.376,0,0,1-1.289.088,10.149,10.149,0,0,1-1.289-.088,9.789,9.789,0,0,1-7.6-5.935c-.061-.149-.114-.307-.167-.456a6.633,6.633,0,0,1-.341-1.867c0-.044-.009-.088-.009-.132V123.7Z" transform="translate(-2.908 -33.328)" fill="#0d7292"/>
        <path id="Trazado_710792" data-name="Trazado 710792" d="M18.787,163.675a2.028,2.028,0,0,1-1.5,1.97l-5.865,1.592v.879h17.9v-.879l-5.866-1.592a2.027,2.027,0,0,1-1.5-1.97V156.34a14.058,14.058,0,0,1-3.161,0Z" transform="translate(-3.077 -42.121)" fill="#0d7292"/>
        <path id="Trazado_710793" data-name="Trazado 710793" d="M8.649,142.336C5.94,141.652,1.74,136.383.443,132.07c-.807-2.7-.508-4.9.877-6.382a4.011,4.011,0,0,1,3.708-1.5,5.29,5.29,0,0,1,2.858,1.78V130c-.517-1.148-1.911-3.384-3.244-3.621-.193-.035-.8-.132-1.7.833-1.026,1.1-.763,2.893-.368,4.217a18.772,18.772,0,0,0,5.322,7.978,8.03,8.03,0,0,0,.754,2.928" transform="translate(0 -33.445)" fill="#f05f7a"/>
        <path id="Trazado_710794" data-name="Trazado 710794" d="M23.532,117.9a.365.365,0,0,1-.365-.365V107.076h7.572a.365.365,0,0,1,0,.731H23.9v9.733a.365.365,0,0,1-.365.365" transform="translate(-6.242 -28.849)" fill="#0d0c0d"/>
        <path id="Trazado_710795" data-name="Trazado 710795" d="M289.777,214.911h-.731v-6.482a6.781,6.781,0,0,1,6.773-6.773H326.66v.731H295.819a6.049,6.049,0,0,0-6.043,6.043Z" transform="translate(-77.875 -54.33)" fill="#0d0c0d"/>
        <path id="Trazado_710796" data-name="Trazado 710796" d="M215.513,320.779l-5.927-5.956,1.658-1.658,4.27,4.3,11.369-11.369,1.658,1.658Z" transform="translate(-56.467 -82.468)" fill="#fff"/>
        <path id="Trazado_710797" data-name="Trazado 710797" d="M144.622,23.674a8.9,8.9,0,0,1,2.477-2.788A11.572,11.572,0,0,0,140.236,0c-.439,0-.877.028-1.316.071a11.574,11.574,0,0,0-5.448,20.892,7.94,7.94,0,0,1,2.384,2.71" transform="translate(-34.665 0)" fill="#0d7292"/>
        <path id="Trazado_710798" data-name="Trazado 710798" d="M142.781,29.343a.365.365,0,0,1-.35-.262l-2.769-9.394L143.2,21.8l3.529-2.116-2.761,9.395a.365.365,0,0,1-.7-.206l2.233-7.6-2.3,1.379-2.307-1.38,2.24,7.6a.364.364,0,0,1-.246.453.343.343,0,0,1-.1.015" transform="translate(-37.628 -5.304)" fill="#fff"/>
        <path id="Trazado_710799" data-name="Trazado 710799" d="M147.368,33.132V39.31a.917.917,0,0,1-.916.916h-8.115a.917.917,0,0,1-.915-.916V33.132Zm.731-.731H136.691V39.31a1.646,1.646,0,0,0,1.646,1.647h8.115A1.647,1.647,0,0,0,148.1,39.31Z" transform="translate(-36.827 -8.73)"/>
        <rect id="Rectángulo_347514" data-name="Rectángulo 347514" width="12.401" height="0.731" transform="translate(99.367 25.377)"/>
        <rect id="Rectángulo_347515" data-name="Rectángulo 347515" width="12.401" height="0.731" transform="translate(99.367 26.904)"/>
        <rect id="Rectángulo_347516" data-name="Rectángulo 347516" width="12.401" height="0.731" transform="translate(99.367 28.433)"/>
        <rect id="Rectángulo_347517" data-name="Rectángulo 347517" width="12.401" height="0.731" transform="translate(99.367 29.96)"/>
        <rect id="Rectángulo_347518" data-name="Rectángulo 347518" width="6.347" height="0.731" transform="translate(102.394 32.791)"/>
        <path id="Trazado_710800" data-name="Trazado 710800" d="M330.583,271.67v24.749l-9.749,12.31h-18.6V271.67Z" transform="translate(-81.429 -73.194)" fill="#f05f7a"/>
        <path id="Trazado_710801" data-name="Trazado 710801" d="M327.691,317.855V305.547h9.749Z" transform="translate(-88.287 -82.321)" fill="#0d7292"/>
        <rect id="Rectángulo_347519" data-name="Rectángulo 347519" width="18.289" height="0.731" transform="translate(225.99 204.734)" fill="#0d0c0d"/>
        <rect id="Rectángulo_347520" data-name="Rectángulo 347520" width="18.289" height="0.731" transform="translate(225.99 209.747)" fill="#0d0c0d"/>
        <rect id="Rectángulo_347521" data-name="Rectángulo 347521" width="14.49" height="0.731" transform="translate(225.99 214.76)" fill="#0d0c0d"/>
        <path id="Trazado_710802" data-name="Trazado 710802" d="M121.346,271.864l-8.065-12.1V243.518a.812.812,0,0,0,0-1.625h-6.5a.812.812,0,1,0,0,1.625v16.249l-8.065,12.1a1.625,1.625,0,0,0,1.352,2.526h19.926a1.625,1.625,0,0,0,1.352-2.526" transform="translate(-26.522 -65.171)" fill="#0d7292"/>
        <path id="Trazado_710803" data-name="Trazado 710803" d="M105.155,275.255l-3.837,5.755a.478.478,0,0,0,.4.744h18.137a.478.478,0,0,0,.4-.744l-3.837-5.755Z" transform="translate(-27.275 -74.16)" fill="#fff"/>
        <path id="Trazado_710804" data-name="Trazado 710804" d="M320,92.354a9.219,9.219,0,0,0-1.154-3.944l1.144-.637a10.583,10.583,0,0,0-2.209-2.754l-.871.98a9.209,9.209,0,0,0-3.6-1.981l.357-1.254-.016,0a10.557,10.557,0,0,0-2.876-.4q-.31,0-.618.018l.077,1.307a9.239,9.239,0,0,0-3.944,1.151l-.637-1.144A10.575,10.575,0,0,0,302.9,85.9l.979.872a9.207,9.207,0,0,0-1.983,3.6l-1.254-.358-.007.024a10.528,10.528,0,0,0-.4,2.876c0,.2.006.408.018.61l1.307-.076a9.235,9.235,0,0,0,1.148,3.945l-1.145.636a10.577,10.577,0,0,0,2.2,2.757l.872-.978a9.205,9.205,0,0,0,3.6,1.985l-.359,1.254.033.009a10.556,10.556,0,0,0,2.876.4q.319,0,.636-.02l-.08-1.306a9.228,9.228,0,0,0,3.942-1.159l.639,1.143a10.579,10.579,0,0,0,2.752-2.211l-.98-.87a9.2,9.2,0,0,0,1.977-3.6l1.254.357,0-.009a10.517,10.517,0,0,0,.4-2.876q0-.316-.018-.628ZM308.491,101h0l.064-.228Zm7.667-6.573a5.582,5.582,0,1,1,.213-1.525,5.591,5.591,0,0,1-.213,1.525" transform="translate(-80.889 -22.19)" fill="#0d7292"/>
        <path id="Trazado_710805" data-name="Trazado 710805" d="M350.037,84.446Z" transform="translate(-94.307 -22.752)" fill="#221f1f"/>
        <path id="Trazado_710806" data-name="Trazado 710806" d="M343.834,88.372l-.871.17a6.547,6.547,0,0,0-.7-1.921l.774-.429a7.433,7.433,0,0,0-2.336-2.556l-.494.731a6.551,6.551,0,0,0-1.851-.87l.243-.843-.039-.011a7.382,7.382,0,0,0-3.422-.149l.167.87a6.548,6.548,0,0,0-1.923.693l-.427-.774A7.429,7.429,0,0,0,330.4,85.61l.728.5a6.567,6.567,0,0,0-.872,1.85l-.844-.245-.017.058a7.4,7.4,0,0,0-.153,3.4l.87-.165a6.55,6.55,0,0,0,.687,1.925l-.774.424a7.436,7.436,0,0,0,2.322,2.569l.5-.726a6.531,6.531,0,0,0,1.849.875l-.249.845.077.023a7.417,7.417,0,0,0,3.461.142l-.172-.872a6.561,6.561,0,0,0,1.919-.7l.431.774a7.443,7.443,0,0,0,2.55-2.343l-.734-.492a6.564,6.564,0,0,0,.868-1.853l.842.24.005-.019a7.444,7.444,0,0,0,.283-2.026,7.355,7.355,0,0,0-.137-1.416m-7.291,5.842a4.427,4.427,0,1,1,4.252-3.219,4.445,4.445,0,0,1-4.252,3.219" transform="translate(-88.669 -22.189)" fill="#f05f7a"/>
        <path id="Trazado_710807" data-name="Trazado 710807" d="M201.506,30.438l1.6-2.766h6.138a5.316,5.316,0,0,0-9.419.637H177.638a5.316,5.316,0,0,0-9.419-.637h6.138l1.6,2.766-1.6,2.766h-6.138a5.316,5.316,0,0,0,9.419-.637h22.185a5.316,5.316,0,0,0,9.419.637H203.1Z" transform="translate(-45.322 -6.767)" fill="#f05f7a"/>
        <path id="Trazado_710808" data-name="Trazado 710808" d="M130.478,128.585,139.153,119h-10.09l8.676-9.583Z" transform="translate(-34.772 -29.48)" fill="#fff"/>
        <path id="Trazado_710809" data-name="Trazado 710809" d="M70.262,41.283,78.937,31.7H68.847l8.676-9.583Z" transform="translate(-18.549 -5.959)" fill="#d0d2d3"/>
        <path id="Trazado_710810" data-name="Trazado 710810" d="M47.2,295.785a.365.365,0,0,1-.365-.365v-1.1a.365.365,0,1,1,.731,0v1.1a.365.365,0,0,1-.365.365" transform="translate(-12.618 -79.199)" fill="#0d0c0d"/>
        <path id="Trazado_710811" data-name="Trazado 710811" d="M47.2,318.685a.365.365,0,0,1-.365-.365v-2.17a.365.365,0,1,1,.731,0v2.17a.365.365,0,0,1-.365.365m0-4.34a.365.365,0,0,1-.365-.365v-2.169a.365.365,0,1,1,.731,0v2.169a.365.365,0,0,1-.365.365m0-4.338a.365.365,0,0,1-.365-.365v-2.17a.365.365,0,1,1,.731,0v2.17a.365.365,0,0,1-.365.365m0-4.34a.365.365,0,0,1-.365-.365v-2.169a.365.365,0,1,1,.731,0V305.3a.365.365,0,0,1-.365.365m0-4.339a.365.365,0,0,1-.365-.365v-2.17a.365.365,0,0,1,.731,0v2.17a.365.365,0,0,1-.365.365" transform="translate(-12.618 -80.403)" fill="#0d0c0d"/>
        <path id="Trazado_710812" data-name="Trazado 710812" d="M48.293,329.951H46.832V328.49a.365.365,0,1,1,.731,0v.731h.731a.365.365,0,1,1,0,.731" transform="translate(-12.618 -88.404)" fill="#0d0c0d"/>
        <path id="Trazado_710813" data-name="Trazado 710813" d="M99.411,330.356H97.144a.365.365,0,0,1,0-.731h2.267a.365.365,0,0,1,0,.731m-4.534,0H92.61a.365.365,0,0,1,0-.731h2.267a.365.365,0,0,1,0,.731m-4.535,0H88.075a.365.365,0,0,1,0-.731h2.267a.365.365,0,0,1,0,.731m-4.534,0H83.541a.365.365,0,0,1,0-.731h2.267a.365.365,0,0,1,0,.731m-4.535,0H79.006a.365.365,0,0,1,0-.731h2.267a.365.365,0,0,1,0,.731m-4.534,0H74.472a.365.365,0,0,1,0-.731h2.267a.365.365,0,0,1,0,.731m-4.535,0H69.938a.365.365,0,0,1,0-.731H72.2a.365.365,0,0,1,0,.731m-4.534,0H65.4a.365.365,0,0,1,0-.731h2.267a.365.365,0,0,1,0,.731m-4.535,0H60.869a.365.365,0,0,1,0-.731h2.267a.365.365,0,0,1,0,.731m-4.535,0H56.335a.365.365,0,0,1,0-.731H58.6a.365.365,0,0,1,0,.731m-4.534,0H51.8a.365.365,0,0,1,0-.731h2.267a.365.365,0,0,1,0,.731" transform="translate(-13.858 -88.808)" fill="#0d0c0d"/>
        <path id="Trazado_710814" data-name="Trazado 710814" d="M121.168,330.356h-1.1a.365.365,0,1,1,0-.731h1.1a.365.365,0,0,1,0,.731" transform="translate(-32.252 -88.808)" fill="#0d0c0d"/>
        <path id="Trazado_710815" data-name="Trazado 710815" d="M49.317,328.965a3.144,3.144,0,1,1-3.144-3.144,3.144,3.144,0,0,1,3.144,3.144" transform="translate(-11.593 -87.783)" fill="#d0d2d3"/>
        <path id="Trazado_710816" data-name="Trazado 710816" d="M60.508,41.707a.365.365,0,0,1-.365-.365V15.7H100.9a.365.365,0,0,1,0,.731H60.874V41.342a.365.365,0,0,1-.365.365" transform="translate(-16.204 -4.23)" fill="#0d0c0d"/>
        <path id="Trazado_710817" data-name="Trazado 710817" d="M118.942,18.417a3.51,3.51,0,1,1,3.51-3.51,3.514,3.514,0,0,1-3.51,3.51m0-6.289a2.779,2.779,0,1,0,2.779,2.779,2.783,2.783,0,0,0-2.779-2.779" transform="translate(-31.1 -3.071)" fill="#d0d2d3"/>
        <path id="Trazado_710818" data-name="Trazado 710818" d="M62.628,15.042A3.144,3.144,0,1,1,59.483,11.9a3.144,3.144,0,0,1,3.144,3.144" transform="translate(-15.179 -3.206)" fill="#d0d2d3"/>
        <path id="Trazado_710819" data-name="Trazado 710819" d="M351.932,48.364a.365.365,0,0,1-.365-.365V26.819H308.63a.365.365,0,1,1,0-.731H352.3V48a.365.365,0,0,1-.365.365" transform="translate(-83.053 -7.029)" fill="#0d0c0d"/>
        <path id="Trazado_710820" data-name="Trazado 710820" d="M355.5,92.762h-1.1a.365.365,0,1,1,0-.731h1.1a.365.365,0,0,1,0,.731" transform="translate(-95.385 -24.795)" fill="#0d0c0d"/>
        <path id="Trazado_710821" data-name="Trazado 710821" d="M361.958,92.762H359.4a.365.365,0,1,1,0-.731h2.557a.365.365,0,1,1,0,.731" transform="translate(-96.732 -24.795)" fill="#0d0c0d"/>
        <path id="Trazado_710822" data-name="Trazado 710822" d="M367.862,92.357H366.4a.365.365,0,1,1,0-.731h.731V90.9a.365.365,0,0,1,.731,0Z" transform="translate(-98.618 -24.391)" fill="#0d0c0d"/>
        <path id="Trazado_710823" data-name="Trazado 710823" d="M367.9,80.847a.365.365,0,0,1-.365-.365V78.26a.365.365,0,0,1,.731,0v2.222a.365.365,0,0,1-.365.365m0-4.443a.365.365,0,0,1-.365-.365V73.815a.365.365,0,0,1,.731,0v2.222a.365.365,0,0,1-.365.365m0-4.444a.365.365,0,0,1-.365-.365V69.372a.365.365,0,0,1,.731,0v2.222a.365.365,0,0,1-.365.365m0-4.443a.365.365,0,0,1-.365-.365V64.929a.365.365,0,0,1,.731,0V67.15a.365.365,0,0,1-.365.365m0-4.443a.365.365,0,0,1-.365-.365V60.485a.365.365,0,0,1,.731,0v2.222a.365.365,0,0,1-.365.365" transform="translate(-99.022 -16.198)" fill="#0d0c0d"/>
        <path id="Trazado_710824" data-name="Trazado 710824" d="M367.9,57.405a.365.365,0,0,1-.365-.365v-1.1a.365.365,0,0,1,.731,0v1.1a.365.365,0,0,1-.365.365" transform="translate(-99.022 -14.974)" fill="#0d0c0d"/>
        <path id="Trazado_710825" data-name="Trazado 710825" d="M370.022,54.919a3.144,3.144,0,1,1-3.144-3.144,3.144,3.144,0,0,1,3.144,3.144" transform="translate(-97.997 -13.949)" fill="#d0d2d3"/>
        <path id="Trazado_710826" data-name="Trazado 710826" d="M378.174,314.952a.365.365,0,0,1-.365-.365v-1.1a.365.365,0,0,1,.731,0v1.1a.365.365,0,0,1-.365.365" transform="translate(-101.79 -84.363)" fill="#0d0c0d"/>
        <path id="Trazado_710827" data-name="Trazado 710827" d="M378.174,300.466a.365.365,0,0,1-.365-.365v-2.173a.365.365,0,0,1,.731,0V300.1a.365.365,0,0,1-.365.365m0-4.346a.365.365,0,0,1-.365-.365v-2.172a.365.365,0,1,1,.731,0v2.172a.365.365,0,0,1-.365.365m0-4.345a.365.365,0,0,1-.365-.365v-2.173a.365.365,0,1,1,.731,0v2.173a.365.365,0,0,1-.365.365m0-4.345a.365.365,0,0,1-.365-.365v-2.173a.365.365,0,0,1,.731,0v2.173a.365.365,0,0,1-.365.365m0-4.346a.365.365,0,0,1-.365-.365v-2.172a.365.365,0,1,1,.731,0v2.172a.365.365,0,0,1-.365.365m0-4.345a.365.365,0,0,1-.365-.365V276.2a.365.365,0,0,1,.731,0v2.173a.365.365,0,0,1-.365.365m0-4.345a.365.365,0,0,1-.365-.365v-2.173a.365.365,0,0,1,.731,0v2.173a.365.365,0,0,1-.365.365" transform="translate(-101.79 -73.145)" fill="#0d0c0d"/>
        <path id="Trazado_710828" data-name="Trazado 710828" d="M378.174,268.842a.365.365,0,0,1-.365-.365v-1.1a.365.365,0,1,1,.731,0v1.1a.365.365,0,0,1-.365.365" transform="translate(-101.79 -71.94)" fill="#0d0c0d"/>
        <path id="Trazado_710829" data-name="Trazado 710829" d="M341.7,315.357h-1.1a.365.365,0,1,1,0-.731h1.1a.365.365,0,0,1,0,.731" transform="translate(-91.667 -84.767)" fill="#0d0c0d"/>
        <path id="Trazado_710830" data-name="Trazado 710830" d="M365.909,315.357h-2.3a.365.365,0,0,1,0-.731h2.3a.365.365,0,0,1,0,.731m-4.592,0h-2.3a.365.365,0,1,1,0-.731h2.3a.365.365,0,1,1,0,.731m-4.592,0h-2.3a.365.365,0,0,1,0-.731h2.3a.365.365,0,0,1,0,.731m-4.592,0h-2.3a.365.365,0,1,1,0-.731h2.3a.365.365,0,1,1,0,.731m-4.592,0h-2.3a.365.365,0,0,1,0-.731h2.3a.365.365,0,0,1,0,.731" transform="translate(-92.918 -84.767)" fill="#0d0c0d"/>
        <path id="Trazado_710831" data-name="Trazado 710831" d="M377.77,315.357h-1.1a.365.365,0,1,1,0-.731h1.1a.365.365,0,1,1,0,.731" transform="translate(-101.386 -84.767)" fill="#0d0c0d"/>
        <path id="Trazado_710832" data-name="Trazado 710832" d="M380.294,313.965a3.144,3.144,0,1,1-3.144-3.144,3.144,3.144,0,0,1,3.144,3.144" transform="translate(-100.765 -83.742)" fill="#d0d2d3"/>
        <rect id="Rectángulo_347522" data-name="Rectángulo 347522" width="0.731" height="25.56" transform="translate(200.357 117.852)" fill="#fff"/>
        <path id="Trazado_710833" data-name="Trazado 710833" d="M289.449,271.361h-5.356V251.7h.731v18.93h4.625Z" transform="translate(-76.541 -67.813)" fill="#fff"/>
        <path id="Trazado_710834" data-name="Trazado 710834" d="M148.732,216.154H148V187.179h10.982V167.1h.731v20.811H148.732Z" transform="translate(-39.875 -45.02)" fill="#fff"/>
        <path id="Trazado_710835" data-name="Trazado 710835" d="M306.306,151.458a.365.365,0,0,1-.365-.365V132.528H272.8a.365.365,0,1,1,0-.731h33.87v19.3a.365.365,0,0,1-.365.365" transform="translate(-73.4 -35.509)" fill="#0d0c0d"/>
        <rect id="Rectángulo_347523" data-name="Rectángulo 347523" width="16.305" height="0.731" transform="translate(234.031 131.908)" fill="#fff"/>
        <rect id="Rectángulo_347524" data-name="Rectángulo 347524" width="16.305" height="0.731" transform="translate(234.031 134.879)" fill="#fff"/>
        <rect id="Rectángulo_347525" data-name="Rectángulo 347525" width="16.305" height="0.731" transform="translate(234.031 137.85)" fill="#fff"/>
        <rect id="Rectángulo_347526" data-name="Rectángulo 347526" width="16.305" height="0.731" transform="translate(234.031 140.821)" fill="#fff"/>
        <rect id="Rectángulo_347527" data-name="Rectángulo 347527" width="16.304" height="0.731" transform="translate(67.808 72.547)" fill="#fff"/>
        <rect id="Rectángulo_347528" data-name="Rectángulo 347528" width="16.304" height="0.731" transform="translate(67.808 75.518)" fill="#fff"/>
        <rect id="Rectángulo_347529" data-name="Rectángulo 347529" width="16.304" height="0.731" transform="translate(67.808 78.488)" fill="#fff"/>
        <rect id="Rectángulo_347530" data-name="Rectángulo 347530" width="9.146" height="0.731" transform="translate(67.808 81.46)" fill="#fff"/>
        <rect id="Rectángulo_347531" data-name="Rectángulo 347531" width="23.265" height="0.731" transform="translate(29.192 133.394)" fill="#fff"/>
        <rect id="Rectángulo_347532" data-name="Rectángulo 347532" width="23.265" height="0.731" transform="translate(29.192 136.365)" fill="#fff"/>
        <rect id="Rectángulo_347533" data-name="Rectángulo 347533" width="0.731" height="23.265" transform="translate(179.485 221.736)" fill="#fff"/>
        <rect id="Rectángulo_347534" data-name="Rectángulo 347534" width="0.731" height="23.265" transform="translate(182.455 221.736)" fill="#fff"/>
        <rect id="Rectángulo_347535" data-name="Rectángulo 347535" width="31.257" height="0.731" transform="translate(136.764 216.64)" fill="#fff"/>
        <path id="Trazado_710836" data-name="Trazado 710836" d="M27.832,138.057h-13.2v-7.619h13.2Zm-12.468-.731H27.1v-6.158H15.364Z" transform="translate(-3.942 -35.143)" fill="#0d0c0d"/>
        <path id="Trazado_710837" data-name="Trazado 710837" d="M57.593,37.557H56.5a.365.365,0,1,1,0-.731h1.1a.365.365,0,1,1,0,.731" transform="translate(-15.123 -9.922)" fill="#0d0c0d"/>
        <path id="Trazado_710838" data-name="Trazado 710838" d="M48.608,37.557h-2a.365.365,0,0,1,0-.731h2a.365.365,0,0,1,0,.731m-3.993,0h-2a.365.365,0,0,1,0-.731h2a.365.365,0,0,1,0,.731m-3.994,0h-2a.365.365,0,1,1,0-.731h2a.365.365,0,0,1,0,.731m-3.994,0h-2a.365.365,0,1,1,0-.731h2a.365.365,0,0,1,0,.731" transform="translate(-9.232 -9.922)" fill="#0d0c0d"/>
        <path id="Trazado_710839" data-name="Trazado 710839" d="M30.4,38.652a.365.365,0,0,1-.365-.365V36.826h1.461a.365.365,0,0,1,0,.731h-.731v.731a.365.365,0,0,1-.365.365" transform="translate(-8.091 -9.922)" fill="#0d0c0d"/>
        <path id="Trazado_710840" data-name="Trazado 710840" d="M30.4,84.459a.365.365,0,0,1-.365-.365V81.864a.365.365,0,0,1,.731,0v2.229a.365.365,0,0,1-.365.365M30.4,80a.365.365,0,0,1-.365-.365V77.406a.365.365,0,1,1,.731,0v2.229A.365.365,0,0,1,30.4,80m0-4.458a.365.365,0,0,1-.365-.365V72.949a.365.365,0,0,1,.731,0v2.228a.365.365,0,0,1-.365.365m0-4.458a.365.365,0,0,1-.365-.365V68.491a.365.365,0,0,1,.731,0v2.228a.365.365,0,0,1-.365.365m0-4.458a.365.365,0,0,1-.365-.365V64.033a.365.365,0,0,1,.731,0v2.228a.365.365,0,0,1-.365.365m0-4.458a.365.365,0,0,1-.365-.365V59.574a.365.365,0,1,1,.731,0V61.8a.365.365,0,0,1-.365.365m0-4.458a.365.365,0,0,1-.365-.365V55.116a.365.365,0,0,1,.731,0v2.229a.365.365,0,0,1-.365.365m0-4.458a.365.365,0,0,1-.365-.365V50.658a.365.365,0,1,1,.731,0v2.229a.365.365,0,0,1-.365.365m0-4.458a.365.365,0,0,1-.365-.365V46.2a.365.365,0,1,1,.731,0v2.229a.365.365,0,0,1-.365.365m0-4.458a.365.365,0,0,1-.365-.365V41.742a.365.365,0,0,1,.731,0v2.229a.365.365,0,0,1-.365.365" transform="translate(-8.091 -11.148)" fill="#0d0c0d"/>
        <path id="Trazado_710841" data-name="Trazado 710841" d="M30.4,104.223a.365.365,0,0,1-.365-.365v-1.1a.365.365,0,1,1,.731,0v1.1a.365.365,0,0,1-.365.365" transform="translate(-8.091 -27.588)" fill="#0d0c0d"/>
        <path id="Trazado_710842" data-name="Trazado 710842" d="M364.694,158.439h-1.1a.365.365,0,1,1,0-.731h1.1a.365.365,0,1,1,0,.731" transform="translate(-97.863 -42.49)" fill="#0d0c0d"/>
        <path id="Trazado_710843" data-name="Trazado 710843" d="M371.775,158.439h-2.819a.365.365,0,1,1,0-.731h2.819a.365.365,0,1,1,0,.731" transform="translate(-99.306 -42.49)" fill="#0d0c0d"/>
        <path id="Trazado_710844" data-name="Trazado 710844" d="M377.77,159.534a.365.365,0,0,1-.365-.365v-.731h-.731a.365.365,0,1,1,0-.731h1.461v1.461a.365.365,0,0,1-.365.365" transform="translate(-101.386 -42.49)" fill="#0d0c0d"/>
        <path id="Trazado_710845" data-name="Trazado 710845" d="M378.174,196.186a.365.365,0,0,1-.365-.365v-2.214a.365.365,0,1,1,.731,0v2.214a.365.365,0,0,1-.365.365m0-4.428a.365.365,0,0,1-.365-.365v-2.215a.365.365,0,0,1,.731,0v2.215a.365.365,0,0,1-.365.365m0-4.43a.365.365,0,0,1-.365-.365v-2.214a.365.365,0,1,1,.731,0v2.214a.365.365,0,0,1-.365.365m0-4.429a.365.365,0,0,1-.365-.365V180.32a.365.365,0,0,1,.731,0v2.214a.365.365,0,0,1-.365.365m0-4.429a.365.365,0,0,1-.365-.365v-2.214a.365.365,0,0,1,.731,0v2.214a.365.365,0,0,1-.365.365m0-4.429a.365.365,0,0,1-.365-.365v-2.214a.365.365,0,1,1,.731,0v2.214a.365.365,0,0,1-.365.365m0-4.429a.365.365,0,0,1-.365-.365v-2.214a.365.365,0,0,1,.731,0v2.214a.365.365,0,0,1-.365.365m0-4.429a.365.365,0,0,1-.365-.365v-2.214a.365.365,0,1,1,.731,0v2.214a.365.365,0,0,1-.365.365" transform="translate(-101.79 -43.711)" fill="#0d0c0d"/>
        <path id="Trazado_710846" data-name="Trazado 710846" d="M378.174,212.562a.365.365,0,0,1-.365-.365v-1.1a.365.365,0,1,1,.731,0v1.1a.365.365,0,0,1-.365.365" transform="translate(-101.79 -56.777)" fill="#0d0c0d"/>
        <path id="Trazado_710847" data-name="Trazado 710847" d="M361.8,143.612a.365.365,0,0,1-.365-.365V115.079H349.316a.365.365,0,1,1,0-.731h12.847v28.9a.365.365,0,0,1-.365.365" transform="translate(-94.015 -30.808)" fill="#0d0c0d"/>
        <rect id="Rectángulo_347536" data-name="Rectángulo 347536" width="0.731" height="23.118" transform="translate(268.514 200.108)" fill="#d0d2d3"/>
        <rect id="Rectángulo_347537" data-name="Rectángulo 347537" width="15.6" height="0.731" transform="translate(45.614 233.003)" fill="#d0d2d3"/>
        <path id="Trazado_710848" data-name="Trazado 710848" d="M338.659,50.547H315.646v-.731h22.283v-20h.731Z" transform="translate(-85.042 -8.033)" fill="#d0d2d3"/>
      </g>
    </g>
  </g>
</svg>
