<svg xmlns="http://www.w3.org/2000/svg" width="515.384" height="279.356" viewBox="0 0 515.384 279.356">
  <g id="Grupo_1013395" data-name="Grupo 1013395" transform="translate(-542 -6522.292)">
    <g id="Group_8_2_" data-name="Group 8 (2)" transform="translate(-77.616 6215)">
      <path id="Trazado_115054" data-name="Trazado 115054" d="M836.432,372.835c-54.541.332-69.118,53.837-39.533,83.923C837.819,498.371,950.179,372.141,836.432,372.835Z" transform="translate(-101.429 -45.581)" fill="#dff4f5"/>
      <path id="Trazado_115055" data-name="Trazado 115055" d="M868.65,441.024a5.848,5.848,0,1,1,5.847-5.848A5.854,5.854,0,0,1,868.65,441.024Zm0-11.312a5.465,5.465,0,1,0,5.465,5.464A5.471,5.471,0,0,0,868.65,429.712Z" transform="translate(-126.337 -62.97)" fill="#b3ddff"/>
      <path id="Trazado_115056" data-name="Trazado 115056" d="M868.114,439.372l-1.022-1.022,1.857-1.856-1.857-1.857,1.022-1.022,1.857,1.857,1.857-1.857,1.022,1.022-1.857,1.857,1.857,1.856-1.022,1.022-1.857-1.857Zm1.857-2.4,1.857,1.856.479-.479-1.857-1.856,1.857-1.857-.479-.479-1.857,1.856-1.857-1.856-.479.479,1.857,1.857-1.857,1.856.479.479Z" transform="translate(-127.657 -64.289)" fill="#b3ddff"/>
      <path id="Trazado_115057" data-name="Trazado 115057" d="M1166.574,355.99a.5.5,0,0,1-.3-.1l-3.191-2.316a.121.121,0,0,0-.146,0l-3.191,2.316a.513.513,0,0,1-.789-.572l1.225-3.75a.124.124,0,0,0-.048-.141l-3.191-2.316a.51.51,0,0,1,.3-.923h3.946a.119.119,0,0,0,.118-.087l1.218-3.749a.509.509,0,0,1,.969,0l1.218,3.749a.119.119,0,0,0,.118.087h3.946a.511.511,0,0,1,.3.926l-3.191,2.315a.138.138,0,0,0-.048.141l1.218,3.75a.514.514,0,0,1-.485.67Zm-9.324-7.418a.127.127,0,0,0-.125.087.122.122,0,0,0,.048.141l3.191,2.316a.509.509,0,0,1,.187.572l-1.225,3.749a.13.13,0,0,0,.2.141l3.184-2.316a.509.509,0,0,1,.6,0l3.191,2.316a.117.117,0,0,0,.146,0,.112.112,0,0,0,.048-.141l-1.218-3.749a.521.521,0,0,1,.187-.572l3.191-2.316a.122.122,0,0,0,.048-.141.132.132,0,0,0-.125-.087h-3.939a.507.507,0,0,1-.485-.353l-1.218-3.75a.12.12,0,0,0-.118-.087.127.127,0,0,0-.125.087l-1.218,3.75a.5.5,0,0,1-.485.353h-3.946Z" transform="translate(-216.801 -36.708)" fill="#b3ddff"/>
      <path id="Trazado_115058" data-name="Trazado 115058" d="M907.965,429.179c.156.118.311.235.464.357a.257.257,0,0,1,.042.359.262.262,0,0,1-.359.042,23.642,23.642,0,0,0-2.494-1.717.255.255,0,0,1,.26-.439,24.036,24.036,0,0,1,2.083,1.4Zm2.734,2.4a.178.178,0,0,1,.029.027,23.47,23.47,0,0,1,2.009,2.353.256.256,0,0,1-.41.305,22.943,22.943,0,0,0-1.966-2.3.256.256,0,0,1,0-.361.253.253,0,0,1,.33-.021Zm-7.52-5.177a.255.255,0,0,1-.255.438,23.219,23.219,0,0,0-2.851-1.012.255.255,0,1,1,.139-.491,23.72,23.72,0,0,1,2.915,1.036.216.216,0,0,1,.052.031Zm11.173,10.074a.28.28,0,0,1,.069.079,23.917,23.917,0,0,1,1.328,2.8.256.256,0,0,1-.476.19,23.312,23.312,0,0,0-1.3-2.736.255.255,0,0,1,.377-.328ZM897.3,424.742a.255.255,0,0,1-.19.458,23.517,23.517,0,0,0-3.017-.235.255.255,0,0,1,.008-.51,23.812,23.812,0,0,1,3.085.242.242.242,0,0,1,.116.048Zm19.3,17.412a.272.272,0,0,1,.095.141,23.965,23.965,0,0,1,.558,3.042.256.256,0,1,1-.508.06,23.026,23.026,0,0,0-.547-2.977.253.253,0,0,1,.186-.309A.267.267,0,0,1,916.6,442.154Zm-25.41-17.49a.255.255,0,0,1-.124.458,23.31,23.31,0,0,0-2.977.551.256.256,0,1,1-.125-.5,23.506,23.506,0,0,1,3.042-.562.26.26,0,0,1,.183.048Zm26.119,23.556a.252.252,0,0,1,.1.208,23.653,23.653,0,0,1-.245,3.083.256.256,0,1,1-.507-.073,23,23,0,0,0,.24-3.015.255.255,0,0,1,.259-.251.245.245,0,0,1,.149.051Zm-32.04-22.055a.243.243,0,0,1,.083.11.256.256,0,0,1-.143.332,23.309,23.309,0,0,0-2.734,1.3.255.255,0,0,1-.249-.446,23.514,23.514,0,0,1,2.794-1.331.252.252,0,0,1,.247.033Zm31.161,28.1a.26.26,0,0,1,.093.275,23.406,23.406,0,0,1-1.039,2.915.256.256,0,0,1-.469-.2,23.118,23.118,0,0,0,1.016-2.851.254.254,0,0,1,.314-.176.273.273,0,0,1,.083.04Zm-2.424,5.606a.257.257,0,0,1,.066.336,24.684,24.684,0,0,1-1.383,2.059c-.124.164-.247.327-.375.487a.254.254,0,0,1-.359.043.257.257,0,0,1-.042-.359c.124-.156.245-.315.367-.476a23.593,23.593,0,0,0,1.354-2.014.254.254,0,0,1,.35-.087l.023.015Zm-3.79,4.789a.279.279,0,0,1,.03.027.254.254,0,0,1-.006.361,23.467,23.467,0,0,1-2.355,2.007.256.256,0,0,1-.305-.41,23.372,23.372,0,0,0,2.305-1.962.255.255,0,0,1,.33-.021Zm-4.9,3.647a.275.275,0,0,1,.069.08.254.254,0,0,1-.1.348,23.572,23.572,0,0,1-2.8,1.324.255.255,0,1,1-.187-.473,23.367,23.367,0,0,0,2.737-1.294.257.257,0,0,1,.278.019Zm-34.5-23.874a.255.255,0,0,1,.1.242,23.631,23.631,0,0,0-.248,3.017.255.255,0,1,1-.51-.008,23.971,23.971,0,0,1,.253-3.085.256.256,0,0,1,.29-.215.244.244,0,0,1,.116.048Zm28.822,26.121a.263.263,0,0,1,.094.143.253.253,0,0,1-.185.309,23.805,23.805,0,0,1-3.044.554.255.255,0,1,1-.058-.506,23.757,23.757,0,0,0,2.979-.543.254.254,0,0,1,.215.044Zm-28.921-20.013a.253.253,0,0,1,.1.176,22.847,22.847,0,0,0,.541,2.979.255.255,0,0,1-.495.124,23.931,23.931,0,0,1-.552-3.044.257.257,0,0,1,.224-.282.248.248,0,0,1,.181.051Zm22.852,20.714a.255.255,0,0,1-.156.46,23.814,23.814,0,0,1-3.083-.247.256.256,0,0,1,.074-.506,23.131,23.131,0,0,0,3.015.243.246.246,0,0,1,.149.051Zm-21.375-14.787a.27.27,0,0,1,.085.11,23.19,23.19,0,0,0,1.292,2.739.256.256,0,0,1-.446.249,23.728,23.728,0,0,1-1.319-2.8.254.254,0,0,1,.145-.33.265.265,0,0,1,.248.033Zm15.336,13.9a.26.26,0,0,1,.093.275.255.255,0,0,1-.315.175,23.408,23.408,0,0,1-2.913-1.041.256.256,0,1,1,.2-.469,23.225,23.225,0,0,0,2.849,1.02A.281.281,0,0,1,887.531,470.362ZM875.16,461.8a.245.245,0,0,1,.052.052,22.951,22.951,0,0,0,1.96,2.306.256.256,0,1,1-.367.356,23.77,23.77,0,0,1-2-2.359.255.255,0,0,1,.357-.357Zm6.769,6.128a.255.255,0,0,1-.284.423,23.726,23.726,0,0,1-2.543-1.762.256.256,0,0,1,.317-.4,23.713,23.713,0,0,0,2.488,1.724.067.067,0,0,1,.021.015Z" transform="translate(-128.601 -61.469)" fill="#b3ddff"/>
      <path id="Trazado_115059" data-name="Trazado 115059" d="M1149.916,693.4a1.241,1.241,0,0,1-1.239-1.242v-.313a2.4,2.4,0,0,0-.588-1.551,2.374,2.374,0,0,1,1.717-3.883,2.381,2.381,0,0,1,2.492,2.37,2.375,2.375,0,0,1-.575,1.54,2.266,2.266,0,0,0-.561,1.455v.382a1.24,1.24,0,0,1-1.239,1.242Zm0-6.734c-.035,0-.062,0-.1,0a2.134,2.134,0,0,0-2.014,2,2.1,2.1,0,0,0,.484,1.457,2.723,2.723,0,0,1,.644,1.717v.313a.983.983,0,1,0,1.966,0v-.382a2.519,2.519,0,0,1,.623-1.623,2.12,2.12,0,0,0-.145-2.9,2.111,2.111,0,0,0-1.461-.585Z" transform="translate(-213.973 -142.093)" fill="#b3ddff"/>
      <path id="Trazado_115060" data-name="Trazado 115060" d="M1151.046,683.24h-.256V684.9h.256Z" transform="translate(-214.972 -141.116)" fill="#b3ddff"/>
      <path id="Trazado_115061" data-name="Trazado 115061" d="M1155.007,685.082l-1.177,1.172.187.183,1.17-1.172Z" transform="translate(-215.907 -141.683)" fill="#b3ddff"/>
      <path id="Trazado_115062" data-name="Trazado 115062" d="M1156.841,689.731h-1.661v.259h1.661Z" transform="translate(-216.323 -143.114)" fill="#b3ddff"/>
      <path id="Trazado_115063" data-name="Trazado 115063" d="M1146.32,685.036l-.18.183,1.17,1.172.187-.183Z" transform="translate(-213.54 -141.669)" fill="#b3ddff"/>
      <path id="Trazado_115064" data-name="Trazado 115064" d="M1145.954,689.653H1144.3v.259h1.654Z" transform="translate(-212.974 -143.09)" fill="#b3ddff"/>
      <path id="Trazado_115065" data-name="Trazado 115065" d="M1151.484,693.476h-1.9v.259h1.9Z" transform="translate(-214.599 -144.267)" fill="#b3ddff"/>
      <path id="Trazado_115066" data-name="Trazado 115066" d="M1151.41,694.595h-1.71v.259h1.71Z" transform="translate(-214.636 -144.611)" fill="#b3ddff"/>
      <path id="Trazado_115067" data-name="Trazado 115067" d="M1311.345,485.564a8.354,8.354,0,0,1-.021-16.708.2.2,0,0,1,.139.057.21.21,0,0,1,.055.141l-.09,8.071h8.064a.193.193,0,0,1,.138.06.19.19,0,0,1,.062.141,8.391,8.391,0,0,1-8.348,8.235Zm-.222-16.308a7.959,7.959,0,1,0,8.168,8.27h-8.064a.215.215,0,0,1-.145-.058.208.208,0,0,1-.055-.141l.1-8.069Z" transform="translate(-261.815 -75.135)" fill="#b3ddff"/>
      <path id="Trazado_115068" data-name="Trazado 115068" d="M1325.306,475.456h-8.265a.193.193,0,0,1-.2-.2l.1-8.272a.192.192,0,0,1,.2-.195,8.364,8.364,0,0,1,8.369,8.352.275.275,0,0,1-.007.075v.042a.2.2,0,0,1-.2.2Zm-8.071-.4h7.878a7.971,7.971,0,0,0-7.781-7.873Z" transform="translate(-266.077 -74.499)" fill="#b3ddff"/>
      <path id="Trazado_115069" data-name="Trazado 115069" d="M1040.414,384.517a.2.2,0,0,1-.145-.064l-3.586-3.848H1024.25a1.556,1.556,0,0,1-1.55-1.553v-7.976a1.556,1.556,0,0,1,1.55-1.553h14.807a1.558,1.558,0,0,1,1.557,1.553v13.24a.2.2,0,0,1-.125.183.21.21,0,0,1-.076.013Zm-16.164-14.6a1.159,1.159,0,0,0-1.156,1.157v7.976a1.159,1.159,0,0,0,1.156,1.157h12.516a.192.192,0,0,1,.145.064l3.309,3.543V371.08a1.164,1.164,0,0,0-1.163-1.157H1024.25Z" transform="translate(-175.549 -44.563)" fill="#b3ddff"/>
      <path id="Trazado_115070" data-name="Trazado 115070" d="M1029.016,378a1.244,1.244,0,1,1,1.239-1.244A1.243,1.243,0,0,1,1029.016,378Zm0-2.09a.848.848,0,1,0,.845.848A.85.85,0,0,0,1029.016,375.907Z" transform="translate(-177.109 -46.405)" fill="#b3ddff"/>
      <path id="Trazado_115071" data-name="Trazado 115071" d="M1035.306,378a1.244,1.244,0,1,1,1.239-1.244A1.243,1.243,0,0,1,1035.306,378Zm0-2.09a.848.848,0,1,0,.844.848A.85.85,0,0,0,1035.306,375.907Z" transform="translate(-179.045 -46.405)" fill="#b3ddff"/>
      <path id="Trazado_115072" data-name="Trazado 115072" d="M1041.589,378a1.244,1.244,0,1,1,1.246-1.244A1.242,1.242,0,0,1,1041.589,378Zm0-2.09a.848.848,0,1,0,.851.848A.849.849,0,0,0,1041.589,375.907Z" transform="translate(-180.981 -46.405)" fill="#b3ddff"/>
      <path id="Trazado_115073" data-name="Trazado 115073" d="M832.5,382.824a10.729,10.729,0,1,1,10.729-10.729A10.741,10.741,0,0,1,832.5,382.824Zm0-21.062a10.333,10.333,0,1,0,10.333,10.333A10.346,10.346,0,0,0,832.5,361.762Z" transform="translate(-113.709 -42.052)" fill="#b3ddff"/>
      <path id="Trazado_115074" data-name="Trazado 115074" d="M835.209,382.824c-2.6,0-4.638-4.711-4.638-10.729s2.036-10.729,4.638-10.729,4.638,4.711,4.638,10.729S837.811,382.824,835.209,382.824Zm0-21.062c-2.339,0-4.242,4.637-4.242,10.333s1.9,10.333,4.242,10.333,4.242-4.636,4.242-10.333S837.549,361.762,835.209,361.762Z" transform="translate(-116.417 -42.052)" fill="#b3ddff"/>
      <path id="Trazado_115075" data-name="Trazado 115075" d="M833.467,367.632a18.387,18.387,0,0,1-8.453-1.764.2.2,0,0,1-.1-.133.191.191,0,0,1,.037-.161,10.724,10.724,0,0,1,17.03,0,.2.2,0,0,1,.037.161.2.2,0,0,1-.1.133A18.361,18.361,0,0,1,833.467,367.632Zm-8.057-2a21.024,21.024,0,0,0,16.115,0,10.331,10.331,0,0,0-16.115,0Z" transform="translate(-114.675 -42.053)" fill="#b3ddff"/>
      <path id="Trazado_115076" data-name="Trazado 115076" d="M833.564,389.756a10.7,10.7,0,0,1-8.293-3.921.192.192,0,0,1-.041-.166.2.2,0,0,1,.1-.135,21.417,21.417,0,0,1,16.458,0,.2.2,0,0,1,.1.135.2.2,0,0,1-.041.166A10.7,10.7,0,0,1,833.564,389.756Zm-7.826-3.981a10.334,10.334,0,0,0,15.651,0,21.3,21.3,0,0,0-15.651,0Z" transform="translate(-114.772 -48.984)" fill="#b3ddff"/>
      <path id="Trazado_115077" data-name="Trazado 115077" d="M837.183,382.825a.2.2,0,0,1-.2-.2V361.566a.2.2,0,0,1,.395,0v21.062A.2.2,0,0,1,837.183,382.825Z" transform="translate(-118.391 -42.053)" fill="#b3ddff"/>
      <path id="Trazado_115078" data-name="Trazado 115078" d="M843.031,376.978H821.969a.2.2,0,0,1,0-.395h21.062a.2.2,0,0,1,0,.395Z" transform="translate(-113.709 -46.736)" fill="#b3ddff"/>
      <path id="Trazado_115079" data-name="Trazado 115079" d="M1201.343,527.059h-18.122a.2.2,0,0,1-.2-.2V515.4a.2.2,0,0,1,.2-.2h18.122a.2.2,0,0,1,.194.2v11.459A.2.2,0,0,1,1201.343,527.059Zm-17.922-.4h17.721V515.6h-17.721Z" transform="translate(-224.891 -89.4)" fill="#b3ddff"/>
      <path id="Trazado_115080" data-name="Trazado 115080" d="M1192.257,520.914a.186.186,0,0,1-.1-.027l-9.034-5.316a.193.193,0,0,1-.09-.222.191.191,0,0,1,.187-.147h18.122a.191.191,0,0,1,.187.147.184.184,0,0,1-.09.222l-9.082,5.316a.232.232,0,0,1-.1.027Zm-8.307-5.316,8.307,4.889,8.355-4.889Z" transform="translate(-224.893 -89.399)" fill="#b3ddff"/>
      <path id="Trazado_115081" data-name="Trazado 115081" d="M1388.414,573.213h-17.963a.2.2,0,0,1-.2-.2v-12.6a.2.2,0,0,1,.2-.2h17.963a.193.193,0,0,1,.194.2v12.6A.2.2,0,0,1,1388.414,573.213Zm-17.769-.4h17.569v-12.2h-17.569Z" transform="translate(-282.515 -103.255)" fill="#b3ddff"/>
      <path id="Trazado_115082" data-name="Trazado 115082" d="M1388.414,566.038h-7.566a.193.193,0,0,1-.194-.2.2.2,0,0,1,.194-.2h7.365V560.62h-17.569v5.024h7.5a.194.194,0,0,1,.194.2.2.2,0,0,1-.194.2h-7.691a.2.2,0,0,1-.2-.2v-5.421a.2.2,0,0,1,.2-.2h17.963a.2.2,0,0,1,.194.2v5.421a.2.2,0,0,1-.194.2Z" transform="translate(-282.515 -103.255)" fill="#b3ddff"/>
      <path id="Trazado_115083" data-name="Trazado 115083" d="M1384.057,569.671h-1.973a.193.193,0,0,1-.194-.2v-3.369a.2.2,0,0,1,.194-.2h1.973a.2.2,0,0,1,.2.2v3.369A.2.2,0,0,1,1384.057,569.671Zm-1.772-.4h1.578V566.3h-1.578Z" transform="translate(-286.098 -105.005)" fill="#b3ddff"/>
      <path id="Trazado_115084" data-name="Trazado 115084" d="M1375.662,560.058h-2.748a.193.193,0,0,1-.194-.2v-1.006a.193.193,0,0,1,.194-.2h2.748a.2.2,0,0,1,.2.2v1.006A.2.2,0,0,1,1375.662,560.058Zm-2.554-.4h2.354v-.611h-2.354Z" transform="translate(-283.276 -102.774)" fill="#b3ddff"/>
      <path id="Trazado_115085" data-name="Trazado 115085" d="M1392.812,560.058h-2.748a.193.193,0,0,1-.194-.2v-1.006a.193.193,0,0,1,.194-.2h2.748a.2.2,0,0,1,.2.2v1.006A.2.2,0,0,1,1392.812,560.058Zm-2.547-.4h2.346v-.611h-2.346Z" transform="translate(-288.554 -102.774)" fill="#b3ddff"/>
      <path id="Trazado_115086" data-name="Trazado 115086" d="M1386.338,556.636a.193.193,0,0,1-.194-.2V553.98a1.141,1.141,0,0,0-1.142-1.138h-7.815a1.141,1.141,0,0,0-1.142,1.138v2.459a.2.2,0,0,1-.194.2.2.2,0,0,1-.2-.2V553.98a1.539,1.539,0,0,1,1.537-1.534h7.822a1.533,1.533,0,0,1,1.53,1.534v2.459a.2.2,0,0,1-.194.2Z" transform="translate(-284.177 -100.862)" fill="#b3ddff"/>
      <path id="Trazado_115087" data-name="Trazado 115087" d="M824.371,483.135h-2.583a.2.2,0,0,1-.2-.2v-1.515a7.381,7.381,0,0,1-2.558-1.157l-1.142,1.142a.2.2,0,0,1-.28,0l-1.827-1.828a.2.2,0,0,1,0-.28l1.2-1.2a7.4,7.4,0,0,1-.983-2.5H814.25a.2.2,0,0,1-.2-.2v-2.583a.2.2,0,0,1,.2-.2h1.769a7.416,7.416,0,0,1,1-2.463l-1.236-1.236a.2.2,0,0,1,0-.28l1.827-1.828a.205.205,0,0,1,.28,0l1.192,1.191a7.382,7.382,0,0,1,2.507-1.122v-1.6a.2.2,0,0,1,.2-.2h2.583a.2.2,0,0,1,.2.2v1.5a7.382,7.382,0,0,1,2.712,1.022l.987-.987a.205.205,0,0,1,.28,0l1.828,1.828a.195.195,0,0,1,0,.278l-.925.926a7.548,7.548,0,0,1,1.207,2.772h1.251a.2.2,0,0,1,.2.2V475.4a.2.2,0,0,1-.2.2h-1.234a7.506,7.506,0,0,1-1.188,2.809l.89.89a.2.2,0,0,1,0,.278l-1.827,1.827a.205.205,0,0,1-.28,0l-.935-.935a7.358,7.358,0,0,1-2.764,1.055v1.41a.2.2,0,0,1-.2.2Zm-2.386-.4h2.189v-1.383a.2.2,0,0,1,.17-.2,6.989,6.989,0,0,0,2.907-1.108.2.2,0,0,1,.249.025l.908.908,1.548-1.547-.869-.869a.2.2,0,0,1-.019-.257,7.094,7.094,0,0,0,1.248-2.944.2.2,0,0,1,.195-.164h1.2v-2.189h-1.217a.2.2,0,0,1-.2-.162,7.077,7.077,0,0,0-1.267-2.909.2.2,0,0,1,.019-.257l.905-.906-1.547-1.547-.96.96a.2.2,0,0,1-.247.025,6.974,6.974,0,0,0-2.857-1.074.2.2,0,0,1-.17-.2v-1.468h-2.189v1.561a.2.2,0,0,1-.156.193,7,7,0,0,0-2.652,1.19.2.2,0,0,1-.258-.019l-1.17-1.171-1.547,1.547,1.209,1.209a.2.2,0,0,1,.025.249,7.01,7.01,0,0,0-1.061,2.614.2.2,0,0,1-.2.162h-1.733v2.189h1.717a.2.2,0,0,1,.2.164,6.986,6.986,0,0,0,1.041,2.646.2.2,0,0,1-.025.247l-1.175,1.175,1.547,1.547,1.121-1.12a.2.2,0,0,1,.257-.019,6.981,6.981,0,0,0,2.7,1.225.2.2,0,0,1,.156.193Zm1.353-4.115a4.472,4.472,0,1,1,4.416-5.185v1.395a4.435,4.435,0,0,1-1.06,2.274l-.39.392-.009.008A4.465,4.465,0,0,1,823.337,478.625Zm0-8.55a4.076,4.076,0,1,0,2.689,7.138l.379-.379a4.05,4.05,0,0,0,.959-2.034v-1.333a4.059,4.059,0,0,0-4.024-3.394Z" transform="translate(-111.333 -73.976)" fill="#b3ddff"/>
      <path id="Trazado_115088" data-name="Trazado 115088" d="M806.757,486.91a.2.2,0,0,1-.093-.023.2.2,0,0,1-.1-.116l-.39-1.256a3.761,3.761,0,0,1-.873-.114l-.63,1.2a.2.2,0,0,1-.116.1.2.2,0,0,1-.151-.014l-1.186-.624a.2.2,0,0,1-.083-.267l.655-1.246a3.356,3.356,0,0,1-.508-.636l-1.362.424a.2.2,0,0,1-.247-.129l-.4-1.279a.2.2,0,0,1,.129-.247l1.373-.427a3.34,3.34,0,0,1,.066-.8l-1.267-.667a.2.2,0,0,1-.082-.266l.624-1.186a.2.2,0,0,1,.116-.1.207.207,0,0,1,.151.013l1.229.647a3.406,3.406,0,0,1,.633-.564l-.4-1.3a.2.2,0,0,1,.013-.15.2.2,0,0,1,.116-.1l1.279-.4a.2.2,0,0,1,.151.014.2.2,0,0,1,.1.116l.383,1.231a3.34,3.34,0,0,1,.928.05l.581-1.107a.194.194,0,0,1,.116-.1.2.2,0,0,1,.151.013l1.186.624a.2.2,0,0,1,.083.266l-.554,1.056a3.307,3.307,0,0,1,.651.752l1.118-.348a.2.2,0,0,1,.151.014.2.2,0,0,1,.1.116l.4,1.279a.2.2,0,0,1-.129.247l-1.107.344a3.35,3.35,0,0,1-.1,1l1.034.545a.2.2,0,0,1,.083.266l-.624,1.187a.2.2,0,0,1-.267.083l-1.07-.563a3.4,3.4,0,0,1-.757.59l.369,1.188a.2.2,0,0,1-.129.247l-1.279.4a.213.213,0,0,1-.058.01Zm-.435-1.793a.2.2,0,0,1,.19.139l.375,1.209.9-.28-.359-1.155a.2.2,0,0,1,.1-.236,2.948,2.948,0,0,0,.892-.692.2.2,0,0,1,.242-.044l1.029.541.439-.835-1-.525a.2.2,0,0,1-.1-.234,2.958,2.958,0,0,0,.118-1.168.2.2,0,0,1,.139-.208l1.066-.332-.28-.9L809,480.73a.2.2,0,0,1-.231-.091,2.987,2.987,0,0,0-.763-.877.2.2,0,0,1-.054-.249l.539-1.024-.835-.439-.56,1.065a.2.2,0,0,1-.222.1,3.009,3.009,0,0,0-1.1-.058.2.2,0,0,1-.217-.137l-.37-1.2-.9.28.388,1.252a.194.194,0,0,1-.085.226,3,3,0,0,0-.767.684.2.2,0,0,1-.247.053l-1.2-.63-.439.834,1.227.646a.2.2,0,0,1,.1.224,2.968,2.968,0,0,0-.082.979.2.2,0,0,1-.139.2l-1.333.413.28.9,1.324-.412a.2.2,0,0,1,.232.093,3.011,3.011,0,0,0,.62.779.2.2,0,0,1,.042.24l-.633,1.205.834.439.613-1.163a.2.2,0,0,1,.235-.1,3.032,3.032,0,0,0,1.047.139h.01Zm-.15-1.623a1.338,1.338,0,0,1-.634-.159,1.359,1.359,0,1,1,.634.159Zm0-2.337a.935.935,0,0,0-.288.044.971.971,0,1,0,1.148,1.379.959.959,0,0,0,.067-.739A.974.974,0,0,0,806.172,481.157Z" transform="translate(-107.399 -77.758)" fill="#b3ddff"/>
      <path id="Trazado_115089" data-name="Trazado 115089" d="M770.48,676.646a.564.564,0,0,0,.125-.054.528.528,0,0,0,.182-.723c-18.862-31.489-59.62-61.806-76.272-61.451a.527.527,0,0,0,.021,1.053c16.391-.35,56.643,29.715,75.346,60.94A.528.528,0,0,0,770.48,676.646Z" transform="translate(-74.384 -119.934)" fill="#79bdc7"/>
      <path id="Trazado_115090" data-name="Trazado 115090" d="M695.04,608.629a6.262,6.262,0,0,0,3.413,2.923,5.024,5.024,0,0,0-3.123-7.407A6.26,6.26,0,0,0,695.04,608.629Z" transform="translate(-74.605 -116.773)" fill="#79bdc7"/>
      <path id="Trazado_115091" data-name="Trazado 115091" d="M730.461,623.789a6.266,6.266,0,0,0,2.428,3.78,5.022,5.022,0,0,0-.86-7.991A6.263,6.263,0,0,0,730.461,623.789Z" transform="translate(-85.599 -121.523)" fill="#79bdc7"/>
      <path id="Trazado_115092" data-name="Trazado 115092" d="M709.68,622.947a6.268,6.268,0,0,0-2.455,3.763,5.023,5.023,0,0,0,6.939-4.056A6.267,6.267,0,0,0,709.68,622.947Z" transform="translate(-78.454 -122.379)" fill="#79bdc7"/>
      <path id="Trazado_115093" data-name="Trazado 115093" d="M743.631,645.286a6.264,6.264,0,0,0-2.455,3.763,5.024,5.024,0,0,0,6.939-4.056A6.267,6.267,0,0,0,743.631,645.286Z" transform="translate(-88.903 -129.255)" fill="#79bdc7"/>
      <g id="Grupo_81446" data-name="Grupo 81446" transform="translate(670.775 453.232)">
        <path id="Trazado_115094" data-name="Trazado 115094" d="M814.214,635.166a.5.5,0,0,0-.631.307l-3.6,10.4q-.715-3.427-1.623-7.149a230.811,230.811,0,0,0-15.485-43.362.492.492,0,0,0,.073-.137l4.214-12.168a.5.5,0,0,0-.939-.325l-3.94,11.382A243.442,243.442,0,0,0,768.8,555.03a.5.5,0,1,0-.8.589,243.544,243.544,0,0,1,15.278,23.48l-8.822-2.838a.5.5,0,0,0-.305.947l9.839,3.164H784a237.412,237.412,0,0,1,19.29,44.1l-12.932-3.114a.5.5,0,1,0-.231.966l13.209,3.182a.471.471,0,0,0,.114.013.5.5,0,0,0,.162-.027c1.526,4.853,2.764,9.358,3.765,13.435.757,3.087,1.407,6.031,1.962,8.811a.488.488,0,0,0,.062.309c3.359,16.932,3.258,27.717,3.257,27.843a.5.5,0,0,0,.49.5h0a.5.5,0,0,0,.5-.491c0-.125.106-11.028-3.288-28.113l4.151-11.99a.5.5,0,0,0-.307-.632Z" transform="translate(-767.905 -554.827)" fill="#dedede"/>
      </g>
      <g id="Grupo_81447" data-name="Grupo 81447" transform="translate(645.864 522.007)">
        <path id="Trazado_115095" data-name="Trazado 115095" d="M781.752,707.368c-.031-.078-3.159-7.814-10.781-18.18a129.9,129.9,0,0,0-17.411-19.2.294.294,0,0,0,.01-.089l-.437-7.234a.28.28,0,0,0-.559.033l.41,6.771a137.011,137.011,0,0,0-20.643-15.253.28.28,0,1,0-.289.479,137.429,137.429,0,0,1,13.01,8.908l-5.2.431a.279.279,0,0,0,.046.557l5.8-.479h0a133.611,133.611,0,0,1,19.551,18.755l-7.392,1.173a.28.28,0,1,0,.089.552l7.553-1.2a.364.364,0,0,0,.062-.017.3.3,0,0,0,.077-.048c1.841,2.191,3.458,4.267,4.859,6.17a92.414,92.414,0,0,1,10.725,18.073.281.281,0,0,0,.363.156h0a.282.282,0,0,0,.154-.363Z" transform="translate(-731.918 -654.18)" fill="#dedede"/>
      </g>
      <path id="Trazado_115096" data-name="Trazado 115096" d="M1237.682,627.313a.8.8,0,0,1-.2.064.834.834,0,0,1-.962-.674c-9.927-56.873,7.407-134.861,27.592-151.563a.829.829,0,1,1,1.059,1.276c-19.867,16.44-36.861,93.607-27.018,150a.828.828,0,0,1-.471.894Z" transform="translate(-240.47 -77.01)" fill="#79bdc7"/>
      <path id="Trazado_115097" data-name="Trazado 115097" d="M1270.433,468.918c1.073,3.321-1.059,6.987-1.059,6.987s-3.877-1.717-4.949-5.038,1.052-6.987,1.052-6.987S1269.36,465.6,1270.433,468.918Z" transform="translate(-249.851 -73.603)" fill="#79bdc7"/>
      <path id="Trazado_115098" data-name="Trazado 115098" d="M1243.837,523.829c1.987,2.871,1,6.995,1,6.995s-4.209-.529-6.2-3.4-1-6.995-1-6.995S1241.85,520.958,1243.837,523.829Z" transform="translate(-241.627 -91.008)" fill="#79bdc7"/>
      <path id="Trazado_115099" data-name="Trazado 115099" d="M1265.122,502.122c3.427-.635,6.784,1.955,6.784,1.955s-2.2,3.625-5.635,4.26-6.791-1.955-6.791-1.955S1261.688,502.758,1265.122,502.122Z" transform="translate(-248.423 -85.342)" fill="#79bdc7"/>
      <path id="Trazado_115100" data-name="Trazado 115100" d="M1247.682,563.614c3.433-.635,6.791,1.955,6.791,1.955s-2.208,3.624-5.642,4.259-6.791-1.955-6.791-1.955S1244.248,564.25,1247.682,563.614Z" transform="translate(-243.056 -104.268)" fill="#79bdc7"/>
      <path id="Trazado_115101" data-name="Trazado 115101" d="M1285.687,663.668a.78.78,0,0,1-.152-.087.666.666,0,0,1-.118-.937c28.437-36.883,84.292-69.041,105.232-66.124a.668.668,0,0,1-.187,1.323c-20.6-2.873-75.785,29.044-103.986,65.616a.669.669,0,0,1-.789.209Z" transform="translate(-256.363 -114.37)" fill="#79bdc7"/>
      <path id="Trazado_115102" data-name="Trazado 115102" d="M1435.223,589.221c-1.391,2.45-4.735,3.176-4.735,3.176s-1.094-3.243.3-5.693,4.735-3.176,4.735-3.176S1436.615,586.772,1435.223,589.221Z" transform="translate(-300.929 -110.428)" fill="#79bdc7"/>
      <path id="Trazado_115103" data-name="Trazado 115103" d="M1388.545,603.006c-.63,2.745-3.62,4.4-3.62,4.4s-1.98-2.793-1.35-5.539,3.62-4.4,3.62-4.4S1389.168,600.261,1388.545,603.006Z" transform="translate(-286.578 -114.718)" fill="#79bdc7"/>
      <path id="Trazado_115104" data-name="Trazado 115104" d="M1413.5,604.784c2.25,1.7,2.541,5.105,2.541,5.105s-3.357.661-5.607-1.035-2.533-5.106-2.533-5.106S1411.257,603.088,1413.5,604.784Z" transform="translate(-294.103 -116.612)" fill="#79bdc7"/>
      <path id="Trazado_115105" data-name="Trazado 115105" d="M1367.407,627.9c2.25,1.7,2.534,5.105,2.534,5.105s-3.357.661-5.607-1.035-2.533-5.106-2.533-5.106S1365.157,626.2,1367.407,627.9Z" transform="translate(-279.915 -123.725)" fill="#79bdc7"/>
      <g id="Grupo_81448" data-name="Grupo 81448" transform="translate(946.266 452.882)">
        <path id="Trazado_115106" data-name="Trazado 115106" d="M1200.437,654.109c.007-.12.457-12.209-3.468-30.443a189.268,189.268,0,0,0-11.636-35.72,1.226,1.226,0,0,0,.062-.112l3.71-9.827a.4.4,0,1,0-.755-.288l-3.482,9.2a198.283,198.283,0,0,0-18.247-32.422.409.409,0,0,0-.568-.1.4.4,0,0,0-.1.563,199.022,199.022,0,0,1,11.92,19.5l-7.13-2.515a.406.406,0,1,0-.27.765l7.954,2.8h.007a194.056,194.056,0,0,1,14.724,36.408l-10.473-2.836a.406.406,0,1,0-.208.784l10.7,2.9a.369.369,0,0,0,.09.013.5.5,0,0,0,.132-.017c1.135,3.991,2.042,7.7,2.762,11.044,3.918,18.139,3.468,30.149,3.461,30.267a.409.409,0,0,0,.388.423h.007a.4.4,0,0,0,.415-.388Z" transform="translate(-1165.882 -554.32)" fill="#dedede"/>
      </g>
      <g id="Grupo_81449" data-name="Grupo 81449" transform="translate(1000.968 422.574)">
        <path id="Trazado_115107" data-name="Trazado 115107" d="M1250.246,604.988a.635.635,0,0,1,.755.48l3,13.644q1.4-4.214,3.1-8.768A293.51,293.51,0,0,1,1283.043,558a.759.759,0,0,1-.069-.185l-3.51-15.959a.638.638,0,0,1,.484-.751.624.624,0,0,1,.748.481l3.281,14.928a309.108,309.108,0,0,1,35.38-45.774.632.632,0,0,1,.893-.031.625.625,0,0,1,.028.891,309.01,309.01,0,0,0-22.733,27.322l11.539-2.266a.63.63,0,1,1,.242,1.236l-12.862,2.527h-.021a301.145,301.145,0,0,0-30.846,52.708l16.752-2a.63.63,0,1,1,.152,1.251l-17.119,2.05a.629.629,0,0,1-.145,0,.6.6,0,0,1-.2-.058c-2.644,5.888-4.873,11.382-6.742,16.374q-2.118,5.667-3.78,10.812a.611.611,0,0,1-.118.379c-6.742,20.837-8.217,34.445-8.238,34.6a.629.629,0,0,1-.692.562h-.007a.633.633,0,0,1-.554-.692c.014-.158,1.5-13.912,8.314-34.939l-3.454-15.726a.628.628,0,0,1,.484-.752Z" transform="translate(-1244.905 -510.537)" fill="#dedede"/>
      </g>
      <path id="Trazado_115108" data-name="Trazado 115108" d="M934.459,681.37H920.328l-14.639,33.988h14.13Z" transform="translate(-139.536 -140.541)" fill="#33a4ff"/>
      <path id="Trazado_115109" data-name="Trazado 115109" d="M1074.87,681.37H1089l14.641,33.988h-14.128Z" transform="translate(-191.605 -140.541)" fill="#33a4ff"/>
      <path id="Trazado_115110" data-name="Trazado 115110" d="M965.345,627.038A102.821,102.821,0,1,0,862.524,524.216,102.821,102.821,0,0,0,965.345,627.038Z" transform="translate(-126.251 -60.528)" fill="#33a4ff"/>
      <path id="Trazado_115111" data-name="Trazado 115111" d="M983.979,603.761a60.91,60.91,0,1,0-60.91-60.91A60.908,60.908,0,0,0,983.979,603.761Z" transform="translate(-144.885 -79.162)" fill="#b3ddff"/>
      <path id="Trazado_115112" data-name="Trazado 115112" d="M1017.478,576.349a24.442,24.442,0,1,0-34.568,0A24.451,24.451,0,0,0,1017.478,576.349Z" transform="translate(-161.1 -95.377)" fill="#33a4ff"/>
      <path id="Trazado_115113" data-name="Trazado 115113" d="M869.338,590.8c-6.879,6.879-19.609,5.3-19.609,5.3s-1.578-12.731,5.3-19.609,19.609-5.3,19.609-5.3S876.217,583.924,869.338,590.8Z" transform="translate(-122.265 -106.584)" fill="#b3ddff"/>
      <path id="Trazado_115114" data-name="Trazado 115114" d="M841.691,605.11a.733.733,0,0,1,0-1.036L863.5,582.27a.732.732,0,1,1,1.036,1.035L842.726,605.11A.732.732,0,0,1,841.691,605.11Z" transform="translate(-119.773 -109.974)" fill="#33a4ff"/>
      <path id="Trazado_115115" data-name="Trazado 115115" d="M806.828,604.317c9.4,9.4,7.24,26.784,7.24,26.784s-17.388,2.156-26.784-7.24-7.24-26.784-7.24-26.784S797.431,594.921,806.828,604.317Z" transform="translate(-100.8 -114.532)" fill="#b3ddff"/>
      <path id="Trazado_115116" data-name="Trazado 115116" d="M826.3,643.67a.732.732,0,0,1-1.036,0l-32.335-32.336a.732.732,0,0,1,1.036-1.035L826.3,642.634A.732.732,0,0,1,826.3,643.67Z" transform="translate(-104.764 -118.601)" fill="#33a4ff"/>
      <path id="Trazado_115117" data-name="Trazado 115117" d="M841.389,645.843a1.465,1.465,0,0,1-1.464-1.465V553.489a1.464,1.464,0,0,1,2.929,0v90.889A1.465,1.465,0,0,1,841.389,645.843Z" transform="translate(-119.296 -100.732)" fill="#33a4ff"/>
      <path id="Trazado_115118" data-name="Trazado 115118" d="M851.731,711.437H810.807l-3.661-42.962h48.978Z" transform="translate(-109.207 -136.572)" fill="#3651a3"/>
      <path id="Trazado_115119" data-name="Trazado 115119" d="M849.215,542.765a25.492,25.492,0,1,0-36.05,0A25.492,25.492,0,0,0,849.215,542.765Z" transform="translate(-108.762 -84.489)" fill="#b3ddff"/>
      <path id="Trazado_115120" data-name="Trazado 115120" d="M833.185,547.739a21,21,0,1,0-21-21A21,21,0,0,0,833.185,547.739Z" transform="translate(-110.757 -86.484)" fill="#33a4ff"/>
      <path id="Trazado_115121" data-name="Trazado 115121" d="M837.87,545.13v-4.011a11.578,11.578,0,0,1-6.077-1.748l.953-2.66a10.591,10.591,0,0,0,5.72,1.708c2.82,0,4.727-1.629,4.727-3.892s-1.549-3.535-4.488-4.727c-4.051-1.588-6.553-3.415-6.553-6.871s2.343-5.8,6-6.394v-4.011h2.463v3.852a10.6,10.6,0,0,1,5.164,1.389l-.993,2.621a9.6,9.6,0,0,0-5-1.35c-3.058,0-4.209,1.827-4.209,3.415,0,2.066,1.47,3.1,4.924,4.529,4.092,1.669,6.157,3.734,6.157,7.267,0,3.137-2.185,6.077-6.274,6.751v4.131h-2.5Z" transform="translate(-116.793 -88.574)" fill="#b3ddff"/>
      <path id="Trazado_115122" data-name="Trazado 115122" d="M1289.489,677.793H1222.62v18.156h66.869Z" transform="translate(-237.079 -139.44)" fill="#33a4ff"/>
      <g id="Grupo_81450" data-name="Grupo 81450" transform="translate(1017.003 540.743)">
        <path id="Trazado_115123" data-name="Trazado 115123" d="M1270.97,681.245h-1.862a1.039,1.039,0,0,0-1.038,1.041v11.3a1.039,1.039,0,0,0,1.038,1.041h1.862a1.045,1.045,0,0,0,1.045-1.041v-11.3A1.045,1.045,0,0,0,1270.97,681.245Z" transform="translate(-1268.07 -681.245)" fill="#e8e8e8"/>
      </g>
      <g id="Grupo_81451" data-name="Grupo 81451" transform="translate(1007.381 540.743)">
        <path id="Trazado_115124" data-name="Trazado 115124" d="M1257.077,681.245h-1.862a1.045,1.045,0,0,0-1.045,1.041v11.3a1.045,1.045,0,0,0,1.045,1.041h1.862a1.039,1.039,0,0,0,1.038-1.041v-11.3A1.039,1.039,0,0,0,1257.077,681.245Z" transform="translate(-1254.17 -681.245)" fill="#e8e8e8"/>
      </g>
      <g id="Grupo_81452" data-name="Grupo 81452" transform="translate(997.759 540.743)">
        <path id="Trazado_115125" data-name="Trazado 115125" d="M1243.177,681.245h-1.862a1.045,1.045,0,0,0-1.045,1.041v11.3a1.045,1.045,0,0,0,1.045,1.041h1.862a1.039,1.039,0,0,0,1.038-1.041v-11.3A1.039,1.039,0,0,0,1243.177,681.245Z" transform="translate(-1240.27 -681.245)" fill="#e8e8e8"/>
      </g>
      <g id="Grupo_81453" data-name="Grupo 81453" transform="translate(988.137 540.743)">
        <path id="Trazado_115126" data-name="Trazado 115126" d="M1229.277,681.245h-1.862a1.045,1.045,0,0,0-1.045,1.041v11.3a1.045,1.045,0,0,0,1.045,1.041h1.862a1.039,1.039,0,0,0,1.038-1.041v-11.3A1.039,1.039,0,0,0,1229.277,681.245Z" transform="translate(-1226.37 -681.245)" fill="#e8e8e8"/>
      </g>
      <g id="Grupo_81454" data-name="Grupo 81454" transform="translate(1026.625 540.743)">
        <path id="Trazado_115127" data-name="Trazado 115127" d="M1284.87,681.245h-1.862a1.039,1.039,0,0,0-1.038,1.041v11.3a1.039,1.039,0,0,0,1.038,1.041h1.862a1.045,1.045,0,0,0,1.045-1.041v-11.3A1.045,1.045,0,0,0,1284.87,681.245Z" transform="translate(-1281.97 -681.245)" fill="#e8e8e8"/>
      </g>
      <g id="Grupo_81455" data-name="Grupo 81455" transform="translate(1036.247 540.743)">
        <path id="Trazado_115128" data-name="Trazado 115128" d="M1298.771,681.245h-1.862a1.039,1.039,0,0,0-1.039,1.041v11.3a1.04,1.04,0,0,0,1.039,1.041h1.862a1.045,1.045,0,0,0,1.045-1.041v-11.3A1.045,1.045,0,0,0,1298.771,681.245Z" transform="translate(-1295.87 -681.245)" fill="#e8e8e8"/>
      </g>
      <g id="Grupo_81456" data-name="Grupo 81456" transform="translate(1045.862 540.743)">
        <path id="Trazado_115129" data-name="Trazado 115129" d="M1312.667,681.245h-1.862a1.045,1.045,0,0,0-1.045,1.041v11.3a1.045,1.045,0,0,0,1.045,1.041h1.862a1.039,1.039,0,0,0,1.038-1.041v-11.3A1.039,1.039,0,0,0,1312.667,681.245Z" transform="translate(-1309.76 -681.245)" fill="#e8e8e8"/>
      </g>
      <path id="Trazado_115130" data-name="Trazado 115130" d="M1279.022,704.3H1212.16v18.156h66.862Z" transform="translate(-233.86 -147.598)" fill="#3651a3"/>
      <g id="Grupo_81457" data-name="Grupo 81457" transform="translate(1009.762 559.092)">
        <path id="Trazado_115131" data-name="Trazado 115131" d="M1260.51,707.753h-1.862a1.039,1.039,0,0,0-1.038,1.041v11.3a1.039,1.039,0,0,0,1.038,1.041h1.862a1.045,1.045,0,0,0,1.045-1.041v-11.3A1.045,1.045,0,0,0,1260.51,707.753Z" transform="translate(-1257.61 -707.753)" fill="#e8e8e8"/>
      </g>
      <g id="Grupo_81458" data-name="Grupo 81458" transform="translate(1000.14 559.092)">
        <path id="Trazado_115132" data-name="Trazado 115132" d="M1246.61,707.753h-1.862a1.039,1.039,0,0,0-1.038,1.041v11.3a1.039,1.039,0,0,0,1.038,1.041h1.862a1.045,1.045,0,0,0,1.045-1.041v-11.3A1.045,1.045,0,0,0,1246.61,707.753Z" transform="translate(-1243.71 -707.753)" fill="#e8e8e8"/>
      </g>
      <g id="Grupo_81459" data-name="Grupo 81459" transform="translate(990.518 559.092)">
        <path id="Trazado_115133" data-name="Trazado 115133" d="M1232.71,707.753h-1.862a1.039,1.039,0,0,0-1.038,1.041v11.3a1.039,1.039,0,0,0,1.038,1.041h1.862a1.045,1.045,0,0,0,1.045-1.041v-11.3A1.045,1.045,0,0,0,1232.71,707.753Z" transform="translate(-1229.81 -707.753)" fill="#e8e8e8"/>
      </g>
      <g id="Grupo_81460" data-name="Grupo 81460" transform="translate(980.896 559.092)">
        <path id="Trazado_115134" data-name="Trazado 115134" d="M1218.817,707.753h-1.862a1.045,1.045,0,0,0-1.045,1.041v11.3a1.045,1.045,0,0,0,1.045,1.041h1.862a1.039,1.039,0,0,0,1.038-1.041v-11.3A1.039,1.039,0,0,0,1218.817,707.753Z" transform="translate(-1215.91 -707.753)" fill="#e8e8e8"/>
      </g>
      <g id="Grupo_81461" data-name="Grupo 81461" transform="translate(1019.377 559.092)">
        <path id="Trazado_115135" data-name="Trazado 115135" d="M1274.407,707.753h-1.862a1.045,1.045,0,0,0-1.045,1.041v11.3a1.045,1.045,0,0,0,1.045,1.041h1.862a1.039,1.039,0,0,0,1.038-1.041v-11.3A1.039,1.039,0,0,0,1274.407,707.753Z" transform="translate(-1271.5 -707.753)" fill="#e8e8e8"/>
      </g>
      <g id="Grupo_81462" data-name="Grupo 81462" transform="translate(1028.999 559.092)">
        <path id="Trazado_115136" data-name="Trazado 115136" d="M1288.307,707.753h-1.862a1.045,1.045,0,0,0-1.045,1.041v11.3a1.045,1.045,0,0,0,1.045,1.041h1.862a1.039,1.039,0,0,0,1.038-1.041v-11.3A1.039,1.039,0,0,0,1288.307,707.753Z" transform="translate(-1285.4 -707.753)" fill="#e8e8e8"/>
      </g>
      <g id="Grupo_81463" data-name="Grupo 81463" transform="translate(1038.621 559.092)">
        <path id="Trazado_115137" data-name="Trazado 115137" d="M1302.207,707.753h-1.862a1.045,1.045,0,0,0-1.045,1.041v11.3a1.045,1.045,0,0,0,1.045,1.041h1.862a1.039,1.039,0,0,0,1.038-1.041v-11.3A1.039,1.039,0,0,0,1302.207,707.753Z" transform="translate(-1299.3 -707.753)" fill="#e8e8e8"/>
      </g>
      <path id="Trazado_115138" data-name="Trazado 115138" d="M1219.927,696.089a29.134,29.134,0,1,0-41.2,0A29.143,29.143,0,0,0,1219.927,696.089Z" transform="translate(-220.942 -129.764)" fill="#33a4ff"/>
      <path id="Trazado_115139" data-name="Trazado 115139" d="M1218.578,694.743a24.008,24.008,0,1,0-33.954,0A24,24,0,0,0,1218.578,694.743Z" transform="translate(-223.221 -132.043)" fill="#b3ddff"/>
      <path id="Trazado_115140" data-name="Trazado 115140" d="M1206.96,698.791v-4.584a13.231,13.231,0,0,1-6.95-2l1.094-3.041a12.1,12.1,0,0,0,6.535,1.951c3.226,0,5.4-1.861,5.4-4.449s-1.765-4.039-5.122-5.4c-4.631-1.816-7.49-3.9-7.49-7.853s2.672-6.627,6.853-7.309v-4.584h2.81v4.4a12.122,12.122,0,0,1,5.9,1.588l-1.135,3a11,11,0,0,0-5.725-1.543c-3.489,0-4.811,2.088-4.811,3.9,0,2.36,1.682,3.541,5.628,5.175,4.679,1.906,7.04,4.267,7.04,8.306,0,3.586-2.5,6.945-7.171,7.718v4.721h-2.866Z" transform="translate(-230.12 -134.433)" fill="#33a4ff"/>
      <g id="Grupo_81464" data-name="Grupo 81464" transform="translate(1027.037 512.969)">
        <path id="Trazado_115141" data-name="Trazado 115141" d="M1282.61,700.8c.055-.093,5.143-9.379,16.288-21.312a164.971,164.971,0,0,1,24.789-21.609.317.317,0,0,1,0-.114l1.62-9.052a.357.357,0,0,1,.415-.286.351.351,0,0,1,.284.411l-1.523,8.471a173.988,173.988,0,0,1,28.277-16.159.354.354,0,1,1,.291.645,174.157,174.157,0,0,0-17.714,9.293l6.486,1.314a.352.352,0,0,1,.277.419.349.349,0,0,1-.415.278l-7.234-1.464h-.007a169.631,169.631,0,0,0-27.419,20.738l9.144,2.575a.355.355,0,0,1-.194.683l-9.338-2.63a.321.321,0,0,1-.076-.031.279.279,0,0,1-.09-.073c-2.651,2.488-5,4.864-7.04,7.055-11.089,11.869-16.15,21.093-16.2,21.186a.359.359,0,0,1-.485.143h0a.356.356,0,0,1-.138-.481Z" transform="translate(-1282.566 -641.123)" fill="#dedede"/>
      </g>
      <g id="Grupo_81465" data-name="Grupo 81465" transform="translate(737.702 526.48)">
        <path id="Trazado_115142" data-name="Trazado 115142" d="M864.594,709.32a73.323,73.323,0,0,1,5.66-15.721,102.8,102.8,0,0,1,10.656-17.5.212.212,0,0,1-.019-.068l-.74-5.681a.221.221,0,0,1,.438-.056l.692,5.318A108.308,108.308,0,0,1,895.033,660.7a.22.22,0,0,1,.313.017.223.223,0,0,1-.017.313,108.508,108.508,0,0,0-8.774,8.853l4.1-.44a.221.221,0,0,1,.046.44l-4.573.491h0a105.723,105.723,0,0,0-12.383,17.475l5.915-.191a.221.221,0,1,1,.014.442l-6.042.2a.2.2,0,0,1-.051,0,.234.234,0,0,1-.067-.025c-1.1,1.976-2.05,3.829-2.853,5.515a72.948,72.948,0,0,0-5.633,15.63.22.22,0,1,1-.433-.083Z" transform="translate(-864.588 -660.641)" fill="#dedede"/>
      </g>
      <path id="Trazado_115143" data-name="Trazado 115143" d="M1167.007,742.318h-399.5v-5.567a6.225,6.225,0,0,1,6.224-6.224h387.052a6.227,6.227,0,0,1,6.223,6.224v5.567Z" transform="translate(-97.008 -155.67)" fill="#afd9e3"/>
      <path id="Trazado_115144" data-name="Trazado 115144" d="M1042.2,577.792l-15.492-18.029,15.492-17.1-38.522,17.452Z" transform="translate(-169.695 -97.849)" fill="#33a4ff"/>
      <path id="Trazado_115145" data-name="Trazado 115145" d="M1022.43,568.333a2.805,2.805,0,0,1,2.028-4.777l188.846,2.225a2.809,2.809,0,0,1-.049,5.618L1024.4,569.173A2.777,2.777,0,0,1,1022.43,568.333Z" transform="translate(-175.216 -104.281)" fill="#457dd1"/>
      <path id="Trazado_115146" data-name="Trazado 115146" d="M1280.63,560.656l13.637-13.393-40.717-.359-13.18,12.949Z" transform="translate(-242.542 -99.156)" fill="#33a4ff"/>
      <path id="Trazado_115147" data-name="Trazado 115147" d="M1278.227,574.893l13.256,13.764-40.71-.763-12.813-13.3Z" transform="translate(-241.8 -107.677)" fill="#33a4ff"/>
      <path id="Trazado_115148" data-name="Trazado 115148" d="M1273.793,574.853l18.649,19.483-17.506-.557-18.206-19.026Z" transform="translate(-247.577 -107.727)" fill="#457dd1"/>
      <path id="Trazado_115149" data-name="Trazado 115149" d="M924.952,365.77c1.567-.61,1.93-.077,2.024.344s.439.249,1.395.574.955.765.84,1.126.23.438.879.9.172.8.152,1.261.9.23.727,1.09-.134.687.382,1.222-.21,1.184-.019,1.625,1.223,1.146.821,1.719-.019.821.63,1.3.305,1.09.078,1.586,1.07,1.356.937,1.834-.879.3-.134,1.337.937,1.452.555,1.949,1.013,2.044-.191,2.177-18.95,3.076-19.294,3.017c-1.968-.668-1.261-2.637-.9-3.189s.286-.593.114-1.109.266-.574.325-.954-.707-1.434,0-1.949,1.012-.554,1.012-1.3.172-1.146.821-1.223a.941.941,0,0,0,.707-1.3c-.191-.533.172-.688.266-1.051s-.153-.383-.095-.86.554-.8.669-1.012-.688-.821.019-1.356.629-.611.573-1.09-.458-.325.153-.8.191-.458.421-1.587-.039-.917.383-1.145a1.194,1.194,0,0,0,.458-1.2c-.058-.383.649-.649,1.109-.649s.477-.629,1.126-.707,1.281-.114,1.184-.554,1.164-.344,1.872-.019Z" transform="translate(-141.912 -43.323)" fill="#2b1710"/>
      <path id="Trazado_115150" data-name="Trazado 115150" d="M965.308,485.552l.49,4.026a11.932,11.932,0,0,0-.687,4.958l16.346.737c-1.62-3.386-9.278-3.975-10.014-5.6s-.883-6.332-.883-6.332l-5.252,2.21Z" transform="translate(-157.816 -79.594)" fill="#ff8762"/>
      <path id="Trazado_115151" data-name="Trazado 115151" d="M968.793,491.441c0-.574.514-2.616,2.023-3.163a11.384,11.384,0,0,0,.628,2.917c.736,1.621,8.393,2.21,10.014,5.6l-16.346-.737a11.921,11.921,0,0,1,.687-4.958S968.695,492.472,968.793,491.441Z" transform="translate(-157.816 -81.112)" fill="#2b1710"/>
      <path id="Trazado_115152" data-name="Trazado 115152" d="M981.047,499.306a3.464,3.464,0,0,1,.411.651l-16.346-.736s-.021-.248-.027-.651Z" transform="translate(-157.817 -84.28)" fill="#693e2f"/>
      <path id="Trazado_115153" data-name="Trazado 115153" d="M972.458,493.04a.093.093,0,0,0,.087-.058,1.709,1.709,0,0,1,.761-.85.78.78,0,0,1,.633.041.094.094,0,0,0,.081-.17.962.962,0,0,0-.782-.046,1.872,1.872,0,0,0-.867.955.094.094,0,0,0,.052.122A.129.129,0,0,0,972.458,493.04Z" transform="translate(-160.057 -82.225)" fill="#693e2f"/>
      <path id="Trazado_115154" data-name="Trazado 115154" d="M974.62,494.706a.094.094,0,0,0,.087-.058,1.71,1.71,0,0,1,.761-.85.782.782,0,0,1,.634.041.094.094,0,0,0,.081-.17.962.962,0,0,0-.782-.046,1.87,1.87,0,0,0-.867.955.093.093,0,0,0,.052.122A.129.129,0,0,0,974.62,494.706Z" transform="translate(-160.723 -82.738)" fill="#693e2f"/>
      <path id="Trazado_115155" data-name="Trazado 115155" d="M978.237,495.912a.094.094,0,0,0,.087-.057,1.7,1.7,0,0,1,.761-.85.78.78,0,0,1,.633.04.1.1,0,0,0,.126-.044.094.094,0,0,0-.044-.125.961.961,0,0,0-.783-.046,1.872,1.872,0,0,0-.867.954.093.093,0,0,0,.053.122A.1.1,0,0,0,978.237,495.912Z" transform="translate(-161.836 -83.109)" fill="#693e2f"/>
      <path id="Trazado_115156" data-name="Trazado 115156" d="M937.771,422.764l.97,3.393c9.753,1.423,26.3,3.214,27.119,8.665s-6.634,20.266-6.634,20.266l-.454,11.814h-8.814l-5.272-24.265s-21.759,1.153-25.394-5c-2.921-4.949.858-11.078.858-11.078l11.724-7.453Z" transform="translate(-143.382 -59.822)" fill="#5553bd"/>
      <g id="Grupo_81466" data-name="Grupo 81466" transform="translate(792.888 368.857)">
        <path id="Trazado_115157" data-name="Trazado 115157" d="M967.025,458.735h0a.116.116,0,0,0,.114-.12c-.017-.728-.446-17.876-2.258-20.9-1.828-3.044-19.687-4.711-20.446-4.781a.115.115,0,1,0-.021.23c.185.018,18.5,1.725,20.268,4.669,1.781,2.97,2.222,20.606,2.225,20.784a.116.116,0,0,0,.116.114Z" transform="translate(-944.31 -432.936)" fill="#e0c9c0"/>
      </g>
      <g id="Grupo_81467" data-name="Grupo 81467" transform="translate(801.292 380.338)">
        <path id="Trazado_115158" data-name="Trazado 115158" d="M956.625,451.936a4.236,4.236,0,0,0,1.232-.593.116.116,0,0,0-.123-.2,5.984,5.984,0,0,1-1.053.55,5.7,5.7,0,0,1,.179-.85,6.134,6.134,0,0,0,.234-1.209.116.116,0,1,0-.232,0,6.161,6.161,0,0,1-.226,1.151c-.172.682-.231.95-.147,1.076a.163.163,0,0,0,.109.07h.027Z" transform="translate(-956.452 -449.522)" fill="#e0c9c0"/>
      </g>
      <g id="Grupo_81468" data-name="Grupo 81468" transform="translate(781.968 367.797)">
        <path id="Trazado_115159" data-name="Trazado 115159" d="M928.651,436.5a.131.131,0,0,0,.037-.006,2.8,2.8,0,0,0,1.329-1.52,4.227,4.227,0,0,0-.079-3.5.116.116,0,1,0-.21.1,4,4,0,0,1,.077,3.311,2.579,2.579,0,0,1-1.19,1.393.116.116,0,0,0,.037.226Z" transform="translate(-928.535 -431.406)" fill="#e0c9c0"/>
      </g>
      <g id="Grupo_81469" data-name="Grupo 81469" transform="translate(779.833 368.977)">
        <path id="Trazado_115160" data-name="Trazado 115160" d="M954.739,470.966h.012a.116.116,0,0,0,.1-.127c-.243-2.532-2.407-24.758-3.7-25.358-.359-.166-.554-.329-.6-.5-.056-.216.135-.477.377-.807.116-.159.245-.336.363-.532a.2.2,0,0,0,.008-.193c-.294-.606-5.253-1.284-12.783-2.248-3.159-.4-5.884-.753-7.113-1a6.978,6.978,0,0,1-5.724-6.976.116.116,0,1,0-.232,0,7.289,7.289,0,0,0,5.91,7.2c1.236.251,3.968.6,7.13,1,4.876.624,12.226,1.567,12.6,2.108-.109.179-.228.342-.342.5-.266.365-.5.68-.413,1,.062.242.293.449.724.649.889.413,2.621,15.278,3.568,25.169a.116.116,0,0,0,.116.1Z" transform="translate(-925.452 -433.11)" fill="#e0c9c0"/>
      </g>
      <path id="Trazado_115161" data-name="Trazado 115161" d="M976.517,391.476a5,5,0,0,1,2.2-1.663c1.109-.244,2.772-.532,3.7-1.8s.8-2.129.555-1.862-1,1.13-1.242,1.065.732-.62,1.263-1.441.622-2.505-.2-1.752c.444-.709.489-1.642.133-1.708s-2.129,2.8-2.594,2.927-.066-.332.554-1.133,1.219-2.283.887-2.417-1,.842-1.663,1.729-2.2,2.372-2.971,2.04-.355-1.043-.222-1.619-.089-1.375-.554-1.331a8.621,8.621,0,0,1-.842,2.194,3.8,3.8,0,0,0-1.02,2.217,11.97,11.97,0,0,1-.154,2.372c-3.3,2.973-12.825,7.036-12.825,7.036l2.169,5.6c7.329-2.1,12.827-10.464,12.827-10.464Z" transform="translate(-156.72 -48.306)" fill="#ff8762"/>
      <g id="Grupo_81470" data-name="Grupo 81470" transform="translate(819.768 337.593)">
        <path id="Trazado_115162" data-name="Trazado 115162" d="M987.039,389.91a1.718,1.718,0,0,0,1.063-.4.05.05,0,0,0,0-.071.049.049,0,0,0-.071,0,1.583,1.583,0,0,1-1.236.354,3.486,3.486,0,0,1-.615-.2,1.857,1.857,0,0,0-1.931.008c-.039-.334-.226-1.478-1.038-1.816a.051.051,0,0,0-.04.095c.875.366.983,1.8.983,1.82a.049.049,0,0,0,.029.042.05.05,0,0,0,.052-.006,1.732,1.732,0,0,1,1.905-.048,3.473,3.473,0,0,0,.633.207A1.386,1.386,0,0,0,987.039,389.91Z" transform="translate(-983.142 -387.773)" fill="#e0b3a8"/>
      </g>
      <g id="Grupo_81471" data-name="Grupo 81471" transform="translate(823.577 336.179)">
        <path id="Trazado_115163" data-name="Trazado 115163" d="M988.7,387.778a.053.053,0,0,0,.019,0,4.505,4.505,0,0,0,2.055-1.973.051.051,0,0,0-.025-.067.052.052,0,0,0-.068.025,4.389,4.389,0,0,1-2,1.92.053.053,0,0,0-.027.067.05.05,0,0,0,.046.031Z" transform="translate(-988.644 -385.73)" fill="#e0b3a8"/>
      </g>
      <g id="Grupo_81472" data-name="Grupo 81472" transform="translate(823.113 337.927)">
        <path id="Trazado_115164" data-name="Trazado 115164" d="M988.507,389.021a.043.043,0,0,0,.023-.006.05.05,0,0,0,.024-.067,2.621,2.621,0,0,0-.495-.68.05.05,0,1,0-.067.075,2.578,2.578,0,0,1,.469.649A.054.054,0,0,0,988.507,389.021Z" transform="translate(-987.975 -388.255)" fill="#e0b3a8"/>
      </g>
      <path id="Trazado_115165" data-name="Trazado 115165" d="M963.692,400.583c.356-1.279,2.1-1.913,3.23.067s1.715,6.416.458,7.612a1.773,1.773,0,0,1-2.759-.578c-.249-.548-.928-7.1-.928-7.1Z" transform="translate(-157.388 -53.754)" fill="#b3009d"/>
      <path id="Trazado_115166" data-name="Trazado 115166" d="M942.484,390.975c4.288,2.084,8.278,7.265,15.247,7.027,2.5,3.216,1.55,6.373.417,7.563-3.693,1.727-11.811.2-15.484-2.322-3.037-2.084-4.229-6.551-.178-12.268Z" transform="translate(-150.063 -51.165)" fill="#6e6cf5"/>
      <path id="Trazado_115167" data-name="Trazado 115167" d="M936.756,417.472H919.786a55.409,55.409,0,0,1-1.618-26.334,10.785,10.785,0,0,1,4.729-1.9l7.088-.193a18.343,18.343,0,0,1,5.546,1.333c1.708,5.172,4.364,9.46,4.261,12.218s-4.027,9.133-3.035,14.882Z" transform="translate(-143.109 -50.57)" fill="#b3009d"/>
      <path id="Trazado_115168" data-name="Trazado 115168" d="M940.143,425.942h11.629a.707.707,0,0,0,.7-.606l2.106-14.209a.709.709,0,0,0-.7-.813H942.248a.707.707,0,0,0-.7.606l-2.105,14.208A.708.708,0,0,0,940.143,425.942Z" transform="translate(-149.922 -57.117)" fill="#2b1710"/>
      <path id="Trazado_115169" data-name="Trazado 115169" d="M953.117,409.6h-5.934a.508.508,0,0,0-.508.508v.906a.508.508,0,0,0,.508.508h5.934a.508.508,0,0,0,.508-.508v-.906A.508.508,0,0,0,953.117,409.6Z" transform="translate(-152.15 -56.898)" fill="#ababab"/>
      <path id="Trazado_115170" data-name="Trazado 115170" d="M950.512,408.594a.887.887,0,1,0,.887-.887A.887.887,0,0,0,950.512,408.594Z" transform="translate(-153.331 -56.315)" fill="#ababab"/>
      <path id="Trazado_115171" data-name="Trazado 115171" d="M917.616,419.878c4.571.363,11.74-.156,11.894-.935s.96-2.027,1.947-2a16.719,16.719,0,0,1,2.123.228l-.305,1.513s5.687,1.325,5.714,1.87-1.144,1.012-1.144,1.012c-.311.726-.649.831-.649.831-.624,1.194-4.675,1.636-5.869,1.455-1.922.676-12.985,4.232-15.271,4.078S917.616,419.878,917.616,419.878Z" transform="translate(-142.504 -59.158)" fill="#ff8762"/>
      <path id="Trazado_115172" data-name="Trazado 115172" d="M913.791,392.069c2.181,3.948.831,12.88-.468,14.025s-1.765,5.246.209,5.246c-.312,2.39-2.909,9.556-2.909,9.556-3.22-.572-8.206-1.507-7.48-10.441S909.116,392.847,913.791,392.069Z" transform="translate(-138.731 -51.502)" fill="#6e6cf5"/>
      <path id="Trazado_115173" data-name="Trazado 115173" d="M912.553,429.426l2.63.629a.18.18,0,0,0,.217-.133l2.745-11.472a.179.179,0,0,0-.133-.216l-2.63-.63a.18.18,0,0,0-.217.133l-2.745,11.472A.181.181,0,0,0,912.553,429.426Z" transform="translate(-141.606 -59.36)" fill="#b3009d"/>
      <g id="Grupo_81473" data-name="Grupo 81473" transform="translate(790.355 361.89)">
        <path id="Trazado_115174" data-name="Trazado 115174" d="M944.164,423.341c.425,0,.828-.017,1.2-.053a.078.078,0,0,0,.072-.086.079.079,0,0,0-.08-.071q-.559.052-1.192.052a20.664,20.664,0,0,1-3.417-.311h0a.083.083,0,0,0-.089.064.08.08,0,0,0,.064.093A20.842,20.842,0,0,0,944.164,423.341Z" transform="translate(-940.651 -422.872)" fill="#e0b3a8"/>
      </g>
      <g id="Grupo_81474" data-name="Grupo 81474" transform="translate(791.339 362.929)">
        <path id="Trazado_115175" data-name="Trazado 115175" d="M942.158,425.128a12.719,12.719,0,0,0,2.9-.6.08.08,0,0,0,.046-.04.074.074,0,0,0,0-.06.08.08,0,0,0-.076-.054.1.1,0,0,0-.025,0,12.451,12.451,0,0,1-2.863.593.081.081,0,0,0-.076.085.079.079,0,0,0,.08.076h0Z" transform="translate(-942.073 -424.373)" fill="#e0b3a8"/>
      </g>
      <path id="Trazado_115176" data-name="Trazado 115176" d="M931.147,380.124s.155,2.624,2.5,2.938c-.286.344,2.088,6.866-.232,6.866s-8.048-5.644-9.309-6.676a4.812,4.812,0,0,1,1.493-.327c.889-.057,1.146-.4,1.317-1.489a13.2,13.2,0,0,0-.4-4.385c-.9.1-1-.746-1.018-1.074s.172-.372.5-.516.159-.746-.014-1.146,1.045-.658,1.275-1-.357-.917.071-1.074a.729.729,0,0,0,.96-.775c-.084-.344-.214-1.018.545-.918s1.447-.5.889-1.476a3.835,3.835,0,0,1,2.751,2.306,19.877,19.877,0,0,1,.743,4.171c.073,1.045.224,4.339-2.079,4.578Z" transform="translate(-145.206 -44.424)" fill="#ff8762"/>
      <g id="Grupo_81475" data-name="Grupo 81475" transform="translate(783.627 331.829)">
        <path id="Trazado_115177" data-name="Trazado 115177" d="M933.977,379.761c-.2-.585-2.353-.257-3.044.2.755,1.267,1.571,1.6,2.258,1.447s.931-1.153.86-1.383A2.242,2.242,0,0,1,933.977,379.761Z" transform="translate(-930.933 -379.447)" fill="#e0b3a8"/>
      </g>
      <path id="Trazado_115178" data-name="Trazado 115178" d="M933.447,377.125h.006c.989-.153.989-.224.989-.263s-.016-.044-.1-.154c-.32-.39-1.3-1.578-.633-2.6a.041.041,0,0,0-.014-.06.041.041,0,0,0-.06.013c-.7,1.08.309,2.306.641,2.709l.071.089a6.144,6.144,0,0,1-.9.186.045.045,0,0,0-.037.05.044.044,0,0,0,.043.037Z" transform="translate(-148.061 -45.952)" fill="#2b1710"/>
      <g id="Grupo_81476" data-name="Grupo 81476" transform="translate(781.519 332.705)">
        <path id="Trazado_115179" data-name="Trazado 115179" d="M931.332,383.589a.044.044,0,0,0,.016-.085,6.544,6.544,0,0,1-3.377-2.768.044.044,0,0,0-.06-.019.045.045,0,0,0-.019.06,6.637,6.637,0,0,0,3.425,2.81Z" transform="translate(-927.887 -380.712)" fill="#e0b3a8"/>
      </g>
      <path id="Trazado_115180" data-name="Trazado 115180" d="M930.1,375.835c0,.332.156.6.352.6s.351-.269.351-.6-.156-.6-.351-.6S930.1,375.5,930.1,375.835Z" transform="translate(-147.049 -46.32)" fill="#2b1710"/>
      <path id="Trazado_115181" data-name="Trazado 115181" d="M934.2,375.526c0,.332.156.6.352.6s.352-.269.352-.6-.156-.6-.352-.6S934.2,375.192,934.2,375.526Z" transform="translate(-148.31 -46.225)" fill="#2b1710"/>
      <path id="Trazado_115182" data-name="Trazado 115182" d="M930.885,374a5.107,5.107,0,0,0-2.235.574A1.428,1.428,0,0,1,930.885,374Z" transform="translate(-146.603 -45.836)" fill="#2b1710"/>
      <path id="Trazado_115183" data-name="Trazado 115183" d="M935.682,373.735a2.507,2.507,0,0,0-1.59.058A.906.906,0,0,1,935.682,373.735Z" transform="translate(-148.278 -45.723)" fill="#2b1710"/>
      <path id="Trazado_115184" data-name="Trazado 115184" d="M933.914,379.82a7.514,7.514,0,0,0-2.981.23,3.141,3.141,0,0,0,1.9,1.136C933.645,381.186,934.361,379.963,933.914,379.82Z" transform="translate(-147.305 -47.711)" fill="#3f1710"/>
      <path id="Trazado_115185" data-name="Trazado 115185" d="M931.137,379.979a8.59,8.59,0,0,1,2.839-.159.17.17,0,0,1,.064.035A2.816,2.816,0,0,1,931.137,379.979Z" transform="translate(-147.368 -47.711)" fill="#fff"/>
      <g id="Grupo_81477" data-name="Grupo 81477" transform="translate(785.012 333.956)">
        <path id="Trazado_115186" data-name="Trazado 115186" d="M933.494,382.776a1.334,1.334,0,0,0,.681-.176.044.044,0,0,0,.015-.06.044.044,0,0,0-.06-.016,1.324,1.324,0,0,1-1.132.07.044.044,0,0,0-.06.019.045.045,0,0,0,.019.06A1.329,1.329,0,0,0,933.494,382.776Z" transform="translate(-932.933 -382.519)" fill="#e0b3a8"/>
      </g>
      <path id="Trazado_115187" data-name="Trazado 115187" d="M1077.47,575.192c-5.385-1.88-8.445-5.38-8.251-5.907a32.706,32.706,0,0,0,1.364-4.623c-.083-.45-1.834-1.142-1.994-1.373a2.9,2.9,0,0,1-.215-.984,1.063,1.063,0,0,0-1.2,1.113,3.421,3.421,0,0,0,.865,1.6l-1.945,5.08c-1.115,2.334,4.583,11.006,8.327,12.686,3.357.182,3.046-7.592,3.046-7.592Z" transform="translate(-188.862 -103.894)" fill="#ff8762"/>
      <path id="Trazado_115188" data-name="Trazado 115188" d="M1082.989,581.553c.1-1.466-1.488-2.774-3.392-1.128s-4.167,6.054-3.3,7.766c.817,1.607,2.63.9,3.094.419s3.6-7.059,3.6-7.059Z" transform="translate(-191.986 -109.237)" fill="#b3009d"/>
      <path id="Trazado_115189" data-name="Trazado 115189" d="M1099.943,579.828c-5.24.584-10.37,4.11-17.548,1.279-3.8,2.426-3.98,6.072-3.24,7.733,3.212,3.17,12.245,4.586,17.008,3.321C1100.11,591.113,1102.048,587.292,1099.943,579.828Z" transform="translate(-192.818 -109.289)" fill="#6e6cf5"/>
      <path id="Trazado_115190" data-name="Trazado 115190" d="M1107.2,579.573a12.11,12.11,0,0,0-2.769.1c-4.368,4.449-9.553,20.873-10.349,27.4,8.411.692,24.519.682,24.519.682,1.385-10.086,1.052-25.18,1.052-25.18-1.744-1.913-5.206-2.8-5.206-2.8l-7.254-.2Z" transform="translate(-197.518 -109.202)" fill="#b3009d"/>
      <path id="Trazado_115191" data-name="Trazado 115191" d="M1092.37,621.777c8.473.753,21.459-.564,25.446.887.166-1.509.228-2.633.249-3.093-4.79-1.559-16.946-.928-24.747-1.5l-.948,3.709Z" transform="translate(-196.992 -121.058)" fill="#2b1710"/>
      <path id="Trazado_115192" data-name="Trazado 115192" d="M1116.274,556.369c-.263-.946-.948-.262-.948-.262-2.208-2.21-5.469-.632-5.261,1.474-1.419-.736-2.16,1.947-1.37,2.736-1.841,1-1,3.683.9,3.894.526.842,6.154,3.577,6.729,4.157,2.686.842,2.893-.473,2.893-.946A2.84,2.84,0,0,0,1120.9,563c.838-1.631-.056-2.525-.374-2.579.8-3-3.2-4.63-4.257-4.051Z" transform="translate(-201.7 -101.659)" fill="#2b1710"/>
      <path id="Trazado_115193" data-name="Trazado 115193" d="M1117.907,563.838s-.18,1.586-.3,2.287.284,1.82,1.191,1.2l-.194,1.854s-.526,4.679,1.211,5.579c-2.88,3.152-8.251,2.493-7.621-.209,1.142,0,1.177-.415,1.177-1.559-2.776-.485-2.492-2.668-2.672-5.855a22.6,22.6,0,0,1,0-4.227,7.549,7.549,0,0,0,6.016-.014c.028,1.509,1.2.949,1.2.949Z" transform="translate(-202.6 -104.076)" fill="#ff8762"/>
      <path id="Trazado_115194" data-name="Trazado 115194" d="M1112.522,566.948c0,.393-.173.711-.395.711s-.388-.318-.388-.711.173-.711.388-.711S1112.522,566.556,1112.522,566.948Z" transform="translate(-202.953 -105.106)" fill="#2b1710"/>
      <path id="Trazado_115195" data-name="Trazado 115195" d="M1116.9,567.1c0,.393-.173.711-.395.711s-.388-.318-.388-.711.173-.711.388-.711S1116.9,566.7,1116.9,567.1Z" transform="translate(-204.301 -105.152)" fill="#2b1710"/>
      <g id="Grupo_81478" data-name="Grupo 81478" transform="translate(912.047 462.203)">
        <path id="Trazado_115196" data-name="Trazado 115196" d="M1116.547,568.582h-.035a.067.067,0,0,1-.062-.069.068.068,0,0,1,.069-.064.637.637,0,0,0,.671-.6.069.069,0,0,1,.138.01.776.776,0,0,1-.782.724Z" transform="translate(-1116.45 -567.786)" fill="#e0b3a8"/>
      </g>
      <path id="Trazado_115197" data-name="Trazado 115197" d="M1111.585,569.3a8.284,8.284,0,0,1-1.509-.651.108.108,0,0,1-.007-.066c.021-.095.242-.226,1.059-.657a7.414,7.414,0,0,0,1.225-.723,2.172,2.172,0,0,0,.325-1.246.07.07,0,0,1,.069-.066.066.066,0,0,1,.062.068,2.27,2.27,0,0,1-.353,1.321,5.621,5.621,0,0,1-1.267.765,10.025,10.025,0,0,0-.976.552,13.254,13.254,0,0,0,1.419.577.072.072,0,0,1,.042.085.066.066,0,0,1-.083.041Z" transform="translate(-202.438 -105.001)" fill="#2b1710"/>
      <path id="Trazado_115198" data-name="Trazado 115198" d="M1115.719,569.939c-.194.28-.395.479-.443.446s.076-.286.27-.566.388-.479.436-.447S1115.913,569.658,1115.719,569.939Z" transform="translate(-204.039 -106.07)" fill="#ea5e86"/>
      <path id="Trazado_115199" data-name="Trazado 115199" d="M1116.561,569.958c-.194.28-.388.479-.436.446s.076-.286.27-.566.388-.479.436-.446S1116.755,569.678,1116.561,569.958Z" transform="translate(-204.3 -106.076)" fill="#ea5e86"/>
      <path id="Trazado_115200" data-name="Trazado 115200" d="M1117.448,569.939c-.2.28-.395.479-.443.446s.076-.286.27-.566.388-.479.436-.447S1117.635,569.658,1117.448,569.939Z" transform="translate(-204.57 -106.07)" fill="#ea5e86"/>
      <g id="Grupo_81479" data-name="Grupo 81479" transform="translate(909.593 465.946)">
        <path id="Trazado_115201" data-name="Trazado 115201" d="M1113.663,573.445a2.05,2.05,0,0,1-.713-.123.067.067,0,0,1-.041-.085.063.063,0,0,1,.083-.039,2.032,2.032,0,0,0,1.066.075.07.07,0,0,1,.083.048.067.067,0,0,1-.048.079,1.957,1.957,0,0,1-.429.043Z" transform="translate(-1112.904 -573.194)" fill="#e0b3a8"/>
      </g>
      <path id="Trazado_115202" data-name="Trazado 115202" d="M1123,570.932a1.2,1.2,0,1,0-1.2-1.2A1.195,1.195,0,0,0,1123,570.932Z" transform="translate(-206.049 -105.815)" fill="#ff8762"/>
      <g id="Grupo_81480" data-name="Grupo 81480" transform="translate(916.31 463.256)">
        <path id="Trazado_115203" data-name="Trazado 115203" d="M1123,570.622a.078.078,0,0,1-.069-.048.076.076,0,0,1,.042-.1.239.239,0,0,0,.166-.191.259.259,0,0,0-.125-.226.276.276,0,0,0-.291-.011.074.074,0,0,1-.076,0,.063.063,0,0,1-.035-.071.684.684,0,0,1,.512-.622.722.722,0,0,1,.81.24.079.079,0,0,1-.014.112.077.077,0,0,1-.111-.017.572.572,0,0,0-.637-.181.547.547,0,0,0-.381.355.418.418,0,0,1,.312.068.412.412,0,0,1,.194.372.385.385,0,0,1-.263.323.1.1,0,0,1-.035.006Z" transform="translate(-1122.607 -569.306)" fill="#e0b3a8"/>
      </g>
      <path id="Trazado_115204" data-name="Trazado 115204" d="M1117.238,565.6h-.014a10.125,10.125,0,0,0-2.042-.251.044.044,0,0,1-.041-.042c0-.024.035-.019.041-.043.249-1.066,2.056.249,2.063.253.028.006.035.029.035.052a.053.053,0,0,1-.048.033Z" transform="translate(-203.999 -104.679)" fill="#2b1710"/>
      <path id="Trazado_115205" data-name="Trazado 115205" d="M1110.831,565.444a.051.051,0,0,1-.042-.033c-.007-.023.014-.035.035-.053,1-1.029,1.294-.167,1.3-.167a.044.044,0,0,1,.048.04.045.045,0,0,1-.042.044,9.188,9.188,0,0,0-1.294.166h-.007Z" transform="translate(-202.66 -104.68)" fill="#2b1710"/>
      <path id="Trazado_115206" data-name="Trazado 115206" d="M1112.15,571.81l3.094.021C1114.261,572.691,1112.378,572.606,1112.15,571.81Z" transform="translate(-203.079 -106.821)" fill="#fff"/>
      <path id="Trazado_115207" data-name="Trazado 115207" d="M1120.338,568.668a.783.783,0,0,0,.914.815C1120.6,569.885,1120.068,569.379,1120.338,568.668Z" transform="translate(-205.577 -105.854)" fill="#2b1710"/>
      <path id="Trazado_115208" data-name="Trazado 115208" d="M1094.208,609.434c-5,1.6-9.186.714-9.338.222a27.376,27.376,0,0,0-1.807-3.964c-.311-.284-1.973.174-2.222.093a2.772,2.772,0,0,1-.706-.606.979.979,0,0,0-.263,1.481,3.177,3.177,0,0,0,1.523.7c-1.779,1.895-7.67.631-8.2,1.263s.581,1.526,1.211,1.526a3.788,3.788,0,0,0,1.945,1.685c.789,1.157,1.578,1.157,3.316,1.209.145,0,.284,0,.415-.01a9.055,9.055,0,0,1,5.2,1.1c3.018,1.719,8.272,3.16,10.882,2.569,2.568-1.727-1.959-7.267-1.959-7.267Z" transform="translate(-191.049 -117.091)" fill="#ff8762"/>
      <path id="Trazado_115209" data-name="Trazado 115209" d="M1105.509,610.145c-.734-1.136-2.624-1.219-3.115,1.047s.284,6.755,1.869,7.534a1.806,1.806,0,0,0,2.506-1.4c.076-.608-1.26-7.18-1.26-7.18Z" transform="translate(-200.031 -118.38)" fill="#b3009d"/>
      <path id="Trazado_115210" data-name="Trazado 115210" d="M1122.061,582.945c-3.53,3.33-10.4,17.6-17.243,19.491-1.454,3.887.436,6.665,1.9,7.478,4.119.554,10.868-4.055,14.343-6.97C1128.533,596.678,1127.737,587.268,1122.061,582.945Z" transform="translate(-200.662 -110.248)" fill="#6e6cf5"/>
      <g id="Grupo_81481" data-name="Grupo 81481" transform="translate(883.52 492.773)">
        <path id="Trazado_115211" data-name="Trazado 115211" d="M1077.524,612.417a14.337,14.337,0,0,1-2.2-.162.1.1,0,0,1-.083-.116.1.1,0,0,1,.118-.084,15.919,15.919,0,0,0,5.116-.1.106.106,0,0,1,.125.077.109.109,0,0,1-.076.12,16.2,16.2,0,0,1-3,.269Z" transform="translate(-1075.239 -611.948)" fill="#e0b3a8"/>
      </g>
      <g id="Grupo_81482" data-name="Grupo 81482" transform="translate(885.44 494.298)">
        <path id="Trazado_115212" data-name="Trazado 115212" d="M1080.226,614.793a4.983,4.983,0,0,1-2.153-.45.1.1,0,0,1-.048-.136.1.1,0,0,1,.138-.046,5.476,5.476,0,0,0,3.115.334.1.1,0,0,1,.042.2,5.613,5.613,0,0,1-1.094.1Z" transform="translate(-1078.012 -614.151)" fill="#e0b3a8"/>
      </g>
      <path id="Trazado_115213" data-name="Trazado 115213" d="M1120.052,714.977l-.748,4.556a13.558,13.558,0,0,1,.554,5.669l-18.628.073c2-3.777,10.736-4.088,11.65-5.9s1.3-7.161,1.3-7.161l5.87,2.759Z" transform="translate(-199.718 -150.035)" fill="#ff8762"/>
      <path id="Trazado_115214" data-name="Trazado 115214" d="M1115.884,721.506c.028-.653-.464-3-2.153-3.69a13.232,13.232,0,0,1-.851,3.288c-.914,1.808-9.65,2.119-11.65,5.9l18.621-.073a13.626,13.626,0,0,0-.547-5.67s-3.357,1.428-3.42.251Z" transform="translate(-199.718 -151.758)" fill="#2b1710"/>
      <path id="Trazado_115215" data-name="Trazado 115215" d="M1101.728,730a3.82,3.82,0,0,0-.5.721l18.621-.073s.042-.28.062-.738l-18.185.089Z" transform="translate(-199.718 -155.48)" fill="#693e2f"/>
      <path id="Trazado_115216" data-name="Trazado 115216" d="M1119.231,723.245a.1.1,0,0,1-.1-.072,1.982,1.982,0,0,0-.824-1,.894.894,0,0,0-.727.015.1.1,0,0,1-.139-.056.1.1,0,0,1,.055-.141,1.09,1.09,0,0,1,.893-.016,2.165,2.165,0,0,1,.942,1.126.115.115,0,0,1-.069.137.057.057,0,0,1-.035.006Z" transform="translate(-204.705 -153.011)" fill="#693e2f"/>
      <path id="Trazado_115217" data-name="Trazado 115217" d="M1116.692,725.04a.105.105,0,0,1-.1-.071,1.946,1.946,0,0,0-.824-1,.892.892,0,0,0-.727.016.106.106,0,0,1-.138-.056.109.109,0,0,1,.055-.141,1.091,1.091,0,0,1,.893-.015,2.122,2.122,0,0,1,.941,1.126.105.105,0,0,1-.062.137.079.079,0,0,1-.042.005Z" transform="translate(-203.925 -153.563)" fill="#693e2f"/>
      <path id="Trazado_115218" data-name="Trazado 115218" d="M1112.522,726.24a.1.1,0,0,1-.1-.071,1.943,1.943,0,0,0-.824-1,.875.875,0,0,0-.72.016.114.114,0,0,1-.145-.056.109.109,0,0,1,.055-.141,1.09,1.09,0,0,1,.893-.015,2.123,2.123,0,0,1,.941,1.126.105.105,0,0,1-.062.137.108.108,0,0,1-.042.006Z" transform="translate(-202.642 -153.932)" fill="#693e2f"/>
      <path id="Trazado_115219" data-name="Trazado 115219" d="M1087.756,714.973l-.761,4.553a13.645,13.645,0,0,1,.533,5.671l-18.628.017c2.014-3.771,10.75-4.057,11.671-5.861s1.322-7.155,1.322-7.155l5.863,2.776Z" transform="translate(-189.768 -150.029)" fill="#ff8762"/>
      <path id="Trazado_115220" data-name="Trazado 115220" d="M1083.568,721.486c.035-.651-.45-3-2.139-3.7a13.134,13.134,0,0,1-.858,3.284c-.921,1.8-9.656,2.091-11.671,5.861l18.628-.017a13.644,13.644,0,0,0-.533-5.671s-3.364,1.418-3.427.242Z" transform="translate(-189.768 -151.749)" fill="#2b1710"/>
      <path id="Trazado_115221" data-name="Trazado 115221" d="M1069.4,729.946a4.488,4.488,0,0,0-.5.721l18.628-.017s.035-.28.062-.738Z" transform="translate(-189.768 -155.481)" fill="#693e2f"/>
      <path id="Trazado_115222" data-name="Trazado 115222" d="M1086.924,723.221a.105.105,0,0,1-.1-.071,1.905,1.905,0,0,0-.824-1,.886.886,0,0,0-.72.013.108.108,0,0,1-.083-.2,1.1,1.1,0,0,1,.893-.014,2.073,2.073,0,0,1,.934,1.128.106.106,0,0,1-.062.137.144.144,0,0,1-.042.006Z" transform="translate(-194.765 -153.002)" fill="#693e2f"/>
      <path id="Trazado_115223" data-name="Trazado 115223" d="M1084.382,725.007a.105.105,0,0,1-.1-.071,1.983,1.983,0,0,0-.824-1,.9.9,0,0,0-.727.013.1.1,0,0,1-.138-.057.109.109,0,0,1,.055-.141,1.1,1.1,0,0,1,.893-.014,2.133,2.133,0,0,1,.941,1.128.109.109,0,0,1-.069.137.144.144,0,0,1-.042.006Z" transform="translate(-193.981 -153.552)" fill="#693e2f"/>
      <path id="Trazado_115224" data-name="Trazado 115224" d="M1080.206,726.2a.1.1,0,0,1-.09-.071,1.984,1.984,0,0,0-.824-1,.9.9,0,0,0-.727.013.1.1,0,0,1-.138-.057.108.108,0,0,1,.055-.141,1.1,1.1,0,0,1,.893-.014,2.135,2.135,0,0,1,.941,1.128.116.116,0,0,1-.069.137.143.143,0,0,1-.042.006Z" transform="translate(-192.698 -153.918)" fill="#693e2f"/>
      <path id="Trazado_115225" data-name="Trazado 115225" d="M1083.99,691.506h9.387l7.545-33.523,4.188,33.523h9.47c.249-13.744,5.109-55.425.3-68.164h-24.989C1087.05,651.945,1083.99,691.506,1083.99,691.506Z" transform="translate(-194.412 -122.681)" fill="#5553bd"/>
      <g id="Grupo_81483" data-name="Grupo 81483" transform="translate(903.214 505.024)">
        <path id="Trazado_115226" data-name="Trazado 115226" d="M1106.985,658.521a.114.114,0,0,1-.111-.1l-1.253-22.215-1.848-.483a.108.108,0,0,1-.083-.111l.422-5.867a.1.1,0,0,1,.111-.1.112.112,0,0,1,.1.114l-.415,5.778,1.841.48a.1.1,0,0,1,.076.1l1.26,22.292a.107.107,0,0,1-.1.111Z" transform="translate(-1103.69 -629.645)" fill="#e0c9c0"/>
      </g>
      <g id="Grupo_81484" data-name="Grupo 81484" transform="translate(890.083 566.987)">
        <path id="Trazado_115227" data-name="Trazado 115227" d="M1093.1,719.371h-8.265a.106.106,0,1,1,0-.213h8.265a.106.106,0,1,1,0,.213Z" transform="translate(-1084.72 -719.158)" fill="#e0c9c0"/>
      </g>
      <g id="Grupo_81485" data-name="Grupo 81485" transform="translate(911.092 567.155)">
        <path id="Trazado_115228" data-name="Trazado 115228" d="M1123.224,719.614h-8.044a.106.106,0,1,1,0-.213h8.044a.1.1,0,0,1,.1.107A.106.106,0,0,1,1123.224,719.614Z" transform="translate(-1115.07 -719.401)" fill="#e0c9c0"/>
      </g>
      <g id="Grupo_81486" data-name="Grupo 81486" transform="translate(913.944 502.119)">
        <path id="Trazado_115229" data-name="Trazado 115229" d="M1124.042,632.535h-.007c-1.08-.106-4.631-.921-4.846-6.976a.111.111,0,0,1,.1-.11.108.108,0,0,1,.111.1c.138,3.968,1.876,6.5,4.652,6.769a.11.11,0,0,1,.1.118A.111.111,0,0,1,1124.042,632.535Z" transform="translate(-1119.19 -625.449)" fill="#e0c9c0"/>
      </g>
      <g id="Grupo_81487" data-name="Grupo 81487" transform="translate(918.856 502.957)">
        <path id="Trazado_115230" data-name="Trazado 115230" d="M1126.455,689.842h-.007a.1.1,0,0,1-.1-.11c.014-.539,1.6-54.064-.055-62.944a.106.106,0,0,1,.083-.125.112.112,0,0,1,.131.085c1.655,8.9.069,62.449.056,62.991A.105.105,0,0,1,1126.455,689.842Z" transform="translate(-1126.286 -626.66)" fill="#e0c9c0"/>
      </g>
      <path id="Trazado_115231" data-name="Trazado 115231" d="M1190.292,568.614a3.27,3.27,0,0,0,3.78-4.352c.235-4.385-1.634-8.7-8.2-6.357-3.26.407-4.52,4.724-1.834,5.847a54.707,54.707,0,0,0,6.258,4.862Z" transform="translate(-224.756 -102.338)" fill="#2b1710"/>
      <path id="Trazado_115232" data-name="Trazado 115232" d="M1188.282,570.98a3.471,3.471,0,0,1-1.53,3.875c.055,5.507,8.106-.23,8.085-1.045,0-.1-1.481-.433-2.014-1.378s-.789-3.34-.588-6.553c-1.253.332-1.682-.662-1.71-2.372s-.838-4.437-4.153-4c-1.253,1.53-1.911,2.5-1.807,4.488a35.368,35.368,0,0,0,.118,4.352,3.537,3.537,0,0,0,3.606,2.635Z" transform="translate(-225.363 -103.02)" fill="#ff8762"/>
      <g id="Grupo_81488" data-name="Grupo 81488" transform="translate(960.469 464.619)">
        <path id="Trazado_115233" data-name="Trazado 115233" d="M1189.169,571.518c-1.26-.382-2.644-.288-2.769.118A4.266,4.266,0,0,0,1189.169,571.518Z" transform="translate(-1186.4 -571.277)" fill="#e0b3a8"/>
      </g>
      <path id="Trazado_115234" data-name="Trazado 115234" d="M1197.145,569.259a1.018,1.018,0,1,1-1.018-1.018A1.018,1.018,0,0,1,1197.145,569.259Z" transform="translate(-228.612 -105.723)" fill="#ff8762"/>
      <g id="Grupo_81489" data-name="Grupo 81489" transform="translate(966.969 462.973)">
        <path id="Trazado_115235" data-name="Trazado 115235" d="M1196.115,569.99a.07.07,0,0,1-.062-.04.066.066,0,0,1,.035-.087c.09-.039.139-.093.146-.159a.21.21,0,0,0-.1-.187.232.232,0,0,0-.242-.01.074.074,0,0,1-.069,0,.087.087,0,0,1-.028-.06.571.571,0,0,1,.429-.517.6.6,0,0,1,.671.2.069.069,0,0,1-.014.093.064.064,0,0,1-.09-.014.484.484,0,0,0-.533-.152.459.459,0,0,0-.318.3.369.369,0,0,1,.429.367.324.324,0,0,1-.221.269.066.066,0,0,1-.028.006Z" transform="translate(-1195.79 -568.898)" fill="#e0b3a8"/>
      </g>
      <g id="Grupo_81490" data-name="Grupo 81490" transform="translate(963.063 464.255)">
        <path id="Trazado_115236" data-name="Trazado 115236" d="M1190.211,574.451s.014,0,.014,0a5,5,0,0,0,3.447-3.618.068.068,0,0,0-.048-.079.062.062,0,0,0-.076.048,4.866,4.866,0,0,1-3.357,3.522.066.066,0,0,0-.042.081A.065.065,0,0,0,1190.211,574.451Z" transform="translate(-1190.147 -570.75)" fill="#e0b3a8"/>
      </g>
      <path id="Trazado_115237" data-name="Trazado 115237" d="M1191.6,565.257a.067.067,0,0,0,.055-.033.061.061,0,0,0-.028-.089,3.366,3.366,0,0,0-2.277-.4.065.065,0,1,0,.042.123,3.277,3.277,0,0,1,2.173.385.079.079,0,0,0,.035.008Z" transform="translate(-226.826 -104.626)" fill="#2b1710"/>
      <path id="Trazado_115238" data-name="Trazado 115238" d="M1184.9,565.423a.071.071,0,0,0,.055-.027c.014-.013.277-.352,1.115-.247a.065.065,0,0,0,.069-.056.065.065,0,0,0-.055-.073c-.9-.112-1.2.255-1.232.3a.066.066,0,0,0,.014.091.07.07,0,0,0,.042.013Z" transform="translate(-225.452 -104.725)" fill="#2b1710"/>
      <path id="Trazado_115239" data-name="Trazado 115239" d="M1186.72,569.135a.057.057,0,0,0,.048-.025.066.066,0,0,0-.007-.091,6.355,6.355,0,0,1-.8-.713,1.958,1.958,0,0,1,.277-.015,1.6,1.6,0,0,0,.665-.1c.346-.2.007-1.669-.3-2.361a.068.068,0,0,0-.09-.033.063.063,0,0,0-.028.087c.353.805.561,2.077.346,2.194a1.533,1.533,0,0,1-.6.081c-.263.006-.422.008-.422.127s.464.522.859.833a.057.057,0,0,0,.041.013Z" transform="translate(-225.753 -104.97)" fill="#2b1710"/>
      <path id="Trazado_115240" data-name="Trazado 115240" d="M1187.388,571.974a4.66,4.66,0,0,0,1.841-.314.058.058,0,0,0,.028-.086.065.065,0,0,0-.09-.029,4.968,4.968,0,0,1-2.81.172.069.069,0,0,0-.09.026.067.067,0,0,0,.028.089,2.926,2.926,0,0,0,1.094.143Z" transform="translate(-225.888 -106.737)" fill="#2b1710"/>
      <g id="Grupo_81491" data-name="Grupo 81491" transform="translate(960.98 466.221)">
        <path id="Trazado_115241" data-name="Trazado 115241" d="M1187.984,573.886a1.322,1.322,0,0,0,.713-.176.063.063,0,0,0,.021-.091.066.066,0,0,0-.09-.019,1.772,1.772,0,0,1-1.385.021.066.066,0,0,0-.09.012.063.063,0,0,0,.007.089,1.862,1.862,0,0,0,.824.163Z" transform="translate(-1187.139 -573.59)" fill="#e0b3a8"/>
      </g>
      <path id="Trazado_115242" data-name="Trazado 115242" d="M1189.98,567.15c0,.387.18.7.395.7s.395-.314.395-.7-.173-.7-.395-.7S1189.98,566.764,1189.98,567.15Z" transform="translate(-227.033 -105.171)" fill="#2b1710"/>
      <g id="Grupo_81492" data-name="Grupo 81492" transform="translate(963.362 462.326)">
        <path id="Trazado_115243" data-name="Trazado 115243" d="M1190.649,568.558c.132,0,.436-.058.533-.554a.03.03,0,0,0-.028-.039.029.029,0,0,0-.035.025c-.1.483-.381.51-.505.5-.014,0-.028.012-.035.029a.036.036,0,0,0,.035.035h.035Z" transform="translate(-1190.58 -567.964)" fill="#e0b3a8"/>
      </g>
      <path id="Trazado_115244" data-name="Trazado 115244" d="M1185.66,567.273c0,.386.18.7.395.7s.395-.315.395-.7-.173-.7-.395-.7S1185.66,566.887,1185.66,567.273Z" transform="translate(-225.704 -105.209)" fill="#2b1710"/>
      <g id="Grupo_81493" data-name="Grupo 81493" transform="translate(960.372 462.411)">
        <path id="Trazado_115245" data-name="Trazado 115245" d="M1186.329,568.68c.131,0,.436-.058.533-.554.007-.017-.007-.035-.028-.038a.028.028,0,0,0-.035.025c-.1.482-.381.509-.505.5-.014,0-.028.011-.035.028a.036.036,0,0,0,.035.035h.035Z" transform="translate(-1186.26 -568.087)" fill="#e0b3a8"/>
      </g>
      <path id="Trazado_115246" data-name="Trazado 115246" d="M1191.17,569.574c.152.208.263.4.229.417s-.173-.131-.332-.34-.256-.4-.229-.417S1191.018,569.365,1191.17,569.574Z" transform="translate(-227.296 -106.028)" fill="#ea5e86"/>
      <path id="Trazado_115247" data-name="Trazado 115247" d="M1190.59,569.649c.159.208.263.4.235.417s-.18-.131-.332-.34-.263-.4-.235-.417S1190.438,569.441,1190.59,569.649Z" transform="translate(-227.117 -106.051)" fill="#ea5e86"/>
      <path id="Trazado_115248" data-name="Trazado 115248" d="M1189.96,569.71c.152.209.256.4.228.417s-.18-.132-.332-.34-.256-.4-.228-.417S1189.8,569.5,1189.96,569.71Z" transform="translate(-226.924 -106.07)" fill="#ea5e86"/>
      <path id="Trazado_115249" data-name="Trazado 115249" d="M1199.4,661.3c-.381-.856,1.516-14.446.851-17.391l-11.4.094s1.516,16.917,1.516,19.009c0,1.594,2.983,19.588,3.821,28.053a16.465,16.465,0,0,1-.152,4.518,4.2,4.2,0,0,1-.27,1.038c-.36.74-2.983,3.3-4.174,5.507-.111.268-2.831.709-2.416,1.33.249.136,4.991.487,5.517-.025a7.31,7.31,0,0,1,3.2-2.08,21.486,21.486,0,0,1,.1,2.3h2.056s.228-2.03.318-2.642.782-1.549.3-2.492a11,11,0,0,1-.865-5.27c.955-7.167,3.731-27.29,1.6-31.947Z" transform="translate(-226.155 -129.012)" fill="#ff8762"/>
      <path id="Trazado_115250" data-name="Trazado 115250" d="M1189.571,726a7.068,7.068,0,0,0,2.125.136c.443-.2,3.357-3.843,6.569-4.75a6.757,6.757,0,0,0,.388.981c.478.943-.214,1.878-.3,2.492s-.318,2.643-.318,2.643h-2.056a19.882,19.882,0,0,0-.1-2.3,7.259,7.259,0,0,0-3.191,2.081c-.533.512-5.275.16-5.524.025-.395-.6,2.153-1.018,2.4-1.306Z" transform="translate(-226.153 -152.856)" fill="#2b1710"/>
      <path id="Trazado_115251" data-name="Trazado 115251" d="M1182.714,661.3c-.381-.856,3.7-14.446,3.039-17.391l-11.408.094s-.665,16.917-.665,19.009c0,1.594,1.772,19.588,2.61,28.053a16.465,16.465,0,0,1-.152,4.518,4.931,4.931,0,0,1-.27,1.038c-.367.74-2.983,3.3-4.174,5.507-.118.268-2.831.709-2.423,1.33.249.136,4.991.487,5.524-.025a7.282,7.282,0,0,1,3.191-2.08,19.832,19.832,0,0,1,.1,2.3h2.049s.228-2.03.318-2.642.782-1.549.312-2.492a11.07,11.07,0,0,1-.872-5.27c.962-7.167,3.682-28.4,2.817-31.947Z" transform="translate(-220.647 -129.012)" fill="#ff8762"/>
      <path id="Trazado_115252" data-name="Trazado 115252" d="M1201.294,582.258c5.323,4.752,9.421,17.9,8.66,21.2s-8.681,3.1-13.049.253,4.382-21.452,4.382-21.452Z" transform="translate(-228.788 -110.037)" fill="#6e6cf5"/>
      <path id="Trazado_115253" data-name="Trazado 115253" d="M1184.531,579.42a7.154,7.154,0,0,0-3.3,1.9s-7.1,6.02-5.3,9.252,2.284,10.36,2.284,10.36l14.35.189c0-.475,3.9-7.983,4.562-11.785s-1.018-8.712-4.686-9.535a28.658,28.658,0,0,0-7.926-.381Z" transform="translate(-222.622 -109.127)" fill="#b3009d"/>
      <path id="Trazado_115254" data-name="Trazado 115254" d="M1177.027,613.6c-7.033,5.8-3.42,33.549-3.42,33.549h23.473c1.135-18.058.1-30.983-5.607-33.833s-14.447.286-14.447.286Z" transform="translate(-221.709 -119.226)" fill="#5553bd"/>
      <path id="Trazado_115255" data-name="Trazado 115255" d="M1193.531,610.594H1178.96v2.535h14.571Z" transform="translate(-223.642 -118.758)" fill="#2b1710"/>
      <path id="Trazado_115256" data-name="Trazado 115256" d="M1182.038,610.343h-1.018v2.995h1.018Z" transform="translate(-224.276 -118.681)" fill="#5553bd"/>
      <path id="Trazado_115257" data-name="Trazado 115257" d="M1192.975,610.433h-1.025v2.994h1.025Z" transform="translate(-227.64 -118.708)" fill="#5553bd"/>
      <path id="Trazado_115258" data-name="Trazado 115258" d="M1198.925,610.3H1197.9v2.994h1.024Z" transform="translate(-229.471 -118.666)" fill="#5553bd"/>
      <g id="Grupo_81494" data-name="Grupo 81494" transform="translate(969.834 516.394)">
        <path id="Trazado_115259" data-name="Trazado 115259" d="M1200.048,657.194a.121.121,0,0,1-.118-.122V648.71a.111.111,0,0,1,.028-.08l2.187-2.519a.123.123,0,0,1,.173-.011.12.12,0,0,1,.007.172l-2.153,2.484v8.318a.123.123,0,0,1-.125.122Z" transform="translate(-1199.93 -646.07)" fill="#bfbfbf"/>
      </g>
      <g id="Grupo_81495" data-name="Grupo 81495" transform="translate(953.653 495.134)">
        <path id="Trazado_115260" data-name="Trazado 115260" d="M1177.077,647.535a.116.116,0,0,1-.118-.112c-.021-.237-1.917-23.89,2.672-32a.125.125,0,0,1,.166-.046.118.118,0,0,1,.048.166c-4.555,8.048-2.665,31.627-2.644,31.862a.129.129,0,0,1-.111.132h-.014Z" transform="translate(-1176.554 -615.358)" fill="#bfbfbf"/>
      </g>
      <path id="Trazado_115261" data-name="Trazado 115261" d="M1171.673,726a7.1,7.1,0,0,0,2.132.136c.443-.2,3.357-3.843,6.569-4.75a6.756,6.756,0,0,0,.388.981c.478.943-.215,1.878-.3,2.492s-.318,2.643-.318,2.643h-2.056a19.882,19.882,0,0,0-.1-2.3,7.33,7.33,0,0,0-3.2,2.081c-.526.512-5.268.16-5.517.025-.4-.6,2.153-1.018,2.4-1.306Z" transform="translate(-220.647 -152.856)" fill="#2b1710"/>
      <g id="Grupo_81496" data-name="Grupo 81496" transform="translate(959.31 530.029)">
        <path id="Trazado_115262" data-name="Trazado 115262" d="M1186.058,668.722a.064.064,0,0,1-.035-.005,1.957,1.957,0,0,1-1.267-1.5,1.421,1.421,0,0,1,.464-1.416.122.122,0,1,1,.152.19,1.168,1.168,0,0,0-.374,1.18,1.73,1.73,0,0,0,1.094,1.317.122.122,0,0,1,.083.15.125.125,0,0,1-.118.087Z" transform="translate(-1184.726 -665.769)" fill="#e0b3a8"/>
      </g>
      <g id="Grupo_81497" data-name="Grupo 81497" transform="translate(970.902 529.902)">
        <path id="Trazado_115263" data-name="Trazado 115263" d="M1202.807,668.538a.056.056,0,0,1-.035-.006,1.954,1.954,0,0,1-1.267-1.5,1.406,1.406,0,0,1,.464-1.416.121.121,0,1,1,.152.189,1.169,1.169,0,0,0-.374,1.181,1.729,1.729,0,0,0,1.094,1.317.128.128,0,0,1,.083.15.133.133,0,0,1-.118.087Z" transform="translate(-1201.473 -665.585)" fill="#e0b3a8"/>
      </g>
      <path id="Trazado_115264" data-name="Trazado 115264" d="M1190,578.708c.3,2.011,1.807,2.312,8.445,2.414s2.617-7.142.505-8.548.131-11.9-6.438-13.779c0,0,1.336,7.476,1.336,7.677s-.062.77-.062.77l-.471.134-.568.168h-.609l-.2-.437c.035,2.817-8.874,3.937-8.237,7.9,4.25-2.136,4.852-.492,5.053,1.184s.035,3.017,1.239,2.515Z" transform="translate(-225.092 -102.816)" fill="#2b1710"/>
      <path id="Trazado_115265" data-name="Trazado 115265" d="M1175.4,579.253c-3.247,0-11.7,16.468-23.058-3.388h-3.911c.761,5.06,3.15,18.236,15.367,19.668s15.091-5.919,15.658-10.407-1.433-6.873-4.056-5.87Z" transform="translate(-214.245 -108.069)" fill="#6e6cf5"/>
      <path id="Trazado_115266" data-name="Trazado 115266" d="M1150.994,572.1a6.282,6.282,0,0,0,.762-2,2.593,2.593,0,0,1-2.575-2.228c-.229-1.756-.138-3.792-.575-3.98-.664-.286-.955.86-.664,2.577-.865-1.146-.561-2.505-1.066-2.756s-.789.323-.789.323c-.962-.215-1.613.823-1.613.823-.464.323-.5,1.9-.319,3.185a4.243,4.243,0,0,0,1.966,2.757,3.271,3.271,0,0,1,1.114,1.325l3.759-.023Z" transform="translate(-212.898 -104.309)" fill="#ff8762"/>
      <path id="Trazado_115267" data-name="Trazado 115267" d="M1124.859,380.984a26.156,26.156,0,1,0,26.152,26.156A26.158,26.158,0,0,0,1124.859,380.984Zm0,43.275a17.119,17.119,0,1,1,17.119-17.119A17.118,17.118,0,0,1,1124.859,424.259Z" transform="translate(-198.94 -48.09)" fill="#3a85f6"/>
      <path id="Trazado_115268" data-name="Trazado 115268" d="M1118.655,446.222l2.305-8.739a17.151,17.151,0,0,1-12.024-11.676l-8.646,2.639A26.211,26.211,0,0,0,1118.655,446.222Z" transform="translate(-199.429 -61.886)" fill="#33a4ff"/>
      <path id="Trazado_115269" data-name="Trazado 115269" d="M1159.638,411.366a26.049,26.049,0,0,0-5.981-16.652l-7.068,5.641a17.116,17.116,0,0,1-17.6,27.527l-2.257,8.753a26.162,26.162,0,0,0,32.908-25.271Z" transform="translate(-207.567 -52.316)" fill="#00cca7"/>
      <path id="Trazado_115270" data-name="Trazado 115270" d="M1207.626,467.208h-40.481a.956.956,0,0,1-.872-.563l-9-19.992a.96.96,0,0,1,1.751-.786l8.743,19.425h39.858a.958.958,0,0,1,0,1.916Z" transform="translate(-216.941 -67.885)" fill="#3a85f6"/>
      <g id="Grupo_81498" data-name="Grupo 81498" transform="translate(956.661 382.994)">
        <path id="Trazado_115271" data-name="Trazado 115271" d="M1227.342,453.359h-45.161a1.283,1.283,0,0,0-1.281,1.285v9.425a1.283,1.283,0,0,0,1.281,1.285h45.161a1.285,1.285,0,0,0,1.287-1.285v-9.425A1.285,1.285,0,0,0,1227.342,453.359Z" transform="translate(-1180.9 -453.359)" fill="#9cc2ed"/>
      </g>
      <path id="Trazado_115272" data-name="Trazado 115272" d="M1225.2,451.012H1177.47v11.994H1225.2Z" transform="translate(-223.183 -69.643)" fill="#fbf7ff"/>
      <g id="Grupo_81499" data-name="Grupo 81499" transform="translate(975.587 346.85)">
        <path id="Trazado_115273" data-name="Trazado 115273" d="M1228.515,401.146H1208.24v5.1h20.275Z" transform="translate(-1208.24 -401.146)" fill="#9cc2ed"/>
      </g>
      <path id="Trazado_115274" data-name="Trazado 115274" d="M1229.972,400.147H1209.69v5.1h20.282Z" transform="translate(-233.099 -53.988)" fill="#fbf7ff"/>
      <g id="Grupo_81500" data-name="Grupo 81500" transform="translate(964.304 345.512)">
        <path id="Trazado_115275" data-name="Trazado 115275" d="M1198.662,399.213h-5.711a1.008,1.008,0,0,0-1.011,1.008v5.712a1.008,1.008,0,0,0,1.011,1.009h5.711a1.012,1.012,0,0,0,1.01-1.009v-5.712A1.012,1.012,0,0,0,1198.662,399.213Z" transform="translate(-1191.94 -399.213)" fill="#9cc2ed"/>
      </g>
      <path id="Trazado_115276" data-name="Trazado 115276" d="M1199.562,398.091h-5.718a1.006,1.006,0,0,0-1,1.009v5.712a1.006,1.006,0,0,0,1,1.009h5.718a1.006,1.006,0,0,0,1-1.009V399.1A1.006,1.006,0,0,0,1199.562,398.091Z" transform="translate(-227.913 -53.355)" fill="#00cca7"/>
      <g id="Grupo_81501" data-name="Grupo 81501" transform="translate(975.587 361.538)">
        <path id="Trazado_115277" data-name="Trazado 115277" d="M1238.1,422.364H1208.24v5.1H1238.1Z" transform="translate(-1208.24 -422.364)" fill="#9cc2ed"/>
      </g>
      <path id="Trazado_115278" data-name="Trazado 115278" d="M1239.553,421.367H1209.69v5.1h29.863Z" transform="translate(-233.099 -60.519)" fill="#fbf7ff"/>
      <g id="Grupo_81502" data-name="Grupo 81502" transform="translate(964.304 360.199)">
        <path id="Trazado_115279" data-name="Trazado 115279" d="M1198.662,420.43h-5.711a1.008,1.008,0,0,0-1.011,1.009v5.712a1.008,1.008,0,0,0,1.011,1.009h5.711a1.012,1.012,0,0,0,1.01-1.009v-5.712A1.012,1.012,0,0,0,1198.662,420.43Z" transform="translate(-1191.94 -420.43)" fill="#9cc2ed"/>
      </g>
      <path id="Trazado_115280" data-name="Trazado 115280" d="M1199.562,419.308h-5.718a1.006,1.006,0,0,0-1,1.009v5.712a1.006,1.006,0,0,0,1,1.008h5.718a1.006,1.006,0,0,0,1-1.008v-5.712A1.006,1.006,0,0,0,1199.562,419.308Z" transform="translate(-227.913 -59.885)" fill="#33a4ff"/>
    </g>
  </g>
</svg>
