<svg xmlns="http://www.w3.org/2000/svg" width="358" height="234.519" viewBox="0 0 358 234.519">
  <g id="Grupo_1013434" data-name="Grupo 1013434" transform="translate(-293 -2081.385)">
    <g id="Group_18_1_" data-name="Group 18 (1)" transform="translate(292.01 2080.395)">
      <path id="Trazado_116558" data-name="Trazado 116558" d="M67.6,152.857h-1.8l-3.938-5.487v-3.6s-2.788-.174-2.462,4.544-.026,3.516-.026,3.516-5.919.021-6.41.538c-.358.374-.522,6.252-.58,9.441a3.452,3.452,0,0,0,2.446,3.479,2.649,2.649,0,0,0,.638.084c1.476,0,9.019-1.2,9.019-1.2H67.6Z" transform="translate(-24.301 -67.518)" fill="#ebebeb"/>
      <path id="Trazado_116559" data-name="Trazado 116559" d="M87.281,159.13l-1.112,12.34H83.08V159.378Z" transform="translate(-38.819 -74.782)" fill="#ebebeb"/>
      <path id="Trazado_116560" data-name="Trazado 116560" d="M607.923,94.757a19.161,19.161,0,0,0-.422-2.7,10.507,10.507,0,0,0-1.244-2.925,11.075,11.075,0,0,0-2.81-3.1,10.945,10.945,0,0,0-10.374-1.544,10.3,10.3,0,0,0-2.767,1.492A10.174,10.174,0,0,0,588,88.3a10.884,10.884,0,0,0,0,12.92,10.944,10.944,0,0,0,5.076,3.816,11.014,11.014,0,0,0,13.183-4.649,10.507,10.507,0,0,0,1.244-2.925,19.041,19.041,0,0,0,.422-2.7.689.689,0,0,1,.01.179c0,.142,0,.316-.005.532a4.975,4.975,0,0,1-.069.859,8.162,8.162,0,0,1-.211,1.16,10.633,10.633,0,0,1-1.2,3,11.234,11.234,0,0,1-7.559,5.35,11.314,11.314,0,0,1-5.93-.469,10.659,10.659,0,0,1-2.862-1.529,10.545,10.545,0,0,1-2.393-2.4,11.236,11.236,0,0,1,.005-13.373,10.65,10.65,0,0,1,2.393-2.4,10.515,10.515,0,0,1,2.862-1.529,11.318,11.318,0,0,1,5.93-.469,11.234,11.234,0,0,1,7.559,5.35,10.328,10.328,0,0,1,1.2,3,8.179,8.179,0,0,1,.211,1.16,4.974,4.974,0,0,1,.068.859c0,.216.005.39.005.532,0,.121,0,.179-.011.179Z" transform="translate(-276.406 -39.011)" fill="#e0e0e0"/>
      <path id="Trazado_116561" data-name="Trazado 116561" d="M640.807,129.632c-.058.09-4-2.446-8.787-5.666s-8.629-5.9-8.571-5.988,4,2.446,8.787,5.666S640.865,129.543,640.807,129.632Z" transform="translate(-294.352 -55.321)" fill="#e0e0e0"/>
      <path id="Trazado_116562" data-name="Trazado 116562" d="M154.684,324.12H109.7v58h44.984Z" transform="translate(-51.407 -152.804)" fill="#ebebeb"/>
      <path id="Trazado_116563" data-name="Trazado 116563" d="M126.6,324.12H81.62v58H126.6Z" transform="translate(-38.129 -152.804)" fill="#f5f5f5"/>
      <path id="Trazado_116564" data-name="Trazado 116564" d="M95.229,332.5v-2.52H90.98v2.52a2.128,2.128,0,0,0,1.855,2.1V336.8h-.944c-.332,0-.6.19-.6.422h3.627c0-.232-.269-.422-.6-.422h-.944V334.6A2.128,2.128,0,0,0,95.229,332.5Z" transform="translate(-42.555 -155.575)" fill="#e0e0e0" fill-rule="evenodd"/>
      <path id="Trazado_116565" data-name="Trazado 116565" d="M109.1,332.331a3.082,3.082,0,0,0-5.988,0h2.709v3.948a.6.6,0,0,1-1.2,0h-.575a1.176,1.176,0,0,0,2.351,0v-3.948h2.7Z" transform="translate(-48.291 -155.575)" fill="#e0e0e0" fill-rule="evenodd"/>
      <path id="Trazado_116566" data-name="Trazado 116566" d="M141.147,376.647c0,.074-13.5.137-30.151.137s-30.156-.063-30.156-.137,13.5-.137,30.156-.137S141.147,376.573,141.147,376.647Z" transform="translate(-37.76 -177.578)" fill="#e0e0e0"/>
      <path id="Trazado_116567" data-name="Trazado 116567" d="M124.167,382.28c-.074,0-.137-13.057-.137-29.16s.063-29.16.137-29.16.137,13.051.137,29.16S124.241,382.28,124.167,382.28Z" transform="translate(-58.184 -152.728)" fill="#e0e0e0"/>
      <path id="Trazado_116568" data-name="Trazado 116568" d="M578.164,269.82H533.18v58h44.984Z" transform="translate(-251.665 -127.126)" fill="#ebebeb"/>
      <path id="Trazado_116569" data-name="Trazado 116569" d="M550.084,269.82H505.1v58h44.984Z" transform="translate(-238.386 -127.126)" fill="#f5f5f5"/>
      <path id="Trazado_116570" data-name="Trazado 116570" d="M518.709,278.2v-2.52H514.46v2.52a2.127,2.127,0,0,0,1.855,2.1V282.5h-.943c-.332,0-.6.19-.6.422H518.4c0-.232-.269-.422-.6-.422h-.944V280.3A2.128,2.128,0,0,0,518.709,278.2Z" transform="translate(-242.813 -129.897)" fill="#e0e0e0" fill-rule="evenodd"/>
      <path id="Trazado_116571" data-name="Trazado 116571" d="M532.578,278.031a3.082,3.082,0,0,0-5.988,0H529.3v3.948a.6.6,0,0,1-1.2,0h-.575a1.176,1.176,0,0,0,2.351,0v-3.948h2.7Z" transform="translate(-248.549 -129.897)" fill="#e0e0e0" fill-rule="evenodd"/>
      <path id="Trazado_116572" data-name="Trazado 116572" d="M564.627,322.347c0,.074-13.5.137-30.151.137s-30.156-.063-30.156-.137,13.5-.137,30.156-.137S564.627,322.273,564.627,322.347Z" transform="translate(-238.018 -151.9)" fill="#e0e0e0"/>
      <path id="Trazado_116573" data-name="Trazado 116573" d="M547.647,327.98c-.074,0-.137-13.057-.137-29.16s.063-29.16.137-29.16.137,13.051.137,29.16S547.721,327.98,547.647,327.98Z" transform="translate(-258.441 -127.05)" fill="#e0e0e0"/>
      <path id="Trazado_116574" data-name="Trazado 116574" d="M486.3,307.78H448.51v37.789H486.3Z" transform="translate(-211.626 -145.077)" fill="#ebebeb"/>
      <path id="Trazado_116575" data-name="Trazado 116575" d="M457.909,307.78H420.12v37.789h37.789Z" transform="translate(-198.201 -145.077)" fill="#f5f5f5"/>
      <path id="Trazado_116576" data-name="Trazado 116576" d="M433.326,316.83h1.081l-.928-1.7-.928-1.7-.928,1.7-.922,1.7h1.075v4.27H429.13v-4.27h1.075l-.928-1.7-.928-1.7-.928,1.7-.922,1.7h1.075v4.27h-.627v.6h7.005v-.6h-.627Z" transform="translate(-201.218 -147.748)" fill="#e0e0e0" fill-rule="evenodd"/>
      <path id="Trazado_116577" data-name="Trazado 116577" d="M456.637,345.766c-.074,0-.137-8.386-.137-18.723s.063-18.723.137-18.723.137,8.381.137,18.723S456.711,345.766,456.637,345.766Z" transform="translate(-215.404 -145.332)" fill="#e0e0e0"/>
      <path id="Trazado_116578" data-name="Trazado 116578" d="M472.925,343.407c0,.074-11.971.137-26.73.137s-26.735-.063-26.735-.137,11.965-.137,26.735-.137S472.925,343.333,472.925,343.407Z" transform="translate(-197.888 -161.859)" fill="#e0e0e0"/>
      <path id="Trazado_116579" data-name="Trazado 116579" d="M438.087,408.746H214.143a14.733,14.733,0,0,1,0-29.466H438.087a14.733,14.733,0,0,1,0,29.466Z" transform="translate(-93.83 -178.888)" fill="#e0e0e0" fill-rule="evenodd"/>
      <path id="Trazado_116580" data-name="Trazado 116580" d="M445.253,408.089H220.059a8.349,8.349,0,1,1,0-16.7h225.2a8.349,8.349,0,1,1,0,16.7Z" transform="translate(-99.646 -184.615)" fill="#ebebeb" fill-rule="evenodd"/>
      <path id="Trazado_116581" data-name="Trazado 116581" d="M230.168,400.971a12.989,12.989,0,0,0-.269-1.66,6.846,6.846,0,0,0-2.5-3.711,6.751,6.751,0,0,0-6.383-.949A6.714,6.714,0,0,0,217.9,397a6.687,6.687,0,0,0,0,7.944,6.4,6.4,0,0,0,1.418,1.428,6.207,6.207,0,0,0,1.7.917,6.751,6.751,0,0,0,6.383-.949,6.816,6.816,0,0,0,2.5-3.711,11.37,11.37,0,0,0,.264-1.66,2.534,2.534,0,0,1,.005.437,3.008,3.008,0,0,1-.042.532,4.694,4.694,0,0,1-.127.717,6.793,6.793,0,0,1-2.488,3.837,6.913,6.913,0,0,1-6.584,1.028,6.609,6.609,0,0,1-1.771-.944,6.473,6.473,0,0,1-1.481-1.481,6.937,6.937,0,0,1,0-8.265,6.473,6.473,0,0,1,1.481-1.481,6.387,6.387,0,0,1,1.771-.944,6.993,6.993,0,0,1,3.663-.29A6.9,6.9,0,0,1,230,399.269a4.693,4.693,0,0,1,.127.717,2.972,2.972,0,0,1,.042.532,3.427,3.427,0,0,1-.005.438Z" transform="translate(-101.822 -185.846)" fill="#e0e0e0"/>
      <path id="Trazado_116582" data-name="Trazado 116582" d="M227.377,407.485a2.477,2.477,0,1,0-2.477-2.477A2.477,2.477,0,0,0,227.377,407.485Z" transform="translate(-105.884 -189.882)" fill="#e0e0e0"/>
      <path id="Trazado_116583" data-name="Trazado 116583" d="M654.178,400.971a12.979,12.979,0,0,0-.269-1.66,6.845,6.845,0,0,0-2.5-3.711,6.751,6.751,0,0,0-6.383-.949,6.715,6.715,0,0,0-3.12,2.346,6.687,6.687,0,0,0,0,7.944,6.4,6.4,0,0,0,1.418,1.428,6.206,6.206,0,0,0,1.7.917,6.751,6.751,0,0,0,6.383-.949,6.816,6.816,0,0,0,2.5-3.711,11.358,11.358,0,0,0,.263-1.66,2.515,2.515,0,0,1,.005.437,3.015,3.015,0,0,1-.042.532,4.7,4.7,0,0,1-.127.717,6.793,6.793,0,0,1-2.488,3.837,6.913,6.913,0,0,1-6.584,1.028,6.609,6.609,0,0,1-1.771-.944,6.476,6.476,0,0,1-1.481-1.481,6.937,6.937,0,0,1,0-8.265,6.476,6.476,0,0,1,1.481-1.481,6.387,6.387,0,0,1,1.771-.944,6.994,6.994,0,0,1,3.664-.29,6.9,6.9,0,0,1,5.408,5.155,4.694,4.694,0,0,1,.127.717,2.979,2.979,0,0,1,.042.532,3.406,3.406,0,0,1-.005.438Z" transform="translate(-302.33 -185.846)" fill="#e0e0e0"/>
      <path id="Trazado_116584" data-name="Trazado 116584" d="M651.377,407.485a2.477,2.477,0,1,0-2.477-2.477A2.477,2.477,0,0,0,651.377,407.485Z" transform="translate(-306.387 -189.882)" fill="#e0e0e0"/>
      <path id="Trazado_116585" data-name="Trazado 116585" d="M453.729,393.967c0,.074-50.176.137-112.059.137s-112.07-.063-112.07-.137,50.165-.137,112.07-.137S453.729,393.893,453.729,393.967Z" transform="translate(-108.106 -185.768)" fill="#e0e0e0"/>
      <path id="Trazado_116586" data-name="Trazado 116586" d="M454.561,420.107c0,.074-49.97.137-111.6.137s-111.606-.063-111.606-.137,49.96-.137,111.606-.137S454.561,420.033,454.561,420.107Z" transform="translate(-108.939 -198.13)" fill="#e0e0e0"/>
      <path id="Trazado_116587" data-name="Trazado 116587" d="M356.45,435.567c0,.074-79.578.137-177.722.137S.99,435.641.99,435.567s79.563-.137,177.738-.137S356.45,435.493,356.45,435.567Z" transform="translate(0 -205.44)" fill="#263238"/>
      <path id="Trazado_116588" data-name="Trazado 116588" d="M229.14,25.84H128.2a3.352,3.352,0,0,0-3.352,3.352V171.529a3.352,3.352,0,0,0,3.352,3.352H229.14a3.352,3.352,0,0,0,3.352-3.352V29.192A3.352,3.352,0,0,0,229.14,25.84Z" transform="translate(-58.572 -11.751)" fill="#b3009d"/>
      <g id="Grupo_81578" data-name="Grupo 81578" transform="translate(66.278 14.089)" opacity="0.3">
        <path id="Trazado_116589" data-name="Trazado 116589" d="M229.14,25.84H128.2a3.352,3.352,0,0,0-3.352,3.352V171.529a3.352,3.352,0,0,0,3.352,3.352H229.14a3.352,3.352,0,0,0,3.352-3.352V29.192A3.352,3.352,0,0,0,229.14,25.84Z" transform="translate(-124.85 -25.84)"/>
      </g>
      <path id="Trazado_116590" data-name="Trazado 116590" d="M231.7,40.97H139.17V176.823H231.7Z" transform="translate(-65.343 -18.906)" fill="#e0e0e0"/>
      <path id="Trazado_116591" data-name="Trazado 116591" d="M229.295,38.9H136.76V172.16h92.535Z" transform="translate(-64.204 -17.927)" fill="#ebebeb"/>
      <path id="Trazado_116592" data-name="Trazado 116592" d="M229.172,172.037c0-1.112-.053-54.63-.127-133.26l.127.127c-28.064,0-59.469.005-92.524.011h-.011l.137-.137c-.011,50.039-.021,96.272-.026,133.26l-.111-.111c56.259.069,91.628.111,92.535.111-.907,0-36.276.042-92.535.111h-.111v-.111c-.005-36.988-.016-83.221-.026-133.26V38.64h.148c33.061,0,64.461.011,92.524.011h.126v.127C229.225,117.407,229.172,170.919,229.172,172.037Z" transform="translate(-64.081 -17.804)" fill="#263238"/>
      <path id="Trazado_116593" data-name="Trazado 116593" d="M250.04,270.123s23.778-9.051,32.607-24.063a24.7,24.7,0,0,1-19,3.953S257.351,266.812,250.04,270.123Z" transform="translate(-117.772 -115.89)" fill="#e0e0e0"/>
      <path id="Trazado_116594" data-name="Trazado 116594" d="M250.031,269.636l.4-.221a9.606,9.606,0,0,0,1.133-.727,18.75,18.75,0,0,0,3.558-3.563,63.82,63.82,0,0,0,8.4-15.645l.037-.1.1.021a24.306,24.306,0,0,0,8.608.174c.754-.09,1.5-.29,2.251-.448.743-.211,1.5-.411,2.24-.691a25.325,25.325,0,0,0,4.349-2.019c.506-.311,1.017-.627,1.45-.954l.569-.432-.364.611a37.227,37.227,0,0,1-5.113,6.615,55.228,55.228,0,0,1-5.793,5.166,82.456,82.456,0,0,1-10.964,7.132c-3.258,1.787-5.983,3.052-7.88,3.88-.949.411-1.692.717-2.2.912-.242.095-.437.163-.58.221-.127.047-.211.063-.2.063s.058-.037.19-.09.327-.142.569-.242c.5-.216,1.233-.532,2.177-.959,1.882-.859,4.586-2.145,7.828-3.953a83.961,83.961,0,0,0,10.9-7.163,56.576,56.576,0,0,0,5.756-5.155,37.218,37.218,0,0,0,5.066-6.568l.2.179c-.453.343-.959.659-1.476.975a25.473,25.473,0,0,1-4.4,2.04c-.749.279-1.513.48-2.261.7-.764.158-1.513.358-2.277.453a24.428,24.428,0,0,1-8.7-.2l.142-.079a62.7,62.7,0,0,1-8.518,15.65,17.929,17.929,0,0,1-3.632,3.532,8.543,8.543,0,0,1-1.576.88Z" transform="translate(-117.763 -115.403)" fill="#263238"/>
      <path id="Trazado_116595" data-name="Trazado 116595" d="M166.8,107.8h-7.706a1.8,1.8,0,0,0-1.8,1.8v7.706a1.8,1.8,0,0,0,1.8,1.8H166.8a1.8,1.8,0,0,0,1.8-1.8V109.6A1.8,1.8,0,0,0,166.8,107.8Z" transform="translate(-73.912 -50.509)" fill="#b3009d"/>
      <path id="Trazado_116596" data-name="Trazado 116596" d="M165.009,117.6H165a.26.26,0,0,1-.19-.09l-1.587-1.85a.26.26,0,0,1,.026-.369.266.266,0,0,1,.374.026l1.4,1.629,3.674-3.753a.265.265,0,0,1,.374.374l-3.874,3.959a.251.251,0,0,1-.19.079Z" transform="translate(-76.687 -53.02)" fill="#fff"/>
      <path id="Trazado_116597" data-name="Trazado 116597" d="M243.586,110.287c0,.074-12.039.137-26.888.137s-26.888-.063-26.888-.137,12.034-.137,26.888-.137S243.586,110.213,243.586,110.287Z" transform="translate(-89.29 -51.62)" fill="#263238"/>
      <path id="Trazado_116598" data-name="Trazado 116598" d="M212.456,125.987s-.316.037-.891.053c-.622.011-1.439.026-2.43.042-2.05.026-4.881.042-8.012.042s-5.962-.016-8.012-.042c-.991-.016-1.808-.032-2.43-.042a6.013,6.013,0,0,1-.891-.053,6.018,6.018,0,0,1,.891-.053c.622-.011,1.439-.026,2.43-.042,2.05-.026,4.881-.042,8.012-.042s5.962.016,8.012.042c.991.016,1.808.032,2.43.042A6.018,6.018,0,0,1,212.456,125.987Z" transform="translate(-89.281 -59.044)" fill="#263238"/>
      <path id="Trazado_116599" data-name="Trazado 116599" d="M243.586,117.247c0,.074-12.039.137-26.888.137s-26.888-.063-26.888-.137,12.034-.137,26.888-.137S243.586,117.173,243.586,117.247Z" transform="translate(-89.29 -54.911)" fill="#263238"/>
      <path id="Trazado_116600" data-name="Trazado 116600" d="M166.8,145.47h-7.706a1.8,1.8,0,0,0-1.8,1.8v7.706a1.8,1.8,0,0,0,1.8,1.8H166.8a1.8,1.8,0,0,0,1.8-1.8v-7.706A1.8,1.8,0,0,0,166.8,145.47Z" transform="translate(-73.912 -68.323)" fill="#b3009d"/>
      <path id="Trazado_116601" data-name="Trazado 116601" d="M165.009,155.266H165a.26.26,0,0,1-.19-.09l-1.587-1.85a.259.259,0,0,1,.026-.369.266.266,0,0,1,.374.026l1.4,1.629,3.674-3.753a.265.265,0,1,1,.374.374l-3.874,3.959a.251.251,0,0,1-.19.079Z" transform="translate(-76.687 -70.834)" fill="#fff"/>
      <path id="Trazado_116602" data-name="Trazado 116602" d="M243.586,147.957c0,.074-12.039.137-26.888.137s-26.888-.063-26.888-.137,12.034-.137,26.888-.137S243.586,147.883,243.586,147.957Z" transform="translate(-89.29 -69.434)" fill="#263238"/>
      <path id="Trazado_116603" data-name="Trazado 116603" d="M212.456,163.647s-.316.037-.891.053c-.622.011-1.439.026-2.43.042-2.05.026-4.881.042-8.012.042s-5.962-.016-8.012-.042c-.991-.016-1.808-.032-2.43-.042a6.011,6.011,0,0,1-.891-.053,6.018,6.018,0,0,1,.891-.053c.622-.011,1.439-.026,2.43-.042,2.05-.026,4.881-.042,8.012-.042s5.962.016,8.012.042c.991.016,1.808.032,2.43.042A6.018,6.018,0,0,1,212.456,163.647Z" transform="translate(-89.281 -76.853)" fill="#263238"/>
      <path id="Trazado_116604" data-name="Trazado 116604" d="M243.586,154.907c0,.074-12.039.137-26.888.137s-26.888-.063-26.888-.137,12.034-.137,26.888-.137S243.586,154.833,243.586,154.907Z" transform="translate(-89.29 -72.72)" fill="#263238"/>
      <path id="Trazado_116605" data-name="Trazado 116605" d="M166.8,183.13h-7.706a1.8,1.8,0,0,0-1.8,1.8v7.706a1.8,1.8,0,0,0,1.8,1.8H166.8a1.8,1.8,0,0,0,1.8-1.8v-7.706A1.8,1.8,0,0,0,166.8,183.13Z" transform="translate(-73.912 -86.131)" fill="#b3009d"/>
      <path id="Trazado_116606" data-name="Trazado 116606" d="M165.009,192.931H165a.26.26,0,0,1-.19-.09l-1.587-1.85a.265.265,0,0,1,.4-.348l1.4,1.629,3.674-3.753a.265.265,0,0,1,.374.374l-3.874,3.959a.251.251,0,0,1-.19.079Z" transform="translate(-76.687 -88.642)" fill="#fff"/>
      <path id="Trazado_116607" data-name="Trazado 116607" d="M243.586,185.627c0,.074-12.039.137-26.888.137s-26.888-.063-26.888-.137,12.034-.137,26.888-.137S243.586,185.553,243.586,185.627Z" transform="translate(-89.29 -87.247)" fill="#263238"/>
      <path id="Trazado_116608" data-name="Trazado 116608" d="M212.456,201.317s-.316.037-.891.053c-.622.011-1.439.026-2.43.042-2.05.026-4.881.042-8.012.042s-5.962-.016-8.012-.042c-.991-.016-1.808-.032-2.43-.042a6.018,6.018,0,0,1-.891-.053,6.015,6.015,0,0,1,.891-.053c.622-.011,1.439-.026,2.43-.042,2.05-.026,4.881-.042,8.012-.042s5.962.016,8.012.042c.991.016,1.808.032,2.43.042A6.015,6.015,0,0,1,212.456,201.317Z" transform="translate(-89.281 -94.667)" fill="#263238"/>
      <path id="Trazado_116609" data-name="Trazado 116609" d="M243.586,192.577c0,.074-12.039.137-26.888.137s-26.888-.063-26.888-.137,12.034-.137,26.888-.137S243.586,192.5,243.586,192.577Z" transform="translate(-89.29 -90.534)" fill="#263238"/>
      <path id="Trazado_116610" data-name="Trazado 116610" d="M166.8,220.8h-7.706a1.8,1.8,0,0,0-1.8,1.8v7.706a1.8,1.8,0,0,0,1.8,1.8H166.8a1.8,1.8,0,0,0,1.8-1.8V222.6A1.8,1.8,0,0,0,166.8,220.8Z" transform="translate(-73.912 -103.945)" fill="#b3009d"/>
      <path id="Trazado_116611" data-name="Trazado 116611" d="M165.009,230.6H165a.26.26,0,0,1-.19-.09l-1.587-1.85a.266.266,0,0,1,.026-.374.271.271,0,0,1,.374.026l1.4,1.629,3.674-3.753a.265.265,0,1,1,.374.374l-3.874,3.959a.251.251,0,0,1-.19.079Z" transform="translate(-76.687 -106.456)" fill="#fff"/>
      <path id="Trazado_116612" data-name="Trazado 116612" d="M243.586,223.287c0,.074-12.039.137-26.888.137s-26.888-.063-26.888-.137,12.034-.137,26.888-.137S243.586,223.213,243.586,223.287Z" transform="translate(-89.29 -105.056)" fill="#263238"/>
      <path id="Trazado_116613" data-name="Trazado 116613" d="M212.456,238.987s-.316.037-.891.053c-.622.011-1.439.026-2.43.042-2.05.026-4.881.042-8.012.042s-5.962-.016-8.012-.042c-.991-.016-1.808-.032-2.43-.042a6.02,6.02,0,0,1-.891-.053,6.011,6.011,0,0,1,.891-.053c.622-.011,1.439-.026,2.43-.042,2.05-.026,4.881-.042,8.012-.042s5.962.016,8.012.042c.991.016,1.808.032,2.43.042A6.011,6.011,0,0,1,212.456,238.987Z" transform="translate(-89.281 -112.481)" fill="#263238"/>
      <path id="Trazado_116614" data-name="Trazado 116614" d="M243.586,230.247c0,.074-12.039.137-26.888.137s-26.888-.063-26.888-.137,12.034-.137,26.888-.137S243.586,230.173,243.586,230.247Z" transform="translate(-89.29 -108.348)" fill="#263238"/>
      <path id="Trazado_116615" data-name="Trazado 116615" d="M187.458,83.17a1.512,1.512,0,0,1-1.186.538,2.262,2.262,0,0,1-1.739-.938,2.3,2.3,0,0,1-2.182-2.319,2.443,2.443,0,0,1,4.881,0,2.267,2.267,0,0,1-1.7,2.235.982.982,0,0,0,.759.38,1.012,1.012,0,0,0,.775-.364l.39.464Zm-2.667-1.128A1.592,1.592,0,1,0,183.2,80.45,1.546,1.546,0,0,0,184.791,82.042Z" transform="translate(-85.763 -36.474)" fill="#263238"/>
      <path id="Trazado_116616" data-name="Trazado 116616" d="M196.484,80.275v3.458h-.77V83.29a1.417,1.417,0,0,1-1.112.485,1.37,1.37,0,0,1-1.492-1.529V80.27h.812v1.866c0,.627.3.928.812.928.564,0,.944-.348.944-1.044V80.27h.812Z" transform="translate(-90.851 -37.49)" fill="#263238"/>
      <path id="Trazado_116617" data-name="Trazado 116617" d="M204.2,81.676V83.7h-.764v-.422a1.23,1.23,0,0,1-1.086.464c-.791,0-1.286-.432-1.286-1.038s.39-1.028,1.439-1.028h.891v-.053c0-.474-.285-.748-.859-.748a1.725,1.725,0,0,0-1.049.343l-.316-.59a2.435,2.435,0,0,1,1.465-.427c1,0,1.571.474,1.571,1.471Zm-.812.944v-.4h-.833c-.548,0-.7.206-.7.459,0,.29.248.48.659.48A.867.867,0,0,0,203.385,82.619Z" transform="translate(-94.61 -37.457)" fill="#263238"/>
      <path id="Trazado_116618" data-name="Trazado 116618" d="M208.97,77.73h.812v4.8h-.812Z" transform="translate(-98.351 -36.289)" fill="#263238"/>
      <path id="Trazado_116619" data-name="Trazado 116619" d="M212.31,77.845a.492.492,0,0,1,.517-.485.482.482,0,0,1,.517.464.5.5,0,0,1-.517.506A.492.492,0,0,1,212.31,77.845Zm.111,1.054h.812v3.458h-.812Z" transform="translate(-99.93 -36.114)" fill="#263238"/>
      <path id="Trazado_116620" data-name="Trazado 116620" d="M217.735,82.868a1.252,1.252,0,0,1-.775.232,1.061,1.061,0,0,1-1.191-1.165V80.269H215.2v-.648h.569V78.83h.812v.791h.928v.648h-.928v1.645c0,.337.169.517.48.517a.738.738,0,0,0,.453-.142l.227.575Z" transform="translate(-101.297 -36.809)" fill="#263238"/>
      <path id="Trazado_116621" data-name="Trazado 116621" d="M223.82,80.28,222.2,84.017a1.339,1.339,0,0,1-1.334,1.023,1.441,1.441,0,0,1-.928-.316l.322-.6a.874.874,0,0,0,.6.237c.285,0,.453-.137.606-.48l.058-.137-1.508-3.468h.843l1.086,2.556,1.1-2.556h.78Z" transform="translate(-103.538 -37.495)" fill="#263238"/>
      <path id="Trazado_116622" data-name="Trazado 116622" d="M231.1,80.473a2.275,2.275,0,0,1,2.377-2.3,2.2,2.2,0,0,1,1.655.659l-.306.306a1.8,1.8,0,0,0-1.339-.538,1.877,1.877,0,1,0,0,3.753,1.785,1.785,0,0,0,1.339-.543l.306.306a2.215,2.215,0,0,1-1.666.669,2.274,2.274,0,0,1-2.372-2.3Z" transform="translate(-108.811 -36.497)" fill="#263238"/>
      <path id="Trazado_116623" data-name="Trazado 116623" d="M239.58,82.059a1.732,1.732,0,1,1,1.734,1.734A1.674,1.674,0,0,1,239.58,82.059Zm3,0a1.269,1.269,0,1,0-1.265,1.328A1.244,1.244,0,0,0,242.579,82.059Z" transform="translate(-112.826 -37.519)" fill="#263238"/>
      <path id="Trazado_116624" data-name="Trazado 116624" d="M251.071,81.795v1.977h-.459V81.842a.95.95,0,0,0-1.023-1.086,1.115,1.115,0,0,0-1.191,1.228v1.787h-.459V80.366h.443v.627a1.43,1.43,0,0,1,1.3-.654,1.3,1.3,0,0,1,1.4,1.455Z" transform="translate(-116.779 -37.523)" fill="#263238"/>
      <path id="Trazado_116625" data-name="Trazado 116625" d="M257.569,82.908a1.08,1.08,0,0,1-.717.237.9.9,0,0,1-1-.991V80.093h-.606V79.7h.606V78.96h.459V79.7h1.038v.39h-1.038v2.035a.546.546,0,0,0,.59.622.766.766,0,0,0,.506-.174l.163.332Z" transform="translate(-120.236 -36.871)" fill="#263238"/>
      <path id="Trazado_116626" data-name="Trazado 116626" d="M262.953,80.33v.448c-.037,0-.079-.005-.111-.005a1.1,1.1,0,0,0-1.144,1.255v1.734h-.459V80.356h.443v.669a1.286,1.286,0,0,1,1.276-.691Z" transform="translate(-123.068 -37.519)" fill="#263238"/>
      <path id="Trazado_116627" data-name="Trazado 116627" d="M265.34,82.059a1.732,1.732,0,1,1,1.734,1.734A1.674,1.674,0,0,1,265.34,82.059Zm3,0a1.269,1.269,0,1,0-1.265,1.328A1.244,1.244,0,0,0,268.339,82.059Z" transform="translate(-125.007 -37.519)" fill="#263238"/>
      <path id="Trazado_116628" data-name="Trazado 116628" d="M273.7,77.73h.459v4.8H273.7Z" transform="translate(-128.961 -36.289)" fill="#263238"/>
      <path id="Trazado_116629" data-name="Trazado 116629" d="M162.145,23.165v6.974a7.325,7.325,0,0,0,7.327,7.327h51.183a7.328,7.328,0,0,0,7.327-7.327V23.176L162.14,23.16Z" transform="translate(-76.206 -10.484)" fill="#263238"/>
      <path id="Trazado_116630" data-name="Trazado 116630" d="M218.364,14.737a6.874,6.874,0,1,1,6.874-6.874A6.882,6.882,0,0,1,218.364,14.737Zm0-11.106A4.238,4.238,0,1,0,222.6,7.869,4.245,4.245,0,0,0,218.364,3.631Z" transform="translate(-99.542)" fill="#263238"/>
      <path id="Trazado_116631" data-name="Trazado 116631" d="M576.359,402.275l2.741,11.66,5.419,9.3a1.34,1.34,0,0,1-1.792,1.855c-2.435-1.313-11.365-6.188-11.544-7.132-.211-1.091-3.743-13.362-3.743-13.362l8.919-2.33Z" transform="translate(-267.866 -189.76)" fill="#b3009d"/>
      <g id="Grupo_81579" data-name="Grupo 81579" transform="translate(303.079 227.354)" opacity="0.6">
        <path id="Trazado_116632" data-name="Trazado 116632" d="M587.1,438.432l-13.009-8,.148.532a1.989,1.989,0,0,0,.812,1.133c1.06.717,4.032,2.641,10.785,6.325A1.344,1.344,0,0,0,587.1,438.432Z" transform="translate(-574.09 -430.43)" fill="#fff"/>
      </g>
      <g id="Grupo_81580" data-name="Grupo 81580" transform="translate(303.526 222.524)" opacity="0.6">
        <path id="Trazado_116633" data-name="Trazado 116633" d="M575.956,421.316a.81.81,0,0,1,.5.959.784.784,0,0,1-.949.5.856.856,0,0,1-.522-1.023.811.811,0,0,1,1.044-.411" transform="translate(-574.938 -421.266)" fill="#fff"/>
      </g>
      <path id="Trazado_116634" data-name="Trazado 116634" d="M590.379,434.85a4.122,4.122,0,0,1,.833-1.286,4.173,4.173,0,0,1,1.376-.68c0-.032-.185-.09-.49-.047a2.079,2.079,0,0,0-1.075.511,2.112,2.112,0,0,0-.633,1.007C590.316,434.655,590.347,434.845,590.379,434.85Z" transform="translate(-278.697 -204.207)" fill="#263238"/>
      <path id="Trazado_116635" data-name="Trazado 116635" d="M592.986,438.131c.074.037.369-.485.965-.849a11.685,11.685,0,0,1,1.186-.5,1.483,1.483,0,0,0-1.339.258c-.68.422-.891,1.081-.812,1.1Z" transform="translate(-279.939 -206.048)" fill="#263238"/>
      <path id="Trazado_116636" data-name="Trazado 116636" d="M586.1,431.3a13.511,13.511,0,0,1,1.4-1.413,13.879,13.879,0,0,1,1.75-.954,2.962,2.962,0,0,0-1.924.722,3,3,0,0,0-1.233,1.645Z" transform="translate(-276.683 -202.357)" fill="#263238"/>
      <path id="Trazado_116637" data-name="Trazado 116637" d="M583.642,425.242c.053.069.669-.416,1.565-.7s1.676-.264,1.682-.348a3.338,3.338,0,0,0-3.252,1.054Z" transform="translate(-275.524 -200.075)" fill="#263238"/>
      <path id="Trazado_116638" data-name="Trazado 116638" d="M581.687,418.243a6.539,6.539,0,0,1,1.613-.775,6.632,6.632,0,0,1,1.787-.042c.016-.032-.169-.153-.506-.237a2.888,2.888,0,0,0-1.349,0,2.85,2.85,0,0,0-1.2.611C581.771,418.032,581.66,418.222,581.687,418.243Z" transform="translate(-274.601 -196.777)" fill="#263238"/>
      <path id="Trazado_116639" data-name="Trazado 116639" d="M582.281,414.251a1.486,1.486,0,0,0-.116-.48,3.484,3.484,0,0,0-.722-1.144,1.534,1.534,0,0,0-.822-.527.535.535,0,0,0-.553.279.852.852,0,0,0-.042.622,1.9,1.9,0,0,0,2.066,1.249,2.2,2.2,0,0,0,1.776-1.682.787.787,0,0,0-.132-.622.519.519,0,0,0-.606-.121,1.889,1.889,0,0,0-.712.659,3.854,3.854,0,0,0-.59,1.218,1.194,1.194,0,0,0-.074.49,6.1,6.1,0,0,1,.822-1.581,1.7,1.7,0,0,1,.633-.559.292.292,0,0,1,.332.063.521.521,0,0,1,.063.411,1.953,1.953,0,0,1-1.555,1.439,1.646,1.646,0,0,1-1.771-1.033.649.649,0,0,1,.01-.437.294.294,0,0,1,.3-.158,1.4,1.4,0,0,1,.706.432A5.262,5.262,0,0,1,582.281,414.251Z" transform="translate(-273.799 -194.255)" fill="#263238"/>
      <g id="Grupo_81581" data-name="Grupo 81581" transform="translate(299.975 214.766)" opacity="0.3">
        <path id="Trazado_116640" data-name="Trazado 116640" d="M568.2,408.021l.5,1.745,8.845-1.945-.3-1.27Z" transform="translate(-568.2 -406.55)"/>
      </g>
      <path id="Trazado_116641" data-name="Trazado 116641" d="M509.823,407.785l.617,9.314s-9.261,3.753-9.319,5.487l18.106-.543-.364-14.554Z" transform="translate(-236.504 -192.228)" fill="#b3009d"/>
      <g id="Grupo_81582" data-name="Grupo 81582" transform="translate(278.641 223.893)" opacity="0.6">
        <path id="Trazado_116642" data-name="Trazado 116642" d="M528.594,423.893a.743.743,0,0,1,.538.828.709.709,0,0,1-.817.538.781.781,0,0,1-.564-.88.741.741,0,0,1,.912-.469" transform="translate(-527.728 -423.864)" fill="#fff"/>
      </g>
      <g id="Grupo_81583" data-name="Grupo 81583" transform="translate(264.605 228.371)" opacity="0.6">
        <path id="Trazado_116643" data-name="Trazado 116643" d="M519.217,433.81l-.037-1.45L501.8,433.414s-.8.374-.685.938Z" transform="translate(-501.1 -432.36)" fill="#fff"/>
      </g>
      <path id="Trazado_116644" data-name="Trazado 116644" d="M518.225,425.49c.005.09.448.116.891.385s.685.638.764.6c.079-.021-.069-.543-.612-.865s-1.07-.2-1.049-.121Z" transform="translate(-244.59 -200.697)" fill="#263238"/>
      <path id="Trazado_116645" data-name="Trazado 116645" d="M514.675,427.14c-.016.084.369.227.68.59s.411.759.5.754c.084.011.126-.506-.269-.954s-.912-.469-.912-.385Z" transform="translate(-242.912 -201.504)" fill="#263238"/>
      <path id="Trazado_116646" data-name="Trazado 116646" d="M512.084,430.187c.079.016.19-.427-.053-.907s-.659-.659-.7-.585.227.327.422.722S511.994,430.182,512.084,430.187Z" transform="translate(-241.332 -202.248)" fill="#263238"/>
      <path id="Trazado_116647" data-name="Trazado 116647" d="M518.407,421.2c.037.079.443-.053.944-.037s.9.163.938.09-.343-.38-.933-.4S518.359,421.133,518.407,421.2Z" transform="translate(-244.677 -198.55)" fill="#263238"/>
      <g id="Grupo_81584" data-name="Grupo 81584" transform="translate(273.355 215.642)" opacity="0.3">
        <path id="Trazado_116648" data-name="Trazado 116648" d="M517.7,408.458l.105,1.66,8.95-.258v-1.65Z" transform="translate(-517.7 -408.21)"/>
      </g>
      <path id="Trazado_116649" data-name="Trazado 116649" d="M518.24,416.573a1.721,1.721,0,0,0,.907-.032,4.136,4.136,0,0,0,.938-.322,4.187,4.187,0,0,0,.511-.29,1.082,1.082,0,0,0,.269-.221.385.385,0,0,0,.026-.469.484.484,0,0,0-.4-.19,1.21,1.21,0,0,0-.337.058,3.176,3.176,0,0,0-1.376.785c-.406.4-.543.738-.511.754s.237-.253.654-.59a3.613,3.613,0,0,1,.8-.48,2.971,2.971,0,0,1,.517-.174c.19-.058.353-.063.406.021.021.032.021.047-.016.1a1.092,1.092,0,0,1-.2.163,5.176,5.176,0,0,1-.469.29,4.868,4.868,0,0,1-.865.364,6.1,6.1,0,0,0-.854.242Z" transform="translate(-244.6 -195.803)" fill="#263238"/>
      <path id="Trazado_116650" data-name="Trazado 116650" d="M517.35,415.612a1.475,1.475,0,0,0,.211-.886,2.973,2.973,0,0,0-.153-.991,3.1,3.1,0,0,0-.248-.543.758.758,0,0,0-.59-.443.423.423,0,0,0-.369.264,1.313,1.313,0,0,0-.084.337,2.141,2.141,0,0,0,.016.611,2.1,2.1,0,0,0,.416.928c.369.459.738.553.748.522.026-.047-.285-.206-.569-.648a2,2,0,0,1-.311-.843,1.92,1.92,0,0,1,0-.522c.021-.2.09-.353.163-.332.09,0,.248.137.327.29a2.427,2.427,0,0,1,.237.485,3.152,3.152,0,0,1,.2.9c.042.532-.042.865,0,.875Z" transform="translate(-243.589 -194.715)" fill="#263238"/>
      <path id="Trazado_116651" data-name="Trazado 116651" d="M555.756,120.71a1.644,1.644,0,0,0-.221,2.056,5.588,5.588,0,0,0,1.608,1.555,3.759,3.759,0,0,1,1.434,1.687c.432,1.313-.522,2.815-.011,4.1.448,1.123,1.824,1.592,2.43,2.636a4.189,4.189,0,0,1-.169,3.584,6.576,6.576,0,0,0-.775,3.579,6.679,6.679,0,0,1,.427,1.992c-.111.986-1.107,1.608-2.04,1.934a9.47,9.47,0,0,1-4.8.364,4.3,4.3,0,0,1-2.968-1.708,5.3,5.3,0,0,1-.517-2.936,86.088,86.088,0,0,1,2.161-17.374" transform="translate(-259.688 -56.614)" fill="#263238"/>
      <path id="Trazado_116652" data-name="Trazado 116652" d="M498.487,173.736l5.593-13.325s3.9-12.129,10.1-11.923l1.5,10.906-8.592,18.512-9.225-3.964" transform="translate(-234.963 -69.748)" fill="#e0e0e0"/>
      <path id="Trazado_116653" data-name="Trazado 116653" d="M509.779,210.04s-10.1,19.93-9.931,26.166c.095,3.468,5.392,78.7,5.392,78.7h15.244l-2.82-78.477,15.993,79.02,13.5-2.193-10.774-84.5s-1.845-11.5-5.64-16.219l-20.958-2.5Z" transform="translate(-235.902 -98.857)" fill="#263238"/>
      <path id="Trazado_116654" data-name="Trazado 116654" d="M533.012,244.47a31.533,31.533,0,0,1,.29,4.117,30.465,30.465,0,0,1,.016,4.127,62.109,62.109,0,0,1-.306-8.244Z" transform="translate(-251.56 -115.138)" fill="#455a64"/>
      <path id="Trazado_116655" data-name="Trazado 116655" d="M562.173,253.411a2.31,2.31,0,0,1-.48.105,6.626,6.626,0,0,1-1.334.047,8.111,8.111,0,0,1-6.969-4.749,7.368,7.368,0,0,1-.443-1.26,1.445,1.445,0,0,1-.074-.485c.047-.016.19.669.69,1.66a8.415,8.415,0,0,0,6.81,4.639c1.1.105,1.792-.016,1.8.037Z" transform="translate(-260.976 -116.367)" fill="#455a64"/>
      <path id="Trazado_116656" data-name="Trazado 116656" d="M505.981,245.349a4.658,4.658,0,0,1-.532,1.223,12.211,12.211,0,0,1-1.908,2.593,12.438,12.438,0,0,1-2.509,2.019,4.352,4.352,0,0,1-1.2.58,21.589,21.589,0,0,0,3.511-2.788,21.81,21.81,0,0,0,2.636-3.627Z" transform="translate(-235.893 -115.554)" fill="#455a64"/>
      <path id="Trazado_116657" data-name="Trazado 116657" d="M532.344,338.4a1.568,1.568,0,0,1-.026-.211c-.011-.153-.032-.358-.053-.617-.042-.559-.1-1.355-.174-2.372-.137-2.077-.337-5.055-.58-8.724-.464-7.38-1.107-17.553-1.813-28.791-.685-11.249-1.313-21.427-1.724-28.807a26.724,26.724,0,0,1,.928-8.682,6.134,6.134,0,0,1,1.1-2.108,2.319,2.319,0,0,1,.443-.432.881.881,0,0,1,.169-.126s-.047.053-.148.148a2.386,2.386,0,0,0-.417.448,6.365,6.365,0,0,0-1.038,2.108,27.219,27.219,0,0,0-.833,8.639c.464,7.38,1.1,17.553,1.8,28.8.675,11.238,1.286,21.417,1.734,28.8.206,3.674.374,6.652.5,8.729.053,1.017.09,1.819.121,2.377.01.264.016.464.026.617v.211Z" transform="translate(-249.195 -121.314)" fill="#455a64"/>
      <path id="Trazado_116658" data-name="Trazado 116658" d="M578.272,337.832c-.074.011-2.567-17.569-5.566-39.265s-5.371-39.3-5.3-39.307,2.567,17.569,5.566,39.27S578.346,337.821,578.272,337.832Z" transform="translate(-267.85 -122.132)" fill="#455a64"/>
      <path id="Trazado_116659" data-name="Trazado 116659" d="M539.637,180.981l2.873-14.538,2.219-15.634a14.536,14.536,0,0,0-7.095-3.379l-13.325.553-5.018,11.77.527,24.342,19.814-3.121Z" transform="translate(-245.097 -69.249)" fill="#e0e0e0"/>
      <path id="Trazado_116660" data-name="Trazado 116660" d="M544.975,147.9s-6.368,14.127-9.715,15.054c-1.5,5.983-2.831,37.631-2.831,37.631l20.963-.87-6.2-20.521,2.493-10.295s-2.72-16.283.19-19.1a9.4,9.4,0,0,0-4.9-1.9Z" transform="translate(-251.31 -69.472)" fill="#b3009d"/>
      <path id="Trazado_116661" data-name="Trazado 116661" d="M517.932,147.393a54.044,54.044,0,0,0-.527,8.376,10.439,10.439,0,0,0,2.841,6.752l-2.778,37.8-14.838-2.161s3.063-9.462,5.5-13.578c0,0,1.16-1.956,3.289-5.656,0,0-1.486-12.06-1.539-13.763-.021-.643,3.843-16.509,3.843-16.509a5.535,5.535,0,0,1,4.212-1.26Z" transform="translate(-237.218 -69.207)" fill="#b3009d"/>
      <path id="Trazado_116662" data-name="Trazado 116662" d="M521.348,109.492c-1.9-.5-3.068-1.175-3.068-1.924,0-1.539,4.976-2.788,11.106-2.788s11.112,1.249,11.112,2.788c0,.743-1.154,1.418-3.041,1.913" transform="translate(-244.619 -49.081)" fill="#b3009d"/>
      <g id="Grupo_81585" data-name="Grupo 81585" transform="translate(275.067 56.189)" opacity="0.4">
        <path id="Trazado_116663" data-name="Trazado 116663" d="M523.669,109.879c-1.687-.443-2.762-1.044-2.72-1.7.121-1.834,4.407-2.467,9.847-2.467s9.846,1.107,9.846,2.467c0,.659-1.023,1.255-2.693,1.7" transform="translate(-520.948 -105.71)"/>
      </g>
      <path id="Trazado_116664" data-name="Trazado 116664" d="M553.528,110.72a2.1,2.1,0,0,0,1,2.093,9.628,9.628,0,0,1,1.961,1.492,3.271,3.271,0,0,1,.285,3.21,7.343,7.343,0,0,1-2.087,2.62,2.51,2.51,0,0,1-2.288.833" transform="translate(-260.754 -51.89)" fill="#263238"/>
      <path id="Trazado_116665" data-name="Trazado 116665" d="M556.535,151.51c-.264,0-1.239,2.483-1.966,4.723a14.987,14.987,0,0,0,1.218,12.039l4.612,8.107-13.879,4.665,2.029,6.5,19.435-5.213a5.665,5.665,0,0,0,3.426-8.323L561.279,156.6s-3.289-5.087-4.744-5.081Z" transform="translate(-257.973 -71.179)" fill="#e0e0e0"/>
      <path id="Trazado_116666" data-name="Trazado 116666" d="M540.776,105.965a7.515,7.515,0,0,0-7.9-7.353,7.662,7.662,0,0,0-7.132,7.691,78.931,78.931,0,0,0,.243,8.339c.606,3.811,3.052,4.971,4.022,5.282a4.889,4.889,0,0,0,1.038.105s.026.011.026.026l-.211,4.507a4.978,4.978,0,0,0,4.934,5.25c2.926,0,4.86-2.53,4.881-5.466l.084-18.38Z" transform="translate(-248.149 -46.159)" fill="#ffbe9d"/>
      <path id="Trazado_116667" data-name="Trazado 116667" d="M528.45,116.463a.612.612,0,0,0,.59.617.586.586,0,0,0,.633-.553.612.612,0,0,0-.59-.617A.59.59,0,0,0,528.45,116.463Z" transform="translate(-249.428 -54.343)" fill="#263238"/>
      <path id="Trazado_116668" data-name="Trazado 116668" d="M527.694,114.353c.074.079.543-.264,1.2-.264s1.144.332,1.212.253c.037-.037-.042-.179-.253-.332a1.694,1.694,0,0,0-.97-.3,1.6,1.6,0,0,0-.954.306c-.2.158-.274.3-.232.337Z" transform="translate(-249.068 -53.304)" fill="#263238"/>
      <path id="Trazado_116669" data-name="Trazado 116669" d="M540.69,116.463a.612.612,0,0,0,.59.617.586.586,0,0,0,.632-.553.612.612,0,0,0-.59-.617A.59.59,0,0,0,540.69,116.463Z" transform="translate(-255.216 -54.343)" fill="#263238"/>
      <path id="Trazado_116670" data-name="Trazado 116670" d="M540,114.593c.074.079.543-.264,1.2-.264s1.144.332,1.212.253c.037-.037-.042-.179-.253-.332a1.68,1.68,0,0,0-.97-.3,1.565,1.565,0,0,0-.954.311c-.2.158-.274.3-.232.337Z" transform="translate(-254.889 -53.417)" fill="#263238"/>
      <path id="Trazado_116671" data-name="Trazado 116671" d="M533.948,119.517a4.331,4.331,0,0,0-1.07-.2c-.169-.016-.327-.053-.358-.163a.858.858,0,0,1,.111-.5c.158-.406.322-.833.5-1.281a21.822,21.822,0,0,0,1.118-3.358,21.823,21.823,0,0,0-1.386,3.258c-.169.448-.327.88-.48,1.291a.979.979,0,0,0-.09.659.432.432,0,0,0,.279.248,1.2,1.2,0,0,0,.285.042,4.21,4.21,0,0,0,1.086,0Z" transform="translate(-251.231 -53.45)" fill="#263238"/>
      <path id="Trazado_116672" data-name="Trazado 116672" d="M535.823,137.718a10.491,10.491,0,0,0,5.735-1.708s-1.007,3.368-5.788,2.92l.058-1.212Z" transform="translate(-252.89 -63.849)" fill="#eb996e"/>
      <path id="Trazado_116673" data-name="Trazado 116673" d="M535.93,127.057a1.189,1.189,0,0,1,1.065-.443,1.093,1.093,0,0,1,.748.4.686.686,0,0,1,.053.785.8.8,0,0,1-.864.216,2.5,2.5,0,0,1-.843-.5.833.833,0,0,1-.19-.2.233.233,0,0,1,0-.248" transform="translate(-252.933 -59.403)" fill="#eb996e"/>
      <path id="Trazado_116674" data-name="Trazado 116674" d="M537.263,125.305c-.105-.005-.111.712-.722,1.218s-1.376.427-1.381.527c-.011.047.169.137.49.148a1.785,1.785,0,0,0,1.154-.4,1.557,1.557,0,0,0,.559-1.023c.026-.3-.053-.474-.1-.474Z" transform="translate(-252.601 -58.784)" fill="#263238"/>
      <path id="Trazado_116675" data-name="Trazado 116675" d="M539.437,112.524c.063.179.722.095,1.5.19.775.079,1.4.306,1.5.142.047-.079-.063-.248-.316-.422a2.5,2.5,0,0,0-1.112-.39,2.457,2.457,0,0,0-1.17.137C539.553,112.3,539.411,112.435,539.437,112.524Z" transform="translate(-254.622 -52.508)" fill="#263238"/>
      <path id="Trazado_116676" data-name="Trazado 116676" d="M528.149,111.765c.116.148.569-.005,1.118-.011.548-.026,1.007.1,1.117-.058.047-.074-.026-.227-.227-.369a1.611,1.611,0,0,0-1.8.053c-.2.153-.258.311-.206.38Z" transform="translate(-249.28 -52.059)" fill="#263238"/>
      <path id="Trazado_116677" data-name="Trazado 116677" d="M541.051,124.725a.1.1,0,0,1,.132.09.1.1,0,0,1-.132.084.1.1,0,0,1-.026-.153" transform="translate(-255.362 -58.51)" fill="#263238"/>
      <path id="Trazado_116678" data-name="Trazado 116678" d="M533.75,106.717a4.2,4.2,0,0,0,3.1,1.8c.812.063,1.729-.079,2.34.453a3.511,3.511,0,0,1,.77,1.576,3.813,3.813,0,0,0,1.634,2.082c.617.348,1.376.49,1.819,1.038a3.386,3.386,0,0,1,.432,2.14,2.072,2.072,0,0,0,.854,1.929q.032-4.064.069-8.123a3.348,3.348,0,0,0-.142-1.191,2.972,2.972,0,0,0-2.166-1.492,33.126,33.126,0,0,0-7.675-.838" transform="translate(-251.935 -49.7)" fill="#263238"/>
      <path id="Trazado_116679" data-name="Trazado 116679" d="M521.17,98.973s1.587-6.531,1.724-6.847a9.284,9.284,0,0,1,6.447-4h3.679s5.218,1.682,6.172,2.952,1.36,7.443,1.36,7.443l-10.31-2.24-7.011,1.708Z" transform="translate(-245.986 -41.207)" fill="#b3009d"/>
      <path id="Trazado_116680" data-name="Trazado 116680" d="M536.685,86.71h-1.576a2.557,2.557,0,0,0-.627,1.66c-.074,1.144-.332,8.987-.332,8.987l4.607-.211-.148-9.688,1.566.348-.047-.548-.416-.49Z" transform="translate(-252.124 -40.536)" fill="#b3009d"/>
      <path id="Trazado_116681" data-name="Trazado 116681" d="M524.885,105.814l.09-2.377,6.937-2.066,8.661,2.551v2.551a21.314,21.314,0,0,0-15.692-.664Z" transform="translate(-247.74 -47.468)" fill="#455a64"/>
      <path id="Trazado_116682" data-name="Trazado 116682" d="M523.364,102.906l-.306.3-2.5,1.566a39.529,39.529,0,0,1,9.757-1.3,46.172,46.172,0,0,1,10.642,1.729l-3.289-1.977a5.648,5.648,0,0,0-4.027-1.792l-6.231-.121a5.664,5.664,0,0,0-4.054,1.6Z" transform="translate(-245.697 -47.439)" fill="#b3009d"/>
      <path id="Trazado_116683" data-name="Trazado 116683" d="M534.3,95.051a20.6,20.6,0,0,1,.047-3.315,20.288,20.288,0,0,1,.322-3.305,20.671,20.671,0,0,1-.047,3.321,20.274,20.274,0,0,1-.322,3.3Z" transform="translate(-252.174 -41.349)" fill="#263238"/>
      <path id="Trazado_116684" data-name="Trazado 116684" d="M544.062,88.483a6.081,6.081,0,0,1-1.165-.148.307.307,0,0,0-.285.29c.005.221.016.448.021.685.01.5.026,1.028.037,1.587.021,1.123.021,2.14.011,2.878a4.673,4.673,0,0,1-.079,1.191,4.932,4.932,0,0,1-.116-1.191c-.037-.738-.069-1.755-.09-2.878-.005-.553-.011-1.086-.016-1.587v-.7a.516.516,0,0,1,.506-.469,4.469,4.469,0,0,1,1.17.343Z" transform="translate(-256.016 -41.212)" fill="#263238"/>
      <path id="Trazado_116685" data-name="Trazado 116685" d="M520.28,104.415a1.4,1.4,0,0,1,.2-.127,6.234,6.234,0,0,1,.6-.279c.258-.116.585-.242.938-.422a2.712,2.712,0,0,0,1.012-.833c.3-.38.337-.98.749-1.486a1.371,1.371,0,0,1,.854-.49,6.25,6.25,0,0,1,1-.09c1.344-.069,2.825-.09,4.375-.047s3.031.137,4.37.253a2.865,2.865,0,0,1,1.834.654,5.19,5.19,0,0,1,.538.7l.232.332.116.153a.383.383,0,0,0,.121.09c.891.459,1.655.78,2.161,1.044.253.127.448.232.58.306a.881.881,0,0,1,.19.127,7.514,7.514,0,0,1-.812-.343c-.517-.237-1.281-.522-2.209-.97a.6.6,0,0,1-.184-.137l-.127-.158c-.079-.111-.158-.221-.243-.332a4.47,4.47,0,0,0-.522-.659,2.63,2.63,0,0,0-1.7-.564c-1.334-.105-2.81-.19-4.354-.232s-3.02-.032-4.359.026c-.659.026-1.339.021-1.681.474-.369.427-.432,1.023-.764,1.455a2.741,2.741,0,0,1-1.1.859c-.369.174-.7.285-.965.385-.532.19-.817.327-.828.306Z" transform="translate(-245.565 -47.113)" fill="#263238"/>
      <path id="Trazado_116686" data-name="Trazado 116686" d="M522.04,107.008a1.412,1.412,0,0,1,.153-.137,3.01,3.01,0,0,1,.5-.316,8.861,8.861,0,0,1,2.045-.712,23.256,23.256,0,0,1,7.1-.422c1.381.1,2.709.169,3.906.337a29.141,29.141,0,0,1,3.136.664,12.347,12.347,0,0,1,1.175.385,2.092,2.092,0,0,1,.817.474.859.859,0,0,1,.232.553.315.315,0,0,1-.048.206.842.842,0,0,0-.258-.685,2.016,2.016,0,0,0-.791-.406c-.337-.116-.733-.232-1.17-.337-.875-.211-1.945-.432-3.12-.6-1.186-.153-2.5-.216-3.89-.316a25,25,0,0,0-7.037.337,10,10,0,0,0-2.04.617c-.464.2-.68.38-.7.353Z" transform="translate(-246.397 -49.337)" fill="#263238"/>
      <path id="Trazado_116687" data-name="Trazado 116687" d="M535.73,101.571s.116-.011.327-.011c.279,0,.575.011.9.016.754.021,1.8.069,2.947.169.575.047,1.123.1,1.618.158a7.021,7.021,0,0,1,1.313.216,1.281,1.281,0,0,1,.712.538.6.6,0,0,1,.1.316,1.28,1.28,0,0,0-.137-.29,1.317,1.317,0,0,0-.7-.49,6.919,6.919,0,0,0-1.3-.19c-.511-.047-1.049-.095-1.613-.148-1.144-.095-2.187-.158-2.941-.2-.322-.016-.617-.032-.891-.047a1.369,1.369,0,0,1-.327-.032Z" transform="translate(-252.871 -47.558)" fill="#fafafa"/>
      <path id="Trazado_116688" data-name="Trazado 116688" d="M542.071,94.492s-.021-.079-.047-.232-.047-.369-.079-.638c-.058-.538-.111-1.286-.137-2.108s-.011-1.576.01-2.114c.011-.269.026-.49.037-.638a.9.9,0,0,1,.032-.232,1.212,1.212,0,0,1,.01.237v.638c0,.538,0,1.286.021,2.108s.068,1.566.105,2.108l.042.638a.683.683,0,0,1,0,.237Z" transform="translate(-255.738 -41.396)" fill="#fafafa"/>
      <path id="Trazado_116689" data-name="Trazado 116689" d="M552.155,105.39a1.347,1.347,0,0,1,.211.069l.564.221c.6.248,1.2.5,1.85.764a6.539,6.539,0,0,1,1,.474,1.3,1.3,0,0,1,.58.7.917.917,0,0,1-.016.617.45.45,0,0,1-.137.179c-.011-.005.047-.063.095-.2a.862.862,0,0,0-.016-.575,1.243,1.243,0,0,0-.564-.638,8.346,8.346,0,0,0-.991-.459c-.648-.279-1.244-.538-1.834-.8l-.554-.253a.871.871,0,0,1-.2-.105Z" transform="translate(-260.635 -49.369)" fill="#fafafa"/>
      <path id="Trazado_116690" data-name="Trazado 116690" d="M537.22,87.066s.248-.026.648-.026.954,0,1.565.011a11.03,11.03,0,0,1,1.571.084.776.776,0,0,1,.427.232.3.3,0,0,1,.084.158.774.774,0,0,0-.527-.311c-.385-.063-.943-.026-1.555-.047s-1.165-.026-1.565-.042a3.433,3.433,0,0,1-.648-.053Z" transform="translate(-253.575 -40.692)" fill="#fafafa"/>
      <path id="Trazado_116691" data-name="Trazado 116691" d="M524.64,108.84a10.5,10.5,0,0,0,.448,6.273,22.233,22.233,0,0,1,.358-3.885,5.13,5.13,0,0,1,.6-1.8,2.916,2.916,0,0,1,1.771-.8c.648-.142,1.37-.242,1.608-.864a18.711,18.711,0,0,0-4.786,1.065" transform="translate(-247.495 -50.495)" fill="#263238"/>
      <path id="Trazado_116692" data-name="Trazado 116692" d="M529.051,141.56a2.919,2.919,0,0,0-1.9.849,8.691,8.691,0,0,1-1.281,1.666c-.527.406-1.239.532-1.713.991-.933.9-.474,2.483-.88,3.721a9.327,9.327,0,0,1-1.175,1.945,2.4,2.4,0,0,0-.411,2.151,1.871,1.871,0,0,0,1.471,1.038,3.893,3.893,0,0,0,1.845-.253c-.026-.49-.047-.975-.074-1.465a2.089,2.089,0,0,0,.343.791.715.715,0,0,0,.77.258c.422-.169.438-.754.39-1.207a7.309,7.309,0,0,1,.87-4.871c.453-.659,1.212-1.355,1.6-2.05l.148-3.558" transform="translate(-246.176 -66.474)" fill="#263238"/>
      <path id="Trazado_116693" data-name="Trazado 116693" d="M483.992,189.709s.944-2.061,2.319-1.971,5.234.517,5.234.517l.427,1.887-8.413-.427" transform="translate(-228.2 -88.309)" fill="#ffbe9d"/>
      <path id="Trazado_116694" data-name="Trazado 116694" d="M491.99,184.4l2.351-7.3a.916.916,0,0,1,1.755.527l-2.04,7.179-2.066-.411Z" transform="translate(-232.187 -82.977)" fill="#b3009d"/>
      <path id="Trazado_116695" data-name="Trazado 116695" d="M476.07,191.51h22.9l15.186,20.637-21.417-.311Z" transform="translate(-224.659 -90.094)" fill="#263238"/>
      <path id="Trazado_116696" data-name="Trazado 116696" d="M523.612,205.682a18.128,18.128,0,0,1,3.063-.095c1.2.121,5.709,1.139,5.709,1.139l1.913,5.988-2.235-.2-1.5.727a36.334,36.334,0,0,1-5.677.506s-.9-.506-.633-1.023c0,0-2.045-.242-1.834-1.866a1.69,1.69,0,0,1-1.323-1.476l-3.753-.206a.747.747,0,0,1-.7-.68c-.037-.422.532-.569.954-.585l5.846-.253a.859.859,0,0,0,.643-1.381l-.464-.6Z" transform="translate(-243.842 -96.733)" fill="#ffbe9d"/>
      <g id="Grupo_81586" data-name="Grupo 81586" transform="translate(281.241 119.68)" opacity="0.5">
        <path id="Trazado_116697" data-name="Trazado 116697" d="M532.9,229.887l17.405-3.727,1.945,6.441-19.593,2.166Z" transform="translate(-532.66 -226.16)" fill="#fff"/>
      </g>
      <g id="Grupo_81587" data-name="Grupo 81587" transform="translate(266.392 119.127)" opacity="0.5">
        <path id="Trazado_116698" data-name="Trazado 116698" d="M518.864,229.279l-11.7-4.169-2.672,6.341,14.079,2.6Z" transform="translate(-504.49 -225.11)" fill="#fff"/>
      </g>
      <path id="Trazado_116699" data-name="Trazado 116699" d="M557.132,124.6a1.1,1.1,0,0,1,.047.791,2.228,2.228,0,0,1-1.233,1.455,2.3,2.3,0,0,1-1.9-.216c-.427-.274-.548-.585-.522-.6.037-.032.211.221.622.427a2.333,2.333,0,0,0,1.7.132A2.25,2.25,0,0,0,557,125.338a3.537,3.537,0,0,0,.137-.733Z" transform="translate(-261.285 -58.453)" fill="#455a64"/>
      <path id="Trazado_116700" data-name="Trazado 116700" d="M556.721,122.774a2.147,2.147,0,0,1-.569.733,2.2,2.2,0,0,1-.912.48,1.753,1.753,0,0,1-1.27-.137,2.176,2.176,0,0,1-.88-.912,3.117,3.117,0,0,1-.306-.975,2.145,2.145,0,0,1,0-.922,6.181,6.181,0,0,1,.19.886,2.471,2.471,0,0,0,1.123,1.681,1.536,1.536,0,0,0,1.081.132,2.3,2.3,0,0,0,.849-.39c.438-.322.654-.606.691-.575Z" transform="translate(-260.916 -56.77)" fill="#455a64"/>
      <path id="Trazado_116701" data-name="Trazado 116701" d="M561.79,170.582a1.085,1.085,0,0,1-.148-.163c-.084-.111-.221-.274-.369-.5a14.644,14.644,0,0,1-1.154-1.966,16.808,16.808,0,0,1-.142-14.6,14.5,14.5,0,0,1,1.117-1.987c.148-.227.274-.39.358-.506a.731.731,0,0,1,.142-.163,6.935,6.935,0,0,1-.411.722,18.433,18.433,0,0,0-1.028,2.014,17.362,17.362,0,0,0,.137,14.432,18.124,18.124,0,0,0,1.07,1.992,6.62,6.62,0,0,1,.427.717Z" transform="translate(-263.581 -70.795)" fill="#263238"/>
      <path id="Trazado_116702" data-name="Trazado 116702" d="M536.92,165.132s.216-.19.627-.511a21.388,21.388,0,0,0,1.645-1.455,26.045,26.045,0,0,0,4.343-5.756,58.448,58.448,0,0,0,3.1-6.557c.343-.822.622-1.508.843-2.035a5.005,5.005,0,0,1,.337-.738,4.858,4.858,0,0,1-.242.775c-.174.5-.427,1.2-.759,2.072a48.948,48.948,0,0,1-3.041,6.621,24.2,24.2,0,0,1-4.449,5.761,16.26,16.26,0,0,1-1.713,1.4c-.211.153-.385.258-.5.332a.682.682,0,0,1-.184.1Z" transform="translate(-253.434 -69.557)" fill="#263238"/>
      <path id="Trazado_116703" data-name="Trazado 116703" d="M528.034,148.79c.053.016-.242.907-.453,2.388a17.475,17.475,0,0,0-.163,2.62,19.191,19.191,0,0,0,.343,3.194,18.9,18.9,0,0,0,.928,3.078,17.425,17.425,0,0,0,1.17,2.351c.77,1.286,1.386,1.993,1.344,2.024a2.927,2.927,0,0,1-.448-.48,6.44,6.44,0,0,1-.48-.606,10.047,10.047,0,0,1-.58-.843,15.825,15.825,0,0,1-1.239-2.356,16.517,16.517,0,0,1-1.286-6.368,15.4,15.4,0,0,1,.221-2.651c.047-.374.142-.706.206-1a6.473,6.473,0,0,1,.206-.743,3.565,3.565,0,0,1,.227-.617Z" transform="translate(-248.823 -69.888)" fill="#263238"/>
      <path id="Trazado_116704" data-name="Trazado 116704" d="M521.463,147.05c.074.016-.791,4.18-1.929,9.293s-2.124,9.251-2.2,9.235.791-4.175,1.929-9.293S521.39,147.034,521.463,147.05Z" transform="translate(-244.171 -69.07)" fill="#263238"/>
      <path id="Trazado_116705" data-name="Trazado 116705" d="M468.495,128.158l1.755-6.115s.638-2.483.785-3.063c.2-.77-.337-1.017-.659-.5-.121.2-1.492,2.72-1.492,2.72s1.112-4.143,1.149-4.291c.358-1.355-.48-1.218-.733-.738-.258.5-1.813,4.57-1.813,4.57,1.476-5.324,1.033-5.8.633-5.888s-1.7,4.781-1.7,4.781a4.557,4.557,0,0,0-1.276-1.423c-1.281-.9-3.437-.032-3.547.575s.659.785.659.785a1.939,1.939,0,0,1,3.084,1.792,1.208,1.208,0,0,1-2.367.211c-.511-2.414-1.349-1.639-1.349-1.639l.78,5.319-.9,2.662" transform="translate(-217.769 -53.846)" fill="#b78876"/>
      <path id="Trazado_116706" data-name="Trazado 116706" d="M402.682,95.51c2-.527,3.231-1.239,3.231-2.024,0-1.618-5.234-2.936-11.7-2.936s-11.7,1.313-11.7,2.936c0,.78,1.218,1.492,3.2,2.019" transform="translate(-180.42 -42.352)" fill="#b3009d"/>
      <g id="Grupo_81588" data-name="Grupo 81588" transform="translate(203.27 48.715)" opacity="0.4">
        <path id="Trazado_116707" data-name="Trazado 116707" d="M402.614,95.921c1.776-.469,2.91-1.1,2.862-1.792-.127-1.935-4.644-2.6-10.368-2.6s-10.368,1.165-10.368,2.6c0,.691,1.081,1.323,2.836,1.787" transform="translate(-384.74 -91.53)"/>
      </g>
      <path id="Trazado_116708" data-name="Trazado 116708" d="M405.54,84.437s-1.671-6.879-1.819-7.211-2.1-3.347-6.789-4.206h-3.869s-5.5,1.766-6.5,3.1-1.434,7.838-1.434,7.838L395.989,81.6l7.385,1.8Z" transform="translate(-181.654 -34.062)" fill="#b3009d"/>
      <path id="Trazado_116709" data-name="Trazado 116709" d="M401.815,71.511h1.66a2.7,2.7,0,0,1,.659,1.745c.079,1.2.348,9.462.348,9.462l-4.855-.221.153-10.2-1.65.364.053-.58.438-.517L401.8,71.5Z" transform="translate(-187.802 -33.343)" fill="#b3009d"/>
      <path id="Trazado_116710" data-name="Trazado 116710" d="M348.96,397.955l-3.194,12.682-5.419,9.3a1.34,1.34,0,0,0,1.792,1.855c2.435-1.313,11.365-6.188,11.544-7.132.211-1.091,4.259-13.157,4.259-13.157l-8.977-3.558Z" transform="translate(-160.391 -187.717)" fill="#b3009d"/>
      <g id="Grupo_81589" data-name="Grupo 81589" transform="translate(180.515 226.099)" opacity="0.6">
        <path id="Trazado_116711" data-name="Trazado 116711" d="M341.57,436.052l13.009-8-.148.532a1.988,1.988,0,0,1-.812,1.133c-1.059.717-4.032,2.641-10.785,6.325A1.344,1.344,0,0,1,341.57,436.052Z" transform="translate(-341.57 -428.05)" fill="#fff"/>
      </g>
      <g id="Grupo_81590" data-name="Grupo 81590" transform="translate(191.533 221.269)" opacity="0.6">
        <path id="Trazado_116712" data-name="Trazado 116712" d="M363,418.936a.811.811,0,0,0-.5.959.784.784,0,0,0,.949.5.856.856,0,0,0,.522-1.023.811.811,0,0,0-1.044-.411" transform="translate(-362.474 -418.886)" fill="#fff"/>
      </g>
      <path id="Trazado_116713" data-name="Trazado 116713" d="M347.949,432.47a4.121,4.121,0,0,0-.833-1.286,4.173,4.173,0,0,0-1.376-.68c0-.032.184-.09.49-.047a2.079,2.079,0,0,1,1.075.511,2.112,2.112,0,0,1,.633,1.007C348.012,432.275,347.98,432.465,347.949,432.47Z" transform="translate(-163.027 -203.082)" fill="#263238"/>
      <path id="Trazado_116714" data-name="Trazado 116714" d="M345.41,435.751c-.074.037-.364-.485-.965-.849a11.681,11.681,0,0,0-1.186-.5,1.483,1.483,0,0,1,1.339.258c.68.422.891,1.081.812,1.1Z" transform="translate(-161.854 -204.923)" fill="#263238"/>
      <path id="Trazado_116715" data-name="Trazado 116715" d="M351.4,428.917A13.5,13.5,0,0,0,350,427.5a13.892,13.892,0,0,0-1.75-.954,2.962,2.962,0,0,1,1.924.722,3,3,0,0,1,1.233,1.645Z" transform="translate(-164.214 -201.231)" fill="#263238"/>
      <path id="Trazado_116716" data-name="Trazado 116716" d="M353.777,422.862c-.053.069-.669-.416-1.566-.7s-1.676-.264-1.682-.348a3.338,3.338,0,0,1,3.252,1.054Z" transform="translate(-165.292 -198.95)" fill="#263238"/>
      <path id="Trazado_116717" data-name="Trazado 116717" d="M355.6,415.863a6.538,6.538,0,0,0-1.613-.775,6.645,6.645,0,0,0-1.787-.042c-.016-.032.169-.153.506-.237a2.887,2.887,0,0,1,1.349,0,2.849,2.849,0,0,1,1.2.611C355.515,415.652,355.625,415.842,355.6,415.863Z" transform="translate(-166.081 -195.651)" fill="#263238"/>
      <path id="Trazado_116718" data-name="Trazado 116718" d="M354.566,411.871a1.487,1.487,0,0,1,.116-.48,3.484,3.484,0,0,1,.722-1.144,1.534,1.534,0,0,1,.822-.527.535.535,0,0,1,.553.279.852.852,0,0,1,.042.622,1.9,1.9,0,0,1-2.066,1.249,2.2,2.2,0,0,1-1.776-1.682.787.787,0,0,1,.132-.622.52.52,0,0,1,.606-.121,1.889,1.889,0,0,1,.712.659,3.853,3.853,0,0,1,.59,1.218,1.194,1.194,0,0,1,.074.49,6.1,6.1,0,0,0-.822-1.581,1.7,1.7,0,0,0-.633-.559.292.292,0,0,0-.332.063.521.521,0,0,0-.063.411,1.953,1.953,0,0,0,1.555,1.439,1.646,1.646,0,0,0,1.771-1.033.649.649,0,0,0-.011-.437.3.3,0,0,0-.306-.158,1.4,1.4,0,0,0-.706.432,5.262,5.262,0,0,0-.986,1.481Z" transform="translate(-166.445 -193.13)" fill="#263238"/>
      <path id="Trazado_116719" data-name="Trazado 116719" d="M412.323,404.543l-.7,10.121s10.052,4.111,10.1,5.993L402.06,420l.443-15.813Z" transform="translate(-189.66 -190.667)" fill="#b3009d"/>
      <path id="Trazado_116720" data-name="Trazado 116720" d="M408.174,422.034a.8.8,0,0,0-.585.9.772.772,0,0,0,.886.59.853.853,0,0,0,.617-.954.8.8,0,0,0-.991-.511" transform="translate(-192.269 -199.092)" fill="#e0e0e0"/>
      <g id="Grupo_81591" data-name="Grupo 81591" transform="translate(212.394 227.744)" opacity="0.6">
        <path id="Trazado_116721" data-name="Trazado 116721" d="M402.05,432.762l.105-1.592,18.818,1.223s.864.411.743,1.023Z" transform="translate(-402.05 -431.17)" fill="#fff"/>
      </g>
      <path id="Trazado_116722" data-name="Trazado 116722" d="M419.172,423.8c-.005.095-.49.121-.97.416-.49.279-.749.691-.833.648-.09-.021.074-.59.664-.933s1.165-.216,1.139-.126Z" transform="translate(-196.889 -199.898)" fill="#263238"/>
      <path id="Trazado_116723" data-name="Trazado 116723" d="M423.462,425.6c.021.095-.4.242-.743.638s-.448.822-.543.817c-.09.011-.137-.553.3-1.038S423.468,425.513,423.462,425.6Z" transform="translate(-199.145 -200.774)" fill="#263238"/>
      <path id="Trazado_116724" data-name="Trazado 116724" d="M426.636,428.933c-.09.016-.206-.469.058-.986s.722-.712.759-.633c.053.079-.248.353-.459.78s-.264.828-.358.833Z" transform="translate(-201.233 -201.595)" fill="#263238"/>
      <path id="Trazado_116725" data-name="Trazado 116725" d="M418.781,419.139c-.042.084-.48-.063-1.023-.042-.543.005-.975.174-1.023.09s.369-.411,1.012-.427,1.081.3,1.033.374Z" transform="translate(-196.598 -197.557)" fill="#263238"/>
      <path id="Trazado_116726" data-name="Trazado 116726" d="M418.17,414.1a1.847,1.847,0,0,1-.986-.037,4.464,4.464,0,0,1-1.023-.353,4.284,4.284,0,0,1-.553-.322,1.159,1.159,0,0,1-.29-.242.416.416,0,0,1-.026-.511.529.529,0,0,1,.427-.206,1.219,1.219,0,0,1,.369.063,3.443,3.443,0,0,1,.606.232,3.575,3.575,0,0,1,.891.627c.443.438.585.8.553.817-.042.032-.258-.279-.712-.643a3.987,3.987,0,0,0-.865-.522,4.085,4.085,0,0,0-.559-.2c-.206-.063-.385-.069-.443.021-.021.037-.021.047.016.111a.926.926,0,0,0,.211.174,5.382,5.382,0,0,0,.511.316,5.477,5.477,0,0,0,.938.4,5.942,5.942,0,0,1,.922.269Z" transform="translate(-195.881 -194.564)" fill="#263238"/>
      <path id="Trazado_116727" data-name="Trazado 116727" d="M420.366,413.079c-.037.016-.216-.337-.227-.959a3.235,3.235,0,0,1,.169-1.075,3.661,3.661,0,0,1,.269-.59.8.8,0,0,1,.643-.474.457.457,0,0,1,.4.29,1.518,1.518,0,0,1,.09.364,2.308,2.308,0,0,1-.021.664,2.235,2.235,0,0,1-.453,1c-.4.5-.806.6-.812.564-.032-.047.311-.221.622-.7a2.3,2.3,0,0,0,.343-.917,2.062,2.062,0,0,0,0-.569c-.021-.211-.095-.38-.174-.364-.1,0-.269.148-.353.311a3.514,3.514,0,0,0-.264.527,3.407,3.407,0,0,0-.221.975C420.329,412.7,420.419,413.064,420.366,413.079Z" transform="translate(-198.21 -193.405)" fill="#263238"/>
      <path id="Trazado_116728" data-name="Trazado 116728" d="M389.8,117.723l11.823-.543c.069-1.255-.575-9.019-.575-9.019s4.47-.7,4.523-5.166-.622-13.394-.622-13.394l-.074-.39c-5.171-2.224-11.164-2.419-15.629,1.012l-.664.511,1.212,26.983Z" transform="translate(-183.286 -40.95)" fill="#b78876"/>
      <path id="Trazado_116729" data-name="Trazado 116729" d="M407.025,125.015a10.365,10.365,0,0,1-5.825-1.655s1.376,3.215,5.835,2.815Z" transform="translate(-189.254 -57.867)" fill="#aa6550"/>
      <path id="Trazado_116730" data-name="Trazado 116730" d="M386.971,102.225c-.074-.032-3.073-.907-2.973,2.145a2.3,2.3,0,0,0,3.147,2.24C387.145,106.521,386.971,102.225,386.971,102.225Z" transform="translate(-181.118 -47.806)" fill="#b78876"/>
      <path id="Trazado_116731" data-name="Trazado 116731" d="M386.87,106.384a1.477,1.477,0,0,1-.142.084.54.54,0,0,1-.4.021,1.311,1.311,0,0,1-.648-1.16,1.706,1.706,0,0,1,.127-.764.622.622,0,0,1,.385-.422.269.269,0,0,1,.316.137c.042.084.026.148.042.153s.063-.053.037-.179a.365.365,0,0,0-.126-.19.4.4,0,0,0-.3-.069.753.753,0,0,0-.543.49,1.815,1.815,0,0,0-.158.859,1.386,1.386,0,0,0,.817,1.3.583.583,0,0,0,.485-.095c.09-.079.105-.148.095-.153Z" transform="translate(-181.813 -48.708)" fill="#aa6550"/>
      <path id="Trazado_116732" data-name="Trazado 116732" d="M415.525,101.5a.636.636,0,0,1-.617.643.607.607,0,0,1-.659-.575.636.636,0,0,1,.617-.643A.607.607,0,0,1,415.525,101.5Z" transform="translate(-195.424 -47.259)" fill="#263238"/>
      <path id="Trazado_116733" data-name="Trazado 116733" d="M415.587,100.209c-.079.084-.564-.274-1.249-.274s-1.191.343-1.265.264c-.037-.037.042-.19.264-.348a1.734,1.734,0,0,1,1.012-.311,1.668,1.668,0,0,1,1,.322C415.555,100.025,415.629,100.172,415.587,100.209Z" transform="translate(-194.864 -46.603)" fill="#263238"/>
      <path id="Trazado_116734" data-name="Trazado 116734" d="M402.725,101.963a.636.636,0,0,1-.617.643.607.607,0,0,1-.659-.575.636.636,0,0,1,.617-.643A.607.607,0,0,1,402.725,101.963Z" transform="translate(-189.372 -47.477)" fill="#263238"/>
      <path id="Trazado_116735" data-name="Trazado 116735" d="M402.777,100.449c-.079.084-.564-.274-1.249-.274s-1.191.348-1.265.264c-.037-.037.042-.19.264-.348a1.735,1.735,0,0,1,1.012-.311,1.668,1.668,0,0,1,1,.322C402.745,100.265,402.819,100.412,402.777,100.449Z" transform="translate(-188.806 -46.716)" fill="#263238"/>
      <path id="Trazado_116736" data-name="Trazado 116736" d="M409.484,105.574a4.807,4.807,0,0,1,1.117-.2c.174-.016.343-.053.369-.174a.9.9,0,0,0-.116-.522c-.163-.427-.337-.87-.517-1.334a22.328,22.328,0,0,1-1.165-3.495,23.146,23.146,0,0,1,1.444,3.389c.174.469.337.917.5,1.344a1.009,1.009,0,0,1,.09.691.44.44,0,0,1-.29.258,1.082,1.082,0,0,1-.3.042A4.24,4.24,0,0,1,409.484,105.574Z" transform="translate(-193.02 -46.749)" fill="#263238"/>
      <path id="Trazado_116737" data-name="Trazado 116737" d="M405.841,111.61c.111-.005.111.738.748,1.27s1.434.448,1.439.553c.01.047-.179.142-.511.153a1.878,1.878,0,0,1-1.2-.416,1.6,1.6,0,0,1-.58-1.065c-.026-.311.053-.5.105-.49Z" transform="translate(-191.396 -52.311)" fill="#263238"/>
      <path id="Trazado_116738" data-name="Trazado 116738" d="M402.566,95.486c-.069.184-.754.1-1.56.2-.806.079-1.46.316-1.566.148-.047-.079.063-.258.327-.437a2.6,2.6,0,0,1,1.16-.406,2.641,2.641,0,0,1,1.218.142c.3.121.443.264.416.353Z" transform="translate(-188.416 -44.441)" fill="#263238"/>
      <path id="Trazado_116739" data-name="Trazado 116739" d="M415.272,96.4c-.121.158-.6-.005-1.165-.016-.569-.026-1.049.105-1.16-.058-.047-.079.026-.237.237-.385a1.57,1.57,0,0,1,.944-.253,1.615,1.615,0,0,1,.928.311c.2.158.269.322.216.4Z" transform="translate(-194.802 -44.781)" fill="#263238"/>
      <path id="Trazado_116740" data-name="Trazado 116740" d="M390.154,224.8,388.2,325.776a1.231,1.231,0,0,1-1.249,1.212l-11.765-.105a1.238,1.238,0,0,1-1.228-1.265l1.824-86.905-15.3,86.262a2.215,2.215,0,0,1-2.261,1.829l-9.862-.343a2.223,2.223,0,0,1-2.119-2.562l15.492-99.519,28.417.411Z" transform="translate(-163.254 -105.638)" fill="#263238"/>
      <path id="Trazado_116741" data-name="Trazado 116741" d="M423.921,137.816l-7.311-1.761-4.823,13.088-13.331-11.929c-1.418-1.038-3.864-1.17-5.724-1.4l-.142-.016c-.722-.084-1.075-.19-1.508-.242-3.215,2.419-8.713,2.572-11.871.079,0,0-2.393.543-3.822.817-4.5.864-7.743,4.143-8.639,7.169l5.635,12.993,1.081,12.345-3.121,11.054a1.921,1.921,0,0,0,1.6,2.425l27.916.427.459-.227a5.165,5.165,0,0,0,.749-3.537c-1.207-5.287-.364-21.063-.617-25.9,5.477,5.319,11.517,9.736,15.929,7,3.669-2.272,7.538-22.376,7.538-22.376Z" transform="translate(-172.963 -63.636)" fill="#e0e0e0"/>
      <path id="Trazado_116742" data-name="Trazado 116742" d="M388.675,95.58c.121,1.239.079,2.493.2,3.732a4.216,4.216,0,0,0,.443,1.339,1.228,1.228,0,0,0,2.33.011,3.663,3.663,0,0,0,.274-1.6,4.926,4.926,0,0,1,.169-1.624,8.843,8.843,0,0,1,.922-1.581,1.973,1.973,0,0,0,.285-1.745,9.142,9.142,0,0,0-4.628,1.46" transform="translate(-183.328 -44.034)" fill="#263238"/>
      <path id="Trazado_116743" data-name="Trazado 116743" d="M405.11,91.646l-.095-2.5-7.306-2.177-9.119,2.688v2.688A22.434,22.434,0,0,1,405.11,91.646Z" transform="translate(-183.29 -40.659)" fill="#455a64"/>
      <path id="Trazado_116744" data-name="Trazado 116744" d="M402.268,88.58l.322.311,2.63,1.65a41.769,41.769,0,0,0-10.273-1.365,48.817,48.817,0,0,0-11.206,1.819l3.463-2.082a5.97,5.97,0,0,1,4.238-1.887L398,86.9a5.966,5.966,0,0,1,4.27,1.681Z" transform="translate(-180.997 -40.625)" fill="#b3009d"/>
      <path id="Trazado_116745" data-name="Trazado 116745" d="M409.592,80.314a23.184,23.184,0,0,1-.332-3.479,22.979,22.979,0,0,1-.058-3.495,23.18,23.18,0,0,1,.332,3.479A22.979,22.979,0,0,1,409.592,80.314Z" transform="translate(-193.018 -34.213)" fill="#263238"/>
      <path id="Trazado_116746" data-name="Trazado 116746" d="M398.15,73.393a4.73,4.73,0,0,1,1.228-.353.538.538,0,0,1,.527.49v.738c-.005.527-.011,1.081-.016,1.666-.021,1.186-.053,2.256-.09,3.031a5.874,5.874,0,0,1-.116,1.255,5.792,5.792,0,0,1-.074-1.255c-.011-.775-.011-1.845.01-3.031.016-.585.026-1.144.037-1.666.011-.248.016-.485.021-.717a.325.325,0,0,0-.306-.311,7.28,7.28,0,0,1-1.223.163Z" transform="translate(-187.811 -34.071)" fill="#263238"/>
      <path id="Trazado_116747" data-name="Trazado 116747" d="M406.045,90.151s-.306-.127-.87-.327c-.279-.105-.627-.221-1.017-.406a2.907,2.907,0,0,1-1.16-.907c-.353-.453-.416-1.081-.806-1.534-.364-.48-1.081-.48-1.776-.506-1.407-.058-2.962-.069-4.591-.026s-3.179.137-4.586.242a2.792,2.792,0,0,0-1.787.6,4.977,4.977,0,0,0-.548.7q-.126.182-.253.348l-.132.163a.713.713,0,0,1-.19.142c-.975.474-1.776.775-2.325,1.023a7.8,7.8,0,0,1-.854.358.922.922,0,0,1,.2-.137c.137-.079.343-.19.611-.322.527-.274,1.339-.617,2.277-1.1a.569.569,0,0,0,.132-.095l.121-.163c.079-.116.158-.232.242-.348a4.993,4.993,0,0,1,.564-.738,2.969,2.969,0,0,1,1.924-.685c1.413-.121,2.968-.221,4.6-.269s3.194-.021,4.607.047a7.758,7.758,0,0,1,1.049.095,1.44,1.44,0,0,1,.891.517c.432.532.474,1.16.791,1.566a2.827,2.827,0,0,0,1.07.88c.374.19.717.322.991.443a6.913,6.913,0,0,1,.627.3.958.958,0,0,1,.206.132Z" transform="translate(-181.664 -40.266)" fill="#263238"/>
      <path id="Trazado_116748" data-name="Trazado 116748" d="M404.928,92.91a1.407,1.407,0,0,1-.2-.095,4.082,4.082,0,0,0-.543-.279,10.647,10.647,0,0,0-2.151-.654,26.359,26.359,0,0,0-7.411-.358c-1.46.105-2.846.169-4.1.332-1.239.179-2.367.411-3.289.633-.464.116-.875.237-1.233.358a2.052,2.052,0,0,0-.833.432A.883.883,0,0,0,384.9,94a.372.372,0,0,1-.053-.216.857.857,0,0,1,.248-.58,2.167,2.167,0,0,1,.859-.5c.358-.137.77-.274,1.233-.4a31.558,31.558,0,0,1,3.3-.7c1.26-.179,2.657-.253,4.111-.353a24.414,24.414,0,0,1,7.474.443,9.226,9.226,0,0,1,2.156.749,2.913,2.913,0,0,1,.527.332c.116.084.169.132.163.142Z" transform="translate(-181.522 -42.635)" fill="#263238"/>
      <path id="Trazado_116749" data-name="Trazado 116749" d="M402.9,71.911s-.258.032-.68.053l-1.645.047c-.643.026-1.233-.016-1.639.053a.805.805,0,0,0-.553.332.38.38,0,0,1,.09-.163.833.833,0,0,1,.448-.242,12.16,12.16,0,0,1,1.65-.084c.559,0,1.081-.011,1.65-.016a3.867,3.867,0,0,1,.685.026Z" transform="translate(-187.92 -33.528)" fill="#fafafa"/>
      <path id="Trazado_116750" data-name="Trazado 116750" d="M401.048,87.161s-.121.016-.343.032c-.29.016-.6.032-.938.047-.791.042-1.887.105-3.094.211-.6.053-1.165.105-1.7.158a8.094,8.094,0,0,0-1.371.2,1.363,1.363,0,0,0-.738.517,1.436,1.436,0,0,0-.142.306.683.683,0,0,1,.111-.332,1.372,1.372,0,0,1,.754-.569,7.327,7.327,0,0,1,1.381-.227c.522-.058,1.1-.116,1.7-.169,1.207-.1,2.3-.153,3.1-.179l.944-.016a1.816,1.816,0,0,1,.348.011Z" transform="translate(-185.243 -40.739)" fill="#fafafa"/>
      <path id="Trazado_116751" data-name="Trazado 116751" d="M401.578,79.713s-.005-.09,0-.248c.016-.221.032-.443.047-.675.037-.569.084-1.349.111-2.219s.026-1.65.021-2.219v-.675a.924.924,0,0,1,.011-.248,1.1,1.1,0,0,1,.032.248c.016.158.026.39.042.675.026.569.037,1.355.011,2.224s-.084,1.655-.142,2.219c-.032.285-.058.511-.079.669a.791.791,0,0,1-.047.242Z" transform="translate(-189.431 -34.256)" fill="#fafafa"/>
      <path id="Trazado_116752" data-name="Trazado 116752" d="M387.194,91.185a1.5,1.5,0,0,1-.206.111l-.58.264c-.617.264-1.244.538-1.935.838a8.073,8.073,0,0,0-1.044.485,1.3,1.3,0,0,0-.59.675.922.922,0,0,0-.016.606c.053.137.111.2.1.206a.475.475,0,0,1-.142-.19.941.941,0,0,1-.016-.648,1.417,1.417,0,0,1,.611-.738,7.243,7.243,0,0,1,1.054-.5c.7-.29,1.328-.548,1.945-.806.2-.079.4-.158.6-.232a1.376,1.376,0,0,1,.221-.074Z" transform="translate(-180.513 -42.649)" fill="#fafafa"/>
      <path id="Trazado_116753" data-name="Trazado 116753" d="M388.68,133.235l.648-4.465,6.083,2.23,1.718,3.026,1.065-3.321,3.337-1.149,1.428,2.973-2.446,3.463-4.6.928Z" transform="translate(-183.333 -60.425)" fill="#e0e0e0"/>
      <path id="Trazado_116754" data-name="Trazado 116754" d="M397.234,136.75a1.39,1.39,0,0,1-.227-.184,7.931,7.931,0,0,1-.559-.6,8.908,8.908,0,0,1-1.465-2.53h.221c-.416,1.054-.9,2.261-1.407,3.548-.242.606-.485,1.191-.706,1.75l-.074.184-.142-.137c-1.228-1.186-2.288-2.224-3.036-2.973-.343-.348-.627-.643-.87-.886a1.638,1.638,0,0,1-.29-.343,1.6,1.6,0,0,1,.353.274l.922.828c.78.717,1.866,1.729,3.1,2.9l-.216.047c.221-.559.459-1.144.7-1.75.522-1.281,1.012-2.483,1.439-3.532l.116-.29.105.3a9.9,9.9,0,0,0,1.355,2.525c.416.559.7.854.675.875Z" transform="translate(-183.332 -62.454)" fill="#263238"/>
      <path id="Trazado_116755" data-name="Trazado 116755" d="M410.821,134.259a7.391,7.391,0,0,1-.712.986,9.744,9.744,0,0,1-2.33,2.045l-.132.084-.058-.153c-.2-.543-.427-1.128-.675-1.734-.364-.912-.712-1.776-.975-2.546l.237-.021c-.2,1.007-.448,1.834-.6,2.414a5.93,5.93,0,0,1-.264.917,3.918,3.918,0,0,1,.121-.949c.111-.6.322-1.428.5-2.425l.079-.448.158.427c.279.759.633,1.613,1,2.525.242.606.469,1.2.664,1.75l-.19-.069a11.279,11.279,0,0,0,2.34-1.929,11.318,11.318,0,0,1,.833-.875Z" transform="translate(-191.195 -62.156)" fill="#263238"/>
      <path id="Trazado_116756" data-name="Trazado 116756" d="M407.143,185.336s0-.163.032-.464q.055-.49.142-1.328c.079-.575.121-1.286.179-2.1.032-.411.058-.849.095-1.318.021-.469.037-.959.058-1.476.095-2.072.09-4.544.037-7.285-.069-2.741-.221-5.751-.437-8.914-.459-6.315-1.081-12.018-1.55-16.14-.232-2.045-.422-3.706-.559-4.886q-.087-.838-.142-1.328a2.555,2.555,0,0,1-.032-.464,3.075,3.075,0,0,1,.084.459l.2,1.323c.163,1.149.39,2.815.643,4.876.517,4.117,1.17,9.82,1.629,16.146.216,3.163.358,6.178.416,8.924.037,2.746.021,5.224-.1,7.3-.026.517-.053,1.012-.079,1.481-.042.464-.079.907-.116,1.318-.074.822-.132,1.529-.227,2.1-.079.559-.148,1-.2,1.323a3.077,3.077,0,0,1-.084.459Z" transform="translate(-191.033 -65.561)" fill="#263238"/>
      <path id="Trazado_116757" data-name="Trazado 116757" d="M398.918,136.86l1.381.722-.253,2.325-2.156-.453Z" transform="translate(-187.688 -64.251)" fill="#b3009d"/>
      <g id="Grupo_81592" data-name="Grupo 81592" transform="translate(210.202 72.609)" opacity="0.4">
        <path id="Trazado_116758" data-name="Trazado 116758" d="M398.918,136.86l1.381.722-.253,2.325-2.156-.453Z" transform="translate(-397.89 -136.86)"/>
      </g>
      <path id="Trazado_116759" data-name="Trazado 116759" d="M405.85,137.127l1.044-.917.959,2.43-1.371.659Z" transform="translate(-191.452 -63.944)" fill="#b3009d"/>
      <path id="Trazado_116760" data-name="Trazado 116760" d="M402.373,143.582l-.643,27.5,4.649,4.6,2.251-6.1-4.465-26.14Z" transform="translate(-189.504 -67.363)" fill="#b3009d"/>
      <path id="Trazado_116761" data-name="Trazado 116761" d="M401.975,136.421c.316-.037.754-.121,1.1-.2a.757.757,0,0,1,.828.385l.585,1.081a.784.784,0,0,1,.079.511l-.237,1.212a.766.766,0,0,1-.6.606l-1.328.269a.757.757,0,0,1-.833-.406l-.664-1.307a.749.749,0,0,1-.016-.654l.464-1.049A.769.769,0,0,1,401.975,136.421Z" transform="translate(-189.075 -63.943)" fill="#b3009d"/>
      <path id="Trazado_116762" data-name="Trazado 116762" d="M404.333,137.17s-.126.179-.353.443-.548.617-.907,1.007-.691.738-.933.986a3.566,3.566,0,0,1-.411.39,2.778,2.778,0,0,1,.353-.437c.232-.264.548-.617.912-1.012s.691-.738.933-.986a2.779,2.779,0,0,1,.411-.385Z" transform="translate(-189.504 -64.398)" fill="#263238"/>
      <path id="Trazado_116763" data-name="Trazado 116763" d="M403.011,138.533a6.945,6.945,0,0,1-.638-.538,3.355,3.355,0,0,1-.564-.617,6.448,6.448,0,0,1,1.2,1.154Z" transform="translate(-189.541 -64.496)" fill="#263238"/>
      <path id="Trazado_116764" data-name="Trazado 116764" d="M406.895,140.153a14.286,14.286,0,0,1,.332-1.587,1.576,1.576,0,0,0-.332-1.033.89.89,0,0,1-.158-.453c.016,0,.063.169.227.411a3.855,3.855,0,0,1,.269.448,1.04,1.04,0,0,1,.105.643c-.09.453-.211.833-.285,1.117a1.958,1.958,0,0,1-.153.453Z" transform="translate(-191.87 -64.355)" fill="#263238"/>
      <g id="Grupo_81593" data-name="Grupo 81593" transform="translate(199.275 100.224)" opacity="0.3">
        <path id="Trazado_116765" data-name="Trazado 116765" d="M377.292,199.755a5.267,5.267,0,0,0,4.586,1.318c1.154-.232,2.251-.864,3.432-.785,1.286.084,2.351.986,3.526,1.518,2.193,1,4.755.675,7.084.058a5.273,5.273,0,0,0,2.878-1.539,5.115,5.115,0,0,0,.886-2.393,24.638,24.638,0,0,0,.348-4.744,4.518,4.518,0,0,0-.764-2.825,3.273,3.273,0,0,0-2.124-1.07,8.157,8.157,0,0,0-2.425.137,40,40,0,0,0-17.558,7.532" transform="translate(-377.16 -189.249)"/>
      </g>
      <path id="Trazado_116766" data-name="Trazado 116766" d="M375.874,175.794s-14.77,6.6-16.272,6.937c-4.987,1.1-10.685-3.616-9.1-8.987.59-2,8.534-24.084,8.534-24.084l7.564,10.453-3.2,10.7,8.376-.559,4.1,5.54Z" transform="translate(-165.15 -70.304)" fill="#e0e0e0"/>
      <path id="Trazado_116767" data-name="Trazado 116767" d="M382.745,179.711s-.206.042-.585.079c-.427.037-.965.084-1.618.137-1.376.105-3.3.242-5.487.38l-.185.011.053-.179c.158-.532.322-1.086.49-1.655.749-2.5,1.439-4.755,1.95-6.383.248-.775.459-1.423.622-1.924a3.638,3.638,0,0,1,.264-.7,4.426,4.426,0,0,1-.163.727c-.142.506-.322,1.165-.538,1.95-.469,1.645-1.128,3.906-1.877,6.4-.169.564-.337,1.123-.5,1.655l-.132-.163c2.193-.127,4.117-.227,5.492-.29.654-.026,1.2-.042,1.624-.058a2.705,2.705,0,0,1,.59.011Z" transform="translate(-176.802 -79.676)" fill="#263238"/>
      <path id="Trazado_116768" data-name="Trazado 116768" d="M382.665,200.868c.026.069-3.215,1.465-7.243,3.126s-7.316,2.952-7.343,2.883,3.215-1.465,7.243-3.126S382.633,200.8,382.665,200.868Z" transform="translate(-173.591 -94.518)" fill="#263238"/>
      <path id="Trazado_116769" data-name="Trazado 116769" d="M391.3,182.087l-1.165-5.672a.726.726,0,0,1,.717-.875l14.68.069a.73.73,0,0,1,.722.812l-1.518,12.993a1.011,1.011,0,0,1-1.012.9l-9.572-.074a1.013,1.013,0,0,1-.975-.764Z" transform="translate(-184.014 -82.542)" fill="#455a64"/>
      <path id="Trazado_116770" data-name="Trazado 116770" d="M389.905,182.281a1.537,1.537,0,0,1,1.439.986,3.331,3.331,0,0,0,.98,1.571,3.466,3.466,0,0,0,2.62.385c.654-.322,3.279-2.678,3.737-2.419s.854.854.4,1.376-2.883,2.1-2.425,2.62,5.572-1.782,6.357-1.581,1.244.685.785,1-3.932,1.624-4.127,2.082c0,0,5.245-1.376,5.44-1.049s.522.854,0,1.049-5.044,1.376-5.44,1.571a9.713,9.713,0,0,1-2.019.59,21.545,21.545,0,0,0-2.114.669,4.61,4.61,0,0,1-3.263-.09l-.532-.216a2.077,2.077,0,0,1-1.291-2.05l.105-1.787-.569-1.476-.084-3.242Z" transform="translate(-183.91 -85.725)" fill="#b78876"/>
      <path id="Trazado_116771" data-name="Trazado 116771" d="M405.665,179.2a.532.532,0,1,1-.532-.532A.531.531,0,0,1,405.665,179.2Z" transform="translate(-190.861 -84.022)" fill="#fafafa"/>
      <path id="Trazado_116772" data-name="Trazado 116772" d="M420.029,162.52H414.02v1.945h6.009Z" transform="translate(-195.316 -76.385)" fill="#263238"/>
      <path id="Trazado_116773" data-name="Trazado 116773" d="M381.1,229.467l-6.378-.153.3-1.934,6.3.242Z" transform="translate(-176.732 -107.057)" fill="#455a64"/>
      <path id="Trazado_116774" data-name="Trazado 116774" d="M406.055,229.577l-16.035-.116.211-1.771,15.808.037Z" transform="translate(-183.967 -107.203)" fill="#455a64"/>
      <path id="Trazado_116775" data-name="Trazado 116775" d="M402.11,226.927v2.135a.584.584,0,0,0,.527.627h4.417a.584.584,0,0,0,.527-.627v-2.135a.584.584,0,0,0-.527-.627h-4.417A.584.584,0,0,0,402.11,226.927Zm4.781,1.971H402.8v-1.808h4.09Z" transform="translate(-189.684 -106.546)" fill="#fafafa"/>
      <path id="Trazado_116776" data-name="Trazado 116776" d="M423.05,227.748v1.808l3.389.058.047-1.924Z" transform="translate(-199.586 -107.203)" fill="#455a64"/>
      <path id="Trazado_116777" data-name="Trazado 116777" d="M359.35,326.476a1.626,1.626,0,0,1,.026-.237l.105-.7c.1-.622.248-1.518.432-2.667.39-2.325.944-5.672,1.634-9.8,1.381-8.286,3.284-19.709,5.387-32.323,2.087-12.63,3.932-24.068,5.24-32.354.643-4.133,1.165-7.485,1.529-9.815.179-1.149.322-2.045.422-2.667.047-.3.09-.527.116-.691s.047-.237.047-.237a2.022,2.022,0,0,1-.021.237c-.021.169-.053.4-.09.7-.084.627-.211,1.523-.369,2.678-.322,2.325-.822,5.682-1.444,9.825-1.255,8.291-3.073,19.74-5.16,32.37s-4.027,24.047-5.466,32.312c-.722,4.122-1.312,7.459-1.718,9.783-.211,1.144-.369,2.035-.485,2.657-.058.3-.1.522-.132.691-.032.153-.053.232-.053.232Z" transform="translate(-169.463 -110.655)" fill="#455a64"/>
      <path id="Trazado_116778" data-name="Trazado 116778" d="M416.522,326.911c-.074,0,.058-20.547.3-45.891s.5-45.891.569-45.891-.058,20.542-.3,45.891-.5,45.885-.569,45.885Z" transform="translate(-196.489 -110.721)" fill="#455a64"/>
      <path id="Trazado_116779" data-name="Trazado 116779" d="M413.687,409.8c0,.074-3.2.137-7.164.137s-7.163-.063-7.163-.137,3.2-.137,7.163-.137S413.687,409.723,413.687,409.8Z" transform="translate(-188.383 -193.254)" fill="#455a64"/>
      <path id="Trazado_116780" data-name="Trazado 116780" d="M361.507,408.811a4.758,4.758,0,0,1-.575.053c-.432.016-.954.032-1.566.053-1.392.032-3.184.079-5.166.127-2.019.042-3.848.058-5.171.047-.664-.005-1.2-.016-1.566-.032a2.211,2.211,0,0,1-.575-.053,2.212,2.212,0,0,1,.575-.053c.432-.016.954-.032,1.566-.053,1.392-.032,3.184-.079,5.171-.127,2.019-.042,3.848-.058,5.171-.047.664.005,1.2.016,1.566.032a2.211,2.211,0,0,1,.575.053Z" transform="translate(-163.571 -192.811)" fill="#455a64"/>
      <path id="Trazado_116781" data-name="Trazado 116781" d="M451.777,166.153a25.715,25.715,0,0,1,0-5.3,25.72,25.72,0,0,1,0,5.3Z" transform="translate(-213.106 -75.596)" fill="#263238"/>
      <path id="Trazado_116782" data-name="Trazado 116782" d="M453.69,166.5a11.756,11.756,0,0,1-1.191-2.736,12.029,12.029,0,0,1-.738-2.889,26.188,26.188,0,0,1,1,2.8,25.189,25.189,0,0,1,.928,2.825Z" transform="translate(-213.158 -75.609)" fill="#263238"/>
      <path id="Trazado_116783" data-name="Trazado 116783" d="M37.129,316.6a6.238,6.238,0,0,0-1.945-1.634,4.063,4.063,0,0,1-1.75-2.13,1.656,1.656,0,0,1,1.281-2.1c.933-.037,1.544.938,1.956,1.776.717,1.481,1.766,3.236,2.488,4.718" transform="translate(-15.318 -146.475)" fill="#b3009d"/>
      <g id="Grupo_81594" data-name="Grupo 81594" transform="translate(18.065 164.263)" opacity="0.4">
        <path id="Trazado_116784" data-name="Trazado 116784" d="M37.129,316.6a6.238,6.238,0,0,0-1.945-1.634,4.063,4.063,0,0,1-1.75-2.13,1.656,1.656,0,0,1,1.281-2.1c.933-.037,1.544.938,1.956,1.776.717,1.481,1.766,3.236,2.488,4.718" transform="translate(-33.382 -310.738)"/>
      </g>
      <path id="Trazado_116785" data-name="Trazado 116785" d="M25.413,319.919a18.365,18.365,0,0,0-8.054-.432c-1.249.279-2.6,1.07-2.7,2.346a2.541,2.541,0,0,0,1.2,2.161c1.755,1.223,4.18.806,6.12-.09s4.1-2.488,5.83-3.432" transform="translate(-6.459 -150.48)" fill="#b3009d"/>
      <g id="Grupo_81595" data-name="Grupo 81595" transform="translate(8.19 168.726)" opacity="0.4">
        <path id="Trazado_116786" data-name="Trazado 116786" d="M25.413,319.919a18.365,18.365,0,0,0-8.054-.432c-1.249.279-2.6,1.07-2.7,2.346a2.541,2.541,0,0,0,1.2,2.161c1.755,1.223,4.18.806,6.12-.09s4.1-2.488,5.83-3.432" transform="translate(-14.649 -319.205)"/>
      </g>
      <path id="Trazado_116787" data-name="Trazado 116787" d="M44.846,327.5a18.055,18.055,0,0,0-7.359,1.139,5.4,5.4,0,0,0-2.741,1.882,3.706,3.706,0,0,0,.812,4.633,5.117,5.117,0,0,0,4.839.833,8.43,8.43,0,0,0,4.027-3.047,22.884,22.884,0,0,0,2.741-4.075" transform="translate(-15.729 -154.387)" fill="#b3009d"/>
      <g id="Grupo_81596" data-name="Grupo 81596" transform="translate(18.523 173.082)" opacity="0.4">
        <path id="Trazado_116788" data-name="Trazado 116788" d="M44.846,327.5a18.055,18.055,0,0,0-7.359,1.139,5.4,5.4,0,0,0-2.741,1.882,3.706,3.706,0,0,0,.812,4.633,5.117,5.117,0,0,0,4.839.833,8.43,8.43,0,0,0,4.027-3.047,22.884,22.884,0,0,0,2.741-4.075" transform="translate(-34.252 -327.469)"/>
      </g>
      <path id="Trazado_116789" data-name="Trazado 116789" d="M65.4,329.882a11.107,11.107,0,0,1-1.982-4.375,3.489,3.489,0,0,1-.069-1.418,1.475,1.475,0,0,1,.828-1.1,1.534,1.534,0,0,1,1.56.374,3.992,3.992,0,0,1,.891,1.423,49.984,49.984,0,0,1,2.377,9.1" transform="translate(-29.466 -152.229)" fill="#b3009d"/>
      <g id="Grupo_81597" data-name="Grupo 81597" transform="translate(33.835 170.676)" opacity="0.4">
        <path id="Trazado_116790" data-name="Trazado 116790" d="M65.4,329.882a11.107,11.107,0,0,1-1.982-4.375,3.489,3.489,0,0,1-.069-1.418,1.475,1.475,0,0,1,.828-1.1,1.534,1.534,0,0,1,1.56.374,3.992,3.992,0,0,1,.891,1.423,49.984,49.984,0,0,1,2.377,9.1" transform="translate(-63.301 -322.905)"/>
      </g>
      <path id="Trazado_116791" data-name="Trazado 116791" d="M60.669,340.456a11.49,11.49,0,0,0-9.288,2.615,5.537,5.537,0,0,0-1.676,2.235,2.752,2.752,0,0,0,.369,2.672,3.13,3.13,0,0,0,3.337.648,10.459,10.459,0,0,0,3.542-2.377q2.538-2.269,5.081-4.533" transform="translate(-22.95 -160.458)" fill="#b3009d"/>
      <g id="Grupo_81598" data-name="Grupo 81598" transform="translate(26.572 179.849)" opacity="0.4">
        <path id="Trazado_116792" data-name="Trazado 116792" d="M60.669,340.456a11.49,11.49,0,0,0-9.288,2.615,5.537,5.537,0,0,0-1.676,2.235,2.752,2.752,0,0,0,.369,2.672,3.13,3.13,0,0,0,3.337.648,10.459,10.459,0,0,0,3.542-2.377q2.538-2.269,5.081-4.533" transform="translate(-49.522 -340.307)"/>
      </g>
      <path id="Trazado_116793" data-name="Trazado 116793" d="M70.922,305.079a14.81,14.81,0,0,1,6.035-10.231,7.28,7.28,0,0,1,3.447-1.465,3.738,3.738,0,0,1,3.368,1.328,4.381,4.381,0,0,1,.021,4.417A10.455,10.455,0,0,1,78.249,304a23.834,23.834,0,0,1-7.369,1.476" transform="translate(-33.05 -138.259)" fill="#b3009d"/>
      <path id="Trazado_116794" data-name="Trazado 116794" d="M66.35,290.155a16.125,16.125,0,0,1,3.358-6.984,7.664,7.664,0,0,1,1.724-1.776,3.147,3.147,0,0,1,2.351-.569,2.84,2.84,0,0,1,2.082,2.467,4.265,4.265,0,0,1-1.086,3.168,8.9,8.9,0,0,1-2.752,2.035,19.463,19.463,0,0,1-5.566,1.887" transform="translate(-30.908 -132.306)" fill="#b3009d"/>
      <path id="Trazado_116795" data-name="Trazado 116795" d="M64.01,274.671c.032-3.326,1.381-7.1,3.906-9.261.448-.38,1.075-.743,1.587-.453a1.39,1.39,0,0,1,.538.775,6.663,6.663,0,0,1-6.03,8.94Z" transform="translate(-29.801 -124.776)" fill="#b3009d"/>
      <path id="Trazado_116796" data-name="Trazado 116796" d="M57.783,269.6c-.095-2.878-1.576-5.313-3.368-7.569a2.139,2.139,0,0,0-1.618-1.017c-.912.042-1.413,1.1-1.5,2a6.211,6.211,0,0,0,1.587,4.749A6.747,6.747,0,0,0,57.783,269.6Z" transform="translate(-23.775 -122.958)" fill="#b3009d"/>
      <path id="Trazado_116797" data-name="Trazado 116797" d="M63.736,252.414a9.4,9.4,0,0,1-.316-8.761,5.186,5.186,0,0,1,1.871-1.961,3.13,3.13,0,0,1,2.641-.258,3.408,3.408,0,0,1,1.734,3.927,7.729,7.729,0,0,1-2.583,3.811,23.832,23.832,0,0,0-3.352,3.247" transform="translate(-29.079 -113.615)" fill="#b3009d"/>
      <path id="Trazado_116798" data-name="Trazado 116798" d="M54.173,288.352a20.139,20.139,0,0,0-2.968-3.574,7.947,7.947,0,0,0-4.1-2.072,5.029,5.029,0,0,0-4.291,1.3,3.7,3.7,0,0,0-.685,4.28,5.192,5.192,0,0,0,2.873,2.066,13.553,13.553,0,0,0,9.33-.105" transform="translate(-19.263 -133.192)" fill="#b3009d"/>
      <path id="Trazado_116799" data-name="Trazado 116799" d="M59.536,309.363A10.019,10.019,0,0,0,55,305.837a7.348,7.348,0,0,0-5.672.2,2.592,2.592,0,0,0-1.666,2.1c.005.975.88,1.708,1.734,2.182a11.735,11.735,0,0,0,10.268.469" transform="translate(-22.07 -143.934)" fill="#b3009d"/>
      <path id="Trazado_116800" data-name="Trazado 116800" d="M78.491,330.027a9.381,9.381,0,0,1,1.144-6.879,10.874,10.874,0,0,1,5.656-4.575,5.8,5.8,0,0,1,2.783-.374,3.007,3.007,0,0,1,2.267,1.523c.712,1.444-.248,3.242-1.6,4.127a19.057,19.057,0,0,1-4.365,2.23c-2.372.785-4.528,3.505-5.456,5.419" transform="translate(-36.549 -149.981)" fill="#b3009d"/>
      <path id="Trazado_116801" data-name="Trazado 116801" d="M83.8,350.134a15,15,0,0,1,2.419-8.618,8.144,8.144,0,0,1,3.495-3.363,4.146,4.146,0,0,1,4.575.68c1.45,1.523,1.038,4.138-.306,5.761s-3.352,2.5-5.261,3.384a10.026,10.026,0,0,0-4.565,3.653" transform="translate(-39.157 -159.257)" fill="#b3009d"/>
      <path id="Trazado_116802" data-name="Trazado 116802" d="M86.95,368.042a22.322,22.322,0,0,1,3.231-7.6c1.66-2.219,4.322-3.874,7.079-3.611a3.787,3.787,0,0,1,3.189,1.982c.648,1.492-.2,3.221-1.265,4.449a11.979,11.979,0,0,1-5.7,3.605c-1.228.348-2.514.5-3.706.949a4.376,4.376,0,0,0-2.746,2.488" transform="translate(-40.649 -168.261)" fill="#b3009d"/>
      <path id="Trazado_116803" data-name="Trazado 116803" d="M72.606,378.039c-.854-2.82-3.426-4.755-6.009-6.167a10.675,10.675,0,0,0-6.283-1.687c-2.188.274-4.312,2.114-4.169,4.317.142,2.24,2.456,3.769,4.681,4.09s4.475-.2,6.721-.148,4.37.685,5.3,2.725" transform="translate(-26.078 -174.564)" fill="#b3009d"/>
      <path id="Trazado_116804" data-name="Trazado 116804" d="M75.761,361.421A8.99,8.99,0,0,0,69.42,355.6a3.5,3.5,0,0,0-2.535.169,2.672,2.672,0,0,0-.959,3.247,4.364,4.364,0,0,0,2.7,2.346,12.831,12.831,0,0,0,3.642.511,13.264,13.264,0,0,1,3.648.49" transform="translate(-30.614 -167.618)" fill="#b3009d"/>
      <path id="Trazado_116805" data-name="Trazado 116805" d="M47.739,321.584a5,5,0,0,1-1.376-2.246,1.131,1.131,0,0,1,.032-.833.85.85,0,0,1,.991-.29,2.313,2.313,0,0,1,.886.664,26.83,26.83,0,0,1,2.989,4.375" transform="translate(-21.426 -149.988)" fill="#b3009d"/>
      <path id="Trazado_116806" data-name="Trazado 116806" d="M67.224,245.13a1.8,1.8,0,0,1-.079.2c-.063.137-.148.322-.258.553-.116.248-.258.548-.427.9-.148.364-.322.785-.511,1.255A34.324,34.324,0,0,0,64.8,251.55a36.246,36.246,0,0,0-.907,4.823,47.145,47.145,0,0,0,.311,12.735,107.952,107.952,0,0,0,3.806,15.181c1.666,5.308,3.41,10.321,4.66,14.986a113.3,113.3,0,0,1,2.614,12.551c.538,3.611.791,6.557.928,8.592.063,1.017.105,1.808.121,2.346.005.258.011.459.016.611v.211s-.011-.069-.026-.206l-.042-.611c-.042-.548-.095-1.339-.169-2.34-.169-2.029-.448-4.971-1.012-8.571a116.391,116.391,0,0,0-2.667-12.514c-1.26-4.649-3.01-9.657-4.676-14.97a105.676,105.676,0,0,1-3.8-15.223,46.753,46.753,0,0,1-.253-12.8,36.117,36.117,0,0,1,.949-4.839,33.7,33.7,0,0,1,1.2-3.521c.2-.469.38-.88.538-1.244.174-.348.327-.643.448-.886.121-.227.211-.406.285-.543a.767.767,0,0,1,.105-.179Z" transform="translate(-29.505 -115.45)" fill="#263238"/>
      <path id="Trazado_116807" data-name="Trazado 116807" d="M29.37,319.7s.132,0,.385.021.622.053,1.1.121a32.586,32.586,0,0,1,3.98.8A35.5,35.5,0,0,1,46.86,326.4a33.844,33.844,0,0,1,5.435,4.992,31.2,31.2,0,0,1,3.479,4.918,32.181,32.181,0,0,1,1.792,3.642c.19.438.311.791.406,1.028a1.838,1.838,0,0,1,.121.364,2.113,2.113,0,0,1-.174-.343c-.105-.227-.248-.575-.453-1A38.525,38.525,0,0,0,55.6,336.42a31.992,31.992,0,0,0-3.5-4.849,34.265,34.265,0,0,0-5.4-4.934,36.485,36.485,0,0,0-11.913-5.8,37.761,37.761,0,0,0-3.948-.875c-.469-.084-.838-.127-1.086-.174a3.436,3.436,0,0,1-.38-.074Z" transform="translate(-13.42 -150.713)" fill="#263238"/>
      <path id="Trazado_116808" data-name="Trazado 116808" d="M79.168,301.86a16,16,0,0,1-1.381.954,27.1,27.1,0,0,0-3.136,2.525,26.671,26.671,0,0,0-2.709,2.978,16.659,16.659,0,0,1-1.033,1.318,1.48,1.48,0,0,1,.206-.406c.142-.253.374-.606.675-1.028a21.1,21.1,0,0,1,5.893-5.545c.443-.274.806-.485,1.07-.611a1.425,1.425,0,0,1,.416-.179Z" transform="translate(-33.062 -142.277)" fill="#263238"/>
      <path id="Trazado_116809" data-name="Trazado 116809" d="M86.663,323.977c.016.047-.691.285-1.713.891a11.383,11.383,0,0,0-3.389,3.11,11.23,11.23,0,0,0-1.829,4.222c-.242,1.165-.232,1.913-.285,1.913a1.783,1.783,0,0,1-.037-.522,9.329,9.329,0,0,1,.127-1.423A10.477,10.477,0,0,1,84.85,324.7a9.036,9.036,0,0,1,1.3-.59,1.746,1.746,0,0,1,.506-.137Z" transform="translate(-37.084 -152.734)" fill="#263238"/>
      <path id="Trazado_116810" data-name="Trazado 116810" d="M90.34,344.79c.026.042-.548.39-1.37,1.091a13.669,13.669,0,0,0-2.709,3.189,13.482,13.482,0,0,0-1.592,3.869c-.248,1.049-.3,1.724-.343,1.718a1.441,1.441,0,0,1-.005-.474,9.164,9.164,0,0,1,.163-1.281,12.159,12.159,0,0,1,4.365-7.163,9,9,0,0,1,1.065-.733,1.5,1.5,0,0,1,.427-.211Z" transform="translate(-39.4 -162.578)" fill="#263238"/>
      <path id="Trazado_116811" data-name="Trazado 116811" d="M95.036,364.876c.021.042-.606.3-1.539.843a15.388,15.388,0,0,0-5.8,5.977c-.517.949-.754,1.581-.8,1.566a1.616,1.616,0,0,1,.127-.459,10.593,10.593,0,0,1,.5-1.2,13.749,13.749,0,0,1,5.877-6.057,9.44,9.44,0,0,1,1.181-.538A1.437,1.437,0,0,1,95.036,364.876Z" transform="translate(-40.623 -172.074)" fill="#263238"/>
      <path id="Trazado_116812" data-name="Trazado 116812" d="M71.02,359.72a3.851,3.851,0,0,1,1.323.01,8.156,8.156,0,0,1,5.4,3.189,3.68,3.68,0,0,1,.648,1.154c-.042.021-.29-.416-.8-1.033a9.081,9.081,0,0,0-5.276-3.121c-.791-.148-1.291-.158-1.291-.206Z" transform="translate(-33.116 -169.618)" fill="#263238"/>
      <path id="Trazado_116813" data-name="Trazado 116813" d="M68.62,377.809a1.115,1.115,0,0,1,.4-.274,2.517,2.517,0,0,1,1.3-.179,5.754,5.754,0,0,1,1.84.6c.648.311,1.36.659,2.087,1.065a14.1,14.1,0,0,1,3.421,2.541,8.425,8.425,0,0,1,.822,1,1.632,1.632,0,0,1,.232.416c-.042.032-.411-.538-1.191-1.281a16.361,16.361,0,0,0-3.421-2.435c-.717-.406-1.423-.759-2.061-1.075a5.99,5.99,0,0,0-1.75-.638,2.742,2.742,0,0,0-1.666.264Z" transform="translate(-31.981 -177.97)" fill="#263238"/>
      <path id="Trazado_116814" data-name="Trazado 116814" d="M64.772,342.177a18,18,0,0,0-4.28,1.392,17.885,17.885,0,0,0-3.642,2.646,4.472,4.472,0,0,1,.87-1.017,11.244,11.244,0,0,1,5.714-2.91A4.718,4.718,0,0,1,64.772,342.177Z" transform="translate(-26.414 -161.335)" fill="#263238"/>
      <path id="Trazado_116815" data-name="Trazado 116815" d="M69.632,335.583a3.675,3.675,0,0,1-.58-.9,16.008,16.008,0,0,1-1.639-4.892,3.433,3.433,0,0,1-.079-1.07c.084-.011.322,1.6.959,3.495S69.706,335.541,69.632,335.583Z" transform="translate(-31.364 -154.979)" fill="#263238"/>
      <path id="Trazado_116816" data-name="Trazado 116816" d="M63.3,312.866a27.418,27.418,0,0,0-3.732-1.434,28,28,0,0,0-3.953-.6,4,4,0,0,1,1.186-.074,12.7,12.7,0,0,1,2.841.411,12.309,12.309,0,0,1,2.667,1.049,3.827,3.827,0,0,1,.991.654Z" transform="translate(-25.829 -146.483)" fill="#263238"/>
      <path id="Trazado_116817" data-name="Trazado 116817" d="M73.595,285.77a9.974,9.974,0,0,1-1.154.886c-.717.532-1.692,1.3-2.7,2.214s-1.866,1.813-2.467,2.477a11.127,11.127,0,0,1-.991,1.065,6.225,6.225,0,0,1,.849-1.191,23.924,23.924,0,0,1,5.208-4.718,6.628,6.628,0,0,1,1.265-.727Z" transform="translate(-30.873 -134.668)" fill="#263238"/>
      <path id="Trazado_116818" data-name="Trazado 116818" d="M58.035,293.668a11.219,11.219,0,0,1-1.249-.68,20.862,20.862,0,0,0-6.389-2.282,11.761,11.761,0,0,1-1.4-.264,5.517,5.517,0,0,1,1.423.074,16.433,16.433,0,0,1,6.452,2.3,5.426,5.426,0,0,1,1.149.843Z" transform="translate(-22.703 -136.868)" fill="#263238"/>
      <path id="Trazado_116819" data-name="Trazado 116819" d="M68.186,271.649c.058.058-1.1,1.239-2.3,2.878s-1.992,3.089-2.066,3.052a3.881,3.881,0,0,1,.437-1,18.693,18.693,0,0,1,3.11-4.217A4,4,0,0,1,68.186,271.649Z" transform="translate(-29.708 -127.99)" fill="#263238"/>
      <path id="Trazado_116820" data-name="Trazado 116820" d="M58.626,271.691a9.287,9.287,0,0,1-.643-.949,13.553,13.553,0,0,0-1.8-2.072c-.78-.743-1.539-1.36-2.087-1.813a5.345,5.345,0,0,1-.859-.77,4.647,4.647,0,0,1,.975.617,20.136,20.136,0,0,1,2.156,1.766,10.5,10.5,0,0,1,1.771,2.166,3.259,3.259,0,0,1,.48,1.054Z" transform="translate(-24.707 -125.359)" fill="#263238"/>
      <path id="Trazado_116821" data-name="Trazado 116821" d="M50.892,328.769a23.3,23.3,0,0,0-3.495,1.344,24.45,24.45,0,0,0-3.089,2.114,3.413,3.413,0,0,1,.749-.822,10.946,10.946,0,0,1,4.723-2.483,3.387,3.387,0,0,1,1.1-.153Z" transform="translate(-20.484 -154.997)" fill="#263238"/>
      <path id="Trazado_116822" data-name="Trazado 116822" d="M28.882,320.971c.005.084-1.666.179-3.642.717-1.982.522-3.474,1.27-3.511,1.2a3.609,3.609,0,0,1,.949-.553,14.548,14.548,0,0,1,2.493-.907,14.266,14.266,0,0,1,2.614-.453,3.823,3.823,0,0,1,1.1,0Z" transform="translate(-9.807 -151.299)" fill="#263238"/>
      <path id="Trazado_116823" data-name="Trazado 116823" d="M39.852,319.031a8.842,8.842,0,0,1-1.175-1.845,8.747,8.747,0,0,1-.933-1.977,8.842,8.842,0,0,1,1.175,1.845A8.746,8.746,0,0,1,39.852,319.031Z" transform="translate(-17.377 -148.589)" fill="#263238"/>
      <g id="Grupo_81599" data-name="Grupo 81599" transform="translate(24.873 168.178)" opacity="0.4">
        <path id="Trazado_116824" data-name="Trazado 116824" d="M47.739,321.584a5,5,0,0,1-1.376-2.246,1.131,1.131,0,0,1,.032-.833.85.85,0,0,1,.991-.29,2.313,2.313,0,0,1,.886.664,26.83,26.83,0,0,1,2.989,4.375" transform="translate(-46.3 -318.166)"/>
      </g>
      <path id="Trazado_116825" data-name="Trazado 116825" d="M65.65,393.95H89.17v10.11a11.76,11.76,0,0,1-23.52,0Z" transform="translate(-30.577 -185.825)" fill="#455a64"/>
      <path id="Trazado_116826" data-name="Trazado 116826" d="M89.191,405.947s-.332-.084-.912-.274-1.423-.474-2.483-.738a11.615,11.615,0,0,0-3.779-.38,8.112,8.112,0,0,0-2.177.5c-.733.269-1.471.617-2.251.933a8.9,8.9,0,0,1-2.383.669,7.364,7.364,0,0,1-2.3-.153c-1.434-.322-2.646-.828-3.69-1.154a10.993,10.993,0,0,0-2.514-.543,4.909,4.909,0,0,0-.7-.021.753.753,0,0,1-.248-.016.936.936,0,0,1,.242-.042,3.9,3.9,0,0,1,.712-.026,10.253,10.253,0,0,1,2.567.464c1.06.306,2.277.8,3.685,1.091a7.2,7.2,0,0,0,2.219.137,8.835,8.835,0,0,0,2.309-.654c.77-.311,1.513-.659,2.267-.933a8.326,8.326,0,0,1,2.251-.5,11.381,11.381,0,0,1,3.848.443c1.065.29,1.9.606,2.472.822.285.111.506.2.654.264s.227.1.221.111Z" transform="translate(-30.624 -190.711)" fill="#263238"/>
      <path id="Trazado_116827" data-name="Trazado 116827" d="M89.191,403.266s-.332-.084-.912-.274-1.423-.474-2.483-.738a11.616,11.616,0,0,0-3.779-.38,8.114,8.114,0,0,0-2.177.5c-.733.269-1.471.617-2.251.933a9.1,9.1,0,0,1-2.383.669,7.364,7.364,0,0,1-2.3-.153c-1.434-.322-2.646-.828-3.69-1.154a10.993,10.993,0,0,0-2.514-.543,4.915,4.915,0,0,0-.7-.021.752.752,0,0,1-.248-.016.937.937,0,0,1,.242-.042,3.9,3.9,0,0,1,.712-.026,10.25,10.25,0,0,1,2.567.464c1.06.306,2.277.8,3.685,1.091a7.2,7.2,0,0,0,2.219.137,8.838,8.838,0,0,0,2.309-.654c.77-.311,1.513-.659,2.267-.933a8.325,8.325,0,0,1,2.251-.5,11.382,11.382,0,0,1,3.848.443c1.065.29,1.9.606,2.472.822.285.111.506.2.654.264s.227.1.221.111Z" transform="translate(-30.624 -189.443)" fill="#263238"/>
    </g>
  </g>
</svg>
