<svg xmlns="http://www.w3.org/2000/svg" width="275.713" height="179.797" viewBox="0 0 275.713 179.797">
  <g id="Grupo_1013460" data-name="Grupo 1013460" transform="translate(-390 -1930.147)">
    <g id="Group_28_1_" data-name="Group 28 (1)" transform="translate(389.998 1930.147)">
      <path id="Trazado_124821" data-name="Trazado 124821" d="M150.124,16.634S126.078-6.216,107.213,1.646,97.341,30,85.558,36.494s-21.35-2.963-33.3,16.73,3.724,33.809,11.967,45.441c8.738,12.328,16.016,17.167,1.56,24.853S47.257,162.1,71.937,169.3s98.116,7.261,112.2,7.622,69.054,1.527,95.721-29.578,17.994-41.7,3.478-53.624-7.041-31.6,0-52.178S274.29.206,248.467,8.6s-66.626,29.942-98.343,8.037Z" transform="translate(-36.428 0)" fill="#bfe2ff"/>
      <path id="Trazado_124822" data-name="Trazado 124822" d="M68.442,237.294a.124.124,0,0,1-.09-.038.127.127,0,0,1,0-.179q.181-.179.365-.355a.126.126,0,0,1,.175.183c-.122.117-.242.233-.363.351a.129.129,0,0,1-.089.037Z" transform="translate(-51.937 -179.947)" fill="#99d2ff"/>
      <path id="Trazado_124823" data-name="Trazado 124823" d="M121.174,233.7h-.005a.127.127,0,0,1-.122-.132c.013-.333.018-.672.019-1.007a.127.127,0,0,1,.254,0c0,.337-.006.68-.019,1.016a.126.126,0,0,1-.127.122Zm-.03-2.653a.127.127,0,0,1-.127-.119c-.02-.333-.046-.672-.077-1a.127.127,0,0,1,.252-.024c.032.335.058.676.079,1.013a.129.129,0,0,1-.119.134h-.007Zm-.283-2.638a.128.128,0,0,1-.126-.108c-.051-.33-.109-.663-.172-.992a.127.127,0,1,1,.248-.048c.064.331.123.669.175,1a.127.127,0,0,1-.107.145h-.019Zm-.533-2.6a.127.127,0,0,1-.123-.1c-.082-.323-.173-.649-.266-.971a.127.127,0,1,1,.243-.071c.1.325.185.654.269.98a.127.127,0,0,1-.091.155.129.129,0,0,1-.032,0Zm-.776-2.538a.126.126,0,0,1-.119-.084c-.112-.312-.232-.629-.356-.941a.127.127,0,0,1,.236-.094c.127.316.247.635.36.95a.127.127,0,0,1-.076.163.124.124,0,0,1-.043.007Zm-1.012-2.454a.126.126,0,0,1-.115-.074c-.142-.3-.291-.607-.443-.9a.127.127,0,1,1,.226-.116c.153.3.3.606.447.912a.127.127,0,0,1-.061.169.134.134,0,0,1-.053.012Zm-1.235-2.347a.127.127,0,0,1-.109-.062c-.17-.289-.346-.578-.525-.858a.127.127,0,1,1,.214-.136c.18.283.359.574.53.866a.127.127,0,0,1-.046.174.131.131,0,0,1-.064.018Zm-1.451-2.221a.125.125,0,0,1-.1-.052c-.2-.271-.4-.542-.605-.8a.127.127,0,0,1,.2-.156c.207.265.412.539.61.812a.129.129,0,0,1-.028.178.124.124,0,0,1-.074.024Zm-1.655-2.071a.123.123,0,0,1-.095-.043c-.221-.25-.448-.5-.677-.742a.127.127,0,0,1,.184-.174c.231.244.46.5.683.748a.128.128,0,0,1-.011.179A.126.126,0,0,1,114.2,214.174Zm-1.843-1.9a.123.123,0,0,1-.086-.034c-.245-.229-.495-.456-.745-.675a.127.127,0,1,1,.166-.192c.252.221.5.449.752.681a.127.127,0,0,1-.088.219Zm-37.3-.962a.126.126,0,0,1-.081-.223c.259-.218.523-.434.788-.642a.126.126,0,1,1,.156.2c-.261.205-.524.42-.78.635A.129.129,0,0,1,75.056,211.308Zm35.284-.757a.127.127,0,0,1-.077-.027c-.265-.205-.537-.407-.807-.6a.127.127,0,0,1,.148-.207c.273.2.545.4.813.606a.126.126,0,0,1,.023.178.129.129,0,0,1-.1.049Zm-33.179-.857a.125.125,0,0,1-.1-.054.127.127,0,0,1,.032-.176c.278-.193.562-.382.845-.564a.127.127,0,0,1,.137.213c-.28.18-.562.368-.837.559A.126.126,0,0,1,77.161,209.693Zm31.007-.664a.129.129,0,0,1-.067-.019c-.281-.179-.571-.354-.86-.523a.127.127,0,0,1,.128-.219c.29.17.582.347.867.528a.127.127,0,0,1-.068.234Zm-28.759-.743a.125.125,0,0,1-.11-.065.127.127,0,0,1,.048-.172c.293-.165.595-.327.894-.482a.127.127,0,0,1,.117.226c-.3.153-.595.315-.887.477A.123.123,0,0,1,79.41,208.286Zm26.453-.567a.115.115,0,0,1-.057-.014c-.3-.151-.6-.3-.906-.439a.127.127,0,1,1,.107-.231c.306.142.614.29.913.443a.127.127,0,0,1-.057.24Zm-24.082-.624a.126.126,0,0,1-.051-.242c.309-.137.624-.271.936-.4a.127.127,0,0,1,.1.235c-.31.124-.622.256-.927.393a.125.125,0,0,1-.052.011Zm21.662-.464a.126.126,0,0,1-.047-.009c-.311-.123-.629-.241-.942-.353a.127.127,0,0,1,.085-.24c.317.112.638.232.951.355a.126.126,0,0,1,.071.165.128.128,0,0,1-.118.08Zm-19.19-.5a.127.127,0,0,1-.041-.247c.321-.108.647-.21.969-.307a.126.126,0,1,1,.072.242c-.32.1-.643.2-.96.3a.116.116,0,0,1-.041.006Zm16.678-.356a.115.115,0,0,1-.036-.005c-.322-.093-.648-.181-.973-.263a.127.127,0,0,1,.061-.246c.326.081.656.171.98.265a.126.126,0,0,1,.086.157.127.127,0,0,1-.122.091ZM86.8,205.4a.126.126,0,0,1-.028-.25c.328-.077.662-.148.993-.213a.127.127,0,0,1,.048.249c-.328.065-.66.136-.984.212a.109.109,0,0,1-.029,0Zm11.545-.245a.08.08,0,0,1-.024,0c-.328-.062-.663-.119-.993-.17a.127.127,0,1,1,.038-.251c.332.051.67.108,1,.171a.128.128,0,0,1,.1.148.126.126,0,0,1-.124.1Zm-8.935-.237a.127.127,0,0,1-.126-.11.128.128,0,0,1,.109-.143c.334-.046.673-.085,1.009-.118a.127.127,0,0,1,.024.252c-.332.033-.668.072-1,.117h-.017Zm6.307-.133H95.71c-.333-.03-.671-.056-1-.075a.126.126,0,0,1,.014-.252c.337.019.677.044,1.013.075a.127.127,0,0,1-.013.254Zm-3.663-.1a.127.127,0,0,1-.005-.254c.338-.013.679-.02,1.016-.022a.127.127,0,1,1,0,.254c-.333,0-.672.007-1.007.022h0Z" transform="translate(-56.965 -155.411)" fill="#99d2ff"/>
      <path id="Trazado_124824" data-name="Trazado 124824" d="M266.758,333.155h-.014a.127.127,0,0,1-.111-.141q.028-.251.053-.5a.127.127,0,0,1,.252.024q-.025.253-.053.506a.127.127,0,0,1-.125.113Z" transform="translate(-202.711 -252.712)" fill="#99d2ff"/>
      <path id="Trazado_124825" data-name="Trazado 124825" d="M223.807,411.72a.13.13,0,0,1-.1-.047.127.127,0,0,1,.019-.179c.132-.105.261-.212.391-.32a.127.127,0,0,1,.162.2c-.13.109-.263.216-.394.322A.125.125,0,0,1,223.807,411.72Z" transform="translate(-170.056 -312.583)" fill="#3c0061"/>
      <path id="Trazado_124826" data-name="Trazado 124826" d="M62.4,342.23a.127.127,0,0,1,0-.254c.328-.008.662-.022.99-.041a.126.126,0,0,1,.134.119.128.128,0,0,1-.119.134c-.331.019-.667.033-1,.042h0Zm-1.618-.009h-.005c-.331-.012-.669-.029-1-.052a.127.127,0,0,1-.118-.136.126.126,0,0,1,.136-.118c.328.023.662.04.991.052a.126.126,0,0,1,.122.131.127.127,0,0,1-.127.123ZM65,342.046a.127.127,0,0,1-.014-.252c.327-.038.657-.084.982-.133a.127.127,0,0,1,.038.251c-.327.051-.661.1-.991.134Zm-6.827-.037h-.017c-.328-.042-.662-.091-.989-.145a.127.127,0,0,1-.1-.146.125.125,0,0,1,.146-.1c.325.053.654.1.98.143a.126.126,0,0,1,.109.142.128.128,0,0,1-.125.111Zm9.4-.391a.127.127,0,0,1-.027-.251c.322-.068.645-.145.965-.226a.126.126,0,1,1,.062.245c-.322.081-.649.157-.974.227a.1.1,0,0,1-.027,0ZM55.6,341.555a.112.112,0,0,1-.028,0c-.325-.072-.652-.152-.971-.236a.127.127,0,1,1,.065-.245c.317.084.642.162.963.234a.127.127,0,0,1-.027.25Zm14.5-.6a.127.127,0,0,1-.038-.247c.313-.1.629-.2.94-.315a.127.127,0,1,1,.085.24c-.313.11-.633.218-.949.317a.132.132,0,0,1-.038.006Zm-17.021-.086a.14.14,0,0,1-.039-.006c-.315-.1-.633-.212-.945-.325a.127.127,0,1,1,.086-.239c.309.113.624.221.937.322a.126.126,0,0,1,.081.16A.128.128,0,0,1,53.085,340.866Zm19.473-.813a.126.126,0,0,1-.117-.077.128.128,0,0,1,.068-.166c.237-.1.477-.2.713-.311l.194-.089a.127.127,0,1,1,.106.231c-.065.03-.131.06-.2.089-.239.108-.481.213-.719.313a.141.141,0,0,1-.049.01Zm-21.917-.108a.131.131,0,0,1-.049-.01c-.3-.131-.611-.27-.91-.411a.127.127,0,1,1,.108-.229c.3.141.6.278.9.407a.126.126,0,0,1-.051.242Zm24.277-1.013a.125.125,0,0,1-.112-.067.127.127,0,0,1,.052-.171c.291-.155.582-.317.866-.481a.127.127,0,0,1,.128.219c-.287.166-.581.328-.874.486a.125.125,0,0,1-.06.015ZM48.293,338.8a.129.129,0,0,1-.061-.015c-.29-.158-.583-.325-.869-.493a.127.127,0,1,1,.129-.218c.283.167.572.332.861.49a.127.127,0,0,1-.061.238Zm28.869-1.2a.128.128,0,0,1-.107-.057.126.126,0,0,1,.037-.175c.275-.181.55-.369.818-.559a.126.126,0,0,1,.146.207c-.27.192-.548.382-.826.565a.127.127,0,0,1-.07.02Zm-31.1-.151a.133.133,0,0,1-.071-.022c-.275-.185-.552-.378-.818-.572a.127.127,0,1,1,.15-.205c.265.193.538.383.812.567a.127.127,0,0,1-.071.232Zm-2.1-1.556a.121.121,0,0,1-.08-.029c-.256-.209-.512-.427-.761-.646a.127.127,0,0,1,.167-.19c.246.217.5.432.755.639a.127.127,0,0,1,.018.179A.129.129,0,0,1,43.966,335.892Zm-1.94-1.744a.127.127,0,0,1-.089-.037c-.236-.232-.471-.473-.7-.714a.126.126,0,1,1,.184-.174c.226.238.458.477.691.708a.125.125,0,0,1,0,.179.127.127,0,0,1-.09.038Zm-1.767-1.918a.125.125,0,0,1-.1-.046c-.213-.254-.425-.515-.628-.777a.126.126,0,1,1,.2-.156c.2.26.412.519.623.77a.128.128,0,0,1-.015.179.123.123,0,0,1-.081.029Zm-1.582-2.077a.125.125,0,0,1-.1-.055c-.189-.274-.375-.554-.553-.833a.127.127,0,1,1,.213-.137c.176.275.36.553.548.826a.127.127,0,0,1-.033.176.125.125,0,0,1-.072.023ZM37.3,327.937a.125.125,0,0,1-.11-.065c-.162-.289-.321-.584-.473-.88a.127.127,0,0,1,.226-.117c.151.293.308.586.469.873a.127.127,0,0,1-.048.173.121.121,0,0,1-.062.016ZM36.126,325.6a.129.129,0,0,1-.117-.075c-.136-.3-.268-.615-.391-.921a.127.127,0,1,1,.235-.1c.122.3.252.61.387.912a.127.127,0,0,1-.065.167.123.123,0,0,1-.052.011Zm-.951-2.432a.126.126,0,0,1-.12-.086c-.107-.313-.208-.633-.3-.952a.125.125,0,0,1,.085-.157.127.127,0,0,1,.159.085c.1.316.2.634.3.944a.127.127,0,0,1-.08.161A.113.113,0,0,1,35.174,323.17Zm-.722-2.51a.127.127,0,0,1-.123-.1c-.077-.325-.15-.653-.214-.977a.127.127,0,1,1,.249-.051c.065.321.136.647.212.968a.125.125,0,0,1-.094.152.119.119,0,0,1-.029,0Zm-.484-2.567a.127.127,0,0,1-.126-.109c-.046-.328-.086-.662-.122-.993a.127.127,0,1,1,.252-.027c.034.327.075.658.12.983a.126.126,0,0,1-.108.143h-.018Zm-.241-2.6a.128.128,0,0,1-.127-.121c-.015-.333-.024-.671-.028-1a.128.128,0,0,1,.126-.128.126.126,0,0,1,.127.126c0,.326.011.659.027.991a.125.125,0,0,1-.12.132h0Zm0-2.611h-.006a.127.127,0,0,1-.12-.133c.016-.334.038-.669.066-1a.128.128,0,0,1,.137-.115.126.126,0,0,1,.115.137c-.028.326-.049.658-.066.988a.128.128,0,0,1-.127.121Z" transform="translate(-25.523 -236.926)" fill="#3c0061"/>
      <path id="Trazado_124827" data-name="Trazado 124827" d="M34.874,303.553h-.018a.127.127,0,0,1-.108-.143c.024-.169.049-.336.077-.5a.127.127,0,0,1,.146-.105.128.128,0,0,1,.105.146q-.04.249-.076.5a.127.127,0,0,1-.126.109Z" transform="translate(-26.415 -230.209)" fill="#3c0061"/>
      <path id="Trazado_124828" data-name="Trazado 124828" d="M64.774,249.29a.338.338,0,0,0,.087.38l3.065,2.713a17.8,17.8,0,0,0,0,5.777l-3.062,2.713a.336.336,0,0,0-.088.38l1.88,4.535a.335.335,0,0,0,.331.207l4.082-.249a17.809,17.809,0,0,0,4.088,4.083l-.247,4.085a.336.336,0,0,0,.207.331l4.537,1.878a.338.338,0,0,0,.38-.088l2.713-3.065a17.8,17.8,0,0,0,5.777,0l2.713,3.062a.336.336,0,0,0,.381.087l4.535-1.879a.335.335,0,0,0,.207-.331l-.249-4.083a17.806,17.806,0,0,0,4.083-4.088l4.085.247a.336.336,0,0,0,.331-.207l1.878-4.537a.338.338,0,0,0-.087-.38l-3.065-2.713a17.8,17.8,0,0,0,0-5.777l3.062-2.713a.336.336,0,0,0,.087-.38l-1.879-4.535a.336.336,0,0,0-.331-.207l-4.082.249A17.814,17.814,0,0,0,96.1,240.7l.247-4.085a.336.336,0,0,0-.207-.331l-4.537-1.878a.338.338,0,0,0-.38.087l-2.713,3.065a17.8,17.8,0,0,0-5.777,0L80.025,234.5a.336.336,0,0,0-.38-.087l-4.535,1.88a.334.334,0,0,0-.207.331l.248,4.083a17.817,17.817,0,0,0-4.082,4.088l-4.085-.247a.336.336,0,0,0-.331.207Z" transform="translate(-49.225 -178.196)" fill="#6bf"/>
      <path id="Trazado_124829" data-name="Trazado 124829" d="M137.441,311.609a4.725,4.725,0,0,1-.668-.048,4.542,4.542,0,1,1,.668.048Zm-3.353-2.059a4.169,4.169,0,1,0,.854-5.834A4.145,4.145,0,0,0,134.088,309.55Z" transform="translate(-101.025 -229.989)" fill="#fff"/>
      <path id="Trazado_124830" data-name="Trazado 124830" d="M114.722,295.48a12.056,12.056,0,0,1-11.135-7.428,12.228,12.228,0,0,1-.684-2.236l-.011-.06c-.01-.053-.02-.108-.03-.162l.374-.068a11.779,11.779,0,0,0,.7,2.38c.107.257.222.508.344.753a11.647,11.647,0,0,0,14.818,5.579l.068-.028a11.656,11.656,0,1,0-13.823-17.719l-.305-.227a12.037,12.037,0,1,1,9.68,19.212Z" transform="translate(-78.201 -206.341)" fill="#fff"/>
      <path id="Trazado_124831" data-name="Trazado 124831" d="M217.464,337.564s-1.471-75.023-28.083-121.534a4.549,4.549,0,0,0-7.986.143C170.267,237.536,143.442,303.832,217.464,337.564Z" transform="translate(-127.269 -162.494)" fill="#99d2ff"/>
      <path id="Trazado_124832" data-name="Trazado 124832" d="M263.479,406.893a.2.2,0,0,1-.316.24c-6.048-6.919-28.219-39.284-27.156-94a.138.138,0,0,1,.276-.011c.868,12.923,5.469,60.881,27.194,93.769Z" transform="translate(-179.401 -237.963)" fill="#fff" opacity="0.5"/>
      <path id="Trazado_124833" data-name="Trazado 124833" d="M.208,403.184a.428.428,0,0,1,.268-.792,82.233,82.233,0,0,1,53.414,29.6c18.105,22.276,27.158,40.869,30.246,47.922a1.991,1.991,0,0,1-2.02,2.781c-8.979-.894-33.993-4.713-44.455-19.98C25.157,444.473,18.77,414.646.208,403.184Z" transform="translate(0 -305.926)" fill="#6bf"/>
      <path id="Trazado_124834" data-name="Trazado 124834" d="M89.73,458.257s23.617,8.912,60.734,64.355C150.464,522.612,110.211,468.869,89.73,458.257Z" transform="translate(-68.218 -348.4)" fill="#fff" opacity="0.5"/>
      <path id="Trazado_124835" data-name="Trazado 124835" d="M798.139,116.321c-14.364,13.418-76.051,76.6-42.859,144.006a1.954,1.954,0,0,0,3.32.308c9.288-12.461,49.214-70.687,42.816-143.054A1.953,1.953,0,0,0,798.139,116.321Z" transform="translate(-566.86 -88.035)" fill="#99d2ff"/>
      <path id="Trazado_124836" data-name="Trazado 124836" d="M828.584,205.5a.265.265,0,0,0-.449-.279c-8.695,12.876-33,54.4-32.2,115.179C795.938,320.4,798.076,260.269,828.584,205.5Z" transform="translate(-605.113 -155.932)" fill="#fff" opacity="0.5"/>
      <path id="Trazado_124837" data-name="Trazado 124837" d="M333.255,44.6c-.676,27.276-2.869,121.364-1.822,154.706a6.693,6.693,0,0,0,6.474,6.483c17.47.572,67.726,2.02,96.3.822a11.272,11.272,0,0,0,10.808-11.026c.594-28.631,1.9-109.157-1.21-146.045a9.2,9.2,0,0,0-8.256-8.381c-19.025-1.9-69.557-6.556-94.244-4.954a8.621,8.621,0,0,0-8.052,8.4Z" transform="translate(-251.766 -27.274)" fill="#3c0061"/>
      <path id="Trazado_124838" data-name="Trazado 124838" d="M359.4,84.207c-.954,22.339-3.963,96.657-3.008,124.139a7.775,7.775,0,0,0,7.318,7.5c16.52.966,58.892,3.1,83.122,1.158a8.74,8.74,0,0,0,8.023-8.249c1.228-22.79,4.753-91.991,3.838-119.165a8.591,8.591,0,0,0-7.824-8.263c-17.872-1.6-63.773-5.423-84.364-4.3A7.512,7.512,0,0,0,359.4,84.207Z" transform="translate(-270.813 -58.407)" fill="#99d2ff"/>
      <path id="Trazado_124839" data-name="Trazado 124839" d="M520.013,52a1.571,1.571,0,0,0,1.488,1.571c4.127.216,15.75.827,20.945,1.129a1.571,1.571,0,0,0,1.633-1.868l-.033-.172a1.571,1.571,0,0,0-1.4-1.268,200.915,200.915,0,0,0-21.128-.964A1.569,1.569,0,0,0,520.012,52Z" transform="translate(-395.349 -38.305)" fill="#7d97f4"/>
      <path id="Trazado_124840" data-name="Trazado 124840" d="M791.774,427.75s-3.658-54.045,59.088-95.505a2.032,2.032,0,0,1,3.155,1.641C854.352,348.93,851.674,407.324,791.774,427.75Z" transform="translate(-601.931 -252.338)" fill="#6bf"/>
      <path id="Trazado_124841" data-name="Trazado 124841" d="M804.067,507.984c4.209-8.076,20.656-38.892,39.339-64.1a.231.231,0,0,1,.384.254c-7.27,12.359-31.865,53.982-39.333,64.092a.23.23,0,0,1-.39-.242Z" transform="translate(-611.286 -337.398)" fill="#fff" opacity="0.5"/>
      <path id="Trazado_124842" data-name="Trazado 124842" d="M859.761,81.939l1.526,30.953a3.865,3.865,0,0,0,3.532,3.661l46.275,3.943a3.867,3.867,0,0,0,4.1-3c1.537-6.817,4.747-22.741,3.85-33.274a3.877,3.877,0,0,0-3.236-3.507C897.358,77.725,879.724,76.5,863.3,77.9a3.867,3.867,0,0,0-3.536,4.043Z" transform="translate(-653.646 -58.786)" fill="#3c0061"/>
      <path id="Trazado_124843" data-name="Trazado 124843" d="M871.679,90.359l1.405,28.513a3.559,3.559,0,0,0,3.254,3.372l42.627,3.632a3.56,3.56,0,0,0,3.776-2.765c1.414-6.279,4.373-20.949,3.548-30.651a3.57,3.57,0,0,0-2.982-3.23c-16.994-2.753-33.239-3.881-48.37-2.6a3.562,3.562,0,0,0-3.257,3.725Z" transform="translate(-662.709 -65.464)" fill="#b3ddff"/>
      <path id="Trazado_124844" data-name="Trazado 124844" d="M887.049,441.98l3.224,42.271c.2,2.639,1.873,4.679,3.914,4.772l48.972,2.26c2.038.094,3.814-1.779,4.162-4.388,1.263-9.437,3.816-31.454,2.323-45.813-.252-2.417-1.728-4.31-3.594-4.581-19.6-2.84-38.246-3.319-55.484-.3-2.177.382-3.731,2.935-3.514,5.776Z" transform="translate(-674.384 -330.069)" fill="#3c0061"/>
      <path id="Trazado_124845" data-name="Trazado 124845" d="M899.975,453.073l2.969,38.938c.185,2.431,1.726,4.31,3.606,4.4l45.111,2.081c1.877.086,3.514-1.639,3.836-4.042,1.165-8.693,3.514-28.974,2.141-42.2-.233-2.227-1.592-3.971-3.313-4.219-18.052-2.616-35.23-3.058-51.11-.273-2.006.351-3.437,2.7-3.238,5.32Z" transform="translate(-684.211 -338.97)" fill="#b3ddff"/>
      <path id="Trazado_124846" data-name="Trazado 124846" d="M75.9,173.862l2.9,24.13a3.45,3.45,0,0,0,3.522,2.724l44.074,1.29a3.571,3.571,0,0,0,3.746-2.5c1.138-5.386,3.434-17.956,2.09-26.151A3.429,3.429,0,0,0,129,170.735c-17.638-1.621-34.422-1.895-49.936-.169-1.959.218-3.358,1.675-3.163,3.3Z" transform="translate(-57.69 -128.783)" fill="#3c0061"/>
      <path id="Trazado_124847" data-name="Trazado 124847" d="M87.536,180.2l2.672,22.227a3.18,3.18,0,0,0,3.244,2.51l40.6,1.188a3.288,3.288,0,0,0,3.451-2.307c1.048-4.963,3.163-16.539,1.925-24.09a3.159,3.159,0,0,0-2.981-2.409c-16.248-1.493-31.707-1.745-46-.156a2.964,2.964,0,0,0-2.914,3.038Z" transform="translate(-66.536 -133.87)" fill="#b3ddff"/>
      <path id="Trazado_124848" data-name="Trazado 124848" d="M155.571,233.985a.571.571,0,0,1-.1-.009c-13.58-2.455-41.065-1.982-41.341-1.977a.571.571,0,1,1-.02-1.141c.278-.005,27.875-.479,41.564,2a.571.571,0,0,1-.1,1.132Z" transform="translate(-86.325 -175.485)" fill="#3d0063"/>
      <path id="Trazado_124849" data-name="Trazado 124849" d="M144,275.763a.533.533,0,0,1-.14-.018c-9.751-2.446-29.523-1.975-29.723-1.97a.57.57,0,1,1-.029-1.14c.817-.02,20.126-.481,30.028,2a.571.571,0,0,1-.138,1.125Z" transform="translate(-86.328 -207.242)" fill="#3d0063"/>
      <path id="Trazado_124850" data-name="Trazado 124850" d="M155.571,256.532a.549.549,0,0,1-.1-.009c-13.58-2.455-41.065-1.982-41.341-1.977a.571.571,0,0,1-.02-1.142c.278-.005,27.875-.479,41.564,2a.571.571,0,0,1-.1,1.133Z" transform="translate(-86.325 -192.627)" fill="#3d0063"/>
      <path id="Trazado_124851" data-name="Trazado 124851" d="M1.542,65.409,4.766,97.947a4.079,4.079,0,0,0,3.914,3.674l48.972,1.739a4.077,4.077,0,0,0,4.162-3.377c1.263-7.264,3.816-24.213,2.322-35.266a4.09,4.09,0,0,0-3.594-3.526C40.944,59,22.3,58.635,5.058,60.963a4.08,4.08,0,0,0-3.514,4.446Z" transform="translate(-1.157 -45.143)" fill="#3c0061"/>
      <path id="Trazado_124852" data-name="Trazado 124852" d="M14.473,73.953l2.969,29.974a3.757,3.757,0,0,0,3.606,3.384l45.112,1.6a3.757,3.757,0,0,0,3.835-3.111c1.164-6.691,3.514-22.3,2.14-32.486a3.767,3.767,0,0,0-3.311-3.248c-18.054-2.014-35.231-2.354-51.111-.211a3.759,3.759,0,0,0-3.238,4.1Z" transform="translate(-10.989 -52)" fill="#b3ddff"/>
      <path id="Trazado_124853" data-name="Trazado 124853" d="M48.516,106.771a.824.824,0,0,1-.063-1.646c1.344-.105,33.018-2.562,39.851-1.649a.824.824,0,1,1-.218,1.634c-6.662-.89-39.178,1.632-39.5,1.657l-.065,0Z" transform="translate(-36.258 -78.516)" fill="#3d0063"/>
      <path id="Trazado_124854" data-name="Trazado 124854" d="M50.428,143.547a.825.825,0,0,1-.034-1.649l31.068-1.309a.824.824,0,0,1,.07,1.647l-31.068,1.309h-.035Z" transform="translate(-37.711 -106.886)" fill="#3d0063"/>
      <path id="Trazado_124855" data-name="Trazado 124855" d="M52.05,176.455a.824.824,0,0,1-.018-1.649l13.788-.3a.825.825,0,0,1,.035,1.649l-13.788.3Z" transform="translate(-38.944 -132.673)" fill="#3d0063"/>
      <path id="Trazado_124856" data-name="Trazado 124856" d="M331.448,163.19a.254.254,0,0,1-.254-.242l-.018-.379a.253.253,0,1,1,.506-.024l.018.38a.253.253,0,0,1-.241.265h-.012Zm-.059-1.267a.254.254,0,0,1-.254-.242l-.018-.379a.253.253,0,1,1,.506-.024l.018.38a.254.254,0,0,1-.241.265h-.011Zm-.06-1.267a.254.254,0,0,1-.254-.241l-.018-.38a.253.253,0,1,1,.506-.024l.018.379a.254.254,0,0,1-.241.265h-.012Zm-.06-1.267a.255.255,0,0,1-.254-.241l-.018-.381a.253.253,0,0,1,.506-.024l.018.379a.253.253,0,0,1-.241.265h-.012Zm-.059-1.267a.254.254,0,0,1-.254-.241l-.018-.38a.253.253,0,1,1,.506-.024l.018.379a.254.254,0,0,1-.241.265h-.011Zm-.06-1.267a.255.255,0,0,1-.254-.241l-.018-.38a.253.253,0,0,1,.506-.024l.018.379a.253.253,0,0,1-.241.265h-.012Zm-.06-1.267a.255.255,0,0,1-.254-.241l-.018-.38a.253.253,0,0,1,.506-.024l.018.379a.254.254,0,0,1-.241.265h-.012Zm-.059-1.267a.254.254,0,0,1-.254-.241l-.018-.38a.253.253,0,1,1,.506-.024l.018.379a.254.254,0,0,1-.241.265h-.011Zm-.06-1.267a.254.254,0,0,1-.254-.241l-.018-.38a.253.253,0,1,1,.506-.024l.018.379a.254.254,0,0,1-.241.265h-.012Zm-.06-1.267a.255.255,0,0,1-.254-.241l-.018-.38a.253.253,0,1,1,.506-.024l.018.379a.254.254,0,0,1-.241.265h-.012Zm-.059-1.267a.255.255,0,0,1-.254-.241l-.018-.38a.253.253,0,1,1,.506-.024l.018.379a.254.254,0,0,1-.241.265h-.011Zm-.06-1.267a.254.254,0,0,1-.254-.241l-.018-.38a.253.253,0,0,1,.506-.024l.018.379a.254.254,0,0,1-.241.265h-.011Zm-.059-1.267a.254.254,0,0,1-.254-.242l-.018-.379a.253.253,0,0,1,.506-.024l.018.38a.254.254,0,0,1-.241.265h-.011Zm-.06-1.267a.254.254,0,0,1-.254-.242l-.018-.379a.253.253,0,0,1,.506-.024l.018.38a.254.254,0,0,1-.241.265h-.012Zm-.061-1.267a.254.254,0,0,1-.254-.241c-.006-.126-.013-.251-.02-.378a.253.253,0,0,1,.506-.029c.008.128.014.255.02.382a.256.256,0,0,1-.241.266h-.012Zm-.086-1.266a.255.255,0,0,1-.252-.23c-.011-.124-.025-.248-.039-.373a.254.254,0,0,1,.5-.06c.015.128.029.256.041.384a.254.254,0,0,1-.228.277h-.024Zm-.176-1.255a.254.254,0,0,1-.249-.205c-.024-.122-.049-.242-.079-.362a.254.254,0,1,1,.493-.118c.03.127.058.254.084.382a.255.255,0,0,1-.2.3A.216.216,0,0,1,330.35,142.931Zm-.339-1.22a.254.254,0,0,1-.237-.165c-.043-.115-.09-.228-.138-.336A.254.254,0,0,1,330.1,141c.053.118.1.241.152.367a.254.254,0,0,1-.148.327.241.241,0,0,1-.089.017Zm-.579-1.124a.255.255,0,0,1-.209-.109q-.1-.148-.217-.285a.254.254,0,0,1,.391-.325c.085.1.166.209.244.321a.254.254,0,0,1-.063.353A.258.258,0,0,1,329.431,140.587Zm-.865-.921a.249.249,0,0,1-.156-.054c-.093-.072-.19-.143-.292-.209a.254.254,0,0,1,.278-.425c.113.074.222.152.327.235a.253.253,0,0,1-.156.453Zm-1.092-.638a.253.253,0,0,1-.1-.02c-.109-.047-.223-.091-.34-.133a.254.254,0,0,1,.17-.478c.125.044.25.094.369.145a.254.254,0,0,1-.1.487Zm-1.208-.384a.288.288,0,0,1-.057-.006c-.121-.028-.241-.053-.363-.076a.254.254,0,1,1,.1-.5c.128.024.256.051.382.08a.254.254,0,0,1-.057.5Zm-1.25-.212h-.03q-.187-.023-.373-.042a.254.254,0,0,1,.051-.5c.128.013.256.027.383.043a.254.254,0,0,1-.03.506Zm-1.263-.118h-.019l-.379-.028a.254.254,0,0,1,.037-.506l.379.028a.253.253,0,0,1-.018.506Zm-1.265-.093h-.019l-.379-.028a.254.254,0,1,1,.037-.506l.379.028a.254.254,0,0,1-.018.507Zm-1.264-.091h-.018l-.379-.027a.254.254,0,1,1,.037-.506l.379.027a.254.254,0,0,1-.018.507Zm-1.265-.09h-.018l-.379-.027a.254.254,0,0,1,.034-.506l.379.027a.254.254,0,0,1-.018.507Zm-1.266-.089h-.018l-.379-.027a.253.253,0,1,1,.034-.506l.379.027a.253.253,0,0,1-.017.506Zm-1.266-.087h-.018l-.379-.025a.254.254,0,0,1,.034-.506l.379.025a.253.253,0,0,1-.016.506Zm-1.266-.086h-.018l-.379-.025a.254.254,0,1,1,.034-.506l.379.025a.254.254,0,0,1-.017.507Zm-1.266-.085h-.017l-.379-.025a.254.254,0,1,1,.033-.506l.379.025a.254.254,0,0,1-.017.507Zm-1.266-.084h-.017l-.379-.024a.254.254,0,0,1,.032-.507l.38.024a.254.254,0,0,1-.015.507Zm-1.266-.082h-.016l-.379-.024A.254.254,0,0,1,312,137l.38.024a.253.253,0,0,1-.015.506Zm-1.266-.081h-.017l-.379-.024a.254.254,0,0,1,.032-.506l.379.024a.253.253,0,0,1-.015.506Zm-1.266-.08h-.017l-.379-.024a.254.254,0,0,1,.032-.506l.379.024a.254.254,0,0,1-.015.507Zm-1.266-.079h-.015l-.379-.023a.254.254,0,1,1,.03-.507l.38.023a.254.254,0,0,1-.015.507Zm-1.266-.077h-.015l-.379-.023a.254.254,0,1,1,.03-.507l.38.023a.254.254,0,0,1-.014.507Zm-1.266-.076h-.015l-.379-.023a.253.253,0,0,1,.029-.506l.38.023a.253.253,0,0,1-.014.506Zm-1.266-.075h-.015l-.379-.022a.253.253,0,0,1-.238-.268.256.256,0,0,1,.268-.239l.38.022a.253.253,0,0,1-.015.506Zm-1.266-.072h-.015l-.379-.022a.253.253,0,1,1,.029-.506l.38.022a.254.254,0,0,1-.015.507Zm-1.266-.072h-.014l-.379-.022a.254.254,0,0,1,.028-.507l.381.022a.254.254,0,0,1-.015.507Zm-1.267-.071h-.014l-.379-.02a.254.254,0,1,1,.028-.507l.38.02a.254.254,0,0,1-.014.507Zm-1.266-.069h-.014l-.38-.02a.253.253,0,1,1,.027-.506l.38.02a.254.254,0,0,1-.014.507Zm-1.267-.069h-.014l-.38-.02a.253.253,0,1,1,.027-.506l.38.02a.253.253,0,0,1-.014.506Zm-1.267-.066h-.014l-.38-.02a.253.253,0,1,1,.027-.506l.38.02a.254.254,0,0,1-.014.507Zm-1.267-.064h-.013l-.38-.019a.254.254,0,0,1,.025-.507l.38.019a.254.254,0,0,1-.014.508Zm-1.267-.065h-.013l-.38-.019a.254.254,0,1,1,.025-.507l.38.019a.254.254,0,0,1-.013.507Zm-1.267-.062h-.013l-.38-.019a.254.254,0,1,1,.025-.507l.38.019a.254.254,0,0,1-.013.507Zm-1.267-.062h-.013l-.38-.018a.253.253,0,0,1,.024-.506l.38.018a.253.253,0,0,1-.013.506Zm-1.267-.059h-.013l-.38-.018a.253.253,0,1,1,.024-.506l.38.018a.254.254,0,0,1-.013.507Zm-1.267-.059h-.012l-.38-.018a.255.255,0,0,1-.242-.265.257.257,0,0,1,.265-.242l.38.018a.254.254,0,0,1-.011.507Zm-1.267-.057h-.011l-.38-.017a.254.254,0,1,1,.023-.507l.38.017a.254.254,0,0,1-.012.507Zm-1.267-.056h-.011l-.38-.016a.254.254,0,1,1,.023-.508l.38.017a.254.254,0,0,1-.012.507Zm-1.267-.054h-.011l-.38-.017a.253.253,0,0,1,.011-.506h.012l.38.017a.253.253,0,0,1-.012.506Zm-1.267-.053h-.011l-.381-.017a.254.254,0,0,1,.02-.507l.38.017a.254.254,0,0,1-.011.507ZM283.237,136h-.01l-.38-.015a.254.254,0,0,1,.02-.507l.38.015a.254.254,0,0,1-.01.507Zm-1.267-.051h-.01l-.38-.015a.254.254,0,0,1-.244-.264.257.257,0,0,1,.264-.243l.38.015a.254.254,0,0,1-.01.507ZM280.7,135.9h-.01l-.38-.015a.254.254,0,0,1,.02-.507l.38.015a.254.254,0,0,1-.01.507Zm-1.267-.048h-.01l-.381-.014a.253.253,0,0,1,.019-.506l.38.014a.253.253,0,0,1-.01.506Zm-1.267-.047h-.01l-.38-.014a.254.254,0,0,1-.245-.262.252.252,0,0,1,.263-.245l.381.014a.254.254,0,0,1-.01.507Zm-1.267-.046h-.009l-.38-.014a.254.254,0,0,1,.018-.507l.38.014a.254.254,0,0,1-.009.507Zm-1.267-.045h-.009l-.38-.012a.254.254,0,1,1,.018-.508l.38.013a.254.254,0,0,1-.009.507Zm-1.267-.043h-.009l-.381-.013a.254.254,0,1,1,.018-.507l.38.012a.254.254,0,0,1-.009.507Zm-1.268-.042h-.009l-.38-.013a.253.253,0,0,1,.009-.506h.009l.38.013a.253.253,0,0,1-.009.506Zm-1.267-.041h-.008l-.38-.013a.254.254,0,1,1,.015-.507l.38.013a.254.254,0,0,1-.008.507Zm-1.267-.039h-.008l-.38-.012a.254.254,0,0,1,.008-.507h.008l.38.012a.254.254,0,0,1-.008.507Zm-1.268-.038h-.008l-.38-.012a.254.254,0,0,1-.246-.261.251.251,0,0,1,.261-.246l.38.011a.254.254,0,0,1-.007.507Zm-1.268-.037h-.007l-.381-.012a.254.254,0,1,1,.015-.507l.38.011a.254.254,0,0,1-.008.508Zm-1.268-.036h-.008l-.38-.01a.253.253,0,0,1,.014-.506l.38.01a.254.254,0,0,1-.007.507Z" transform="translate(-202.327 -102.576)" fill="#3c0061"/>
      <path id="Trazado_124857" data-name="Trazado 124857" d="M571.267,184.844a.179.179,0,0,1-.037,0,.317.317,0,0,1-.279-.351c.014-.123.027-.246.037-.37a.317.317,0,1,1,.631.056c-.011.129-.024.259-.039.387a.319.319,0,0,1-.315.282Zm.09-1.265h-.01a.316.316,0,0,1-.307-.326c0-.124.006-.25.007-.374a.318.318,0,0,1,.317-.315h0a.317.317,0,0,1,.315.32c0,.129,0,.257-.008.387a.317.317,0,0,1-.317.307Zm0-1.268a.318.318,0,0,1-.317-.307c0-.126-.009-.251-.015-.375a.317.317,0,0,1,.633-.029q.01.192.015.384a.317.317,0,0,1-.307.327h-.009Zm-.071-1.266a.317.317,0,0,1-.316-.293c-.009-.126-.019-.251-.029-.377a.317.317,0,1,1,.632-.053c.01.127.02.255.03.382a.317.317,0,0,1-.293.34h-.024Zm-.109-1.263a.319.319,0,0,1-.316-.287l-.035-.374.63-.066.037.379a.319.319,0,0,1-.285.346Zm-.122-1.262a.319.319,0,0,1-.316-.287c-.011-.127-.024-.254-.036-.38a.317.317,0,0,1,.631-.056c.012.126.023.251.036.378a.319.319,0,0,1-.285.346h-.03Zm-.108-1.263a.317.317,0,0,1-.316-.294c-.009-.128-.018-.256-.025-.383a.317.317,0,0,1,.3-.336.313.313,0,0,1,.336.3c.008.125.017.251.025.375a.317.317,0,0,1-.293.34h-.024Zm-.069-1.267a.318.318,0,0,1-.317-.307v-.049c-.005-.11-.006-.224-.007-.339a.316.316,0,0,1,.315-.32h0a.317.317,0,0,1,.317.315c0,.111,0,.221.006.33v.043a.314.314,0,0,1-.306.327h-.01Zm.006-1.268h-.014a.316.316,0,0,1-.3-.33c.005-.129.013-.259.022-.388a.317.317,0,1,1,.633.042c-.008.124-.015.248-.02.372a.317.317,0,0,1-.317.3Zm.105-1.263a.24.24,0,0,1-.041,0,.317.317,0,0,1-.275-.354c.017-.129.034-.257.055-.385a.317.317,0,0,1,.626.1c-.019.122-.037.245-.052.368a.318.318,0,0,1-.315.278Zm.22-1.249a.343.343,0,0,1-.071-.008.317.317,0,0,1-.238-.38c.029-.128.061-.255.094-.38a.317.317,0,0,1,.613.164c-.032.119-.061.238-.089.359A.317.317,0,0,1,571.207,172.209Zm.355-1.218a.322.322,0,0,1-.108-.019.317.317,0,0,1-.19-.406c.044-.124.091-.246.141-.368a.317.317,0,1,1,.587.24c-.047.113-.09.227-.132.344A.317.317,0,0,1,571.562,170.992Zm.514-1.159a.318.318,0,0,1-.279-.468c.062-.117.128-.232.2-.344a.317.317,0,1,1,.543.327c-.062.1-.123.209-.18.317a.317.317,0,0,1-.279.167Zm.692-1.06a.313.313,0,0,1-.2-.069.318.318,0,0,1-.053-.445c.082-.105.169-.208.255-.306a.317.317,0,1,1,.474.421c-.079.089-.157.183-.232.278a.315.315,0,0,1-.25.12Zm.876-.914a.317.317,0,0,1-.207-.557l.062-.053c.081-.069.165-.134.249-.2a.317.317,0,1,1,.383.5c-.076.058-.151.118-.226.179l-.056.048a.318.318,0,0,1-.207.076Zm60.676-.575h-.032l-.379-.037a.317.317,0,0,1,.062-.63l.379.038a.317.317,0,0,1-.032.632Zm-1.262-.124h-.032l-.379-.037a.317.317,0,0,1,.062-.63l.379.037a.317.317,0,0,1-.032.633Zm-58.376-.028a.317.317,0,0,1-.157-.592c.113-.065.23-.128.349-.188a.317.317,0,1,1,.287.565c-.109.056-.217.114-.321.173A.322.322,0,0,1,574.681,167.131Zm57.113-.1h-.032l-.379-.037a.317.317,0,1,1,.061-.63l.379.037a.317.317,0,0,1-.032.633Zm-1.263-.123H630.5l-.379-.037a.317.317,0,0,1,.061-.631l.379.037a.317.317,0,0,1-.03.633Zm-1.263-.123h-.03l-.379-.037a.317.317,0,0,1,.061-.631l.379.037a.317.317,0,0,1-.03.633Zm-1.263-.121h-.03l-.379-.035a.317.317,0,0,1,.061-.632l.379.036a.317.317,0,0,1-.03.633Zm-52.18-.075a.317.317,0,0,1-.114-.614q.183-.07.369-.133a.317.317,0,0,1,.2.6c-.117.039-.232.081-.346.124a.315.315,0,0,1-.113.022Zm50.917-.044h-.03l-.379-.035a.317.317,0,1,1,.058-.632l.379.035a.317.317,0,0,1-.029.633Zm-1.263-.118h-.029l-.379-.035a.317.317,0,0,1,.058-.632l.379.035a.317.317,0,0,1-.029.633Zm-1.263-.115h-.029l-.379-.034a.317.317,0,0,1,.056-.632l.379.034a.317.317,0,0,1-.029.633Zm-47.181-.1a.317.317,0,0,1-.077-.624c.126-.032.251-.062.378-.091a.317.317,0,1,1,.14.619c-.121.028-.242.056-.362.086A.326.326,0,0,1,577.034,166.214Zm45.918-.012h-.028l-.379-.033a.317.317,0,0,1,.056-.632l.379.033a.317.317,0,0,1-.028.633Zm-1.263-.111h-.028l-.379-.033a.317.317,0,1,1,.054-.632l.379.033a.317.317,0,0,1-.027.633Zm-1.265-.108H620.4l-.379-.032a.317.317,0,1,1,.053-.631l.379.032a.317.317,0,0,1-.027.633Zm-42.15-.029a.317.317,0,0,1-.053-.63l.382-.062a.317.317,0,1,1,.1.627l-.37.06a.417.417,0,0,1-.054.005Zm40.887-.075h-.027l-.379-.03a.317.317,0,0,1,.051-.632l.379.03a.317.317,0,0,1-.025.633Zm-1.264-.1h-.025l-.379-.029a.317.317,0,1,1,.049-.633l.379.029a.317.317,0,0,1-.024.633Zm-38.367-.005a.317.317,0,0,1-.038-.631l.38-.044a.317.317,0,0,1,.071.629l-.375.044-.039,0Zm37.1-.093h-.024l-.379-.028a.317.317,0,0,1,.047-.633l.379.028a.317.317,0,0,1-.024.633Zm-35.842-.046a.317.317,0,0,1-.032-.633l.379-.038a.317.317,0,0,1,.063.632l-.378.038Zm34.578-.048h-.023l-.379-.027a.317.317,0,1,1,.044-.633l.379.027a.317.317,0,0,1-.023.633Zm-33.315-.076a.317.317,0,0,1-.029-.633l.379-.035a.317.317,0,0,1,.058.632l-.378.034h-.03Zm32.05-.013h-.021l-.379-.025a.317.317,0,0,1,.042-.633l.381.025a.317.317,0,0,1-.022.634Zm-1.266-.085h-.02l-.379-.024a.318.318,0,0,1-.3-.336.315.315,0,0,1,.336-.3l.38.024a.317.317,0,0,1-.02.634Zm-29.521-.014a.317.317,0,0,1-.026-.633l.38-.032a.317.317,0,1,1,.052.631l-.378.032h-.028Zm28.256-.066h-.019l-.379-.023a.317.317,0,1,1,.037-.633l.381.023a.317.317,0,0,1-.019.634Zm-26.991-.035a.317.317,0,0,1-.023-.633l.38-.028a.317.317,0,0,1,.046.632l-.379.028h-.024Zm25.725-.039h-.018l-.379-.022a.318.318,0,0,1,.034-.634l.38.022a.317.317,0,0,1-.018.634Zm-24.461-.051a.317.317,0,0,1-.02-.633l.38-.025a.317.317,0,1,1,.041.633l-.379.025Zm23.194-.019h-.017l-.379-.02a.317.317,0,1,1,.032-.633l.38.02a.317.317,0,0,1-.015.634Zm-21.928-.06a.317.317,0,0,1-.018-.634l.38-.022a.317.317,0,1,1,.034.633l-.379.022h-.018Zm20.661,0h-.015l-.379-.018a.317.317,0,1,1,.029-.633l.38.018a.317.317,0,0,1-.015.634Zm-1.267-.057h-.014l-.379-.017a.317.317,0,1,1,.027-.633l.38.017a.317.317,0,0,1-.014.634Zm-18.128-.008a.317.317,0,0,1-.017-.634l.38-.019a.317.317,0,1,1,.03.634l-.379.019h-.015Zm16.861-.044h-.012l-.379-.014a.317.317,0,0,1,.011-.634h.012l.38.014a.317.317,0,0,1-.013.633ZM589.644,165a.317.317,0,0,1-.014-.634l.38-.015a.317.317,0,0,1,.025.634l-.379.015h-.013Zm14.327-.032h-.01l-.379-.013a.317.317,0,1,1,.02-.634l.38.012a.317.317,0,0,1-.01.634Zm-13.059-.017a.317.317,0,0,1-.011-.633l.38-.013h.01a.317.317,0,0,1,.01.634l-.379.013h-.01Zm11.792-.022H602.7l-.379-.01a.317.317,0,0,1,.009-.634h.009l.381.01a.317.317,0,0,1-.009.634Zm-10.524-.018a.317.317,0,0,1-.009-.634l.38-.01a.314.314,0,0,1,.325.31.317.317,0,0,1-.309.325l-.379.01h-.008Zm9.257-.014h-.008l-.379-.008a.317.317,0,0,1,.006-.634h.006l.38.007a.317.317,0,0,1-.008.634Zm-7.989-.015a.317.317,0,0,1-.006-.634l.38-.006a.317.317,0,1,1,.01.634l-.379.006h-.005Zm6.721-.009h-.005l-.38-.005a.317.317,0,0,1,.005-.634h.005l.38.005a.317.317,0,0,1-.005.634Zm-5.454-.011a.317.317,0,0,1,0-.634l.38,0a.317.317,0,1,1,.008.634l-.38,0Zm4.185-.005h0l-.379,0a.317.317,0,0,1,0-.634h0l.38,0a.317.317,0,0,1,0,.634Zm-2.917-.006a.317.317,0,0,1,0-.634h.382a.314.314,0,0,1,.317.315.318.318,0,0,1-.316.318h-.382Zm1.649,0h-.38a.318.318,0,0,1,0-.636h.382a.317.317,0,0,1,0,.634Z" transform="translate(-433.772 -124.851)" fill="#3c0061"/>
      <path id="Trazado_124858" data-name="Trazado 124858" d="M623.972,548.306h-.087a.254.254,0,1,1,0-.507h.38a.254.254,0,0,1,0,.507Zm-.975,0h-.38a.254.254,0,0,1,0-.509H623a.254.254,0,0,1,0,.509Zm2.156,0a.254.254,0,0,1,0-.507h.381a.253.253,0,1,1,0,.506h-.381Zm-3.424,0h-.38a.254.254,0,0,1,0-.509h.38a.254.254,0,0,1,0,.509Zm4.692,0a.254.254,0,0,1,0-.507h.381a.252.252,0,0,1,.254.252.256.256,0,0,1-.254.255Zm-5.961,0h-.382a.254.254,0,0,1,0-.508h.381a.254.254,0,0,1,0,.508Zm7.229,0a.254.254,0,0,1,0-.507h.38a.252.252,0,0,1,.254.251.255.255,0,0,1-.252.255h-.38Zm-8.5,0h-.382a.256.256,0,0,1-.252-.256.253.253,0,0,1,.254-.253h.382a.254.254,0,0,1,0,.509Zm9.766,0a.254.254,0,0,1,0-.507h.382a.251.251,0,0,1,.254.251.254.254,0,0,1-.252.255h-.382Zm-11.034,0h0l-.38,0a.254.254,0,0,1,0-.507h0l.38,0a.254.254,0,0,1,0,.507Zm12.3,0a.254.254,0,0,1,0-.507l.38,0h0a.254.254,0,0,1,0,.507l-.381,0Zm-13.57-.006h0l-.38,0a.254.254,0,0,1,0-.507h0l.38,0a.254.254,0,0,1,0,.507Zm14.838,0a.254.254,0,0,1,0-.507l.381,0h0a.254.254,0,0,1,0,.507l-.38,0Zm-16.107-.008h0l-.38,0a.254.254,0,0,1,0-.507h0l.38,0a.254.254,0,0,1,0,.507Zm17.375,0a.254.254,0,0,1,0-.507l.38,0h0a.254.254,0,0,1,0,.507l-.381,0Zm-18.643-.009h0l-.38,0a.254.254,0,0,1,0-.507h0l.38,0a.254.254,0,0,1,0,.507Zm19.912,0a.254.254,0,0,1,0-.507h.029a.254.254,0,1,1,.005.507Zm-21.18-.01h0l-.38,0a.254.254,0,0,1,.005-.507l.38,0a.254.254,0,0,1,0,.507Zm-1.268-.014h0l-.38-.005a.254.254,0,1,1,.005-.507l.38.005a.254.254,0,0,1,0,.507Zm-1.268-.015h0l-.38-.005a.254.254,0,0,1,0-.507h0l.38.005a.254.254,0,0,1,0,.507Zm-1.268-.018h0l-.38-.005a.253.253,0,0,1-.25-.257.258.258,0,0,1,.258-.25l.38.005a.254.254,0,0,1,0,.508Zm-1.268-.019h0l-.38-.006a.254.254,0,1,1,.007-.507l.38.006a.254.254,0,0,1,0,.507Zm-1.268-.02h0l-.38-.006a.254.254,0,0,1,0-.507h0l.381.006a.254.254,0,0,1,0,.508Zm-1.268-.022h-.005l-.38-.007a.254.254,0,1,1,.01-.507l.38.006a.254.254,0,0,1-.005.507Zm-1.268-.023h-.005l-.38-.007a.254.254,0,1,1,.01-.507l.38.007a.254.254,0,0,1-.005.507Zm-1.268-.025H602.7l-.38-.008a.254.254,0,0,1,.01-.507l.38.007a.254.254,0,0,1-.005.508Zm-1.268-.027h-.005l-.381-.009a.254.254,0,0,1,.005-.507h0l.38.009a.254.254,0,0,1-.005.508Zm-1.268-.028h-.006l-.38-.009a.254.254,0,0,1,.011-.507l.381.009a.254.254,0,0,1-.006.507Zm-1.268-.029h-.006l-.38-.009a.254.254,0,0,1,.006-.507h.006l.38.009a.254.254,0,0,1-.006.507Zm-1.268-.03h-.006l-.381-.01a.254.254,0,1,1,.013-.507l.38.01a.254.254,0,0,1-.006.507Zm-1.268-.033h-.006l-.38-.01a.254.254,0,1,1,.013-.508l.38.01a.254.254,0,0,1-.006.507Zm-1.268-.034h-.008l-.38-.01a.253.253,0,0,1,.014-.506l.38.01a.254.254,0,0,1-.007.507Zm-1.268-.035h-.007l-.381-.012a.254.254,0,1,1,.015-.507l.38.012a.254.254,0,0,1-.008.507Zm-1.268-.037h-.008l-.38-.012a.254.254,0,1,1,.015-.507l.38.011a.254.254,0,0,1-.008.508Zm-1.267-.038h-.008l-.38-.011a.255.255,0,0,1-.246-.261.258.258,0,0,1,.261-.246l.38.011a.254.254,0,0,1-.008.507Zm-1.268-.041h-.009l-.38-.013a.253.253,0,1,1,.016-.506l.38.013a.254.254,0,0,1-.009.507Zm-1.267-.042h-.009l-.381-.013a.254.254,0,1,1,.018-.507l.381.013a.254.254,0,0,1-.009.507Zm-1.267-.043h-.009l-.38-.013a.254.254,0,0,1,.018-.507l.381.013a.254.254,0,0,1-.009.507Zm-1.267-.044h-.009l-.38-.014a.254.254,0,1,1,.018-.507l.38.014a.254.254,0,0,1-.009.507Zm-1.267-.046h-.009l-.38-.014a.254.254,0,0,1,.01-.507h.01l.38.014a.254.254,0,0,1-.009.507Zm-1.267-.048h-.01l-.382-.015a.254.254,0,0,1,.021-.507l.379.015a.253.253,0,0,1-.01.506Zm-1.267-.064H582.4q-.192-.013-.384-.03a.254.254,0,1,1,.044-.506c.124.011.25.02.375.029a.254.254,0,0,1-.018.508Zm-1.26-.132a.188.188,0,0,1-.037,0c-.128-.019-.256-.039-.383-.062a.253.253,0,0,1,.09-.5c.122.021.245.042.368.059a.254.254,0,0,1-.037.5Zm-1.242-.257a.249.249,0,0,1-.068-.009c-.128-.035-.255-.075-.375-.114a.254.254,0,1,1,.16-.482c.113.038.232.074.353.108a.253.253,0,0,1-.069.5Zm-1.186-.445a.274.274,0,0,1-.112-.025c-.119-.058-.237-.121-.351-.187a.254.254,0,1,1,.252-.44c.1.06.212.117.321.17a.254.254,0,0,1-.112.482Zm-1.065-.681a.257.257,0,0,1-.161-.057c-.1-.084-.2-.173-.3-.264a.254.254,0,1,1,.35-.368c.088.082.179.164.271.24a.253.253,0,0,1-.161.449Zm-.875-.912a.252.252,0,0,1-.2-.1c-.079-.1-.156-.213-.229-.323a.253.253,0,1,1,.422-.28c.067.1.138.2.211.3a.253.253,0,0,1-.048.355A.257.257,0,0,1,576.794,545.057Zm-.658-1.082a.253.253,0,0,1-.228-.143c-.057-.116-.112-.237-.162-.359a.254.254,0,0,1,.468-.2c.048.113.1.226.151.335a.254.254,0,0,1-.118.338A.246.246,0,0,1,576.135,543.975Zm-.454-1.183a.255.255,0,0,1-.244-.181c-.037-.124-.071-.251-.1-.378a.254.254,0,0,1,.492-.124c.03.12.063.238.1.356a.254.254,0,0,1-.171.316.245.245,0,0,1-.072.01Zm-.28-1.236a.254.254,0,0,1-.25-.213c-.021-.128-.039-.256-.056-.385a.254.254,0,0,1,.5-.065c.015.123.034.246.053.368a.254.254,0,0,1-.209.292A.225.225,0,0,1,575.4,541.556Zm-.137-1.26a.255.255,0,0,1-.254-.24c-.007-.129-.013-.259-.017-.387a.254.254,0,1,1,.508-.015q.005.186.016.373a.253.253,0,0,1-.238.267h-.015Zm-.014-1.268h-.005a.254.254,0,0,1-.249-.259v-.055c.006-.11.01-.222.017-.332a.254.254,0,0,1,.507.025c-.005.109-.01.217-.014.326v.047a.257.257,0,0,1-.255.248Zm.076-1.266h-.02a.253.253,0,0,1-.232-.274c.01-.127.022-.255.033-.382a.253.253,0,0,1,.5.046c-.011.125-.023.251-.033.377A.254.254,0,0,1,575.326,537.761Zm.119-1.263h-.027a.254.254,0,0,1-.227-.278l.038-.378a.254.254,0,0,1,.5.051l-.038.378a.253.253,0,0,1-.252.228Zm.126-1.262h-.024a.254.254,0,0,1-.229-.276c.011-.126.023-.251.033-.377a.254.254,0,0,1,.506.042c-.01.127-.022.254-.034.382a.253.253,0,0,1-.252.229Zm.095-1.264h-.014a.254.254,0,0,1-.24-.266c.006-.126.013-.25.017-.375a.254.254,0,1,1,.507.018c-.005.128-.01.256-.018.384a.253.253,0,0,1-.254.24Zm.028-1.268a.254.254,0,0,1-.254-.25q0-.186-.01-.373a.253.253,0,1,1,.506-.022c.005.129.009.258.012.387a.254.254,0,0,1-.25.257Zm-.079-1.266a.253.253,0,0,1-.251-.225c-.014-.123-.03-.246-.048-.368a.253.253,0,0,1,.5-.075c.019.128.037.258.051.385a.253.253,0,0,1-.223.28Z" transform="translate(-437.15 -403.366)" fill="#3c0061"/>
      <path id="Trazado_124859" data-name="Trazado 124859" d="M743.9,334.207h-.024l-.105-.01a.253.253,0,1,1,.046-.5l.105.01a.254.254,0,0,1-.023.507Zm-.991-.089h-.023l-.379-.033a.254.254,0,1,1,.044-.506l.379.033a.253.253,0,0,1-.022.506Zm-1.263-.109h-.022l-.379-.032a.254.254,0,1,1,.042-.506l.379.032a.253.253,0,0,1-.02.506Zm-1.265-.1h-.02l-.379-.03a.254.254,0,0,1,.039-.506l.379.03a.253.253,0,0,1-.019.506Zm-1.264-.1H739.1l-.379-.028a.254.254,0,1,1,.037-.506l.38.028a.253.253,0,0,1-.019.506Zm-1.265-.093h-.018l-.379-.027a.254.254,0,0,1,.034-.506l.381.027a.254.254,0,0,1-.018.507Zm-1.266-.087h-.017l-.379-.025a.254.254,0,1,1,.033-.507l.38.025a.254.254,0,0,1-.016.507Zm-1.266-.081h-.017l-.379-.023a.254.254,0,0,1,.032-.506l.38.023a.254.254,0,0,1-.015.507Zm-1.266-.076h-.015l-.379-.022a.253.253,0,1,1,.029-.506l.381.022a.253.253,0,0,1-.015.506Zm-1.266-.071h-.014l-.379-.02a.253.253,0,0,1,.026-.506l.38.02a.253.253,0,0,1-.014.506Zm-1.267-.065h-.013l-.379-.018a.253.253,0,0,1-.241-.265.256.256,0,0,1,.265-.241l.38.019a.254.254,0,0,1-.013.507Zm-1.267-.06h-.011l-.379-.017a.254.254,0,0,1-.242-.265.259.259,0,0,1,.264-.242l.38.017a.254.254,0,0,1-.012.507Zm-1.267-.055h-.01l-.38-.015a.254.254,0,1,1,.02-.507l.38.015a.254.254,0,0,1-.01.507Zm-1.267-.048h-.009l-.38-.014a.254.254,0,1,1,.018-.507l.38.014a.254.254,0,0,1-.009.507Zm-1.267-.043h-.008l-.38-.012a.254.254,0,1,1,.015-.507l.38.011a.254.254,0,0,1-.008.507Zm-1.268-.037h-.008l-.38-.01a.254.254,0,1,1,.013-.507l.38.01a.254.254,0,0,1-.008.507Zm-15.6-.008a.254.254,0,0,1-.006-.507l.38-.01a.257.257,0,0,1,.26.247.253.253,0,0,1-.247.26l-.38.01Zm14.33-.024h-.006l-.38-.009a.254.254,0,0,1,.01-.507l.38.009a.254.254,0,0,1-.006.507Zm-13.062-.006a.254.254,0,0,1-.005-.507l.381-.007a.254.254,0,1,1,.01.507l-.38.007Zm11.795-.02h-.005l-.38-.006a.254.254,0,0,1,.005-.507h.005l.38.006a.254.254,0,0,1-.005.507Zm-10.526-.005a.253.253,0,0,1-.005-.506l.38-.006h0a.254.254,0,0,1,0,.507l-.38.006h0Zm9.258-.015h0l-.38-.005a.254.254,0,0,1,0-.507h0l.381.005a.254.254,0,0,1,0,.507Zm-7.99,0a.254.254,0,0,1,0-.507l.38-.005h0a.254.254,0,0,1,0,.507l-.38.005h0Zm6.722-.011h0l-.38,0a.252.252,0,0,1-.251-.256.255.255,0,0,1,.256-.251l.38,0a.254.254,0,0,1,0,.507Zm-5.453,0a.254.254,0,0,1,0-.507l.38,0a.254.254,0,0,1,0,.508l-.38,0h0Zm4.185-.008h-.382a.256.256,0,0,1-.252-.256.253.253,0,0,1,.254-.252h.382a.256.256,0,0,1,.253.257.253.253,0,0,1-.254.252Zm-2.917,0a.254.254,0,0,1,0-.507h.382a.251.251,0,0,1,.254.251.255.255,0,0,1-.252.255h-.382Zm1.649,0h-.38a.254.254,0,1,1,0-.507h.38a.254.254,0,1,1,0,.507Z" transform="translate(-539.288 -252.775)" fill="#3c0061"/>
      <path id="Trazado_124860" data-name="Trazado 124860" d="M289.36,740.16c-2.06.177-5.635.467-8.453.591a8.147,8.147,0,0,1-3.232-.316c0,.063,0,.123.005.179a.583.583,0,0,0,.554.55,99.262,99.262,0,0,0,11.069.011.416.416,0,0,0,.339-.624,3.31,3.31,0,0,0-.282-.392Z" transform="translate(-211.108 -562.723)" fill="#fff"/>
      <path id="Trazado_124861" data-name="Trazado 124861" d="M280.905,727.564c2.818-.124,6.393-.413,8.453-.591-2.025-2.485-8.453-4.16-8.453-4.16h-1.816a7.6,7.6,0,0,0-1.415,4.435A8.138,8.138,0,0,0,280.905,727.564Z" transform="translate(-211.105 -549.535)" fill="#3c0061"/>
      <path id="Trazado_124862" data-name="Trazado 124862" d="M282.3,710.445l.17,3.362a.766.766,0,0,0,.656.721,2.984,2.984,0,0,0,1.363-.113.91.91,0,0,0,.611-.7l.587-3.273H282.3Z" transform="translate(-214.627 -540.131)" fill="#fff"/>
      <path id="Trazado_124863" data-name="Trazado 124863" d="M179.179,739.086A1.632,1.632,0,0,1,177.712,738l0,.014a1.162,1.162,0,0,0,.782,1.324,5.1,5.1,0,0,0,2.166.339,2.155,2.155,0,0,0,1.625-.749l.005-.006a5.455,5.455,0,0,1-3.107.165Z" transform="translate(-135.082 -561.082)" fill="#3c0061"/>
      <path id="Trazado_124864" data-name="Trazado 124864" d="M183.5,710.358H182c-2.28-.047-3.712,4.764-4.181,6.626a1.631,1.631,0,0,0,1.467,1.085,5.445,5.445,0,0,0,3.107-.165,14.329,14.329,0,0,0,2.137-5.381A1.89,1.89,0,0,0,183.5,710.358Z" transform="translate(-135.19 -540.065)" fill="#3c0061"/>
      <path id="Trazado_124865" data-name="Trazado 124865" d="M193.343,697.34l-.832,3.306a.9.9,0,0,0,.467,1.017,3.19,3.19,0,0,0,1.722.417.749.749,0,0,0,.611-.5l1.22-3.479-3.19-.762Z" transform="translate(-146.339 -530.168)" fill="#fff"/>
      <path id="Trazado_124866" data-name="Trazado 124866" d="M191.929,552.228c1.035.917,4.4,1.039,4.4,1.039,12.119-29.087,17.077-33.219,17.077-33.219-1.75,10.979-.281,35.285-.281,35.285a7.271,7.271,0,0,0,4.578,0,187.313,187.313,0,0,1,6.189-46.007c-8.192-.184-12.547-2.987-13.97-4.112-6.828,11.009-17.992,47.015-17.992,47.015Z" transform="translate(-145.917 -384.1)" fill="#3c0061"/>
      <path id="Trazado_124867" data-name="Trazado 124867" d="M266.64,365.042c-1.55,7.734-.994,21.576-.63,27.889.1,1.774-1.136,4.235-2.137,5.912a.527.527,0,0,0,.213.741,36.525,36.525,0,0,0,13.937,3.864.94.94,0,0,0,.945-.7,183.3,183.3,0,0,1,10.553-29.879c-6.261-10-22.88-7.825-22.88-7.825Z" transform="translate(-200.556 -277.381)" fill="#b3009d"/>
      <path id="Trazado_124868" data-name="Trazado 124868" d="M235.088,456.551A26.6,26.6,0,0,0,240,468.257l1.119-.912a34.566,34.566,0,0,1-.557-11.189,13.4,13.4,0,0,0-5.474.394Z" transform="translate(-178.729 -346.694)" fill="#ff928e"/>
      <path id="Trazado_124869" data-name="Trazado 124869" d="M245.912,375.212l-1.731-9.542s-11.57,8.845-9.725,22.194a13.4,13.4,0,0,1,5.474-.394c.529-4.284,2.109-8.936,5.982-12.259Z" transform="translate(-178.097 -278.009)" fill="#b3009d"/>
      <path id="Trazado_124870" data-name="Trazado 124870" d="M356.936,398.317l-4.465,9.618c.722,5.807,3.841,8.317,7.2,9.281a20.382,20.382,0,0,1,1.5-6.264c-4.3-4.438-4.238-12.636-4.238-12.636Z" transform="translate(-267.972 -302.829)" fill="#b3009d"/>
      <path id="Trazado_124871" data-name="Trazado 124871" d="M384.02,451.025a20.412,20.412,0,0,0-1.5,6.264c8.974,3.481,11.348-3.271,11.348-3.271l-1.659-.293A9.4,9.4,0,0,1,384.02,451.025Z" transform="translate(-290.818 -342.902)" fill="#ff928e"/>
      <path id="Trazado_124872" data-name="Trazado 124872" d="M327.253,342.006l-2.156,7.926a1.542,1.542,0,0,1-2.062,1.026,31.067,31.067,0,0,1-3.107-1.419,2.078,2.078,0,0,1-.733-2.987l4.483-6.684,3.576,2.137Z" transform="translate(-242.404 -258.393)" fill="#ffa29e"/>
      <path id="Trazado_124873" data-name="Trazado 124873" d="M262.967,441.386l-55.249,20.108a4.231,4.231,0,0,0-2.4,5.726l.168.369a3.932,3.932,0,0,0,5.23,1.942l53.646-24.817-1.391-3.328Z" transform="translate(-155.804 -335.574)" fill="#3c0061"/>
      <path id="Trazado_124874" data-name="Trazado 124874" d="M466.454,332.773a26.786,26.786,0,1,0-27.274-26.781A27.031,27.031,0,0,0,466.454,332.773Z" transform="translate(-333.895 -212.276)" fill="#fff" opacity="0.21"/>
      <path id="Trazado_124875" data-name="Trazado 124875" d="M456.7,266.619c-16.761,0-30.348,13.342-30.348,29.8s13.587,29.8,30.348,29.8,30.348-13.342,30.348-29.8S473.465,266.619,456.7,266.619Zm0,55.223a25.427,25.427,0,1,1,25.89-25.423A25.66,25.66,0,0,1,456.7,321.842Z" transform="translate(-324.145 -202.703)" fill="#3c0061"/>
      <path id="Trazado_124876" data-name="Trazado 124876" d="M435.183,306.269a.064.064,0,0,1-.063-.056c-.089-.7-.152-1.415-.188-2.126a.063.063,0,0,1,.126-.006c.035.707.1,1.419.186,2.117a.064.064,0,0,1-.054.071h-.006Zm.208-8.332h-.012a.063.063,0,0,1-.051-.074,27.4,27.4,0,0,1,1.629-5.575,27.907,27.907,0,0,1,10.251-12.515,28.78,28.78,0,0,1,31.224-.522.064.064,0,1,1-.067.108,28.488,28.488,0,0,0-15.143-4.327,28.1,28.1,0,0,0-26.149,17.305,27.157,27.157,0,0,0-1.621,5.549A.063.063,0,0,1,435.391,297.937Z" transform="translate(-330.665 -209.002)" fill="#6bf"/>
      <path id="Trazado_124877" data-name="Trazado 124877" d="M255.074,501.271l5.223-.426,2.263,2.085s-.535.739-2.208.315a24.025,24.025,0,0,0-3.965-.53s-2.31,1.041-2.337-.907l1.026-.538Z" transform="translate(-193.145 -380.779)" fill="#ff928e"/>
      <path id="Trazado_124878" data-name="Trazado 124878" d="M425.372,456.127c.452.353,2-.384,2.946-.893a1.089,1.089,0,0,0,.526-1.287c-.228-.719-.607-1.646-1.075-1.763-.776-.194-4.259,2.49-2.4,3.944Z" transform="translate(-322.986 -343.776)" fill="#ff928e"/>
      <path id="Trazado_124879" data-name="Trazado 124879" d="M212.762,528.151a.038.038,0,0,1-.02,0c-1.673-.578-2.55-1.532-2.606-2.833a3.145,3.145,0,0,1,2.054-3.03l6.633-2.587a.063.063,0,0,1,.047.118l-6.633,2.587a3.02,3.02,0,0,0-1.973,2.907c.053,1.244.9,2.159,2.521,2.719a.064.064,0,0,1-.02.124Z" transform="translate(-159.756 -395.108)" fill="#6bf"/>
      <path id="Trazado_124880" data-name="Trazado 124880" d="M254.8,515.435a.064.064,0,0,1-.024-.123l.86-.335a.063.063,0,0,1,.047.118l-.86.335a.075.075,0,0,1-.023,0Z" transform="translate(-193.666 -391.52)" fill="#6bf"/>
      <path id="Trazado_124881" data-name="Trazado 124881" d="M333.177,316.318s1.784,4.1,1.9,6.251.583,3.549-1.9,3.981a5.29,5.29,0,0,1-5.72-2.95s-1.779-3.3-1.38-4.656,7.1-2.628,7.1-2.628Z" transform="translate(-247.861 -240.487)" fill="#ffa5a2"/>
      <path id="Trazado_124882" data-name="Trazado 124882" d="M318.148,307.868h.315s-1.3-2.658-.157-3.125,5.649-1.388,6.623-2.987a2.976,2.976,0,0,0-1.15-4.094.168.168,0,0,0-.213.079l-.1.2a.169.169,0,0,1-.312-.032.169.169,0,0,0-.3-.047c-.3.478-1.1,1.257-3.268,1.656-3.07.567-5.1,1.809-5.149,3.93a.169.169,0,0,1-.261.138c-.227-.138-.59-.2-1.074.2-.843.709-.5,2.548,1.349,4.06a.169.169,0,0,1-.007.271c-.335.218-.834.737.459,1.428a3.444,3.444,0,0,0,2.4.554.169.169,0,0,0,.128-.175l-.117-1.879a.168.168,0,0,1,.169-.179h.672Z" transform="translate(-237.703 -226.295)" fill="#b3009d"/>
      <path id="Trazado_124883" data-name="Trazado 124883" d="M328.773,335.528s-.681-2.619-1.855-1.885.609,2.935,1.553,3.032Z" transform="translate(-248.251 -253.561)" fill="#fff"/>
      <path id="Trazado_124884" data-name="Trazado 124884" d="M533.955,310.218c0,2.918-2.154,5.28-5.7,5.28a5.2,5.2,0,0,1-5.489-5.28,5.283,5.283,0,0,1,5.627-5.281,5.222,5.222,0,0,1,5.557,5.281Zm-12.778,33.261,1.689-21.516a2.492,2.492,0,0,1,2.485-2.3h5.765a2.492,2.492,0,0,1,2.492,2.492v21.516a2.492,2.492,0,0,1-2.492,2.492h-7.455a2.492,2.492,0,0,1-2.484-2.686Z" transform="translate(-396.229 -231.835)" fill="#b3009d"/>
      <path id="Trazado_124885" data-name="Trazado 124885" d="M913.483,119.275a2.846,2.846,0,1,0-3.424,2.116A2.846,2.846,0,0,0,913.483,119.275Z" transform="translate(-690.223 -88.02)" fill="#3d0063"/>
      <path id="Trazado_124886" data-name="Trazado 124886" d="M981.645,127.517a.575.575,0,0,1-.139-.017c-8.213-2.048-17.574-2.7-28.621-1.976a.571.571,0,0,1-.073-1.139c11.166-.727,20.642-.071,28.97,2.008a.571.571,0,0,1-.137,1.125Z" transform="translate(-723.989 -94.35)" fill="#3d0063"/>
      <path id="Trazado_124887" data-name="Trazado 124887" d="M980.487,155.2a.573.573,0,0,1-.185-.03c-11.083-3.774-27.218-1.751-27.38-1.73a.571.571,0,1,1-.146-1.132c.165-.022,16.559-2.079,27.9,1.782a.571.571,0,0,1-.185,1.111Z" transform="translate(-723.989 -115.368)" fill="#3d0063"/>
      <path id="Trazado_124888" data-name="Trazado 124888" d="M980.487,181.1a.573.573,0,0,1-.185-.03c-11.087-3.775-27.218-1.751-27.38-1.73a.571.571,0,1,1-.146-1.132c.165-.022,16.559-2.079,27.9,1.782a.571.571,0,0,1-.185,1.111Z" transform="translate(-723.989 -135.056)" fill="#3d0063"/>
      <path id="Trazado_124889" data-name="Trazado 124889" d="M899.817,494.541l-3.507,42.573c-.218,2.658-2.038,4.712-4.258,4.807L838.782,544.2c-2.216.1-4.149-1.792-4.529-4.419-1.375-9.5-4.151-31.678-2.526-46.14a4.952,4.952,0,0,1,3.91-4.614c21.318-2.86,41.6-3.343,60.357-.3,2.369.384,4.059,2.956,3.824,5.816Z" transform="translate(-631.96 -369.987)" fill="#3c0061"/>
      <path id="Trazado_124890" data-name="Trazado 124890" d="M902.9,505.716l-3.229,39.215c-.2,2.448-1.877,4.34-3.922,4.428l-49.072,2.1c-2.042.088-3.821-1.65-4.171-4.071-1.266-8.755-3.824-29.181-2.327-42.5a4.56,4.56,0,0,1,3.6-4.25c19.638-2.634,38.323-3.08,55.6-.275,2.182.354,3.737,2.723,3.521,5.358Z" transform="translate(-638.415 -378.954)" fill="#b3ddff"/>
      <path id="Trazado_124891" data-name="Trazado 124891" d="M931.254,619.142a.4.4,0,0,1-.358-.224l-.708-1.455a7.879,7.879,0,0,1-2.2-.615l-1.359.879a.4.4,0,0,1-.462-.02l-1.659-1.3a.4.4,0,0,1-.13-.443l.529-1.531a7.861,7.861,0,0,1-1.122-1.99l-1.582-.34a.4.4,0,0,1-.312-.341l-.254-2.093a.4.4,0,0,1,.221-.406l1.455-.708a7.887,7.887,0,0,1,.615-2.2L923.048,605a.4.4,0,0,1,.022-.462l1.3-1.659a.4.4,0,0,1,.444-.131l1.531.529a7.868,7.868,0,0,1,1.99-1.122l.34-1.581a.4.4,0,0,1,.341-.312l2.093-.254a.4.4,0,0,1,.406.221l.708,1.455a7.9,7.9,0,0,1,2.2.615l1.36-.879a.4.4,0,0,1,.462.021l1.659,1.3a.4.4,0,0,1,.131.443l-.529,1.531a7.86,7.86,0,0,1,1.122,1.99l1.582.34a.4.4,0,0,1,.311.341l.254,2.093a.4.4,0,0,1-.221.406l-1.454.708a7.886,7.886,0,0,1-.615,2.2l.879,1.359a.4.4,0,0,1-.022.462l-1.3,1.659a.4.4,0,0,1-.444.131l-1.531-.529a7.863,7.863,0,0,1-1.99,1.122l-.34,1.581a.4.4,0,0,1-.341.312l-2.093.254A.328.328,0,0,1,931.254,619.142Zm-3.307-2.871.127.058a7.43,7.43,0,0,0,2.309.646l.14.015.8,1.636,1.938-.235.382-1.778.132-.048a7.4,7.4,0,0,0,2.089-1.178l.109-.088,1.72.595,1.2-1.537-.988-1.528.058-.127a7.437,7.437,0,0,0,.646-2.31l.015-.14,1.635-.8-.234-1.938-1.778-.382-.048-.132a7.406,7.406,0,0,0-1.178-2.089l-.088-.109.595-1.72-1.537-1.2-1.528.988-.127-.058a7.429,7.429,0,0,0-2.309-.646l-.14-.015-.8-1.636-1.938.235-.382,1.778-.132.048a7.4,7.4,0,0,0-2.089,1.178l-.109.087-1.72-.595-1.2,1.537.988,1.528-.058.127a7.431,7.431,0,0,0-.646,2.31l-.015.14-1.635.8.235,1.938,1.778.382.048.132a7.414,7.414,0,0,0,1.178,2.089l.088.109-.595,1.72,1.537,1.2Zm3.215-1.384a5.337,5.337,0,1,1,5.324-4.846.253.253,0,0,1-.5-.046,4.836,4.836,0,1,0-1.852,3.371.254.254,0,0,1,.312.4,5.338,5.338,0,0,1-2.632,1.082,5.27,5.27,0,0,1-.647.039Z" transform="translate(-700.691 -456.164)" fill="#3d0063"/>
      <path id="Trazado_124892" data-name="Trazado 124892" d="M954.81,635.3a2.13,2.13,0,1,1,.765-.143,2.14,2.14,0,0,1-.766.143Zm0-3.747a1.623,1.623,0,0,0-1.48.963,1.619,1.619,0,1,0,2.136-.823A1.624,1.624,0,0,0,954.81,631.557Z" transform="translate(-724.298 -479.77)" fill="#3d0063"/>
      <path id="Trazado_124893" data-name="Trazado 124893" d="M888.165,594.532a.266.266,0,0,1-.094-.018l-.945-.367a.262.262,0,0,1-.166-.252l.028-.742a3.84,3.84,0,0,1-.756-.722l-.74.062a.257.257,0,0,1-.259-.153l-.41-.928a.262.262,0,0,1,.061-.3l.544-.5a3.838,3.838,0,0,1-.023-1.045l-.567-.479a.261.261,0,0,1-.075-.293l.367-.945a.258.258,0,0,1,.252-.166l.742.028a3.845,3.845,0,0,1,.722-.756l-.062-.739a.259.259,0,0,1,.153-.259l.928-.41a.261.261,0,0,1,.3.061l.5.544a3.845,3.845,0,0,1,1.045-.023l.479-.567a.26.26,0,0,1,.292-.075l.945.367a.262.262,0,0,1,.166.252l-.028.742a3.851,3.851,0,0,1,.756.722l.739-.062a.261.261,0,0,1,.259.155l.408.927a.26.26,0,0,1-.061.3l-.544.5a3.85,3.85,0,0,1,.023,1.045l.567.479a.262.262,0,0,1,.075.293l-.366.945a.262.262,0,0,1-.252.166l-.742-.028a3.847,3.847,0,0,1-.722.756l.062.739a.26.26,0,0,1-.155.259l-.927.41a.261.261,0,0,1-.3-.061l-.5-.544a3.855,3.855,0,0,1-1.045.023l-.479.567a.262.262,0,0,1-.2.092Zm-.822-.708.785.3.558-.659.1.015a3.5,3.5,0,0,0,1.131-.026l.1-.019.587.633.77-.34-.072-.861.084-.064a3.489,3.489,0,0,0,.781-.818l.06-.086.864.033.3-.785-.66-.558.015-.1a3.49,3.49,0,0,0-.026-1.131l-.019-.1.633-.587-.34-.77-.861.072-.063-.084a3.488,3.488,0,0,0-.818-.781l-.086-.06.033-.863-.785-.3-.558.66-.1-.015a3.493,3.493,0,0,0-1.131.025l-.1.019-.587-.634-.77.34.072.861-.084.063a3.5,3.5,0,0,0-.781.818l-.059.086-.864-.033-.3.785.659.558-.015.1a3.5,3.5,0,0,0,.025,1.131l.019.1-.634.587.34.77.861-.072.063.084a3.492,3.492,0,0,0,.818.781l.086.06-.033.864Zm1.915-1.191a2.634,2.634,0,1,1,2.58-3.167.19.19,0,1,1-.372.076,2.254,2.254,0,1,0-.369,1.758.19.19,0,0,1,.311.219,2.637,2.637,0,0,1-2.148,1.114Z" transform="translate(-672.648 -445.118)" fill="#3d0063"/>
      <path id="Trazado_124894" data-name="Trazado 124894" d="M949.257,530.291a.529.529,0,0,1-.1-.009c-12.173-2.133-37.532-.981-37.787-.969a.571.571,0,1,1-.053-1.14c.256-.011,25.739-1.169,38.037.986a.57.57,0,0,1-.1,1.132Z" transform="translate(-692.432 -401.311)" fill="#3d0063"/>
      <path id="Trazado_124895" data-name="Trazado 124895" d="M949.263,557.8a.579.579,0,0,1-.185-.03c-6.677-2.273-37.407-1.651-37.717-1.645a.57.57,0,0,1-.024-1.14c1.272-.027,31.244-.633,38.108,1.7a.571.571,0,0,1-.182,1.111Z" transform="translate(-692.439 -421.873)" fill="#3d0063"/>
      <path id="Trazado_124896" data-name="Trazado 124896" d="M1027.4,591.24h-13.758a.571.571,0,1,1,0-1.141H1027.4a.571.571,0,0,1,0,1.141Z" transform="translate(-770.207 -448.636)" fill="#3d0063"/>
      <path id="Trazado_124897" data-name="Trazado 124897" d="M961.174,224.91l-1.3-.3a1.1,1.1,0,0,1-.774-.663,11.713,11.713,0,0,0-1.287-2.354,1.1,1.1,0,0,1-.141-1.009l.451-1.254a1.321,1.321,0,0,0-.412-1.472L956.4,216.81a1.316,1.316,0,0,0-1.527-.089l-1.129.71a1.1,1.1,0,0,1-1.016.077,11.8,11.8,0,0,0-2.575-.755,1.1,1.1,0,0,1-.813-.614l-.568-1.2a1.317,1.317,0,0,0-1.334-.748l-1.668.181a1.318,1.318,0,0,0-1.143,1.017l-.3,1.3a1.1,1.1,0,0,1-.663.774,11.861,11.861,0,0,0-2.354,1.289,1.1,1.1,0,0,1-1.009.142l-1.254-.452a1.318,1.318,0,0,0-1.473.414l-1.051,1.307a1.317,1.317,0,0,0-.089,1.527l.71,1.129a1.1,1.1,0,0,1,.078,1.017,11.765,11.765,0,0,0-.755,2.575,1.1,1.1,0,0,1-.614.813l-1.2.568a1.317,1.317,0,0,0-.749,1.334l.182,1.668a1.319,1.319,0,0,0,1.017,1.143l1.3.3a1.1,1.1,0,0,1,.774.663,11.857,11.857,0,0,0,1.289,2.354,1.1,1.1,0,0,1,.142,1.01l-.452,1.254a1.318,1.318,0,0,0,.413,1.472l1.307,1.051a1.317,1.317,0,0,0,1.527.089l1.129-.71a1.1,1.1,0,0,1,1.017-.077,11.77,11.77,0,0,0,2.575.754,1.1,1.1,0,0,1,.813.614l.568,1.2a1.317,1.317,0,0,0,1.334.748l1.667-.181a1.322,1.322,0,0,0,1.144-1.017l.295-1.3a1.1,1.1,0,0,1,.664-.774,11.917,11.917,0,0,0,2.354-1.289,1.1,1.1,0,0,1,1.009-.142l1.254.451a1.316,1.316,0,0,0,1.472-.414l1.052-1.307a1.316,1.316,0,0,0,.089-1.527l-.71-1.129a1.108,1.108,0,0,1-.079-1.017,11.757,11.757,0,0,0,.755-2.574,1.1,1.1,0,0,1,.614-.813l1.206-.568a1.318,1.318,0,0,0,.748-1.334l-.182-1.668A1.319,1.319,0,0,0,961.174,224.91Zm-11.011,13.063a9.766,9.766,0,1,1,7.527-11.579A9.767,9.767,0,0,1,950.164,237.973Zm4.2-9.669a6.331,6.331,0,1,1-6.331-6.331A6.331,6.331,0,0,1,954.366,228.3Z" transform="translate(-710.015 -162.835)" fill="#3c0061"/>
      <path id="Trazado_124898" data-name="Trazado 124898" d="M997.265,335.176l-.944-.214a.8.8,0,0,1-.561-.482,8.651,8.651,0,0,0-.935-1.71.8.8,0,0,1-.1-.733l.326-.912a.954.954,0,0,0-.3-1.069l-.949-.764a.959.959,0,0,0-1.11-.065l-.82.515a.8.8,0,0,1-.738.057,8.531,8.531,0,0,0-1.867-.548.8.8,0,0,1-.592-.445l-.412-.875a.958.958,0,0,0-.969-.544l-1.211.132a.956.956,0,0,0-.829.738l-.216.944a.8.8,0,0,1-.479.562,8.527,8.527,0,0,0-1.71.936.8.8,0,0,1-.733.1l-.912-.327a.955.955,0,0,0-1.069.3l-.764.95a.957.957,0,0,0-.064,1.109l.516.819a.8.8,0,0,1,.057.738,8.522,8.522,0,0,0-.548,1.869.8.8,0,0,1-.445.591l-.875.412a.959.959,0,0,0-.544.969l.132,1.211a.957.957,0,0,0,.738.829l.944.214a.8.8,0,0,1,.562.481,8.543,8.543,0,0,0,.936,1.71.8.8,0,0,1,.1.733l-.327.912a.956.956,0,0,0,.3,1.069l.95.764a.957.957,0,0,0,1.109.065l.82-.516a.8.8,0,0,1,.736-.057,8.572,8.572,0,0,0,1.87.548.8.8,0,0,1,.592.445l.412.875a.958.958,0,0,0,.969.544l1.211-.132a.956.956,0,0,0,.83-.738l.213-.944a.806.806,0,0,1,.482-.562,8.575,8.575,0,0,0,1.709-.936.8.8,0,0,1,.734-.1l.911.327a.954.954,0,0,0,1.069-.3l.765-.95a.958.958,0,0,0,.065-1.109l-.518-.819a.8.8,0,0,1-.055-.738,8.545,8.545,0,0,0,.547-1.869.8.8,0,0,1,.446-.591l.875-.412a.959.959,0,0,0,.544-.969L998,336a.957.957,0,0,0-.739-.829Zm-8,9.487a7.091,7.091,0,1,1,5.466-8.408A7.091,7.091,0,0,1,989.268,344.663Zm3.606-7.233a5.076,5.076,0,1,1-5.075-5.077A5.076,5.076,0,0,1,992.873,337.43Z" transform="translate(-743.133 -248.9)" fill="#3c0061"/>
      <path id="Trazado_124899" data-name="Trazado 124899" d="M884.544,328.415l-.81-.969a1.043,1.043,0,0,1-.2-.944,11.181,11.181,0,0,0,.377-2.515,1.043,1.043,0,0,1,.472-.843l1.06-.688a1.252,1.252,0,0,0,.533-1.349l-.384-1.544a1.248,1.248,0,0,0-1.1-.942l-1.259-.111a1.043,1.043,0,0,1-.812-.525,11.143,11.143,0,0,0-1.511-2.047,1.039,1.039,0,0,1-.261-.93l.262-1.235a1.25,1.25,0,0,0-.577-1.33l-1.364-.821a1.248,1.248,0,0,0-1.446.113l-.969.81a1.044,1.044,0,0,1-.944.2,11.162,11.162,0,0,0-2.515-.377,1.043,1.043,0,0,1-.843-.472l-.689-1.06a1.252,1.252,0,0,0-1.349-.533l-1.543.384a1.247,1.247,0,0,0-.942,1.1l-.112,1.26a1.043,1.043,0,0,1-.525.812,11.157,11.157,0,0,0-2.047,1.51,1.038,1.038,0,0,1-.929.261l-1.235-.263a1.25,1.25,0,0,0-1.33.577l-.821,1.363a1.248,1.248,0,0,0,.113,1.446l.811.969a1.043,1.043,0,0,1,.2.944,11.184,11.184,0,0,0-.377,2.515,1.043,1.043,0,0,1-.472.843l-1.06.689a1.252,1.252,0,0,0-.533,1.349l.384,1.543a1.247,1.247,0,0,0,1.1.942l1.259.111a1.044,1.044,0,0,1,.812.525,11.161,11.161,0,0,0,1.51,2.047,1.044,1.044,0,0,1,.262.93l-.262,1.235a1.25,1.25,0,0,0,.577,1.331l1.363.821a1.248,1.248,0,0,0,1.446-.113l.969-.811a1.044,1.044,0,0,1,.944-.2,11.174,11.174,0,0,0,2.515.377,1.043,1.043,0,0,1,.843.472l.689,1.06a1.251,1.251,0,0,0,1.349.533l1.543-.384a1.247,1.247,0,0,0,.942-1.1l.111-1.259a1.044,1.044,0,0,1,.525-.812,11.157,11.157,0,0,0,2.047-1.511,1.04,1.04,0,0,1,.93-.261l1.235.263a1.249,1.249,0,0,0,1.33-.577l.821-1.363a1.247,1.247,0,0,0-.113-1.446Zm-15.8,3.545a9.257,9.257,0,1,1,12.322-4.423A9.257,9.257,0,0,1,868.742,331.96Z" transform="translate(-653.356 -235.89)" fill="#3c0061"/>
      <path id="Trazado_124900" data-name="Trazado 124900" d="M64.995,570.161h-.163a.19.19,0,0,1,0-.38h.38a.19.19,0,0,1,0,.38Zm-1.05-.023h-.009c-.128-.005-.255-.011-.383-.019a.19.19,0,0,1-.179-.2.193.193,0,0,1,.2-.179c.126.008.251.014.378.019a.19.19,0,0,1-.009.38Zm2.156,0a.19.19,0,0,1-.009-.38l.377-.021a.191.191,0,0,1,.023.38c-.127.008-.255.015-.383.02H66.1Zm-3.42-.084h-.018c-.127-.012-.255-.025-.382-.039a.191.191,0,1,1,.042-.379c.126.014.25.027.375.038a.19.19,0,0,1-.018.379Zm4.686-.006a.19.19,0,0,1-.018-.379c.126-.012.25-.025.375-.04a.19.19,0,0,1,.043.378l-.382.041h-.019Zm-5.944-.146a.1.1,0,0,1-.028,0l-.379-.058a.19.19,0,1,1,.061-.375l.373.058a.19.19,0,0,1-.027.378Zm7.2-.013a.19.19,0,0,1-.029-.378q.186-.028.373-.061a.19.19,0,1,1,.063.375c-.125.022-.252.042-.379.061l-.029,0Zm-8.452-.2a.129.129,0,0,1-.038,0c-.125-.025-.25-.052-.375-.079a.191.191,0,1,1,.081-.373l.369.077a.19.19,0,0,1-.038.377Zm9.7-.023a.19.19,0,0,1-.039-.377c.123-.025.247-.052.37-.08a.19.19,0,0,1,.082.372l-.375.081a.2.2,0,0,1-.039,0Zm-10.935-.26a.218.218,0,0,1-.048-.006c-.123-.032-.247-.065-.37-.1a.19.19,0,1,1,.1-.366l.364.1a.192.192,0,0,1,.137.232.189.189,0,0,1-.184.143Zm12.173-.025a.19.19,0,0,1-.046-.374c.123-.03.245-.062.367-.1a.19.19,0,1,1,.1.368c-.123.033-.247.065-.372.1a.21.21,0,0,1-.047.006Zm-13.389-.325a.175.175,0,0,1-.057-.009c-.122-.039-.243-.079-.364-.119a.19.19,0,1,1,.122-.36c.119.041.238.079.358.117a.19.19,0,0,1-.058.372Zm14.614-.01a.19.19,0,0,1-.055-.373c.122-.035.242-.072.363-.109a.19.19,0,1,1,.111.363l-.367.11a.193.193,0,0,1-.053.008Zm1.21-.38a.19.19,0,0,1-.06-.37l.358-.122a.19.19,0,1,1,.126.359l-.362.123a.208.208,0,0,1-.061.01Zm-17.019-.028a.187.187,0,0,1-.068-.013c-.119-.046-.238-.093-.356-.141a.19.19,0,1,1,.142-.352l.35.138a.19.19,0,0,1-.068.368Zm18.213-.4a.19.19,0,0,1-.066-.368l.354-.135a.19.19,0,1,1,.137.355l-.358.136a.2.2,0,0,1-.067.013Zm-19.381-.093a.188.188,0,0,1-.079-.017c-.117-.053-.232-.106-.347-.161a.19.19,0,0,1,.164-.344c.113.053.227.107.341.159a.19.19,0,0,1-.079.364Zm20.561-.373a.191.191,0,0,1-.073-.367c.117-.048.233-.1.349-.146a.191.191,0,1,1,.148.352c-.117.049-.234.1-.352.147a.182.182,0,0,1-.072.014Zm-21.7-.188a.192.192,0,0,1-.09-.023c-.113-.059-.224-.122-.336-.184a.19.19,0,0,1,.185-.332c.109.061.219.121.33.18a.191.191,0,0,1,.079.258.189.189,0,0,1-.167.1Zm22.86-.315A.19.19,0,0,1,77,566.9l.345-.156a.19.19,0,1,1,.158.346c-.115.053-.232.105-.347.157A.191.191,0,0,1,77.084,567.267Zm-23.957-.318a.185.185,0,0,1-.1-.029q-.164-.1-.323-.205a.191.191,0,1,1,.208-.32c.105.068.211.136.317.2a.191.191,0,0,1,.061.263.188.188,0,0,1-.161.09Zm25.105-.217a.19.19,0,0,1-.082-.362c.114-.054.227-.11.34-.166a.19.19,0,1,1,.169.341l-.342.167a.191.191,0,0,1-.082.019Zm-26.155-.49a.184.184,0,0,1-.112-.037q-.156-.112-.308-.228a.19.19,0,1,1,.23-.3c.1.076.2.15.3.224a.191.191,0,0,1-.112.345Zm27.289-.076a.194.194,0,0,1-.17-.1.19.19,0,0,1,.082-.256c.112-.058.225-.115.336-.175a.19.19,0,1,1,.178.336l-.339.176A.192.192,0,0,1,79.365,566.167Zm1.12-.594a.19.19,0,0,1-.091-.356l.332-.183a.19.19,0,0,1,.184.333l-.333.184a.2.2,0,0,1-.091.023Zm-29.4-.112a.19.19,0,0,1-.123-.046c-.1-.082-.194-.167-.29-.252a.19.19,0,1,1,.254-.284c.094.082.188.165.283.246a.19.19,0,0,1-.123.335Zm30.51-.506a.19.19,0,0,1-.094-.355l.329-.189a.19.19,0,1,1,.192.328l-.33.19a.2.2,0,0,1-.094.025Zm-31.442-.35a.191.191,0,0,1-.134-.056c-.091-.09-.18-.183-.269-.275a.19.19,0,0,1,.275-.263c.086.09.174.18.263.268a.189.189,0,0,1,0,.269.192.192,0,0,1-.134.056Zm32.536-.291a.19.19,0,0,1-.1-.354l.325-.2a.19.19,0,1,1,.2.326l-.327.2a.2.2,0,0,1-.1.027Zm-33.4-.64a.186.186,0,0,1-.145-.067c-.084-.1-.165-.2-.246-.3a.19.19,0,1,1,.3-.238q.118.146.24.289a.19.19,0,0,1-.145.313Zm34.477-.019a.191.191,0,0,1-.1-.352l.322-.2a.19.19,0,1,1,.2.322l-.323.2A.2.2,0,0,1,83.766,563.655Zm1.072-.677a.19.19,0,0,1-.1-.35l.318-.205a.19.19,0,1,1,.207.318l-.32.207A.189.189,0,0,1,84.838,562.978Zm-36.326-.3a.189.189,0,0,1-.155-.08c-.075-.105-.147-.211-.219-.318a.19.19,0,0,1,.316-.212c.07.1.141.208.213.309a.191.191,0,0,1-.156.3Zm37.389-.387a.19.19,0,0,1-.1-.349l.317-.209a.19.19,0,0,1,.211.317l-.317.211a.186.186,0,0,1-.105.032Zm-38.077-.681a.191.191,0,0,1-.165-.1c-.065-.111-.128-.223-.19-.337a.191.191,0,0,1,.335-.183c.06.111.122.22.185.329a.19.19,0,0,1-.068.26.188.188,0,0,1-.1.025Zm39.131-.023a.188.188,0,0,1-.157-.084.191.191,0,0,1,.051-.264l.315-.213a.19.19,0,1,1,.213.315l-.316.213a.2.2,0,0,1-.106.033ZM88,560.869a.19.19,0,0,1-.108-.347l.313-.216a.19.19,0,1,1,.217.313l-.313.216a.189.189,0,0,1-.108.033Zm-40.767-.388a.189.189,0,0,1-.172-.111c-.055-.117-.107-.233-.159-.351a.19.19,0,0,1,.349-.151c.049.115.1.23.153.343a.189.189,0,0,1-.093.252.181.181,0,0,1-.08.018Zm41.81-.334a.19.19,0,0,1-.109-.346l.312-.218a.19.19,0,0,1,.218.312l-.312.218A.19.19,0,0,1,89.047,560.148Zm1.04-.728a.19.19,0,0,1-.109-.346l.312-.219a.19.19,0,0,1,.219.311l-.312.219a.19.19,0,0,1-.109.034Zm-43.332-.111a.189.189,0,0,1-.179-.125c-.043-.121-.085-.242-.126-.364a.19.19,0,1,1,.361-.118c.039.119.08.237.122.355a.191.191,0,0,1-.115.243.193.193,0,0,1-.065.011Zm44.37-.621a.191.191,0,0,1-.111-.346l.311-.219a.19.19,0,0,1,.219.311l-.311.219a.184.184,0,0,1-.109.034Zm-44.745-.59a.191.191,0,0,1-.184-.142c-.033-.124-.063-.249-.093-.374a.19.19,0,0,1,.37-.086c.028.122.058.244.09.364a.191.191,0,0,1-.136.232A.224.224,0,0,1,46.379,558.1Zm45.781-.143a.193.193,0,0,1-.156-.08.19.19,0,0,1,.046-.265l.311-.219a.19.19,0,0,1,.219.311l-.311.219a.183.183,0,0,1-.109.036Zm1.037-.732a.191.191,0,0,1-.11-.346l.312-.219a.19.19,0,0,1,.218.312l-.311.218a.191.191,0,0,1-.109.034Zm-47.086-.364a.191.191,0,0,1-.188-.159q-.032-.19-.061-.38a.19.19,0,0,1,.377-.055c.018.124.038.247.058.372a.19.19,0,0,1-.155.219l-.033,0Zm48.124-.364a.19.19,0,0,1-.109-.346l.312-.218a.19.19,0,1,1,.218.312l-.312.218A.191.191,0,0,1,94.235,556.5Zm1.041-.724a.191.191,0,0,1-.108-.347l.313-.217a.191.191,0,1,1,.217.313l-.312.217a.19.19,0,0,1-.108.034ZM45.949,555.6a.19.19,0,0,1-.189-.174c-.011-.128-.02-.256-.029-.384a.19.19,0,0,1,.379-.024c.008.126.018.25.028.374a.191.191,0,0,1-.172.207h-.016Zm50.371-.552a.19.19,0,0,1-.108-.347l.313-.216a.191.191,0,0,1,.216.314l-.313.216A.189.189,0,0,1,96.32,555.05Zm-50.432-.715a.19.19,0,0,1-.19-.189v-.162c0-.075,0-.148,0-.223a.2.2,0,0,1,.193-.188.19.19,0,0,1,.188.193c0,.072,0,.145,0,.218v.158a.19.19,0,0,1-.189.192h0Zm51.478,0a.191.191,0,0,1-.108-.347l.315-.214a.19.19,0,1,1,.213.314l-.315.214a.185.185,0,0,1-.106.033Zm1.049-.712a.189.189,0,0,1-.157-.084.191.191,0,0,1,.051-.264l.316-.213a.19.19,0,0,1,.212.316l-.316.213a.2.2,0,0,1-.106.033Zm-52.492-.554h-.013a.19.19,0,0,1-.178-.2c.009-.128.018-.256.029-.383a.19.19,0,1,1,.379.032c-.01.126-.02.25-.028.375A.19.19,0,0,1,45.924,553.068Zm53.544-.154a.191.191,0,0,1-.106-.349l.317-.212a.19.19,0,1,1,.21.316l-.316.212a.192.192,0,0,1-.105.032Zm1.055-.7a.19.19,0,0,1-.105-.349l.317-.211a.19.19,0,0,1,.21.317l-.317.211A.187.187,0,0,1,100.523,552.212Zm-54.473-.406a.14.14,0,0,1-.025,0,.189.189,0,0,1-.162-.214c.018-.127.036-.254.056-.38a.19.19,0,0,1,.375.058c-.019.124-.038.249-.055.373a.191.191,0,0,1-.188.165Zm55.532-.293a.188.188,0,0,1-.158-.086.19.19,0,0,1,.054-.264l.318-.209a.19.19,0,1,1,.209.318l-.318.208a.184.184,0,0,1-.1.032Zm1.062-.694a.191.191,0,0,1-.1-.35l.32-.208a.192.192,0,0,1,.264.056.19.19,0,0,1-.056.263l-.318.207a.193.193,0,0,1-.1.03Zm-56.38-.264a.187.187,0,0,1-.038,0,.191.191,0,0,1-.148-.224c.025-.126.052-.251.081-.375a.19.19,0,1,1,.37.084c-.028.123-.053.246-.079.369a.191.191,0,0,1-.186.152Zm57.445-.426a.19.19,0,0,1-.1-.35l.32-.206a.19.19,0,0,1,.205.32l-.32.206A.192.192,0,0,1,103.709,550.13Zm1.068-.685a.19.19,0,0,1-.1-.35l.321-.2a.19.19,0,1,1,.2.321l-.321.2a.19.19,0,0,1-.1.03Zm-58.219-.123a.219.219,0,0,1-.049-.007.189.189,0,0,1-.133-.233c.033-.123.068-.247.1-.37a.19.19,0,1,1,.365.106c-.036.121-.07.241-.1.363A.191.191,0,0,1,46.558,549.322Zm59.29-.557a.19.19,0,0,1-.1-.351l.322-.2a.19.19,0,0,1,.2.322l-.322.2A.187.187,0,0,1,105.848,548.765Zm-58.919-.656a.208.208,0,0,1-.061-.01.192.192,0,0,1-.119-.241c.042-.122.084-.242.127-.363a.19.19,0,1,1,.358.129c-.043.118-.084.237-.124.356a.192.192,0,0,1-.18.129Zm59.992-.019a.191.191,0,0,1-.1-.353l.323-.2a.191.191,0,0,1,.2.323l-.322.2a.2.2,0,0,1-.1.029Zm1.077-.67a.191.191,0,0,1-.162-.09.188.188,0,0,1,.062-.261l.323-.2a.19.19,0,1,1,.2.323l-.323.2a.193.193,0,0,1-.1.028Zm-60.626-.5a.209.209,0,0,1-.072-.014.19.19,0,0,1-.1-.249q.072-.177.148-.354a.19.19,0,1,1,.35.15c-.049.116-.1.231-.146.348a.191.191,0,0,1-.176.118Zm61.705-.165a.19.19,0,0,1-.1-.352l.325-.2a.19.19,0,0,1,.2.325l-.325.2A.186.186,0,0,1,109.076,546.756Zm1.083-.659a.193.193,0,0,1-.164-.091.19.19,0,0,1,.065-.261l.326-.2a.19.19,0,1,1,.2.326l-.326.2a.184.184,0,0,1-.1.028Zm-62.276-.335a.191.191,0,0,1-.171-.273c.056-.115.112-.231.169-.345a.19.19,0,0,1,.34.17c-.056.113-.112.226-.166.339a.189.189,0,0,1-.171.108Zm63.363-.32a.19.19,0,0,1-.1-.354l.327-.2a.191.191,0,0,1,.2.327l-.326.2a.2.2,0,0,1-.1.027Zm1.089-.649a.188.188,0,0,1-.163-.094.191.191,0,0,1,.067-.261l.328-.194a.19.19,0,1,1,.193.327l-.327.194a.19.19,0,0,1-.1.026Zm-63.872-.159a.186.186,0,0,1-.093-.024.191.191,0,0,1-.075-.259c.062-.112.124-.223.189-.334a.19.19,0,1,1,.33.19c-.062.109-.124.218-.185.328A.191.191,0,0,1,48.464,544.634Zm64.965-.484a.193.193,0,0,1-.165-.094.189.189,0,0,1,.068-.26l.329-.192a.19.19,0,1,1,.191.328l-.328.192a.19.19,0,0,1-.1.027Zm-64.32-.608a.189.189,0,0,1-.1-.029.191.191,0,0,1-.06-.262l.205-.323a.19.19,0,0,1,.318.207c-.068.105-.136.212-.2.318a.191.191,0,0,1-.161.089Zm65.416-.03a.19.19,0,0,1-.095-.355l.33-.19a.19.19,0,1,1,.19.33l-.33.19A.187.187,0,0,1,114.525,543.512Zm1.1-.631a.188.188,0,0,1-.165-.1.191.191,0,0,1,.071-.26l.331-.189a.191.191,0,0,1,.189.331l-.33.189a.192.192,0,0,1-.094.025Zm-65.816-.394a.19.19,0,0,1-.156-.3c.074-.1.147-.208.222-.312a.19.19,0,1,1,.308.222c-.074.1-.146.205-.218.308A.189.189,0,0,1,49.809,542.486Zm66.919-.232a.19.19,0,0,1-.094-.355l.332-.186a.19.19,0,0,1,.187.331l-.331.187A.191.191,0,0,1,116.728,542.254Zm1.106-.62a.19.19,0,0,1-.093-.356l.332-.185a.19.19,0,0,1,.185.333l-.332.185A.186.186,0,0,1,117.834,541.634Zm-67.274-.168a.193.193,0,0,1-.117-.039.189.189,0,0,1-.034-.266l.236-.3a.19.19,0,1,1,.3.237c-.079.1-.156.2-.233.3a.192.192,0,0,1-.151.073Zm68.384-.445a.191.191,0,0,1-.093-.358l.333-.184a.19.19,0,0,1,.184.334l-.333.183a.186.186,0,0,1-.091.024Zm-67.588-.54a.2.2,0,0,1-.123-.044.19.19,0,0,1-.023-.268c.082-.1.165-.194.249-.292a.191.191,0,0,1,.288.25l-.246.287a.191.191,0,0,1-.146.067Zm68.7-.067a.19.19,0,0,1-.091-.357l.335-.181a.19.19,0,1,1,.18.335l-.335.182a.2.2,0,0,1-.09.023Zm1.116-.6a.19.19,0,0,1-.09-.358l.336-.18a.19.19,0,1,1,.179.336l-.335.179A.2.2,0,0,1,121.172,539.81Zm-68.978-.282a.189.189,0,0,1-.14-.318c.086-.094.172-.188.26-.28a.19.19,0,0,1,.278.26c-.086.093-.172.184-.257.278a.192.192,0,0,1-.141.062Zm70.1-.315a.191.191,0,0,1-.09-.359l.337-.177a.191.191,0,0,1,.178.337l-.336.177A.183.183,0,0,1,122.292,539.214Zm1.122-.59a.19.19,0,0,1-.088-.359l.338-.176a.19.19,0,0,1,.175.337l-.337.175a.182.182,0,0,1-.088.022Zm-70.346-.014a.188.188,0,0,1-.133-.054.19.19,0,0,1,0-.269q.135-.137.27-.27a.19.19,0,0,1,.268.27c-.09.089-.179.178-.268.268a.188.188,0,0,1-.136.057Zm71.472-.569a.19.19,0,0,1-.086-.359l.338-.174a.19.19,0,1,1,.174.339l-.339.174a.2.2,0,0,1-.088.022Zm-70.564-.316a.19.19,0,0,1-.131-.329c.093-.088.186-.175.28-.261a.19.19,0,0,1,.259.279c-.093.086-.185.171-.276.259a.193.193,0,0,1-.131.052Zm71.693-.261a.19.19,0,0,1-.086-.36l.34-.172a.19.19,0,0,1,.171.339l-.339.171a.19.19,0,0,1-.086.02Zm1.132-.571a.19.19,0,0,1-.085-.36l.341-.17a.19.19,0,0,1,.17.34l-.34.17a.185.185,0,0,1-.085.02Zm-71.889-.024a.191.191,0,0,1-.127-.334l.288-.253a.191.191,0,0,1,.25.288l-.285.25A.192.192,0,0,1,54.912,536.869Zm73.026-.539a.191.191,0,0,1-.085-.362l.342-.167a.191.191,0,1,1,.168.342l-.341.168A.2.2,0,0,1,127.938,536.33Zm-72.063-.287a.186.186,0,0,1-.146-.068.191.191,0,0,1,.024-.268l.294-.244a.19.19,0,1,1,.241.294L56,536A.192.192,0,0,1,55.875,536.043Zm73.2-.27a.19.19,0,0,1-.082-.362l.343-.166a.19.19,0,1,1,.165.342l-.342.166A.191.191,0,0,1,129.077,535.773Zm-72.218-.529a.193.193,0,0,1-.15-.072.191.191,0,0,1,.032-.268l.3-.236a.19.19,0,1,1,.233.3c-.1.077-.2.156-.3.233a.188.188,0,0,1-.118.041Zm73.361-.022a.188.188,0,0,1-.171-.108.19.19,0,0,1,.09-.254l.344-.164a.19.19,0,0,1,.163.344l-.344.164a.194.194,0,0,1-.082.019Zm1.146-.543a.19.19,0,0,1-.081-.363l.345-.161a.19.19,0,0,1,.161.344l-.344.161a.183.183,0,0,1-.081.018Zm-73.5-.21a.19.19,0,0,1-.114-.342l.306-.229a.19.19,0,0,1,.227.306l-.3.227A.193.193,0,0,1,57.865,534.469Zm74.652-.325a.188.188,0,0,1-.172-.11.19.19,0,0,1,.093-.252l.346-.16a.19.19,0,0,1,.159.346l-.345.159A.2.2,0,0,1,132.516,534.145Zm-73.629-.426a.19.19,0,0,1-.112-.344c.1-.075.207-.148.311-.222a.19.19,0,0,1,.221.31l-.308.221A.187.187,0,0,1,58.887,533.718Zm74.782-.1a.191.191,0,0,1-.08-.364l.348-.157a.19.19,0,1,1,.157.346l-.346.157A.193.193,0,0,1,133.669,533.616Zm1.157-.521a.19.19,0,0,1-.077-.364l.347-.155a.19.19,0,1,1,.155.347l-.348.155A.191.191,0,0,1,134.826,533.094Zm-74.9-.108a.193.193,0,0,1-.157-.082.191.191,0,0,1,.048-.265c.105-.072.209-.145.315-.216a.19.19,0,0,1,.214.313l-.312.216A.192.192,0,0,1,59.923,532.987Zm76.063-.406a.191.191,0,0,1-.077-.365l.349-.152a.192.192,0,0,1,.251.1.19.19,0,0,1-.1.25l-.349.152a.184.184,0,0,1-.076.017Zm1.163-.506a.191.191,0,0,1-.076-.365l.35-.151a.19.19,0,1,1,.15.35l-.349.15a.192.192,0,0,1-.075.015Zm1.167-.5a.191.191,0,0,1-.073-.367l.351-.148a.19.19,0,1,1,.147.35l-.35.148a.192.192,0,0,1-.073.015Zm1.169-.491a.192.192,0,0,1-.176-.117.19.19,0,0,1,.1-.249l.351-.146a.19.19,0,0,1,.146.351l-.351.146a.184.184,0,0,1-.074.015Zm1.173-.483a.19.19,0,0,1-.072-.367l.353-.143a.19.19,0,0,1,.142.353l-.352.143a.185.185,0,0,1-.072.014Zm1.176-.474a.19.19,0,0,1-.07-.367l.354-.141a.19.19,0,1,1,.141.354l-.353.141a.2.2,0,0,1-.071.014Zm1.179-.467a.19.19,0,0,1-.07-.367l.355-.138a.19.19,0,1,1,.138.354l-.354.138A.193.193,0,0,1,143.014,529.661Zm1.182-.459a.19.19,0,0,1-.069-.368l.355-.136a.191.191,0,0,1,.136.356l-.355.136a.186.186,0,0,1-.069.013Zm1.184-.45a.19.19,0,0,1-.066-.368l.356-.133a.19.19,0,0,1,.133.356l-.356.133a.176.176,0,0,1-.067.013Zm1.188-.441a.193.193,0,0,1-.179-.124.19.19,0,0,1,.113-.245l.358-.131a.19.19,0,1,1,.13.356l-.356.131a.2.2,0,0,1-.066.011Zm1.192-.434a.19.19,0,0,1-.065-.369l.359-.128a.191.191,0,1,1,.128.359l-.357.128a.192.192,0,0,1-.065.011Zm1.195-.425a.19.19,0,0,1-.063-.369l.359-.126a.19.19,0,0,1,.126.359l-.359.126a.178.178,0,0,1-.063.012Zm1.2-.416a.19.19,0,0,1-.062-.37l.36-.123a.19.19,0,0,1,.122.36l-.359.123a.178.178,0,0,1-.062.01Zm1.2-.407a.19.19,0,0,1-.06-.37l.362-.12a.19.19,0,1,1,.12.361l-.36.121a.206.206,0,0,1-.061.01Zm1.2-.4a.192.192,0,0,1-.181-.131.189.189,0,0,1,.122-.24l.363-.118a.19.19,0,0,1,.118.362l-.362.118A.192.192,0,0,1,152.558,526.231Zm1.208-.389a.19.19,0,0,1-.057-.372l.363-.116a.19.19,0,0,1,.114.363l-.363.114a.174.174,0,0,1-.057.009Zm1.21-.379a.191.191,0,0,1-.056-.373l.364-.113a.19.19,0,1,1,.112.363l-.363.111a.174.174,0,0,1-.056.009Zm1.212-.37a.191.191,0,0,1-.056-.373l.365-.109a.191.191,0,0,1,.109.365l-.364.109A.194.194,0,0,1,156.188,525.092Zm1.215-.362a.19.19,0,0,1-.053-.373l.365-.106a.19.19,0,1,1,.106.365l-.365.107A.2.2,0,0,1,157.4,524.73Zm1.219-.351a.19.19,0,0,1-.052-.373l.366-.1a.19.19,0,1,1,.1.367l-.365.1a.184.184,0,0,1-.052.008Zm1.221-.342a.192.192,0,0,1-.184-.139.19.19,0,0,1,.133-.234l.368-.1a.19.19,0,0,1,.1.367l-.367.1a.175.175,0,0,1-.051.006Zm1.224-.332a.19.19,0,0,1-.049-.374l.368-.1a.19.19,0,0,1,.1.368l-.368.1a.217.217,0,0,1-.049.006Zm1.226-.322a.19.19,0,0,1-.047-.374l.369-.1a.191.191,0,0,1,.1.369l-.368.1a.227.227,0,0,1-.048.006Zm1.229-.313a.189.189,0,0,1-.184-.145.191.191,0,0,1,.138-.231l.369-.093a.19.19,0,0,1,.093.369l-.369.091a.2.2,0,0,1-.047.006Zm1.231-.3a.19.19,0,0,1-.044-.375l.37-.089a.19.19,0,1,1,.089.37l-.369.089a.183.183,0,0,1-.044.005Zm1.234-.293a.19.19,0,0,1-.043-.375l.372-.086a.19.19,0,0,1,.086.37l-.37.086a.168.168,0,0,1-.043.005Zm1.237-.283a.19.19,0,0,1-.042-.375l.372-.084a.19.19,0,1,1,.082.372l-.37.083A.255.255,0,0,1,167.224,522.19Zm1.239-.273a.19.19,0,0,1-.039-.375l.373-.08a.19.19,0,1,1,.08.372l-.372.08a.212.212,0,0,1-.041,0Zm1.24-.263a.19.19,0,0,1-.039-.377l.373-.077a.19.19,0,0,1,.076.373l-.373.076a.2.2,0,0,1-.039,0Zm1.243-.252a.19.19,0,0,1-.037-.377l.374-.074a.19.19,0,0,1,.073.373l-.373.074a.2.2,0,0,1-.037,0Zm1.245-.242a.19.19,0,0,1-.035-.377l.374-.071a.19.19,0,1,1,.07.374l-.374.07a.162.162,0,0,1-.035,0Zm1.247-.231a.19.19,0,0,1-.033-.377l.375-.067a.19.19,0,0,1,.067.374l-.374.067a.162.162,0,0,1-.034,0Zm1.249-.221a.19.19,0,0,1-.033-.378l.375-.065a.19.19,0,1,1,.064.375l-.374.064-.033,0Zm1.25-.209a.19.19,0,0,1-.03-.378l.377-.061a.19.19,0,1,1,.061.375l-.375.061-.03,0Zm1.253-.2a.19.19,0,0,1-.029-.378l.377-.057a.191.191,0,0,1,.057.377l-.375.057-.029,0Zm1.254-.188a.19.19,0,0,1-.027-.378l.377-.055a.19.19,0,1,1,.055.377l-.377.055-.028,0Zm1.257-.176a.191.191,0,0,1-.025-.379l.378-.051a.191.191,0,1,1,.051.378l-.377.051H179.7Zm1.258-.166a.19.19,0,0,1-.024-.379l.378-.048a.19.19,0,1,1,.047.377l-.377.047h-.024Zm1.259-.155a.19.19,0,0,1-.023-.379l.378-.044a.19.19,0,0,1,.043.378l-.378.044h-.02Zm1.261-.143a.19.19,0,0,1-.02-.379l.379-.041a.19.19,0,0,1,.041.378l-.378.041h-.022Zm1.262-.132a.19.19,0,0,1-.019-.379l.379-.037a.191.191,0,0,1,.037.379l-.378.037Zm1.263-.12a.19.19,0,0,1-.017-.379l.379-.034a.19.19,0,0,1,.033.379l-.378.034Zm23.177-.023h-.018l-.378-.034a.19.19,0,0,1,.034-.379l.379.034a.19.19,0,0,1-.018.379Zm-21.914-.085a.191.191,0,0,1-.015-.38l.38-.03a.19.19,0,0,1,.029.379l-.379.03h-.015Zm20.651-.025H207.9l-.379-.03a.19.19,0,1,1,.029-.379l.379.03a.191.191,0,0,1-.015.38Zm-19.386-.071a.19.19,0,0,1-.013-.379l.38-.027a.193.193,0,0,1,.2.176.191.191,0,0,1-.176.2l-.379.027h-.015Zm18.122-.025h-.014l-.379-.026a.19.19,0,0,1,.027-.379l.38.027a.19.19,0,0,1-.013.379Zm-16.856-.058a.19.19,0,0,1-.013-.38l.38-.023a.191.191,0,0,1,.023.381l-.379.023Zm15.59-.025h-.011l-.379-.023a.19.19,0,0,1-.179-.2.188.188,0,0,1,.2-.179l.38.023a.19.19,0,0,1-.012.38Zm-14.324-.048a.19.19,0,0,1-.01-.38l.381-.019a.19.19,0,0,1,.019.379l-.379.019h-.01Zm13.058-.023h-.01l-.379-.019a.19.19,0,0,1-.181-.2.193.193,0,0,1,.2-.181l.38.019a.19.19,0,0,1-.01.379Zm-11.791-.038a.19.19,0,0,1-.009-.38l.38-.015a.187.187,0,0,1,.2.183.19.19,0,0,1-.183.2l-.379.015h-.008Zm10.524-.019h-.007l-.379-.014a.19.19,0,0,1-.183-.2.187.187,0,0,1,.2-.182l.38.015a.19.19,0,0,1-.008.38Zm-9.257-.029a.19.19,0,0,1-.006-.38l.381-.012a.19.19,0,0,1,.011.379l-.379.013Zm7.989-.015h-.006l-.379-.011a.19.19,0,1,1,.01-.38c.127,0,.254.006.38.011a.19.19,0,0,1-.006.379Zm-6.722-.02a.19.19,0,0,1-.005-.379l.38-.009a.194.194,0,0,1,.194.187.19.19,0,0,1-.186.194l-.379.009h0Zm5.454-.011h0l-.38-.006a.191.191,0,0,1-.188-.193.193.193,0,0,1,.193-.187l.38.006a.19.19,0,0,1,0,.381Zm-4.185-.013a.19.19,0,0,1,0-.38l.38-.005h0a.19.19,0,0,1,0,.38l-.38.005Zm2.916-.006-.38,0a.19.19,0,0,1,0-.38l.38,0a.19.19,0,0,1,0,.38Zm-1.647-.005a.19.19,0,0,1,0-.38h.381a.189.189,0,1,1,0,.379H197.4Z" transform="translate(-34.742 -394.048)" fill="#3c0061"/>
      <path id="Trazado_124901" data-name="Trazado 124901" d="M745.434,510.288l-1.089,3.361,2.744-.708Z" transform="translate(-565.903 -387.958)" fill="#47adff"/>
      <path id="Trazado_124902" data-name="Trazado 124902" d="M759.138,497.747l-11.654,5.02a.894.894,0,0,1-1.188-.5l-4.6-11.891a.359.359,0,0,1,.484-.455l16.957,7.824Z" transform="translate(-563.87 -372.449)" fill="#bee2ff"/>
      <path id="Trazado_124903" data-name="Trazado 124903" d="M748.894,510.293l15.735,2.966-15-1.045-.341.918Z" transform="translate(-569.362 -387.962)" fill="#47adff"/>
      <path id="Trazado_124904" data-name="Trazado 124904" d="M746.616,519.443l-2.271.3,1.826-1.438Z" transform="translate(-565.903 -394.055)" fill="#47adff"/>
    </g>
  </g>
</svg>
